<svg width="150" height="48" viewBox="0 0 150 48" fill="none" xmlns="http://www.w3.org/2000/svg">
<rect width="150" height="48" rx="4" fill="#8DD3BB"/>
<path d="M39.316 19.7H43.6C44.6453 19.7 45.574 19.9053 46.386 20.316C47.198 20.7173 47.828 21.2913 48.276 22.038C48.724 22.7753 48.948 23.6293 48.948 24.6C48.948 25.5707 48.724 26.4293 48.276 27.176C47.828 27.9133 47.198 28.4873 46.386 28.898C45.574 29.2993 44.6453 29.5 43.6 29.5H39.316V19.7ZM43.516 27.96C44.2347 27.96 44.8647 27.8247 45.406 27.554C45.9567 27.274 46.3767 26.882 46.666 26.378C46.9647 25.8647 47.114 25.272 47.114 24.6C47.114 23.928 46.9647 23.34 46.666 22.836C46.3767 22.3227 45.9567 21.9307 45.406 21.66C44.8647 21.38 44.2347 21.24 43.516 21.24H41.136V27.96H43.516ZM54.0744 29.598C53.3184 29.598 52.6371 29.4347 52.0304 29.108C51.4237 28.7813 50.9477 28.3287 50.6024 27.75C50.2664 27.162 50.0984 26.4993 50.0984 25.762C50.0984 25.0247 50.2664 24.3667 50.6024 23.788C50.9477 23.2093 51.4237 22.7567 52.0304 22.43C52.6371 22.1033 53.3184 21.94 54.0744 21.94C54.8397 21.94 55.5257 22.1033 56.1324 22.43C56.7391 22.7567 57.2104 23.2093 57.5464 23.788C57.8917 24.3667 58.0644 25.0247 58.0644 25.762C58.0644 26.4993 57.8917 27.162 57.5464 27.75C57.2104 28.3287 56.7391 28.7813 56.1324 29.108C55.5257 29.4347 54.8397 29.598 54.0744 29.598ZM54.0744 28.1C54.7184 28.1 55.2504 27.8853 55.6704 27.456C56.0904 27.0267 56.3004 26.462 56.3004 25.762C56.3004 25.062 56.0904 24.4973 55.6704 24.068C55.2504 23.6387 54.7184 23.424 54.0744 23.424C53.4304 23.424 52.8984 23.6387 52.4784 24.068C52.0677 24.4973 51.8624 25.062 51.8624 25.762C51.8624 26.462 52.0677 27.0267 52.4784 27.456C52.8984 27.8853 53.4304 28.1 54.0744 28.1ZM71.1948 22.024L68.4368 29.5H66.7568L64.8248 24.348L62.8648 29.5H61.1848L58.4408 22.024H60.0928L62.0668 27.54L64.1248 22.024H65.5948L67.6108 27.568L69.6408 22.024H71.1948ZM76.64 21.94C77.5827 21.94 78.3387 22.2153 78.908 22.766C79.4773 23.3167 79.762 24.1333 79.762 25.216V29.5H78.012V25.44C78.012 24.7867 77.858 24.2967 77.55 23.97C77.242 23.634 76.8033 23.466 76.234 23.466C75.59 23.466 75.0813 23.662 74.708 24.054C74.3347 24.4367 74.148 24.992 74.148 25.72V29.5H72.398V22.024H74.064V22.99C74.3533 22.6447 74.7173 22.3833 75.156 22.206C75.5947 22.0287 76.0893 21.94 76.64 21.94ZM81.982 19.112H83.732V29.5H81.982V19.112ZM89.3889 29.598C88.6329 29.598 87.9515 29.4347 87.3449 29.108C86.7382 28.7813 86.2622 28.3287 85.9169 27.75C85.5809 27.162 85.4129 26.4993 85.4129 25.762C85.4129 25.0247 85.5809 24.3667 85.9169 23.788C86.2622 23.2093 86.7382 22.7567 87.3449 22.43C87.9515 22.1033 88.6329 21.94 89.3889 21.94C90.1542 21.94 90.8402 22.1033 91.4469 22.43C92.0535 22.7567 92.5249 23.2093 92.8609 23.788C93.2062 24.3667 93.3789 25.0247 93.3789 25.762C93.3789 26.4993 93.2062 27.162 92.8609 27.75C92.5249 28.3287 92.0535 28.7813 91.4469 29.108C90.8402 29.4347 90.1542 29.598 89.3889 29.598ZM89.3889 28.1C90.0329 28.1 90.5649 27.8853 90.9849 27.456C91.4049 27.0267 91.6149 26.462 91.6149 25.762C91.6149 25.062 91.4049 24.4973 90.9849 24.068C90.5649 23.6387 90.0329 23.424 89.3889 23.424C88.7449 23.424 88.2129 23.6387 87.7929 24.068C87.3822 24.4973 87.1769 25.062 87.1769 25.762C87.1769 26.462 87.3822 27.0267 87.7929 27.456C88.2129 27.8853 88.7449 28.1 89.3889 28.1ZM97.8126 21.94C98.9139 21.94 99.7539 22.206 100.333 22.738C100.921 23.2607 101.215 24.054 101.215 25.118V29.5H99.5626V28.59C99.3479 28.9167 99.0399 29.1687 98.6386 29.346C98.2466 29.514 97.7706 29.598 97.2106 29.598C96.6506 29.598 96.1606 29.5047 95.7406 29.318C95.3206 29.122 94.9939 28.856 94.7606 28.52C94.5366 28.1747 94.4246 27.7873 94.4246 27.358C94.4246 26.686 94.6719 26.1493 95.1666 25.748C95.6706 25.3373 96.4593 25.132 97.5326 25.132H99.4646V25.02C99.4646 24.4973 99.3059 24.096 98.9886 23.816C98.6806 23.536 98.2186 23.396 97.6026 23.396C97.1826 23.396 96.7673 23.4613 96.3566 23.592C95.9553 23.7227 95.6146 23.9047 95.3346 24.138L94.6486 22.864C95.0406 22.5653 95.5119 22.3367 96.0626 22.178C96.6133 22.0193 97.1966 21.94 97.8126 21.94ZM97.5746 28.324C98.0133 28.324 98.4006 28.226 98.7366 28.03C99.0819 27.8247 99.3246 27.5353 99.4646 27.162V26.294H97.6586C96.6506 26.294 96.1466 26.6253 96.1466 27.288C96.1466 27.6053 96.2726 27.8573 96.5246 28.044C96.7766 28.2307 97.1266 28.324 97.5746 28.324ZM110.851 19.112V29.5H109.171V28.534C108.882 28.8887 108.522 29.1547 108.093 29.332C107.673 29.5093 107.206 29.598 106.693 29.598C105.974 29.598 105.326 29.4393 104.747 29.122C104.178 28.8047 103.73 28.3567 103.403 27.778C103.076 27.19 102.913 26.518 102.913 25.762C102.913 25.006 103.076 24.3387 103.403 23.76C103.73 23.1813 104.178 22.7333 104.747 22.416C105.326 22.0987 105.974 21.94 106.693 21.94C107.188 21.94 107.64 22.024 108.051 22.192C108.462 22.36 108.812 22.612 109.101 22.948V19.112H110.851ZM106.903 28.1C107.323 28.1 107.701 28.0067 108.037 27.82C108.373 27.624 108.639 27.3487 108.835 26.994C109.031 26.6393 109.129 26.2287 109.129 25.762C109.129 25.2953 109.031 24.8847 108.835 24.53C108.639 24.1753 108.373 23.9047 108.037 23.718C107.701 23.522 107.323 23.424 106.903 23.424C106.483 23.424 106.105 23.522 105.769 23.718C105.433 23.9047 105.167 24.1753 104.971 24.53C104.775 24.8847 104.677 25.2953 104.677 25.762C104.677 26.2287 104.775 26.6393 104.971 26.994C105.167 27.3487 105.433 27.624 105.769 27.82C106.105 28.0067 106.483 28.1 106.903 28.1Z" fill="#112211"/>
</svg>
