<svg width="48" height="48" viewBox="0 0 48 48" fill="none" xmlns="http://www.w3.org/2000/svg">
<rect x="0.5" y="0.5" width="47" height="47" rx="3.5" stroke="#8DD3BB"/>
<path d="M27.1866 27.9151L27.2024 27.924L27.215 27.9109C27.4455 27.6698 27.7225 27.478 28.0292 27.347C28.336 27.216 28.6661 27.1485 28.9996 27.1486C29.5168 27.1486 30.0211 27.3105 30.4417 27.6116C30.8622 27.9127 31.1779 28.338 31.3445 28.8277C31.511 29.3174 31.5201 29.8469 31.3704 30.342C31.2206 30.8371 30.9197 31.2729 30.5097 31.5883C30.0997 31.9036 29.6012 32.0826 29.0843 32.1003C28.5673 32.1179 28.0578 31.9733 27.6273 31.6866C27.1968 31.4 26.8668 30.9857 26.6837 30.502C26.5005 30.0182 26.4735 29.4893 26.6062 28.9894L26.6109 28.9718L26.5951 28.9629L20.8138 25.7102L20.798 25.7013L20.7854 25.7144C20.4433 26.0711 20.0023 26.3173 19.5192 26.4213C19.036 26.5253 18.5328 26.4823 18.0742 26.298C17.6157 26.1136 17.2228 25.7963 16.9461 25.3868C16.6694 24.9773 16.5215 24.4944 16.5215 24.0002C16.5215 23.5059 16.6694 23.023 16.9461 22.6135C17.2228 22.204 17.6157 21.8867 18.0742 21.7024C18.5328 21.518 19.036 21.4751 19.5192 21.5791C20.0023 21.6831 20.4433 21.9292 20.7854 22.2859L20.798 22.299L20.8138 22.2901L26.5951 19.0374L26.6109 19.0285L26.6062 19.0109C26.4516 18.4305 26.5139 17.8135 26.7815 17.2757C27.0491 16.7379 27.5036 16.3161 28.0599 16.0894C28.6161 15.8626 29.236 15.8465 29.8033 16.0439C30.3706 16.2414 30.8465 16.6389 31.1418 17.162C31.437 17.6852 31.5314 18.298 31.4073 18.8857C31.2831 19.4735 30.9489 19.9958 30.4673 20.3548C29.9857 20.7138 29.3897 20.8849 28.791 20.8361C28.1923 20.7872 27.6319 20.5217 27.2149 20.0894L27.2023 20.0763L27.1866 20.0852L21.4053 23.3379L21.3895 23.3469L21.3941 23.3644C21.5051 23.781 21.5051 24.2193 21.3941 24.6359L21.3895 24.6535L21.4053 24.6624L27.1866 27.9151Z" fill="black" stroke="#112211" stroke-width="0.046875"/>
</svg>
