<svg width="128" height="32" viewBox="0 0 128 32" fill="none" xmlns="http://www.w3.org/2000/svg">
<rect width="32" height="32" rx="4" fill="#EBF6F2"/>
<path d="M24.25 11.2857C24.25 10.6605 24.0017 10.061 23.5596 9.61891C23.1176 9.17686 22.518 8.92852 21.8929 8.92852H21.3036V8.35581C21.3036 8.0387 21.0598 7.76652 20.7426 7.75068C20.663 7.74684 20.5833 7.75922 20.5086 7.78707C20.4338 7.81491 20.3655 7.85764 20.3078 7.91267C20.25 7.9677 20.204 8.03388 20.1726 8.1072C20.1412 8.18052 20.125 8.25946 20.125 8.33923V8.92852H11.875V8.35581C11.875 8.0387 11.6312 7.76652 11.3141 7.75068C11.2344 7.74684 11.1548 7.75922 11.08 7.78707C11.0053 7.81491 10.9369 7.85764 10.8792 7.91267C10.8214 7.9677 10.7755 8.03388 10.7441 8.1072C10.7126 8.18052 10.6964 8.25946 10.6964 8.33923V8.92852H10.1071C9.48199 8.92852 8.88244 9.17686 8.44039 9.61891C7.99834 10.061 7.75 10.6605 7.75 11.2857V11.7276C7.75 11.7667 7.76552 11.8042 7.79315 11.8318C7.82078 11.8594 7.85825 11.8749 7.89732 11.8749H24.1027C24.1418 11.8749 24.1792 11.8594 24.2069 11.8318C24.2345 11.8042 24.25 11.7667 24.25 11.7276V11.2857ZM7.75 21.8928C7.75 22.518 7.99834 23.1175 8.44039 23.5596C8.88244 24.0016 9.48199 24.2499 10.1071 24.2499H21.8929C22.518 24.2499 23.1176 24.0016 23.5596 23.5596C24.0017 23.1175 24.25 22.518 24.25 21.8928V13.164C24.25 13.1347 24.2384 13.1066 24.2176 13.0859C24.1969 13.0652 24.1688 13.0535 24.1395 13.0535H7.86049C7.83119 13.0535 7.80308 13.0652 7.78236 13.0859C7.76164 13.1066 7.75 13.1347 7.75 13.164V21.8928ZM20.4196 14.2321C20.5945 14.2321 20.7654 14.2839 20.9107 14.3811C21.0561 14.4782 21.1694 14.6162 21.2363 14.7778C21.3032 14.9393 21.3207 15.117 21.2866 15.2885C21.2525 15.4599 21.1683 15.6174 21.0447 15.741C20.9211 15.8647 20.7636 15.9489 20.5921 15.983C20.4206 16.0171 20.2429 15.9996 20.0814 15.9327C19.9199 15.8658 19.7818 15.7525 19.6847 15.6071C19.5876 15.4617 19.5357 15.2908 19.5357 15.116C19.5357 14.8816 19.6288 14.6568 19.7946 14.491C19.9604 14.3252 20.1852 14.2321 20.4196 14.2321ZM20.4196 17.1785C20.5945 17.1785 20.7654 17.2304 20.9107 17.3275C21.0561 17.4246 21.1694 17.5627 21.2363 17.7242C21.3032 17.8857 21.3207 18.0634 21.2866 18.2349C21.2525 18.4064 21.1683 18.5639 21.0447 18.6875C20.9211 18.8111 20.7636 18.8953 20.5921 18.9294C20.4206 18.9635 20.2429 18.946 20.0814 18.8791C19.9199 18.8122 19.7818 18.6989 19.6847 18.5535C19.5876 18.4082 19.5357 18.2373 19.5357 18.0624C19.5357 17.828 19.6288 17.6032 19.7946 17.4374C19.9604 17.2716 20.1852 17.1785 20.4196 17.1785ZM17.4732 14.2321C17.648 14.2321 17.8189 14.2839 17.9643 14.3811C18.1097 14.4782 18.223 14.6162 18.2899 14.7778C18.3568 14.9393 18.3743 15.117 18.3402 15.2885C18.3061 15.4599 18.2219 15.6174 18.0982 15.741C17.9746 15.8647 17.8171 15.9489 17.6457 15.983C17.4742 16.0171 17.2965 15.9996 17.135 15.9327C16.9734 15.8658 16.8354 15.7525 16.7383 15.6071C16.6411 15.4617 16.5893 15.2908 16.5893 15.116C16.5893 14.8816 16.6824 14.6568 16.8482 14.491C17.014 14.3252 17.2388 14.2321 17.4732 14.2321ZM17.4732 17.1785C17.648 17.1785 17.8189 17.2304 17.9643 17.3275C18.1097 17.4246 18.223 17.5627 18.2899 17.7242C18.3568 17.8857 18.3743 18.0634 18.3402 18.2349C18.3061 18.4064 18.2219 18.5639 18.0982 18.6875C17.9746 18.8111 17.8171 18.8953 17.6457 18.9294C17.4742 18.9635 17.2965 18.946 17.135 18.8791C16.9734 18.8122 16.8354 18.6989 16.7383 18.5535C16.6411 18.4082 16.5893 18.2373 16.5893 18.0624C16.5893 17.828 16.6824 17.6032 16.8482 17.4374C17.014 17.2716 17.2388 17.1785 17.4732 17.1785ZM17.4732 20.1249C17.648 20.1249 17.8189 20.1768 17.9643 20.2739C18.1097 20.371 18.223 20.5091 18.2899 20.6706C18.3568 20.8321 18.3743 21.0099 18.3402 21.1813C18.3061 21.3528 18.2219 21.5103 18.0982 21.6339C17.9746 21.7575 17.8171 21.8417 17.6457 21.8758C17.4742 21.9099 17.2965 21.8924 17.135 21.8255C16.9734 21.7586 16.8354 21.6453 16.7383 21.5C16.6411 21.3546 16.5893 21.1837 16.5893 21.0089C16.5893 20.7744 16.6824 20.5496 16.8482 20.3838C17.014 20.2181 17.2388 20.1249 17.4732 20.1249ZM14.5268 17.1785C14.7016 17.1785 14.8725 17.2304 15.0179 17.3275C15.1632 17.4246 15.2765 17.5627 15.3434 17.7242C15.4103 17.8857 15.4278 18.0634 15.3937 18.2349C15.3596 18.4064 15.2754 18.5639 15.1518 18.6875C15.0282 18.8111 14.8707 18.8953 14.6992 18.9294C14.5278 18.9635 14.35 18.946 14.1885 18.8791C14.027 18.8122 13.889 18.6989 13.7918 18.5535C13.6947 18.4082 13.6429 18.2373 13.6429 18.0624C13.6429 17.828 13.736 17.6032 13.9018 17.4374C14.0675 17.2716 14.2924 17.1785 14.5268 17.1785ZM14.5268 20.1249C14.7016 20.1249 14.8725 20.1768 15.0179 20.2739C15.1632 20.371 15.2765 20.5091 15.3434 20.6706C15.4103 20.8321 15.4278 21.0099 15.3937 21.1813C15.3596 21.3528 15.2754 21.5103 15.1518 21.6339C15.0282 21.7575 14.8707 21.8417 14.6992 21.8758C14.5278 21.9099 14.35 21.8924 14.1885 21.8255C14.027 21.7586 13.889 21.6453 13.7918 21.5C13.6947 21.3546 13.6429 21.1837 13.6429 21.0089C13.6429 20.7744 13.736 20.5496 13.9018 20.3838C14.0675 20.2181 14.2924 20.1249 14.5268 20.1249ZM11.5804 17.1785C11.7552 17.1785 11.9261 17.2304 12.0714 17.3275C12.2168 17.4246 12.3301 17.5627 12.397 17.7242C12.4639 17.8857 12.4814 18.0634 12.4473 18.2349C12.4132 18.4064 12.329 18.5639 12.2054 18.6875C12.0818 18.8111 11.9243 18.8953 11.7528 18.9294C11.5813 18.9635 11.4036 18.946 11.2421 18.8791C11.0806 18.8122 10.9425 18.6989 10.8454 18.5535C10.7483 18.4082 10.6964 18.2373 10.6964 18.0624C10.6964 17.828 10.7896 17.6032 10.9553 17.4374C11.1211 17.2716 11.3459 17.1785 11.5804 17.1785ZM11.5804 20.1249C11.7552 20.1249 11.9261 20.1768 12.0714 20.2739C12.2168 20.371 12.3301 20.5091 12.397 20.6706C12.4639 20.8321 12.4814 21.0099 12.4473 21.1813C12.4132 21.3528 12.329 21.5103 12.2054 21.6339C12.0818 21.7575 11.9243 21.8417 11.7528 21.8758C11.5813 21.9099 11.4036 21.8924 11.2421 21.8255C11.0806 21.7586 10.9425 21.6453 10.8454 21.5C10.7483 21.3546 10.6964 21.1837 10.6964 21.0089C10.6964 20.7744 10.7896 20.5496 10.9553 20.3838C11.1211 20.2181 11.3459 20.1249 11.5804 20.1249Z" fill="#8DD3BB"/>
<path opacity="0.6" d="M41.316 14V4.2H45.6C46.664 4.2 47.5973 4.40533 48.4 4.816C49.2027 5.22667 49.828 5.796 50.276 6.524C50.724 7.252 50.948 8.11067 50.948 9.1C50.948 10.08 50.724 10.9387 50.276 11.676C49.828 12.404 49.2027 12.9733 48.4 13.384C47.5973 13.7947 46.664 14 45.6 14H41.316ZM43.136 12.46H45.516C46.2533 12.46 46.888 12.32 47.42 12.04C47.9613 11.76 48.3767 11.368 48.666 10.864C48.9647 10.36 49.114 9.772 49.114 9.1C49.114 8.41867 48.9647 7.83067 48.666 7.336C48.3767 6.832 47.9613 6.44 47.42 6.16C46.888 5.88 46.2533 5.74 45.516 5.74H43.136V12.46ZM57.3204 14V12.488L57.2224 12.166V9.52C57.2224 9.00667 57.0684 8.61 56.7604 8.33C56.4524 8.04067 55.9857 7.896 55.3604 7.896C54.9404 7.896 54.5251 7.96133 54.1144 8.092C53.7131 8.22267 53.3724 8.40467 53.0924 8.638L52.4064 7.364C52.8077 7.056 53.2837 6.82733 53.8344 6.678C54.3944 6.51933 54.9731 6.44 55.5704 6.44C56.6531 6.44 57.4884 6.70133 58.0764 7.224C58.6737 7.73733 58.9724 8.53533 58.9724 9.618V14H57.3204ZM54.9684 14.098C54.4084 14.098 53.9184 14.0047 53.4984 13.818C53.0784 13.622 52.7517 13.356 52.5184 13.02C52.2944 12.6747 52.1824 12.2873 52.1824 11.858C52.1824 11.438 52.2804 11.06 52.4764 10.724C52.6817 10.388 53.0131 10.122 53.4704 9.926C53.9277 9.73 54.5344 9.632 55.2904 9.632H57.4604V10.794H55.4164C54.8191 10.794 54.4177 10.892 54.2124 11.088C54.0071 11.2747 53.9044 11.508 53.9044 11.788C53.9044 12.1053 54.0304 12.3573 54.2824 12.544C54.5344 12.7307 54.8844 12.824 55.3324 12.824C55.7617 12.824 56.1444 12.726 56.4804 12.53C56.8257 12.334 57.0731 12.0447 57.2224 11.662L57.5164 12.712C57.3484 13.1507 57.0451 13.4913 56.6064 13.734C56.1771 13.9767 55.6311 14.098 54.9684 14.098ZM64.0323 14.098C63.211 14.098 62.5763 13.888 62.1283 13.468C61.6803 13.0387 61.4563 12.4087 61.4563 11.578V4.872H63.2063V11.536C63.2063 11.8907 63.295 12.166 63.4723 12.362C63.659 12.558 63.9156 12.656 64.2423 12.656C64.6343 12.656 64.961 12.5533 65.2223 12.348L65.7123 13.594C65.507 13.762 65.255 13.888 64.9563 13.972C64.6576 14.056 64.3496 14.098 64.0323 14.098ZM60.2243 7.98V6.58H65.2083V7.98H60.2243ZM70.4198 14.098C69.5891 14.098 68.8611 13.9347 68.2358 13.608C67.6198 13.272 67.1391 12.8147 66.7938 12.236C66.4578 11.6573 66.2898 10.9993 66.2898 10.262C66.2898 9.51533 66.4531 8.85733 66.7798 8.288C67.1158 7.70933 67.5731 7.25667 68.1518 6.93C68.7398 6.60333 69.4071 6.44 70.1538 6.44C70.8818 6.44 71.5305 6.59867 72.0998 6.916C72.6691 7.23333 73.1171 7.68133 73.4438 8.26C73.7705 8.83867 73.9338 9.52 73.9338 10.304C73.9338 10.3787 73.9291 10.4627 73.9198 10.556C73.9198 10.6493 73.9151 10.738 73.9058 10.822H67.6758V9.66H72.9818L72.2958 10.024C72.3051 9.59467 72.2165 9.21667 72.0298 8.89C71.8431 8.56333 71.5865 8.30667 71.2598 8.12C70.9425 7.93333 70.5738 7.84 70.1538 7.84C69.7245 7.84 69.3465 7.93333 69.0198 8.12C68.7025 8.30667 68.4505 8.568 68.2638 8.904C68.0865 9.23067 67.9978 9.618 67.9978 10.066V10.346C67.9978 10.794 68.1005 11.1907 68.3058 11.536C68.5111 11.8813 68.8005 12.1473 69.1738 12.334C69.5471 12.5207 69.9765 12.614 70.4618 12.614C70.8818 12.614 71.2598 12.5487 71.5958 12.418C71.9318 12.2873 72.2305 12.082 72.4918 11.802L73.4298 12.88C73.0938 13.272 72.6691 13.5753 72.1558 13.79C71.6518 13.9953 71.0731 14.098 70.4198 14.098Z" fill="#112211"/>
<path d="M41.26 29V20.6H42.244L47.8 27.5H47.284V20.6H48.484V29H47.5L41.944 22.1H42.46V29H41.26ZM53.6623 29.072C52.9823 29.072 52.3823 28.932 51.8623 28.652C51.3503 28.372 50.9503 27.988 50.6623 27.5C50.3823 27.012 50.2423 26.452 50.2423 25.82C50.2423 25.188 50.3783 24.628 50.6503 24.14C50.9303 23.652 51.3103 23.272 51.7903 23C52.2783 22.72 52.8263 22.58 53.4343 22.58C54.0503 22.58 54.5943 22.716 55.0663 22.988C55.5383 23.26 55.9063 23.644 56.1703 24.14C56.4423 24.628 56.5783 25.2 56.5783 25.856C56.5783 25.904 56.5743 25.96 56.5663 26.024C56.5663 26.088 56.5623 26.148 56.5543 26.204H51.1423V25.376H55.9543L55.4863 25.664C55.4943 25.256 55.4103 24.892 55.2343 24.572C55.0583 24.252 54.8143 24.004 54.5023 23.828C54.1983 23.644 53.8423 23.552 53.4343 23.552C53.0343 23.552 52.6783 23.644 52.3663 23.828C52.0543 24.004 51.8103 24.256 51.6343 24.584C51.4583 24.904 51.3703 25.272 51.3703 25.688V25.88C51.3703 26.304 51.4663 26.684 51.6583 27.02C51.8583 27.348 52.1343 27.604 52.4863 27.788C52.8383 27.972 53.2423 28.064 53.6983 28.064C54.0743 28.064 54.4143 28 54.7183 27.872C55.0303 27.744 55.3023 27.552 55.5343 27.296L56.1703 28.04C55.8823 28.376 55.5223 28.632 55.0903 28.808C54.6663 28.984 54.1903 29.072 53.6623 29.072ZM59.4048 29L57.0408 22.64H58.1328L60.2328 28.4H59.7168L61.9008 22.64H62.8728L65.0088 28.4H64.5048L66.6528 22.64H67.6848L65.3088 29H64.2048L62.2008 23.744H62.5368L60.5088 29H59.4048ZM72.6025 29V27.656L72.5425 27.404V25.112C72.5425 24.624 72.3985 24.248 72.1105 23.984C71.8305 23.712 71.4065 23.576 70.8385 23.576C70.4625 23.576 70.0945 23.64 69.7345 23.768C69.3745 23.888 69.0705 24.052 68.8225 24.26L68.3425 23.396C68.6705 23.132 69.0625 22.932 69.5185 22.796C69.9825 22.652 70.4665 22.58 70.9705 22.58C71.8425 22.58 72.5145 22.792 72.9865 23.216C73.4585 23.64 73.6945 24.288 73.6945 25.16V29H72.6025ZM70.5145 29.072C70.0425 29.072 69.6265 28.992 69.2665 28.832C68.9145 28.672 68.6425 28.452 68.4505 28.172C68.2585 27.884 68.1625 27.56 68.1625 27.2C68.1625 26.856 68.2425 26.544 68.4025 26.264C68.5705 25.984 68.8385 25.76 69.2065 25.592C69.5825 25.424 70.0865 25.34 70.7185 25.34H72.7345V26.168H70.7665C70.1905 26.168 69.8025 26.264 69.6025 26.456C69.4025 26.648 69.3025 26.88 69.3025 27.152C69.3025 27.464 69.4265 27.716 69.6745 27.908C69.9225 28.092 70.2665 28.184 70.7065 28.184C71.1385 28.184 71.5145 28.088 71.8345 27.896C72.1625 27.704 72.3985 27.424 72.5425 27.056L72.7705 27.848C72.6185 28.224 72.3505 28.524 71.9665 28.748C71.5825 28.964 71.0985 29.072 70.5145 29.072ZM75.8264 29V22.64H76.9304V24.368L76.8224 23.936C76.9984 23.496 77.2944 23.16 77.7104 22.928C78.1264 22.696 78.6384 22.58 79.2464 22.58V23.696C79.1984 23.688 79.1504 23.684 79.1024 23.684C79.0624 23.684 79.0224 23.684 78.9824 23.684C78.3664 23.684 77.8784 23.868 77.5184 24.236C77.1584 24.604 76.9784 25.136 76.9784 25.832V29H75.8264ZM81.6022 27.464L81.6262 25.988L85.2862 22.64H86.6782L83.8702 25.4L83.2462 25.928L81.6022 27.464ZM80.6662 29V20.096H81.8182V29H80.6662ZM85.5262 29L83.0302 25.904L83.7742 24.98L86.9422 29H85.5262ZM89.5368 31.328C89.0808 30.6 88.7288 29.76 88.4808 28.808C88.2328 27.848 88.1088 26.816 88.1088 25.712C88.1088 24.608 88.2328 23.576 88.4808 22.616C88.7288 21.648 89.0808 20.808 89.5368 20.096H90.6288C90.1488 20.944 89.7968 21.832 89.5728 22.76C89.3488 23.68 89.2368 24.664 89.2368 25.712C89.2368 26.76 89.3488 27.748 89.5728 28.676C89.7968 29.596 90.1488 30.48 90.6288 31.328H89.5368ZM93.3637 24.224H97.6837V25.244H93.3637V24.224ZM93.4717 27.956H98.3677V29H92.2717V20.6H98.1997V21.644H93.4717V27.956ZM102.126 29L99.3176 20.6H100.554L103.134 28.352H102.51L105.186 20.6H106.29L108.906 28.352H108.306L110.922 20.6H112.062L109.254 29H107.994L105.546 21.812H105.87L103.41 29H102.126ZM113.53 29V20.6H116.806C117.542 20.6 118.17 20.716 118.69 20.948C119.21 21.18 119.61 21.516 119.89 21.956C120.17 22.396 120.31 22.92 120.31 23.528C120.31 24.136 120.17 24.66 119.89 25.1C119.61 25.532 119.21 25.864 118.69 26.096C118.17 26.328 117.542 26.444 116.806 26.444H114.19L114.73 25.892V29H113.53ZM119.146 29L117.01 25.952H118.294L120.454 29H119.146ZM114.73 26.012L114.19 25.424H116.77C117.538 25.424 118.118 25.26 118.51 24.932C118.91 24.596 119.11 24.128 119.11 23.528C119.11 22.928 118.91 22.464 118.51 22.136C118.118 21.808 117.538 21.644 116.77 21.644H114.19L114.73 21.044V26.012ZM122.464 31.328H121.372C121.86 30.48 122.216 29.596 122.44 28.676C122.664 27.748 122.776 26.76 122.776 25.712C122.776 24.664 122.664 23.68 122.44 22.76C122.216 21.832 121.86 20.944 121.372 20.096H122.464C122.936 20.808 123.292 21.648 123.532 22.616C123.78 23.576 123.904 24.608 123.904 25.712C123.904 26.816 123.78 27.848 123.532 28.808C123.292 29.76 122.936 30.6 122.464 31.328Z" fill="#112211"/>
</svg>
