<svg width="96" height="32" viewBox="0 0 96 32" fill="none" xmlns="http://www.w3.org/2000/svg">
<rect width="32" height="32" rx="4" fill="#EBF6F2"/>
<path d="M11.9578 9.95903C11.2428 9.24403 11.2428 8.07986 11.9578 7.36486C12.6728 6.64986 13.837 6.64986 14.552 7.36486C15.267 8.07986 15.267 9.24403 14.552 9.95903C13.8278 10.6832 12.6728 10.6832 11.9578 9.95903ZM10.5003 19.6665V12.3332C10.5003 11.829 10.0878 11.4165 9.58366 11.4165C9.07949 11.4165 8.66699 11.829 8.66699 12.3332V19.6665C8.66699 22.1965 10.7203 24.2499 13.2503 24.2499H17.8337C18.3378 24.2499 18.7503 23.8374 18.7503 23.3332C18.7503 22.829 18.3378 22.4165 17.8337 22.4165H13.2503C11.7287 22.4165 10.5003 21.1882 10.5003 19.6665ZM22.6737 22.7374L19.2178 19.2815C18.8787 18.9424 18.4112 18.7499 17.9253 18.7499H15.542V15.3765C16.5412 16.1924 17.9803 16.9349 19.392 17.2282C20.0062 17.3565 20.5837 16.8982 20.5837 16.2749C20.5837 15.789 20.2262 15.3949 19.7403 15.3124C18.4387 15.0924 17.1003 14.3865 16.3028 13.5065L15.0195 12.0857C14.8453 11.8932 14.6253 11.7374 14.387 11.6274C14.1212 11.499 13.8187 11.4165 13.507 11.4165H13.4795C12.3428 11.4165 11.417 12.3424 11.417 13.479V18.7499C11.417 20.2715 12.6453 21.4999 14.167 21.4999H18.8145L21.3628 24.0482C21.7203 24.4057 22.3162 24.4057 22.6737 24.0482C23.0403 23.6907 23.0403 23.104 22.6737 22.7374Z" fill="#8DD3BB"/>
<path opacity="0.6" d="M44.354 14.14C43.598 14.14 42.8653 14.0327 42.156 13.818C41.456 13.6033 40.9007 13.3187 40.49 12.964L41.12 11.55C41.5213 11.8673 42.0113 12.1287 42.59 12.334C43.178 12.53 43.766 12.628 44.354 12.628C45.082 12.628 45.6233 12.5113 45.978 12.278C46.342 12.0447 46.524 11.7367 46.524 11.354C46.524 11.074 46.4213 10.8453 46.216 10.668C46.02 10.4813 45.768 10.3367 45.46 10.234C45.152 10.1313 44.732 10.0147 44.2 9.884C43.4533 9.70667 42.8467 9.52933 42.38 9.352C41.9227 9.17467 41.526 8.89933 41.19 8.526C40.8633 8.14333 40.7 7.63 40.7 6.986C40.7 6.44467 40.8447 5.95467 41.134 5.516C41.4327 5.068 41.876 4.71333 42.464 4.452C43.0613 4.19067 43.7893 4.06 44.648 4.06C45.2453 4.06 45.8333 4.13467 46.412 4.284C46.9907 4.43333 47.49 4.648 47.91 4.928L47.336 6.342C46.9067 6.09 46.4587 5.89867 45.992 5.768C45.5253 5.63733 45.0727 5.572 44.634 5.572C43.9153 5.572 43.3787 5.69333 43.024 5.936C42.6787 6.17867 42.506 6.50067 42.506 6.902C42.506 7.182 42.604 7.41067 42.8 7.588C43.0053 7.76533 43.262 7.90533 43.57 8.008C43.878 8.11067 44.298 8.22733 44.83 8.358C45.558 8.526 46.1553 8.70333 46.622 8.89C47.0887 9.06733 47.4853 9.34267 47.812 9.716C48.148 10.0893 48.316 10.5933 48.316 11.228C48.316 11.7693 48.1667 12.2593 47.868 12.698C47.5787 13.1367 47.1353 13.4867 46.538 13.748C45.9407 14.0093 45.2127 14.14 44.354 14.14ZM56.9807 10.304C56.9807 10.4253 56.9714 10.598 56.9527 10.822H51.0867C51.1894 11.3727 51.4554 11.8113 51.8847 12.138C52.3234 12.4553 52.8647 12.614 53.5087 12.614C54.33 12.614 55.0067 12.3433 55.5387 11.802L56.4767 12.88C56.1407 13.2813 55.716 13.5847 55.2027 13.79C54.6894 13.9953 54.1107 14.098 53.4667 14.098C52.6454 14.098 51.922 13.9347 51.2967 13.608C50.6714 13.2813 50.186 12.8287 49.8407 12.25C49.5047 11.662 49.3367 10.9993 49.3367 10.262C49.3367 9.534 49.5 8.88067 49.8267 8.302C50.1627 7.714 50.6247 7.25667 51.2127 6.93C51.8007 6.60333 52.4634 6.44 53.2007 6.44C53.9287 6.44 54.5774 6.60333 55.1467 6.93C55.7254 7.24733 56.1734 7.7 56.4907 8.288C56.8174 8.86667 56.9807 9.53867 56.9807 10.304ZM53.2007 7.84C52.6407 7.84 52.1647 8.008 51.7727 8.344C51.39 8.67067 51.1567 9.10933 51.0727 9.66H55.3147C55.24 9.11867 55.0114 8.68 54.6287 8.344C54.246 8.008 53.77 7.84 53.2007 7.84ZM61.3126 6.44C62.4139 6.44 63.2539 6.706 63.8326 7.238C64.4206 7.76067 64.7146 8.554 64.7146 9.618V14H63.0626V13.09C62.8479 13.4167 62.5399 13.6687 62.1386 13.846C61.7466 14.014 61.2706 14.098 60.7106 14.098C60.1506 14.098 59.6606 14.0047 59.2406 13.818C58.8206 13.622 58.4939 13.356 58.2606 13.02C58.0366 12.6747 57.9246 12.2873 57.9246 11.858C57.9246 11.186 58.1719 10.6493 58.6666 10.248C59.1706 9.83733 59.9593 9.632 61.0326 9.632H62.9646V9.52C62.9646 8.99733 62.8059 8.596 62.4886 8.316C62.1806 8.036 61.7186 7.896 61.1026 7.896C60.6826 7.896 60.2673 7.96133 59.8566 8.092C59.4553 8.22267 59.1146 8.40467 58.8346 8.638L58.1486 7.364C58.5406 7.06533 59.0119 6.83667 59.5626 6.678C60.1133 6.51933 60.6966 6.44 61.3126 6.44ZM61.0746 12.824C61.5133 12.824 61.9006 12.726 62.2366 12.53C62.5819 12.3247 62.8246 12.0353 62.9646 11.662V10.794H61.1586C60.1506 10.794 59.6466 11.1253 59.6466 11.788C59.6466 12.1053 59.7726 12.3573 60.0246 12.544C60.2766 12.7307 60.6266 12.824 61.0746 12.824ZM71.4545 13.594C71.2492 13.762 70.9972 13.888 70.6985 13.972C70.4092 14.056 70.1012 14.098 69.7745 14.098C68.9532 14.098 68.3185 13.8833 67.8705 13.454C67.4225 13.0247 67.1985 12.3993 67.1985 11.578V7.98H65.9665V6.58H67.1985V4.872H68.9485V6.58H70.9505V7.98H68.9485V11.536C68.9485 11.9 69.0372 12.18 69.2145 12.376C69.3918 12.5627 69.6485 12.656 69.9845 12.656C70.3765 12.656 70.7032 12.5533 70.9645 12.348L71.4545 13.594Z" fill="#112211"/>
<path d="M40.096 20.6V21.644H41.992V29H43.18V20.6H40.096ZM46.6134 27.956L49.1814 25.484C50.3214 24.392 50.5614 23.66 50.5614 22.844C50.5614 21.404 49.4334 20.504 47.6814 20.504C46.3734 20.504 45.2574 20.972 44.6094 21.776L45.4254 22.484C45.9414 21.86 46.6734 21.572 47.5734 21.572C48.7494 21.572 49.3614 22.1 49.3614 22.964C49.3614 23.492 49.1934 24.02 48.3054 24.884L44.8854 28.184V29H50.9214V27.956H46.6134ZM57.044 24.596C57.812 24.236 58.232 23.612 58.232 22.784C58.232 21.38 57.008 20.504 55.184 20.504C53.372 20.504 52.16 21.38 52.16 22.784C52.16 23.612 52.568 24.236 53.336 24.596C52.388 24.956 51.86 25.664 51.86 26.624C51.86 28.148 53.144 29.096 55.184 29.096C57.236 29.096 58.532 28.148 58.532 26.624C58.532 25.664 58.004 24.968 57.044 24.596ZM55.184 21.476C56.312 21.476 57.056 21.992 57.056 22.832C57.056 23.66 56.348 24.176 55.184 24.176C54.032 24.176 53.348 23.66 53.348 22.832C53.348 21.992 54.056 21.476 55.184 21.476ZM55.184 28.124C53.852 28.124 53.06 27.536 53.06 26.588C53.06 25.664 53.852 25.088 55.184 25.088C56.516 25.088 57.332 25.664 57.332 26.588C57.332 27.536 56.516 28.124 55.184 28.124Z" fill="#112211"/>
</svg>
