<svg width="124" height="32" viewBox="0 0 124 32" fill="none" xmlns="http://www.w3.org/2000/svg">
<rect width="32" height="32" rx="4" fill="#EBF6F2"/>
<path d="M16 7.75C11.4439 7.75 7.75 11.4439 7.75 16C7.75 20.5561 11.4439 24.25 16 24.25C20.5561 24.25 24.25 20.5561 24.25 16C24.25 11.4439 20.5561 7.75 16 7.75ZM19.8077 17.2692H16C15.8317 17.2692 15.6703 17.2024 15.5513 17.0834C15.4322 16.9643 15.3654 16.8029 15.3654 16.6346V10.9231C15.3654 10.7548 15.4322 10.5933 15.5513 10.4743C15.6703 10.3553 15.8317 10.2885 16 10.2885C16.1683 10.2885 16.3297 10.3553 16.4487 10.4743C16.5678 10.5933 16.6346 10.7548 16.6346 10.9231V16H19.8077C19.976 16 20.1374 16.0669 20.2564 16.1859C20.3754 16.3049 20.4423 16.4663 20.4423 16.6346C20.4423 16.8029 20.3754 16.9643 20.2564 17.0834C20.1374 17.2024 19.976 17.2692 19.8077 17.2692Z" fill="#8DD3BB"/>
<path opacity="0.6" d="M48.47 4.2V5.726H43.136V8.708H47.868V10.248H43.136V14H41.316V4.2H48.47ZM51.8121 14H50.0621V3.612H51.8121V14ZM55.8589 14H54.1089V6.524H55.8589V14ZM54.9909 5.292C54.6736 5.292 54.4076 5.194 54.1929 4.998C53.9783 4.79267 53.8709 4.54067 53.8709 4.242C53.8709 3.94333 53.9783 3.696 54.1929 3.5C54.4076 3.29467 54.6736 3.192 54.9909 3.192C55.3083 3.192 55.5743 3.29 55.7889 3.486C56.0036 3.67267 56.1109 3.91067 56.1109 4.2C56.1109 4.508 56.0036 4.76933 55.7889 4.984C55.5836 5.18933 55.3176 5.292 54.9909 5.292ZM63.9098 6.524H65.5758V12.866C65.5758 15.498 64.2318 16.814 61.5438 16.814C60.8251 16.814 60.1438 16.7207 59.4998 16.534C58.8558 16.3567 58.3238 16.0953 57.9038 15.75L58.6878 14.434C59.0145 14.7047 59.4251 14.9193 59.9198 15.078C60.4238 15.246 60.9325 15.33 61.4458 15.33C62.2671 15.33 62.8691 15.1433 63.2518 14.77C63.6345 14.3967 63.8258 13.8273 63.8258 13.062V12.67C63.5271 12.9967 63.1631 13.244 62.7338 13.412C62.3045 13.58 61.8331 13.664 61.3198 13.664C60.6105 13.664 59.9665 13.5147 59.3878 13.216C58.8185 12.908 58.3658 12.4787 58.0298 11.928C57.7031 11.3773 57.5398 10.7473 57.5398 10.038C57.5398 9.32867 57.7031 8.70333 58.0298 8.162C58.3658 7.61133 58.8185 7.18667 59.3878 6.888C59.9665 6.58933 60.6105 6.44 61.3198 6.44C61.8611 6.44 62.3511 6.52867 62.7898 6.706C63.2378 6.88333 63.6111 7.154 63.9098 7.518V6.524ZM61.5858 12.18C62.2485 12.18 62.7898 11.984 63.2098 11.592C63.6391 11.1907 63.8538 10.6727 63.8538 10.038C63.8538 9.41267 63.6391 8.904 63.2098 8.512C62.7898 8.12 62.2485 7.924 61.5858 7.924C60.9138 7.924 60.3631 8.12 59.9338 8.512C59.5138 8.904 59.3038 9.41267 59.3038 10.038C59.3038 10.6727 59.5138 11.1907 59.9338 11.592C60.3631 11.984 60.9138 12.18 61.5858 12.18ZM72.1185 6.44C73.0612 6.44 73.8172 6.71533 74.3865 7.266C74.9558 7.81667 75.2405 8.63333 75.2405 9.716V14H73.4905V9.94C73.4905 9.28667 73.3365 8.79667 73.0285 8.47C72.7205 8.134 72.2818 7.966 71.7125 7.966C71.0685 7.966 70.5598 8.162 70.1865 8.554C69.8132 8.93667 69.6265 9.492 69.6265 10.22V14H67.8765V3.612H69.6265V7.392C69.9158 7.084 70.2705 6.85067 70.6905 6.692C71.1198 6.524 71.5958 6.44 72.1185 6.44ZM81.9545 13.594C81.7492 13.762 81.4972 13.888 81.1985 13.972C80.9092 14.056 80.6012 14.098 80.2745 14.098C79.4532 14.098 78.8185 13.8833 78.3705 13.454C77.9225 13.0247 77.6985 12.3993 77.6985 11.578V7.98H76.4665V6.58H77.6985V4.872H79.4485V6.58H81.4505V7.98H79.4485V11.536C79.4485 11.9 79.5372 12.18 79.7145 12.376C79.8918 12.5627 80.1485 12.656 80.4845 12.656C80.8765 12.656 81.2032 12.5533 81.4645 12.348L81.9545 13.594ZM91.7572 13.594C91.5519 13.762 91.2999 13.888 91.0012 13.972C90.7119 14.056 90.4039 14.098 90.0772 14.098C89.2559 14.098 88.6212 13.8833 88.1732 13.454C87.7252 13.0247 87.5012 12.3993 87.5012 11.578V7.98H86.2692V6.58H87.5012V4.872H89.2512V6.58H91.2532V7.98H89.2512V11.536C89.2512 11.9 89.3399 12.18 89.5172 12.376C89.6946 12.5627 89.9512 12.656 90.2872 12.656C90.6792 12.656 91.0059 12.5533 91.2672 12.348L91.7572 13.594ZM94.9468 14H93.1968V6.524H94.9468V14ZM94.0788 5.292C93.7615 5.292 93.4955 5.194 93.2808 4.998C93.0662 4.79267 92.9588 4.54067 92.9588 4.242C92.9588 3.94333 93.0662 3.696 93.2808 3.5C93.4955 3.29467 93.7615 3.192 94.0788 3.192C94.3962 3.192 94.6622 3.29 94.8768 3.486C95.0915 3.67267 95.1988 3.91067 95.1988 4.2C95.1988 4.508 95.0915 4.76933 94.8768 4.984C94.6715 5.18933 94.4055 5.292 94.0788 5.292ZM106.68 6.44C107.622 6.44 108.369 6.71533 108.92 7.266C109.47 7.80733 109.746 8.624 109.746 9.716V14H107.996V9.94C107.996 9.28667 107.851 8.79667 107.562 8.47C107.272 8.134 106.857 7.966 106.316 7.966C105.728 7.966 105.256 8.162 104.902 8.554C104.547 8.93667 104.37 9.48733 104.37 10.206V14H102.62V9.94C102.62 9.28667 102.475 8.79667 102.186 8.47C101.896 8.134 101.481 7.966 100.94 7.966C100.342 7.966 99.8664 8.15733 99.5117 8.54C99.1664 8.92267 98.9937 9.478 98.9937 10.206V14H97.2437V6.524H98.9097V7.476C99.1897 7.14 99.5397 6.88333 99.9597 6.706C100.38 6.52867 100.846 6.44 101.36 6.44C101.92 6.44 102.414 6.54733 102.844 6.762C103.282 6.96733 103.628 7.27533 103.88 7.686C104.188 7.294 104.584 6.99067 105.07 6.776C105.555 6.552 106.092 6.44 106.68 6.44ZM119.024 10.304C119.024 10.4253 119.014 10.598 118.996 10.822H113.13C113.232 11.3727 113.498 11.8113 113.928 12.138C114.366 12.4553 114.908 12.614 115.552 12.614C116.373 12.614 117.05 12.3433 117.582 11.802L118.52 12.88C118.184 13.2813 117.759 13.5847 117.246 13.79C116.732 13.9953 116.154 14.098 115.51 14.098C114.688 14.098 113.965 13.9347 113.34 13.608C112.714 13.2813 112.229 12.8287 111.884 12.25C111.548 11.662 111.38 10.9993 111.38 10.262C111.38 9.534 111.543 8.88067 111.87 8.302C112.206 7.714 112.668 7.25667 113.256 6.93C113.844 6.60333 114.506 6.44 115.244 6.44C115.972 6.44 116.62 6.60333 117.19 6.93C117.768 7.24733 118.216 7.7 118.534 8.288C118.86 8.86667 119.024 9.53867 119.024 10.304ZM115.244 7.84C114.684 7.84 114.208 8.008 113.816 8.344C113.433 8.67067 113.2 9.10933 113.116 9.66H117.358C117.283 9.11867 117.054 8.68 116.672 8.344C116.289 8.008 115.813 7.84 115.244 7.84Z" fill="#112211"/>
<path d="M40.096 20.6V21.644H41.992V29H43.18V20.6H40.096ZM46.6134 27.956L49.1814 25.484C50.3214 24.392 50.5614 23.66 50.5614 22.844C50.5614 21.404 49.4334 20.504 47.6814 20.504C46.3734 20.504 45.2574 20.972 44.6094 21.776L45.4254 22.484C45.9414 21.86 46.6734 21.572 47.5734 21.572C48.7494 21.572 49.3614 22.1 49.3614 22.964C49.3614 23.492 49.1934 24.02 48.3054 24.884L44.8854 28.184V29H50.9214V27.956H46.6134ZM52.7 24.224C53.132 24.224 53.492 23.876 53.492 23.396C53.492 22.916 53.132 22.58 52.7 22.58C52.256 22.58 51.884 22.916 51.884 23.396C51.884 23.876 52.256 24.224 52.7 24.224ZM52.7 29.072C53.132 29.072 53.492 28.724 53.492 28.244C53.492 27.764 53.132 27.428 52.7 27.428C52.256 27.428 51.884 27.764 51.884 28.244C51.884 28.724 52.256 29.072 52.7 29.072ZM58.0588 29.096C60.0148 29.096 61.4788 27.536 61.4788 24.8C61.4788 22.064 60.0148 20.504 58.0588 20.504C56.0908 20.504 54.6268 22.064 54.6268 24.8C54.6268 27.536 56.0908 29.096 58.0588 29.096ZM58.0588 28.028C56.7388 28.028 55.8268 26.948 55.8268 24.8C55.8268 22.652 56.7388 21.572 58.0588 21.572C59.3668 21.572 60.2788 22.652 60.2788 24.8C60.2788 26.948 59.3668 28.028 58.0588 28.028ZM66.0627 29.096C68.0187 29.096 69.4827 27.536 69.4827 24.8C69.4827 22.064 68.0187 20.504 66.0627 20.504C64.0947 20.504 62.6307 22.064 62.6307 24.8C62.6307 27.536 64.0947 29.096 66.0627 29.096ZM66.0627 28.028C64.7427 28.028 63.8307 26.948 63.8307 24.8C63.8307 22.652 64.7427 21.572 66.0627 21.572C67.3707 21.572 68.2827 22.652 68.2827 24.8C68.2827 26.948 67.3707 28.028 66.0627 28.028Z" fill="#112211"/>
</svg>
