<svg width="118" height="32" viewBox="0 0 118 32" fill="none" xmlns="http://www.w3.org/2000/svg">
<rect width="32" height="32" rx="4" fill="#EBF6F2"/>
<path d="M20.5222 7.75C20.8302 7.75 21.1255 7.87233 21.3433 8.09008C21.561 8.30783 21.6833 8.60317 21.6833 8.91111V24.0056H23.425C23.579 24.0056 23.7266 24.0667 23.8355 24.1756C23.9444 24.2845 24.0056 24.4321 24.0056 24.5861C24.0056 24.7401 23.9444 24.8878 23.8355 24.9966C23.7266 25.1055 23.579 25.1667 23.425 25.1667H8.33056C8.17658 25.1667 8.02892 25.1055 7.92004 24.9966C7.81117 24.8878 7.75 24.7401 7.75 24.5861C7.75 24.4321 7.81117 24.2845 7.92004 24.1756C8.02892 24.0667 8.17658 24.0056 8.33056 24.0056H10.0722V8.91111C10.0722 8.60317 10.1946 8.30783 10.4123 8.09008C10.6301 7.87233 10.9254 7.75 11.2333 7.75H20.5222ZM18.2 18.2C18.5079 18.2 18.8033 18.0777 19.021 17.8599C19.2388 17.6422 19.3611 17.3468 19.3611 17.0389C19.3611 16.7309 19.2388 16.4356 19.021 16.2179C18.8033 16.0001 18.5079 15.8778 18.2 15.8778C17.8921 15.8778 17.5967 16.0001 17.379 16.2179C17.1612 16.4356 17.0389 16.7309 17.0389 17.0389C17.0389 17.3468 17.1612 17.6422 17.379 17.8599C17.5967 18.0777 17.8921 18.2 18.2 18.2Z" fill="#8DD3BB"/>
<path opacity="0.6" d="M45.894 14.14C45.1287 14.14 44.424 14.0187 43.78 13.776C43.1453 13.524 42.59 13.174 42.114 12.726C41.638 12.2687 41.2693 11.732 41.008 11.116C40.7467 10.5 40.616 9.828 40.616 9.1C40.616 8.372 40.7467 7.7 41.008 7.084C41.2693 6.468 41.638 5.936 42.114 5.488C42.5993 5.03067 43.164 4.68067 43.808 4.438C44.452 4.186 45.1567 4.06 45.922 4.06C46.7527 4.06 47.4993 4.19533 48.162 4.466C48.834 4.73667 49.3987 5.13333 49.856 5.656L48.708 6.776C48.3253 6.39333 47.91 6.11333 47.462 5.936C47.0233 5.74933 46.538 5.656 46.006 5.656C45.4927 5.656 45.0167 5.74 44.578 5.908C44.1393 6.076 43.7613 6.314 43.444 6.622C43.1267 6.93 42.8793 7.294 42.702 7.714C42.534 8.134 42.45 8.596 42.45 9.1C42.45 9.59467 42.534 10.052 42.702 10.472C42.8793 10.892 43.1267 11.2607 43.444 11.578C43.7613 11.886 44.1347 12.124 44.564 12.292C44.9933 12.46 45.4693 12.544 45.992 12.544C46.4773 12.544 46.944 12.4693 47.392 12.32C47.8493 12.1613 48.2833 11.9 48.694 11.536L49.73 12.894C49.2167 13.3047 48.6193 13.6173 47.938 13.832C47.266 14.0373 46.5847 14.14 45.894 14.14ZM48.008 12.656V8.988H49.73V12.894L48.008 12.656ZM56.5685 14V12.488L56.4705 12.166V9.52C56.4705 9.00667 56.3165 8.61 56.0085 8.33C55.7005 8.04067 55.2338 7.896 54.6085 7.896C54.1885 7.896 53.7731 7.96133 53.3625 8.092C52.9611 8.22267 52.6205 8.40467 52.3405 8.638L51.6545 7.364C52.0558 7.056 52.5318 6.82733 53.0825 6.678C53.6425 6.51933 54.2211 6.44 54.8185 6.44C55.9011 6.44 56.7365 6.70133 57.3245 7.224C57.9218 7.73733 58.2205 8.53533 58.2205 9.618V14H56.5685ZM54.2165 14.098C53.6565 14.098 53.1665 14.0047 52.7465 13.818C52.3265 13.622 51.9998 13.356 51.7665 13.02C51.5425 12.6747 51.4305 12.2873 51.4305 11.858C51.4305 11.438 51.5285 11.06 51.7245 10.724C51.9298 10.388 52.2611 10.122 52.7185 9.926C53.1758 9.73 53.7825 9.632 54.5385 9.632H56.7085V10.794H54.6645C54.0671 10.794 53.6658 10.892 53.4605 11.088C53.2551 11.2747 53.1525 11.508 53.1525 11.788C53.1525 12.1053 53.2785 12.3573 53.5305 12.544C53.7825 12.7307 54.1325 12.824 54.5805 12.824C55.0098 12.824 55.3925 12.726 55.7285 12.53C56.0738 12.334 56.3211 12.0447 56.4705 11.662L56.7645 12.712C56.5965 13.1507 56.2931 13.4913 55.8545 13.734C55.4251 13.9767 54.8791 14.098 54.2165 14.098ZM63.2804 14.098C62.459 14.098 61.8244 13.888 61.3764 13.468C60.9284 13.0387 60.7044 12.4087 60.7044 11.578V4.872H62.4544V11.536C62.4544 11.8907 62.543 12.166 62.7204 12.362C62.907 12.558 63.1637 12.656 63.4904 12.656C63.8824 12.656 64.209 12.5533 64.4704 12.348L64.9604 13.594C64.755 13.762 64.503 13.888 64.2044 13.972C63.9057 14.056 63.5977 14.098 63.2804 14.098ZM59.4724 7.98V6.58H64.4564V7.98H59.4724ZM69.6679 14.098C68.8372 14.098 68.1092 13.9347 67.4839 13.608C66.8679 13.272 66.3872 12.8147 66.0419 12.236C65.7059 11.6573 65.5379 10.9993 65.5379 10.262C65.5379 9.51533 65.7012 8.85733 66.0279 8.288C66.3639 7.70933 66.8212 7.25667 67.3999 6.93C67.9879 6.60333 68.6552 6.44 69.4019 6.44C70.1299 6.44 70.7785 6.59867 71.3479 6.916C71.9172 7.23333 72.3652 7.68133 72.6919 8.26C73.0185 8.83867 73.1819 9.52 73.1819 10.304C73.1819 10.3787 73.1772 10.4627 73.1679 10.556C73.1679 10.6493 73.1632 10.738 73.1539 10.822H66.9239V9.66H72.2299L71.5439 10.024C71.5532 9.59467 71.4645 9.21667 71.2779 8.89C71.0912 8.56333 70.8345 8.30667 70.5079 8.12C70.1905 7.93333 69.8219 7.84 69.4019 7.84C68.9725 7.84 68.5945 7.93333 68.2679 8.12C67.9505 8.30667 67.6985 8.568 67.5119 8.904C67.3345 9.23067 67.2459 9.618 67.2459 10.066V10.346C67.2459 10.794 67.3485 11.1907 67.5539 11.536C67.7592 11.8813 68.0485 12.1473 68.4219 12.334C68.7952 12.5207 69.2245 12.614 69.7099 12.614C70.1299 12.614 70.5079 12.5487 70.8439 12.418C71.1799 12.2873 71.4785 12.082 71.7399 11.802L72.6779 12.88C72.3419 13.272 71.9172 13.5753 71.4039 13.79C70.8999 13.9953 70.3212 14.098 69.6679 14.098Z" fill="#112211"/>
<path d="M39.988 29L43.792 20.6H44.98L48.796 29H47.536L44.14 21.272H44.62L41.224 29H39.988ZM41.608 26.9L41.932 25.94H46.66L47.008 26.9H41.608ZM50.2772 29V21.08L50.7932 21.644H48.3812V20.6H51.4652V29H50.2772ZM53.1706 29V28.184L56.5906 24.884C56.8946 24.596 57.1186 24.344 57.2626 24.128C57.4146 23.904 57.5146 23.7 57.5626 23.516C57.6186 23.324 57.6466 23.14 57.6466 22.964C57.6466 22.532 57.4946 22.192 57.1906 21.944C56.8866 21.696 56.4426 21.572 55.8586 21.572C55.4106 21.572 55.0066 21.648 54.6466 21.8C54.2866 21.944 53.9746 22.172 53.7106 22.484L52.8946 21.776C53.2146 21.368 53.6426 21.056 54.1786 20.84C54.7226 20.616 55.3186 20.504 55.9666 20.504C56.5506 20.504 57.0586 20.6 57.4906 20.792C57.9226 20.976 58.2546 21.244 58.4866 21.596C58.7266 21.948 58.8466 22.364 58.8466 22.844C58.8466 23.116 58.8106 23.384 58.7386 23.648C58.6666 23.912 58.5306 24.192 58.3306 24.488C58.1306 24.784 57.8426 25.116 57.4666 25.484L54.4186 28.424L54.1306 27.956H59.2066V29H53.1706Z" fill="#112211"/>
</svg>
