<svg width="536" height="49" viewBox="0 0 536 49" fill="none" xmlns="http://www.w3.org/2000/svg">
<rect y="0.5" width="536" height="48" rx="4" fill="#8DD3BB"/>
<path d="M232.214 30L227.93 20.2H229.904L233.726 29.062H232.592L236.456 20.2H238.276L234.006 30H232.214ZM239.211 30V22.524H240.961V30H239.211ZM240.093 21.292C239.766 21.292 239.495 21.1893 239.281 20.984C239.075 20.7787 238.973 20.5313 238.973 20.242C238.973 19.9433 239.075 19.696 239.281 19.5C239.495 19.2947 239.766 19.192 240.093 19.192C240.419 19.192 240.685 19.29 240.891 19.486C241.105 19.6727 241.213 19.9107 241.213 20.2C241.213 20.508 241.11 20.7693 240.905 20.984C240.699 21.1893 240.429 21.292 240.093 21.292ZM246.771 30.098C245.941 30.098 245.213 29.9347 244.587 29.608C243.971 29.272 243.491 28.8147 243.145 28.236C242.809 27.6573 242.641 26.9993 242.641 26.262C242.641 25.5153 242.805 24.8573 243.131 24.288C243.467 23.7093 243.925 23.2567 244.503 22.93C245.091 22.6033 245.759 22.44 246.505 22.44C247.233 22.44 247.882 22.5987 248.451 22.916C249.021 23.2333 249.469 23.6813 249.795 24.26C250.122 24.8387 250.285 25.52 250.285 26.304C250.285 26.3787 250.281 26.4627 250.271 26.556C250.271 26.6493 250.267 26.738 250.257 26.822H244.027V25.66H249.333L248.647 26.024C248.657 25.5947 248.568 25.2167 248.381 24.89C248.195 24.5633 247.938 24.3067 247.611 24.12C247.294 23.9333 246.925 23.84 246.505 23.84C246.076 23.84 245.698 23.9333 245.371 24.12C245.054 24.3067 244.802 24.568 244.615 24.904C244.438 25.2307 244.349 25.618 244.349 26.066V26.346C244.349 26.794 244.452 27.1907 244.657 27.536C244.863 27.8813 245.152 28.1473 245.525 28.334C245.899 28.5207 246.328 28.614 246.813 28.614C247.233 28.614 247.611 28.5487 247.947 28.418C248.283 28.2873 248.582 28.082 248.843 27.802L249.781 28.88C249.445 29.272 249.021 29.5753 248.507 29.79C248.003 29.9953 247.425 30.098 246.771 30.098ZM253.482 30L250.738 22.524H252.39L254.742 29.118H253.958L256.422 22.524H257.892L260.286 29.118H259.516L261.938 22.524H263.492L260.734 30H259.054L256.87 24.162H257.388L255.162 30H253.482ZM268.732 30V20.2H273.016C274.08 20.2 275.013 20.4053 275.816 20.816C276.619 21.2267 277.244 21.796 277.692 22.524C278.14 23.252 278.364 24.1107 278.364 25.1C278.364 26.08 278.14 26.9387 277.692 27.676C277.244 28.404 276.619 28.9733 275.816 29.384C275.013 29.7947 274.08 30 273.016 30H268.732ZM270.552 28.46H272.932C273.669 28.46 274.304 28.32 274.836 28.04C275.377 27.76 275.793 27.368 276.082 26.864C276.381 26.36 276.53 25.772 276.53 25.1C276.53 24.4187 276.381 23.8307 276.082 23.336C275.793 22.832 275.377 22.44 274.836 22.16C274.304 21.88 273.669 21.74 272.932 21.74H270.552V28.46ZM283.644 30.098C282.814 30.098 282.086 29.9347 281.46 29.608C280.844 29.272 280.364 28.8147 280.018 28.236C279.682 27.6573 279.514 26.9993 279.514 26.262C279.514 25.5153 279.678 24.8573 280.004 24.288C280.34 23.7093 280.798 23.2567 281.376 22.93C281.964 22.6033 282.632 22.44 283.378 22.44C284.106 22.44 284.755 22.5987 285.324 22.916C285.894 23.2333 286.342 23.6813 286.668 24.26C286.995 24.8387 287.158 25.52 287.158 26.304C287.158 26.3787 287.154 26.4627 287.144 26.556C287.144 26.6493 287.14 26.738 287.13 26.822H280.9V25.66H286.206L285.52 26.024C285.53 25.5947 285.441 25.2167 285.254 24.89C285.068 24.5633 284.811 24.3067 284.484 24.12C284.167 23.9333 283.798 23.84 283.378 23.84C282.949 23.84 282.571 23.9333 282.244 24.12C281.927 24.3067 281.675 24.568 281.488 24.904C281.311 25.2307 281.222 25.618 281.222 26.066V26.346C281.222 26.794 281.325 27.1907 281.53 27.536C281.736 27.8813 282.025 28.1473 282.398 28.334C282.772 28.5207 283.201 28.614 283.686 28.614C284.106 28.614 284.484 28.5487 284.82 28.418C285.156 28.2873 285.455 28.082 285.716 27.802L286.654 28.88C286.318 29.272 285.894 29.5753 285.38 29.79C284.876 29.9953 284.298 30.098 283.644 30.098ZM293.24 30V28.488L293.142 28.166V25.52C293.142 25.0067 292.988 24.61 292.68 24.33C292.372 24.0407 291.906 23.896 291.28 23.896C290.86 23.896 290.445 23.9613 290.034 24.092C289.633 24.2227 289.292 24.4047 289.012 24.638L288.326 23.364C288.728 23.056 289.204 22.8273 289.754 22.678C290.314 22.5193 290.893 22.44 291.49 22.44C292.573 22.44 293.408 22.7013 293.996 23.224C294.594 23.7373 294.892 24.5353 294.892 25.618V30H293.24ZM290.888 30.098C290.328 30.098 289.838 30.0047 289.418 29.818C288.998 29.622 288.672 29.356 288.438 29.02C288.214 28.6747 288.102 28.2873 288.102 27.858C288.102 27.438 288.2 27.06 288.396 26.724C288.602 26.388 288.933 26.122 289.39 25.926C289.848 25.73 290.454 25.632 291.21 25.632H293.38V26.794H291.336C290.739 26.794 290.338 26.892 290.132 27.088C289.927 27.2747 289.824 27.508 289.824 27.788C289.824 28.1053 289.95 28.3573 290.202 28.544C290.454 28.7307 290.804 28.824 291.252 28.824C291.682 28.824 292.064 28.726 292.4 28.53C292.746 28.334 292.993 28.0447 293.142 27.662L293.436 28.712C293.268 29.1507 292.965 29.4913 292.526 29.734C292.097 29.9767 291.551 30.098 290.888 30.098ZM297.138 30V19.612H298.888V30H297.138ZM303.495 30.098C302.87 30.098 302.268 30.0187 301.689 29.86C301.12 29.692 300.667 29.4913 300.331 29.258L301.003 27.928C301.339 28.1427 301.74 28.32 302.207 28.46C302.674 28.6 303.14 28.67 303.607 28.67C304.158 28.67 304.554 28.5953 304.797 28.446C305.049 28.2967 305.175 28.096 305.175 27.844C305.175 27.6387 305.091 27.4847 304.923 27.382C304.755 27.27 304.536 27.186 304.265 27.13C303.994 27.074 303.691 27.0227 303.355 26.976C303.028 26.9293 302.697 26.8687 302.361 26.794C302.034 26.71 301.736 26.5933 301.465 26.444C301.194 26.2853 300.975 26.0753 300.807 25.814C300.639 25.5527 300.555 25.2073 300.555 24.778C300.555 24.302 300.69 23.8913 300.961 23.546C301.232 23.1913 301.61 22.9207 302.095 22.734C302.59 22.538 303.173 22.44 303.845 22.44C304.349 22.44 304.858 22.496 305.371 22.608C305.884 22.72 306.309 22.8787 306.645 23.084L305.973 24.414C305.618 24.1993 305.259 24.0547 304.895 23.98C304.54 23.896 304.186 23.854 303.831 23.854C303.299 23.854 302.902 23.9333 302.641 24.092C302.389 24.2507 302.263 24.4513 302.263 24.694C302.263 24.918 302.347 25.086 302.515 25.198C302.683 25.31 302.902 25.3987 303.173 25.464C303.444 25.5293 303.742 25.5853 304.069 25.632C304.405 25.6693 304.736 25.73 305.063 25.814C305.39 25.898 305.688 26.0147 305.959 26.164C306.239 26.304 306.463 26.5047 306.631 26.766C306.799 27.0273 306.883 27.368 306.883 27.788C306.883 28.2547 306.743 28.6607 306.463 29.006C306.192 29.3513 305.805 29.622 305.301 29.818C304.797 30.0047 304.195 30.098 303.495 30.098Z" fill="#112211"/>
</svg>
