<svg width="40" height="32" viewBox="0 0 40 32" fill="none" xmlns="http://www.w3.org/2000/svg">
<rect x="0.5" y="0.5" width="39" height="31" rx="3.5" stroke="#8DD3BB"/>
<path d="M16.008 20.596C15.344 20.596 14.752 20.428 14.232 20.092C13.72 19.748 13.316 19.252 13.02 18.604C12.724 17.956 12.576 17.188 12.576 16.3C12.576 15.412 12.724 14.644 13.02 13.996C13.316 13.348 13.72 12.856 14.232 12.52C14.752 12.176 15.344 12.004 16.008 12.004C16.664 12.004 17.248 12.176 17.76 12.52C18.28 12.856 18.688 13.348 18.984 13.996C19.28 14.644 19.428 15.412 19.428 16.3C19.428 17.188 19.28 17.956 18.984 18.604C18.688 19.252 18.28 19.748 17.76 20.092C17.248 20.428 16.664 20.596 16.008 20.596ZM16.008 19.528C16.68 19.528 17.216 19.252 17.616 18.7C18.024 18.148 18.228 17.348 18.228 16.3C18.228 15.252 18.024 14.452 17.616 13.9C17.216 13.348 16.68 13.072 16.008 13.072C15.328 13.072 14.784 13.348 14.376 13.9C13.976 14.452 13.776 15.252 13.776 16.3C13.776 17.348 13.976 18.148 14.376 18.7C14.784 19.252 15.328 19.528 16.008 19.528ZM26.2659 16.78H24.0819V18.928H23.0739V16.78H20.8899V15.832H23.0739V13.672H24.0819V15.832H26.2659V16.78Z" fill="#112211"/>
</svg>
