<svg width="56" height="56" viewBox="0 0 56 56" fill="none" xmlns="http://www.w3.org/2000/svg">
<rect width="56" height="56" rx="4" fill="#8DD3BB"/>
<path d="M32.9781 31.3281L32.9659 31.3444L32.9803 31.3588L37.3903 35.7688C37.5856 35.9875 37.6898 36.2727 37.6816 36.5658C37.6734 36.8591 37.5532 37.1382 37.3457 37.3457C37.1382 37.5532 36.8591 37.6734 36.5658 37.6816C36.2727 37.6898 35.9875 37.5856 35.7688 37.3903L31.3588 32.9803L31.3444 32.9659L31.3281 32.9781C29.9186 34.0369 28.2029 34.6085 26.44 34.6066C21.937 34.6066 18.2734 30.943 18.2734 26.44C18.2734 21.937 21.937 18.2734 26.44 18.2734C30.943 18.2734 34.6066 21.937 34.6066 26.44C34.6085 28.2029 34.0369 29.9186 32.9781 31.3281ZM20.5666 26.44V26.44C20.5684 27.9972 21.1878 29.49 22.2889 30.5911C23.39 31.6922 24.8828 32.3116 26.44 32.3134H26.44C27.6017 32.3134 28.7372 31.969 29.7031 31.3236C30.669 30.6782 31.4218 29.7609 31.8664 28.6877C32.3109 27.6144 32.4272 26.4335 32.2006 25.2941C31.974 24.1548 31.4146 23.1083 30.5931 22.2869C29.7717 21.4654 28.7252 20.906 27.5859 20.6794C26.4465 20.4528 25.2656 20.5691 24.1923 21.0137C23.1191 21.4582 22.2018 22.211 21.5564 23.1769C20.911 24.1428 20.5666 25.2783 20.5666 26.44Z" fill="#112211" stroke="#112211" stroke-width="0.046875"/>
</svg>
