<svg width="40" height="32" viewBox="0 0 40 32" fill="none" xmlns="http://www.w3.org/2000/svg">
<rect x="0.5" y="0.5" width="39" height="31" rx="3.5" stroke="#8DD3BB"/>
<path d="M16.792 15.628C17.616 15.708 18.244 15.964 18.676 16.396C19.108 16.82 19.324 17.364 19.324 18.028C19.324 18.508 19.204 18.944 18.964 19.336C18.724 19.72 18.364 20.028 17.884 20.26C17.412 20.484 16.832 20.596 16.144 20.596C15.544 20.596 14.968 20.508 14.416 20.332C13.864 20.148 13.412 19.896 13.06 19.576L13.612 18.628C13.9 18.9 14.268 19.12 14.716 19.288C15.164 19.448 15.64 19.528 16.144 19.528C16.768 19.528 17.252 19.396 17.596 19.132C17.948 18.868 18.124 18.504 18.124 18.04C18.124 17.576 17.952 17.216 17.608 16.96C17.264 16.704 16.744 16.576 16.048 16.576H15.376V15.736L17.488 13.144H13.444V12.1H18.988V12.916L16.792 15.628ZM26.0472 16.78H23.8632V18.928H22.8552V16.78H20.6712V15.832H22.8552V13.672H23.8632V15.832H26.0472V16.78Z" fill="#112211"/>
</svg>
