<svg width="40" height="32" viewBox="0 0 40 32" fill="none" xmlns="http://www.w3.org/2000/svg">
<rect x="0.5" y="0.5" width="39" height="31" rx="3.5" stroke="#8DD3BB"/>
<path d="M19.48 19.456V20.5H13.444V19.684L16.864 16.384C17.28 15.984 17.56 15.64 17.704 15.352C17.848 15.056 17.92 14.76 17.92 14.464C17.92 14.024 17.764 13.684 17.452 13.444C17.148 13.196 16.708 13.072 16.132 13.072C15.204 13.072 14.488 13.376 13.984 13.984L13.168 13.276C13.496 12.876 13.924 12.564 14.452 12.34C14.988 12.116 15.584 12.004 16.24 12.004C17.12 12.004 17.82 12.216 18.34 12.64C18.86 13.056 19.12 13.624 19.12 14.344C19.12 14.792 19.024 15.216 18.832 15.616C18.64 16.016 18.276 16.472 17.74 16.984L15.172 19.456H19.48ZM25.9886 16.78H23.8046V18.928H22.7966V16.78H20.6126V15.832H22.7966V13.672H23.8046V15.832H25.9886V16.78Z" fill="#112211"/>
</svg>
