<svg width="343" height="25" viewBox="0 0 343 25" fill="none" xmlns="http://www.w3.org/2000/svg">
<path d="M18.75 3.5H5.25C4.00736 3.5 3 4.50736 3 5.75V19.25C3 20.4926 4.00736 21.5 5.25 21.5H18.75C19.9926 21.5 21 20.4926 21 19.25V5.75C21 4.50736 19.9926 3.5 18.75 3.5Z" stroke="#112211" stroke-width="2" stroke-linejoin="round"/>
<path d="M34.744 12.428H39.784V13.618H34.744V12.428ZM34.87 16.782H40.582V18H33.47V8.2H40.386V9.418H34.87V16.782ZM45.0368 18.084C44.2902 18.084 43.7115 17.8833 43.3008 17.482C42.8902 17.0807 42.6848 16.5067 42.6848 15.76V8.956H44.0288V15.704C44.0288 16.1053 44.1268 16.4133 44.3228 16.628C44.5282 16.8427 44.8175 16.95 45.1908 16.95C45.6108 16.95 45.9608 16.8333 46.2408 16.6L46.6608 17.566C46.4555 17.7433 46.2082 17.874 45.9188 17.958C45.6388 18.042 45.3448 18.084 45.0368 18.084ZM41.4248 11.686V10.58H46.1568V11.686H41.4248ZM48.2857 18V10.58H49.6297V18H48.2857ZM48.9577 9.152C48.6964 9.152 48.4771 9.068 48.2997 8.9C48.1317 8.732 48.0477 8.52667 48.0477 8.284C48.0477 8.032 48.1317 7.822 48.2997 7.654C48.4771 7.486 48.6964 7.402 48.9577 7.402C49.2191 7.402 49.4337 7.486 49.6017 7.654C49.7791 7.81267 49.8677 8.01333 49.8677 8.256C49.8677 8.508 49.7837 8.72267 49.6157 8.9C49.4477 9.068 49.2284 9.152 48.9577 9.152ZM56.1579 10.51C56.7645 10.51 57.2965 10.6267 57.7539 10.86C58.2205 11.0933 58.5845 11.448 58.8459 11.924C59.1072 12.4 59.2379 13.002 59.2379 13.73V18H57.8939V13.884C57.8939 13.1653 57.7165 12.624 57.3619 12.26C57.0165 11.896 56.5265 11.714 55.8919 11.714C55.4159 11.714 55.0005 11.8073 54.6459 11.994C54.2912 12.1807 54.0159 12.456 53.8199 12.82C53.6332 13.184 53.5399 13.6367 53.5399 14.178V18H52.1959V7.612H53.5399V12.582L53.2739 12.05C53.5165 11.5647 53.8899 11.1867 54.3939 10.916C54.8979 10.6453 55.4859 10.51 56.1579 10.51ZM66.3312 18V16.432L66.2612 16.138V13.464C66.2612 12.8947 66.0932 12.456 65.7572 12.148C65.4305 11.8307 64.9358 11.672 64.2732 11.672C63.8345 11.672 63.4052 11.7467 62.9852 11.896C62.5652 12.036 62.2105 12.2273 61.9212 12.47L61.3612 11.462C61.7438 11.154 62.2012 10.9207 62.7332 10.762C63.2745 10.594 63.8392 10.51 64.4272 10.51C65.4445 10.51 66.2285 10.7573 66.7792 11.252C67.3298 11.7467 67.6052 12.5027 67.6052 13.52V18H66.3312ZM63.8952 18.084C63.3445 18.084 62.8592 17.9907 62.4392 17.804C62.0285 17.6173 61.7112 17.3607 61.4872 17.034C61.2632 16.698 61.1512 16.32 61.1512 15.9C61.1512 15.4987 61.2445 15.1347 61.4312 14.808C61.6272 14.4813 61.9398 14.22 62.3692 14.024C62.8078 13.828 63.3958 13.73 64.1332 13.73H66.4852V14.696H64.1892C63.5172 14.696 63.0645 14.808 62.8312 15.032C62.5978 15.256 62.4812 15.5267 62.4812 15.844C62.4812 16.208 62.6258 16.502 62.9152 16.726C63.2045 16.9407 63.6058 17.048 64.1192 17.048C64.6232 17.048 65.0618 16.936 65.4352 16.712C65.8178 16.488 66.0932 16.1613 66.2612 15.732L66.5272 16.656C66.3498 17.0947 66.0372 17.4447 65.5892 17.706C65.1412 17.958 64.5765 18.084 63.8952 18.084ZM73.1584 18.084C72.4397 18.084 71.7957 17.9253 71.2264 17.608C70.6664 17.2907 70.223 16.8473 69.8964 16.278C69.5697 15.7087 69.4064 15.046 69.4064 14.29C69.4064 13.534 69.5697 12.876 69.8964 12.316C70.223 11.7467 70.6664 11.3033 71.2264 10.986C71.7957 10.6687 72.4397 10.51 73.1584 10.51C73.7837 10.51 74.3484 10.65 74.8524 10.93C75.3564 11.21 75.7577 11.63 76.0564 12.19C76.3644 12.75 76.5184 13.45 76.5184 14.29C76.5184 15.13 76.369 15.83 76.0704 16.39C75.781 16.95 75.3844 17.3747 74.8804 17.664C74.3764 17.944 73.8024 18.084 73.1584 18.084ZM73.2704 16.908C73.737 16.908 74.157 16.8007 74.5304 16.586C74.913 16.3713 75.2117 16.068 75.4264 15.676C75.6504 15.2747 75.7624 14.8127 75.7624 14.29C75.7624 13.758 75.6504 13.3007 75.4264 12.918C75.2117 12.526 74.913 12.2227 74.5304 12.008C74.157 11.7933 73.737 11.686 73.2704 11.686C72.7944 11.686 72.3697 11.7933 71.9964 12.008C71.623 12.2227 71.3244 12.526 71.1004 12.918C70.8764 13.3007 70.7644 13.758 70.7644 14.29C70.7644 14.8127 70.8764 15.2747 71.1004 15.676C71.3244 16.068 71.623 16.3713 71.9964 16.586C72.3697 16.8007 72.7944 16.908 73.2704 16.908ZM75.8044 18V15.998L75.8884 14.276L75.7484 12.554V7.612H77.0924V18H75.8044Z" fill="#112211"/>
</svg>
