<svg width="343" height="24" viewBox="0 0 343 24" fill="none" xmlns="http://www.w3.org/2000/svg">
<path d="M18.75 3H5.25C4.00736 3 3 4.00736 3 5.25V18.75C3 19.9926 4.00736 21 5.25 21H18.75C19.9926 21 21 19.9926 21 18.75V5.25C21 4.00736 19.9926 3 18.75 3Z" stroke="#112211" stroke-width="2" stroke-linejoin="round"/>
<path d="M33.47 17.5V7.7H37.292C38.1507 7.7 38.8833 7.83533 39.49 8.106C40.0967 8.37667 40.5633 8.76867 40.89 9.282C41.2167 9.79533 41.38 10.4067 41.38 11.116C41.38 11.8253 41.2167 12.4367 40.89 12.95C40.5633 13.454 40.0967 13.8413 39.49 14.112C38.8833 14.3827 38.1507 14.518 37.292 14.518H34.24L34.87 13.874V17.5H33.47ZM40.022 17.5L37.53 13.944H39.028L41.548 17.5H40.022ZM34.87 14.014L34.24 13.328H37.25C38.146 13.328 38.8227 13.1367 39.28 12.754C39.7467 12.362 39.98 11.816 39.98 11.116C39.98 10.416 39.7467 9.87467 39.28 9.492C38.8227 9.10933 38.146 8.918 37.25 8.918H34.24L34.87 8.218V14.014ZM46.6239 17.584C45.8772 17.584 45.2145 17.4207 44.6359 17.094C44.0572 16.7673 43.5999 16.3193 43.2639 15.75C42.9279 15.1713 42.7599 14.518 42.7599 13.79C42.7599 13.0527 42.9279 12.3993 43.2639 11.83C43.5999 11.2607 44.0572 10.8173 44.6359 10.5C45.2145 10.1733 45.8772 10.01 46.6239 10.01C47.3612 10.01 48.0192 10.1733 48.5979 10.5C49.1859 10.8173 49.6432 11.2607 49.9699 11.83C50.3059 12.39 50.4739 13.0433 50.4739 13.79C50.4739 14.5273 50.3059 15.1807 49.9699 15.75C49.6432 16.3193 49.1859 16.7673 48.5979 17.094C48.0192 17.4207 47.3612 17.584 46.6239 17.584ZM46.6239 16.408C47.0999 16.408 47.5245 16.3007 47.8979 16.086C48.2805 15.8713 48.5792 15.568 48.7939 15.176C49.0085 14.7747 49.1159 14.3127 49.1159 13.79C49.1159 13.258 49.0085 12.8007 48.7939 12.418C48.5792 12.026 48.2805 11.7227 47.8979 11.508C47.5245 11.2933 47.0999 11.186 46.6239 11.186C46.1479 11.186 45.7232 11.2933 45.3499 11.508C44.9765 11.7227 44.6779 12.026 44.4539 12.418C44.2299 12.8007 44.1179 13.258 44.1179 13.79C44.1179 14.3127 44.2299 14.7747 44.4539 15.176C44.6779 15.568 44.9765 15.8713 45.3499 16.086C45.7232 16.3007 46.1479 16.408 46.6239 16.408ZM55.4546 17.584C54.8199 17.584 54.2599 17.4673 53.7746 17.234C53.2986 17.0007 52.9253 16.646 52.6546 16.17C52.3933 15.6847 52.2626 15.078 52.2626 14.35V10.08H53.6066V14.196C53.6066 14.924 53.7793 15.47 54.1246 15.834C54.4793 16.198 54.9739 16.38 55.6086 16.38C56.0753 16.38 56.4813 16.2867 56.8266 16.1C57.1719 15.904 57.4379 15.624 57.6246 15.26C57.8113 14.8867 57.9046 14.4387 57.9046 13.916V10.08H59.2486V17.5H57.9746V15.498L58.1846 16.03C57.9419 16.5247 57.5779 16.9073 57.0926 17.178C56.6073 17.4487 56.0613 17.584 55.4546 17.584ZM65.7692 10.01C66.3759 10.01 66.9079 10.1267 67.3652 10.36C67.8319 10.5933 68.1959 10.948 68.4572 11.424C68.7185 11.9 68.8492 12.502 68.8492 13.23V17.5H67.5052V13.384C67.5052 12.6653 67.3279 12.124 66.9732 11.76C66.6279 11.396 66.1379 11.214 65.5032 11.214C65.0272 11.214 64.6119 11.3073 64.2572 11.494C63.9025 11.6807 63.6272 11.956 63.4312 12.32C63.2445 12.684 63.1512 13.1367 63.1512 13.678V17.5H61.8072V10.08H63.0952V12.082L62.8852 11.55C63.1279 11.0647 63.5012 10.6867 64.0052 10.416C64.5092 10.1453 65.0972 10.01 65.7692 10.01ZM74.4025 17.584C73.6838 17.584 73.0398 17.4253 72.4705 17.108C71.9105 16.7907 71.4672 16.3473 71.1405 15.778C70.8138 15.2087 70.6505 14.546 70.6505 13.79C70.6505 13.034 70.8138 12.376 71.1405 11.816C71.4672 11.2467 71.9105 10.8033 72.4705 10.486C73.0398 10.1687 73.6838 10.01 74.4025 10.01C75.0278 10.01 75.5925 10.15 76.0965 10.43C76.6005 10.71 77.0018 11.13 77.3005 11.69C77.6085 12.25 77.7625 12.95 77.7625 13.79C77.7625 14.63 77.6132 15.33 77.3145 15.89C77.0252 16.45 76.6285 16.8747 76.1245 17.164C75.6205 17.444 75.0465 17.584 74.4025 17.584ZM74.5145 16.408C74.9812 16.408 75.4012 16.3007 75.7745 16.086C76.1572 15.8713 76.4558 15.568 76.6705 15.176C76.8945 14.7747 77.0065 14.3127 77.0065 13.79C77.0065 13.258 76.8945 12.8007 76.6705 12.418C76.4558 12.026 76.1572 11.7227 75.7745 11.508C75.4012 11.2933 74.9812 11.186 74.5145 11.186C74.0385 11.186 73.6138 11.2933 73.2405 11.508C72.8672 11.7227 72.5685 12.026 72.3445 12.418C72.1205 12.8007 72.0085 13.258 72.0085 13.79C72.0085 14.3127 72.1205 14.7747 72.3445 15.176C72.5685 15.568 72.8672 15.8713 73.2405 16.086C73.6138 16.3007 74.0385 16.408 74.5145 16.408ZM77.0485 17.5V15.498L77.1325 13.776L76.9925 12.054V7.112H78.3365V17.5H77.0485ZM87.1872 17.584C86.4406 17.584 85.8619 17.3833 85.4512 16.982C85.0406 16.5807 84.8352 16.0067 84.8352 15.26V8.456H86.1792V15.204C86.1792 15.6053 86.2772 15.9133 86.4732 16.128C86.6786 16.3427 86.9679 16.45 87.3412 16.45C87.7612 16.45 88.1112 16.3333 88.3912 16.1L88.8112 17.066C88.6059 17.2433 88.3586 17.374 88.0692 17.458C87.7892 17.542 87.4952 17.584 87.1872 17.584ZM83.5752 11.186V10.08H88.3072V11.186H83.5752ZM90.4361 17.5V10.08H91.7241V12.096L91.5981 11.592C91.8034 11.0787 92.1488 10.6867 92.6341 10.416C93.1194 10.1453 93.7168 10.01 94.4261 10.01V11.312C94.3701 11.3027 94.3141 11.298 94.2581 11.298C94.2114 11.298 94.1648 11.298 94.1181 11.298C93.3994 11.298 92.8301 11.5127 92.4101 11.942C91.9901 12.3713 91.7801 12.992 91.7801 13.804V17.5H90.4361ZM96.0826 17.5V10.08H97.4266V17.5H96.0826ZM96.7546 8.652C96.4933 8.652 96.2739 8.568 96.0966 8.4C95.9286 8.232 95.8446 8.02667 95.8446 7.784C95.8446 7.532 95.9286 7.322 96.0966 7.154C96.2739 6.986 96.4933 6.902 96.7546 6.902C97.0159 6.902 97.2306 6.986 97.3986 7.154C97.5759 7.31267 97.6646 7.51333 97.6646 7.756C97.6646 8.008 97.5806 8.22267 97.4126 8.4C97.2446 8.568 97.0253 8.652 96.7546 8.652ZM103.927 17.584C103.311 17.584 102.746 17.444 102.233 17.164C101.729 16.8747 101.323 16.45 101.015 15.89C100.716 15.33 100.567 14.63 100.567 13.79C100.567 12.95 100.711 12.25 101.001 11.69C101.299 11.13 101.701 10.71 102.205 10.43C102.718 10.15 103.292 10.01 103.927 10.01C104.655 10.01 105.299 10.1687 105.859 10.486C106.419 10.8033 106.862 11.2467 107.189 11.816C107.515 12.376 107.679 13.034 107.679 13.79C107.679 14.546 107.515 15.2087 107.189 15.778C106.862 16.3473 106.419 16.7907 105.859 17.108C105.299 17.4253 104.655 17.584 103.927 17.584ZM99.9928 20.216V10.08H101.281V12.082L101.197 13.804L101.337 15.526V20.216H99.9928ZM103.815 16.408C104.291 16.408 104.715 16.3007 105.089 16.086C105.471 15.8713 105.77 15.568 105.985 15.176C106.209 14.7747 106.321 14.3127 106.321 13.79C106.321 13.258 106.209 12.8007 105.985 12.418C105.77 12.026 105.471 11.7227 105.089 11.508C104.715 11.2933 104.291 11.186 103.815 11.186C103.348 11.186 102.923 11.2933 102.541 11.508C102.167 11.7227 101.869 12.026 101.645 12.418C101.43 12.8007 101.323 13.258 101.323 13.79C101.323 14.3127 101.43 14.7747 101.645 15.176C101.869 15.568 102.167 15.8713 102.541 16.086C102.923 16.3007 103.348 16.408 103.815 16.408Z" fill="#112211"/>
</svg>
