<svg width="343" height="24" viewBox="0 0 343 24" fill="none" xmlns="http://www.w3.org/2000/svg">
<path d="M18.75 3H5.25C4.00736 3 3 4.00736 3 5.25V18.75C3 19.9926 4.00736 21 5.25 21H18.75C19.9926 21 21 19.9926 21 18.75V5.25C21 4.00736 19.9926 3 18.75 3Z" stroke="#112211" stroke-width="2" stroke-linejoin="round"/>
<path d="M33.47 17.5V7.7H34.618L39.014 15.106H38.398L42.738 7.7H43.886L43.9 17.5H42.556L42.542 9.814H42.864L39 16.31H38.356L34.464 9.814H34.814V17.5H33.47ZM46.9671 20.3C46.6124 20.3 46.2671 20.2393 45.9311 20.118C45.5951 20.006 45.3058 19.838 45.0631 19.614L45.6371 18.606C45.8238 18.7833 46.0291 18.9187 46.2531 19.012C46.4771 19.1053 46.7151 19.152 46.9671 19.152C47.2938 19.152 47.5644 19.068 47.7791 18.9C47.9938 18.732 48.1944 18.4333 48.3811 18.004L48.8431 16.982L48.9831 16.814L51.8951 10.08H53.2111L49.6131 18.242C49.3984 18.7647 49.1558 19.1753 48.8851 19.474C48.6238 19.7727 48.3344 19.9827 48.0171 20.104C47.6998 20.2347 47.3498 20.3 46.9671 20.3ZM48.7311 17.738L45.3431 10.08H46.7431L49.6271 16.688L48.7311 17.738ZM58.4212 17.5V7.7H62.5512C63.5965 7.7 64.5158 7.90533 65.3092 8.316C66.1118 8.72667 66.7325 9.30067 67.1712 10.038C67.6192 10.7753 67.8432 11.6293 67.8432 12.6C67.8432 13.5707 67.6192 14.4247 67.1712 15.162C66.7325 15.8993 66.1118 16.4733 65.3092 16.884C64.5158 17.2947 63.5965 17.5 62.5512 17.5H58.4212ZM59.8212 16.282H62.4672C63.2792 16.282 63.9792 16.128 64.5672 15.82C65.1645 15.512 65.6265 15.0827 65.9532 14.532C66.2798 13.972 66.4432 13.328 66.4432 12.6C66.4432 11.8627 66.2798 11.2187 65.9532 10.668C65.6265 10.1173 65.1645 9.688 64.5672 9.38C63.9792 9.072 63.2792 8.918 62.4672 8.918H59.8212V16.282ZM74.3976 17.5V15.932L74.3276 15.638V12.964C74.3276 12.3947 74.1596 11.956 73.8236 11.648C73.4969 11.3307 73.0022 11.172 72.3396 11.172C71.9009 11.172 71.4716 11.2467 71.0516 11.396C70.6316 11.536 70.2769 11.7273 69.9876 11.97L69.4276 10.962C69.8102 10.654 70.2676 10.4207 70.7996 10.262C71.3409 10.094 71.9056 10.01 72.4936 10.01C73.5109 10.01 74.2949 10.2573 74.8456 10.752C75.3962 11.2467 75.6716 12.0027 75.6716 13.02V17.5H74.3976ZM71.9616 17.584C71.4109 17.584 70.9256 17.4907 70.5056 17.304C70.0949 17.1173 69.7776 16.8607 69.5536 16.534C69.3296 16.198 69.2176 15.82 69.2176 15.4C69.2176 14.9987 69.3109 14.6347 69.4976 14.308C69.6936 13.9813 70.0062 13.72 70.4356 13.524C70.8742 13.328 71.4622 13.23 72.1996 13.23H74.5516V14.196H72.2556C71.5836 14.196 71.1309 14.308 70.8976 14.532C70.6642 14.756 70.5476 15.0267 70.5476 15.344C70.5476 15.708 70.6922 16.002 70.9816 16.226C71.2709 16.4407 71.6722 16.548 72.1856 16.548C72.6896 16.548 73.1282 16.436 73.5016 16.212C73.8842 15.988 74.1596 15.6613 74.3276 15.232L74.5936 16.156C74.4162 16.5947 74.1036 16.9447 73.6556 17.206C73.2076 17.458 72.6429 17.584 71.9616 17.584ZM80.7068 17.584C79.9601 17.584 79.3814 17.3833 78.9708 16.982C78.5601 16.5807 78.3548 16.0067 78.3548 15.26V8.456H79.6988V15.204C79.6988 15.6053 79.7968 15.9133 79.9928 16.128C80.1981 16.3427 80.4874 16.45 80.8608 16.45C81.2808 16.45 81.6308 16.3333 81.9108 16.1L82.3308 17.066C82.1254 17.2433 81.8781 17.374 81.5888 17.458C81.3088 17.542 81.0148 17.584 80.7068 17.584ZM77.0948 11.186V10.08H81.8268V11.186H77.0948ZM87.0135 17.584C86.2202 17.584 85.5202 17.4207 84.9135 17.094C84.3162 16.7673 83.8495 16.3193 83.5135 15.75C83.1869 15.1807 83.0235 14.5273 83.0235 13.79C83.0235 13.0527 83.1822 12.3993 83.4995 11.83C83.8262 11.2607 84.2695 10.8173 84.8295 10.5C85.3989 10.1733 86.0382 10.01 86.7475 10.01C87.4662 10.01 88.1009 10.1687 88.6515 10.486C89.2022 10.8033 89.6315 11.2513 89.9395 11.83C90.2569 12.3993 90.4155 13.0667 90.4155 13.832C90.4155 13.888 90.4109 13.9533 90.4015 14.028C90.4015 14.1027 90.3969 14.1727 90.3875 14.238H84.0735V13.272H89.6875L89.1415 13.608C89.1509 13.132 89.0529 12.7073 88.8475 12.334C88.6422 11.9607 88.3575 11.6713 87.9935 11.466C87.6389 11.2513 87.2235 11.144 86.7475 11.144C86.2809 11.144 85.8655 11.2513 85.5015 11.466C85.1375 11.6713 84.8529 11.9653 84.6475 12.348C84.4422 12.7213 84.3395 13.1507 84.3395 13.636V13.86C84.3395 14.3547 84.4515 14.798 84.6755 15.19C84.9089 15.5727 85.2309 15.8713 85.6415 16.086C86.0522 16.3007 86.5235 16.408 87.0555 16.408C87.4942 16.408 87.8909 16.3333 88.2455 16.184C88.6095 16.0347 88.9269 15.8107 89.1975 15.512L89.9395 16.38C89.6035 16.772 89.1835 17.0707 88.6795 17.276C88.1849 17.4813 87.6295 17.584 87.0135 17.584ZM94.4098 17.584C93.7938 17.584 93.2058 17.5 92.6458 17.332C92.0951 17.164 91.6611 16.9587 91.3438 16.716L91.9038 15.652C92.2211 15.8667 92.6131 16.0487 93.0798 16.198C93.5465 16.3473 94.0225 16.422 94.5078 16.422C95.1331 16.422 95.5811 16.3333 95.8518 16.156C96.1318 15.9787 96.2718 15.7313 96.2718 15.414C96.2718 15.1807 96.1878 14.9987 96.0198 14.868C95.8518 14.7373 95.6278 14.6393 95.3478 14.574C95.0771 14.5087 94.7738 14.4527 94.4378 14.406C94.1018 14.35 93.7658 14.2847 93.4298 14.21C93.0938 14.126 92.7858 14.014 92.5058 13.874C92.2258 13.7247 92.0018 13.524 91.8338 13.272C91.6658 13.0107 91.5818 12.6653 91.5818 12.236C91.5818 11.788 91.7078 11.396 91.9598 11.06C92.2118 10.724 92.5665 10.4673 93.0238 10.29C93.4905 10.1033 94.0411 10.01 94.6758 10.01C95.1611 10.01 95.6511 10.0707 96.1458 10.192C96.6498 10.304 97.0605 10.4673 97.3778 10.682L96.8038 11.746C96.4678 11.522 96.1178 11.368 95.7538 11.284C95.3898 11.2 95.0258 11.158 94.6618 11.158C94.0738 11.158 93.6351 11.256 93.3458 11.452C93.0565 11.6387 92.9118 11.8813 92.9118 12.18C92.9118 12.432 92.9958 12.628 93.1638 12.768C93.3411 12.8987 93.5651 13.0013 93.8358 13.076C94.1158 13.1507 94.4238 13.216 94.7598 13.272C95.0958 13.3187 95.4318 13.384 95.7678 13.468C96.1038 13.5427 96.4071 13.65 96.6778 13.79C96.9578 13.93 97.1818 14.126 97.3498 14.378C97.5271 14.63 97.6158 14.966 97.6158 15.386C97.6158 15.834 97.4851 16.2213 97.2238 16.548C96.9625 16.8747 96.5938 17.1313 96.1178 17.318C95.6418 17.4953 95.0725 17.584 94.4098 17.584ZM101.767 17.5L106.205 7.7H107.591L112.043 17.5H110.573L106.611 8.484H107.171L103.209 17.5H101.767ZM103.657 15.05L104.035 13.93H109.551L109.957 15.05H103.657ZM113.309 17.5V10.08H114.597V12.096L114.471 11.592C114.676 11.0787 115.022 10.6867 115.507 10.416C115.992 10.1453 116.59 10.01 117.299 10.01V11.312C117.243 11.3027 117.187 11.298 117.131 11.298C117.084 11.298 117.038 11.298 116.991 11.298C116.272 11.298 115.703 11.5127 115.283 11.942C114.863 12.3713 114.653 12.992 114.653 13.804V17.5H113.309ZM122.191 17.584C121.398 17.584 120.698 17.4207 120.091 17.094C119.494 16.7673 119.027 16.3193 118.691 15.75C118.365 15.1807 118.201 14.5273 118.201 13.79C118.201 13.0527 118.36 12.3993 118.677 11.83C119.004 11.2607 119.447 10.8173 120.007 10.5C120.577 10.1733 121.216 10.01 121.925 10.01C122.644 10.01 123.279 10.1687 123.829 10.486C124.38 10.8033 124.809 11.2513 125.117 11.83C125.435 12.3993 125.593 13.0667 125.593 13.832C125.593 13.888 125.589 13.9533 125.579 14.028C125.579 14.1027 125.575 14.1727 125.565 14.238H119.251V13.272H124.865L124.319 13.608C124.329 13.132 124.231 12.7073 124.025 12.334C123.82 11.9607 123.535 11.6713 123.171 11.466C122.817 11.2513 122.401 11.144 121.925 11.144C121.459 11.144 121.043 11.2513 120.679 11.466C120.315 11.6713 120.031 11.9653 119.825 12.348C119.62 12.7213 119.517 13.1507 119.517 13.636V13.86C119.517 14.3547 119.629 14.798 119.853 15.19C120.087 15.5727 120.409 15.8713 120.819 16.086C121.23 16.3007 121.701 16.408 122.233 16.408C122.672 16.408 123.069 16.3333 123.423 16.184C123.787 16.0347 124.105 15.8107 124.375 15.512L125.117 16.38C124.781 16.772 124.361 17.0707 123.857 17.276C123.363 17.4813 122.807 17.584 122.191 17.584ZM132.675 12.334H137.729V13.538H132.675V12.334ZM132.815 17.5H131.415V7.7H138.331V8.918H132.815V17.5ZM140.106 17.5V7.112H141.45V17.5H140.106ZM147.32 17.584C146.527 17.584 145.827 17.4207 145.22 17.094C144.623 16.7673 144.156 16.3193 143.82 15.75C143.494 15.1807 143.33 14.5273 143.33 13.79C143.33 13.0527 143.489 12.3993 143.806 11.83C144.133 11.2607 144.576 10.8173 145.136 10.5C145.706 10.1733 146.345 10.01 147.054 10.01C147.773 10.01 148.408 10.1687 148.958 10.486C149.509 10.8033 149.938 11.2513 150.246 11.83C150.564 12.3993 150.722 13.0667 150.722 13.832C150.722 13.888 150.718 13.9533 150.708 14.028C150.708 14.1027 150.704 14.1727 150.694 14.238H144.38V13.272H149.994L149.448 13.608C149.458 13.132 149.36 12.7073 149.154 12.334C148.949 11.9607 148.664 11.6713 148.3 11.466C147.946 11.2513 147.53 11.144 147.054 11.144C146.588 11.144 146.172 11.2513 145.808 11.466C145.444 11.6713 145.16 11.9653 144.954 12.348C144.749 12.7213 144.646 13.1507 144.646 13.636V13.86C144.646 14.3547 144.758 14.798 144.982 15.19C145.216 15.5727 145.538 15.8713 145.948 16.086C146.359 16.3007 146.83 16.408 147.362 16.408C147.801 16.408 148.198 16.3333 148.552 16.184C148.916 16.0347 149.234 15.8107 149.504 15.512L150.246 16.38C149.91 16.772 149.49 17.0707 148.986 17.276C148.492 17.4813 147.936 17.584 147.32 17.584ZM151.305 17.5L154.497 13.356L154.483 14.042L151.445 10.08H152.943L155.267 13.132H154.693L157.017 10.08H158.487L155.407 14.07L155.421 13.356L158.641 17.5H157.115L154.665 14.252L155.211 14.336L152.803 17.5H151.305ZM160.108 17.5V10.08H161.452V17.5H160.108ZM160.78 8.652C160.519 8.652 160.299 8.568 160.122 8.4C159.954 8.232 159.87 8.02667 159.87 7.784C159.87 7.532 159.954 7.322 160.122 7.154C160.299 6.986 160.519 6.902 160.78 6.902C161.041 6.902 161.256 6.986 161.424 7.154C161.601 7.31267 161.69 7.51333 161.69 7.756C161.69 8.008 161.606 8.22267 161.438 8.4C161.27 8.568 161.051 8.652 160.78 8.652ZM167.952 17.584C167.317 17.584 166.743 17.444 166.23 17.164C165.726 16.8747 165.325 16.45 165.026 15.89C164.737 15.33 164.592 14.63 164.592 13.79C164.592 12.95 164.741 12.25 165.04 11.69C165.348 11.13 165.754 10.71 166.258 10.43C166.771 10.15 167.336 10.01 167.952 10.01C168.68 10.01 169.324 10.1687 169.884 10.486C170.444 10.8033 170.887 11.2467 171.214 11.816C171.541 12.376 171.704 13.034 171.704 13.79C171.704 14.546 171.541 15.2087 171.214 15.778C170.887 16.3473 170.444 16.7907 169.884 17.108C169.324 17.4253 168.68 17.584 167.952 17.584ZM164.018 17.5V7.112H165.362V12.054L165.222 13.776L165.306 15.498V17.5H164.018ZM167.84 16.408C168.316 16.408 168.741 16.3007 169.114 16.086C169.497 15.8713 169.795 15.568 170.01 15.176C170.234 14.7747 170.346 14.3127 170.346 13.79C170.346 13.258 170.234 12.8007 170.01 12.418C169.795 12.026 169.497 11.7227 169.114 11.508C168.741 11.2933 168.316 11.186 167.84 11.186C167.373 11.186 166.949 11.2933 166.566 11.508C166.193 11.7227 165.894 12.026 165.67 12.418C165.455 12.8007 165.348 13.258 165.348 13.79C165.348 14.3127 165.455 14.7747 165.67 15.176C165.894 15.568 166.193 15.8713 166.566 16.086C166.949 16.3007 167.373 16.408 167.84 16.408ZM173.561 17.5V7.112H174.905V17.5H173.561ZM180.775 17.584C179.982 17.584 179.282 17.4207 178.675 17.094C178.078 16.7673 177.611 16.3193 177.275 15.75C176.949 15.1807 176.785 14.5273 176.785 13.79C176.785 13.0527 176.944 12.3993 177.261 11.83C177.588 11.2607 178.031 10.8173 178.591 10.5C179.161 10.1733 179.8 10.01 180.509 10.01C181.228 10.01 181.863 10.1687 182.413 10.486C182.964 10.8033 183.393 11.2513 183.701 11.83C184.019 12.3993 184.177 13.0667 184.177 13.832C184.177 13.888 184.173 13.9533 184.163 14.028C184.163 14.1027 184.159 14.1727 184.149 14.238H177.835V13.272H183.449L182.903 13.608C182.913 13.132 182.815 12.7073 182.609 12.334C182.404 11.9607 182.119 11.6713 181.755 11.466C181.401 11.2513 180.985 11.144 180.509 11.144C180.043 11.144 179.627 11.2513 179.263 11.466C178.899 11.6713 178.615 11.9653 178.409 12.348C178.204 12.7213 178.101 13.1507 178.101 13.636V13.86C178.101 14.3547 178.213 14.798 178.437 15.19C178.671 15.5727 178.993 15.8713 179.403 16.086C179.814 16.3007 180.285 16.408 180.817 16.408C181.256 16.408 181.653 16.3333 182.007 16.184C182.371 16.0347 182.689 15.8107 182.959 15.512L183.701 16.38C183.365 16.772 182.945 17.0707 182.441 17.276C181.947 17.4813 181.391 17.584 180.775 17.584Z" fill="#112211"/>
</svg>
