<svg width="160" height="46" viewBox="0 0 160 46" fill="none" xmlns="http://www.w3.org/2000/svg">
<path d="M1.504 16.5V5.3H6.752C8.096 5.3 9.12 5.56667 9.824 6.1C10.528 6.62267 10.88 7.32667 10.88 8.212C10.88 8.80933 10.7413 9.32133 10.464 9.748C10.1867 10.164 9.81333 10.4893 9.344 10.724C8.88533 10.948 8.384 11.06 7.84 11.06L8.128 10.484C8.75733 10.484 9.32267 10.6013 9.824 10.836C10.3253 11.06 10.72 11.3907 11.008 11.828C11.3067 12.2653 11.456 12.8093 11.456 13.46C11.456 14.42 11.088 15.1667 10.352 15.7C9.616 16.2333 8.52267 16.5 7.072 16.5H1.504ZM3.584 14.868H6.944C7.72267 14.868 8.32 14.74 8.736 14.484C9.152 14.228 9.36 13.8173 9.36 13.252C9.36 12.6973 9.152 12.292 8.736 12.036C8.32 11.7693 7.72267 11.636 6.944 11.636H3.424V10.02H6.528C7.25333 10.02 7.808 9.892 8.192 9.636C8.58667 9.38 8.784 8.996 8.784 8.484C8.784 7.96133 8.58667 7.572 8.192 7.316C7.808 7.06 7.25333 6.932 6.528 6.932H3.584V14.868ZM17.4999 16.612C16.5505 16.612 15.7185 16.4253 15.0039 16.052C14.2999 15.668 13.7505 15.1453 13.3559 14.484C12.9719 13.8227 12.7799 13.0707 12.7799 12.228C12.7799 11.3747 12.9665 10.6227 13.3399 9.972C13.7239 9.31067 14.2465 8.79333 14.9079 8.42C15.5799 8.04667 16.3425 7.86 17.1959 7.86C18.0279 7.86 18.7692 8.04133 19.4199 8.404C20.0705 8.76667 20.5825 9.27867 20.9559 9.94C21.3292 10.6013 21.5159 11.38 21.5159 12.276C21.5159 12.3613 21.5105 12.4573 21.4999 12.564C21.4999 12.6707 21.4945 12.772 21.4839 12.868H14.3639V11.54H20.4279L19.6439 11.956C19.6545 11.4653 19.5532 11.0333 19.3399 10.66C19.1265 10.2867 18.8332 9.99333 18.4599 9.78C18.0972 9.56667 17.6759 9.46 17.1959 9.46C16.7052 9.46 16.2732 9.56667 15.8999 9.78C15.5372 9.99333 15.2492 10.292 15.0359 10.676C14.8332 11.0493 14.7319 11.492 14.7319 12.004V12.324C14.7319 12.836 14.8492 13.2893 15.0839 13.684C15.3185 14.0787 15.6492 14.3827 16.0759 14.596C16.5025 14.8093 16.9932 14.916 17.5479 14.916C18.0279 14.916 18.4599 14.8413 18.8439 14.692C19.2279 14.5427 19.5692 14.308 19.8679 13.988L20.9399 15.22C20.5559 15.668 20.0705 16.0147 19.4839 16.26C18.9079 16.4947 18.2465 16.612 17.4999 16.612ZM26.077 16.612C25.3623 16.612 24.6743 16.5213 24.013 16.34C23.3623 16.148 22.845 15.9187 22.461 15.652L23.229 14.132C23.613 14.3773 24.0717 14.58 24.605 14.74C25.1383 14.9 25.6717 14.98 26.205 14.98C26.8343 14.98 27.2877 14.8947 27.565 14.724C27.853 14.5533 27.997 14.324 27.997 14.036C27.997 13.8013 27.901 13.6253 27.709 13.508C27.517 13.38 27.2663 13.284 26.957 13.22C26.6477 13.156 26.301 13.0973 25.917 13.044C25.5437 12.9907 25.165 12.9213 24.781 12.836C24.4077 12.74 24.0663 12.6067 23.757 12.436C23.4477 12.2547 23.197 12.0147 23.005 11.716C22.813 11.4173 22.717 11.0227 22.717 10.532C22.717 9.988 22.8717 9.51867 23.181 9.124C23.4903 8.71867 23.9223 8.40933 24.477 8.196C25.0423 7.972 25.709 7.86 26.477 7.86C27.053 7.86 27.6343 7.924 28.221 8.052C28.8077 8.18 29.293 8.36133 29.677 8.596L28.909 10.116C28.5037 9.87067 28.093 9.70533 27.677 9.62C27.2717 9.524 26.8663 9.476 26.461 9.476C25.853 9.476 25.3997 9.56667 25.101 9.748C24.813 9.92933 24.669 10.1587 24.669 10.436C24.669 10.692 24.765 10.884 24.957 11.012C25.149 11.14 25.3997 11.2413 25.709 11.316C26.0183 11.3907 26.3597 11.4547 26.733 11.508C27.117 11.5507 27.4957 11.62 27.869 11.716C28.2423 11.812 28.5837 11.9453 28.893 12.116C29.213 12.276 29.469 12.5053 29.661 12.804C29.853 13.1027 29.949 13.492 29.949 13.972C29.949 14.5053 29.789 14.9693 29.469 15.364C29.1597 15.7587 28.717 16.068 28.141 16.292C27.565 16.5053 26.877 16.612 26.077 16.612ZM34.8874 16.612C33.9487 16.612 33.2234 16.372 32.7114 15.892C32.1994 15.4013 31.9434 14.6813 31.9434 13.732V6.068H33.9434V13.684C33.9434 14.0893 34.0447 14.404 34.2474 14.628C34.4607 14.852 34.754 14.964 35.1274 14.964C35.5754 14.964 35.9487 14.8467 36.2474 14.612L36.8074 16.036C36.5727 16.228 36.2847 16.372 35.9434 16.468C35.602 16.564 35.25 16.612 34.8874 16.612ZM30.5354 9.62V8.02H36.2314V9.62H30.5354Z" fill="#112211"/>
<path opacity="0.4" d="M4.004 44.18V31.02H4.704V44.18H4.004ZM4.298 42.584C3.57 42.584 2.87 42.4673 2.198 42.234C1.53533 41.9913 1.022 41.6833 0.658 41.31L1.064 40.512C1.40933 40.848 1.87133 41.1327 2.45 41.366C3.038 41.59 3.654 41.702 4.298 41.702C4.914 41.702 5.41333 41.6273 5.796 41.478C6.188 41.3193 6.47267 41.1093 6.65 40.848C6.83667 40.5867 6.93 40.2973 6.93 39.98C6.93 39.5973 6.818 39.2893 6.594 39.056C6.37933 38.8227 6.09467 38.6407 5.74 38.51C5.38533 38.37 4.99333 38.2487 4.564 38.146C4.13467 38.0433 3.70533 37.936 3.276 37.824C2.84667 37.7027 2.45 37.544 2.086 37.348C1.73133 37.152 1.442 36.8953 1.218 36.578C1.00333 36.2513 0.896 35.8267 0.896 35.304C0.896 34.8187 1.022 34.3753 1.274 33.974C1.53533 33.5633 1.932 33.2367 2.464 32.994C2.996 32.742 3.67733 32.616 4.508 32.616C5.05867 32.616 5.60467 32.6953 6.146 32.854C6.68733 33.0033 7.154 33.2133 7.546 33.484L7.196 34.31C6.776 34.03 6.328 33.8247 5.852 33.694C5.38533 33.5633 4.93267 33.498 4.494 33.498C3.906 33.498 3.42067 33.5773 3.038 33.736C2.65533 33.8947 2.37067 34.1093 2.184 34.38C2.00667 34.6413 1.918 34.94 1.918 35.276C1.918 35.6587 2.02533 35.9667 2.24 36.2C2.464 36.4333 2.75333 36.6153 3.108 36.746C3.472 36.8767 3.86867 36.9933 4.298 37.096C4.72733 37.1987 5.152 37.3107 5.572 37.432C6.00133 37.5533 6.39333 37.712 6.748 37.908C7.112 38.0947 7.40133 38.3467 7.616 38.664C7.84 38.9813 7.952 39.3967 7.952 39.91C7.952 40.386 7.82133 40.8293 7.56 41.24C7.29867 41.6413 6.89733 41.968 6.356 42.22C5.824 42.4627 5.138 42.584 4.298 42.584ZM12.2566 32.616C13.1246 32.616 13.8572 32.812 14.4546 33.204C15.0519 33.5867 15.5046 34.142 15.8126 34.87C16.1206 35.598 16.2746 36.48 16.2746 37.516C16.2746 38.6173 16.0832 39.546 15.7006 40.302C15.3272 41.058 14.8046 41.6273 14.1326 42.01C13.4606 42.3927 12.6812 42.584 11.7946 42.584C11.3559 42.584 10.9359 42.542 10.5346 42.458C10.1426 42.374 9.7879 42.2387 9.47056 42.052L9.87656 41.24C10.1286 41.408 10.4179 41.5293 10.7446 41.604C11.0806 41.6693 11.4259 41.702 11.7806 41.702C12.8352 41.702 13.6752 41.366 14.3006 40.694C14.9352 40.022 15.2526 39.0187 15.2526 37.684C15.2526 37.4693 15.2386 37.2127 15.2106 36.914C15.1919 36.6153 15.1406 36.3167 15.0566 36.018L15.4066 36.284C15.3132 36.7693 15.1126 37.1847 14.8046 37.53C14.5059 37.866 14.1326 38.1227 13.6846 38.3C13.2459 38.4773 12.7559 38.566 12.2146 38.566C11.5706 38.566 10.9966 38.4447 10.4926 38.202C9.9979 37.9593 9.61056 37.6187 9.33056 37.18C9.05056 36.7413 8.91056 36.2233 8.91056 35.626C8.91056 35.01 9.05523 34.478 9.34456 34.03C9.6339 33.582 10.0306 33.2367 10.5346 32.994C11.0479 32.742 11.6219 32.616 12.2566 32.616ZM12.2986 33.47C11.8319 33.47 11.4166 33.5587 11.0526 33.736C10.6979 33.904 10.4179 34.1467 10.2126 34.464C10.0072 34.7813 9.90456 35.1593 9.90456 35.598C9.90456 36.242 10.1239 36.7553 10.5626 37.138C11.0106 37.5207 11.6126 37.712 12.3686 37.712C12.8726 37.712 13.3112 37.6187 13.6846 37.432C14.0672 37.2453 14.3612 36.9887 14.5666 36.662C14.7812 36.3353 14.8886 35.9713 14.8886 35.57C14.8886 35.206 14.7906 34.8653 14.5946 34.548C14.3986 34.2307 14.1092 33.974 13.7266 33.778C13.3439 33.5727 12.8679 33.47 12.2986 33.47ZM20.7878 32.616C21.6558 32.616 22.3885 32.812 22.9858 33.204C23.5831 33.5867 24.0358 34.142 24.3438 34.87C24.6518 35.598 24.8058 36.48 24.8058 37.516C24.8058 38.6173 24.6145 39.546 24.2318 40.302C23.8585 41.058 23.3358 41.6273 22.6638 42.01C21.9918 42.3927 21.2125 42.584 20.3258 42.584C19.8871 42.584 19.4671 42.542 19.0658 42.458C18.6738 42.374 18.3191 42.2387 18.0018 42.052L18.4078 41.24C18.6598 41.408 18.9491 41.5293 19.2758 41.604C19.6118 41.6693 19.9571 41.702 20.3118 41.702C21.3665 41.702 22.2065 41.366 22.8318 40.694C23.4665 40.022 23.7838 39.0187 23.7838 37.684C23.7838 37.4693 23.7698 37.2127 23.7418 36.914C23.7231 36.6153 23.6718 36.3167 23.5878 36.018L23.9378 36.284C23.8445 36.7693 23.6438 37.1847 23.3358 37.53C23.0371 37.866 22.6638 38.1227 22.2158 38.3C21.7771 38.4773 21.2871 38.566 20.7458 38.566C20.1018 38.566 19.5278 38.4447 19.0238 38.202C18.5291 37.9593 18.1418 37.6187 17.8618 37.18C17.5818 36.7413 17.4418 36.2233 17.4418 35.626C17.4418 35.01 17.5865 34.478 17.8758 34.03C18.1651 33.582 18.5618 33.2367 19.0658 32.994C19.5791 32.742 20.1531 32.616 20.7878 32.616ZM20.8298 33.47C20.3631 33.47 19.9478 33.5587 19.5838 33.736C19.2291 33.904 18.9491 34.1467 18.7438 34.464C18.5385 34.7813 18.4358 35.1593 18.4358 35.598C18.4358 36.242 18.6551 36.7553 19.0938 37.138C19.5418 37.5207 20.1438 37.712 20.8998 37.712C21.4038 37.712 21.8425 37.6187 22.2158 37.432C22.5985 37.2453 22.8925 36.9887 23.0978 36.662C23.3125 36.3353 23.4198 35.9713 23.4198 35.57C23.4198 35.206 23.3218 34.8653 23.1258 34.548C22.9298 34.2307 22.6405 33.974 22.2578 33.778C21.8751 33.5727 21.3991 33.47 20.8298 33.47Z" fill="#112211"/>
<path opacity="0.4" d="M31.484 42.57C31.2787 42.57 31.1013 42.4953 30.952 42.346C30.812 42.1967 30.742 42.0147 30.742 41.8C30.742 41.576 30.812 41.394 30.952 41.254C31.1013 41.114 31.2787 41.044 31.484 41.044C31.6893 41.044 31.862 41.114 32.002 41.254C32.1513 41.394 32.226 41.576 32.226 41.8C32.226 42.0147 32.1513 42.1967 32.002 42.346C31.862 42.4953 31.6893 42.57 31.484 42.57Z" fill="#112211"/>
<path opacity="0.4" d="M37.546 42.5V41.786L41.62 37.796C41.9933 37.432 42.2733 37.1147 42.46 36.844C42.6467 36.564 42.7727 36.3027 42.838 36.06C42.9033 35.8173 42.936 35.5887 42.936 35.374C42.936 34.8047 42.74 34.3567 42.348 34.03C41.9653 33.7033 41.396 33.54 40.64 33.54C40.0613 33.54 39.548 33.6287 39.1 33.806C38.6613 33.9833 38.2833 34.2587 37.966 34.632L37.252 34.016C37.6347 33.568 38.1247 33.2227 38.722 32.98C39.3193 32.7373 39.9867 32.616 40.724 32.616C41.3867 32.616 41.9607 32.7233 42.446 32.938C42.9313 33.1433 43.3047 33.4467 43.566 33.848C43.8367 34.2493 43.972 34.7207 43.972 35.262C43.972 35.5793 43.9253 35.892 43.832 36.2C43.748 36.508 43.5893 36.8347 43.356 37.18C43.132 37.516 42.8007 37.8987 42.362 38.328L38.624 41.996L38.344 41.604H44.42V42.5H37.546ZM50.095 35.08C50.6924 35.08 51.215 35.1967 51.663 35.43C52.1204 35.654 52.475 35.9993 52.727 36.466C52.9884 36.9327 53.119 37.5207 53.119 38.23V42.5H52.125V38.328C52.125 37.5533 51.929 36.97 51.537 36.578C51.1544 36.1767 50.613 35.976 49.913 35.976C49.3904 35.976 48.933 36.0833 48.541 36.298C48.1584 36.5033 47.8597 36.8067 47.645 37.208C47.4397 37.6 47.337 38.076 47.337 38.636V42.5H46.343V32.112H47.337V37.166L47.141 36.788C47.3744 36.256 47.7477 35.8407 48.261 35.542C48.7744 35.234 49.3857 35.08 50.095 35.08ZM60.518 42.5V33.12L60.966 33.596H58.208V32.7H61.526V42.5H60.518ZM67.5926 42.584C66.8086 42.584 66.132 42.472 65.5626 42.248C65.0026 42.024 64.5686 41.702 64.2606 41.282C63.962 40.8527 63.8126 40.3487 63.8126 39.77C63.8126 39.21 63.9573 38.734 64.2466 38.342C64.5453 37.9407 64.9746 37.6327 65.5346 37.418C66.104 37.2033 66.79 37.096 67.5926 37.096C68.386 37.096 69.0673 37.2033 69.6366 37.418C70.206 37.6327 70.64 37.9407 70.9386 38.342C71.2466 38.734 71.4006 39.21 71.4006 39.77C71.4006 40.3487 71.2466 40.8527 70.9386 41.282C70.6306 41.702 70.192 42.024 69.6226 42.248C69.0533 42.472 68.3766 42.584 67.5926 42.584ZM67.5926 41.73C68.4606 41.73 69.1373 41.5527 69.6226 41.198C70.1173 40.8433 70.3646 40.3627 70.3646 39.756C70.3646 39.1493 70.1173 38.6733 69.6226 38.328C69.1373 37.9733 68.4606 37.796 67.5926 37.796C66.7246 37.796 66.048 37.9733 65.5626 38.328C65.0773 38.6733 64.8346 39.1493 64.8346 39.756C64.8346 40.3627 65.0773 40.8433 65.5626 41.198C66.048 41.5527 66.7246 41.73 67.5926 41.73ZM67.5926 37.67C66.8646 37.67 66.244 37.572 65.7306 37.376C65.2266 37.18 64.8393 36.9 64.5686 36.536C64.298 36.1627 64.1626 35.7193 64.1626 35.206C64.1626 34.6647 64.3026 34.2027 64.5826 33.82C64.872 33.428 65.2733 33.1293 65.7866 32.924C66.3 32.7187 66.902 32.616 67.5926 32.616C68.2833 32.616 68.8853 32.7187 69.3986 32.924C69.9213 33.1293 70.3273 33.428 70.6166 33.82C70.906 34.2027 71.0506 34.6647 71.0506 35.206C71.0506 35.7193 70.9153 36.1627 70.6446 36.536C70.374 36.9 69.9773 37.18 69.4546 37.376C68.9413 37.572 68.3206 37.67 67.5926 37.67ZM67.5926 36.998C68.358 36.998 68.9553 36.8393 69.3846 36.522C69.814 36.2047 70.0286 35.78 70.0286 35.248C70.0286 34.688 69.8046 34.254 69.3566 33.946C68.918 33.6287 68.33 33.47 67.5926 33.47C66.8553 33.47 66.2673 33.6287 65.8286 33.946C65.39 34.254 65.1706 34.6833 65.1706 35.234C65.1706 35.7753 65.3806 36.2047 65.8006 36.522C66.23 36.8393 66.8273 36.998 67.5926 36.998ZM82.6384 35.08C83.2357 35.08 83.7537 35.1967 84.1924 35.43C84.6404 35.654 84.9857 35.9993 85.2284 36.466C85.4804 36.9327 85.6064 37.5207 85.6064 38.23V42.5H84.6124V38.328C84.6124 37.5533 84.4257 36.97 84.0524 36.578C83.6884 36.1767 83.1704 35.976 82.4984 35.976C81.9944 35.976 81.5557 36.0833 81.1824 36.298C80.8184 36.5033 80.5337 36.8067 80.3284 37.208C80.1324 37.6 80.0344 38.076 80.0344 38.636V42.5H79.0404V38.328C79.0404 37.5533 78.8537 36.97 78.4804 36.578C78.107 36.1767 77.5844 35.976 76.9124 35.976C76.4177 35.976 75.9837 36.0833 75.6104 36.298C75.237 36.5033 74.9477 36.8067 74.7424 37.208C74.5464 37.6 74.4484 38.076 74.4484 38.636V42.5H73.4544V35.15H74.4064V37.138L74.2524 36.788C74.4764 36.256 74.8357 35.8407 75.3304 35.542C75.8344 35.234 76.427 35.08 77.1084 35.08C77.827 35.08 78.4384 35.262 78.9424 35.626C79.4464 35.9807 79.773 36.5173 79.9224 37.236L79.5304 37.082C79.745 36.4847 80.123 36.004 80.6644 35.64C81.215 35.2667 81.873 35.08 82.6384 35.08Z" fill="#112211"/>
</svg>
