<svg width="188" height="18" viewBox="0 0 188 18" fill="none" xmlns="http://www.w3.org/2000/svg">
<path d="M5.2648 14.084C4.5368 14.084 3.8368 13.9673 3.1648 13.734C2.50213 13.4913 1.9888 13.1833 1.6248 12.81L2.0308 12.012C2.37613 12.348 2.83813 12.6327 3.4168 12.866C4.0048 13.09 4.6208 13.202 5.2648 13.202C5.8808 13.202 6.38013 13.1273 6.7628 12.978C7.1548 12.8193 7.43946 12.6093 7.6168 12.348C7.80346 12.0867 7.8968 11.7973 7.8968 11.48C7.8968 11.0973 7.7848 10.7893 7.5608 10.556C7.34613 10.3227 7.06146 10.1407 6.7068 10.01C6.35213 9.87 5.96013 9.74867 5.5308 9.646C5.10146 9.54333 4.67213 9.436 4.2428 9.324C3.81346 9.20267 3.4168 9.044 3.0528 8.848C2.69813 8.652 2.4088 8.39533 2.1848 8.078C1.97013 7.75133 1.8628 7.32667 1.8628 6.804C1.8628 6.31867 1.9888 5.87533 2.2408 5.474C2.50213 5.06333 2.8988 4.73667 3.4308 4.494C3.9628 4.242 4.64413 4.116 5.4748 4.116C6.02546 4.116 6.57146 4.19533 7.1128 4.354C7.65413 4.50333 8.1208 4.71333 8.5128 4.984L8.1628 5.81C7.7428 5.53 7.2948 5.32467 6.8188 5.194C6.35213 5.06333 5.89946 4.998 5.4608 4.998C4.8728 4.998 4.38746 5.07733 4.0048 5.236C3.62213 5.39467 3.33746 5.60933 3.1508 5.88C2.97346 6.14133 2.8848 6.44 2.8848 6.776C2.8848 7.15867 2.99213 7.46667 3.2068 7.7C3.4308 7.93333 3.72013 8.11533 4.0748 8.246C4.4388 8.37667 4.83546 8.49333 5.2648 8.596C5.69413 8.69867 6.1188 8.81067 6.5388 8.932C6.96813 9.05333 7.36013 9.212 7.7148 9.408C8.0788 9.59467 8.36813 9.84667 8.5828 10.164C8.8068 10.4813 8.9188 10.8967 8.9188 11.41C8.9188 11.886 8.78813 12.3293 8.5268 12.74C8.26546 13.1413 7.86413 13.468 7.3228 13.72C6.7908 13.9627 6.1048 14.084 5.2648 14.084ZM13.9621 14.07C13.2527 14.07 12.6134 13.9113 12.0441 13.594C11.4841 13.2673 11.0407 12.824 10.7141 12.264C10.3874 11.6947 10.2241 11.046 10.2241 10.318C10.2241 9.58067 10.3874 8.932 10.7141 8.372C11.0407 7.812 11.4841 7.37333 12.0441 7.056C12.6041 6.73867 13.2434 6.58 13.9621 6.58C14.6901 6.58 15.3341 6.73867 15.8941 7.056C16.4634 7.37333 16.9067 7.812 17.2241 8.372C17.5507 8.932 17.7141 9.58067 17.7141 10.318C17.7141 11.046 17.5507 11.6947 17.2241 12.264C16.9067 12.824 16.4634 13.2673 15.8941 13.594C15.3247 13.9113 14.6807 14.07 13.9621 14.07ZM13.9621 13.188C14.4941 13.188 14.9654 13.0713 15.3761 12.838C15.7867 12.5953 16.1087 12.2593 16.3421 11.83C16.5847 11.3913 16.7061 10.8873 16.7061 10.318C16.7061 9.73933 16.5847 9.23533 16.3421 8.806C16.1087 8.37667 15.7867 8.04533 15.3761 7.812C14.9654 7.56933 14.4987 7.448 13.9761 7.448C13.4534 7.448 12.9867 7.56933 12.5761 7.812C12.1654 8.04533 11.8387 8.37667 11.5961 8.806C11.3534 9.23533 11.2321 9.73933 11.2321 10.318C11.2321 10.8873 11.3534 11.3913 11.5961 11.83C11.8387 12.2593 12.1654 12.5953 12.5761 12.838C12.9867 13.0713 13.4487 13.188 13.9621 13.188ZM19.7434 14V6.65H20.6954V8.652L20.5974 8.302C20.8028 7.742 21.1481 7.31733 21.6334 7.028C22.1188 6.72933 22.7208 6.58 23.4394 6.58V7.546C23.4021 7.546 23.3648 7.546 23.3274 7.546C23.2901 7.53667 23.2528 7.532 23.2154 7.532C22.4408 7.532 21.8341 7.77 21.3954 8.246C20.9568 8.71267 20.7374 9.38 20.7374 10.248V14H19.7434ZM27.8916 14.07C27.201 14.07 26.669 13.8833 26.2956 13.51C25.9223 13.1367 25.7356 12.6093 25.7356 11.928V5.026H26.7296V11.872C26.7296 12.3013 26.837 12.6327 27.0516 12.866C27.2756 13.0993 27.593 13.216 28.0036 13.216C28.4423 13.216 28.8063 13.09 29.0956 12.838L29.4456 13.552C29.2496 13.7293 29.0116 13.86 28.7316 13.944C28.461 14.028 28.181 14.07 27.8916 14.07ZM24.4196 7.476V6.65H28.9696V7.476H24.4196ZM38.7132 14.07C38.0692 14.07 37.4905 13.9253 36.9772 13.636C36.4639 13.3373 36.0579 12.908 35.7592 12.348C35.4605 11.788 35.3112 11.1113 35.3112 10.318C35.3112 9.51533 35.4605 8.83867 35.7592 8.288C36.0672 7.728 36.4779 7.30333 36.9912 7.014C37.5045 6.72467 38.0785 6.58 38.7132 6.58C39.4132 6.58 40.0385 6.73867 40.5892 7.056C41.1492 7.364 41.5879 7.798 41.9052 8.358C42.2225 8.918 42.3812 9.57133 42.3812 10.318C42.3812 11.0553 42.2225 11.7087 41.9052 12.278C41.5879 12.838 41.1492 13.2767 40.5892 13.594C40.0385 13.9113 39.4132 14.07 38.7132 14.07ZM34.9192 14V3.612H35.9132V8.82L35.7732 10.304L35.8712 11.788V14H34.9192ZM38.6432 13.188C39.1659 13.188 39.6325 13.0713 40.0432 12.838C40.4539 12.5953 40.7805 12.2593 41.0232 11.83C41.2659 11.3913 41.3872 10.8873 41.3872 10.318C41.3872 9.73933 41.2659 9.23533 41.0232 8.806C40.7805 8.37667 40.4539 8.04533 40.0432 7.812C39.6325 7.56933 39.1659 7.448 38.6432 7.448C38.1205 7.448 37.6492 7.56933 37.2292 7.812C36.8185 8.04533 36.4919 8.37667 36.2492 8.806C36.0159 9.23533 35.8992 9.73933 35.8992 10.318C35.8992 10.8873 36.0159 11.3913 36.2492 11.83C36.4919 12.2593 36.8185 12.5953 37.2292 12.838C37.6492 13.0713 38.1205 13.188 38.6432 13.188ZM44.2584 16.786C43.9131 16.786 43.5817 16.73 43.2644 16.618C42.9564 16.506 42.6904 16.338 42.4664 16.114L42.9284 15.372C43.1151 15.5493 43.3157 15.6847 43.5304 15.778C43.7544 15.8807 44.0017 15.932 44.2724 15.932C44.5991 15.932 44.8791 15.8387 45.1124 15.652C45.3551 15.4747 45.5837 15.1573 45.7984 14.7L46.2744 13.622L46.3864 13.468L49.4104 6.65H50.3904L46.7084 14.882C46.5031 15.358 46.2744 15.736 46.0224 16.016C45.7797 16.296 45.5137 16.492 45.2244 16.604C44.9351 16.7253 44.6131 16.786 44.2584 16.786ZM46.2184 14.21L42.8304 6.65H43.8664L46.8624 13.398L46.2184 14.21ZM55.5894 14V4.2H59.6214C60.4894 4.2 61.2314 4.34 61.8474 4.62C62.4728 4.9 62.9534 5.30133 63.2894 5.824C63.6254 6.34667 63.7934 6.96733 63.7934 7.686C63.7934 8.40467 63.6254 9.02533 63.2894 9.548C62.9534 10.0613 62.4728 10.458 61.8474 10.738C61.2314 11.0087 60.4894 11.144 59.6214 11.144H56.5974L57.4094 10.318V14H55.5894ZM62.0014 14L59.5234 10.444H61.4694L63.9614 14H62.0014ZM57.4094 10.514L56.5974 9.646H59.5374C60.3401 9.646 60.9421 9.47333 61.3434 9.128C61.7541 8.78267 61.9594 8.302 61.9594 7.686C61.9594 7.06067 61.7541 6.58 61.3434 6.244C60.9421 5.908 60.3401 5.74 59.5374 5.74H56.5974L57.4094 4.844V10.514ZM69.1757 14.098C68.345 14.098 67.617 13.9347 66.9917 13.608C66.3757 13.272 65.895 12.8147 65.5497 12.236C65.2137 11.6573 65.0457 10.9993 65.0457 10.262C65.0457 9.51533 65.209 8.85733 65.5357 8.288C65.8717 7.70933 66.329 7.25667 66.9077 6.93C67.4957 6.60333 68.163 6.44 68.9097 6.44C69.6377 6.44 70.2863 6.59867 70.8557 6.916C71.425 7.23333 71.873 7.68133 72.1997 8.26C72.5263 8.83867 72.6897 9.52 72.6897 10.304C72.6897 10.3787 72.685 10.4627 72.6757 10.556C72.6757 10.6493 72.671 10.738 72.6617 10.822H66.4317V9.66H71.7377L71.0517 10.024C71.061 9.59467 70.9723 9.21667 70.7857 8.89C70.599 8.56333 70.3423 8.30667 70.0157 8.12C69.6983 7.93333 69.3297 7.84 68.9097 7.84C68.4803 7.84 68.1023 7.93333 67.7757 8.12C67.4583 8.30667 67.2063 8.568 67.0197 8.904C66.8423 9.23067 66.7537 9.618 66.7537 10.066V10.346C66.7537 10.794 66.8563 11.1907 67.0617 11.536C67.267 11.8813 67.5563 12.1473 67.9297 12.334C68.303 12.5207 68.7323 12.614 69.2177 12.614C69.6377 12.614 70.0157 12.5487 70.3517 12.418C70.6877 12.2873 70.9863 12.082 71.2477 11.802L72.1857 12.88C71.8497 13.272 71.425 13.5753 70.9117 13.79C70.4077 13.9953 69.829 14.098 69.1757 14.098ZM77.8007 14.098C77.0167 14.098 76.3167 13.9347 75.7007 13.608C75.094 13.272 74.618 12.8147 74.2727 12.236C73.9273 11.6573 73.7547 10.9993 73.7547 10.262C73.7547 9.51533 73.9273 8.85733 74.2727 8.288C74.618 7.70933 75.094 7.25667 75.7007 6.93C76.3167 6.60333 77.0167 6.44 77.8007 6.44C78.5287 6.44 79.168 6.58933 79.7187 6.888C80.2787 7.17733 80.7033 7.60667 80.9927 8.176L79.6487 8.96C79.4247 8.60533 79.1493 8.344 78.8227 8.176C78.5053 8.008 78.16 7.924 77.7867 7.924C77.3573 7.924 76.97 8.01733 76.6247 8.204C76.2793 8.39067 76.0087 8.66133 75.8127 9.016C75.6167 9.36133 75.5187 9.77667 75.5187 10.262C75.5187 10.7473 75.6167 11.1673 75.8127 11.522C76.0087 11.8673 76.2793 12.1333 76.6247 12.32C76.97 12.5067 77.3573 12.6 77.7867 12.6C78.16 12.6 78.5053 12.516 78.8227 12.348C79.1493 12.18 79.4247 11.9187 79.6487 11.564L80.9927 12.348C80.7033 12.908 80.2787 13.342 79.7187 13.65C79.168 13.9487 78.5287 14.098 77.8007 14.098ZM85.756 14.098C84.9907 14.098 84.3094 13.9347 83.712 13.608C83.1147 13.272 82.6434 12.8147 82.298 12.236C81.9527 11.6573 81.78 10.9993 81.78 10.262C81.78 9.51533 81.9527 8.85733 82.298 8.288C82.6434 7.70933 83.1147 7.25667 83.712 6.93C84.3094 6.60333 84.9907 6.44 85.756 6.44C86.5307 6.44 87.2167 6.60333 87.814 6.93C88.4207 7.25667 88.892 7.70467 89.228 8.274C89.5734 8.84333 89.746 9.506 89.746 10.262C89.746 10.9993 89.5734 11.6573 89.228 12.236C88.892 12.8147 88.4207 13.272 87.814 13.608C87.2167 13.9347 86.5307 14.098 85.756 14.098ZM85.756 12.6C86.1854 12.6 86.568 12.5067 86.904 12.32C87.24 12.1333 87.5014 11.8627 87.688 11.508C87.884 11.1533 87.982 10.738 87.982 10.262C87.982 9.77667 87.884 9.36133 87.688 9.016C87.5014 8.66133 87.24 8.39067 86.904 8.204C86.568 8.01733 86.19 7.924 85.77 7.924C85.3407 7.924 84.958 8.01733 84.622 8.204C84.2954 8.39067 84.034 8.66133 83.838 9.016C83.642 9.36133 83.544 9.77667 83.544 10.262C83.544 10.738 83.642 11.1533 83.838 11.508C84.034 11.8627 84.2954 12.1333 84.622 12.32C84.958 12.5067 85.336 12.6 85.756 12.6ZM100.855 6.44C101.453 6.44 101.98 6.55667 102.437 6.79C102.904 7.02333 103.268 7.38267 103.529 7.868C103.791 8.344 103.921 8.96 103.921 9.716V14H102.171V9.94C102.171 9.27733 102.027 8.78267 101.737 8.456C101.448 8.12933 101.033 7.966 100.491 7.966C100.109 7.966 99.7682 8.05 99.4695 8.218C99.1802 8.386 98.9515 8.63333 98.7835 8.96C98.6248 9.28667 98.5455 9.702 98.5455 10.206V14H96.7955V9.94C96.7955 9.27733 96.6508 8.78267 96.3615 8.456C96.0722 8.12933 95.6568 7.966 95.1155 7.966C94.7328 7.966 94.3922 8.05 94.0935 8.218C93.8042 8.386 93.5755 8.63333 93.4075 8.96C93.2488 9.28667 93.1695 9.702 93.1695 10.206V14H91.4195V6.524H93.0855V8.512L92.7915 7.924C93.0435 7.43867 93.4075 7.07 93.8835 6.818C94.3688 6.566 94.9195 6.44 95.5355 6.44C96.2355 6.44 96.8422 6.61267 97.3555 6.958C97.8782 7.30333 98.2235 7.826 98.3915 8.526L97.7055 8.288C97.9482 7.728 98.3495 7.28 98.9095 6.944C99.4695 6.608 100.118 6.44 100.855 6.44ZM115.594 6.44C116.191 6.44 116.718 6.55667 117.176 6.79C117.642 7.02333 118.006 7.38267 118.268 7.868C118.529 8.344 118.66 8.96 118.66 9.716V14H116.91V9.94C116.91 9.27733 116.765 8.78267 116.476 8.456C116.186 8.12933 115.771 7.966 115.23 7.966C114.847 7.966 114.506 8.05 114.208 8.218C113.918 8.386 113.69 8.63333 113.522 8.96C113.363 9.28667 113.284 9.702 113.284 10.206V14H111.534V9.94C111.534 9.27733 111.389 8.78267 111.1 8.456C110.81 8.12933 110.395 7.966 109.854 7.966C109.471 7.966 109.13 8.05 108.832 8.218C108.542 8.386 108.314 8.63333 108.146 8.96C107.987 9.28667 107.908 9.702 107.908 10.206V14H106.158V6.524H107.824V8.512L107.53 7.924C107.782 7.43867 108.146 7.07 108.622 6.818C109.107 6.566 109.658 6.44 110.274 6.44C110.974 6.44 111.58 6.61267 112.094 6.958C112.616 7.30333 112.962 7.826 113.13 8.526L112.444 8.288C112.686 7.728 113.088 7.28 113.648 6.944C114.208 6.608 114.856 6.44 115.594 6.44ZM124.424 14.098C123.593 14.098 122.865 13.9347 122.24 13.608C121.624 13.272 121.143 12.8147 120.798 12.236C120.462 11.6573 120.294 10.9993 120.294 10.262C120.294 9.51533 120.457 8.85733 120.784 8.288C121.12 7.70933 121.577 7.25667 122.156 6.93C122.744 6.60333 123.411 6.44 124.158 6.44C124.886 6.44 125.534 6.59867 126.104 6.916C126.673 7.23333 127.121 7.68133 127.448 8.26C127.774 8.83867 127.938 9.52 127.938 10.304C127.938 10.3787 127.933 10.4627 127.924 10.556C127.924 10.6493 127.919 10.738 127.91 10.822H121.68V9.66H126.986L126.3 10.024C126.309 9.59467 126.22 9.21667 126.034 8.89C125.847 8.56333 125.59 8.30667 125.264 8.12C124.946 7.93333 124.578 7.84 124.158 7.84C123.728 7.84 123.35 7.93333 123.024 8.12C122.706 8.30667 122.454 8.568 122.268 8.904C122.09 9.23067 122.002 9.618 122.002 10.066V10.346C122.002 10.794 122.104 11.1907 122.31 11.536C122.515 11.8813 122.804 12.1473 123.178 12.334C123.551 12.5207 123.98 12.614 124.466 12.614C124.886 12.614 125.264 12.5487 125.6 12.418C125.936 12.2873 126.234 12.082 126.496 11.802L127.434 12.88C127.098 13.272 126.673 13.5753 126.16 13.79C125.656 13.9953 125.077 14.098 124.424 14.098ZM133.861 6.44C134.458 6.44 134.99 6.55667 135.457 6.79C135.933 7.02333 136.306 7.38267 136.577 7.868C136.847 8.344 136.983 8.96 136.983 9.716V14H135.233V9.94C135.233 9.27733 135.074 8.78267 134.757 8.456C134.449 8.12933 134.015 7.966 133.455 7.966C133.044 7.966 132.68 8.05 132.363 8.218C132.045 8.386 131.798 8.638 131.621 8.974C131.453 9.30067 131.369 9.716 131.369 10.22V14H129.619V6.524H131.285V8.54L130.991 7.924C131.252 7.448 131.63 7.084 132.125 6.832C132.629 6.57067 133.207 6.44 133.861 6.44ZM142.38 14.098C141.662 14.098 141.013 13.9393 140.434 13.622C139.865 13.2953 139.417 12.8473 139.09 12.278C138.764 11.7087 138.6 11.0367 138.6 10.262C138.6 9.48733 138.764 8.81533 139.09 8.246C139.417 7.67667 139.865 7.23333 140.434 6.916C141.013 6.59867 141.662 6.44 142.38 6.44C143.006 6.44 143.566 6.58 144.06 6.86C144.555 7.13067 144.947 7.546 145.236 8.106C145.526 8.666 145.67 9.38467 145.67 10.262C145.67 11.13 145.53 11.8487 145.25 12.418C144.97 12.978 144.583 13.398 144.088 13.678C143.594 13.958 143.024 14.098 142.38 14.098ZM142.59 12.6C143.01 12.6 143.384 12.5067 143.71 12.32C144.046 12.1333 144.312 11.8627 144.508 11.508C144.714 11.1533 144.816 10.738 144.816 10.262C144.816 9.77667 144.714 9.36133 144.508 9.016C144.312 8.66133 144.046 8.39067 143.71 8.204C143.384 8.01733 143.01 7.924 142.59 7.924C142.17 7.924 141.792 8.01733 141.456 8.204C141.13 8.39067 140.864 8.66133 140.658 9.016C140.462 9.36133 140.364 9.77667 140.364 10.262C140.364 10.738 140.462 11.1533 140.658 11.508C140.864 11.8627 141.13 12.1333 141.456 12.32C141.792 12.5067 142.17 12.6 142.59 12.6ZM144.858 14V12.236L144.928 10.248L144.788 8.26V3.612H146.524V14H144.858ZM152.342 14.098C151.511 14.098 150.783 13.9347 150.158 13.608C149.542 13.272 149.061 12.8147 148.716 12.236C148.38 11.6573 148.212 10.9993 148.212 10.262C148.212 9.51533 148.375 8.85733 148.702 8.288C149.038 7.70933 149.495 7.25667 150.074 6.93C150.662 6.60333 151.329 6.44 152.076 6.44C152.804 6.44 153.452 6.59867 154.022 6.916C154.591 7.23333 155.039 7.68133 155.366 8.26C155.692 8.83867 155.856 9.52 155.856 10.304C155.856 10.3787 155.851 10.4627 155.842 10.556C155.842 10.6493 155.837 10.738 155.828 10.822H149.598V9.66H154.904L154.218 10.024C154.227 9.59467 154.138 9.21667 153.952 8.89C153.765 8.56333 153.508 8.30667 153.182 8.12C152.864 7.93333 152.496 7.84 152.076 7.84C151.646 7.84 151.268 7.93333 150.942 8.12C150.624 8.30667 150.372 8.568 150.186 8.904C150.008 9.23067 149.92 9.618 149.92 10.066V10.346C149.92 10.794 150.022 11.1907 150.228 11.536C150.433 11.8813 150.722 12.1473 151.096 12.334C151.469 12.5207 151.898 12.614 152.384 12.614C152.804 12.614 153.182 12.5487 153.518 12.418C153.854 12.2873 154.152 12.082 154.414 11.802L155.352 12.88C155.016 13.272 154.591 13.5753 154.078 13.79C153.574 13.9953 152.995 14.098 152.342 14.098ZM160.701 14.098C159.982 14.098 159.333 13.9393 158.755 13.622C158.185 13.2953 157.737 12.8473 157.411 12.278C157.084 11.7087 156.921 11.0367 156.921 10.262C156.921 9.48733 157.084 8.81533 157.411 8.246C157.737 7.67667 158.185 7.23333 158.755 6.916C159.333 6.59867 159.982 6.44 160.701 6.44C161.326 6.44 161.886 6.58 162.381 6.86C162.875 7.13067 163.267 7.546 163.557 8.106C163.846 8.666 163.991 9.38467 163.991 10.262C163.991 11.13 163.851 11.8487 163.571 12.418C163.291 12.978 162.903 13.398 162.409 13.678C161.914 13.958 161.345 14.098 160.701 14.098ZM160.911 12.6C161.331 12.6 161.704 12.5067 162.031 12.32C162.367 12.1333 162.633 11.8627 162.829 11.508C163.034 11.1533 163.137 10.738 163.137 10.262C163.137 9.77667 163.034 9.36133 162.829 9.016C162.633 8.66133 162.367 8.39067 162.031 8.204C161.704 8.01733 161.331 7.924 160.911 7.924C160.491 7.924 160.113 8.01733 159.777 8.204C159.45 8.39067 159.184 8.66133 158.979 9.016C158.783 9.36133 158.685 9.77667 158.685 10.262C158.685 10.738 158.783 11.1533 158.979 11.508C159.184 11.8627 159.45 12.1333 159.777 12.32C160.113 12.5067 160.491 12.6 160.911 12.6ZM163.179 14V12.236L163.249 10.248L163.109 8.26V3.612H164.845V14H163.179Z" fill="#112211"/>
<path d="M173.938 6.75L179 11.8125L184.062 6.75" stroke="#112211" stroke-width="1.5" stroke-linecap="round" stroke-linejoin="round"/>
</svg>
