<svg width="343" height="25" viewBox="0 0 343 25" fill="none" xmlns="http://www.w3.org/2000/svg">
<path d="M18.75 3.5H5.25C4.00736 3.5 3 4.50736 3 5.75V19.25C3 20.4926 4.00736 21.5 5.25 21.5H18.75C19.9926 21.5 21 20.4926 21 19.25V5.75C21 4.50736 19.9926 3.5 18.75 3.5Z" stroke="#112211" stroke-width="2" stroke-linejoin="round"/>
<path d="M34.744 12.428H39.784V13.618H34.744V12.428ZM34.87 16.782H40.582V18H33.47V8.2H40.386V9.418H34.87V16.782ZM51.9349 10.51C52.5322 10.51 53.0596 10.6267 53.5169 10.86C53.9742 11.0933 54.3289 11.448 54.5809 11.924C54.8422 12.4 54.9729 13.002 54.9729 13.73V18H53.6289V13.884C53.6289 13.1653 53.4609 12.624 53.1249 12.26C52.7889 11.896 52.3176 11.714 51.7109 11.714C51.2629 11.714 50.8709 11.8073 50.5349 11.994C50.1989 12.1807 49.9376 12.456 49.7509 12.82C49.5736 13.184 49.4849 13.6367 49.4849 14.178V18H48.1409V13.884C48.1409 13.1653 47.9729 12.624 47.6369 12.26C47.3102 11.896 46.8389 11.714 46.2229 11.714C45.7842 11.714 45.3969 11.8073 45.0609 11.994C44.7249 12.1807 44.4636 12.456 44.2769 12.82C44.0902 13.184 43.9969 13.6367 43.9969 14.178V18H42.6529V10.58H43.9409V12.554L43.7309 12.05C43.9642 11.5647 44.3236 11.1867 44.8089 10.916C45.2942 10.6453 45.8589 10.51 46.5029 10.51C47.2122 10.51 47.8236 10.6873 48.3369 11.042C48.8502 11.3873 49.1862 11.9147 49.3449 12.624L48.7989 12.4C49.0229 11.8307 49.4149 11.3733 49.9749 11.028C50.5349 10.6827 51.1882 10.51 51.9349 10.51ZM57.4459 18V10.58H58.7899V18H57.4459ZM58.1179 9.152C57.8565 9.152 57.6372 9.068 57.4599 8.9C57.2919 8.732 57.2079 8.52667 57.2079 8.284C57.2079 8.032 57.2919 7.822 57.4599 7.654C57.6372 7.486 57.8565 7.402 58.1179 7.402C58.3792 7.402 58.5939 7.486 58.7619 7.654C58.9392 7.81267 59.0279 8.01333 59.0279 8.256C59.0279 8.508 58.9439 8.72267 58.7759 8.9C58.6079 9.068 58.3885 9.152 58.1179 9.152ZM61.356 18V10.58H62.644V12.596L62.518 12.092C62.7234 11.5787 63.0687 11.1867 63.554 10.916C64.0394 10.6453 64.6367 10.51 65.346 10.51V11.812C65.29 11.8027 65.234 11.798 65.178 11.798C65.1314 11.798 65.0847 11.798 65.038 11.798C64.3194 11.798 63.75 12.0127 63.33 12.442C62.91 12.8713 62.7 13.492 62.7 14.304V18H61.356ZM71.0616 18V16.432L70.9916 16.138V13.464C70.9916 12.8947 70.8236 12.456 70.4876 12.148C70.161 11.8307 69.6663 11.672 69.0036 11.672C68.565 11.672 68.1356 11.7467 67.7156 11.896C67.2956 12.036 66.941 12.2273 66.6516 12.47L66.0916 11.462C66.4743 11.154 66.9316 10.9207 67.4636 10.762C68.005 10.594 68.5696 10.51 69.1576 10.51C70.175 10.51 70.959 10.7573 71.5096 11.252C72.0603 11.7467 72.3356 12.5027 72.3356 13.52V18H71.0616ZM68.6256 18.084C68.075 18.084 67.5896 17.9907 67.1696 17.804C66.759 17.6173 66.4416 17.3607 66.2176 17.034C65.9936 16.698 65.8816 16.32 65.8816 15.9C65.8816 15.4987 65.975 15.1347 66.1616 14.808C66.3576 14.4813 66.6703 14.22 67.0996 14.024C67.5383 13.828 68.1263 13.73 68.8636 13.73H71.2156V14.696H68.9196C68.2476 14.696 67.795 14.808 67.5616 15.032C67.3283 15.256 67.2116 15.5267 67.2116 15.844C67.2116 16.208 67.3563 16.502 67.6456 16.726C67.935 16.9407 68.3363 17.048 68.8496 17.048C69.3536 17.048 69.7923 16.936 70.1656 16.712C70.5483 16.488 70.8236 16.1613 70.9916 15.732L71.2576 16.656C71.0803 17.0947 70.7676 17.4447 70.3196 17.706C69.8716 17.958 69.307 18.084 68.6256 18.084ZM77.3708 18.084C76.6242 18.084 76.0455 17.8833 75.6348 17.482C75.2242 17.0807 75.0188 16.5067 75.0188 15.76V8.956H76.3628V15.704C76.3628 16.1053 76.4608 16.4133 76.6568 16.628C76.8622 16.8427 77.1515 16.95 77.5248 16.95C77.9448 16.95 78.2948 16.8333 78.5748 16.6L78.9948 17.566C78.7895 17.7433 78.5422 17.874 78.2528 17.958C77.9728 18.042 77.6788 18.084 77.3708 18.084ZM73.7588 11.686V10.58H78.4908V11.686H73.7588ZM83.6776 18.084C82.8843 18.084 82.1843 17.9207 81.5776 17.594C80.9803 17.2673 80.5136 16.8193 80.1776 16.25C79.8509 15.6807 79.6876 15.0273 79.6876 14.29C79.6876 13.5527 79.8463 12.8993 80.1636 12.33C80.4903 11.7607 80.9336 11.3173 81.4936 11C82.0629 10.6733 82.7023 10.51 83.4116 10.51C84.1303 10.51 84.7649 10.6687 85.3156 10.986C85.8663 11.3033 86.2956 11.7513 86.6036 12.33C86.9209 12.8993 87.0796 13.5667 87.0796 14.332C87.0796 14.388 87.0749 14.4533 87.0656 14.528C87.0656 14.6027 87.0609 14.6727 87.0516 14.738H80.7376V13.772H86.3516L85.8056 14.108C85.8149 13.632 85.7169 13.2073 85.5116 12.834C85.3063 12.4607 85.0216 12.1713 84.6576 11.966C84.3029 11.7513 83.8876 11.644 83.4116 11.644C82.9449 11.644 82.5296 11.7513 82.1656 11.966C81.8016 12.1713 81.5169 12.4653 81.3116 12.848C81.1063 13.2213 81.0036 13.6507 81.0036 14.136V14.36C81.0036 14.8547 81.1156 15.298 81.3396 15.69C81.5729 16.0727 81.8949 16.3713 82.3056 16.586C82.7163 16.8007 83.1876 16.908 83.7196 16.908C84.1583 16.908 84.5549 16.8333 84.9096 16.684C85.2736 16.5347 85.5909 16.3107 85.8616 16.012L86.6036 16.88C86.2676 17.272 85.8476 17.5707 85.3436 17.776C84.8489 17.9813 84.2936 18.084 83.6776 18.084ZM92.0119 18.084C91.2932 18.084 90.6492 17.9253 90.0799 17.608C89.5199 17.2907 89.0765 16.8473 88.7499 16.278C88.4232 15.7087 88.2599 15.046 88.2599 14.29C88.2599 13.534 88.4232 12.876 88.7499 12.316C89.0765 11.7467 89.5199 11.3033 90.0799 10.986C90.6492 10.6687 91.2932 10.51 92.0119 10.51C92.6372 10.51 93.2019 10.65 93.7059 10.93C94.2099 11.21 94.6112 11.63 94.9099 12.19C95.2179 12.75 95.3719 13.45 95.3719 14.29C95.3719 15.13 95.2225 15.83 94.9239 16.39C94.6345 16.95 94.2379 17.3747 93.7339 17.664C93.2299 17.944 92.6559 18.084 92.0119 18.084ZM92.1239 16.908C92.5905 16.908 93.0105 16.8007 93.3839 16.586C93.7665 16.3713 94.0652 16.068 94.2799 15.676C94.5039 15.2747 94.6159 14.8127 94.6159 14.29C94.6159 13.758 94.5039 13.3007 94.2799 12.918C94.0652 12.526 93.7665 12.2227 93.3839 12.008C93.0105 11.7933 92.5905 11.686 92.1239 11.686C91.6479 11.686 91.2232 11.7933 90.8499 12.008C90.4765 12.2227 90.1779 12.526 89.9539 12.918C89.7299 13.3007 89.6179 13.758 89.6179 14.29C89.6179 14.8127 89.7299 15.2747 89.9539 15.676C90.1779 16.068 90.4765 16.3713 90.8499 16.586C91.2232 16.8007 91.6479 16.908 92.1239 16.908ZM94.6579 18V15.998L94.7419 14.276L94.6019 12.554V7.612H95.9459V18H94.6579Z" fill="#112211"/>
</svg>
