<svg width="343" height="24" viewBox="0 0 343 24" fill="none" xmlns="http://www.w3.org/2000/svg">
<path d="M18.75 3H5.25C4.00736 3 3 4.00736 3 5.25V18.75C3 19.9926 4.00736 21 5.25 21H18.75C19.9926 21 21 19.9926 21 18.75V5.25C21 4.00736 19.9926 3 18.75 3Z" stroke="#112211" stroke-width="2" stroke-linejoin="round"/>
<path d="M33.47 17.5V7.7H34.618L39.014 15.106H38.398L42.738 7.7H43.886L43.9 17.5H42.556L42.542 9.814H42.864L39 16.31H38.356L34.464 9.814H34.814V17.5H33.47ZM49.7671 17.584C49.1324 17.584 48.5724 17.4673 48.0871 17.234C47.6111 17.0007 47.2378 16.646 46.9671 16.17C46.7058 15.6847 46.5751 15.078 46.5751 14.35V10.08H47.9191V14.196C47.9191 14.924 48.0918 15.47 48.4371 15.834C48.7918 16.198 49.2864 16.38 49.9211 16.38C50.3878 16.38 50.7938 16.2867 51.1391 16.1C51.4844 15.904 51.7504 15.624 51.9371 15.26C52.1238 14.8867 52.2171 14.4387 52.2171 13.916V10.08H53.5611V17.5H52.2871V15.498L52.4971 16.03C52.2544 16.5247 51.8904 16.9073 51.4051 17.178C50.9198 17.4487 50.3738 17.584 49.7671 17.584ZM56.1197 17.5V7.112H57.4637V17.5H56.1197ZM62.7693 17.584C62.0226 17.584 61.4439 17.3833 61.0333 16.982C60.6226 16.5807 60.4173 16.0067 60.4173 15.26V8.456H61.7613V15.204C61.7613 15.6053 61.8593 15.9133 62.0553 16.128C62.2606 16.3427 62.5499 16.45 62.9233 16.45C63.3433 16.45 63.6933 16.3333 63.9733 16.1L64.3933 17.066C64.1879 17.2433 63.9406 17.374 63.6513 17.458C63.3713 17.542 63.0773 17.584 62.7693 17.584ZM59.1573 11.186V10.08H63.8893V11.186H59.1573ZM66.0181 17.5V10.08H67.3621V17.5H66.0181ZM66.6901 8.652C66.4288 8.652 66.2095 8.568 66.0321 8.4C65.8641 8.232 65.7801 8.02667 65.7801 7.784C65.7801 7.532 65.8641 7.322 66.0321 7.154C66.2095 6.986 66.4288 6.902 66.6901 6.902C66.9515 6.902 67.1661 6.986 67.3341 7.154C67.5115 7.31267 67.6001 7.51333 67.6001 7.756C67.6001 8.008 67.5161 8.22267 67.3481 8.4C67.1801 8.568 66.9608 8.652 66.6901 8.652ZM69.4523 14.238V13.076H73.2183V14.238H69.4523ZM79.9614 17.612C79.2147 17.612 78.524 17.4907 77.8894 17.248C77.264 16.996 76.718 16.646 76.2514 16.198C75.794 15.7407 75.4347 15.2087 75.1734 14.602C74.912 13.9953 74.7814 13.328 74.7814 12.6C74.7814 11.872 74.912 11.2047 75.1734 10.598C75.4347 9.99133 75.7987 9.464 76.2654 9.016C76.732 8.55867 77.278 8.20867 77.9034 7.966C78.538 7.714 79.2287 7.588 79.9754 7.588C80.7314 7.588 81.4267 7.71867 82.0614 7.98C82.7054 8.232 83.2514 8.61 83.6994 9.114L82.7894 9.996C82.416 9.604 81.996 9.31467 81.5294 9.128C81.0627 8.932 80.5634 8.834 80.0314 8.834C79.4807 8.834 78.9674 8.92733 78.4914 9.114C78.0247 9.30067 77.6187 9.562 77.2734 9.898C76.928 10.234 76.6574 10.6353 76.4614 11.102C76.2747 11.5593 76.1814 12.0587 76.1814 12.6C76.1814 13.1413 76.2747 13.6453 76.4614 14.112C76.6574 14.5693 76.928 14.966 77.2734 15.302C77.6187 15.638 78.0247 15.8993 78.4914 16.086C78.9674 16.2727 79.4807 16.366 80.0314 16.366C80.5634 16.366 81.0627 16.2727 81.5294 16.086C81.996 15.89 82.416 15.5913 82.7894 15.19L83.6994 16.072C83.2514 16.576 82.7054 16.9587 82.0614 17.22C81.4267 17.4813 80.7267 17.612 79.9614 17.612ZM85.5006 17.5V10.08H86.8446V17.5H85.5006ZM86.1726 8.652C85.9112 8.652 85.6919 8.568 85.5146 8.4C85.3466 8.232 85.2626 8.02667 85.2626 7.784C85.2626 7.532 85.3466 7.322 85.5146 7.154C85.6919 6.986 85.9112 6.902 86.1726 6.902C86.4339 6.902 86.6486 6.986 86.8166 7.154C86.9939 7.31267 87.0826 7.51333 87.0826 7.756C87.0826 8.008 86.9986 8.22267 86.8306 8.4C86.6626 8.568 86.4432 8.652 86.1726 8.652ZM91.9587 17.584C91.2121 17.584 90.6334 17.3833 90.2227 16.982C89.8121 16.5807 89.6067 16.0067 89.6067 15.26V8.456H90.9507V15.204C90.9507 15.6053 91.0487 15.9133 91.2447 16.128C91.4501 16.3427 91.7394 16.45 92.1127 16.45C92.5327 16.45 92.8827 16.3333 93.1627 16.1L93.5827 17.066C93.3774 17.2433 93.1301 17.374 92.8407 17.458C92.5607 17.542 92.2667 17.584 91.9587 17.584ZM88.3467 11.186V10.08H93.0787V11.186H88.3467ZM95.3929 20.3C95.0382 20.3 94.6929 20.2393 94.3569 20.118C94.0209 20.006 93.7315 19.838 93.4889 19.614L94.0629 18.606C94.2495 18.7833 94.4549 18.9187 94.6789 19.012C94.9029 19.1053 95.1409 19.152 95.3929 19.152C95.7195 19.152 95.9902 19.068 96.2049 18.9C96.4195 18.732 96.6202 18.4333 96.8069 18.004L97.2689 16.982L97.4089 16.814L100.321 10.08H101.637L98.0389 18.242C97.8242 18.7647 97.5815 19.1753 97.3109 19.474C97.0495 19.7727 96.7602 19.9827 96.4429 20.104C96.1255 20.2347 95.7755 20.3 95.3929 20.3ZM97.1569 17.738L93.7689 10.08H95.1689L98.0529 16.688L97.1569 17.738Z" fill="#112211"/>
</svg>
