<svg width="343" height="24" viewBox="0 0 343 24" fill="none" xmlns="http://www.w3.org/2000/svg">
<path d="M18.75 3H5.25C4.00736 3 3 4.00736 3 5.25V18.75C3 19.9926 4.00736 21 5.25 21H18.75C19.9926 21 21 19.9926 21 18.75V5.25C21 4.00736 19.9926 3 18.75 3Z" stroke="#112211" stroke-width="2" stroke-linejoin="round"/>
<path d="M37.894 17.612C37.1473 17.612 36.452 17.486 35.808 17.234C35.1733 16.982 34.6227 16.632 34.156 16.184C33.6893 15.7267 33.3253 15.1947 33.064 14.588C32.8027 13.9813 32.672 13.3187 32.672 12.6C32.672 11.8813 32.8027 11.2187 33.064 10.612C33.3253 10.0053 33.6893 9.478 34.156 9.03C34.6227 8.57267 35.1733 8.218 35.808 7.966C36.4427 7.714 37.138 7.588 37.894 7.588C38.6407 7.588 39.3267 7.714 39.952 7.966C40.5867 8.20867 41.1373 8.55867 41.604 9.016C42.08 9.464 42.444 9.99133 42.696 10.598C42.9573 11.2047 43.088 11.872 43.088 12.6C43.088 13.328 42.9573 13.9953 42.696 14.602C42.444 15.2087 42.08 15.7407 41.604 16.198C41.1373 16.646 40.5867 16.996 39.952 17.248C39.3267 17.4907 38.6407 17.612 37.894 17.612ZM37.894 16.366C38.4353 16.366 38.9347 16.2727 39.392 16.086C39.8587 15.8993 40.26 15.638 40.596 15.302C40.9413 14.9567 41.2073 14.5553 41.394 14.098C41.59 13.6407 41.688 13.1413 41.688 12.6C41.688 12.0587 41.59 11.5593 41.394 11.102C41.2073 10.6447 40.9413 10.248 40.596 9.912C40.26 9.56667 39.8587 9.30067 39.392 9.114C38.9347 8.92733 38.4353 8.834 37.894 8.834C37.3433 8.834 36.8347 8.92733 36.368 9.114C35.9107 9.30067 35.5093 9.56667 35.164 9.912C34.8187 10.248 34.548 10.6447 34.352 11.102C34.1653 11.5593 34.072 12.0587 34.072 12.6C34.072 13.1413 34.1653 13.6407 34.352 14.098C34.548 14.5553 34.8187 14.9567 35.164 15.302C35.5093 15.638 35.9107 15.8993 36.368 16.086C36.8347 16.2727 37.3433 16.366 37.894 16.366ZM48.9938 10.01C49.6005 10.01 50.1325 10.1267 50.5898 10.36C51.0565 10.5933 51.4205 10.948 51.6818 11.424C51.9431 11.9 52.0738 12.502 52.0738 13.23V17.5H50.7298V13.384C50.7298 12.6653 50.5525 12.124 50.1978 11.76C49.8525 11.396 49.3625 11.214 48.7278 11.214C48.2518 11.214 47.8365 11.3073 47.4818 11.494C47.1271 11.6807 46.8518 11.956 46.6558 12.32C46.4691 12.684 46.3758 13.1367 46.3758 13.678V17.5H45.0318V10.08H46.3198V12.082L46.1098 11.55C46.3525 11.0647 46.7258 10.6867 47.2298 10.416C47.7338 10.1453 48.3218 10.01 48.9938 10.01ZM60.7709 17.5L57.4949 7.7H58.9369L61.9469 16.744H61.2189L64.3409 7.7H65.6289L68.6809 16.744H67.9809L71.0329 7.7H72.3629L69.0869 17.5H67.6169L64.7609 9.114H65.1389L62.2689 17.5H60.7709ZM77.9249 17.5V15.932L77.8549 15.638V12.964C77.8549 12.3947 77.6869 11.956 77.3509 11.648C77.0243 11.3307 76.5296 11.172 75.8669 11.172C75.4283 11.172 74.9989 11.2467 74.5789 11.396C74.1589 11.536 73.8043 11.7273 73.5149 11.97L72.9549 10.962C73.3376 10.654 73.7949 10.4207 74.3269 10.262C74.8683 10.094 75.4329 10.01 76.0209 10.01C77.0383 10.01 77.8223 10.2573 78.3729 10.752C78.9236 11.2467 79.1989 12.0027 79.1989 13.02V17.5H77.9249ZM75.4889 17.584C74.9383 17.584 74.4529 17.4907 74.0329 17.304C73.6223 17.1173 73.3049 16.8607 73.0809 16.534C72.8569 16.198 72.7449 15.82 72.7449 15.4C72.7449 14.9987 72.8383 14.6347 73.0249 14.308C73.2209 13.9813 73.5336 13.72 73.9629 13.524C74.4016 13.328 74.9896 13.23 75.7269 13.23H78.0789V14.196H75.7829C75.1109 14.196 74.6583 14.308 74.4249 14.532C74.1916 14.756 74.0749 15.0267 74.0749 15.344C74.0749 15.708 74.2196 16.002 74.5089 16.226C74.7983 16.4407 75.1996 16.548 75.7129 16.548C76.2169 16.548 76.6556 16.436 77.0289 16.212C77.4116 15.988 77.6869 15.6613 77.8549 15.232L78.1209 16.156C77.9436 16.5947 77.6309 16.9447 77.1829 17.206C76.7349 17.458 76.1703 17.584 75.4889 17.584ZM81.8714 20.3C81.5167 20.3 81.1714 20.2393 80.8354 20.118C80.4994 20.006 80.2101 19.838 79.9674 19.614L80.5414 18.606C80.7281 18.7833 80.9334 18.9187 81.1574 19.012C81.3814 19.1053 81.6194 19.152 81.8714 19.152C82.1981 19.152 82.4687 19.068 82.6834 18.9C82.8981 18.732 83.0987 18.4333 83.2854 18.004L83.7474 16.982L83.8874 16.814L86.7994 10.08H88.1154L84.5174 18.242C84.3027 18.7647 84.0601 19.1753 83.7894 19.474C83.5281 19.7727 83.2387 19.9827 82.9214 20.104C82.6041 20.2347 82.2541 20.3 81.8714 20.3ZM83.6354 17.738L80.2474 10.08H81.6474L84.5314 16.688L83.6354 17.738Z" fill="#112211"/>
</svg>
