<svg width="600" height="98" viewBox="0 0 600 98" fill="none" xmlns="http://www.w3.org/2000/svg">
<g opacity="0.3">
<path d="M18.75 3H5.25C4.00736 3 3 4.00736 3 5.25V18.75C3 19.9926 4.00736 21 5.25 21H18.75C19.9926 21 21 19.9926 21 18.75V5.25C21 4.00736 19.9926 3 18.75 3Z" stroke="#112211" stroke-width="2" stroke-linejoin="round"/>
</g>
<path d="M36.128 4.8V6.544H38.496V16H40.576V4.8H36.128ZM45.6298 14.24L48.6218 11.392C50.1737 9.936 50.4778 8.944 50.4778 7.856C50.4778 5.872 48.9098 4.64 46.4778 4.64C44.6378 4.64 43.0858 5.328 42.2218 6.496L43.6778 7.616C44.3018 6.816 45.2138 6.448 46.3018 6.448C47.6778 6.448 48.3818 7.04 48.3818 8.064C48.3818 8.688 48.1898 9.344 47.1018 10.384L42.6538 14.608V16H50.9097V14.24H45.6298ZM53.3583 10.016C54.0783 10.016 54.6703 9.456 54.6703 8.688C54.6703 7.888 54.0783 7.36 53.3583 7.36C52.6383 7.36 52.0463 7.888 52.0463 8.688C52.0463 9.456 52.6383 10.016 53.3583 10.016ZM53.3583 16.112C54.0783 16.112 54.6703 15.552 54.6703 14.784C54.6703 13.984 54.0783 13.456 53.3583 13.456C52.6383 13.456 52.0463 13.984 52.0463 14.784C52.0463 15.552 52.6383 16.112 53.3583 16.112ZM60.6885 16.16C63.3605 16.16 65.3765 14.08 65.3765 10.4C65.3765 6.72 63.3605 4.64 60.6885 4.64C58.0325 4.64 56.0165 6.72 56.0165 10.4C56.0165 14.08 58.0325 16.16 60.6885 16.16ZM60.6885 14.352C59.1685 14.352 58.1125 13.104 58.1125 10.4C58.1125 7.696 59.1685 6.448 60.6885 6.448C62.2245 6.448 63.2805 7.696 63.2805 10.4C63.2805 13.104 62.2245 14.352 60.6885 14.352ZM71.4541 16.16C74.1261 16.16 76.1421 14.08 76.1421 10.4C76.1421 6.72 74.1261 4.64 71.4541 4.64C68.7981 4.64 66.7821 6.72 66.7821 10.4C66.7821 14.08 68.7981 16.16 71.4541 16.16ZM71.4541 14.352C69.9341 14.352 68.8781 13.104 68.8781 10.4C68.8781 7.696 69.9341 6.448 71.4541 6.448C72.9901 6.448 74.0461 7.696 74.0461 10.4C74.0461 13.104 72.9901 14.352 71.4541 14.352ZM87.3136 7.36C86.1456 7.36 85.1536 7.76 84.4816 8.576V7.456H82.5776V19.104H84.5776V14.96C85.2656 15.744 86.2256 16.112 87.3136 16.112C89.8096 16.112 91.6496 14.384 91.6496 11.728C91.6496 9.088 89.8096 7.36 87.3136 7.36ZM87.0896 14.4C85.6496 14.4 84.5456 13.36 84.5456 11.728C84.5456 10.096 85.6496 9.056 87.0896 9.056C88.5296 9.056 89.6176 10.096 89.6176 11.728C89.6176 13.36 88.5296 14.4 87.0896 14.4ZM104.33 7.36C102.97 7.36 101.818 7.904 101.13 8.784C100.538 7.824 99.4984 7.36 98.2504 7.36C97.0824 7.36 96.0904 7.776 95.4504 8.544V7.456H93.5464V16H95.5464V11.664C95.5464 9.968 96.4424 9.104 97.7704 9.104C98.9864 9.104 99.6904 9.84 99.6904 11.36V16H101.69V11.664C101.69 9.968 102.602 9.104 103.914 9.104C105.13 9.104 105.834 9.84 105.834 11.36V16H107.834V11.104C107.834 8.528 106.394 7.36 104.33 7.36Z" fill="#112211"/>
<path d="M118.88 12.384H123.28V10.72H118.88V12.384Z" fill="#112211"/>
<path d="M138.376 16.16C141.048 16.16 143.064 14.08 143.064 10.4C143.064 6.72 141.048 4.64 138.376 4.64C135.72 4.64 133.704 6.72 133.704 10.4C133.704 14.08 135.72 16.16 138.376 16.16ZM138.376 14.352C136.856 14.352 135.8 13.104 135.8 10.4C135.8 7.696 136.856 6.448 138.376 6.448C139.912 6.448 140.968 7.696 140.968 10.4C140.968 13.104 139.912 14.352 138.376 14.352ZM143.816 4.8V6.544H146.184V16H148.264V4.8H143.816ZM151.733 10.016C152.453 10.016 153.045 9.456 153.045 8.688C153.045 7.888 152.453 7.36 151.733 7.36C151.013 7.36 150.421 7.888 150.421 8.688C150.421 9.456 151.013 10.016 151.733 10.016ZM151.733 16.112C152.453 16.112 153.045 15.552 153.045 14.784C153.045 13.984 152.453 13.456 151.733 13.456C151.013 13.456 150.421 13.984 150.421 14.784C150.421 15.552 151.013 16.112 151.733 16.112ZM157.224 14.24L160.216 11.392C161.767 9.936 162.072 8.944 162.072 7.856C162.072 5.872 160.504 4.64 158.072 4.64C156.232 4.64 154.68 5.328 153.816 6.496L155.272 7.616C155.896 6.816 156.808 6.448 157.896 6.448C159.272 6.448 159.976 7.04 159.976 8.064C159.976 8.688 159.784 9.344 158.696 10.384L154.248 14.608V16H162.503V14.24H157.224ZM170.968 10.112C171.88 9.616 172.392 8.816 172.392 7.76C172.392 5.84 170.696 4.64 168.2 4.64C165.72 4.64 164.04 5.84 164.04 7.76C164.04 8.816 164.536 9.616 165.432 10.112C164.28 10.64 163.64 11.552 163.64 12.784C163.64 14.864 165.416 16.16 168.2 16.16C170.984 16.16 172.792 14.864 172.792 12.784C172.792 11.552 172.136 10.64 170.968 10.112ZM168.2 6.272C169.48 6.272 170.344 6.848 170.344 7.856C170.344 8.816 169.528 9.424 168.2 9.424C166.888 9.424 166.088 8.816 166.088 7.856C166.088 6.848 166.92 6.272 168.2 6.272ZM168.2 14.528C166.664 14.528 165.736 13.856 165.736 12.72C165.736 11.616 166.664 10.928 168.2 10.928C169.736 10.928 170.696 11.616 170.696 12.72C170.696 13.856 169.736 14.528 168.2 14.528ZM183.907 7.36C182.739 7.36 181.747 7.76 181.075 8.576V7.456H179.171V19.104H181.171V14.96C181.859 15.744 182.819 16.112 183.907 16.112C186.403 16.112 188.243 14.384 188.243 11.728C188.243 9.088 186.403 7.36 183.907 7.36ZM183.683 14.4C182.243 14.4 181.139 13.36 181.139 11.728C181.139 10.096 182.243 9.056 183.683 9.056C185.123 9.056 186.211 10.096 186.211 11.728C186.211 13.36 185.123 14.4 183.683 14.4ZM200.924 7.36C199.564 7.36 198.412 7.904 197.724 8.784C197.132 7.824 196.092 7.36 194.844 7.36C193.676 7.36 192.684 7.776 192.044 8.544V7.456H190.14V16H192.14V11.664C192.14 9.968 193.036 9.104 194.364 9.104C195.58 9.104 196.284 9.84 196.284 11.36V16H198.284V11.664C198.284 9.968 199.196 9.104 200.508 9.104C201.724 9.104 202.428 9.84 202.428 11.36V16H204.428V11.104C204.428 8.528 202.988 7.36 200.924 7.36Z" fill="#112211"/>
<path opacity="0.4" d="M38.632 33.464V37.104H44.526V38H37.596V28.2H44.316V29.096H38.632V32.582H43.7V33.464H38.632ZM55.9352 30.58C56.8592 30.58 57.5826 30.846 58.1052 31.378C58.6372 31.91 58.9032 32.694 58.9032 33.73V38H57.9092V33.828C57.9092 33.0627 57.7226 32.4793 57.3492 32.078C56.9852 31.6767 56.4672 31.476 55.7952 31.476C55.0299 31.476 54.4279 31.714 53.9892 32.19C53.5506 32.6567 53.3312 33.3053 53.3312 34.136V38H52.3372V33.828C52.3372 33.0627 52.1506 32.4793 51.7772 32.078C51.4132 31.6767 50.8906 31.476 50.2092 31.476C49.4532 31.476 48.8512 31.714 48.4032 32.19C47.9646 32.6567 47.7452 33.3053 47.7452 34.136V38H46.7512V30.636H47.7032V31.98C47.9646 31.532 48.3286 31.1867 48.7952 30.944C49.2619 30.7013 49.7986 30.58 50.4052 30.58C51.0212 30.58 51.5532 30.7107 52.0012 30.972C52.4586 31.2333 52.7992 31.6207 53.0232 32.134C53.2939 31.6487 53.6812 31.2707 54.1852 31C54.6986 30.72 55.2819 30.58 55.9352 30.58ZM62.5929 38H61.5989V30.636H62.5929V38ZM62.1029 29.026C61.8976 29.026 61.7249 28.956 61.5849 28.816C61.4449 28.676 61.3749 28.508 61.3749 28.312C61.3749 28.1253 61.4449 27.962 61.5849 27.822C61.7249 27.682 61.8976 27.612 62.1029 27.612C62.3082 27.612 62.4809 27.682 62.6209 27.822C62.7609 27.9527 62.8309 28.1113 62.8309 28.298C62.8309 28.5033 62.7609 28.676 62.6209 28.816C62.4809 28.956 62.3082 29.026 62.1029 29.026ZM66.3107 32.078C66.544 31.5833 66.8893 31.21 67.3467 30.958C67.8133 30.706 68.3873 30.58 69.0687 30.58V31.546L68.8307 31.532C68.056 31.532 67.4493 31.77 67.0107 32.246C66.572 32.722 66.3527 33.3893 66.3527 34.248V38H65.3587V30.636H66.3107V32.078ZM72.8975 30.58C73.8589 30.58 74.5962 30.8227 75.1095 31.308C75.6229 31.784 75.8795 32.4933 75.8795 33.436V38H74.9275V36.852C74.7035 37.2347 74.3722 37.5333 73.9335 37.748C73.5042 37.9627 72.9909 38.07 72.3935 38.07C71.5722 38.07 70.9189 37.874 70.4335 37.482C69.9482 37.09 69.7055 36.572 69.7055 35.928C69.7055 35.3027 69.9295 34.7987 70.3775 34.416C70.8349 34.0333 71.5582 33.842 72.5475 33.842H74.8855V33.394C74.8855 32.7593 74.7082 32.2787 74.3535 31.952C73.9989 31.616 73.4809 31.448 72.7995 31.448C72.3329 31.448 71.8849 31.5273 71.4555 31.686C71.0262 31.8353 70.6575 32.0453 70.3495 32.316L69.9015 31.574C70.2749 31.2567 70.7229 31.014 71.2455 30.846C71.7682 30.6687 72.3189 30.58 72.8975 30.58ZM72.5475 37.286C73.1075 37.286 73.5882 37.16 73.9895 36.908C74.3909 36.6467 74.6895 36.2733 74.8855 35.788V34.584H72.5755C71.3155 34.584 70.6855 35.0227 70.6855 35.9C70.6855 36.3293 70.8489 36.67 71.1755 36.922C71.5022 37.1647 71.9595 37.286 72.5475 37.286ZM82.4574 37.552C82.2707 37.72 82.0374 37.8507 81.7574 37.944C81.4867 38.028 81.202 38.07 80.9034 38.07C80.2127 38.07 79.6807 37.8833 79.3074 37.51C78.934 37.1367 78.7474 36.6093 78.7474 35.928V31.476H77.4314V30.636H78.7474V29.026H79.7414V30.636H81.9814V31.476H79.7414V35.872C79.7414 36.3107 79.8487 36.6467 80.0634 36.88C80.2874 37.104 80.6047 37.216 81.0154 37.216C81.2207 37.216 81.4167 37.1833 81.6034 37.118C81.7994 37.0527 81.9674 36.9593 82.1074 36.838L82.4574 37.552ZM90.4191 34.626H84.2591C84.3151 35.3913 84.6091 36.012 85.1411 36.488C85.6731 36.9547 86.3451 37.188 87.1571 37.188C87.6144 37.188 88.0344 37.1087 88.4171 36.95C88.7998 36.782 89.1311 36.5393 89.4111 36.222L89.9711 36.866C89.6444 37.258 89.2338 37.5567 88.7391 37.762C88.2538 37.9673 87.7171 38.07 87.1291 38.07C86.3731 38.07 85.7011 37.9113 85.1131 37.594C84.5344 37.2673 84.0818 36.8193 83.7551 36.25C83.4284 35.6807 83.2651 35.0367 83.2651 34.318C83.2651 33.5993 83.4191 32.9553 83.7271 32.386C84.0444 31.8167 84.4738 31.3733 85.0151 31.056C85.5658 30.7387 86.1818 30.58 86.8631 30.58C87.5444 30.58 88.1558 30.7387 88.6971 31.056C89.2384 31.3733 89.6631 31.8167 89.9711 32.386C90.2791 32.946 90.4331 33.59 90.4331 34.318L90.4191 34.626ZM86.8631 31.434C86.1538 31.434 85.5564 31.6627 85.0711 32.12C84.5951 32.568 84.3244 33.156 84.2591 33.884H89.4811C89.4158 33.156 89.1404 32.568 88.6551 32.12C88.1791 31.6627 87.5818 31.434 86.8631 31.434ZM94.4303 38.07C93.833 38.07 93.259 37.986 92.7083 37.818C92.167 37.6407 91.7423 37.4213 91.4343 37.16L91.8823 36.376C92.1903 36.6187 92.5776 36.8193 93.0443 36.978C93.511 37.1273 93.9963 37.202 94.5003 37.202C95.1723 37.202 95.667 37.0993 95.9843 36.894C96.311 36.6793 96.4743 36.3807 96.4743 35.998C96.4743 35.7273 96.3856 35.5173 96.2083 35.368C96.031 35.2093 95.807 35.0927 95.5363 35.018C95.2656 34.934 94.9063 34.8547 94.4583 34.78C93.861 34.668 93.3803 34.556 93.0163 34.444C92.6523 34.3227 92.3396 34.122 92.0783 33.842C91.8263 33.562 91.7003 33.1747 91.7003 32.68C91.7003 32.064 91.957 31.56 92.4703 31.168C92.9836 30.776 93.6976 30.58 94.6123 30.58C95.0883 30.58 95.5643 30.6453 96.0403 30.776C96.5163 30.8973 96.9083 31.0607 97.2163 31.266L96.7823 32.064C96.1756 31.644 95.4523 31.434 94.6123 31.434C93.9776 31.434 93.497 31.546 93.1703 31.77C92.853 31.994 92.6943 32.288 92.6943 32.652C92.6943 32.932 92.783 33.156 92.9603 33.324C93.147 33.492 93.3756 33.618 93.6463 33.702C93.917 33.7767 94.2903 33.856 94.7663 33.94C95.3543 34.052 95.8256 34.164 96.1803 34.276C96.535 34.388 96.8383 34.5793 97.0903 34.85C97.3423 35.1207 97.4683 35.494 97.4683 35.97C97.4683 36.614 97.1976 37.1273 96.6563 37.51C96.1243 37.8833 95.3823 38.07 94.4303 38.07Z" fill="#112211"/>
<path opacity="0.78" d="M251.39 6.44C250.298 6.44 249.388 6.804 248.814 7.49V6.524H247.148V14H248.898V10.22C248.898 8.722 249.738 7.966 250.984 7.966C252.104 7.966 252.762 8.61 252.762 9.94V14H254.512V9.716C254.512 7.462 253.182 6.44 251.39 6.44ZM260.16 14.098C262.484 14.098 264.15 12.502 264.15 10.262C264.15 8.022 262.484 6.44 260.16 6.44C257.864 6.44 256.184 8.022 256.184 10.262C256.184 12.502 257.864 14.098 260.16 14.098ZM260.16 12.6C258.9 12.6 257.948 11.69 257.948 10.262C257.948 8.834 258.9 7.924 260.16 7.924C261.434 7.924 262.386 8.834 262.386 10.262C262.386 11.69 261.434 12.6 260.16 12.6ZM270.066 6.44C268.974 6.44 268.064 6.804 267.49 7.49V6.524H265.824V14H267.574V10.22C267.574 8.722 268.414 7.966 269.66 7.966C270.78 7.966 271.438 8.61 271.438 9.94V14H273.188V9.716C273.188 7.462 271.858 6.44 270.066 6.44ZM281.587 14.098C283.687 14.098 284.975 13.188 284.975 11.788C284.975 8.862 280.355 10.206 280.355 8.694C280.355 8.204 280.859 7.854 281.923 7.854C282.637 7.854 283.351 7.994 284.065 8.414L284.737 7.084C284.065 6.678 282.931 6.44 281.937 6.44C279.921 6.44 278.647 7.364 278.647 8.778C278.647 11.76 283.267 10.416 283.267 11.844C283.267 12.362 282.805 12.67 281.699 12.67C280.761 12.67 279.753 12.362 279.095 11.928L278.423 13.258C279.095 13.734 280.341 14.098 281.587 14.098ZM290.486 12.348C290.22 12.558 289.87 12.656 289.506 12.656C288.834 12.656 288.47 12.264 288.47 11.536V7.98H290.472V6.58H288.47V4.872H286.72V6.58H285.488V7.98H286.72V11.578C286.72 13.23 287.658 14.098 289.296 14.098C289.926 14.098 290.556 13.93 290.976 13.594L290.486 12.348ZM295.529 14.098C297.853 14.098 299.519 12.502 299.519 10.262C299.519 8.022 297.853 6.44 295.529 6.44C293.233 6.44 291.553 8.022 291.553 10.262C291.553 12.502 293.233 14.098 295.529 14.098ZM295.529 12.6C294.269 12.6 293.317 11.69 293.317 10.262C293.317 8.834 294.269 7.924 295.529 7.924C296.803 7.924 297.755 8.834 297.755 10.262C297.755 11.69 296.803 12.6 295.529 12.6ZM305.337 6.44C304.315 6.44 303.447 6.79 302.859 7.504V6.524H301.193V16.716H302.943V13.09C303.545 13.776 304.385 14.098 305.337 14.098C307.521 14.098 309.131 12.586 309.131 10.262C309.131 7.952 307.521 6.44 305.337 6.44ZM305.141 12.6C303.881 12.6 302.915 11.69 302.915 10.262C302.915 8.834 303.881 7.924 305.141 7.924C306.401 7.924 307.353 8.834 307.353 10.262C307.353 11.69 306.401 12.6 305.141 12.6Z" fill="#112211"/>
<path opacity="0.78" d="M350.56 16V14.608L355.008 10.384C355.381 10.032 355.659 9.72267 355.84 9.456C356.021 9.18933 356.139 8.944 356.192 8.72C356.256 8.48533 356.288 8.26667 356.288 8.064C356.288 7.552 356.112 7.15733 355.76 6.88C355.408 6.592 354.891 6.448 354.208 6.448C353.664 6.448 353.168 6.544 352.72 6.736C352.283 6.928 351.904 7.22133 351.584 7.616L350.128 6.496C350.565 5.90933 351.152 5.456 351.888 5.136C352.635 4.80533 353.467 4.64 354.384 4.64C355.195 4.64 355.899 4.77333 356.496 5.04C357.104 5.296 357.568 5.664 357.888 6.144C358.219 6.624 358.384 7.19467 358.384 7.856C358.384 8.21867 358.336 8.58133 358.24 8.944C358.144 9.296 357.963 9.66933 357.696 10.064C357.429 10.4587 357.04 10.9013 356.528 11.392L352.704 15.024L352.272 14.24H358.816V16H350.56ZM365.473 7.36C366.155 7.36 366.763 7.49333 367.297 7.76C367.841 8.02667 368.267 8.43733 368.577 8.992C368.886 9.536 369.041 10.24 369.041 11.104V16H367.041V11.36C367.041 10.6027 366.859 10.0373 366.497 9.664C366.145 9.29067 365.649 9.104 365.009 9.104C364.539 9.104 364.123 9.2 363.761 9.392C363.398 9.584 363.115 9.872 362.913 10.256C362.721 10.6293 362.625 11.104 362.625 11.68V16H360.625V4.128H362.625V9.76L362.193 9.056C362.491 8.512 362.923 8.096 363.489 7.808C364.065 7.50933 364.726 7.36 365.473 7.36ZM375.248 16V14.608L379.696 10.384C380.069 10.032 380.346 9.72267 380.528 9.456C380.709 9.18933 380.826 8.944 380.88 8.72C380.944 8.48533 380.976 8.26667 380.976 8.064C380.976 7.552 380.8 7.15733 380.448 6.88C380.096 6.592 379.578 6.448 378.896 6.448C378.352 6.448 377.856 6.544 377.408 6.736C376.97 6.928 376.592 7.22133 376.272 7.616L374.816 6.496C375.253 5.90933 375.84 5.456 376.576 5.136C377.322 4.80533 378.154 4.64 379.072 4.64C379.882 4.64 380.586 4.77333 381.184 5.04C381.792 5.296 382.256 5.664 382.576 6.144C382.906 6.624 383.072 7.19467 383.072 7.856C383.072 8.21867 383.024 8.58133 382.928 8.944C382.832 9.296 382.65 9.66933 382.384 10.064C382.117 10.4587 381.728 10.9013 381.216 11.392L377.392 15.024L376.96 14.24H383.503V16H375.248ZM389.2 16.16C388.272 16.16 387.467 16.0213 386.784 15.744C386.101 15.4667 385.573 15.0773 385.2 14.576C384.827 14.064 384.64 13.4667 384.64 12.784C384.64 12.1013 384.821 11.5253 385.184 11.056C385.547 10.5867 386.069 10.2293 386.752 9.984C387.435 9.73867 388.251 9.616 389.2 9.616C390.149 9.616 390.965 9.73867 391.648 9.984C392.341 10.2293 392.869 10.592 393.232 11.072C393.605 11.5413 393.792 12.112 393.792 12.784C393.792 13.4667 393.6 14.064 393.216 14.576C392.843 15.0773 392.309 15.4667 391.616 15.744C390.933 16.0213 390.128 16.16 389.2 16.16ZM389.2 14.528C389.968 14.528 390.576 14.368 391.024 14.048C391.472 13.728 391.696 13.2853 391.696 12.72C391.696 12.1653 391.472 11.728 391.024 11.408C390.576 11.088 389.968 10.928 389.2 10.928C388.432 10.928 387.829 11.088 387.392 11.408C386.955 11.728 386.736 12.1653 386.736 12.72C386.736 13.2853 386.955 13.728 387.392 14.048C387.829 14.368 388.432 14.528 389.2 14.528ZM389.2 10.704C388.336 10.704 387.595 10.592 386.976 10.368C386.357 10.1333 385.877 9.79733 385.536 9.36C385.205 8.912 385.04 8.37867 385.04 7.76C385.04 7.12 385.211 6.57067 385.552 6.112C385.904 5.64267 386.395 5.28 387.024 5.024C387.653 4.768 388.379 4.64 389.2 4.64C390.032 4.64 390.763 4.768 391.392 5.024C392.021 5.28 392.512 5.64267 392.864 6.112C393.216 6.57067 393.392 7.12 393.392 7.76C393.392 8.37867 393.221 8.912 392.88 9.36C392.549 9.79733 392.069 10.1333 391.44 10.368C390.811 10.592 390.064 10.704 389.2 10.704ZM389.2 9.424C389.861 9.424 390.384 9.28533 390.768 9.008C391.152 8.72 391.344 8.336 391.344 7.856C391.344 7.35467 391.147 6.96533 390.752 6.688C390.357 6.41067 389.84 6.272 389.2 6.272C388.56 6.272 388.048 6.41067 387.664 6.688C387.28 6.96533 387.088 7.35467 387.088 7.856C387.088 8.336 387.275 8.72 387.648 9.008C388.032 9.28533 388.549 9.424 389.2 9.424ZM406.534 7.36C407.216 7.36 407.819 7.49333 408.342 7.76C408.875 8.02667 409.291 8.43733 409.59 8.992C409.888 9.536 410.038 10.24 410.038 11.104V16H408.038V11.36C408.038 10.6027 407.872 10.0373 407.542 9.664C407.211 9.29067 406.736 9.104 406.118 9.104C405.68 9.104 405.291 9.2 404.95 9.392C404.619 9.584 404.358 9.86667 404.166 10.24C403.984 10.6133 403.894 11.088 403.894 11.664V16H401.894V11.36C401.894 10.6027 401.728 10.0373 401.398 9.664C401.067 9.29067 400.592 9.104 399.974 9.104C399.536 9.104 399.147 9.2 398.806 9.392C398.475 9.584 398.214 9.86667 398.022 10.24C397.84 10.6133 397.75 11.088 397.75 11.664V16H395.75V7.456H397.654V9.728L397.318 9.056C397.606 8.50133 398.022 8.08 398.566 7.792C399.12 7.504 399.75 7.36 400.454 7.36C401.254 7.36 401.947 7.55733 402.534 7.952C403.131 8.34667 403.526 8.944 403.718 9.744L402.934 9.472C403.211 8.832 403.67 8.32 404.31 7.936C404.95 7.552 405.691 7.36 406.534 7.36Z" fill="#112211"/>
<path opacity="0.4" d="M352.52 32.582H357.7V33.464H352.52V32.582ZM352.632 37.104H358.526V38H351.596V28.2H358.316V29.096H352.632V37.104ZM363.051 38L359.747 28.2H360.811L363.905 37.426H363.373L366.565 28.2H367.517L370.667 37.426H370.163L373.285 28.2H374.279L370.975 38H369.883L366.873 29.25H367.153L364.129 38H363.051ZM376.178 38V28.2H379.846C380.677 28.2 381.391 28.3353 381.988 28.606C382.585 28.8673 383.043 29.25 383.36 29.754C383.687 30.2487 383.85 30.8507 383.85 31.56C383.85 32.2507 383.687 32.848 383.36 33.352C383.043 33.8467 382.585 34.2293 381.988 34.5C381.391 34.7613 380.677 34.892 379.846 34.892H376.752L377.214 34.416V38H376.178ZM382.87 38L380.35 34.444H381.47L384.004 38H382.87ZM377.214 34.5L376.752 34.01H379.818C380.798 34.01 381.54 33.7953 382.044 33.366C382.557 32.9367 382.814 32.3347 382.814 31.56C382.814 30.776 382.557 30.1693 382.044 29.74C381.54 29.3107 380.798 29.096 379.818 29.096H376.752L377.214 28.606V34.5ZM385.539 34.64V33.772H389.207V34.64H385.539ZM391.641 38V28.2H395.869C396.961 28.2 397.806 28.4193 398.403 28.858C399.01 29.2967 399.313 29.9173 399.313 30.72C399.313 31.252 399.187 31.7 398.935 32.064C398.692 32.428 398.356 32.7033 397.927 32.89C397.507 33.0767 397.045 33.17 396.541 33.17L396.779 32.834C397.404 32.834 397.941 32.932 398.389 33.128C398.846 33.3147 399.201 33.5993 399.453 33.982C399.705 34.3553 399.831 34.822 399.831 35.382C399.831 36.2127 399.523 36.8567 398.907 37.314C398.3 37.7713 397.381 38 396.149 38H391.641ZM392.677 37.146H396.135C396.994 37.146 397.652 37.0013 398.109 36.712C398.566 36.4133 398.795 35.942 398.795 35.298C398.795 34.6633 398.566 34.2013 398.109 33.912C397.652 33.6133 396.994 33.464 396.135 33.464H392.565V32.61H395.799C396.583 32.61 397.19 32.4607 397.619 32.162C398.058 31.8633 398.277 31.42 398.277 30.832C398.277 30.2347 398.058 29.7913 397.619 29.502C397.19 29.2033 396.583 29.054 395.799 29.054H392.677V37.146ZM402.196 38V28.2H403.05L409.812 36.712H409.364V28.2H410.386V38H409.532L402.784 29.488H403.232V38H402.196ZM412.016 38L416.496 28.2H417.518L421.998 38H420.906L416.79 28.802H417.21L413.094 38H412.016ZM413.78 35.382L414.088 34.542H419.786L420.094 35.382H413.78Z" fill="#112211"/>
<g opacity="0.3">
<path d="M18.75 60H5.25C4.00736 60 3 61.0074 3 62.25V75.75C3 76.9926 4.00736 78 5.25 78H18.75C19.9926 78 21 76.9926 21 75.75V62.25C21 61.0074 19.9926 60 18.75 60Z" stroke="#112211" stroke-width="2" stroke-linejoin="round"/>
</g>
<path d="M36.128 61.8V63.544H38.496V73H40.576V61.8H36.128ZM45.6298 71.24L48.6218 68.392C50.1737 66.936 50.4778 65.944 50.4778 64.856C50.4778 62.872 48.9098 61.64 46.4778 61.64C44.6378 61.64 43.0858 62.328 42.2218 63.496L43.6778 64.616C44.3018 63.816 45.2138 63.448 46.3018 63.448C47.6778 63.448 48.3818 64.04 48.3818 65.064C48.3818 65.688 48.1898 66.344 47.1018 67.384L42.6538 71.608V73H50.9097V71.24H45.6298ZM53.3583 67.016C54.0783 67.016 54.6703 66.456 54.6703 65.688C54.6703 64.888 54.0783 64.36 53.3583 64.36C52.6383 64.36 52.0463 64.888 52.0463 65.688C52.0463 66.456 52.6383 67.016 53.3583 67.016ZM53.3583 73.112C54.0783 73.112 54.6703 72.552 54.6703 71.784C54.6703 70.984 54.0783 70.456 53.3583 70.456C52.6383 70.456 52.0463 70.984 52.0463 71.784C52.0463 72.552 52.6383 73.112 53.3583 73.112ZM60.6885 73.16C63.3605 73.16 65.3765 71.08 65.3765 67.4C65.3765 63.72 63.3605 61.64 60.6885 61.64C58.0325 61.64 56.0165 63.72 56.0165 67.4C56.0165 71.08 58.0325 73.16 60.6885 73.16ZM60.6885 71.352C59.1685 71.352 58.1125 70.104 58.1125 67.4C58.1125 64.696 59.1685 63.448 60.6885 63.448C62.2245 63.448 63.2805 64.696 63.2805 67.4C63.2805 70.104 62.2245 71.352 60.6885 71.352ZM71.4541 73.16C74.1261 73.16 76.1421 71.08 76.1421 67.4C76.1421 63.72 74.1261 61.64 71.4541 61.64C68.7981 61.64 66.7821 63.72 66.7821 67.4C66.7821 71.08 68.7981 73.16 71.4541 73.16ZM71.4541 71.352C69.9341 71.352 68.8781 70.104 68.8781 67.4C68.8781 64.696 69.9341 63.448 71.4541 63.448C72.9901 63.448 74.0461 64.696 74.0461 67.4C74.0461 70.104 72.9901 71.352 71.4541 71.352ZM87.3136 64.36C86.1456 64.36 85.1536 64.76 84.4816 65.576V64.456H82.5776V76.104H84.5776V71.96C85.2656 72.744 86.2256 73.112 87.3136 73.112C89.8096 73.112 91.6496 71.384 91.6496 68.728C91.6496 66.088 89.8096 64.36 87.3136 64.36ZM87.0896 71.4C85.6496 71.4 84.5456 70.36 84.5456 68.728C84.5456 67.096 85.6496 66.056 87.0896 66.056C88.5296 66.056 89.6176 67.096 89.6176 68.728C89.6176 70.36 88.5296 71.4 87.0896 71.4ZM104.33 64.36C102.97 64.36 101.818 64.904 101.13 65.784C100.538 64.824 99.4984 64.36 98.2504 64.36C97.0824 64.36 96.0904 64.776 95.4504 65.544V64.456H93.5464V73H95.5464V68.664C95.5464 66.968 96.4424 66.104 97.7704 66.104C98.9864 66.104 99.6904 66.84 99.6904 68.36V73H101.69V68.664C101.69 66.968 102.602 66.104 103.914 66.104C105.13 66.104 105.834 66.84 105.834 68.36V73H107.834V68.104C107.834 65.528 106.394 64.36 104.33 64.36Z" fill="#112211"/>
<path d="M118.88 69.384H123.28V67.72H118.88V69.384Z" fill="#112211"/>
<path d="M138.376 73.16C141.048 73.16 143.064 71.08 143.064 67.4C143.064 63.72 141.048 61.64 138.376 61.64C135.72 61.64 133.704 63.72 133.704 67.4C133.704 71.08 135.72 73.16 138.376 73.16ZM138.376 71.352C136.856 71.352 135.8 70.104 135.8 67.4C135.8 64.696 136.856 63.448 138.376 63.448C139.912 63.448 140.968 64.696 140.968 67.4C140.968 70.104 139.912 71.352 138.376 71.352ZM143.816 61.8V63.544H146.184V73H148.264V61.8H143.816ZM151.733 67.016C152.453 67.016 153.045 66.456 153.045 65.688C153.045 64.888 152.453 64.36 151.733 64.36C151.013 64.36 150.421 64.888 150.421 65.688C150.421 66.456 151.013 67.016 151.733 67.016ZM151.733 73.112C152.453 73.112 153.045 72.552 153.045 71.784C153.045 70.984 152.453 70.456 151.733 70.456C151.013 70.456 150.421 70.984 150.421 71.784C150.421 72.552 151.013 73.112 151.733 73.112ZM157.224 71.24L160.216 68.392C161.767 66.936 162.072 65.944 162.072 64.856C162.072 62.872 160.504 61.64 158.072 61.64C156.232 61.64 154.68 62.328 153.816 63.496L155.272 64.616C155.896 63.816 156.808 63.448 157.896 63.448C159.272 63.448 159.976 64.04 159.976 65.064C159.976 65.688 159.784 66.344 158.696 67.384L154.248 71.608V73H162.503V71.24H157.224ZM170.968 67.112C171.88 66.616 172.392 65.816 172.392 64.76C172.392 62.84 170.696 61.64 168.2 61.64C165.72 61.64 164.04 62.84 164.04 64.76C164.04 65.816 164.536 66.616 165.432 67.112C164.28 67.64 163.64 68.552 163.64 69.784C163.64 71.864 165.416 73.16 168.2 73.16C170.984 73.16 172.792 71.864 172.792 69.784C172.792 68.552 172.136 67.64 170.968 67.112ZM168.2 63.272C169.48 63.272 170.344 63.848 170.344 64.856C170.344 65.816 169.528 66.424 168.2 66.424C166.888 66.424 166.088 65.816 166.088 64.856C166.088 63.848 166.92 63.272 168.2 63.272ZM168.2 71.528C166.664 71.528 165.736 70.856 165.736 69.72C165.736 68.616 166.664 67.928 168.2 67.928C169.736 67.928 170.696 68.616 170.696 69.72C170.696 70.856 169.736 71.528 168.2 71.528ZM183.907 64.36C182.739 64.36 181.747 64.76 181.075 65.576V64.456H179.171V76.104H181.171V71.96C181.859 72.744 182.819 73.112 183.907 73.112C186.403 73.112 188.243 71.384 188.243 68.728C188.243 66.088 186.403 64.36 183.907 64.36ZM183.683 71.4C182.243 71.4 181.139 70.36 181.139 68.728C181.139 67.096 182.243 66.056 183.683 66.056C185.123 66.056 186.211 67.096 186.211 68.728C186.211 70.36 185.123 71.4 183.683 71.4ZM200.924 64.36C199.564 64.36 198.412 64.904 197.724 65.784C197.132 64.824 196.092 64.36 194.844 64.36C193.676 64.36 192.684 64.776 192.044 65.544V64.456H190.14V73H192.14V68.664C192.14 66.968 193.036 66.104 194.364 66.104C195.58 66.104 196.284 66.84 196.284 68.36V73H198.284V68.664C198.284 66.968 199.196 66.104 200.508 66.104C201.724 66.104 202.428 66.84 202.428 68.36V73H204.428V68.104C204.428 65.528 202.988 64.36 200.924 64.36Z" fill="#112211"/>
<path opacity="0.4" d="M38.632 90.464V94.104H44.526V95H37.596V85.2H44.316V86.096H38.632V89.582H43.7V90.464H38.632ZM55.9352 87.58C56.8592 87.58 57.5826 87.846 58.1052 88.378C58.6372 88.91 58.9032 89.694 58.9032 90.73V95H57.9092V90.828C57.9092 90.0627 57.7226 89.4793 57.3492 89.078C56.9852 88.6767 56.4672 88.476 55.7952 88.476C55.0299 88.476 54.4279 88.714 53.9892 89.19C53.5506 89.6567 53.3312 90.3053 53.3312 91.136V95H52.3372V90.828C52.3372 90.0627 52.1506 89.4793 51.7772 89.078C51.4132 88.6767 50.8906 88.476 50.2092 88.476C49.4532 88.476 48.8512 88.714 48.4032 89.19C47.9646 89.6567 47.7452 90.3053 47.7452 91.136V95H46.7512V87.636H47.7032V88.98C47.9646 88.532 48.3286 88.1867 48.7952 87.944C49.2619 87.7013 49.7986 87.58 50.4052 87.58C51.0212 87.58 51.5532 87.7107 52.0012 87.972C52.4586 88.2333 52.7992 88.6207 53.0232 89.134C53.2939 88.6487 53.6812 88.2707 54.1852 88C54.6986 87.72 55.2819 87.58 55.9352 87.58ZM62.5929 95H61.5989V87.636H62.5929V95ZM62.1029 86.026C61.8976 86.026 61.7249 85.956 61.5849 85.816C61.4449 85.676 61.3749 85.508 61.3749 85.312C61.3749 85.1253 61.4449 84.962 61.5849 84.822C61.7249 84.682 61.8976 84.612 62.1029 84.612C62.3082 84.612 62.4809 84.682 62.6209 84.822C62.7609 84.9527 62.8309 85.1113 62.8309 85.298C62.8309 85.5033 62.7609 85.676 62.6209 85.816C62.4809 85.956 62.3082 86.026 62.1029 86.026ZM66.3107 89.078C66.544 88.5833 66.8893 88.21 67.3467 87.958C67.8133 87.706 68.3873 87.58 69.0687 87.58V88.546L68.8307 88.532C68.056 88.532 67.4493 88.77 67.0107 89.246C66.572 89.722 66.3527 90.3893 66.3527 91.248V95H65.3587V87.636H66.3107V89.078ZM72.8975 87.58C73.8589 87.58 74.5962 87.8227 75.1095 88.308C75.6229 88.784 75.8795 89.4933 75.8795 90.436V95H74.9275V93.852C74.7035 94.2347 74.3722 94.5333 73.9335 94.748C73.5042 94.9627 72.9909 95.07 72.3935 95.07C71.5722 95.07 70.9189 94.874 70.4335 94.482C69.9482 94.09 69.7055 93.572 69.7055 92.928C69.7055 92.3027 69.9295 91.7987 70.3775 91.416C70.8349 91.0333 71.5582 90.842 72.5475 90.842H74.8855V90.394C74.8855 89.7593 74.7082 89.2787 74.3535 88.952C73.9989 88.616 73.4809 88.448 72.7995 88.448C72.3329 88.448 71.8849 88.5273 71.4555 88.686C71.0262 88.8353 70.6575 89.0453 70.3495 89.316L69.9015 88.574C70.2749 88.2567 70.7229 88.014 71.2455 87.846C71.7682 87.6687 72.3189 87.58 72.8975 87.58ZM72.5475 94.286C73.1075 94.286 73.5882 94.16 73.9895 93.908C74.3909 93.6467 74.6895 93.2733 74.8855 92.788V91.584H72.5755C71.3155 91.584 70.6855 92.0227 70.6855 92.9C70.6855 93.3293 70.8489 93.67 71.1755 93.922C71.5022 94.1647 71.9595 94.286 72.5475 94.286ZM82.4574 94.552C82.2707 94.72 82.0374 94.8507 81.7574 94.944C81.4867 95.028 81.202 95.07 80.9034 95.07C80.2127 95.07 79.6807 94.8833 79.3074 94.51C78.934 94.1367 78.7474 93.6093 78.7474 92.928V88.476H77.4314V87.636H78.7474V86.026H79.7414V87.636H81.9814V88.476H79.7414V92.872C79.7414 93.3107 79.8487 93.6467 80.0634 93.88C80.2874 94.104 80.6047 94.216 81.0154 94.216C81.2207 94.216 81.4167 94.1833 81.6034 94.118C81.7994 94.0527 81.9674 93.9593 82.1074 93.838L82.4574 94.552ZM90.4191 91.626H84.2591C84.3151 92.3913 84.6091 93.012 85.1411 93.488C85.6731 93.9547 86.3451 94.188 87.1571 94.188C87.6144 94.188 88.0344 94.1087 88.4171 93.95C88.7998 93.782 89.1311 93.5393 89.4111 93.222L89.9711 93.866C89.6444 94.258 89.2338 94.5567 88.7391 94.762C88.2538 94.9673 87.7171 95.07 87.1291 95.07C86.3731 95.07 85.7011 94.9113 85.1131 94.594C84.5344 94.2673 84.0818 93.8193 83.7551 93.25C83.4284 92.6807 83.2651 92.0367 83.2651 91.318C83.2651 90.5993 83.4191 89.9553 83.7271 89.386C84.0444 88.8167 84.4738 88.3733 85.0151 88.056C85.5658 87.7387 86.1818 87.58 86.8631 87.58C87.5444 87.58 88.1558 87.7387 88.6971 88.056C89.2384 88.3733 89.6631 88.8167 89.9711 89.386C90.2791 89.946 90.4331 90.59 90.4331 91.318L90.4191 91.626ZM86.8631 88.434C86.1538 88.434 85.5564 88.6627 85.0711 89.12C84.5951 89.568 84.3244 90.156 84.2591 90.884H89.4811C89.4158 90.156 89.1404 89.568 88.6551 89.12C88.1791 88.6627 87.5818 88.434 86.8631 88.434ZM94.4303 95.07C93.833 95.07 93.259 94.986 92.7083 94.818C92.167 94.6407 91.7423 94.4213 91.4343 94.16L91.8823 93.376C92.1903 93.6187 92.5776 93.8193 93.0443 93.978C93.511 94.1273 93.9963 94.202 94.5003 94.202C95.1723 94.202 95.667 94.0993 95.9843 93.894C96.311 93.6793 96.4743 93.3807 96.4743 92.998C96.4743 92.7273 96.3856 92.5173 96.2083 92.368C96.031 92.2093 95.807 92.0927 95.5363 92.018C95.2656 91.934 94.9063 91.8547 94.4583 91.78C93.861 91.668 93.3803 91.556 93.0163 91.444C92.6523 91.3227 92.3396 91.122 92.0783 90.842C91.8263 90.562 91.7003 90.1747 91.7003 89.68C91.7003 89.064 91.957 88.56 92.4703 88.168C92.9836 87.776 93.6976 87.58 94.6123 87.58C95.0883 87.58 95.5643 87.6453 96.0403 87.776C96.5163 87.8973 96.9083 88.0607 97.2163 88.266L96.7823 89.064C96.1756 88.644 95.4523 88.434 94.6123 88.434C93.9776 88.434 93.497 88.546 93.1703 88.77C92.853 88.994 92.6943 89.288 92.6943 89.652C92.6943 89.932 92.783 90.156 92.9603 90.324C93.147 90.492 93.3756 90.618 93.6463 90.702C93.917 90.7767 94.2903 90.856 94.7663 90.94C95.3543 91.052 95.8256 91.164 96.1803 91.276C96.535 91.388 96.8383 91.5793 97.0903 91.85C97.3423 92.1207 97.4683 92.494 97.4683 92.97C97.4683 93.614 97.1976 94.1273 96.6563 94.51C96.1243 94.8833 95.3823 95.07 94.4303 95.07Z" fill="#112211"/>
<path opacity="0.78" d="M251.39 63.44C250.298 63.44 249.388 63.804 248.814 64.49V63.524H247.148V71H248.898V67.22C248.898 65.722 249.738 64.966 250.984 64.966C252.104 64.966 252.762 65.61 252.762 66.94V71H254.512V66.716C254.512 64.462 253.182 63.44 251.39 63.44ZM260.16 71.098C262.484 71.098 264.15 69.502 264.15 67.262C264.15 65.022 262.484 63.44 260.16 63.44C257.864 63.44 256.184 65.022 256.184 67.262C256.184 69.502 257.864 71.098 260.16 71.098ZM260.16 69.6C258.9 69.6 257.948 68.69 257.948 67.262C257.948 65.834 258.9 64.924 260.16 64.924C261.434 64.924 262.386 65.834 262.386 67.262C262.386 68.69 261.434 69.6 260.16 69.6ZM270.066 63.44C268.974 63.44 268.064 63.804 267.49 64.49V63.524H265.824V71H267.574V67.22C267.574 65.722 268.414 64.966 269.66 64.966C270.78 64.966 271.438 65.61 271.438 66.94V71H273.188V66.716C273.188 64.462 271.858 63.44 270.066 63.44ZM281.587 71.098C283.687 71.098 284.975 70.188 284.975 68.788C284.975 65.862 280.355 67.206 280.355 65.694C280.355 65.204 280.859 64.854 281.923 64.854C282.637 64.854 283.351 64.994 284.065 65.414L284.737 64.084C284.065 63.678 282.931 63.44 281.937 63.44C279.921 63.44 278.647 64.364 278.647 65.778C278.647 68.76 283.267 67.416 283.267 68.844C283.267 69.362 282.805 69.67 281.699 69.67C280.761 69.67 279.753 69.362 279.095 68.928L278.423 70.258C279.095 70.734 280.341 71.098 281.587 71.098ZM290.486 69.348C290.22 69.558 289.87 69.656 289.506 69.656C288.834 69.656 288.47 69.264 288.47 68.536V64.98H290.472V63.58H288.47V61.872H286.72V63.58H285.488V64.98H286.72V68.578C286.72 70.23 287.658 71.098 289.296 71.098C289.926 71.098 290.556 70.93 290.976 70.594L290.486 69.348ZM295.529 71.098C297.853 71.098 299.519 69.502 299.519 67.262C299.519 65.022 297.853 63.44 295.529 63.44C293.233 63.44 291.553 65.022 291.553 67.262C291.553 69.502 293.233 71.098 295.529 71.098ZM295.529 69.6C294.269 69.6 293.317 68.69 293.317 67.262C293.317 65.834 294.269 64.924 295.529 64.924C296.803 64.924 297.755 65.834 297.755 67.262C297.755 68.69 296.803 69.6 295.529 69.6ZM305.337 63.44C304.315 63.44 303.447 63.79 302.859 64.504V63.524H301.193V73.716H302.943V70.09C303.545 70.776 304.385 71.098 305.337 71.098C307.521 71.098 309.131 69.586 309.131 67.262C309.131 64.952 307.521 63.44 305.337 63.44ZM305.141 69.6C303.881 69.6 302.915 68.69 302.915 67.262C302.915 65.834 303.881 64.924 305.141 64.924C306.401 64.924 307.353 65.834 307.353 67.262C307.353 68.69 306.401 69.6 305.141 69.6Z" fill="#112211"/>
<path opacity="0.78" d="M350.56 73V71.608L355.008 67.384C355.381 67.032 355.659 66.7227 355.84 66.456C356.021 66.1893 356.139 65.944 356.192 65.72C356.256 65.4853 356.288 65.2667 356.288 65.064C356.288 64.552 356.112 64.1573 355.76 63.88C355.408 63.592 354.891 63.448 354.208 63.448C353.664 63.448 353.168 63.544 352.72 63.736C352.283 63.928 351.904 64.2213 351.584 64.616L350.128 63.496C350.565 62.9093 351.152 62.456 351.888 62.136C352.635 61.8053 353.467 61.64 354.384 61.64C355.195 61.64 355.899 61.7733 356.496 62.04C357.104 62.296 357.568 62.664 357.888 63.144C358.219 63.624 358.384 64.1947 358.384 64.856C358.384 65.2187 358.336 65.5813 358.24 65.944C358.144 66.296 357.963 66.6693 357.696 67.064C357.429 67.4587 357.04 67.9013 356.528 68.392L352.704 72.024L352.272 71.24H358.816V73H350.56ZM365.473 64.36C366.155 64.36 366.763 64.4933 367.297 64.76C367.841 65.0267 368.267 65.4373 368.577 65.992C368.886 66.536 369.041 67.24 369.041 68.104V73H367.041V68.36C367.041 67.6027 366.859 67.0373 366.497 66.664C366.145 66.2907 365.649 66.104 365.009 66.104C364.539 66.104 364.123 66.2 363.761 66.392C363.398 66.584 363.115 66.872 362.913 67.256C362.721 67.6293 362.625 68.104 362.625 68.68V73H360.625V61.128H362.625V66.76L362.193 66.056C362.491 65.512 362.923 65.096 363.489 64.808C364.065 64.5093 364.726 64.36 365.473 64.36ZM375.248 73V71.608L379.696 67.384C380.069 67.032 380.346 66.7227 380.528 66.456C380.709 66.1893 380.826 65.944 380.88 65.72C380.944 65.4853 380.976 65.2667 380.976 65.064C380.976 64.552 380.8 64.1573 380.448 63.88C380.096 63.592 379.578 63.448 378.896 63.448C378.352 63.448 377.856 63.544 377.408 63.736C376.97 63.928 376.592 64.2213 376.272 64.616L374.816 63.496C375.253 62.9093 375.84 62.456 376.576 62.136C377.322 61.8053 378.154 61.64 379.072 61.64C379.882 61.64 380.586 61.7733 381.184 62.04C381.792 62.296 382.256 62.664 382.576 63.144C382.906 63.624 383.072 64.1947 383.072 64.856C383.072 65.2187 383.024 65.5813 382.928 65.944C382.832 66.296 382.65 66.6693 382.384 67.064C382.117 67.4587 381.728 67.9013 381.216 68.392L377.392 72.024L376.96 71.24H383.503V73H375.248ZM389.2 73.16C388.272 73.16 387.467 73.0213 386.784 72.744C386.101 72.4667 385.573 72.0773 385.2 71.576C384.827 71.064 384.64 70.4667 384.64 69.784C384.64 69.1013 384.821 68.5253 385.184 68.056C385.547 67.5867 386.069 67.2293 386.752 66.984C387.435 66.7387 388.251 66.616 389.2 66.616C390.149 66.616 390.965 66.7387 391.648 66.984C392.341 67.2293 392.869 67.592 393.232 68.072C393.605 68.5413 393.792 69.112 393.792 69.784C393.792 70.4667 393.6 71.064 393.216 71.576C392.843 72.0773 392.309 72.4667 391.616 72.744C390.933 73.0213 390.128 73.16 389.2 73.16ZM389.2 71.528C389.968 71.528 390.576 71.368 391.024 71.048C391.472 70.728 391.696 70.2853 391.696 69.72C391.696 69.1653 391.472 68.728 391.024 68.408C390.576 68.088 389.968 67.928 389.2 67.928C388.432 67.928 387.829 68.088 387.392 68.408C386.955 68.728 386.736 69.1653 386.736 69.72C386.736 70.2853 386.955 70.728 387.392 71.048C387.829 71.368 388.432 71.528 389.2 71.528ZM389.2 67.704C388.336 67.704 387.595 67.592 386.976 67.368C386.357 67.1333 385.877 66.7973 385.536 66.36C385.205 65.912 385.04 65.3787 385.04 64.76C385.04 64.12 385.211 63.5707 385.552 63.112C385.904 62.6427 386.395 62.28 387.024 62.024C387.653 61.768 388.379 61.64 389.2 61.64C390.032 61.64 390.763 61.768 391.392 62.024C392.021 62.28 392.512 62.6427 392.864 63.112C393.216 63.5707 393.392 64.12 393.392 64.76C393.392 65.3787 393.221 65.912 392.88 66.36C392.549 66.7973 392.069 67.1333 391.44 67.368C390.811 67.592 390.064 67.704 389.2 67.704ZM389.2 66.424C389.861 66.424 390.384 66.2853 390.768 66.008C391.152 65.72 391.344 65.336 391.344 64.856C391.344 64.3547 391.147 63.9653 390.752 63.688C390.357 63.4107 389.84 63.272 389.2 63.272C388.56 63.272 388.048 63.4107 387.664 63.688C387.28 63.9653 387.088 64.3547 387.088 64.856C387.088 65.336 387.275 65.72 387.648 66.008C388.032 66.2853 388.549 66.424 389.2 66.424ZM406.534 64.36C407.216 64.36 407.819 64.4933 408.342 64.76C408.875 65.0267 409.291 65.4373 409.59 65.992C409.888 66.536 410.038 67.24 410.038 68.104V73H408.038V68.36C408.038 67.6027 407.872 67.0373 407.542 66.664C407.211 66.2907 406.736 66.104 406.118 66.104C405.68 66.104 405.291 66.2 404.95 66.392C404.619 66.584 404.358 66.8667 404.166 67.24C403.984 67.6133 403.894 68.088 403.894 68.664V73H401.894V68.36C401.894 67.6027 401.728 67.0373 401.398 66.664C401.067 66.2907 400.592 66.104 399.974 66.104C399.536 66.104 399.147 66.2 398.806 66.392C398.475 66.584 398.214 66.8667 398.022 67.24C397.84 67.6133 397.75 68.088 397.75 68.664V73H395.75V64.456H397.654V66.728L397.318 66.056C397.606 65.5013 398.022 65.08 398.566 64.792C399.12 64.504 399.75 64.36 400.454 64.36C401.254 64.36 401.947 64.5573 402.534 64.952C403.131 65.3467 403.526 65.944 403.718 66.744L402.934 66.472C403.211 65.832 403.67 65.32 404.31 64.936C404.95 64.552 405.691 64.36 406.534 64.36Z" fill="#112211"/>
<path opacity="0.4" d="M352.52 89.582H357.7V90.464H352.52V89.582ZM352.632 94.104H358.526V95H351.596V85.2H358.316V86.096H352.632V94.104ZM363.051 95L359.747 85.2H360.811L363.905 94.426H363.373L366.565 85.2H367.517L370.667 94.426H370.163L373.285 85.2H374.279L370.975 95H369.883L366.873 86.25H367.153L364.129 95H363.051ZM376.178 95V85.2H379.846C380.677 85.2 381.391 85.3353 381.988 85.606C382.585 85.8673 383.043 86.25 383.36 86.754C383.687 87.2487 383.85 87.8507 383.85 88.56C383.85 89.2507 383.687 89.848 383.36 90.352C383.043 90.8467 382.585 91.2293 381.988 91.5C381.391 91.7613 380.677 91.892 379.846 91.892H376.752L377.214 91.416V95H376.178ZM382.87 95L380.35 91.444H381.47L384.004 95H382.87ZM377.214 91.5L376.752 91.01H379.818C380.798 91.01 381.54 90.7953 382.044 90.366C382.557 89.9367 382.814 89.3347 382.814 88.56C382.814 87.776 382.557 87.1693 382.044 86.74C381.54 86.3107 380.798 86.096 379.818 86.096H376.752L377.214 85.606V91.5ZM385.539 91.64V90.772H389.207V91.64H385.539ZM391.641 95V85.2H395.869C396.961 85.2 397.806 85.4193 398.403 85.858C399.01 86.2967 399.313 86.9173 399.313 87.72C399.313 88.252 399.187 88.7 398.935 89.064C398.692 89.428 398.356 89.7033 397.927 89.89C397.507 90.0767 397.045 90.17 396.541 90.17L396.779 89.834C397.404 89.834 397.941 89.932 398.389 90.128C398.846 90.3147 399.201 90.5993 399.453 90.982C399.705 91.3553 399.831 91.822 399.831 92.382C399.831 93.2127 399.523 93.8567 398.907 94.314C398.3 94.7713 397.381 95 396.149 95H391.641ZM392.677 94.146H396.135C396.994 94.146 397.652 94.0013 398.109 93.712C398.566 93.4133 398.795 92.942 398.795 92.298C398.795 91.6633 398.566 91.2013 398.109 90.912C397.652 90.6133 396.994 90.464 396.135 90.464H392.565V89.61H395.799C396.583 89.61 397.19 89.4607 397.619 89.162C398.058 88.8633 398.277 88.42 398.277 87.832C398.277 87.2347 398.058 86.7913 397.619 86.502C397.19 86.2033 396.583 86.054 395.799 86.054H392.677V94.146ZM402.196 95V85.2H403.05L409.812 93.712H409.364V85.2H410.386V95H409.532L402.784 86.488H403.232V95H402.196ZM412.016 95L416.496 85.2H417.518L421.998 95H420.906L416.79 85.802H417.21L413.094 95H412.016ZM413.78 92.382L414.088 91.542H419.786L420.094 92.382H413.78Z" fill="#112211"/>
</svg>
