<svg width="84" height="44" viewBox="0 0 84 44" fill="none" xmlns="http://www.w3.org/2000/svg">
<path opacity="0.75" d="M2.916 12.072C2.388 12.072 1.884 12 1.404 11.856C0.932 11.712 0.56 11.536 0.288 11.328L0.768 10.416C1.04 10.6 1.376 10.756 1.776 10.884C2.176 11.012 2.584 11.076 3 11.076C3.536 11.076 3.92 11 4.152 10.848C4.392 10.696 4.512 10.484 4.512 10.212C4.512 10.012 4.44 9.856 4.296 9.744C4.152 9.632 3.96 9.548 3.72 9.492C3.488 9.436 3.228 9.388 2.94 9.348C2.652 9.3 2.364 9.244 2.076 9.18C1.788 9.108 1.524 9.012 1.284 8.892C1.044 8.764 0.852 8.592 0.708 8.376C0.564 8.152 0.492 7.856 0.492 7.488C0.492 7.104 0.6 6.768 0.816 6.48C1.032 6.192 1.336 5.972 1.728 5.82C2.128 5.66 2.6 5.58 3.144 5.58C3.56 5.58 3.98 5.632 4.404 5.736C4.836 5.832 5.188 5.972 5.46 6.156L4.968 7.068C4.68 6.876 4.38 6.744 4.068 6.672C3.756 6.6 3.444 6.564 3.132 6.564C2.628 6.564 2.252 6.648 2.004 6.816C1.756 6.976 1.632 7.184 1.632 7.44C1.632 7.656 1.704 7.824 1.848 7.944C2 8.056 2.192 8.144 2.424 8.208C2.664 8.272 2.928 8.328 3.216 8.376C3.504 8.416 3.792 8.472 4.08 8.544C4.368 8.608 4.628 8.7 4.86 8.82C5.1 8.94 5.292 9.108 5.436 9.324C5.588 9.54 5.664 9.828 5.664 10.188C5.664 10.572 5.552 10.904 5.328 11.184C5.104 11.464 4.788 11.684 4.38 11.844C3.972 11.996 3.484 12.072 2.916 12.072ZM9.28772 12.072C8.64772 12.072 8.15172 11.9 7.79972 11.556C7.44772 11.212 7.27172 10.72 7.27172 10.08V4.248H8.42372V10.032C8.42372 10.376 8.50772 10.64 8.67572 10.824C8.85172 11.008 9.09972 11.1 9.41972 11.1C9.77972 11.1 10.0797 11 10.3197 10.8L10.6797 11.628C10.5037 11.78 10.2917 11.892 10.0437 11.964C9.80372 12.036 9.55172 12.072 9.28772 12.072ZM6.19172 6.588V5.64H10.2477V6.588H6.19172ZM16.0205 12V10.656L15.9605 10.404V8.112C15.9605 7.624 15.8165 7.248 15.5285 6.984C15.2485 6.712 14.8245 6.576 14.2565 6.576C13.8805 6.576 13.5125 6.64 13.1525 6.768C12.7925 6.888 12.4885 7.052 12.2405 7.26L11.7605 6.396C12.0885 6.132 12.4805 5.932 12.9365 5.796C13.4005 5.652 13.8845 5.58 14.3885 5.58C15.2605 5.58 15.9325 5.792 16.4045 6.216C16.8765 6.64 17.1125 7.288 17.1125 8.16V12H16.0205ZM13.9325 12.072C13.4605 12.072 13.0445 11.992 12.6845 11.832C12.3325 11.672 12.0605 11.452 11.8685 11.172C11.6765 10.884 11.5805 10.56 11.5805 10.2C11.5805 9.856 11.6605 9.544 11.8205 9.264C11.9885 8.984 12.2565 8.76 12.6245 8.592C13.0005 8.424 13.5045 8.34 14.1365 8.34H16.1525V9.168H14.1845C13.6085 9.168 13.2205 9.264 13.0205 9.456C12.8205 9.648 12.7205 9.88 12.7205 10.152C12.7205 10.464 12.8445 10.716 13.0925 10.908C13.3405 11.092 13.6845 11.184 14.1245 11.184C14.5565 11.184 14.9325 11.088 15.2525 10.896C15.5805 10.704 15.8165 10.424 15.9605 10.056L16.1885 10.848C16.0365 11.224 15.7685 11.524 15.3845 11.748C15.0005 11.964 14.5165 12.072 13.9325 12.072ZM19.2443 12V5.64H20.3483V7.368L20.2403 6.936C20.4163 6.496 20.7123 6.16 21.1283 5.928C21.5443 5.696 22.0563 5.58 22.6643 5.58V6.696C22.6163 6.688 22.5683 6.684 22.5203 6.684C22.4803 6.684 22.4403 6.684 22.4003 6.684C21.7843 6.684 21.2963 6.868 20.9363 7.236C20.5763 7.604 20.3963 8.136 20.3963 8.832V12H19.2443ZM26.526 12.072C25.886 12.072 25.39 11.9 25.038 11.556C24.686 11.212 24.51 10.72 24.51 10.08V4.248H25.662V10.032C25.662 10.376 25.746 10.64 25.914 10.824C26.09 11.008 26.338 11.1 26.658 11.1C27.018 11.1 27.318 11 27.558 10.8L27.918 11.628C27.742 11.78 27.53 11.892 27.282 11.964C27.042 12.036 26.79 12.072 26.526 12.072ZM23.43 6.588V5.64H27.486V6.588H23.43ZM29.3108 12V5.64H30.4628V12H29.3108ZM29.8868 4.416C29.6628 4.416 29.4748 4.344 29.3228 4.2C29.1788 4.056 29.1068 3.88 29.1068 3.672C29.1068 3.456 29.1788 3.276 29.3228 3.132C29.4748 2.988 29.6628 2.916 29.8868 2.916C30.1108 2.916 30.2948 2.988 30.4388 3.132C30.5908 3.268 30.6668 3.44 30.6668 3.648C30.6668 3.864 30.5948 4.048 30.4508 4.2C30.3068 4.344 30.1188 4.416 29.8868 4.416ZM36.0583 5.58C36.5783 5.58 37.0343 5.68 37.4263 5.88C37.8263 6.08 38.1383 6.384 38.3623 6.792C38.5863 7.2 38.6983 7.716 38.6983 8.34V12H37.5463V8.472C37.5463 7.856 37.3943 7.392 37.0903 7.08C36.7943 6.768 36.3743 6.612 35.8303 6.612C35.4223 6.612 35.0663 6.692 34.7623 6.852C34.4583 7.012 34.2223 7.248 34.0543 7.56C33.8943 7.872 33.8143 8.26 33.8143 8.724V12H32.6623V5.64H33.7663V7.356L33.5863 6.9C33.7943 6.484 34.1143 6.16 34.5463 5.928C34.9783 5.696 35.4823 5.58 36.0583 5.58ZM43.6143 14.4C43.0303 14.4 42.4623 14.316 41.9103 14.148C41.3663 13.988 40.9223 13.756 40.5783 13.452L41.1303 12.564C41.4263 12.82 41.7903 13.02 42.2223 13.164C42.6543 13.316 43.1063 13.392 43.5783 13.392C44.3303 13.392 44.8823 13.216 45.2343 12.864C45.5863 12.512 45.7623 11.976 45.7623 11.256V9.912L45.8823 8.652L45.8223 7.38V5.64H46.9143V11.136C46.9143 12.256 46.6343 13.08 46.0743 13.608C45.5143 14.136 44.6943 14.4 43.6143 14.4ZM43.4703 11.736C42.8543 11.736 42.3023 11.608 41.8143 11.352C41.3343 11.088 40.9503 10.724 40.6623 10.26C40.3823 9.796 40.2423 9.26 40.2423 8.652C40.2423 8.036 40.3823 7.5 40.6623 7.044C40.9503 6.58 41.3343 6.22 41.8143 5.964C42.3023 5.708 42.8543 5.58 43.4703 5.58C44.0143 5.58 44.5103 5.692 44.9583 5.916C45.4063 6.132 45.7623 6.468 46.0263 6.924C46.2983 7.38 46.4343 7.956 46.4343 8.652C46.4343 9.34 46.2983 9.912 46.0263 10.368C45.7623 10.824 45.4063 11.168 44.9583 11.4C44.5103 11.624 44.0143 11.736 43.4703 11.736ZM43.6023 10.728C44.0263 10.728 44.4023 10.64 44.7303 10.464C45.0583 10.288 45.3143 10.044 45.4983 9.732C45.6903 9.42 45.7863 9.06 45.7863 8.652C45.7863 8.244 45.6903 7.884 45.4983 7.572C45.3143 7.26 45.0583 7.02 44.7303 6.852C44.4023 6.676 44.0263 6.588 43.6023 6.588C43.1783 6.588 42.7983 6.676 42.4623 6.852C42.1343 7.02 41.8743 7.26 41.6823 7.572C41.4983 7.884 41.4063 8.244 41.4063 8.652C41.4063 9.06 41.4983 9.42 41.6823 9.732C41.8743 10.044 42.1343 10.288 42.4623 10.464C42.7983 10.64 43.1783 10.728 43.6023 10.728ZM52.5061 12V5.076C52.5061 4.452 52.6861 3.956 53.0461 3.588C53.4141 3.212 53.9341 3.024 54.6061 3.024C54.8541 3.024 55.0901 3.056 55.3141 3.12C55.5461 3.176 55.7421 3.268 55.9021 3.396L55.5541 4.272C55.4341 4.176 55.2981 4.104 55.1461 4.056C54.9941 4 54.8341 3.972 54.6661 3.972C54.3301 3.972 54.0741 4.068 53.8981 4.26C53.7221 4.444 53.6341 4.72 53.6341 5.088V5.94L53.6581 6.468V12H52.5061ZM51.4261 6.588V5.64H55.4821V6.588H51.4261ZM56.5686 12V5.64H57.6726V7.368L57.5646 6.936C57.7406 6.496 58.0366 6.16 58.4526 5.928C58.8686 5.696 59.3806 5.58 59.9886 5.58V6.696C59.9406 6.688 59.8926 6.684 59.8446 6.684C59.8046 6.684 59.7646 6.684 59.7246 6.684C59.1086 6.684 58.6206 6.868 58.2606 7.236C57.9006 7.604 57.7206 8.136 57.7206 8.832V12H56.5686ZM64.0738 12.072C63.4338 12.072 62.8658 11.932 62.3698 11.652C61.8738 11.372 61.4818 10.988 61.1938 10.5C60.9058 10.004 60.7618 9.444 60.7618 8.82C60.7618 8.188 60.9058 7.628 61.1938 7.14C61.4818 6.652 61.8738 6.272 62.3698 6C62.8658 5.72 63.4338 5.58 64.0738 5.58C64.7058 5.58 65.2698 5.72 65.7658 6C66.2698 6.272 66.6618 6.652 66.9418 7.14C67.2298 7.62 67.3738 8.18 67.3738 8.82C67.3738 9.452 67.2298 10.012 66.9418 10.5C66.6618 10.988 66.2698 11.372 65.7658 11.652C65.2698 11.932 64.7058 12.072 64.0738 12.072ZM64.0738 11.064C64.4818 11.064 64.8458 10.972 65.1658 10.788C65.4938 10.604 65.7498 10.344 65.9338 10.008C66.1178 9.664 66.2098 9.268 66.2098 8.82C66.2098 8.364 66.1178 7.972 65.9338 7.644C65.7498 7.308 65.4938 7.048 65.1658 6.864C64.8458 6.68 64.4818 6.588 64.0738 6.588C63.6658 6.588 63.3018 6.68 62.9818 6.864C62.6618 7.048 62.4058 7.308 62.2138 7.644C62.0218 7.972 61.9258 8.364 61.9258 8.82C61.9258 9.268 62.0218 9.664 62.2138 10.008C62.4058 10.344 62.6618 10.604 62.9818 10.788C63.3018 10.972 63.6658 11.064 64.0738 11.064ZM76.923 5.58C77.435 5.58 77.887 5.68 78.279 5.88C78.671 6.08 78.975 6.384 79.191 6.792C79.415 7.2 79.527 7.716 79.527 8.34V12H78.375V8.472C78.375 7.856 78.231 7.392 77.943 7.08C77.655 6.768 77.251 6.612 76.731 6.612C76.347 6.612 76.011 6.692 75.723 6.852C75.435 7.012 75.211 7.248 75.051 7.56C74.899 7.872 74.823 8.26 74.823 8.724V12H73.671V8.472C73.671 7.856 73.527 7.392 73.239 7.08C72.959 6.768 72.555 6.612 72.027 6.612C71.651 6.612 71.319 6.692 71.031 6.852C70.743 7.012 70.519 7.248 70.359 7.56C70.199 7.872 70.119 8.26 70.119 8.724V12H68.967V5.64H70.071V7.332L69.891 6.9C70.091 6.484 70.399 6.16 70.815 5.928C71.231 5.696 71.715 5.58 72.267 5.58C72.875 5.58 73.399 5.732 73.839 6.036C74.279 6.332 74.567 6.784 74.703 7.392L74.235 7.2C74.427 6.712 74.763 6.32 75.243 6.024C75.723 5.728 76.283 5.58 76.923 5.58Z" fill="#112211"/>
<path d="M33.3433 40.88V18.32H35.7433V40.88H33.3433ZM34.2073 38.288C32.8633 38.288 31.5753 38.112 30.3433 37.76C29.1113 37.392 28.1193 36.92 27.3673 36.344L28.6873 33.416C29.4073 33.928 30.2553 34.352 31.2313 34.688C32.2233 35.008 33.2233 35.168 34.2313 35.168C34.9993 35.168 35.6153 35.096 36.0793 34.952C36.5593 34.792 36.9113 34.576 37.1353 34.304C37.3593 34.032 37.4713 33.72 37.4713 33.368C37.4713 32.92 37.2953 32.568 36.9433 32.312C36.5913 32.04 36.1273 31.824 35.5513 31.664C34.9753 31.488 34.3353 31.328 33.6313 31.184C32.9433 31.024 32.2473 30.832 31.5433 30.608C30.8553 30.384 30.2233 30.096 29.6473 29.744C29.0713 29.392 28.5993 28.928 28.2313 28.352C27.8793 27.776 27.7033 27.04 27.7033 26.144C27.7033 25.184 27.9593 24.312 28.4713 23.528C28.9993 22.728 29.7833 22.096 30.8233 21.632C31.8793 21.152 33.1993 20.912 34.7833 20.912C35.8393 20.912 36.8793 21.04 37.9033 21.296C38.9273 21.536 39.8313 21.904 40.6153 22.4L39.4153 25.352C38.6313 24.904 37.8473 24.576 37.0633 24.368C36.2793 24.144 35.5113 24.032 34.7593 24.032C34.0073 24.032 33.3913 24.12 32.9113 24.296C32.4313 24.472 32.0873 24.704 31.8793 24.992C31.6713 25.264 31.5673 25.584 31.5673 25.952C31.5673 26.384 31.7433 26.736 32.0953 27.008C32.4473 27.264 32.9113 27.472 33.4873 27.632C34.0633 27.792 34.6953 27.952 35.3833 28.112C36.0873 28.272 36.7833 28.456 37.4713 28.664C38.1753 28.872 38.8153 29.152 39.3913 29.504C39.9673 29.856 40.4313 30.32 40.7833 30.896C41.1513 31.472 41.3353 32.2 41.3353 33.08C41.3353 34.024 41.0713 34.888 40.5433 35.672C40.0153 36.456 39.2233 37.088 38.1673 37.568C37.1273 38.048 35.8073 38.288 34.2073 38.288ZM45.2936 38V22.64L46.9736 24.32H41.9336V21.2H49.1816V38H45.2936ZM59.3001 38.288C57.9241 38.288 56.6921 37.952 55.6041 37.28C54.5161 36.592 53.6601 35.6 53.0361 34.304C52.4121 33.008 52.1001 31.44 52.1001 29.6C52.1001 27.76 52.4121 26.192 53.0361 24.896C53.6601 23.6 54.5161 22.616 55.6041 21.944C56.6921 21.256 57.9241 20.912 59.3001 20.912C60.6921 20.912 61.9241 21.256 62.9961 21.944C64.0841 22.616 64.9401 23.6 65.5641 24.896C66.1881 26.192 66.5001 27.76 66.5001 29.6C66.5001 31.44 66.1881 33.008 65.5641 34.304C64.9401 35.6 64.0841 36.592 62.9961 37.28C61.9241 37.952 60.6921 38.288 59.3001 38.288ZM59.3001 35C59.9561 35 60.5241 34.816 61.0041 34.448C61.5001 34.08 61.8841 33.496 62.1561 32.696C62.4441 31.896 62.5881 30.864 62.5881 29.6C62.5881 28.336 62.4441 27.304 62.1561 26.504C61.8841 25.704 61.5001 25.12 61.0041 24.752C60.5241 24.384 59.9561 24.2 59.3001 24.2C58.6601 24.2 58.0921 24.384 57.5961 24.752C57.1161 25.12 56.7321 25.704 56.4441 26.504C56.1721 27.304 56.0361 28.336 56.0361 29.6C56.0361 30.864 56.1721 31.896 56.4441 32.696C56.7321 33.496 57.1161 34.08 57.5961 34.448C58.0921 34.816 58.6601 35 59.3001 35ZM68.1971 34.472V31.856L76.1171 21.2H80.1971L72.4451 31.856L70.5491 31.304H83.7731V34.472H68.1971ZM77.2451 38V34.472L77.3651 31.304V28.16H81.0371V38H77.2451Z" fill="#FF8682"/>
</svg>
