<svg width="160" height="24" viewBox="0 0 160 24" fill="none" xmlns="http://www.w3.org/2000/svg">
<path d="M3.75 7.5H20.25M3.75 12H20.25M3.75 16.5H20.25" stroke="black" stroke-width="1.5" stroke-miterlimit="10" stroke-linecap="round"/>
<path d="M37.894 17.612C40.876 17.612 43.088 15.484 43.088 12.6C43.088 9.716 40.876 7.588 37.894 7.588C34.884 7.588 32.672 9.73 32.672 12.6C32.672 15.47 34.884 17.612 37.894 17.612ZM37.894 16.366C35.696 16.366 34.072 14.77 34.072 12.6C34.072 10.43 35.696 8.834 37.894 8.834C40.064 8.834 41.688 10.43 41.688 12.6C41.688 14.77 40.064 16.366 37.894 16.366ZM48.8522 16.1C48.5722 16.324 48.1942 16.45 47.8022 16.45C47.0602 16.45 46.6402 16.002 46.6402 15.204V11.186H48.7682V10.08H46.6402V8.456H45.2962V10.08H44.0362V11.186H45.2962V15.26C45.2962 16.758 46.1502 17.584 47.6482 17.584C48.2502 17.584 48.8662 17.416 49.2722 17.066L48.8522 16.1ZM54.859 10.01C53.725 10.01 52.801 10.416 52.241 11.13V7.112H50.897V17.5H52.241V13.678C52.241 12.068 53.165 11.214 54.593 11.214C55.867 11.214 56.595 11.928 56.595 13.384V17.5H57.939V13.23C57.939 11.046 56.665 10.01 54.859 10.01ZM67.1734 13.832C67.1734 11.55 65.6474 10.01 63.5054 10.01C61.3634 10.01 59.7814 11.592 59.7814 13.79C59.7814 16.002 61.3774 17.584 63.7714 17.584C65.0034 17.584 66.0254 17.164 66.6974 16.38L65.9554 15.512C65.4094 16.114 64.6814 16.408 63.8134 16.408C62.3434 16.408 61.2934 15.54 61.1254 14.238H67.1454C67.1594 14.112 67.1734 13.944 67.1734 13.832ZM63.5054 11.144C64.8074 11.144 65.7454 12.026 65.8854 13.272H61.1254C61.2654 12.012 62.2174 11.144 63.5054 11.144ZM70.3276 11.326V10.08H69.0396V17.5H70.3836V13.804C70.3836 12.18 71.2796 11.298 72.7216 11.298C72.8196 11.298 72.9176 11.298 73.0296 11.312V10.01C71.7276 10.01 70.8036 10.458 70.3276 11.326ZM80.6696 17.584C82.6436 17.584 83.8756 16.73 83.8756 15.386C83.8756 12.502 79.1716 13.93 79.1716 12.18C79.1716 11.592 79.7456 11.158 80.9216 11.158C81.6496 11.158 82.3916 11.312 83.0636 11.746L83.6376 10.682C82.9936 10.262 81.9016 10.01 80.9356 10.01C79.0316 10.01 77.8416 10.906 77.8416 12.236C77.8416 15.19 82.5316 13.748 82.5316 15.414C82.5316 16.044 82.0136 16.422 80.7676 16.422C79.8016 16.422 78.7936 16.1 78.1636 15.652L77.6036 16.716C78.2196 17.206 79.4376 17.584 80.6696 17.584ZM88.7333 17.584C90.9593 17.584 92.5833 16.002 92.5833 13.79C92.5833 11.578 90.9593 10.01 88.7333 10.01C86.5073 10.01 84.8693 11.578 84.8693 13.79C84.8693 16.002 86.5073 17.584 88.7333 17.584ZM88.7333 16.408C87.3053 16.408 86.2273 15.372 86.2273 13.79C86.2273 12.208 87.3053 11.186 88.7333 11.186C90.1613 11.186 91.2253 12.208 91.2253 13.79C91.2253 15.372 90.1613 16.408 88.7333 16.408ZM95.73 11.326V10.08H94.442V17.5H95.786V13.804C95.786 12.18 96.682 11.298 98.124 11.298C98.222 11.298 98.32 11.298 98.432 11.312V10.01C97.13 10.01 96.206 10.458 95.73 11.326ZM104.141 16.1C103.861 16.324 103.483 16.45 103.091 16.45C102.349 16.45 101.929 16.002 101.929 15.204V11.186H104.057V10.08H101.929V8.456H100.585V10.08H99.3252V11.186H100.585V15.26C100.585 16.758 101.439 17.584 102.937 17.584C103.539 17.584 104.155 17.416 104.561 17.066L104.141 16.1Z" fill="#112211"/>
</svg>
