<svg width="343" height="25" viewBox="0 0 343 25" fill="none" xmlns="http://www.w3.org/2000/svg">
<path d="M18.75 3.5H5.25C4.00736 3.5 3 4.50736 3 5.75V19.25C3 20.4926 4.00736 21.5 5.25 21.5H18.75C19.9926 21.5 21 20.4926 21 19.25V5.75C21 4.50736 19.9926 3.5 18.75 3.5Z" stroke="#112211" stroke-width="2" stroke-linejoin="round"/>
<path d="M37.894 18.112C37.1473 18.112 36.452 17.986 35.808 17.734C35.1733 17.482 34.6227 17.132 34.156 16.684C33.6893 16.2267 33.3253 15.6947 33.064 15.088C32.8027 14.4813 32.672 13.8187 32.672 13.1C32.672 12.3813 32.8027 11.7187 33.064 11.112C33.3253 10.5053 33.6893 9.978 34.156 9.53C34.6227 9.07267 35.1733 8.718 35.808 8.466C36.4427 8.214 37.138 8.088 37.894 8.088C38.6407 8.088 39.3267 8.214 39.952 8.466C40.5867 8.70867 41.1373 9.05867 41.604 9.516C42.08 9.964 42.444 10.4913 42.696 11.098C42.9573 11.7047 43.088 12.372 43.088 13.1C43.088 13.828 42.9573 14.4953 42.696 15.102C42.444 15.7087 42.08 16.2407 41.604 16.698C41.1373 17.146 40.5867 17.496 39.952 17.748C39.3267 17.9907 38.6407 18.112 37.894 18.112ZM41.1 20.044C40.7733 20.044 40.4607 20.002 40.162 19.918C39.8633 19.8433 39.5647 19.7173 39.266 19.54C38.9673 19.372 38.6593 19.148 38.342 18.868C38.0247 18.5973 37.6793 18.2613 37.306 17.86L38.804 17.468C39.084 17.8133 39.35 18.0933 39.602 18.308C39.8633 18.532 40.12 18.6907 40.372 18.784C40.624 18.8867 40.8713 18.938 41.114 18.938C41.814 18.938 42.4113 18.658 42.906 18.098L43.564 18.896C42.9293 19.6613 42.108 20.044 41.1 20.044ZM37.894 16.866C38.4353 16.866 38.9347 16.7727 39.392 16.586C39.8587 16.3993 40.26 16.1333 40.596 15.788C40.9413 15.4427 41.2073 15.0413 41.394 14.584C41.59 14.1267 41.688 13.632 41.688 13.1C41.688 12.5587 41.59 12.0593 41.394 11.602C41.2073 11.1447 40.9413 10.748 40.596 10.412C40.26 10.0667 39.8587 9.80067 39.392 9.614C38.9347 9.42733 38.4353 9.334 37.894 9.334C37.3433 9.334 36.8347 9.42733 36.368 9.614C35.9107 9.80067 35.5093 10.0667 35.164 10.412C34.8187 10.748 34.548 11.1447 34.352 11.602C34.1653 12.0593 34.072 12.5587 34.072 13.1C34.072 13.632 34.1653 14.1267 34.352 14.584C34.548 15.0413 34.8187 15.4427 35.164 15.788C35.5093 16.1333 35.9107 16.3993 36.368 16.586C36.8347 16.7727 37.3433 16.866 37.894 16.866ZM49.6378 18V16.432L49.5678 16.138V13.464C49.5678 12.8947 49.3998 12.456 49.0638 12.148C48.7371 11.8307 48.2425 11.672 47.5798 11.672C47.1411 11.672 46.7118 11.7467 46.2918 11.896C45.8718 12.036 45.5171 12.2273 45.2278 12.47L44.6678 11.462C45.0505 11.154 45.5078 10.9207 46.0398 10.762C46.5811 10.594 47.1458 10.51 47.7338 10.51C48.7511 10.51 49.5351 10.7573 50.0858 11.252C50.6365 11.7467 50.9118 12.5027 50.9118 13.52V18H49.6378ZM47.2018 18.084C46.6511 18.084 46.1658 17.9907 45.7458 17.804C45.3351 17.6173 45.0178 17.3607 44.7938 17.034C44.5698 16.698 44.4578 16.32 44.4578 15.9C44.4578 15.4987 44.5511 15.1347 44.7378 14.808C44.9338 14.4813 45.2465 14.22 45.6758 14.024C46.1145 13.828 46.7025 13.73 47.4398 13.73H49.7918V14.696H47.4958C46.8238 14.696 46.3711 14.808 46.1378 15.032C45.9045 15.256 45.7878 15.5267 45.7878 15.844C45.7878 16.208 45.9325 16.502 46.2218 16.726C46.5111 16.9407 46.9125 17.048 47.4258 17.048C47.9298 17.048 48.3685 16.936 48.7418 16.712C49.1245 16.488 49.3998 16.1613 49.5678 15.732L49.8338 16.656C49.6565 17.0947 49.3438 17.4447 48.8958 17.706C48.4478 17.958 47.8831 18.084 47.2018 18.084ZM55.947 18.084C55.2003 18.084 54.6217 17.8833 54.211 17.482C53.8003 17.0807 53.595 16.5067 53.595 15.76V8.956H54.939V15.704C54.939 16.1053 55.037 16.4133 55.233 16.628C55.4383 16.8427 55.7277 16.95 56.101 16.95C56.521 16.95 56.871 16.8333 57.151 16.6L57.571 17.566C57.3657 17.7433 57.1183 17.874 56.829 17.958C56.549 18.042 56.255 18.084 55.947 18.084ZM52.335 11.686V10.58H57.067V11.686H52.335ZM63.8019 18V16.432L63.7319 16.138V13.464C63.7319 12.8947 63.5639 12.456 63.2279 12.148C62.9012 11.8307 62.4065 11.672 61.7439 11.672C61.3052 11.672 60.8759 11.7467 60.4559 11.896C60.0359 12.036 59.6812 12.2273 59.3919 12.47L58.8319 11.462C59.2145 11.154 59.6719 10.9207 60.2039 10.762C60.7452 10.594 61.3099 10.51 61.8979 10.51C62.9152 10.51 63.6992 10.7573 64.2499 11.252C64.8005 11.7467 65.0759 12.5027 65.0759 13.52V18H63.8019ZM61.3659 18.084C60.8152 18.084 60.3299 17.9907 59.9099 17.804C59.4992 17.6173 59.1819 17.3607 58.9579 17.034C58.7339 16.698 58.6219 16.32 58.6219 15.9C58.6219 15.4987 58.7152 15.1347 58.9019 14.808C59.0979 14.4813 59.4105 14.22 59.8399 14.024C60.2785 13.828 60.8665 13.73 61.6039 13.73H63.9559V14.696H61.6599C60.9879 14.696 60.5352 14.808 60.3019 15.032C60.0685 15.256 59.9519 15.5267 59.9519 15.844C59.9519 16.208 60.0965 16.502 60.3859 16.726C60.6752 16.9407 61.0765 17.048 61.5899 17.048C62.0939 17.048 62.5325 16.936 62.9059 16.712C63.2885 16.488 63.5639 16.1613 63.7319 15.732L63.9979 16.656C63.8205 17.0947 63.5079 17.4447 63.0599 17.706C62.6119 17.958 62.0472 18.084 61.3659 18.084ZM67.5631 18V10.58H68.8511V12.596L68.7251 12.092C68.9304 11.5787 69.2757 11.1867 69.7611 10.916C70.2464 10.6453 70.8437 10.51 71.5531 10.51V11.812C71.4971 11.8027 71.4411 11.798 71.3851 11.798C71.3384 11.798 71.2917 11.798 71.2451 11.798C70.5264 11.798 69.9571 12.0127 69.5371 12.442C69.1171 12.8713 68.9071 13.492 68.9071 14.304V18H67.5631Z" fill="#112211"/>
</svg>
