<svg width="160" height="42" viewBox="0 0 160 42" fill="none" xmlns="http://www.w3.org/2000/svg">
<path d="M6.752 16.66C5.87733 16.66 5.072 16.516 4.336 16.228C3.6 15.94 2.96 15.54 2.416 15.028C1.872 14.5053 1.45067 13.8973 1.152 13.204C0.853333 12.5 0.704 11.732 0.704 10.9C0.704 10.068 0.853333 9.30533 1.152 8.612C1.45067 7.908 1.872 7.3 2.416 6.788C2.96 6.26533 3.6 5.86 4.336 5.572C5.072 5.284 5.872 5.14 6.736 5.14C7.61067 5.14 8.41067 5.284 9.136 5.572C9.872 5.86 10.512 6.26 11.056 6.772C11.6 7.284 12.0213 7.892 12.32 8.596C12.6187 9.3 12.768 10.068 12.768 10.9C12.768 11.732 12.6187 12.5 12.32 13.204C12.0213 13.908 11.6 14.516 11.056 15.028C10.512 15.54 9.872 15.94 9.136 16.228C8.41067 16.516 7.616 16.66 6.752 16.66ZM10.4 18.948C10.0053 18.948 9.62133 18.9 9.248 18.804C8.88533 18.7187 8.52267 18.5693 8.16 18.356C7.808 18.1533 7.44 17.8813 7.056 17.54C6.672 17.2093 6.25067 16.7987 5.792 16.308L8 15.732C8.29867 16.1267 8.58133 16.4413 8.848 16.676C9.12533 16.9213 9.392 17.0973 9.648 17.204C9.904 17.3107 10.1707 17.364 10.448 17.364C11.184 17.364 11.824 17.0653 12.368 16.468L13.328 17.62C12.5813 18.5053 11.6053 18.948 10.4 18.948ZM6.736 14.836C7.30133 14.836 7.824 14.74 8.304 14.548C8.784 14.356 9.2 14.084 9.552 13.732C9.904 13.3693 10.176 12.948 10.368 12.468C10.5707 11.988 10.672 11.4653 10.672 10.9C10.672 10.324 10.5707 9.80133 10.368 9.332C10.176 8.852 9.904 8.436 9.552 8.084C9.2 7.72133 8.784 7.444 8.304 7.252C7.824 7.06 7.30133 6.964 6.736 6.964C6.17067 6.964 5.648 7.06 5.168 7.252C4.688 7.444 4.272 7.72133 3.92 8.084C3.568 8.436 3.29067 8.852 3.088 9.332C2.896 9.80133 2.8 10.324 2.8 10.9C2.8 11.4653 2.896 11.988 3.088 12.468C3.29067 12.948 3.568 13.3693 3.92 13.732C4.272 14.084 4.688 14.356 5.168 14.548C5.648 14.74 6.17067 14.836 6.736 14.836ZM18.3968 16.612C17.6714 16.612 17.0314 16.4787 16.4768 16.212C15.9221 15.9347 15.4901 15.5187 15.1808 14.964C14.8714 14.3987 14.7168 13.6893 14.7168 12.836V7.956H16.7168V12.564C16.7168 13.332 16.8874 13.908 17.2288 14.292C17.5808 14.6653 18.0768 14.852 18.7168 14.852C19.1861 14.852 19.5914 14.756 19.9328 14.564C20.2848 14.372 20.5568 14.084 20.7488 13.7C20.9514 13.316 21.0528 12.8413 21.0528 12.276V7.956H23.0528V16.5H21.1488V14.196L21.4848 14.9C21.1968 15.4547 20.7754 15.8813 20.2208 16.18C19.6661 16.468 19.0581 16.612 18.3968 16.612ZM25.6714 16.5V7.956H27.6714V16.5H25.6714ZM26.6794 6.548C26.306 6.548 25.9967 6.43067 25.7514 6.196C25.5167 5.96133 25.3994 5.67867 25.3994 5.348C25.3994 5.00667 25.5167 4.724 25.7514 4.5C25.9967 4.26533 26.306 4.148 26.6794 4.148C27.0527 4.148 27.3567 4.26 27.5914 4.484C27.8367 4.69733 27.9594 4.96933 27.9594 5.3C27.9594 5.652 27.842 5.95067 27.6074 6.196C27.3727 6.43067 27.0634 6.548 26.6794 6.548ZM34.2164 16.612C33.3204 16.612 32.5204 16.4253 31.8164 16.052C31.123 15.668 30.579 15.1453 30.1844 14.484C29.7897 13.8227 29.5924 13.0707 29.5924 12.228C29.5924 11.3747 29.7897 10.6227 30.1844 9.972C30.579 9.31067 31.123 8.79333 31.8164 8.42C32.5204 8.04667 33.3204 7.86 34.2164 7.86C35.0484 7.86 35.779 8.03067 36.4084 8.372C37.0484 8.70267 37.5337 9.19333 37.8644 9.844L36.3284 10.74C36.0724 10.3347 35.7577 10.036 35.3844 9.844C35.0217 9.652 34.627 9.556 34.2004 9.556C33.7097 9.556 33.267 9.66267 32.8724 9.876C32.4777 10.0893 32.1684 10.3987 31.9444 10.804C31.7204 11.1987 31.6084 11.6733 31.6084 12.228C31.6084 12.7827 31.7204 13.2627 31.9444 13.668C32.1684 14.0627 32.4777 14.3667 32.8724 14.58C33.267 14.7933 33.7097 14.9 34.2004 14.9C34.627 14.9 35.0217 14.804 35.3844 14.612C35.7577 14.42 36.0724 14.1213 36.3284 13.716L37.8644 14.612C37.5337 15.252 37.0484 15.748 36.4084 16.1C35.779 16.4413 35.0484 16.612 34.2164 16.612ZM41.1471 14.596L41.1951 12.084L45.6591 7.956H48.0591L44.2671 11.764L43.2111 12.644L41.1471 14.596ZM39.5151 16.5V4.628H41.5151V16.5H39.5151ZM45.9631 16.5L42.8431 12.644L44.1071 11.044L48.3951 16.5H45.9631ZM53.3593 16.612C52.4099 16.612 51.5779 16.4253 50.8633 16.052C50.1593 15.668 49.6099 15.1453 49.2153 14.484C48.8313 13.8227 48.6393 13.0707 48.6393 12.228C48.6393 11.3747 48.8259 10.6227 49.1993 9.972C49.5833 9.31067 50.1059 8.79333 50.7673 8.42C51.4393 8.04667 52.2019 7.86 53.0553 7.86C53.8873 7.86 54.6286 8.04133 55.2793 8.404C55.9299 8.76667 56.4419 9.27867 56.8153 9.94C57.1886 10.6013 57.3753 11.38 57.3753 12.276C57.3753 12.3613 57.3699 12.4573 57.3593 12.564C57.3593 12.6707 57.3539 12.772 57.3433 12.868H50.2233V11.54H56.2873L55.5033 11.956C55.5139 11.4653 55.4126 11.0333 55.1993 10.66C54.9859 10.2867 54.6926 9.99333 54.3193 9.78C53.9566 9.56667 53.5353 9.46 53.0553 9.46C52.5646 9.46 52.1326 9.56667 51.7593 9.78C51.3966 9.99333 51.1086 10.292 50.8953 10.676C50.6926 11.0493 50.5913 11.492 50.5913 12.004V12.324C50.5913 12.836 50.7086 13.2893 50.9433 13.684C51.1779 14.0787 51.5086 14.3827 51.9353 14.596C52.3619 14.8093 52.8526 14.916 53.4073 14.916C53.8873 14.916 54.3193 14.8413 54.7033 14.692C55.0873 14.5427 55.4286 14.308 55.7273 13.988L56.7993 15.22C56.4153 15.668 55.9299 16.0147 55.3433 16.26C54.7673 16.4947 54.1059 16.612 53.3593 16.612ZM61.9364 16.612C61.2217 16.612 60.5337 16.5213 59.8724 16.34C59.2217 16.148 58.7044 15.9187 58.3204 15.652L59.0884 14.132C59.4724 14.3773 59.931 14.58 60.4644 14.74C60.9977 14.9 61.531 14.98 62.0644 14.98C62.6937 14.98 63.147 14.8947 63.4244 14.724C63.7124 14.5533 63.8564 14.324 63.8564 14.036C63.8564 13.8013 63.7604 13.6253 63.5684 13.508C63.3764 13.38 63.1257 13.284 62.8164 13.22C62.507 13.156 62.1604 13.0973 61.7764 13.044C61.403 12.9907 61.0244 12.9213 60.6404 12.836C60.267 12.74 59.9257 12.6067 59.6164 12.436C59.307 12.2547 59.0564 12.0147 58.8644 11.716C58.6724 11.4173 58.5764 11.0227 58.5764 10.532C58.5764 9.988 58.731 9.51867 59.0404 9.124C59.3497 8.71867 59.7817 8.40933 60.3364 8.196C60.9017 7.972 61.5684 7.86 62.3364 7.86C62.9124 7.86 63.4937 7.924 64.0804 8.052C64.667 8.18 65.1524 8.36133 65.5364 8.596L64.7684 10.116C64.363 9.87067 63.9524 9.70533 63.5364 9.62C63.131 9.524 62.7257 9.476 62.3204 9.476C61.7124 9.476 61.259 9.56667 60.9604 9.748C60.6724 9.92933 60.5284 10.1587 60.5284 10.436C60.5284 10.692 60.6244 10.884 60.8164 11.012C61.0084 11.14 61.259 11.2413 61.5684 11.316C61.8777 11.3907 62.219 11.4547 62.5924 11.508C62.9764 11.5507 63.355 11.62 63.7284 11.716C64.1017 11.812 64.443 11.9453 64.7524 12.116C65.0724 12.276 65.3284 12.5053 65.5204 12.804C65.7124 13.1027 65.8084 13.492 65.8084 13.972C65.8084 14.5053 65.6484 14.9693 65.3284 15.364C65.019 15.7587 64.5764 16.068 64.0004 16.292C63.4244 16.5053 62.7364 16.612 61.9364 16.612ZM70.7468 16.612C69.8081 16.612 69.0828 16.372 68.5707 15.892C68.0588 15.4013 67.8028 14.6813 67.8028 13.732V6.068H69.8028V13.684C69.8028 14.0893 69.9041 14.404 70.1068 14.628C70.3201 14.852 70.6134 14.964 70.9868 14.964C71.4348 14.964 71.8081 14.8467 72.1068 14.612L72.6668 16.036C72.4321 16.228 72.1441 16.372 71.8028 16.468C71.4614 16.564 71.1094 16.612 70.7468 16.612ZM66.3948 9.62V8.02H72.0908V9.62H66.3948Z" fill="#112211"/>
<path opacity="0.4" d="M4.004 40.18V27.02H4.704V40.18H4.004ZM4.298 38.584C3.57 38.584 2.87 38.4673 2.198 38.234C1.53533 37.9913 1.022 37.6833 0.658 37.31L1.064 36.512C1.40933 36.848 1.87133 37.1327 2.45 37.366C3.038 37.59 3.654 37.702 4.298 37.702C4.914 37.702 5.41333 37.6273 5.796 37.478C6.188 37.3193 6.47267 37.1093 6.65 36.848C6.83667 36.5867 6.93 36.2973 6.93 35.98C6.93 35.5973 6.818 35.2893 6.594 35.056C6.37933 34.8227 6.09467 34.6407 5.74 34.51C5.38533 34.37 4.99333 34.2487 4.564 34.146C4.13467 34.0433 3.70533 33.936 3.276 33.824C2.84667 33.7027 2.45 33.544 2.086 33.348C1.73133 33.152 1.442 32.8953 1.218 32.578C1.00333 32.2513 0.896 31.8267 0.896 31.304C0.896 30.8187 1.022 30.3753 1.274 29.974C1.53533 29.5633 1.932 29.2367 2.464 28.994C2.996 28.742 3.67733 28.616 4.508 28.616C5.05867 28.616 5.60467 28.6953 6.146 28.854C6.68733 29.0033 7.154 29.2133 7.546 29.484L7.196 30.31C6.776 30.03 6.328 29.8247 5.852 29.694C5.38533 29.5633 4.93267 29.498 4.494 29.498C3.906 29.498 3.42067 29.5773 3.038 29.736C2.65533 29.8947 2.37067 30.1093 2.184 30.38C2.00667 30.6413 1.918 30.94 1.918 31.276C1.918 31.6587 2.02533 31.9667 2.24 32.2C2.464 32.4333 2.75333 32.6153 3.108 32.746C3.472 32.8767 3.86867 32.9933 4.298 33.096C4.72733 33.1987 5.152 33.3107 5.572 33.432C6.00133 33.5533 6.39333 33.712 6.748 33.908C7.112 34.0947 7.40133 34.3467 7.616 34.664C7.84 34.9813 7.952 35.3967 7.952 35.91C7.952 36.386 7.82133 36.8293 7.56 37.24C7.29867 37.6413 6.89733 37.968 6.356 38.22C5.824 38.4627 5.138 38.584 4.298 38.584ZM12.2566 28.616C13.1246 28.616 13.8572 28.812 14.4546 29.204C15.0519 29.5867 15.5046 30.142 15.8126 30.87C16.1206 31.598 16.2746 32.48 16.2746 33.516C16.2746 34.6173 16.0832 35.546 15.7006 36.302C15.3272 37.058 14.8046 37.6273 14.1326 38.01C13.4606 38.3927 12.6812 38.584 11.7946 38.584C11.3559 38.584 10.9359 38.542 10.5346 38.458C10.1426 38.374 9.7879 38.2387 9.47056 38.052L9.87656 37.24C10.1286 37.408 10.4179 37.5293 10.7446 37.604C11.0806 37.6693 11.4259 37.702 11.7806 37.702C12.8352 37.702 13.6752 37.366 14.3006 36.694C14.9352 36.022 15.2526 35.0187 15.2526 33.684C15.2526 33.4693 15.2386 33.2127 15.2106 32.914C15.1919 32.6153 15.1406 32.3167 15.0566 32.018L15.4066 32.284C15.3132 32.7693 15.1126 33.1847 14.8046 33.53C14.5059 33.866 14.1326 34.1227 13.6846 34.3C13.2459 34.4773 12.7559 34.566 12.2146 34.566C11.5706 34.566 10.9966 34.4447 10.4926 34.202C9.9979 33.9593 9.61056 33.6187 9.33056 33.18C9.05056 32.7413 8.91056 32.2233 8.91056 31.626C8.91056 31.01 9.05523 30.478 9.34456 30.03C9.6339 29.582 10.0306 29.2367 10.5346 28.994C11.0479 28.742 11.6219 28.616 12.2566 28.616ZM12.2986 29.47C11.8319 29.47 11.4166 29.5587 11.0526 29.736C10.6979 29.904 10.4179 30.1467 10.2126 30.464C10.0072 30.7813 9.90456 31.1593 9.90456 31.598C9.90456 32.242 10.1239 32.7553 10.5626 33.138C11.0106 33.5207 11.6126 33.712 12.3686 33.712C12.8726 33.712 13.3112 33.6187 13.6846 33.432C14.0672 33.2453 14.3612 32.9887 14.5666 32.662C14.7812 32.3353 14.8886 31.9713 14.8886 31.57C14.8886 31.206 14.7906 30.8653 14.5946 30.548C14.3986 30.2307 14.1092 29.974 13.7266 29.778C13.3439 29.5727 12.8679 29.47 12.2986 29.47ZM20.7878 28.616C21.6558 28.616 22.3885 28.812 22.9858 29.204C23.5831 29.5867 24.0358 30.142 24.3438 30.87C24.6518 31.598 24.8058 32.48 24.8058 33.516C24.8058 34.6173 24.6145 35.546 24.2318 36.302C23.8585 37.058 23.3358 37.6273 22.6638 38.01C21.9918 38.3927 21.2125 38.584 20.3258 38.584C19.8871 38.584 19.4671 38.542 19.0658 38.458C18.6738 38.374 18.3191 38.2387 18.0018 38.052L18.4078 37.24C18.6598 37.408 18.9491 37.5293 19.2758 37.604C19.6118 37.6693 19.9571 37.702 20.3118 37.702C21.3665 37.702 22.2065 37.366 22.8318 36.694C23.4665 36.022 23.7838 35.0187 23.7838 33.684C23.7838 33.4693 23.7698 33.2127 23.7418 32.914C23.7231 32.6153 23.6718 32.3167 23.5878 32.018L23.9378 32.284C23.8445 32.7693 23.6438 33.1847 23.3358 33.53C23.0371 33.866 22.6638 34.1227 22.2158 34.3C21.7771 34.4773 21.2871 34.566 20.7458 34.566C20.1018 34.566 19.5278 34.4447 19.0238 34.202C18.5291 33.9593 18.1418 33.6187 17.8618 33.18C17.5818 32.7413 17.4418 32.2233 17.4418 31.626C17.4418 31.01 17.5865 30.478 17.8758 30.03C18.1651 29.582 18.5618 29.2367 19.0658 28.994C19.5791 28.742 20.1531 28.616 20.7878 28.616ZM20.8298 29.47C20.3631 29.47 19.9478 29.5587 19.5838 29.736C19.2291 29.904 18.9491 30.1467 18.7438 30.464C18.5385 30.7813 18.4358 31.1593 18.4358 31.598C18.4358 32.242 18.6551 32.7553 19.0938 33.138C19.5418 33.5207 20.1438 33.712 20.8998 33.712C21.4038 33.712 21.8425 33.6187 22.2158 33.432C22.5985 33.2453 22.8925 32.9887 23.0978 32.662C23.3125 32.3353 23.4198 31.9713 23.4198 31.57C23.4198 31.206 23.3218 30.8653 23.1258 30.548C22.9298 30.2307 22.6405 29.974 22.2578 29.778C21.8751 29.5727 21.3991 29.47 20.8298 29.47Z" fill="#112211"/>
<path opacity="0.4" d="M31.484 38.57C31.2787 38.57 31.1013 38.4953 30.952 38.346C30.812 38.1967 30.742 38.0147 30.742 37.8C30.742 37.576 30.812 37.394 30.952 37.254C31.1013 37.114 31.2787 37.044 31.484 37.044C31.6893 37.044 31.862 37.114 32.002 37.254C32.1513 37.394 32.226 37.576 32.226 37.8C32.226 38.0147 32.1513 38.1967 32.002 38.346C31.862 38.4953 31.6893 38.57 31.484 38.57Z" fill="#112211"/>
<path opacity="0.4" d="M37.546 38.5V37.786L41.62 33.796C41.9933 33.432 42.2733 33.1147 42.46 32.844C42.6467 32.564 42.7727 32.3027 42.838 32.06C42.9033 31.8173 42.936 31.5887 42.936 31.374C42.936 30.8047 42.74 30.3567 42.348 30.03C41.9653 29.7033 41.396 29.54 40.64 29.54C40.0613 29.54 39.548 29.6287 39.1 29.806C38.6613 29.9833 38.2833 30.2587 37.966 30.632L37.252 30.016C37.6347 29.568 38.1247 29.2227 38.722 28.98C39.3193 28.7373 39.9867 28.616 40.724 28.616C41.3867 28.616 41.9607 28.7233 42.446 28.938C42.9313 29.1433 43.3047 29.4467 43.566 29.848C43.8367 30.2493 43.972 30.7207 43.972 31.262C43.972 31.5793 43.9253 31.892 43.832 32.2C43.748 32.508 43.5893 32.8347 43.356 33.18C43.132 33.516 42.8007 33.8987 42.362 34.328L38.624 37.996L38.344 37.604H44.42V38.5H37.546ZM50.095 31.08C50.6924 31.08 51.215 31.1967 51.663 31.43C52.1204 31.654 52.475 31.9993 52.727 32.466C52.9884 32.9327 53.119 33.5207 53.119 34.23V38.5H52.125V34.328C52.125 33.5533 51.929 32.97 51.537 32.578C51.1544 32.1767 50.613 31.976 49.913 31.976C49.3904 31.976 48.933 32.0833 48.541 32.298C48.1584 32.5033 47.8597 32.8067 47.645 33.208C47.4397 33.6 47.337 34.076 47.337 34.636V38.5H46.343V28.112H47.337V33.166L47.141 32.788C47.3744 32.256 47.7477 31.8407 48.261 31.542C48.7744 31.234 49.3857 31.08 50.095 31.08ZM60.518 38.5V29.12L60.966 29.596H58.208V28.7H61.526V38.5H60.518ZM67.5926 38.584C66.8086 38.584 66.132 38.472 65.5626 38.248C65.0026 38.024 64.5686 37.702 64.2606 37.282C63.962 36.8527 63.8126 36.3487 63.8126 35.77C63.8126 35.21 63.9573 34.734 64.2466 34.342C64.5453 33.9407 64.9746 33.6327 65.5346 33.418C66.104 33.2033 66.79 33.096 67.5926 33.096C68.386 33.096 69.0673 33.2033 69.6366 33.418C70.206 33.6327 70.64 33.9407 70.9386 34.342C71.2466 34.734 71.4006 35.21 71.4006 35.77C71.4006 36.3487 71.2466 36.8527 70.9386 37.282C70.6306 37.702 70.192 38.024 69.6226 38.248C69.0533 38.472 68.3766 38.584 67.5926 38.584ZM67.5926 37.73C68.4606 37.73 69.1373 37.5527 69.6226 37.198C70.1173 36.8433 70.3646 36.3627 70.3646 35.756C70.3646 35.1493 70.1173 34.6733 69.6226 34.328C69.1373 33.9733 68.4606 33.796 67.5926 33.796C66.7246 33.796 66.048 33.9733 65.5626 34.328C65.0773 34.6733 64.8346 35.1493 64.8346 35.756C64.8346 36.3627 65.0773 36.8433 65.5626 37.198C66.048 37.5527 66.7246 37.73 67.5926 37.73ZM67.5926 33.67C66.8646 33.67 66.244 33.572 65.7306 33.376C65.2266 33.18 64.8393 32.9 64.5686 32.536C64.298 32.1627 64.1626 31.7193 64.1626 31.206C64.1626 30.6647 64.3026 30.2027 64.5826 29.82C64.872 29.428 65.2733 29.1293 65.7866 28.924C66.3 28.7187 66.902 28.616 67.5926 28.616C68.2833 28.616 68.8853 28.7187 69.3986 28.924C69.9213 29.1293 70.3273 29.428 70.6166 29.82C70.906 30.2027 71.0506 30.6647 71.0506 31.206C71.0506 31.7193 70.9153 32.1627 70.6446 32.536C70.374 32.9 69.9773 33.18 69.4546 33.376C68.9413 33.572 68.3206 33.67 67.5926 33.67ZM67.5926 32.998C68.358 32.998 68.9553 32.8393 69.3846 32.522C69.814 32.2047 70.0286 31.78 70.0286 31.248C70.0286 30.688 69.8046 30.254 69.3566 29.946C68.918 29.6287 68.33 29.47 67.5926 29.47C66.8553 29.47 66.2673 29.6287 65.8286 29.946C65.39 30.254 65.1706 30.6833 65.1706 31.234C65.1706 31.7753 65.3806 32.2047 65.8006 32.522C66.23 32.8393 66.8273 32.998 67.5926 32.998ZM82.6384 31.08C83.2357 31.08 83.7537 31.1967 84.1924 31.43C84.6404 31.654 84.9857 31.9993 85.2284 32.466C85.4804 32.9327 85.6064 33.5207 85.6064 34.23V38.5H84.6124V34.328C84.6124 33.5533 84.4257 32.97 84.0524 32.578C83.6884 32.1767 83.1704 31.976 82.4984 31.976C81.9944 31.976 81.5557 32.0833 81.1824 32.298C80.8184 32.5033 80.5337 32.8067 80.3284 33.208C80.1324 33.6 80.0344 34.076 80.0344 34.636V38.5H79.0404V34.328C79.0404 33.5533 78.8537 32.97 78.4804 32.578C78.107 32.1767 77.5844 31.976 76.9124 31.976C76.4177 31.976 75.9837 32.0833 75.6104 32.298C75.237 32.5033 74.9477 32.8067 74.7424 33.208C74.5464 33.6 74.4484 34.076 74.4484 34.636V38.5H73.4544V31.15H74.4064V33.138L74.2524 32.788C74.4764 32.256 74.8357 31.8407 75.3304 31.542C75.8344 31.234 76.427 31.08 77.1084 31.08C77.827 31.08 78.4384 31.262 78.9424 31.626C79.4464 31.9807 79.773 32.5173 79.9224 33.236L79.5304 33.082C79.745 32.4847 80.123 32.004 80.6644 31.64C81.215 31.2667 81.873 31.08 82.6384 31.08Z" fill="#112211"/>
</svg>
