<svg width="160" height="46" viewBox="0 0 160 46" fill="none" xmlns="http://www.w3.org/2000/svg">
<path d="M6.688 16.66C5.83467 16.66 5.04 16.5213 4.304 16.244C3.57867 15.956 2.944 15.556 2.4 15.044C1.86667 14.5213 1.45067 13.908 1.152 13.204C0.853333 12.5 0.704 11.732 0.704 10.9C0.704 10.068 0.853333 9.3 1.152 8.596C1.45067 7.892 1.872 7.284 2.416 6.772C2.96 6.24933 3.59467 5.84933 4.32 5.572C5.04533 5.284 5.84 5.14 6.704 5.14C7.62133 5.14 8.45867 5.3 9.216 5.62C9.97333 5.92933 10.6133 6.39333 11.136 7.012L9.792 8.276C9.38667 7.83867 8.93333 7.51333 8.432 7.3C7.93067 7.076 7.38667 6.964 6.8 6.964C6.21333 6.964 5.67467 7.06 5.184 7.252C4.704 7.444 4.28267 7.716 3.92 8.068C3.568 8.42 3.29067 8.836 3.088 9.316C2.896 9.796 2.8 10.324 2.8 10.9C2.8 11.476 2.896 12.004 3.088 12.484C3.29067 12.964 3.568 13.38 3.92 13.732C4.28267 14.084 4.704 14.356 5.184 14.548C5.67467 14.74 6.21333 14.836 6.8 14.836C7.38667 14.836 7.93067 14.7293 8.432 14.516C8.93333 14.292 9.38667 13.956 9.792 13.508L11.136 14.788C10.6133 15.396 9.97333 15.86 9.216 16.18C8.45867 16.5 7.616 16.66 6.688 16.66ZM17.785 7.86C18.4677 7.86 19.0757 7.99333 19.609 8.26C20.153 8.52667 20.5797 8.93733 20.889 9.492C21.1983 10.036 21.353 10.74 21.353 11.604V16.5H19.353V11.86C19.353 11.1027 19.1717 10.5373 18.809 10.164C18.457 9.79067 17.961 9.604 17.321 9.604C16.8517 9.604 16.4357 9.7 16.073 9.892C15.7103 10.084 15.4277 10.372 15.225 10.756C15.033 11.1293 14.937 11.604 14.937 12.18V16.5H12.937V4.628H14.937V10.26L14.505 9.556C14.8037 9.012 15.2357 8.596 15.801 8.308C16.377 8.00933 17.0383 7.86 17.785 7.86ZM27.9218 16.612C26.9724 16.612 26.1404 16.4253 25.4258 16.052C24.7218 15.668 24.1724 15.1453 23.7778 14.484C23.3938 13.8227 23.2018 13.0707 23.2018 12.228C23.2018 11.3747 23.3884 10.6227 23.7618 9.972C24.1458 9.31067 24.6684 8.79333 25.3298 8.42C26.0018 8.04667 26.7644 7.86 27.6178 7.86C28.4498 7.86 29.1911 8.04133 29.8418 8.404C30.4924 8.76667 31.0044 9.27867 31.3778 9.94C31.7511 10.6013 31.9378 11.38 31.9378 12.276C31.9378 12.3613 31.9324 12.4573 31.9218 12.564C31.9218 12.6707 31.9164 12.772 31.9058 12.868H24.7858V11.54H30.8498L30.0658 11.956C30.0764 11.4653 29.9751 11.0333 29.7618 10.66C29.5484 10.2867 29.2551 9.99333 28.8818 9.78C28.5191 9.56667 28.0978 9.46 27.6178 9.46C27.1271 9.46 26.6951 9.56667 26.3218 9.78C25.9591 9.99333 25.6711 10.292 25.4578 10.676C25.2551 11.0493 25.1538 11.492 25.1538 12.004V12.324C25.1538 12.836 25.2711 13.2893 25.5058 13.684C25.7404 14.0787 26.0711 14.3827 26.4978 14.596C26.9244 14.8093 27.4151 14.916 27.9698 14.916C28.4498 14.916 28.8818 14.8413 29.2658 14.692C29.6498 14.5427 29.9911 14.308 30.2898 13.988L31.3618 15.22C30.9778 15.668 30.4924 16.0147 29.9058 16.26C29.3298 16.4947 28.6684 16.612 27.9218 16.612ZM38.8885 16.5V14.772L38.7765 14.404V11.38C38.7765 10.7933 38.6005 10.34 38.2485 10.02C37.8965 9.68933 37.3632 9.524 36.6485 9.524C36.1685 9.524 35.6938 9.59867 35.2245 9.748C34.7658 9.89733 34.3765 10.1053 34.0565 10.372L33.2725 8.916C33.7312 8.564 34.2752 8.30267 34.9045 8.132C35.5445 7.95067 36.2058 7.86 36.8885 7.86C38.1258 7.86 39.0805 8.15867 39.7525 8.756C40.4352 9.34267 40.7765 10.2547 40.7765 11.492V16.5H38.8885ZM36.2005 16.612C35.5605 16.612 35.0005 16.5053 34.5205 16.292C34.0405 16.068 33.6672 15.764 33.4005 15.38C33.1445 14.9853 33.0165 14.5427 33.0165 14.052C33.0165 13.572 33.1285 13.14 33.3525 12.756C33.5872 12.372 33.9658 12.068 34.4885 11.844C35.0112 11.62 35.7045 11.508 36.5685 11.508H39.0485V12.836H36.7125C36.0298 12.836 35.5712 12.948 35.3365 13.172C35.1018 13.3853 34.9845 13.652 34.9845 13.972C34.9845 14.3347 35.1285 14.6227 35.4165 14.836C35.7045 15.0493 36.1045 15.156 36.6165 15.156C37.1072 15.156 37.5445 15.044 37.9285 14.82C38.3232 14.596 38.6058 14.2653 38.7765 13.828L39.1125 15.028C38.9205 15.5293 38.5738 15.9187 38.0725 16.196C37.5818 16.4733 36.9578 16.612 36.2005 16.612ZM48.0793 16.612C47.3859 16.612 46.7513 16.452 46.1753 16.132C45.6099 15.812 45.1566 15.332 44.8153 14.692C44.4846 14.0413 44.3193 13.22 44.3193 12.228C44.3193 11.2253 44.4793 10.404 44.7993 9.764C45.1299 9.124 45.5779 8.64933 46.1432 8.34C46.7086 8.02 47.3539 7.86 48.0793 7.86C48.9219 7.86 49.6633 8.04133 50.3033 8.404C50.9539 8.76667 51.4659 9.27333 51.8393 9.924C52.2233 10.5747 52.4153 11.3427 52.4153 12.228C52.4153 13.1133 52.2233 13.8867 51.8393 14.548C51.4659 15.1987 50.9539 15.7053 50.3033 16.068C49.6633 16.4307 48.9219 16.612 48.0793 16.612ZM43.3433 19.604V7.956H45.2473V9.972L45.1833 12.244L45.3433 14.516V19.604H43.3433ZM47.8553 14.9C48.3353 14.9 48.7619 14.7933 49.1353 14.58C49.5193 14.3667 49.8233 14.0573 50.0473 13.652C50.2713 13.2467 50.3833 12.772 50.3833 12.228C50.3833 11.6733 50.2713 11.1987 50.0473 10.804C49.8233 10.3987 49.5193 10.0893 49.1353 9.876C48.7619 9.66267 48.3353 9.556 47.8553 9.556C47.3753 9.556 46.9433 9.66267 46.5593 9.876C46.1753 10.0893 45.8713 10.3987 45.6473 10.804C45.4233 11.1987 45.3113 11.6733 45.3113 12.228C45.3113 12.772 45.4233 13.2467 45.6473 13.652C45.8713 14.0573 46.1753 14.3667 46.5593 14.58C46.9433 14.7933 47.3753 14.9 47.8553 14.9ZM58.328 16.612C57.3787 16.612 56.5467 16.4253 55.832 16.052C55.128 15.668 54.5787 15.1453 54.184 14.484C53.8 13.8227 53.608 13.0707 53.608 12.228C53.608 11.3747 53.7947 10.6227 54.168 9.972C54.552 9.31067 55.0747 8.79333 55.736 8.42C56.408 8.04667 57.1707 7.86 58.024 7.86C58.856 7.86 59.5973 8.04133 60.248 8.404C60.8987 8.76667 61.4107 9.27867 61.784 9.94C62.1573 10.6013 62.344 11.38 62.344 12.276C62.344 12.3613 62.3387 12.4573 62.328 12.564C62.328 12.6707 62.3227 12.772 62.312 12.868H55.192V11.54H61.256L60.472 11.956C60.4827 11.4653 60.3813 11.0333 60.168 10.66C59.9547 10.2867 59.6613 9.99333 59.288 9.78C58.9253 9.56667 58.504 9.46 58.024 9.46C57.5333 9.46 57.1013 9.56667 56.728 9.78C56.3653 9.99333 56.0773 10.292 55.864 10.676C55.6613 11.0493 55.56 11.492 55.56 12.004V12.324C55.56 12.836 55.6773 13.2893 55.912 13.684C56.1467 14.0787 56.4773 14.3827 56.904 14.596C57.3307 14.8093 57.8213 14.916 58.376 14.916C58.856 14.916 59.288 14.8413 59.672 14.692C60.056 14.5427 60.3973 14.308 60.696 13.988L61.768 15.22C61.384 15.668 60.8987 16.0147 60.312 16.26C59.736 16.4947 59.0747 16.612 58.328 16.612ZM66.9051 16.612C66.1905 16.612 65.5025 16.5213 64.8411 16.34C64.1905 16.148 63.6731 15.9187 63.2891 15.652L64.0571 14.132C64.4411 14.3773 64.8998 14.58 65.4331 14.74C65.9665 14.9 66.4998 14.98 67.0331 14.98C67.6625 14.98 68.1158 14.8947 68.3931 14.724C68.6811 14.5533 68.8251 14.324 68.8251 14.036C68.8251 13.8013 68.7291 13.6253 68.5371 13.508C68.3451 13.38 68.0945 13.284 67.7851 13.22C67.4758 13.156 67.1291 13.0973 66.7451 13.044C66.3718 12.9907 65.9931 12.9213 65.6091 12.836C65.2358 12.74 64.8945 12.6067 64.5851 12.436C64.2758 12.2547 64.0251 12.0147 63.8331 11.716C63.6411 11.4173 63.5451 11.0227 63.5451 10.532C63.5451 9.988 63.6998 9.51867 64.0091 9.124C64.3185 8.71867 64.7505 8.40933 65.3051 8.196C65.8705 7.972 66.5371 7.86 67.3051 7.86C67.8811 7.86 68.4625 7.924 69.0491 8.052C69.6358 8.18 70.1211 8.36133 70.5051 8.596L69.7371 10.116C69.3318 9.87067 68.9211 9.70533 68.5051 9.62C68.0998 9.524 67.6945 9.476 67.2891 9.476C66.6811 9.476 66.2278 9.56667 65.9291 9.748C65.6411 9.92933 65.4971 10.1587 65.4971 10.436C65.4971 10.692 65.5931 10.884 65.7851 11.012C65.9771 11.14 66.2278 11.2413 66.5371 11.316C66.8465 11.3907 67.1878 11.4547 67.5611 11.508C67.9451 11.5507 68.3238 11.62 68.6971 11.716C69.0705 11.812 69.4118 11.9453 69.7211 12.116C70.0411 12.276 70.2971 12.5053 70.4891 12.804C70.6811 13.1027 70.7771 13.492 70.7771 13.972C70.7771 14.5053 70.6171 14.9693 70.2971 15.364C69.9878 15.7587 69.5451 16.068 68.9691 16.292C68.3931 16.5053 67.7051 16.612 66.9051 16.612ZM75.7155 16.612C74.7768 16.612 74.0515 16.372 73.5395 15.892C73.0275 15.4013 72.7715 14.6813 72.7715 13.732V6.068H74.7715V13.684C74.7715 14.0893 74.8728 14.404 75.0755 14.628C75.2888 14.852 75.5822 14.964 75.9555 14.964C76.4035 14.964 76.7768 14.8467 77.0755 14.612L77.6355 16.036C77.4008 16.228 77.1128 16.372 76.7715 16.468C76.4302 16.564 76.0782 16.612 75.7155 16.612ZM71.3635 9.62V8.02H77.0595V9.62H71.3635Z" fill="#112211"/>
<path opacity="0.4" d="M4.004 44.18V31.02H4.704V44.18H4.004ZM4.298 42.584C3.57 42.584 2.87 42.4673 2.198 42.234C1.53533 41.9913 1.022 41.6833 0.658 41.31L1.064 40.512C1.40933 40.848 1.87133 41.1327 2.45 41.366C3.038 41.59 3.654 41.702 4.298 41.702C4.914 41.702 5.41333 41.6273 5.796 41.478C6.188 41.3193 6.47267 41.1093 6.65 40.848C6.83667 40.5867 6.93 40.2973 6.93 39.98C6.93 39.5973 6.818 39.2893 6.594 39.056C6.37933 38.8227 6.09467 38.6407 5.74 38.51C5.38533 38.37 4.99333 38.2487 4.564 38.146C4.13467 38.0433 3.70533 37.936 3.276 37.824C2.84667 37.7027 2.45 37.544 2.086 37.348C1.73133 37.152 1.442 36.8953 1.218 36.578C1.00333 36.2513 0.896 35.8267 0.896 35.304C0.896 34.8187 1.022 34.3753 1.274 33.974C1.53533 33.5633 1.932 33.2367 2.464 32.994C2.996 32.742 3.67733 32.616 4.508 32.616C5.05867 32.616 5.60467 32.6953 6.146 32.854C6.68733 33.0033 7.154 33.2133 7.546 33.484L7.196 34.31C6.776 34.03 6.328 33.8247 5.852 33.694C5.38533 33.5633 4.93267 33.498 4.494 33.498C3.906 33.498 3.42067 33.5773 3.038 33.736C2.65533 33.8947 2.37067 34.1093 2.184 34.38C2.00667 34.6413 1.918 34.94 1.918 35.276C1.918 35.6587 2.02533 35.9667 2.24 36.2C2.464 36.4333 2.75333 36.6153 3.108 36.746C3.472 36.8767 3.86867 36.9933 4.298 37.096C4.72733 37.1987 5.152 37.3107 5.572 37.432C6.00133 37.5533 6.39333 37.712 6.748 37.908C7.112 38.0947 7.40133 38.3467 7.616 38.664C7.84 38.9813 7.952 39.3967 7.952 39.91C7.952 40.386 7.82133 40.8293 7.56 41.24C7.29867 41.6413 6.89733 41.968 6.356 42.22C5.824 42.4627 5.138 42.584 4.298 42.584ZM12.2566 32.616C13.1246 32.616 13.8572 32.812 14.4546 33.204C15.0519 33.5867 15.5046 34.142 15.8126 34.87C16.1206 35.598 16.2746 36.48 16.2746 37.516C16.2746 38.6173 16.0832 39.546 15.7006 40.302C15.3272 41.058 14.8046 41.6273 14.1326 42.01C13.4606 42.3927 12.6812 42.584 11.7946 42.584C11.3559 42.584 10.9359 42.542 10.5346 42.458C10.1426 42.374 9.7879 42.2387 9.47056 42.052L9.87656 41.24C10.1286 41.408 10.4179 41.5293 10.7446 41.604C11.0806 41.6693 11.4259 41.702 11.7806 41.702C12.8352 41.702 13.6752 41.366 14.3006 40.694C14.9352 40.022 15.2526 39.0187 15.2526 37.684C15.2526 37.4693 15.2386 37.2127 15.2106 36.914C15.1919 36.6153 15.1406 36.3167 15.0566 36.018L15.4066 36.284C15.3132 36.7693 15.1126 37.1847 14.8046 37.53C14.5059 37.866 14.1326 38.1227 13.6846 38.3C13.2459 38.4773 12.7559 38.566 12.2146 38.566C11.5706 38.566 10.9966 38.4447 10.4926 38.202C9.9979 37.9593 9.61056 37.6187 9.33056 37.18C9.05056 36.7413 8.91056 36.2233 8.91056 35.626C8.91056 35.01 9.05523 34.478 9.34456 34.03C9.6339 33.582 10.0306 33.2367 10.5346 32.994C11.0479 32.742 11.6219 32.616 12.2566 32.616ZM12.2986 33.47C11.8319 33.47 11.4166 33.5587 11.0526 33.736C10.6979 33.904 10.4179 34.1467 10.2126 34.464C10.0072 34.7813 9.90456 35.1593 9.90456 35.598C9.90456 36.242 10.1239 36.7553 10.5626 37.138C11.0106 37.5207 11.6126 37.712 12.3686 37.712C12.8726 37.712 13.3112 37.6187 13.6846 37.432C14.0672 37.2453 14.3612 36.9887 14.5666 36.662C14.7812 36.3353 14.8886 35.9713 14.8886 35.57C14.8886 35.206 14.7906 34.8653 14.5946 34.548C14.3986 34.2307 14.1092 33.974 13.7266 33.778C13.3439 33.5727 12.8679 33.47 12.2986 33.47ZM20.7878 32.616C21.6558 32.616 22.3885 32.812 22.9858 33.204C23.5831 33.5867 24.0358 34.142 24.3438 34.87C24.6518 35.598 24.8058 36.48 24.8058 37.516C24.8058 38.6173 24.6145 39.546 24.2318 40.302C23.8585 41.058 23.3358 41.6273 22.6638 42.01C21.9918 42.3927 21.2125 42.584 20.3258 42.584C19.8871 42.584 19.4671 42.542 19.0658 42.458C18.6738 42.374 18.3191 42.2387 18.0018 42.052L18.4078 41.24C18.6598 41.408 18.9491 41.5293 19.2758 41.604C19.6118 41.6693 19.9571 41.702 20.3118 41.702C21.3665 41.702 22.2065 41.366 22.8318 40.694C23.4665 40.022 23.7838 39.0187 23.7838 37.684C23.7838 37.4693 23.7698 37.2127 23.7418 36.914C23.7231 36.6153 23.6718 36.3167 23.5878 36.018L23.9378 36.284C23.8445 36.7693 23.6438 37.1847 23.3358 37.53C23.0371 37.866 22.6638 38.1227 22.2158 38.3C21.7771 38.4773 21.2871 38.566 20.7458 38.566C20.1018 38.566 19.5278 38.4447 19.0238 38.202C18.5291 37.9593 18.1418 37.6187 17.8618 37.18C17.5818 36.7413 17.4418 36.2233 17.4418 35.626C17.4418 35.01 17.5865 34.478 17.8758 34.03C18.1651 33.582 18.5618 33.2367 19.0658 32.994C19.5791 32.742 20.1531 32.616 20.7878 32.616ZM20.8298 33.47C20.3631 33.47 19.9478 33.5587 19.5838 33.736C19.2291 33.904 18.9491 34.1467 18.7438 34.464C18.5385 34.7813 18.4358 35.1593 18.4358 35.598C18.4358 36.242 18.6551 36.7553 19.0938 37.138C19.5418 37.5207 20.1438 37.712 20.8998 37.712C21.4038 37.712 21.8425 37.6187 22.2158 37.432C22.5985 37.2453 22.8925 36.9887 23.0978 36.662C23.3125 36.3353 23.4198 35.9713 23.4198 35.57C23.4198 35.206 23.3218 34.8653 23.1258 34.548C22.9298 34.2307 22.6405 33.974 22.2578 33.778C21.8751 33.5727 21.3991 33.47 20.8298 33.47Z" fill="#112211"/>
<path opacity="0.4" d="M31.484 42.57C31.2787 42.57 31.1013 42.4953 30.952 42.346C30.812 42.1967 30.742 42.0147 30.742 41.8C30.742 41.576 30.812 41.394 30.952 41.254C31.1013 41.114 31.2787 41.044 31.484 41.044C31.6893 41.044 31.862 41.114 32.002 41.254C32.1513 41.394 32.226 41.576 32.226 41.8C32.226 42.0147 32.1513 42.1967 32.002 42.346C31.862 42.4953 31.6893 42.57 31.484 42.57Z" fill="#112211"/>
<path opacity="0.4" d="M37.546 42.5V41.786L41.62 37.796C41.9933 37.432 42.2733 37.1147 42.46 36.844C42.6467 36.564 42.7727 36.3027 42.838 36.06C42.9033 35.8173 42.936 35.5887 42.936 35.374C42.936 34.8047 42.74 34.3567 42.348 34.03C41.9653 33.7033 41.396 33.54 40.64 33.54C40.0613 33.54 39.548 33.6287 39.1 33.806C38.6613 33.9833 38.2833 34.2587 37.966 34.632L37.252 34.016C37.6347 33.568 38.1247 33.2227 38.722 32.98C39.3193 32.7373 39.9867 32.616 40.724 32.616C41.3867 32.616 41.9607 32.7233 42.446 32.938C42.9313 33.1433 43.3047 33.4467 43.566 33.848C43.8367 34.2493 43.972 34.7207 43.972 35.262C43.972 35.5793 43.9253 35.892 43.832 36.2C43.748 36.508 43.5893 36.8347 43.356 37.18C43.132 37.516 42.8007 37.8987 42.362 38.328L38.624 41.996L38.344 41.604H44.42V42.5H37.546ZM50.095 35.08C50.6924 35.08 51.215 35.1967 51.663 35.43C52.1204 35.654 52.475 35.9993 52.727 36.466C52.9884 36.9327 53.119 37.5207 53.119 38.23V42.5H52.125V38.328C52.125 37.5533 51.929 36.97 51.537 36.578C51.1544 36.1767 50.613 35.976 49.913 35.976C49.3904 35.976 48.933 36.0833 48.541 36.298C48.1584 36.5033 47.8597 36.8067 47.645 37.208C47.4397 37.6 47.337 38.076 47.337 38.636V42.5H46.343V32.112H47.337V37.166L47.141 36.788C47.3744 36.256 47.7477 35.8407 48.261 35.542C48.7744 35.234 49.3857 35.08 50.095 35.08ZM60.518 42.5V33.12L60.966 33.596H58.208V32.7H61.526V42.5H60.518ZM67.5926 42.584C66.8086 42.584 66.132 42.472 65.5626 42.248C65.0026 42.024 64.5686 41.702 64.2606 41.282C63.962 40.8527 63.8126 40.3487 63.8126 39.77C63.8126 39.21 63.9573 38.734 64.2466 38.342C64.5453 37.9407 64.9746 37.6327 65.5346 37.418C66.104 37.2033 66.79 37.096 67.5926 37.096C68.386 37.096 69.0673 37.2033 69.6366 37.418C70.206 37.6327 70.64 37.9407 70.9386 38.342C71.2466 38.734 71.4006 39.21 71.4006 39.77C71.4006 40.3487 71.2466 40.8527 70.9386 41.282C70.6306 41.702 70.192 42.024 69.6226 42.248C69.0533 42.472 68.3766 42.584 67.5926 42.584ZM67.5926 41.73C68.4606 41.73 69.1373 41.5527 69.6226 41.198C70.1173 40.8433 70.3646 40.3627 70.3646 39.756C70.3646 39.1493 70.1173 38.6733 69.6226 38.328C69.1373 37.9733 68.4606 37.796 67.5926 37.796C66.7246 37.796 66.048 37.9733 65.5626 38.328C65.0773 38.6733 64.8346 39.1493 64.8346 39.756C64.8346 40.3627 65.0773 40.8433 65.5626 41.198C66.048 41.5527 66.7246 41.73 67.5926 41.73ZM67.5926 37.67C66.8646 37.67 66.244 37.572 65.7306 37.376C65.2266 37.18 64.8393 36.9 64.5686 36.536C64.298 36.1627 64.1626 35.7193 64.1626 35.206C64.1626 34.6647 64.3026 34.2027 64.5826 33.82C64.872 33.428 65.2733 33.1293 65.7866 32.924C66.3 32.7187 66.902 32.616 67.5926 32.616C68.2833 32.616 68.8853 32.7187 69.3986 32.924C69.9213 33.1293 70.3273 33.428 70.6166 33.82C70.906 34.2027 71.0506 34.6647 71.0506 35.206C71.0506 35.7193 70.9153 36.1627 70.6446 36.536C70.374 36.9 69.9773 37.18 69.4546 37.376C68.9413 37.572 68.3206 37.67 67.5926 37.67ZM67.5926 36.998C68.358 36.998 68.9553 36.8393 69.3846 36.522C69.814 36.2047 70.0286 35.78 70.0286 35.248C70.0286 34.688 69.8046 34.254 69.3566 33.946C68.918 33.6287 68.33 33.47 67.5926 33.47C66.8553 33.47 66.2673 33.6287 65.8286 33.946C65.39 34.254 65.1706 34.6833 65.1706 35.234C65.1706 35.7753 65.3806 36.2047 65.8006 36.522C66.23 36.8393 66.8273 36.998 67.5926 36.998ZM82.6384 35.08C83.2357 35.08 83.7537 35.1967 84.1924 35.43C84.6404 35.654 84.9857 35.9993 85.2284 36.466C85.4804 36.9327 85.6064 37.5207 85.6064 38.23V42.5H84.6124V38.328C84.6124 37.5533 84.4257 36.97 84.0524 36.578C83.6884 36.1767 83.1704 35.976 82.4984 35.976C81.9944 35.976 81.5557 36.0833 81.1824 36.298C80.8184 36.5033 80.5337 36.8067 80.3284 37.208C80.1324 37.6 80.0344 38.076 80.0344 38.636V42.5H79.0404V38.328C79.0404 37.5533 78.8537 36.97 78.4804 36.578C78.107 36.1767 77.5844 35.976 76.9124 35.976C76.4177 35.976 75.9837 36.0833 75.6104 36.298C75.237 36.5033 74.9477 36.8067 74.7424 37.208C74.5464 37.6 74.4484 38.076 74.4484 38.636V42.5H73.4544V35.15H74.4064V37.138L74.2524 36.788C74.4764 36.256 74.8357 35.8407 75.3304 35.542C75.8344 35.234 76.427 35.08 77.1084 35.08C77.827 35.08 78.4384 35.262 78.9424 35.626C79.4464 35.9807 79.773 36.5173 79.9224 37.236L79.5304 37.082C79.745 36.4847 80.123 36.004 80.6644 35.64C81.215 35.2667 81.873 35.08 82.6384 35.08Z" fill="#112211"/>
</svg>
