<svg width="181" height="32" viewBox="0 0 181 32" fill="none" xmlns="http://www.w3.org/2000/svg">
<rect x="0.5" y="0.5" width="39" height="31" rx="3.5" stroke="#8DD3BB"/>
<path d="M18.884 18.436H17.288V20.5H16.124V18.436H11.456V17.596L15.752 12.1H17.048L12.932 17.404H16.16V15.58H17.288V17.404H18.884V18.436ZM20.6297 20.572C20.4057 20.572 20.2137 20.496 20.0537 20.344C19.8937 20.184 19.8137 19.984 19.8137 19.744C19.8137 19.512 19.8937 19.32 20.0537 19.168C20.2137 19.008 20.4057 18.928 20.6297 18.928C20.8537 18.928 21.0417 19.004 21.1937 19.156C21.3457 19.308 21.4217 19.504 21.4217 19.744C21.4217 19.984 21.3417 20.184 21.1817 20.344C21.0297 20.496 20.8457 20.572 20.6297 20.572ZM28.5777 19.456V20.5H22.5417V19.684L25.9617 16.384C26.3777 15.984 26.6577 15.64 26.8017 15.352C26.9457 15.056 27.0177 14.76 27.0177 14.464C27.0177 14.024 26.8617 13.684 26.5497 13.444C26.2457 13.196 25.8057 13.072 25.2297 13.072C24.3017 13.072 23.5857 13.376 23.0817 13.984L22.2657 13.276C22.5937 12.876 23.0217 12.564 23.5497 12.34C24.0857 12.116 24.6817 12.004 25.3377 12.004C26.2177 12.004 26.9177 12.216 27.4377 12.64C27.9577 13.056 28.2177 13.624 28.2177 14.344C28.2177 14.792 28.1217 15.216 27.9297 15.616C27.7377 16.016 27.3737 16.472 26.8377 16.984L24.2697 19.456H28.5777Z" fill="#112211"/>
<path d="M55.14 12.1L52.548 18.1L49.992 12.1H47.892L51.516 20.5H53.436L57.072 12.1H55.14ZM63.4849 17.296C63.4849 15.22 62.0209 13.948 60.1249 13.948C58.1569 13.948 56.6809 15.34 56.6809 17.272C56.6809 19.192 58.1329 20.596 60.3649 20.596C61.5289 20.596 62.4289 20.236 63.0289 19.552L62.0329 18.472C61.5889 18.892 61.0969 19.096 60.4129 19.096C59.4289 19.096 58.7449 18.604 58.5649 17.8H63.4489C63.4609 17.644 63.4849 17.44 63.4849 17.296ZM60.1369 15.364C60.9769 15.364 61.5889 15.892 61.7209 16.708H58.5409C58.6729 15.88 59.2849 15.364 60.1369 15.364ZM66.5192 14.896V14.044H64.7312V20.5H66.6032V17.452C66.6032 16.216 67.2872 15.652 68.3192 15.652C68.4632 15.652 68.5832 15.664 68.7392 15.676V13.948C67.7432 13.948 66.9752 14.272 66.5192 14.896ZM74.6829 14.044L72.8589 18.424L71.0469 14.044H69.1149L71.9109 20.548L71.8869 20.608C71.6349 21.184 71.3469 21.412 70.8309 21.412C70.4589 21.412 70.0629 21.256 69.7749 21.004L69.0909 22.336C69.5109 22.708 70.2309 22.924 70.8909 22.924C72.0549 22.924 72.9429 22.456 73.5669 20.896L76.4829 14.044H74.6829ZM86.4533 18.628C85.9613 18.892 85.4693 18.988 84.9413 18.988C83.3333 18.988 82.2173 17.872 82.2173 16.3C82.2173 14.704 83.3333 13.612 84.9653 13.612C85.8173 13.612 86.5253 13.912 87.1373 14.56L88.3853 13.408C87.5693 12.46 86.3453 11.956 84.8693 11.956C82.1933 11.956 80.2493 13.768 80.2493 16.3C80.2493 18.832 82.1933 20.644 84.8333 20.644C86.0333 20.644 87.3053 20.272 88.2293 19.576V16.168H86.4533V18.628ZM92.9751 20.596C95.0271 20.596 96.5151 19.216 96.5151 17.272C96.5151 15.328 95.0271 13.948 92.9751 13.948C90.9231 13.948 89.4231 15.328 89.4231 17.272C89.4231 19.216 90.9231 20.596 92.9751 20.596ZM92.9751 19.06C92.0391 19.06 91.3191 18.388 91.3191 17.272C91.3191 16.156 92.0391 15.484 92.9751 15.484C93.9111 15.484 94.6191 16.156 94.6191 17.272C94.6191 18.388 93.9111 19.06 92.9751 19.06ZM100.838 20.596C102.89 20.596 104.378 19.216 104.378 17.272C104.378 15.328 102.89 13.948 100.838 13.948C98.7863 13.948 97.2863 15.328 97.2863 17.272C97.2863 19.216 98.7863 20.596 100.838 20.596ZM100.838 19.06C99.9023 19.06 99.1823 18.388 99.1823 17.272C99.1823 16.156 99.9023 15.484 100.838 15.484C101.774 15.484 102.482 16.156 102.482 17.272C102.482 18.388 101.774 19.06 100.838 19.06ZM110.334 11.596V14.728C109.866 14.2 109.194 13.948 108.402 13.948C106.578 13.948 105.174 15.244 105.174 17.272C105.174 19.3 106.578 20.596 108.402 20.596C109.266 20.596 109.95 20.32 110.418 19.756V20.5H112.206V11.596H110.334ZM108.726 19.06C107.79 19.06 107.07 18.388 107.07 17.272C107.07 16.156 107.79 15.484 108.726 15.484C109.65 15.484 110.37 16.156 110.37 17.272C110.37 18.388 109.65 19.06 108.726 19.06ZM119.273 15.448C120.473 15.448 121.353 15.676 121.913 16.132C122.481 16.58 122.765 17.196 122.765 17.98C122.765 18.476 122.645 18.924 122.405 19.324C122.173 19.716 121.817 20.028 121.337 20.26C120.865 20.484 120.281 20.596 119.585 20.596C118.993 20.596 118.421 20.508 117.869 20.332C117.317 20.148 116.861 19.896 116.501 19.576L117.053 18.628C117.341 18.9 117.709 19.12 118.157 19.288C118.605 19.448 119.077 19.528 119.573 19.528C120.205 19.528 120.693 19.396 121.037 19.132C121.389 18.86 121.565 18.492 121.565 18.028C121.565 17.524 121.373 17.144 120.989 16.888C120.605 16.624 119.949 16.492 119.021 16.492H117.113L117.557 12.1H122.297V13.144H118.565L118.337 15.448H119.273ZM129.476 17.404H131.072V18.436H129.476V20.5H128.312V18.436H123.644V17.596L127.94 12.1H129.236L125.12 17.404H128.348V15.58H129.476V17.404ZM136.634 15.208C136.834 14.84 137.13 14.56 137.521 14.368C137.914 14.176 138.39 14.08 138.95 14.08V15.196C138.886 15.188 138.798 15.184 138.686 15.184C138.062 15.184 137.57 15.372 137.21 15.748C136.858 16.116 136.682 16.644 136.682 17.332V20.5H135.53V14.14H136.634V15.208ZM146.059 17.356C146.059 17.444 146.051 17.56 146.035 17.704H140.875C140.947 18.264 141.191 18.716 141.607 19.06C142.031 19.396 142.555 19.564 143.179 19.564C143.939 19.564 144.551 19.308 145.015 18.796L145.651 19.54C145.363 19.876 145.003 20.132 144.571 20.308C144.147 20.484 143.671 20.572 143.143 20.572C142.471 20.572 141.875 20.436 141.355 20.164C140.835 19.884 140.431 19.496 140.143 19C139.863 18.504 139.723 17.944 139.723 17.32C139.723 16.704 139.859 16.148 140.131 15.652C140.411 15.156 140.791 14.772 141.271 14.5C141.759 14.22 142.307 14.08 142.915 14.08C143.523 14.08 144.063 14.22 144.535 14.5C145.015 14.772 145.387 15.156 145.651 15.652C145.923 16.148 146.059 16.716 146.059 17.356ZM142.915 15.052C142.363 15.052 141.899 15.22 141.523 15.556C141.155 15.892 140.939 16.332 140.875 16.876H144.955C144.891 16.34 144.671 15.904 144.295 15.568C143.927 15.224 143.467 15.052 142.915 15.052ZM149.809 19.24L152.041 14.14H153.169L150.385 20.5H149.209L146.425 14.14H147.625L149.809 19.24ZM155.396 20.5H154.244V14.14H155.396V20.5ZM154.82 12.916C154.596 12.916 154.408 12.844 154.256 12.7C154.112 12.556 154.04 12.38 154.04 12.172C154.04 11.964 154.112 11.788 154.256 11.644C154.408 11.492 154.596 11.416 154.82 11.416C155.044 11.416 155.228 11.488 155.372 11.632C155.524 11.768 155.6 11.94 155.6 12.148C155.6 12.364 155.524 12.548 155.372 12.7C155.228 12.844 155.044 12.916 154.82 12.916ZM163.344 17.356C163.344 17.444 163.336 17.56 163.32 17.704H158.16C158.232 18.264 158.476 18.716 158.892 19.06C159.316 19.396 159.84 19.564 160.464 19.564C161.224 19.564 161.836 19.308 162.3 18.796L162.936 19.54C162.648 19.876 162.288 20.132 161.856 20.308C161.432 20.484 160.956 20.572 160.428 20.572C159.756 20.572 159.16 20.436 158.64 20.164C158.12 19.884 157.716 19.496 157.428 19C157.148 18.504 157.008 17.944 157.008 17.32C157.008 16.704 157.144 16.148 157.416 15.652C157.696 15.156 158.076 14.772 158.556 14.5C159.044 14.22 159.592 14.08 160.2 14.08C160.808 14.08 161.348 14.22 161.82 14.5C162.3 14.772 162.672 15.156 162.936 15.652C163.208 16.148 163.344 16.716 163.344 17.356ZM160.2 15.052C159.648 15.052 159.184 15.22 158.808 15.556C158.44 15.892 158.224 16.332 158.16 16.876H162.24C162.176 16.34 161.956 15.904 161.58 15.568C161.212 15.224 160.752 15.052 160.2 15.052ZM171.522 19.228L173.418 14.14H174.45L172.074 20.5H170.97L169.134 15.676L167.274 20.5H166.17L163.806 14.14H164.898L166.746 19.204L168.666 14.14H169.638L171.522 19.228ZM177.361 20.572C176.841 20.572 176.341 20.504 175.861 20.368C175.381 20.224 175.005 20.044 174.733 19.828L175.213 18.916C175.493 19.116 175.833 19.276 176.233 19.396C176.633 19.516 177.037 19.576 177.445 19.576C178.453 19.576 178.957 19.288 178.957 18.712C178.957 18.52 178.889 18.368 178.753 18.256C178.617 18.144 178.445 18.064 178.237 18.016C178.037 17.96 177.749 17.9 177.373 17.836C176.861 17.756 176.441 17.664 176.113 17.56C175.793 17.456 175.517 17.28 175.285 17.032C175.053 16.784 174.937 16.436 174.937 15.988C174.937 15.412 175.177 14.952 175.657 14.608C176.137 14.256 176.781 14.08 177.589 14.08C178.013 14.08 178.437 14.132 178.861 14.236C179.285 14.34 179.633 14.48 179.905 14.656L179.413 15.568C178.893 15.232 178.281 15.064 177.577 15.064C177.089 15.064 176.717 15.144 176.461 15.304C176.205 15.464 176.077 15.676 176.077 15.94C176.077 16.148 176.149 16.312 176.293 16.432C176.437 16.552 176.613 16.64 176.821 16.696C177.037 16.752 177.337 16.816 177.721 16.888C178.233 16.976 178.645 17.072 178.957 17.176C179.277 17.272 179.549 17.44 179.773 17.68C179.997 17.92 180.109 18.256 180.109 18.688C180.109 19.264 179.861 19.724 179.365 20.068C178.877 20.404 178.209 20.572 177.361 20.572Z" fill="#112211"/>
</svg>
