<svg width="343" height="25" viewBox="0 0 343 25" fill="none" xmlns="http://www.w3.org/2000/svg">
<path d="M18.75 3.5H5.25C4.00736 3.5 3 4.50736 3 5.75V19.25C3 20.4926 4.00736 21.5 5.25 21.5H18.75C19.9926 21.5 21 20.4926 21 19.25V5.75C21 4.50736 19.9926 3.5 18.75 3.5Z" stroke="#112211" stroke-width="2" stroke-linejoin="round"/>
<path d="M34.73 12.834H39.784V14.038H34.73V12.834ZM34.87 18H33.47V8.2H40.386V9.418H34.87V18ZM42.1607 18V7.612H43.5047V18H42.1607ZM46.3929 20.8C46.0382 20.8 45.6929 20.7393 45.3569 20.618C45.0209 20.506 44.7315 20.338 44.4889 20.114L45.0629 19.106C45.2495 19.2833 45.4549 19.4187 45.6789 19.512C45.9029 19.6053 46.1409 19.652 46.3929 19.652C46.7195 19.652 46.9902 19.568 47.2049 19.4C47.4195 19.232 47.6202 18.9333 47.8069 18.504L48.2689 17.482L48.4089 17.314L51.3209 10.58H52.6369L49.0389 18.742C48.8242 19.2647 48.5815 19.6753 48.3109 19.974C48.0495 20.2727 47.7602 20.4827 47.4429 20.604C47.1255 20.7347 46.7755 20.8 46.3929 20.8ZM48.1569 18.238L44.7689 10.58H46.1689L49.0529 17.188L48.1569 18.238ZM57.847 18V8.2H61.977C63.0223 8.2 63.9416 8.40533 64.735 8.816C65.5376 9.22667 66.1583 9.80067 66.597 10.538C67.045 11.2753 67.269 12.1293 67.269 13.1C67.269 14.0707 67.045 14.9247 66.597 15.662C66.1583 16.3993 65.5376 16.9733 64.735 17.384C63.9416 17.7947 63.0223 18 61.977 18H57.847ZM59.247 16.782H61.893C62.705 16.782 63.405 16.628 63.993 16.32C64.5903 16.012 65.0523 15.5827 65.379 15.032C65.7056 14.472 65.869 13.828 65.869 13.1C65.869 12.3627 65.7056 11.7187 65.379 11.168C65.0523 10.6173 64.5903 10.188 63.993 9.88C63.405 9.572 62.705 9.418 61.893 9.418H59.247V16.782ZM72.3394 18.084C71.7047 18.084 71.1447 17.9673 70.6594 17.734C70.1834 17.5007 69.81 17.146 69.5394 16.67C69.278 16.1847 69.1474 15.578 69.1474 14.85V10.58H70.4914V14.696C70.4914 15.424 70.664 15.97 71.0094 16.334C71.364 16.698 71.8587 16.88 72.4934 16.88C72.96 16.88 73.366 16.7867 73.7114 16.6C74.0567 16.404 74.3227 16.124 74.5094 15.76C74.696 15.3867 74.7894 14.9387 74.7894 14.416V10.58H76.1334V18H74.8594V15.998L75.0694 16.53C74.8267 17.0247 74.4627 17.4073 73.9774 17.678C73.492 17.9487 72.946 18.084 72.3394 18.084ZM82.626 18.084C81.9913 18.084 81.4173 17.944 80.904 17.664C80.4 17.3747 79.9986 16.95 79.7 16.39C79.4106 15.83 79.266 15.13 79.266 14.29C79.266 13.45 79.4153 12.75 79.714 12.19C80.022 11.63 80.428 11.21 80.932 10.93C81.4453 10.65 82.01 10.51 82.626 10.51C83.354 10.51 83.998 10.6687 84.558 10.986C85.118 11.3033 85.5613 11.7467 85.888 12.316C86.2146 12.876 86.378 13.534 86.378 14.29C86.378 15.046 86.2146 15.7087 85.888 16.278C85.5613 16.8473 85.118 17.2907 84.558 17.608C83.998 17.9253 83.354 18.084 82.626 18.084ZM78.692 18V7.612H80.036V12.554L79.896 14.276L79.98 15.998V18H78.692ZM82.514 16.908C82.99 16.908 83.4146 16.8007 83.788 16.586C84.1706 16.3713 84.4693 16.068 84.684 15.676C84.908 15.2747 85.02 14.8127 85.02 14.29C85.02 13.758 84.908 13.3007 84.684 12.918C84.4693 12.526 84.1706 12.2227 83.788 12.008C83.4146 11.7933 82.99 11.686 82.514 11.686C82.0473 11.686 81.6226 11.7933 81.24 12.008C80.8666 12.2227 80.568 12.526 80.344 12.918C80.1293 13.3007 80.022 13.758 80.022 14.29C80.022 14.8127 80.1293 15.2747 80.344 15.676C80.568 16.068 80.8666 16.3713 81.24 16.586C81.6226 16.8007 82.0473 16.908 82.514 16.908ZM92.7726 18V16.432L92.7026 16.138V13.464C92.7026 12.8947 92.5346 12.456 92.1986 12.148C91.8719 11.8307 91.3772 11.672 90.7146 11.672C90.2759 11.672 89.8466 11.7467 89.4266 11.896C89.0066 12.036 88.6519 12.2273 88.3626 12.47L87.8026 11.462C88.1852 11.154 88.6426 10.9207 89.1746 10.762C89.7159 10.594 90.2806 10.51 90.8686 10.51C91.8859 10.51 92.6699 10.7573 93.2206 11.252C93.7712 11.7467 94.0466 12.5027 94.0466 13.52V18H92.7726ZM90.3366 18.084C89.7859 18.084 89.3006 17.9907 88.8806 17.804C88.4699 17.6173 88.1526 17.3607 87.9286 17.034C87.7046 16.698 87.5926 16.32 87.5926 15.9C87.5926 15.4987 87.6859 15.1347 87.8726 14.808C88.0686 14.4813 88.3812 14.22 88.8106 14.024C89.2492 13.828 89.8372 13.73 90.5746 13.73H92.9266V14.696H90.6306C89.9586 14.696 89.5059 14.808 89.2726 15.032C89.0392 15.256 88.9226 15.5267 88.9226 15.844C88.9226 16.208 89.0672 16.502 89.3566 16.726C89.6459 16.9407 90.0472 17.048 90.5606 17.048C91.0646 17.048 91.5032 16.936 91.8766 16.712C92.2592 16.488 92.5346 16.1613 92.7026 15.732L92.9686 16.656C92.7912 17.0947 92.4786 17.4447 92.0306 17.706C91.5826 17.958 91.0179 18.084 90.3366 18.084ZM96.5338 18V10.58H97.8778V18H96.5338ZM97.2058 9.152C96.9444 9.152 96.7251 9.068 96.5478 8.9C96.3798 8.732 96.2958 8.52667 96.2958 8.284C96.2958 8.032 96.3798 7.822 96.5478 7.654C96.7251 7.486 96.9444 7.402 97.2058 7.402C97.4671 7.402 97.6818 7.486 97.8498 7.654C98.0271 7.81267 98.1158 8.01333 98.1158 8.256C98.1158 8.508 98.0318 8.72267 97.8638 8.9C97.6958 9.068 97.4764 9.152 97.2058 9.152Z" fill="#112211"/>
</svg>
