<svg width="174" height="14" viewBox="0 0 174 14" fill="none" xmlns="http://www.w3.org/2000/svg">
<path d="M4.354 11.14C7.042 11.14 8.316 9.796 8.316 8.228C8.316 4.63 2.506 5.988 2.506 3.902C2.506 3.16 3.122 2.572 4.634 2.572C5.488 2.572 6.454 2.824 7.336 3.342L7.91 1.928C7.056 1.368 5.824 1.06 4.648 1.06C1.96 1.06 0.7 2.404 0.7 3.986C0.7 7.626 6.524 6.24 6.524 8.354C6.524 9.082 5.88 9.628 4.354 9.628C3.15 9.628 1.904 9.18 1.12 8.55L0.49 9.964C1.302 10.664 2.828 11.14 4.354 11.14ZM14.1947 3.44C13.1587 3.44 12.2767 3.776 11.7027 4.392V0.611999H9.95269V11H11.7027V7.22C11.7027 5.722 12.5427 4.966 13.7887 4.966C14.9087 4.966 15.5667 5.61 15.5667 6.94V11H17.3167V6.716C17.3167 4.462 15.9867 3.44 14.1947 3.44ZM22.965 11.098C25.289 11.098 26.955 9.502 26.955 7.262C26.955 5.022 25.289 3.44 22.965 3.44C20.669 3.44 18.989 5.022 18.989 7.262C18.989 9.502 20.669 11.098 22.965 11.098ZM22.965 9.6C21.705 9.6 20.753 8.69 20.753 7.262C20.753 5.834 21.705 4.924 22.965 4.924C24.239 4.924 25.191 5.834 25.191 7.262C25.191 8.69 24.239 9.6 22.965 9.6ZM38.5314 3.524L36.5014 9.068L34.4854 3.524H33.0154L30.9574 9.04L28.9834 3.524H27.3314L30.0754 11H31.7554L33.7154 5.848L35.6474 11H37.3274L40.0854 3.524H38.5314ZM42.1706 2.292C42.8286 2.292 43.2906 1.816 43.2906 1.2C43.2906 0.625999 42.8146 0.192 42.1706 0.192C41.5266 0.192 41.0506 0.654 41.0506 1.242C41.0506 1.83 41.5266 2.292 42.1706 2.292ZM41.2886 11H43.0386V3.524H41.2886V11ZM49.5775 3.44C48.4855 3.44 47.5755 3.804 47.0015 4.49V3.524H45.3355V11H47.0855V7.22C47.0855 5.722 47.9255 4.966 49.1715 4.966C50.2915 4.966 50.9495 5.61 50.9495 6.94V11H52.6995V6.716C52.6995 4.462 51.3695 3.44 49.5775 3.44ZM60.7418 3.524V4.518C60.1258 3.776 59.2018 3.44 58.1518 3.44C56.0098 3.44 54.3718 4.868 54.3718 7.038C54.3718 9.208 56.0098 10.664 58.1518 10.664C59.1598 10.664 60.0418 10.342 60.6578 9.67V10.062C60.6578 11.574 59.9298 12.33 58.2778 12.33C57.2418 12.33 56.1778 11.98 55.5198 11.434L54.7358 12.75C55.5898 13.45 56.9758 13.814 58.3758 13.814C60.9938 13.814 62.4078 12.582 62.4078 9.866V3.524H60.7418ZM58.4178 9.18C57.0878 9.18 56.1358 8.312 56.1358 7.038C56.1358 5.778 57.0878 4.924 58.4178 4.924C59.7338 4.924 60.6858 5.778 60.6858 7.038C60.6858 8.312 59.7338 9.18 58.4178 9.18ZM76.7817 7.234H75.0457V5.26H73.3377V7.234H70.1317L74.6817 1.2H72.7357L67.9057 7.514V8.774H73.2817V11H75.0457V8.774H76.7817V7.234ZM85.3088 11.098C87.6328 11.098 89.2988 9.502 89.2988 7.262C89.2988 5.022 87.6328 3.44 85.3088 3.44C83.0128 3.44 81.3328 5.022 81.3328 7.262C81.3328 9.502 83.0128 11.098 85.3088 11.098ZM85.3088 9.6C84.0488 9.6 83.0968 8.69 83.0968 7.262C83.0968 5.834 84.0488 4.924 85.3088 4.924C86.5828 4.924 87.5348 5.834 87.5348 7.262C87.5348 8.69 86.5828 9.6 85.3088 9.6ZM94.0102 1.928C94.3742 1.928 94.7102 2.054 94.9762 2.236L95.4662 0.92C95.0742 0.64 94.4862 0.514 93.8842 0.514C92.1482 0.514 91.2102 1.536 91.2102 3.104V3.58H89.9782V4.98H91.2102V11H92.9602V4.98H94.9622V3.58H92.9042V3.132C92.9042 2.334 93.2822 1.928 94.0102 1.928Z" fill="#112211"/>
<path d="M101.955 9.46L104.573 6.968C105.931 5.694 106.197 4.826 106.197 3.874C106.197 2.138 104.825 1.06 102.697 1.06C101.087 1.06 99.7293 1.662 98.9733 2.684L100.247 3.664C100.793 2.964 101.591 2.642 102.543 2.642C103.747 2.642 104.363 3.16 104.363 4.056C104.363 4.602 104.195 5.176 103.243 6.086L99.3513 9.782V11H106.575V9.46H101.955ZM110.692 4.994H109.754L109.964 2.726H114.178V1.2H108.424L107.92 6.534H110.286C112.316 6.534 112.918 7.122 112.918 8.06C112.918 8.984 112.148 9.558 110.846 9.558C109.74 9.558 108.676 9.18 107.962 8.592L107.192 10.006C108.088 10.72 109.488 11.14 110.874 11.14C113.506 11.14 114.752 9.712 114.752 7.99C114.752 6.254 113.59 4.994 110.692 4.994ZM115.4 1.2V4.406H117.094V2.74H120.944L117.262 11H119.208L123.016 2.418V1.2H115.4ZM132.687 3.44C131.665 3.44 130.797 3.79 130.209 4.504V3.524H128.543V13.716H130.293V10.09C130.895 10.776 131.735 11.098 132.687 11.098C134.871 11.098 136.481 9.586 136.481 7.262C136.481 4.952 134.871 3.44 132.687 3.44ZM132.491 9.6C131.231 9.6 130.265 8.69 130.265 7.262C130.265 5.834 131.231 4.924 132.491 4.924C133.751 4.924 134.703 5.834 134.703 7.262C134.703 8.69 133.751 9.6 132.491 9.6ZM138.14 11H139.89V0.611999H138.14V11ZM145.043 3.44C143.839 3.44 142.677 3.748 141.879 4.364L142.565 5.638C143.125 5.176 143.993 4.896 144.833 4.896C146.079 4.896 146.695 5.498 146.695 6.52V6.632H144.763C142.495 6.632 141.655 7.612 141.655 8.858C141.655 10.16 142.733 11.098 144.441 11.098C145.561 11.098 146.373 10.734 146.793 10.09V11H148.445V6.618C148.445 4.462 147.199 3.44 145.043 3.44ZM144.805 9.824C143.909 9.824 143.377 9.418 143.377 8.788C143.377 8.242 143.699 7.794 144.889 7.794H146.695V8.662C146.401 9.432 145.659 9.824 144.805 9.824ZM154.189 11.098C155.645 11.098 156.807 10.468 157.381 9.348L156.037 8.564C155.589 9.278 154.917 9.6 154.175 9.6C152.887 9.6 151.907 8.718 151.907 7.262C151.907 5.82 152.887 4.924 154.175 4.924C154.917 4.924 155.589 5.246 156.037 5.96L157.381 5.176C156.807 4.042 155.645 3.44 154.189 3.44C151.823 3.44 150.143 5.022 150.143 7.262C150.143 9.502 151.823 11.098 154.189 11.098ZM165.813 7.304C165.813 4.966 164.217 3.44 162.033 3.44C159.807 3.44 158.169 5.036 158.169 7.262C158.169 9.488 159.793 11.098 162.299 11.098C163.587 11.098 164.637 10.678 165.309 9.88L164.371 8.802C163.839 9.348 163.181 9.614 162.341 9.614C161.039 9.614 160.129 8.914 159.919 7.822H165.785C165.799 7.654 165.813 7.444 165.813 7.304ZM162.033 4.84C163.181 4.84 164.007 5.582 164.147 6.66H159.905C160.073 5.568 160.899 4.84 162.033 4.84ZM169.804 11.098C171.904 11.098 173.192 10.188 173.192 8.788C173.192 5.862 168.572 7.206 168.572 5.694C168.572 5.204 169.076 4.854 170.14 4.854C170.854 4.854 171.568 4.994 172.282 5.414L172.954 4.084C172.282 3.678 171.148 3.44 170.154 3.44C168.138 3.44 166.864 4.364 166.864 5.778C166.864 8.76 171.484 7.416 171.484 8.844C171.484 9.362 171.022 9.67 169.916 9.67C168.978 9.67 167.97 9.362 167.312 8.928L166.64 10.258C167.312 10.734 168.558 11.098 169.804 11.098Z" fill="#FF8682"/>
</svg>
