<svg width="298" height="64" viewBox="0 0 298 64" fill="none" xmlns="http://www.w3.org/2000/svg">
<rect x="1.16699" y="8.5" width="296.333" height="55" rx="3.5" fill="white"/>
<rect x="1.16699" y="8.5" width="296.333" height="55" rx="3.5" stroke="#79747E"/>
<path d="M16.811 30.8V31.824H19.451V42H20.603V30.8H16.811ZM32.6517 30.8H28.4597V42H29.6437V38.464H32.6517C35.4997 38.464 37.2277 37.024 37.2277 34.64C37.2277 32.24 35.4997 30.8 32.6517 30.8ZM32.6197 37.424H29.6437V31.824H32.6197C34.8597 31.824 36.0437 32.848 36.0437 34.64C36.0437 36.4 34.8597 37.424 32.6197 37.424ZM42.4137 33.52C41.0857 33.52 39.8377 33.936 38.9897 34.656L39.5017 35.504C40.1897 34.896 41.2137 34.512 42.3017 34.512C43.8697 34.512 44.6857 35.296 44.6857 36.736V37.248H42.0137C39.5977 37.248 38.7657 38.336 38.7657 39.632C38.7657 41.088 39.9337 42.08 41.8377 42.08C43.2297 42.08 44.2217 41.552 44.7337 40.688V42H45.8217V36.784C45.8217 34.608 44.5897 33.52 42.4137 33.52ZM42.0137 41.184C40.6697 41.184 39.8857 40.576 39.8857 39.6C39.8857 38.736 40.4137 38.096 42.0457 38.096H44.6857V39.472C44.2377 40.576 43.2937 41.184 42.0137 41.184ZM51.1632 42.08C53.3552 42.08 54.6352 41.136 54.6352 39.68C54.6352 36.448 49.1792 38.16 49.1792 35.888C49.1792 35.088 49.8512 34.496 51.3712 34.496C52.2352 34.496 53.1152 34.704 53.8512 35.216L54.3472 34.304C53.6432 33.824 52.4592 33.52 51.3712 33.52C49.2272 33.52 48.0432 34.544 48.0432 35.92C48.0432 39.248 53.4992 37.52 53.4992 39.712C53.4992 40.544 52.8432 41.088 51.2432 41.088C50.0592 41.088 48.9232 40.672 48.2512 40.144L47.7392 41.04C48.4272 41.632 49.7712 42.08 51.1632 42.08ZM58.9914 42.08C61.1834 42.08 62.4634 41.136 62.4634 39.68C62.4634 36.448 57.0074 38.16 57.0074 35.888C57.0074 35.088 57.6794 34.496 59.1994 34.496C60.0634 34.496 60.9434 34.704 61.6794 35.216L62.1754 34.304C61.4714 33.824 60.2874 33.52 59.1994 33.52C57.0554 33.52 55.8714 34.544 55.8714 35.92C55.8714 39.248 61.3274 37.52 61.3274 39.712C61.3274 40.544 60.6714 41.088 59.0714 41.088C57.8874 41.088 56.7514 40.672 56.0794 40.144L55.5674 41.04C56.2554 41.632 57.5994 42.08 58.9914 42.08ZM71.9075 37.792C71.9075 35.264 70.1955 33.52 67.8275 33.52C65.4595 33.52 63.7155 35.296 63.7155 37.792C63.7155 40.288 65.5075 42.08 68.1315 42.08C69.4595 42.08 70.6275 41.6 71.3795 40.704L70.7395 39.968C70.0995 40.704 69.1875 41.072 68.1635 41.072C66.3235 41.072 64.9795 39.904 64.8515 38.144H71.8915C71.8915 38.016 71.9075 37.888 71.9075 37.792ZM67.8275 34.496C69.4755 34.496 70.6755 35.648 70.8195 37.296H64.8515C64.9955 35.648 66.1955 34.496 67.8275 34.496ZM78.5077 33.52C77.0517 33.52 75.9157 34.112 75.3077 35.136V33.584H74.2197V42H75.3557V37.584C75.3557 35.664 76.4917 34.544 78.2997 34.544C79.8997 34.544 80.8277 35.456 80.8277 37.232V42H81.9637V37.12C81.9637 34.704 80.5557 33.52 78.5077 33.52ZM91.7831 33.584V35.2C91.0791 34.096 89.8631 33.52 88.4551 33.52C86.0551 33.52 84.2311 35.168 84.2311 37.584C84.2311 40 86.0551 41.68 88.4551 41.68C89.8311 41.68 91.0311 41.12 91.7351 40.048V41.12C91.7351 43.2 90.7591 44.176 88.6311 44.176C87.3351 44.176 86.1191 43.744 85.3191 43.024L84.7431 43.888C85.6231 44.72 87.1271 45.184 88.6631 45.184C91.4471 45.184 92.8711 43.872 92.8711 40.976V33.584H91.7831ZM88.5671 40.672C86.7111 40.672 85.3831 39.408 85.3831 37.584C85.3831 35.76 86.7111 34.512 88.5671 34.512C90.4231 34.512 91.7671 35.76 91.7671 37.584C91.7671 39.408 90.4231 40.672 88.5671 40.672ZM103.392 37.792C103.392 35.264 101.68 33.52 99.3119 33.52C96.9439 33.52 95.1999 35.296 95.1999 37.792C95.1999 40.288 96.9919 42.08 99.6159 42.08C100.944 42.08 102.112 41.6 102.864 40.704L102.224 39.968C101.584 40.704 100.672 41.072 99.6479 41.072C97.8079 41.072 96.4639 39.904 96.3359 38.144H103.376C103.376 38.016 103.392 37.888 103.392 37.792ZM99.3119 34.496C100.96 34.496 102.16 35.648 102.304 37.296H96.3359C96.4799 35.648 97.6799 34.496 99.3119 34.496ZM106.792 35.232V33.584H105.704V42H106.84V37.712C106.84 35.728 107.912 34.608 109.672 34.608C109.752 34.608 109.848 34.624 109.944 34.624V33.52C108.392 33.52 107.32 34.112 106.792 35.232ZM112.098 40.336C111.618 40.336 111.25 40.704 111.25 41.2C111.25 41.616 111.49 41.92 111.826 42.016L111.282 44.336H112.05L112.722 42.128C112.882 41.68 112.946 41.472 112.946 41.2C112.946 40.72 112.594 40.336 112.098 40.336ZM120.972 40.976V36.816H126.764V35.808H120.972V31.824H127.468V30.8H119.788V42H127.708V40.976H120.972ZM133.614 42.08C135.038 42.08 136.238 41.504 136.91 40.416L136.062 39.84C135.486 40.688 134.59 41.072 133.614 41.072C131.774 41.072 130.43 39.776 130.43 37.792C130.43 35.824 131.774 34.512 133.614 34.512C134.59 34.512 135.486 34.912 136.062 35.76L136.91 35.184C136.238 34.08 135.038 33.52 133.614 33.52C131.102 33.52 129.278 35.28 129.278 37.792C129.278 40.304 131.102 42.08 133.614 42.08ZM142.441 42.08C144.905 42.08 146.713 40.288 146.713 37.792C146.713 35.296 144.905 33.52 142.441 33.52C139.977 33.52 138.153 35.296 138.153 37.792C138.153 40.288 139.977 42.08 142.441 42.08ZM142.441 41.072C140.649 41.072 139.305 39.76 139.305 37.792C139.305 35.824 140.649 34.512 142.441 34.512C144.233 34.512 145.561 35.824 145.561 37.792C145.561 39.76 144.233 41.072 142.441 41.072ZM153.32 33.52C151.864 33.52 150.728 34.112 150.12 35.136V33.584H149.032V42H150.168V37.584C150.168 35.664 151.304 34.544 153.112 34.544C154.712 34.544 155.64 35.456 155.64 37.232V42H156.776V37.12C156.776 34.704 155.368 33.52 153.32 33.52ZM163.332 42.08C165.796 42.08 167.604 40.288 167.604 37.792C167.604 35.296 165.796 33.52 163.332 33.52C160.868 33.52 159.044 35.296 159.044 37.792C159.044 40.288 160.868 42.08 163.332 42.08ZM163.332 41.072C161.54 41.072 160.196 39.76 160.196 37.792C160.196 35.824 161.54 34.512 163.332 34.512C165.124 34.512 166.452 35.824 166.452 37.792C166.452 39.76 165.124 41.072 163.332 41.072ZM180.419 33.52C178.899 33.52 177.699 34.208 177.091 35.296C176.579 34.112 175.491 33.52 174.099 33.52C172.691 33.52 171.603 34.112 171.011 35.12V33.584H169.923V42H171.059V37.584C171.059 35.664 172.163 34.544 173.875 34.544C175.411 34.544 176.307 35.456 176.307 37.232V42H177.443V37.584C177.443 35.664 178.531 34.544 180.259 34.544C181.779 34.544 182.675 35.456 182.675 37.232V42H183.811V37.12C183.811 34.704 182.467 33.52 180.419 33.52ZM192.687 33.584L189.519 40.736L186.351 33.584H185.167L188.927 41.984L188.559 42.8C188.079 43.856 187.567 44.208 186.815 44.208C186.207 44.208 185.695 43.984 185.279 43.568L184.751 44.416C185.263 44.928 186.015 45.184 186.799 45.184C187.999 45.184 188.895 44.656 189.599 43.008L193.807 33.584H192.687Z" fill="#1C1B1F"/>
<rect width="130" height="17" transform="translate(12.667)" fill="white"/>
<path d="M21.931 4.2H18.263V14H19.299V10.906H21.931C24.423 10.906 25.935 9.646 25.935 7.56C25.935 5.46 24.423 4.2 21.931 4.2ZM21.903 9.996H19.299V5.096H21.903C23.863 5.096 24.899 5.992 24.899 7.56C24.899 9.1 23.863 9.996 21.903 9.996ZM30.4727 6.58C29.3107 6.58 28.2187 6.944 27.4767 7.574L27.9247 8.316C28.5267 7.784 29.4227 7.448 30.3747 7.448C31.7467 7.448 32.4607 8.134 32.4607 9.394V9.842H30.1227C28.0087 9.842 27.2807 10.794 27.2807 11.928C27.2807 13.202 28.3027 14.07 29.9687 14.07C31.1867 14.07 32.0547 13.608 32.5027 12.852V14H33.4547V9.436C33.4547 7.532 32.3767 6.58 30.4727 6.58ZM30.1227 13.286C28.9467 13.286 28.2607 12.754 28.2607 11.9C28.2607 11.144 28.7227 10.584 30.1507 10.584H32.4607V11.788C32.0687 12.754 31.2427 13.286 30.1227 13.286ZM38.1286 14.07C40.0466 14.07 41.1666 13.244 41.1666 11.97C41.1666 9.142 36.3926 10.64 36.3926 8.652C36.3926 7.952 36.9806 7.434 38.3106 7.434C39.0666 7.434 39.8366 7.616 40.4806 8.064L40.9146 7.266C40.2986 6.846 39.2626 6.58 38.3106 6.58C36.4346 6.58 35.3986 7.476 35.3986 8.68C35.3986 11.592 40.1726 10.08 40.1726 11.998C40.1726 12.726 39.5986 13.202 38.1986 13.202C37.1626 13.202 36.1686 12.838 35.5806 12.376L35.1326 13.16C35.7346 13.678 36.9106 14.07 38.1286 14.07ZM44.9782 14.07C46.8962 14.07 48.0162 13.244 48.0162 11.97C48.0162 9.142 43.2422 10.64 43.2422 8.652C43.2422 7.952 43.8302 7.434 45.1602 7.434C45.9162 7.434 46.6862 7.616 47.3302 8.064L47.7642 7.266C47.1482 6.846 46.1122 6.58 45.1602 6.58C43.2842 6.58 42.2482 7.476 42.2482 8.68C42.2482 11.592 47.0222 10.08 47.0222 11.998C47.0222 12.726 46.4482 13.202 45.0482 13.202C44.0122 13.202 43.0182 12.838 42.4302 12.376L41.9822 13.16C42.5842 13.678 43.7602 14.07 44.9782 14.07ZM56.2798 10.318C56.2798 8.106 54.7818 6.58 52.7098 6.58C50.6378 6.58 49.1118 8.134 49.1118 10.318C49.1118 12.502 50.6798 14.07 52.9758 14.07C54.1378 14.07 55.1598 13.65 55.8178 12.866L55.2578 12.222C54.6978 12.866 53.8998 13.188 53.0038 13.188C51.3938 13.188 50.2178 12.166 50.1058 10.626H56.2658C56.2658 10.514 56.2798 10.402 56.2798 10.318ZM52.7098 7.434C54.1518 7.434 55.2018 8.442 55.3278 9.884H50.1058C50.2318 8.442 51.2818 7.434 52.7098 7.434ZM62.055 6.58C60.781 6.58 59.787 7.098 59.255 7.994V6.636H58.303V14H59.297V10.136C59.297 8.456 60.291 7.476 61.873 7.476C63.273 7.476 64.085 8.274 64.085 9.828V14H65.079V9.73C65.079 7.616 63.847 6.58 62.055 6.58ZM73.6709 6.636V8.05C73.0549 7.084 71.9909 6.58 70.7589 6.58C68.6589 6.58 67.0629 8.022 67.0629 10.136C67.0629 12.25 68.6589 13.72 70.7589 13.72C71.9629 13.72 73.0129 13.23 73.6289 12.292V13.23C73.6289 15.05 72.7749 15.904 70.9129 15.904C69.7789 15.904 68.7149 15.526 68.0149 14.896L67.5109 15.652C68.2809 16.38 69.5969 16.786 70.9409 16.786C73.3769 16.786 74.6229 15.638 74.6229 13.104V6.636H73.6709ZM70.8569 12.838C69.2329 12.838 68.0709 11.732 68.0709 10.136C68.0709 8.54 69.2329 7.448 70.8569 7.448C72.4809 7.448 73.6569 8.54 73.6569 10.136C73.6569 11.732 72.4809 12.838 70.8569 12.838ZM83.8286 10.318C83.8286 8.106 82.3306 6.58 80.2586 6.58C78.1866 6.58 76.6606 8.134 76.6606 10.318C76.6606 12.502 78.2286 14.07 80.5246 14.07C81.6866 14.07 82.7086 13.65 83.3666 12.866L82.8066 12.222C82.2466 12.866 81.4486 13.188 80.5526 13.188C78.9426 13.188 77.7666 12.166 77.6546 10.626H83.8146C83.8146 10.514 83.8286 10.402 83.8286 10.318ZM80.2586 7.434C81.7006 7.434 82.7506 8.442 82.8766 9.884H77.6546C77.7806 8.442 78.8306 7.434 80.2586 7.434ZM86.8038 8.078V6.636H85.8518V14H86.8458V10.248C86.8458 8.512 87.7838 7.532 89.3238 7.532C89.3938 7.532 89.4778 7.546 89.5618 7.546V6.58C88.2038 6.58 87.2658 7.098 86.8038 8.078ZM94.589 10.64H98.257V9.772H94.589V10.64ZM108.611 14.084C110.053 14.084 111.341 13.594 112.209 12.642L111.551 11.984C110.753 12.81 109.773 13.16 108.653 13.16C106.287 13.16 104.509 11.424 104.509 9.1C104.509 6.776 106.287 5.04 108.653 5.04C109.773 5.04 110.753 5.39 111.551 6.202L112.209 5.544C111.341 4.592 110.053 4.116 108.625 4.116C105.671 4.116 103.487 6.23 103.487 9.1C103.487 11.97 105.671 14.084 108.611 14.084ZM114.207 14H115.201V3.612H114.207V14ZM120.543 6.58C119.381 6.58 118.289 6.944 117.547 7.574L117.995 8.316C118.597 7.784 119.493 7.448 120.445 7.448C121.817 7.448 122.531 8.134 122.531 9.394V9.842H120.193C118.079 9.842 117.351 10.794 117.351 11.928C117.351 13.202 118.373 14.07 120.039 14.07C121.257 14.07 122.125 13.608 122.573 12.852V14H123.525V9.436C123.525 7.532 122.447 6.58 120.543 6.58ZM120.193 13.286C119.017 13.286 118.331 12.754 118.331 11.9C118.331 11.144 118.793 10.584 120.221 10.584H122.531V11.788C122.139 12.754 121.313 13.286 120.193 13.286ZM128.199 14.07C130.117 14.07 131.237 13.244 131.237 11.97C131.237 9.142 126.463 10.64 126.463 8.652C126.463 7.952 127.051 7.434 128.381 7.434C129.137 7.434 129.907 7.616 130.551 8.064L130.985 7.266C130.369 6.846 129.333 6.58 128.381 6.58C126.505 6.58 125.469 7.476 125.469 8.68C125.469 11.592 130.243 10.08 130.243 11.998C130.243 12.726 129.669 13.202 128.269 13.202C127.233 13.202 126.239 12.838 125.651 12.376L125.203 13.16C125.805 13.678 126.981 14.07 128.199 14.07ZM135.048 14.07C136.966 14.07 138.086 13.244 138.086 11.97C138.086 9.142 133.312 10.64 133.312 8.652C133.312 7.952 133.9 7.434 135.23 7.434C135.986 7.434 136.756 7.616 137.4 8.064L137.834 7.266C137.218 6.846 136.182 6.58 135.23 6.58C133.354 6.58 132.318 7.476 132.318 8.68C132.318 11.592 137.092 10.08 137.092 11.998C137.092 12.726 136.518 13.202 135.118 13.202C134.082 13.202 133.088 12.838 132.5 12.376L132.052 13.16C132.654 13.678 133.83 14.07 135.048 14.07Z" fill="#1C1B1F"/>
</svg>
