<svg width="141" height="64" viewBox="0 0 141 64" fill="none" xmlns="http://www.w3.org/2000/svg">
<rect x="0.833008" y="8.5" width="139" height="55" rx="3.5" fill="white"/>
<rect x="0.833008" y="8.5" width="139" height="55" rx="3.5" stroke="#79747E"/>
<path d="M27.101 42L24.365 38.16C25.997 37.632 26.925 36.4 26.925 34.64C26.925 32.24 25.197 30.8 22.349 30.8H18.157V42H19.341V38.448H22.349C22.669 38.448 22.957 38.432 23.245 38.4L25.805 42H27.101ZM22.317 37.44H19.341V31.824H22.317C24.557 31.824 25.741 32.848 25.741 34.64C25.741 36.4 24.557 37.44 22.317 37.44ZM36.8235 37.792C36.8235 35.264 35.1115 33.52 32.7435 33.52C30.3755 33.52 28.6315 35.296 28.6315 37.792C28.6315 40.288 30.4235 42.08 33.0475 42.08C34.3755 42.08 35.5435 41.6 36.2955 40.704L35.6555 39.968C35.0155 40.704 34.1035 41.072 33.0795 41.072C31.2395 41.072 29.8955 39.904 29.7675 38.144H36.8075C36.8075 38.016 36.8235 37.888 36.8235 37.792ZM32.7435 34.496C34.3915 34.496 35.5915 35.648 35.7355 37.296H29.7675C29.9115 35.648 31.1115 34.496 32.7435 34.496ZM43.1678 40.672C42.8478 40.96 42.3838 41.104 41.9198 41.104C40.9758 41.104 40.4638 40.56 40.4638 39.568V34.544H43.0238V33.584H40.4638V31.744H39.3278V33.584H37.8238V34.544H39.3278V39.632C39.3278 41.184 40.2078 42.08 41.7918 42.08C42.4478 42.08 43.1198 41.888 43.5678 41.488L43.1678 40.672ZM52.0838 33.584V38C52.0838 39.92 50.9798 41.056 49.2198 41.056C47.6198 41.056 46.6918 40.144 46.6918 38.352V33.584H45.5558V38.464C45.5558 40.88 46.9638 42.08 49.1078 42.08C50.4518 42.08 51.5398 41.488 52.1318 40.464V42H53.2198V33.584H52.0838ZM57.4894 35.232V33.584H56.4014V42H57.5374V37.712C57.5374 35.728 58.6094 34.608 60.3694 34.608C60.4494 34.608 60.5454 34.624 60.6414 34.624V33.52C59.0894 33.52 58.0174 34.112 57.4894 35.232ZM66.9863 33.52C65.5303 33.52 64.3943 34.112 63.7863 35.136V33.584H62.6983V42H63.8343V37.584C63.8343 35.664 64.9703 34.544 66.7783 34.544C68.3783 34.544 69.3063 35.456 69.3063 37.232V42H70.4423V37.12C70.4423 34.704 69.0343 33.52 66.9863 33.52Z" fill="#1C1B1F"/>
<rect width="35" height="17" transform="translate(12.333)" fill="white"/>
<path d="M19.833 14H20.869V5.096H24.313V4.2H16.389V5.096H19.833V14ZM26.5187 8.078V6.636H25.5667V14H26.5607V10.248C26.5607 8.512 27.4987 7.532 29.0387 7.532C29.1087 7.532 29.1927 7.546 29.2767 7.546V6.58C27.9187 6.58 26.9807 7.098 26.5187 8.078ZM31.5804 5.026C32.0004 5.026 32.3084 4.704 32.3084 4.298C32.3084 3.92 31.9864 3.612 31.5804 3.612C31.1744 3.612 30.8524 3.934 30.8524 4.312C30.8524 4.704 31.1744 5.026 31.5804 5.026ZM31.0764 14H32.0704V6.636H31.0764V14ZM38.6302 6.58C37.4122 6.58 36.3902 7.112 35.7882 8.092V6.636H34.8362V16.716H35.8302V12.614C36.4462 13.566 37.4542 14.07 38.6302 14.07C40.7302 14.07 42.2982 12.558 42.2982 10.318C42.2982 8.092 40.7302 6.58 38.6302 6.58ZM38.5602 13.188C36.9922 13.188 35.8162 12.04 35.8162 10.318C35.8162 8.61 36.9922 7.448 38.5602 7.448C40.1142 7.448 41.3042 8.61 41.3042 10.318C41.3042 12.04 40.1142 13.188 38.5602 13.188Z" fill="#112211"/>
<path d="M109.583 33L116.333 39.75L123.083 33" stroke="black" stroke-width="1.5" stroke-linecap="round" stroke-linejoin="round"/>
</svg>
