<svg width="298" height="64" viewBox="0 0 298 64" fill="none" xmlns="http://www.w3.org/2000/svg">
<rect x="0.5" y="8.5" width="296.333" height="55" rx="3.5" fill="white"/>
<rect x="0.5" y="8.5" width="296.333" height="55" rx="3.5" stroke="#79747E"/>
<path d="M17.824 42H25.28V40.976H19.008V30.8H17.824V42ZM29.9811 33.52C28.6531 33.52 27.4051 33.936 26.5571 34.656L27.0691 35.504C27.7571 34.896 28.7811 34.512 29.8691 34.512C31.4371 34.512 32.2531 35.296 32.2531 36.736V37.248H29.5811C27.1651 37.248 26.3331 38.336 26.3331 39.632C26.3331 41.088 27.5011 42.08 29.4051 42.08C30.7971 42.08 31.7891 41.552 32.3011 40.688V42H33.3891V36.784C33.3891 34.608 32.1571 33.52 29.9811 33.52ZM29.5811 41.184C28.2371 41.184 27.4531 40.576 27.4531 39.6C27.4531 38.736 27.9811 38.096 29.6131 38.096H32.2531V39.472C31.8051 40.576 30.8611 41.184 29.5811 41.184ZM40.7626 33.52C39.3386 33.52 38.2346 34.08 37.6106 35.056V30.128H36.4746V42H37.6106V37.584C37.6106 35.664 38.7466 34.544 40.5546 34.544C42.1546 34.544 43.0826 35.456 43.0826 37.232V42H44.2186V37.12C44.2186 34.704 42.8106 33.52 40.7626 33.52ZM50.774 42.08C53.238 42.08 55.046 40.288 55.046 37.792C55.046 35.296 53.238 33.52 50.774 33.52C48.31 33.52 46.486 35.296 46.486 37.792C46.486 40.288 48.31 42.08 50.774 42.08ZM50.774 41.072C48.982 41.072 47.638 39.76 47.638 37.792C47.638 35.824 48.982 34.512 50.774 34.512C52.566 34.512 53.894 35.824 53.894 37.792C53.894 39.76 52.566 41.072 50.774 41.072ZM58.4533 35.232V33.584H57.3653V42H58.5013V37.712C58.5013 35.728 59.5733 34.608 61.3333 34.608C61.4133 34.608 61.5093 34.624 61.6053 34.624V33.52C60.0533 33.52 58.9813 34.112 58.4533 35.232ZM70.928 37.792C70.928 35.264 69.216 33.52 66.848 33.52C64.48 33.52 62.736 35.296 62.736 37.792C62.736 40.288 64.528 42.08 67.152 42.08C68.48 42.08 69.648 41.6 70.4 40.704L69.76 39.968C69.12 40.704 68.208 41.072 67.184 41.072C65.344 41.072 64 39.904 63.872 38.144H70.912C70.912 38.016 70.928 37.888 70.928 37.792ZM66.848 34.496C68.496 34.496 69.696 35.648 69.84 37.296H63.872C64.016 35.648 65.216 34.496 66.848 34.496ZM76.8038 38.16H80.9958V37.168H76.8038V38.16ZM96.0126 42H97.4206L92.2366 35.872L97.0846 30.8H95.7246L89.1486 37.568V30.8H87.9646V42H89.1486V39.056L91.4366 36.736L96.0126 42ZM101.825 33.52C100.497 33.52 99.2489 33.936 98.4009 34.656L98.9129 35.504C99.6009 34.896 100.625 34.512 101.713 34.512C103.281 34.512 104.097 35.296 104.097 36.736V37.248H101.425C99.0089 37.248 98.1769 38.336 98.1769 39.632C98.1769 41.088 99.3449 42.08 101.249 42.08C102.641 42.08 103.633 41.552 104.145 40.688V42H105.233V36.784C105.233 34.608 104.001 33.52 101.825 33.52ZM101.425 41.184C100.081 41.184 99.2969 40.576 99.2969 39.6C99.2969 38.736 99.8249 38.096 101.457 38.096H104.097V39.472C103.649 40.576 102.705 41.184 101.425 41.184ZM109.406 35.232V33.584H108.318V42H109.454V37.712C109.454 35.728 110.526 34.608 112.286 34.608C112.366 34.608 112.462 34.624 112.558 34.624V33.52C111.006 33.52 109.934 34.112 109.406 35.232ZM117.544 33.52C116.216 33.52 114.968 33.936 114.12 34.656L114.632 35.504C115.32 34.896 116.344 34.512 117.432 34.512C119 34.512 119.816 35.296 119.816 36.736V37.248H117.144C114.728 37.248 113.896 38.336 113.896 39.632C113.896 41.088 115.064 42.08 116.968 42.08C118.36 42.08 119.352 41.552 119.864 40.688V42H120.952V36.784C120.952 34.608 119.72 33.52 117.544 33.52ZM117.144 41.184C115.8 41.184 115.016 40.576 115.016 39.6C115.016 38.736 115.544 38.096 117.176 38.096H119.816V39.472C119.368 40.576 118.424 41.184 117.144 41.184ZM127.556 42.08C128.98 42.08 130.18 41.504 130.852 40.416L130.004 39.84C129.428 40.688 128.532 41.072 127.556 41.072C125.716 41.072 124.372 39.776 124.372 37.792C124.372 35.824 125.716 34.512 127.556 34.512C128.532 34.512 129.428 34.912 130.004 35.76L130.852 35.184C130.18 34.08 128.98 33.52 127.556 33.52C125.044 33.52 123.22 35.28 123.22 37.792C123.22 40.304 125.044 42.08 127.556 42.08ZM137.247 33.52C135.823 33.52 134.719 34.08 134.095 35.056V30.128H132.959V42H134.095V37.584C134.095 35.664 135.231 34.544 137.039 34.544C138.639 34.544 139.567 35.456 139.567 37.232V42H140.703V37.12C140.703 34.704 139.295 33.52 137.247 33.52ZM144.363 31.744C144.843 31.744 145.195 31.376 145.195 30.912C145.195 30.48 144.827 30.128 144.363 30.128C143.899 30.128 143.531 30.496 143.531 30.928C143.531 31.376 143.899 31.744 144.363 31.744ZM143.787 42H144.923V33.584H143.787V42Z" fill="#1C1B1F"/>
<rect width="75" height="17" transform="translate(12)" fill="white"/>
<path d="M24.316 5.096V4.2H17.596V14H18.632V9.842H23.7V8.946H18.632V5.096H24.316ZM27.0607 8.078V6.636H26.1087V14H27.1027V10.248C27.1027 8.512 28.0407 7.532 29.5807 7.532C29.6507 7.532 29.7347 7.546 29.8187 7.546V6.58C28.4607 6.58 27.5227 7.098 27.0607 8.078ZM34.5601 14.07C36.7161 14.07 38.2981 12.502 38.2981 10.318C38.2981 8.134 36.7161 6.58 34.5601 6.58C32.4041 6.58 30.8081 8.134 30.8081 10.318C30.8081 12.502 32.4041 14.07 34.5601 14.07ZM34.5601 13.188C32.9921 13.188 31.8161 12.04 31.8161 10.318C31.8161 8.596 32.9921 7.448 34.5601 7.448C36.1281 7.448 37.2901 8.596 37.2901 10.318C37.2901 12.04 36.1281 13.188 34.5601 13.188ZM49.5114 6.58C48.1814 6.58 47.1314 7.182 46.5994 8.134C46.1514 7.098 45.1994 6.58 43.9814 6.58C42.7494 6.58 41.7974 7.098 41.2794 7.98V6.636H40.3274V14H41.3214V10.136C41.3214 8.456 42.2874 7.476 43.7854 7.476C45.1294 7.476 45.9134 8.274 45.9134 9.828V14H46.9074V10.136C46.9074 8.456 47.8594 7.476 49.3714 7.476C50.7014 7.476 51.4854 8.274 51.4854 9.828V14H52.4794V9.73C52.4794 7.616 51.3034 6.58 49.5114 6.58ZM58.2931 10.64H61.9611V9.772H58.2931V10.64ZM69.9629 14H70.9989V5.096H74.4429V4.2H66.5189V5.096H69.9629V14ZM78.1323 14.07C80.2883 14.07 81.8703 12.502 81.8703 10.318C81.8703 8.134 80.2883 6.58 78.1323 6.58C75.9763 6.58 74.3803 8.134 74.3803 10.318C74.3803 12.502 75.9763 14.07 78.1323 14.07ZM78.1323 13.188C76.5643 13.188 75.3883 12.04 75.3883 10.318C75.3883 8.596 76.5643 7.448 78.1323 7.448C79.7003 7.448 80.8623 8.596 80.8623 10.318C80.8623 12.04 79.7003 13.188 78.1323 13.188Z" fill="#112211"/>
<path d="M275.583 26.25L280.833 31.5L275.583 36.75M280.03 31.5H265.833M271.083 45.75L265.833 40.5L271.083 35.25M266.677 40.5H280.833" stroke="black" stroke-width="1.5" stroke-linecap="round" stroke-linejoin="round"/>
</svg>
