<svg width="298" height="64" viewBox="0 0 298 64" fill="none" xmlns="http://www.w3.org/2000/svg">
<rect x="0.833008" y="8.5" width="296.333" height="55" rx="3.5" fill="white"/>
<rect x="0.833008" y="8.5" width="296.333" height="55" rx="3.5" stroke="#79747E"/>
<path d="M21.629 42.096C24.221 42.096 26.109 39.968 26.109 36.4C26.109 32.832 24.221 30.704 21.629 30.704C19.037 30.704 17.165 32.832 17.165 36.4C17.165 39.968 19.037 42.096 21.629 42.096ZM21.629 41.04C19.677 41.04 18.333 39.392 18.333 36.4C18.333 33.408 19.677 31.76 21.629 31.76C23.581 31.76 24.925 33.408 24.925 36.4C24.925 39.392 23.581 41.04 21.629 41.04ZM27.3138 30.8V33.92H28.4498V31.824H34.2098L29.6018 42H30.8498L35.5378 31.616V30.8H27.3138ZM50.4271 30.8V39.888L43.2111 30.8H42.2351V42H43.4191V32.912L50.6191 42H51.5951V30.8H50.4271ZM58.4508 42.08C60.9148 42.08 62.7228 40.288 62.7228 37.792C62.7228 35.296 60.9148 33.52 58.4508 33.52C55.9868 33.52 54.1628 35.296 54.1628 37.792C54.1628 40.288 55.9868 42.08 58.4508 42.08ZM58.4508 41.072C56.6588 41.072 55.3148 39.76 55.3148 37.792C55.3148 35.824 56.6588 34.512 58.4508 34.512C60.2428 34.512 61.5708 35.824 61.5708 37.792C61.5708 39.76 60.2428 41.072 58.4508 41.072ZM70.7596 33.584L67.5756 40.752L64.4236 33.584H63.2396L66.9676 42H68.1356L71.8796 33.584H70.7596ZM78.403 40.976L82.211 37.232C83.715 35.76 84.051 34.8 84.051 33.728C84.051 31.856 82.611 30.704 80.339 30.704C78.627 30.704 77.235 31.28 76.371 32.304L77.187 33.008C77.923 32.16 78.931 31.76 80.243 31.76C81.955 31.76 82.867 32.56 82.867 33.856C82.867 34.624 82.627 35.376 81.363 36.624L76.707 41.184V42H84.563V40.976H78.403ZM87.4968 40.976L91.3048 37.232C92.8088 35.76 93.1448 34.8 93.1448 33.728C93.1448 31.856 91.7048 30.704 89.4328 30.704C87.7208 30.704 86.3288 31.28 85.4648 32.304L86.2808 33.008C87.0168 32.16 88.0248 31.76 89.3368 31.76C91.0488 31.76 91.9608 32.56 91.9608 33.856C91.9608 34.624 91.7208 35.376 90.4568 36.624L85.8008 41.184V42H93.6568V40.976H87.4968ZM99.418 38.16H103.61V37.168H99.418V38.16ZM108.899 30.8V31.824H111.539V42H112.691V30.8H108.899ZM119.176 35.6L122.344 31.616V30.8H115.144V31.824H120.872L117.768 35.712V36.56H118.568C120.648 36.56 121.592 37.44 121.592 38.784C121.592 40.176 120.568 41.04 118.712 41.04C117.256 41.04 115.96 40.496 115.24 39.744L114.68 40.656C115.544 41.536 117.096 42.096 118.712 42.096C121.416 42.096 122.776 40.656 122.776 38.784C122.776 36.992 121.576 35.728 119.176 35.6ZM137.771 30.8V39.888L130.555 30.8H129.579V42H130.763V32.912L137.963 42H138.939V30.8H137.771ZM145.795 42.08C148.259 42.08 150.067 40.288 150.067 37.792C150.067 35.296 148.259 33.52 145.795 33.52C143.331 33.52 141.507 35.296 141.507 37.792C141.507 40.288 143.331 42.08 145.795 42.08ZM145.795 41.072C144.003 41.072 142.659 39.76 142.659 37.792C142.659 35.824 144.003 34.512 145.795 34.512C147.587 34.512 148.915 35.824 148.915 37.792C148.915 39.76 147.587 41.072 145.795 41.072ZM158.103 33.584L154.919 40.752L151.767 33.584H150.583L154.311 42H155.479L159.223 33.584H158.103ZM165.747 40.976L169.555 37.232C171.059 35.76 171.395 34.8 171.395 33.728C171.395 31.856 169.955 30.704 167.683 30.704C165.971 30.704 164.579 31.28 163.715 32.304L164.531 33.008C165.267 32.16 166.275 31.76 167.587 31.76C169.299 31.76 170.211 32.56 170.211 33.856C170.211 34.624 169.971 35.376 168.707 36.624L164.051 41.184V42H171.907V40.976H165.747ZM174.841 40.976L178.649 37.232C180.153 35.76 180.489 34.8 180.489 33.728C180.489 31.856 179.049 30.704 176.777 30.704C175.065 30.704 173.673 31.28 172.809 32.304L173.625 33.008C174.361 32.16 175.369 31.76 176.681 31.76C178.393 31.76 179.305 32.56 179.305 33.856C179.305 34.624 179.065 35.376 177.801 36.624L173.145 41.184V42H181.001V40.976H174.841Z" fill="#1C1B1F"/>
<rect width="115" height="17" transform="translate(12.333)" fill="white"/>
<path d="M17.929 14H21.919C25.055 14 27.169 11.984 27.169 9.1C27.169 6.216 25.055 4.2 21.919 4.2H17.929V14ZM18.965 13.104V5.096H21.863C24.467 5.096 26.147 6.748 26.147 9.1C26.147 11.452 24.467 13.104 21.863 13.104H18.965ZM35.7114 10.318C35.7114 8.106 34.2134 6.58 32.1414 6.58C30.0694 6.58 28.5434 8.134 28.5434 10.318C28.5434 12.502 30.1114 14.07 32.4074 14.07C33.5694 14.07 34.5914 13.65 35.2494 12.866L34.6894 12.222C34.1294 12.866 33.3314 13.188 32.4354 13.188C30.8254 13.188 29.6494 12.166 29.5374 10.626H35.6974C35.6974 10.514 35.7114 10.402 35.7114 10.318ZM32.1414 7.434C33.5834 7.434 34.6334 8.442 34.7594 9.884H29.5374C29.6634 8.442 30.7134 7.434 32.1414 7.434ZM41.5286 6.58C40.3106 6.58 39.2886 7.112 38.6866 8.092V6.636H37.7346V16.716H38.7286V12.614C39.3446 13.566 40.3526 14.07 41.5286 14.07C43.6286 14.07 45.1966 12.558 45.1966 10.318C45.1966 8.092 43.6286 6.58 41.5286 6.58ZM41.4586 13.188C39.8906 13.188 38.7146 12.04 38.7146 10.318C38.7146 8.61 39.8906 7.448 41.4586 7.448C43.0126 7.448 44.2026 8.61 44.2026 10.318C44.2026 12.04 43.0126 13.188 41.4586 13.188ZM49.7579 6.58C48.5959 6.58 47.5039 6.944 46.7619 7.574L47.2099 8.316C47.8119 7.784 48.7079 7.448 49.6599 7.448C51.0319 7.448 51.7459 8.134 51.7459 9.394V9.842H49.4079C47.2939 9.842 46.5659 10.794 46.5659 11.928C46.5659 13.202 47.5879 14.07 49.2539 14.07C50.4719 14.07 51.3399 13.608 51.7879 12.852V14H52.7399V9.436C52.7399 7.532 51.6619 6.58 49.7579 6.58ZM49.4079 13.286C48.2319 13.286 47.5459 12.754 47.5459 11.9C47.5459 11.144 48.0079 10.584 49.4359 10.584H51.7459V11.788C51.3539 12.754 50.5279 13.286 49.4079 13.286ZM56.3917 8.078V6.636H55.4397V14H56.4337V10.248C56.4337 8.512 57.3717 7.532 58.9117 7.532C58.9817 7.532 59.0657 7.546 59.1497 7.546V6.58C57.7917 6.58 56.8537 7.098 56.3917 8.078ZM64.7919 12.838C64.5119 13.09 64.1059 13.216 63.6999 13.216C62.8739 13.216 62.4259 12.74 62.4259 11.872V7.476H64.6659V6.636H62.4259V5.026H61.4319V6.636H60.1159V7.476H61.4319V11.928C61.4319 13.286 62.2019 14.07 63.5879 14.07C64.1619 14.07 64.7499 13.902 65.1419 13.552L64.7919 12.838ZM66.2687 10.64H69.9367V9.772H66.2687V10.64ZM83.8605 14L81.4665 10.64C82.8945 10.178 83.7065 9.1 83.7065 7.56C83.7065 5.46 82.1945 4.2 79.7025 4.2H76.0345V14H77.0705V10.892H79.7025C79.9825 10.892 80.2345 10.878 80.4865 10.85L82.7265 14H83.8605ZM79.6745 10.01H77.0705V5.096H79.6745C81.6345 5.096 82.6705 5.992 82.6705 7.56C82.6705 9.1 81.6345 10.01 79.6745 10.01ZM92.3677 10.318C92.3677 8.106 90.8697 6.58 88.7977 6.58C86.7257 6.58 85.1997 8.134 85.1997 10.318C85.1997 12.502 86.7677 14.07 89.0637 14.07C90.2257 14.07 91.2477 13.65 91.9057 12.866L91.3457 12.222C90.7857 12.866 89.9877 13.188 89.0917 13.188C87.4817 13.188 86.3057 12.166 86.1937 10.626H92.3537C92.3537 10.514 92.3677 10.402 92.3677 10.318ZM88.7977 7.434C90.2397 7.434 91.2897 8.442 91.4157 9.884H86.1937C86.3197 8.442 87.3697 7.434 88.7977 7.434ZM97.9189 12.838C97.6389 13.09 97.2329 13.216 96.8269 13.216C96.0009 13.216 95.5529 12.74 95.5529 11.872V7.476H97.7929V6.636H95.5529V5.026H94.5589V6.636H93.2429V7.476H94.5589V11.928C94.5589 13.286 95.3289 14.07 96.7149 14.07C97.2889 14.07 97.8769 13.902 98.2689 13.552L97.9189 12.838ZM105.72 6.636V10.5C105.72 12.18 104.754 13.174 103.214 13.174C101.814 13.174 101.002 12.376 101.002 10.808V6.636H100.008V10.906C100.008 13.02 101.24 14.07 103.116 14.07C104.292 14.07 105.244 13.552 105.762 12.656V14H106.714V6.636H105.72ZM110.45 8.078V6.636H109.498V14H110.492V10.248C110.492 8.512 111.43 7.532 112.97 7.532C113.04 7.532 113.124 7.546 113.208 7.546V6.58C111.85 6.58 110.912 7.098 110.45 8.078ZM118.76 6.58C117.486 6.58 116.492 7.098 115.96 7.994V6.636H115.008V14H116.002V10.136C116.002 8.456 116.996 7.476 118.578 7.476C119.978 7.476 120.79 8.274 120.79 9.828V14H121.784V9.73C121.784 7.616 120.552 6.58 118.76 6.58Z" fill="#1C1B1F"/>
</svg>
