<svg width="324" height="64" viewBox="0 0 324 64" fill="none" xmlns="http://www.w3.org/2000/svg">
<rect x="0.5" y="8.5" width="323" height="55" rx="3.5" fill="white"/>
<rect x="0.5" y="8.5" width="323" height="55" rx="3.5" stroke="#79747E"/>
<path d="M18.784 42V31.28L19.296 31.824H16.144V30.8H19.936V42H18.784ZM27.7928 42V30.8H31.9848C32.9341 30.8 33.7501 30.9547 34.4328 31.264C35.1154 31.5627 35.6381 32 36.0008 32.576C36.3741 33.1413 36.5608 33.8293 36.5608 34.64C36.5608 35.4293 36.3741 36.112 36.0008 36.688C35.6381 37.2533 35.1154 37.6907 34.4328 38C33.7501 38.3093 32.9341 38.464 31.9848 38.464H28.4488L28.9768 37.904V42H27.7928ZM28.9768 38L28.4488 37.424H31.9528C33.0728 37.424 33.9208 37.184 34.4968 36.704C35.0834 36.2133 35.3767 35.5253 35.3767 34.64C35.3767 33.744 35.0834 33.0507 34.4968 32.56C33.9208 32.0693 33.0728 31.824 31.9528 31.824H28.4488L28.9768 31.264V38ZM44.0668 42V40.144L44.0188 39.84V36.736C44.0188 36.0213 43.8161 35.472 43.4108 35.088C43.0161 34.704 42.4241 34.512 41.6348 34.512C41.0908 34.512 40.5734 34.6027 40.0828 34.784C39.5921 34.9653 39.1761 35.2053 38.8348 35.504L38.3228 34.656C38.7494 34.2933 39.2614 34.016 39.8588 33.824C40.4561 33.6213 41.0854 33.52 41.7468 33.52C42.8348 33.52 43.6721 33.792 44.2588 34.336C44.8561 34.8693 45.1548 35.6853 45.1548 36.784V42H44.0668ZM41.1708 42.08C40.5414 42.08 39.9921 41.9787 39.5228 41.776C39.0641 41.5627 38.7121 41.2747 38.4668 40.912C38.2214 40.5387 38.0988 40.112 38.0988 39.632C38.0988 39.1947 38.2001 38.8 38.4028 38.448C38.6161 38.0853 38.9574 37.7973 39.4268 37.584C39.9068 37.36 40.5468 37.248 41.3468 37.248H44.2428V38.096H41.3788C40.5681 38.096 40.0028 38.24 39.6828 38.528C39.3734 38.816 39.2188 39.1733 39.2188 39.6C39.2188 40.08 39.4054 40.464 39.7788 40.752C40.1521 41.04 40.6748 41.184 41.3468 41.184C41.9868 41.184 42.5361 41.04 42.9948 40.752C43.4641 40.4533 43.8054 40.0267 44.0188 39.472L44.2748 40.256C44.0614 40.8107 43.6881 41.2533 43.1548 41.584C42.6321 41.9147 41.9708 42.08 41.1708 42.08ZM50.4963 42.08C49.8029 42.08 49.1469 41.984 48.5283 41.792C47.9096 41.5893 47.4243 41.3387 47.0723 41.04L47.5843 40.144C47.9256 40.4 48.3629 40.624 48.8963 40.816C49.4296 40.9973 49.9896 41.088 50.5763 41.088C51.3763 41.088 51.9523 40.9653 52.3043 40.72C52.6563 40.464 52.8323 40.128 52.8323 39.712C52.8323 39.4027 52.7309 39.1627 52.5283 38.992C52.3363 38.8107 52.0803 38.6773 51.7603 38.592C51.4403 38.496 51.0829 38.416 50.6883 38.352C50.2936 38.288 49.8989 38.2133 49.5043 38.128C49.1203 38.0427 48.7683 37.92 48.4483 37.76C48.1283 37.5893 47.8669 37.36 47.6643 37.072C47.4723 36.784 47.3763 36.4 47.3763 35.92C47.3763 35.4613 47.5043 35.0507 47.7603 34.688C48.0163 34.3253 48.3896 34.0427 48.8803 33.84C49.3816 33.6267 49.9896 33.52 50.7043 33.52C51.2483 33.52 51.7923 33.5947 52.3363 33.744C52.8803 33.8827 53.3283 34.0693 53.6803 34.304L53.1843 35.216C52.8109 34.96 52.4109 34.7787 51.9843 34.672C51.5576 34.5547 51.1309 34.496 50.7043 34.496C49.9469 34.496 49.3869 34.6293 49.0243 34.896C48.6723 35.152 48.4963 35.4827 48.4963 35.888C48.4963 36.208 48.5923 36.4587 48.7843 36.64C48.9869 36.8213 49.2483 36.9653 49.5683 37.072C49.8989 37.168 50.2563 37.248 50.6403 37.312C51.0349 37.376 51.4243 37.456 51.8083 37.552C52.2029 37.6373 52.5603 37.76 52.8803 37.92C53.2109 38.0693 53.4723 38.288 53.6643 38.576C53.8669 38.8533 53.9683 39.2213 53.9683 39.68C53.9683 40.1707 53.8296 40.5973 53.5523 40.96C53.2856 41.312 52.8909 41.5893 52.3683 41.792C51.8563 41.984 51.2323 42.08 50.4963 42.08ZM58.3088 42.08C57.6154 42.08 56.9594 41.984 56.3408 41.792C55.7221 41.5893 55.2368 41.3387 54.8848 41.04L55.3968 40.144C55.7381 40.4 56.1754 40.624 56.7088 40.816C57.2421 40.9973 57.8021 41.088 58.3888 41.088C59.1888 41.088 59.7648 40.9653 60.1168 40.72C60.4688 40.464 60.6448 40.128 60.6448 39.712C60.6448 39.4027 60.5434 39.1627 60.3408 38.992C60.1488 38.8107 59.8928 38.6773 59.5728 38.592C59.2528 38.496 58.8954 38.416 58.5008 38.352C58.1061 38.288 57.7114 38.2133 57.3168 38.128C56.9328 38.0427 56.5808 37.92 56.2608 37.76C55.9408 37.5893 55.6794 37.36 55.4768 37.072C55.2848 36.784 55.1888 36.4 55.1888 35.92C55.1888 35.4613 55.3168 35.0507 55.5728 34.688C55.8288 34.3253 56.2021 34.0427 56.6928 33.84C57.1941 33.6267 57.8021 33.52 58.5168 33.52C59.0608 33.52 59.6048 33.5947 60.1488 33.744C60.6928 33.8827 61.1408 34.0693 61.4928 34.304L60.9968 35.216C60.6234 34.96 60.2234 34.7787 59.7968 34.672C59.3701 34.5547 58.9434 34.496 58.5168 34.496C57.7594 34.496 57.1994 34.6293 56.8368 34.896C56.4848 35.152 56.3088 35.4827 56.3088 35.888C56.3088 36.208 56.4048 36.4587 56.5968 36.64C56.7994 36.8213 57.0608 36.9653 57.3808 37.072C57.7114 37.168 58.0688 37.248 58.4528 37.312C58.8474 37.376 59.2368 37.456 59.6208 37.552C60.0154 37.6373 60.3728 37.76 60.6928 37.92C61.0234 38.0693 61.2848 38.288 61.4768 38.576C61.6794 38.8533 61.7808 39.2213 61.7808 39.68C61.7808 40.1707 61.6421 40.5973 61.3648 40.96C61.0981 41.312 60.7034 41.5893 60.1808 41.792C59.6688 41.984 59.0448 42.08 58.3088 42.08ZM67.4333 42.08C66.5586 42.08 65.7906 41.8987 65.1293 41.536C64.4679 41.1627 63.9506 40.656 63.5773 40.016C63.2039 39.3653 63.0173 38.624 63.0173 37.792C63.0173 36.96 63.1933 36.224 63.5453 35.584C63.9079 34.944 64.3986 34.4427 65.0173 34.08C65.6466 33.7067 66.3506 33.52 67.1293 33.52C67.9186 33.52 68.6173 33.7013 69.2253 34.064C69.8439 34.416 70.3293 34.9173 70.6813 35.568C71.0333 36.208 71.2093 36.9493 71.2093 37.792C71.2093 37.8453 71.2039 37.904 71.1933 37.968C71.1933 38.0213 71.1933 38.08 71.1933 38.144H63.8813V37.296H70.5853L70.1373 37.632C70.1373 37.024 70.0039 36.4853 69.7373 36.016C69.4813 35.536 69.1293 35.1627 68.6813 34.896C68.2333 34.6293 67.7159 34.496 67.1293 34.496C66.5533 34.496 66.0359 34.6293 65.5773 34.896C65.1186 35.1627 64.7613 35.536 64.5053 36.016C64.2493 36.496 64.1213 37.0453 64.1213 37.664V37.84C64.1213 38.48 64.2599 39.0453 64.5373 39.536C64.8253 40.016 65.2199 40.3947 65.7213 40.672C66.2333 40.9387 66.8146 41.072 67.4653 41.072C67.9773 41.072 68.4519 40.9813 68.8893 40.8C69.3373 40.6187 69.7213 40.3413 70.0413 39.968L70.6813 40.704C70.3079 41.152 69.8386 41.4933 69.2733 41.728C68.7186 41.9627 68.1053 42.08 67.4333 42.08ZM77.8095 33.52C78.4922 33.52 79.0895 33.6533 79.6015 33.92C80.1242 34.176 80.5295 34.5707 80.8175 35.104C81.1162 35.6373 81.2655 36.3093 81.2655 37.12V42H80.1295V37.232C80.1295 36.3467 79.9055 35.68 79.4575 35.232C79.0202 34.7733 78.4015 34.544 77.6015 34.544C77.0042 34.544 76.4815 34.6667 76.0335 34.912C75.5962 35.1467 75.2548 35.4933 75.0095 35.952C74.7748 36.4 74.6575 36.944 74.6575 37.584V42H73.5215V33.6H74.6095V35.904L74.4335 35.472C74.7002 34.864 75.1268 34.3893 75.7135 34.048C76.3002 33.696 76.9988 33.52 77.8095 33.52ZM87.918 45.184C87.15 45.184 86.414 45.072 85.71 44.848C85.006 44.624 84.4353 44.304 83.998 43.888L84.574 43.024C84.9687 43.376 85.454 43.6533 86.03 43.856C86.6167 44.0693 87.2353 44.176 87.886 44.176C88.9527 44.176 89.7367 43.9253 90.238 43.424C90.7393 42.9333 90.99 42.1653 90.99 41.12V39.024L91.15 37.584L91.038 36.144V33.6H92.126V40.976C92.126 42.4267 91.7687 43.488 91.054 44.16C90.35 44.8427 89.3047 45.184 87.918 45.184ZM87.71 41.68C86.91 41.68 86.19 41.5093 85.55 41.168C84.91 40.816 84.4033 40.3307 84.03 39.712C83.6673 39.0933 83.486 38.384 83.486 37.584C83.486 36.784 83.6673 36.08 84.03 35.472C84.4033 34.8533 84.91 34.3733 85.55 34.032C86.19 33.6907 86.91 33.52 87.71 33.52C88.4567 33.52 89.1287 33.6747 89.726 33.984C90.3233 34.2933 90.798 34.752 91.15 35.36C91.502 35.968 91.678 36.7093 91.678 37.584C91.678 38.4587 91.502 39.2 91.15 39.808C90.798 40.416 90.3233 40.88 89.726 41.2C89.1287 41.52 88.4567 41.68 87.71 41.68ZM87.822 40.672C88.4407 40.672 88.99 40.544 89.47 40.288C89.95 40.0213 90.3287 39.6587 90.606 39.2C90.8833 38.7307 91.022 38.192 91.022 37.584C91.022 36.976 90.8833 36.4427 90.606 35.984C90.3287 35.5253 89.95 35.168 89.47 34.912C88.99 34.6453 88.4407 34.512 87.822 34.512C87.214 34.512 86.6647 34.6453 86.174 34.912C85.694 35.168 85.3153 35.5253 85.038 35.984C84.7713 36.4427 84.638 36.976 84.638 37.584C84.638 38.192 84.7713 38.7307 85.038 39.2C85.3153 39.6587 85.694 40.0213 86.174 40.288C86.6647 40.544 87.214 40.672 87.822 40.672ZM98.8551 42.08C97.9805 42.08 97.2125 41.8987 96.5511 41.536C95.8898 41.1627 95.3725 40.656 94.9991 40.016C94.6258 39.3653 94.4391 38.624 94.4391 37.792C94.4391 36.96 94.6151 36.224 94.9671 35.584C95.3298 34.944 95.8205 34.4427 96.4391 34.08C97.0685 33.7067 97.7725 33.52 98.5511 33.52C99.3405 33.52 100.039 33.7013 100.647 34.064C101.266 34.416 101.751 34.9173 102.103 35.568C102.455 36.208 102.631 36.9493 102.631 37.792C102.631 37.8453 102.626 37.904 102.615 37.968C102.615 38.0213 102.615 38.08 102.615 38.144H95.3031V37.296H102.007L101.559 37.632C101.559 37.024 101.426 36.4853 101.159 36.016C100.903 35.536 100.551 35.1627 100.103 34.896C99.6551 34.6293 99.1378 34.496 98.5511 34.496C97.9751 34.496 97.4578 34.6293 96.9991 34.896C96.5405 35.1627 96.1831 35.536 95.9271 36.016C95.6711 36.496 95.5431 37.0453 95.5431 37.664V37.84C95.5431 38.48 95.6818 39.0453 95.9591 39.536C96.2471 40.016 96.6418 40.3947 97.1431 40.672C97.6551 40.9387 98.2365 41.072 98.8871 41.072C99.3991 41.072 99.8738 40.9813 100.311 40.8C100.759 40.6187 101.143 40.3413 101.463 39.968L102.103 40.704C101.73 41.152 101.26 41.4933 100.695 41.728C100.14 41.9627 99.5271 42.08 98.8551 42.08ZM104.943 42V33.6H106.031V35.888L105.919 35.488C106.154 34.848 106.549 34.3627 107.103 34.032C107.658 33.6907 108.346 33.52 109.167 33.52V34.624C109.125 34.624 109.082 34.624 109.039 34.624C108.997 34.6133 108.954 34.608 108.911 34.608C108.026 34.608 107.333 34.88 106.831 35.424C106.33 35.9573 106.079 36.72 106.079 37.712V42H104.943ZM110.521 44.336L111.225 41.376L111.353 42.064C111.108 42.064 110.9 41.984 110.729 41.824C110.569 41.664 110.489 41.456 110.489 41.2C110.489 40.944 110.569 40.736 110.729 40.576C110.9 40.416 111.102 40.336 111.337 40.336C111.582 40.336 111.78 40.4213 111.929 40.592C112.089 40.7627 112.169 40.9653 112.169 41.2C112.169 41.2853 112.164 41.3707 112.153 41.456C112.142 41.5413 112.121 41.6373 112.089 41.744C112.057 41.8507 112.014 41.9787 111.961 42.128L111.289 44.336H110.521ZM120.083 35.808H126.003V36.816H120.083V35.808ZM120.211 40.976H126.947V42H119.027V30.8H126.707V31.824H120.211V40.976ZM132.853 42.08C132.021 42.08 131.275 41.8987 130.613 41.536C129.963 41.1627 129.451 40.656 129.077 40.016C128.704 39.3653 128.517 38.624 128.517 37.792C128.517 36.9493 128.704 36.208 129.077 35.568C129.451 34.928 129.963 34.4267 130.613 34.064C131.275 33.7013 132.021 33.52 132.853 33.52C133.568 33.52 134.213 33.6587 134.789 33.936C135.365 34.2133 135.819 34.6293 136.149 35.184L135.301 35.76C135.013 35.3333 134.656 35.0187 134.229 34.816C133.803 34.6133 133.339 34.512 132.837 34.512C132.24 34.512 131.701 34.6507 131.221 34.928C130.741 35.1947 130.363 35.5733 130.085 36.064C129.808 36.5547 129.669 37.1307 129.669 37.792C129.669 38.4533 129.808 39.0293 130.085 39.52C130.363 40.0107 130.741 40.3947 131.221 40.672C131.701 40.9387 132.24 41.072 132.837 41.072C133.339 41.072 133.803 40.9707 134.229 40.768C134.656 40.5653 135.013 40.256 135.301 39.84L136.149 40.416C135.819 40.96 135.365 41.376 134.789 41.664C134.213 41.9413 133.568 42.08 132.853 42.08ZM141.664 42.08C140.854 42.08 140.123 41.8987 139.472 41.536C138.832 41.1627 138.326 40.656 137.952 40.016C137.579 39.3653 137.392 38.624 137.392 37.792C137.392 36.9493 137.579 36.208 137.952 35.568C138.326 34.928 138.832 34.4267 139.472 34.064C140.112 33.7013 140.843 33.52 141.664 33.52C142.496 33.52 143.232 33.7013 143.872 34.064C144.523 34.4267 145.03 34.928 145.392 35.568C145.766 36.208 145.952 36.9493 145.952 37.792C145.952 38.624 145.766 39.3653 145.392 40.016C145.03 40.656 144.523 41.1627 143.872 41.536C143.222 41.8987 142.486 42.08 141.664 42.08ZM141.664 41.072C142.272 41.072 142.811 40.9387 143.28 40.672C143.75 40.3947 144.118 40.0107 144.384 39.52C144.662 39.0187 144.8 38.4427 144.8 37.792C144.8 37.1307 144.662 36.5547 144.384 36.064C144.118 35.5733 143.75 35.1947 143.28 34.928C142.811 34.6507 142.278 34.512 141.68 34.512C141.083 34.512 140.55 34.6507 140.08 34.928C139.611 35.1947 139.238 35.5733 138.96 36.064C138.683 36.5547 138.544 37.1307 138.544 37.792C138.544 38.4427 138.683 39.0187 138.96 39.52C139.238 40.0107 139.611 40.3947 140.08 40.672C140.55 40.9387 141.078 41.072 141.664 41.072ZM152.56 33.52C153.242 33.52 153.84 33.6533 154.352 33.92C154.874 34.176 155.28 34.5707 155.568 35.104C155.866 35.6373 156.016 36.3093 156.016 37.12V42H154.88V37.232C154.88 36.3467 154.656 35.68 154.208 35.232C153.77 34.7733 153.152 34.544 152.352 34.544C151.754 34.544 151.232 34.6667 150.784 34.912C150.346 35.1467 150.005 35.4933 149.76 35.952C149.525 36.4 149.408 36.944 149.408 37.584V42H148.272V33.6H149.36V35.904L149.184 35.472C149.45 34.864 149.877 34.3893 150.464 34.048C151.05 33.696 151.749 33.52 152.56 33.52ZM162.508 42.08C161.697 42.08 160.967 41.8987 160.316 41.536C159.676 41.1627 159.169 40.656 158.796 40.016C158.423 39.3653 158.236 38.624 158.236 37.792C158.236 36.9493 158.423 36.208 158.796 35.568C159.169 34.928 159.676 34.4267 160.316 34.064C160.956 33.7013 161.687 33.52 162.508 33.52C163.34 33.52 164.076 33.7013 164.716 34.064C165.367 34.4267 165.873 34.928 166.236 35.568C166.609 36.208 166.796 36.9493 166.796 37.792C166.796 38.624 166.609 39.3653 166.236 40.016C165.873 40.656 165.367 41.1627 164.716 41.536C164.065 41.8987 163.329 42.08 162.508 42.08ZM162.508 41.072C163.116 41.072 163.655 40.9387 164.124 40.672C164.593 40.3947 164.961 40.0107 165.228 39.52C165.505 39.0187 165.644 38.4427 165.644 37.792C165.644 37.1307 165.505 36.5547 165.228 36.064C164.961 35.5733 164.593 35.1947 164.124 34.928C163.655 34.6507 163.121 34.512 162.524 34.512C161.927 34.512 161.393 34.6507 160.924 34.928C160.455 35.1947 160.081 35.5733 159.804 36.064C159.527 36.5547 159.388 37.1307 159.388 37.792C159.388 38.4427 159.527 39.0187 159.804 39.52C160.081 40.0107 160.455 40.3947 160.924 40.672C161.393 40.9387 161.921 41.072 162.508 41.072ZM179.611 33.52C180.294 33.52 180.886 33.6533 181.387 33.92C181.899 34.176 182.294 34.5707 182.571 35.104C182.859 35.6373 183.003 36.3093 183.003 37.12V42H181.867V37.232C181.867 36.3467 181.654 35.68 181.227 35.232C180.811 34.7733 180.219 34.544 179.451 34.544C178.875 34.544 178.374 34.6667 177.947 34.912C177.531 35.1467 177.206 35.4933 176.971 35.952C176.747 36.4 176.635 36.944 176.635 37.584V42H175.499V37.232C175.499 36.3467 175.286 35.68 174.859 35.232C174.433 34.7733 173.835 34.544 173.067 34.544C172.502 34.544 172.006 34.6667 171.579 34.912C171.153 35.1467 170.822 35.4933 170.587 35.952C170.363 36.4 170.251 36.944 170.251 37.584V42H169.115V33.6H170.203V35.872L170.027 35.472C170.283 34.864 170.694 34.3893 171.259 34.048C171.835 33.696 172.513 33.52 173.291 33.52C174.113 33.52 174.811 33.728 175.387 34.144C175.963 34.5493 176.337 35.1627 176.507 35.984L176.059 35.808C176.305 35.1253 176.737 34.576 177.355 34.16C177.985 33.7333 178.737 33.52 179.611 33.52ZM185.992 45.184C185.597 45.184 185.218 45.12 184.856 44.992C184.504 44.864 184.2 44.672 183.944 44.416L184.472 43.568C184.685 43.7707 184.914 43.9253 185.16 44.032C185.416 44.1493 185.698 44.208 186.008 44.208C186.381 44.208 186.701 44.1013 186.968 43.888C187.245 43.6853 187.506 43.3227 187.752 42.8L188.296 41.568L188.424 41.392L191.88 33.6H193L188.792 43.008C188.557 43.552 188.296 43.984 188.008 44.304C187.73 44.624 187.426 44.848 187.096 44.976C186.765 45.1147 186.397 45.184 185.992 45.184ZM188.232 42.24L184.36 33.6H185.544L188.968 41.312L188.232 42.24Z" fill="#1C1B1F"/>
<rect width="130" height="17" transform="translate(12)" fill="white"/>
<path d="M17.596 14V4.2H21.264C22.0947 4.2 22.8087 4.33533 23.406 4.606C24.0033 4.86733 24.4607 5.25 24.778 5.754C25.1047 6.24867 25.268 6.85067 25.268 7.56C25.268 8.25067 25.1047 8.848 24.778 9.352C24.4607 9.84667 24.0033 10.2293 23.406 10.5C22.8087 10.7707 22.0947 10.906 21.264 10.906H18.17L18.632 10.416V14H17.596ZM18.632 10.5L18.17 9.996H21.236C22.216 9.996 22.958 9.786 23.462 9.366C23.9753 8.93667 24.232 8.33467 24.232 7.56C24.232 6.776 23.9753 6.16933 23.462 5.74C22.958 5.31067 22.216 5.096 21.236 5.096H18.17L18.632 4.606V10.5ZM31.8358 14V12.376L31.7938 12.11V9.394C31.7938 8.76867 31.6164 8.288 31.2618 7.952C30.9164 7.616 30.3984 7.448 29.7078 7.448C29.2318 7.448 28.7791 7.52733 28.3498 7.686C27.9204 7.84467 27.5564 8.05467 27.2578 8.316L26.8098 7.574C27.1831 7.25667 27.6311 7.014 28.1538 6.846C28.6764 6.66867 29.2271 6.58 29.8058 6.58C30.7578 6.58 31.4904 6.818 32.0038 7.294C32.5264 7.76067 32.7878 8.47467 32.7878 9.436V14H31.8358ZM29.3018 14.07C28.7511 14.07 28.2704 13.9813 27.8598 13.804C27.4584 13.6173 27.1504 13.3653 26.9358 13.048C26.7211 12.7213 26.6138 12.348 26.6138 11.928C26.6138 11.5453 26.7024 11.2 26.8798 10.892C27.0664 10.5747 27.3651 10.3227 27.7758 10.136C28.1958 9.94 28.7558 9.842 29.4558 9.842H31.9898V10.584H29.4838C28.7744 10.584 28.2798 10.71 27.9998 10.962C27.7291 11.214 27.5938 11.5267 27.5938 11.9C27.5938 12.32 27.7571 12.656 28.0838 12.908C28.4104 13.16 28.8678 13.286 29.4558 13.286C30.0158 13.286 30.4964 13.16 30.8978 12.908C31.3084 12.6467 31.6071 12.2733 31.7938 11.788L32.0178 12.474C31.8311 12.9593 31.5044 13.3467 31.0378 13.636C30.5804 13.9253 30.0018 14.07 29.3018 14.07ZM37.4616 14.07C36.8549 14.07 36.2809 13.986 35.7396 13.818C35.1982 13.6407 34.7736 13.4213 34.4656 13.16L34.9136 12.376C35.2122 12.6 35.5949 12.796 36.0616 12.964C36.5282 13.1227 37.0182 13.202 37.5316 13.202C38.2316 13.202 38.7356 13.0947 39.0436 12.88C39.3516 12.656 39.5056 12.362 39.5056 11.998C39.5056 11.7273 39.4169 11.5173 39.2396 11.368C39.0716 11.2093 38.8476 11.0927 38.5676 11.018C38.2876 10.934 37.9749 10.864 37.6296 10.808C37.2842 10.752 36.9389 10.6867 36.5936 10.612C36.2576 10.5373 35.9496 10.43 35.6696 10.29C35.3896 10.1407 35.1609 9.94 34.9836 9.688C34.8156 9.436 34.7316 9.1 34.7316 8.68C34.7316 8.27867 34.8436 7.91933 35.0676 7.602C35.2916 7.28467 35.6182 7.03733 36.0476 6.86C36.4862 6.67333 37.0182 6.58 37.6436 6.58C38.1196 6.58 38.5956 6.64533 39.0716 6.776C39.5476 6.89733 39.9396 7.06067 40.2476 7.266L39.8136 8.064C39.4869 7.84 39.1369 7.68133 38.7636 7.588C38.3902 7.48533 38.0169 7.434 37.6436 7.434C36.9809 7.434 36.4909 7.55067 36.1736 7.784C35.8656 8.008 35.7116 8.29733 35.7116 8.652C35.7116 8.932 35.7956 9.15133 35.9636 9.31C36.1409 9.46867 36.3696 9.59467 36.6496 9.688C36.9389 9.772 37.2516 9.842 37.5876 9.898C37.9329 9.954 38.2736 10.024 38.6096 10.108C38.9549 10.1827 39.2676 10.29 39.5476 10.43C39.8369 10.5607 40.0656 10.752 40.2336 11.004C40.4109 11.2467 40.4996 11.5687 40.4996 11.97C40.4996 12.3993 40.3782 12.7727 40.1356 13.09C39.9022 13.398 39.5569 13.6407 39.0996 13.818C38.6516 13.986 38.1056 14.07 37.4616 14.07ZM44.2975 14.07C43.6908 14.07 43.1168 13.986 42.5755 13.818C42.0342 13.6407 41.6095 13.4213 41.3015 13.16L41.7495 12.376C42.0482 12.6 42.4308 12.796 42.8975 12.964C43.3642 13.1227 43.8542 13.202 44.3675 13.202C45.0675 13.202 45.5715 13.0947 45.8795 12.88C46.1875 12.656 46.3415 12.362 46.3415 11.998C46.3415 11.7273 46.2528 11.5173 46.0755 11.368C45.9075 11.2093 45.6835 11.0927 45.4035 11.018C45.1235 10.934 44.8108 10.864 44.4655 10.808C44.1202 10.752 43.7748 10.6867 43.4295 10.612C43.0935 10.5373 42.7855 10.43 42.5055 10.29C42.2255 10.1407 41.9968 9.94 41.8195 9.688C41.6515 9.436 41.5675 9.1 41.5675 8.68C41.5675 8.27867 41.6795 7.91933 41.9035 7.602C42.1275 7.28467 42.4542 7.03733 42.8835 6.86C43.3222 6.67333 43.8542 6.58 44.4795 6.58C44.9555 6.58 45.4315 6.64533 45.9075 6.776C46.3835 6.89733 46.7755 7.06067 47.0835 7.266L46.6495 8.064C46.3228 7.84 45.9728 7.68133 45.5995 7.588C45.2262 7.48533 44.8528 7.434 44.4795 7.434C43.8168 7.434 43.3268 7.55067 43.0095 7.784C42.7015 8.008 42.5475 8.29733 42.5475 8.652C42.5475 8.932 42.6315 9.15133 42.7995 9.31C42.9768 9.46867 43.2055 9.59467 43.4855 9.688C43.7748 9.772 44.0875 9.842 44.4235 9.898C44.7688 9.954 45.1095 10.024 45.4455 10.108C45.7908 10.1827 46.1035 10.29 46.3835 10.43C46.6728 10.5607 46.9015 10.752 47.0695 11.004C47.2468 11.2467 47.3355 11.5687 47.3355 11.97C47.3355 12.3993 47.2142 12.7727 46.9715 13.09C46.7382 13.398 46.3928 13.6407 45.9355 13.818C45.4875 13.986 44.9415 14.07 44.2975 14.07ZM52.2814 14.07C51.5161 14.07 50.8441 13.9113 50.2654 13.594C49.6868 13.2673 49.2341 12.824 48.9074 12.264C48.5808 11.6947 48.4174 11.046 48.4174 10.318C48.4174 9.59 48.5714 8.946 48.8794 8.386C49.1968 7.826 49.6261 7.38733 50.1674 7.07C50.7181 6.74333 51.3341 6.58 52.0154 6.58C52.7061 6.58 53.3174 6.73867 53.8494 7.056C54.3908 7.364 54.8154 7.80267 55.1234 8.372C55.4314 8.932 55.5854 9.58067 55.5854 10.318C55.5854 10.3647 55.5808 10.416 55.5714 10.472C55.5714 10.5187 55.5714 10.57 55.5714 10.626H49.1734V9.884H55.0394L54.6474 10.178C54.6474 9.646 54.5308 9.17467 54.2974 8.764C54.0734 8.344 53.7654 8.01733 53.3734 7.784C52.9814 7.55067 52.5288 7.434 52.0154 7.434C51.5114 7.434 51.0588 7.55067 50.6574 7.784C50.2561 8.01733 49.9434 8.344 49.7194 8.764C49.4954 9.184 49.3834 9.66467 49.3834 10.206V10.36C49.3834 10.92 49.5048 11.4147 49.7474 11.844C49.9994 12.264 50.3448 12.5953 50.7834 12.838C51.2314 13.0713 51.7401 13.188 52.3094 13.188C52.7574 13.188 53.1728 13.1087 53.5554 12.95C53.9474 12.7913 54.2834 12.5487 54.5634 12.222L55.1234 12.866C54.7968 13.258 54.3861 13.5567 53.8914 13.762C53.4061 13.9673 52.8694 14.07 52.2814 14.07ZM61.3607 6.58C61.958 6.58 62.4807 6.69667 62.9287 6.93C63.386 7.154 63.7407 7.49933 63.9927 7.966C64.254 8.43267 64.3847 9.02067 64.3847 9.73V14H63.3907V9.828C63.3907 9.05333 63.1947 8.47 62.8027 8.078C62.42 7.67667 61.8787 7.476 61.1787 7.476C60.656 7.476 60.1987 7.58333 59.8067 7.798C59.424 8.00333 59.1253 8.30667 58.9107 8.708C58.7053 9.1 58.6027 9.576 58.6027 10.136V14H57.6087V6.65H58.5607V8.666L58.4067 8.288C58.64 7.756 59.0133 7.34067 59.5267 7.042C60.04 6.734 60.6513 6.58 61.3607 6.58ZM70.2056 16.786C69.5336 16.786 68.8896 16.688 68.2736 16.492C67.6576 16.296 67.1583 16.016 66.7756 15.652L67.2796 14.896C67.6249 15.204 68.0496 15.4467 68.5536 15.624C69.0669 15.8107 69.6083 15.904 70.1776 15.904C71.1109 15.904 71.7969 15.6847 72.2356 15.246C72.6743 14.8167 72.8936 14.1447 72.8936 13.23V11.396L73.0336 10.136L72.9356 8.876V6.65H73.8876V13.104C73.8876 14.3733 73.5749 15.302 72.9496 15.89C72.3336 16.4873 71.4189 16.786 70.2056 16.786ZM70.0236 13.72C69.3236 13.72 68.6936 13.5707 68.1336 13.272C67.5736 12.964 67.1303 12.5393 66.8036 11.998C66.4863 11.4567 66.3276 10.836 66.3276 10.136C66.3276 9.436 66.4863 8.82 66.8036 8.288C67.1303 7.74667 67.5736 7.32667 68.1336 7.028C68.6936 6.72933 69.3236 6.58 70.0236 6.58C70.6769 6.58 71.2649 6.71533 71.7876 6.986C72.3103 7.25667 72.7256 7.658 73.0336 8.19C73.3416 8.722 73.4956 9.37067 73.4956 10.136C73.4956 10.9013 73.3416 11.55 73.0336 12.082C72.7256 12.614 72.3103 13.02 71.7876 13.3C71.2649 13.58 70.6769 13.72 70.0236 13.72ZM70.1216 12.838C70.6629 12.838 71.1436 12.726 71.5636 12.502C71.9836 12.2687 72.3149 11.9513 72.5576 11.55C72.8003 11.1393 72.9216 10.668 72.9216 10.136C72.9216 9.604 72.8003 9.13733 72.5576 8.736C72.3149 8.33467 71.9836 8.022 71.5636 7.798C71.1436 7.56467 70.6629 7.448 70.1216 7.448C69.5896 7.448 69.1089 7.56467 68.6796 7.798C68.2596 8.022 67.9283 8.33467 67.6856 8.736C67.4523 9.13733 67.3356 9.604 67.3356 10.136C67.3356 10.668 67.4523 11.1393 67.6856 11.55C67.9283 11.9513 68.2596 12.2687 68.6796 12.502C69.1089 12.726 69.5896 12.838 70.1216 12.838ZM79.7756 14.07C79.0102 14.07 78.3382 13.9113 77.7596 13.594C77.1809 13.2673 76.7282 12.824 76.4016 12.264C76.0749 11.6947 75.9116 11.046 75.9116 10.318C75.9116 9.59 76.0656 8.946 76.3736 8.386C76.6909 7.826 77.1202 7.38733 77.6616 7.07C78.2122 6.74333 78.8282 6.58 79.5096 6.58C80.2002 6.58 80.8116 6.73867 81.3436 7.056C81.8849 7.364 82.3096 7.80267 82.6176 8.372C82.9256 8.932 83.0796 9.58067 83.0796 10.318C83.0796 10.3647 83.0749 10.416 83.0656 10.472C83.0656 10.5187 83.0656 10.57 83.0656 10.626H76.6676V9.884H82.5336L82.1416 10.178C82.1416 9.646 82.0249 9.17467 81.7916 8.764C81.5676 8.344 81.2596 8.01733 80.8676 7.784C80.4756 7.55067 80.0229 7.434 79.5096 7.434C79.0056 7.434 78.5529 7.55067 78.1516 7.784C77.7502 8.01733 77.4376 8.344 77.2136 8.764C76.9896 9.184 76.8776 9.66467 76.8776 10.206V10.36C76.8776 10.92 76.9989 11.4147 77.2416 11.844C77.4936 12.264 77.8389 12.5953 78.2776 12.838C78.7256 13.0713 79.2342 13.188 79.8036 13.188C80.2516 13.188 80.6669 13.1087 81.0496 12.95C81.4416 12.7913 81.7776 12.5487 82.0576 12.222L82.6176 12.866C82.2909 13.258 81.8802 13.5567 81.3856 13.762C80.9002 13.9673 80.3636 14.07 79.7756 14.07ZM85.1028 14V6.65H86.0548V8.652L85.9568 8.302C86.1621 7.742 86.5075 7.31733 86.9928 7.028C87.4781 6.72933 88.0801 6.58 88.7988 6.58V7.546C88.7615 7.546 88.7241 7.546 88.6868 7.546C88.6495 7.53667 88.6121 7.532 88.5748 7.532C87.8001 7.532 87.1935 7.77 86.7548 8.246C86.3161 8.71267 86.0968 9.38 86.0968 10.248V14H85.1028ZM93.84 10.64V9.772H97.508V10.64H93.84ZM107.862 14.084C107.124 14.084 106.443 13.9627 105.818 13.72C105.192 13.468 104.651 13.118 104.194 12.67C103.736 12.222 103.377 11.6947 103.116 11.088C102.864 10.4813 102.738 9.81867 102.738 9.1C102.738 8.38133 102.864 7.71867 103.116 7.112C103.377 6.50533 103.736 5.978 104.194 5.53C104.66 5.082 105.206 4.73667 105.832 4.494C106.457 4.242 107.138 4.116 107.876 4.116C108.585 4.116 109.252 4.23733 109.878 4.48C110.503 4.71333 111.03 5.068 111.46 5.544L110.802 6.202C110.4 5.79133 109.957 5.49733 109.472 5.32C108.986 5.13333 108.464 5.04 107.904 5.04C107.316 5.04 106.77 5.14267 106.266 5.348C105.762 5.544 105.323 5.82867 104.95 6.202C104.576 6.566 104.282 6.99533 104.068 7.49C103.862 7.97533 103.76 8.512 103.76 9.1C103.76 9.688 103.862 10.2293 104.068 10.724C104.282 11.2093 104.576 11.6387 104.95 12.012C105.323 12.376 105.762 12.6607 106.266 12.866C106.77 13.062 107.316 13.16 107.904 13.16C108.464 13.16 108.986 13.0667 109.472 12.88C109.957 12.6933 110.4 12.3947 110.802 11.984L111.46 12.642C111.03 13.118 110.503 13.4773 109.878 13.72C109.252 13.9627 108.58 14.084 107.862 14.084ZM113.458 14V3.612H114.452V14H113.458ZM121.824 14V12.376L121.782 12.11V9.394C121.782 8.76867 121.605 8.288 121.25 7.952C120.905 7.616 120.387 7.448 119.696 7.448C119.22 7.448 118.767 7.52733 118.338 7.686C117.909 7.84467 117.545 8.05467 117.246 8.316L116.798 7.574C117.171 7.25667 117.619 7.014 118.142 6.846C118.665 6.66867 119.215 6.58 119.794 6.58C120.746 6.58 121.479 6.818 121.992 7.294C122.515 7.76067 122.776 8.47467 122.776 9.436V14H121.824ZM119.29 14.07C118.739 14.07 118.259 13.9813 117.848 13.804C117.447 13.6173 117.139 13.3653 116.924 13.048C116.709 12.7213 116.602 12.348 116.602 11.928C116.602 11.5453 116.691 11.2 116.868 10.892C117.055 10.5747 117.353 10.3227 117.764 10.136C118.184 9.94 118.744 9.842 119.444 9.842H121.978V10.584H119.472C118.763 10.584 118.268 10.71 117.988 10.962C117.717 11.214 117.582 11.5267 117.582 11.9C117.582 12.32 117.745 12.656 118.072 12.908C118.399 13.16 118.856 13.286 119.444 13.286C120.004 13.286 120.485 13.16 120.886 12.908C121.297 12.6467 121.595 12.2733 121.782 11.788L122.006 12.474C121.819 12.9593 121.493 13.3467 121.026 13.636C120.569 13.9253 119.99 14.07 119.29 14.07ZM127.45 14.07C126.843 14.07 126.269 13.986 125.728 13.818C125.187 13.6407 124.762 13.4213 124.454 13.16L124.902 12.376C125.201 12.6 125.583 12.796 126.05 12.964C126.517 13.1227 127.007 13.202 127.52 13.202C128.22 13.202 128.724 13.0947 129.032 12.88C129.34 12.656 129.494 12.362 129.494 11.998C129.494 11.7273 129.405 11.5173 129.228 11.368C129.06 11.2093 128.836 11.0927 128.556 11.018C128.276 10.934 127.963 10.864 127.618 10.808C127.273 10.752 126.927 10.6867 126.582 10.612C126.246 10.5373 125.938 10.43 125.658 10.29C125.378 10.1407 125.149 9.94 124.972 9.688C124.804 9.436 124.72 9.1 124.72 8.68C124.72 8.27867 124.832 7.91933 125.056 7.602C125.28 7.28467 125.607 7.03733 126.036 6.86C126.475 6.67333 127.007 6.58 127.632 6.58C128.108 6.58 128.584 6.64533 129.06 6.776C129.536 6.89733 129.928 7.06067 130.236 7.266L129.802 8.064C129.475 7.84 129.125 7.68133 128.752 7.588C128.379 7.48533 128.005 7.434 127.632 7.434C126.969 7.434 126.479 7.55067 126.162 7.784C125.854 8.008 125.7 8.29733 125.7 8.652C125.7 8.932 125.784 9.15133 125.952 9.31C126.129 9.46867 126.358 9.59467 126.638 9.688C126.927 9.772 127.24 9.842 127.576 9.898C127.921 9.954 128.262 10.024 128.598 10.108C128.943 10.1827 129.256 10.29 129.536 10.43C129.825 10.5607 130.054 10.752 130.222 11.004C130.399 11.2467 130.488 11.5687 130.488 11.97C130.488 12.3993 130.367 12.7727 130.124 13.09C129.891 13.398 129.545 13.6407 129.088 13.818C128.64 13.986 128.094 14.07 127.45 14.07ZM134.286 14.07C133.679 14.07 133.105 13.986 132.564 13.818C132.022 13.6407 131.598 13.4213 131.29 13.16L131.738 12.376C132.036 12.6 132.419 12.796 132.886 12.964C133.352 13.1227 133.842 13.202 134.356 13.202C135.056 13.202 135.56 13.0947 135.868 12.88C136.176 12.656 136.33 12.362 136.33 11.998C136.33 11.7273 136.241 11.5173 136.064 11.368C135.896 11.2093 135.672 11.0927 135.392 11.018C135.112 10.934 134.799 10.864 134.454 10.808C134.108 10.752 133.763 10.6867 133.418 10.612C133.082 10.5373 132.774 10.43 132.494 10.29C132.214 10.1407 131.985 9.94 131.808 9.688C131.64 9.436 131.556 9.1 131.556 8.68C131.556 8.27867 131.668 7.91933 131.892 7.602C132.116 7.28467 132.442 7.03733 132.872 6.86C133.31 6.67333 133.842 6.58 134.468 6.58C134.944 6.58 135.42 6.64533 135.896 6.776C136.372 6.89733 136.764 7.06067 137.072 7.266L136.638 8.064C136.311 7.84 135.961 7.68133 135.588 7.588C135.214 7.48533 134.841 7.434 134.468 7.434C133.805 7.434 133.315 7.55067 132.998 7.784C132.69 8.008 132.536 8.29733 132.536 8.652C132.536 8.932 132.62 9.15133 132.788 9.31C132.965 9.46867 133.194 9.59467 133.474 9.688C133.763 9.772 134.076 9.842 134.412 9.898C134.757 9.954 135.098 10.024 135.434 10.108C135.779 10.1827 136.092 10.29 136.372 10.43C136.661 10.5607 136.89 10.752 137.058 11.004C137.235 11.2467 137.324 11.5687 137.324 11.97C137.324 12.3993 137.202 12.7727 136.96 13.09C136.726 13.398 136.381 13.6407 135.924 13.818C135.476 13.986 134.93 14.07 134.286 14.07Z" fill="#1C1B1F"/>
</svg>
