<svg width="89" height="24" viewBox="0 0 89 24" fill="none" xmlns="http://www.w3.org/2000/svg">
<path d="M8.74733 21.75H7.49952C7.37414 21.75 7.25077 21.7185 7.14069 21.6585C7.03062 21.5984 6.93735 21.5118 6.86941 21.4064C6.80147 21.301 6.76104 21.1803 6.7518 21.0552C6.74257 20.9302 6.76483 20.8048 6.81655 20.6906L9.83811 14.0227L5.30108 13.9219L3.64639 15.9267C3.33092 16.3233 3.07921 16.5 2.43702 16.5H1.59702C1.46402 16.5043 1.33195 16.4764 1.212 16.4188C1.09205 16.3612 0.987757 16.2755 0.907956 16.1691C0.796393 16.0186 0.686706 15.7636 0.793581 15.3998L1.72264 12.0717C1.72967 12.0469 1.73811 12.022 1.74749 11.9977C1.74795 11.9953 1.74795 11.9929 1.74749 11.9906C1.73781 11.9663 1.72951 11.9414 1.72264 11.9161L0.792643 8.56687C0.691862 8.21016 0.802018 7.96078 0.912643 7.81406C0.986929 7.71549 1.08331 7.63573 1.19403 7.58118C1.30475 7.52664 1.42672 7.49883 1.55014 7.5H2.43702C2.91655 7.5 3.38202 7.71516 3.65577 8.0625L5.27624 10.0336L9.83811 9.96609L6.81749 3.30984C6.7657 3.19568 6.74335 3.07036 6.75249 2.94533C6.76163 2.8203 6.80196 2.69956 6.8698 2.59414C6.93764 2.48872 7.03082 2.40198 7.14083 2.34186C7.25083 2.28175 7.37416 2.25016 7.49952 2.25H8.76092C8.9369 2.25354 9.10983 2.29667 9.26685 2.3762C9.42388 2.45572 9.56097 2.5696 9.66796 2.70937L15.5297 9.83438L18.2376 9.76312C18.4359 9.75234 18.9853 9.74859 19.1123 9.74859C21.7026 9.75 23.2495 10.5909 23.2495 12C23.2495 12.4434 23.0723 13.2656 21.8869 13.7887C21.187 14.0981 20.2533 14.2547 19.1114 14.2547C18.9858 14.2547 18.4378 14.2509 18.2367 14.2402L15.5292 14.168L9.65296 21.293C9.54588 21.4321 9.40891 21.5454 9.25216 21.6246C9.0954 21.7037 8.92288 21.7465 8.74733 21.75Z" fill="#112211"/>
<path d="M41.68 6.8V8.544H35.584V11.952H40.992V13.712H35.584V18H33.504V6.8H41.68ZM45.4995 18H43.4995V6.128H45.4995V18ZM50.1245 18H48.1245V9.456H50.1245V18ZM49.1325 8.048C48.7698 8.048 48.4658 7.936 48.2205 7.712C47.9752 7.47733 47.8525 7.18933 47.8525 6.848C47.8525 6.50667 47.9752 6.224 48.2205 6C48.4658 5.76533 48.7698 5.648 49.1325 5.648C49.4952 5.648 49.7992 5.76 50.0445 5.984C50.2898 6.19733 50.4125 6.46933 50.4125 6.8C50.4125 7.152 50.2898 7.45067 50.0445 7.696C49.8098 7.93067 49.5058 8.048 49.1325 8.048ZM59.3255 9.456H61.2295V16.704C61.2295 19.712 59.6935 21.216 56.6215 21.216C55.8002 21.216 55.0215 21.1093 54.2855 20.896C53.5495 20.6933 52.9415 20.3947 52.4615 20L53.3575 18.496C53.7308 18.8053 54.2002 19.0507 54.7655 19.232C55.3415 19.424 55.9228 19.52 56.5095 19.52C57.4482 19.52 58.1362 19.3067 58.5735 18.88C59.0108 18.4533 59.2295 17.8027 59.2295 16.928V16.48C58.8882 16.8533 58.4722 17.136 57.9815 17.328C57.4908 17.52 56.9522 17.616 56.3655 17.616C55.5548 17.616 54.8188 17.4453 54.1575 17.104C53.5068 16.752 52.9895 16.2613 52.6055 15.632C52.2322 15.0027 52.0455 14.2827 52.0455 13.472C52.0455 12.6613 52.2322 11.9467 52.6055 11.328C52.9895 10.6987 53.5068 10.2133 54.1575 9.872C54.8188 9.53067 55.5548 9.36 56.3655 9.36C56.9842 9.36 57.5442 9.46133 58.0455 9.664C58.5575 9.86667 58.9842 10.176 59.3255 10.592V9.456ZM56.6695 15.92C57.4268 15.92 58.0455 15.696 58.5255 15.248C59.0162 14.7893 59.2615 14.1973 59.2615 13.472C59.2615 12.7573 59.0162 12.176 58.5255 11.728C58.0455 11.28 57.4268 11.056 56.6695 11.056C55.9015 11.056 55.2722 11.28 54.7815 11.728C54.3015 12.176 54.0615 12.7573 54.0615 13.472C54.0615 14.1973 54.3015 14.7893 54.7815 15.248C55.2722 15.696 55.9015 15.92 56.6695 15.92ZM68.7069 9.36C69.7842 9.36 70.6482 9.67467 71.2989 10.304C71.9495 10.9333 72.2749 11.8667 72.2749 13.104V18H70.2749V13.36C70.2749 12.6133 70.0989 12.0533 69.7469 11.68C69.3949 11.296 68.8935 11.104 68.2429 11.104C67.5069 11.104 66.9255 11.328 66.4989 11.776C66.0722 12.2133 65.8589 12.848 65.8589 13.68V18H63.8589V6.128H65.8589V10.448C66.1895 10.096 66.5949 9.82933 67.0749 9.648C67.5655 9.456 68.1095 9.36 68.7069 9.36ZM79.948 17.536C79.7133 17.728 79.4253 17.872 79.084 17.968C78.7533 18.064 78.4013 18.112 78.028 18.112C77.0893 18.112 76.364 17.8667 75.852 17.376C75.34 16.8853 75.084 16.1707 75.084 15.232V11.12H73.676V9.52H75.084V7.568H77.084V9.52H79.372V11.12H77.084V15.184C77.084 15.6 77.1853 15.92 77.388 16.144C77.5907 16.3573 77.884 16.464 78.268 16.464C78.716 16.464 79.0893 16.3467 79.388 16.112L79.948 17.536ZM84.2333 18.112C83.5399 18.112 82.8626 18.0213 82.2013 17.84C81.5399 17.6587 81.0119 17.4293 80.6173 17.152L81.3853 15.632C81.7693 15.888 82.2279 16.096 82.7613 16.256C83.3053 16.4053 83.8386 16.48 84.3613 16.48C85.5559 16.48 86.1533 16.1653 86.1533 15.536C86.1533 15.2373 85.9986 15.0293 85.6893 14.912C85.3906 14.7947 84.9053 14.6827 84.2333 14.576C83.5293 14.4693 82.9533 14.3467 82.5053 14.208C82.0679 14.0693 81.6839 13.8293 81.3533 13.488C81.0333 13.136 80.8733 12.6507 80.8733 12.032C80.8733 11.2213 81.2093 10.576 81.8813 10.096C82.5639 9.60533 83.4813 9.36 84.6333 9.36C85.2199 9.36 85.8066 9.42933 86.3933 9.568C86.9799 9.696 87.4599 9.872 87.8333 10.096L87.0653 11.616C86.3399 11.1893 85.5239 10.976 84.6173 10.976C84.0306 10.976 83.5826 11.0667 83.2733 11.248C82.9746 11.4187 82.8253 11.648 82.8253 11.936C82.8253 12.256 82.9853 12.4853 83.3053 12.624C83.6359 12.752 84.1426 12.8747 84.8253 12.992C85.5079 13.0987 86.0679 13.2213 86.5053 13.36C86.9426 13.4987 87.3159 13.7333 87.6253 14.064C87.9453 14.3947 88.1053 14.864 88.1053 15.472C88.1053 16.272 87.7586 16.912 87.0653 17.392C86.3719 17.872 85.4279 18.112 84.2333 18.112Z" fill="#112211"/>
</svg>
