<svg width="177" height="48" viewBox="0 0 177 48" fill="none" xmlns="http://www.w3.org/2000/svg">
<path d="M8.26 29.5H1.316V19.7H3.136V27.96H8.26V29.5ZM12.8205 29.598C12.0645 29.598 11.3832 29.4347 10.7765 29.108C10.1698 28.7813 9.69383 28.3287 9.3485 27.75C9.0125 27.162 8.8445 26.4993 8.8445 25.762C8.8445 25.0247 9.0125 24.3667 9.3485 23.788C9.69383 23.2093 10.1698 22.7567 10.7765 22.43C11.3832 22.1033 12.0645 21.94 12.8205 21.94C13.5858 21.94 14.2718 22.1033 14.8785 22.43C15.4852 22.7567 15.9565 23.2093 16.2925 23.788C16.6378 24.3667 16.8105 25.0247 16.8105 25.762C16.8105 26.4993 16.6378 27.162 16.2925 27.75C15.9565 28.3287 15.4852 28.7813 14.8785 29.108C14.2718 29.4347 13.5858 29.598 12.8205 29.598ZM12.8205 28.1C13.4645 28.1 13.9965 27.8853 14.4165 27.456C14.8365 27.0267 15.0465 26.462 15.0465 25.762C15.0465 25.062 14.8365 24.4973 14.4165 24.068C13.9965 23.6387 13.4645 23.424 12.8205 23.424C12.1765 23.424 11.6445 23.6387 11.2245 24.068C10.8138 24.4973 10.6085 25.062 10.6085 25.762C10.6085 26.462 10.8138 27.0267 11.2245 27.456C11.6445 27.8853 12.1765 28.1 12.8205 28.1ZM24.2379 22.024H25.9039V28.366C25.9039 30.998 24.5599 32.314 21.8719 32.314C21.1533 32.314 20.4719 32.2207 19.8279 32.034C19.1839 31.8567 18.6519 31.5953 18.2319 31.25L19.0159 29.934C19.3426 30.2047 19.7533 30.4193 20.2479 30.578C20.7519 30.746 21.2606 30.83 21.7739 30.83C22.5953 30.83 23.1973 30.6433 23.5799 30.27C23.9626 29.8967 24.1539 29.3273 24.1539 28.562V28.17C23.8553 28.4967 23.4913 28.744 23.0619 28.912C22.6326 29.08 22.1613 29.164 21.6479 29.164C20.9386 29.164 20.2946 29.0147 19.7159 28.716C19.1466 28.408 18.6939 27.9787 18.3579 27.428C18.0313 26.8773 17.8679 26.2473 17.8679 25.538C17.8679 24.8287 18.0313 24.2033 18.3579 23.662C18.6939 23.1113 19.1466 22.6867 19.7159 22.388C20.2946 22.0893 20.9386 21.94 21.6479 21.94C22.1893 21.94 22.6793 22.0287 23.1179 22.206C23.5659 22.3833 23.9393 22.654 24.2379 23.018V22.024ZM21.9139 27.68C22.5766 27.68 23.1179 27.484 23.5379 27.092C23.9673 26.6907 24.1819 26.1727 24.1819 25.538C24.1819 24.9127 23.9673 24.404 23.5379 24.012C23.1179 23.62 22.5766 23.424 21.9139 23.424C21.2419 23.424 20.6913 23.62 20.2619 24.012C19.8419 24.404 19.6319 24.9127 19.6319 25.538C19.6319 26.1727 19.8419 26.6907 20.2619 27.092C20.6913 27.484 21.2419 27.68 21.9139 27.68ZM29.9546 29.5H28.2046V22.024H29.9546V29.5ZM29.0866 20.792C28.7693 20.792 28.5033 20.694 28.2886 20.498C28.074 20.2927 27.9666 20.0407 27.9666 19.742C27.9666 19.4433 28.074 19.196 28.2886 19C28.5033 18.7947 28.7693 18.692 29.0866 18.692C29.404 18.692 29.67 18.79 29.8846 18.986C30.0993 19.1727 30.2066 19.4107 30.2066 19.7C30.2066 20.008 30.0993 20.2693 29.8846 20.484C29.6793 20.6893 29.4133 20.792 29.0866 20.792ZM36.4935 21.94C37.4362 21.94 38.1922 22.2153 38.7615 22.766C39.3308 23.3167 39.6155 24.1333 39.6155 25.216V29.5H37.8655V25.44C37.8655 24.7867 37.7115 24.2967 37.4035 23.97C37.0955 23.634 36.6568 23.466 36.0875 23.466C35.4435 23.466 34.9348 23.662 34.5615 24.054C34.1882 24.4367 34.0015 24.992 34.0015 25.72V29.5H32.2515V22.024H33.9175V22.99C34.2068 22.6447 34.5708 22.3833 35.0095 22.206C35.4482 22.0287 35.9428 21.94 36.4935 21.94Z" fill="white"/>
<g clip-path="url(#clip0_108_21040)">
<rect x="73" width="104" height="48" rx="8" fill="white"/>
<path d="M101.778 29.64C101.022 29.64 100.289 29.5327 99.5798 29.318C98.8798 29.1033 98.3245 28.8187 97.9138 28.464L98.5438 27.05C98.9452 27.3673 99.4352 27.6287 100.014 27.834C100.602 28.03 101.19 28.128 101.778 28.128C102.506 28.128 103.047 28.0113 103.402 27.778C103.766 27.5447 103.948 27.2367 103.948 26.854C103.948 26.574 103.845 26.3453 103.64 26.168C103.444 25.9813 103.192 25.8367 102.884 25.734C102.576 25.6313 102.156 25.5147 101.624 25.384C100.877 25.2067 100.27 25.0293 99.8038 24.852C99.3465 24.6747 98.9498 24.3993 98.6138 24.026C98.2872 23.6433 98.1238 23.13 98.1238 22.486C98.1238 21.9447 98.2685 21.4547 98.5578 21.016C98.8565 20.568 99.2998 20.2133 99.8878 19.952C100.485 19.6907 101.213 19.56 102.072 19.56C102.669 19.56 103.257 19.6347 103.836 19.784C104.414 19.9333 104.914 20.148 105.334 20.428L104.76 21.842C104.33 21.59 103.882 21.3987 103.416 21.268C102.949 21.1373 102.496 21.072 102.058 21.072C101.339 21.072 100.802 21.1933 100.448 21.436C100.102 21.6787 99.9298 22.0007 99.9298 22.402C99.9298 22.682 100.028 22.9107 100.224 23.088C100.429 23.2653 100.686 23.4053 100.994 23.508C101.302 23.6107 101.722 23.7273 102.254 23.858C102.982 24.026 103.579 24.2033 104.046 24.39C104.512 24.5673 104.909 24.8427 105.236 25.216C105.572 25.5893 105.74 26.0933 105.74 26.728C105.74 27.2693 105.59 27.7593 105.292 28.198C105.002 28.6367 104.559 28.9867 103.962 29.248C103.364 29.5093 102.636 29.64 101.778 29.64ZM109.127 29.5H107.377V22.024H109.127V29.5ZM108.259 20.792C107.941 20.792 107.675 20.694 107.461 20.498C107.246 20.2927 107.139 20.0407 107.139 19.742C107.139 19.4433 107.246 19.196 107.461 19C107.675 18.7947 107.941 18.692 108.259 18.692C108.576 18.692 108.842 18.79 109.057 18.986C109.271 19.1727 109.379 19.4107 109.379 19.7C109.379 20.008 109.271 20.2693 109.057 20.484C108.851 20.6893 108.585 20.792 108.259 20.792ZM117.177 22.024H118.843V28.366C118.843 30.998 117.499 32.314 114.811 32.314C114.093 32.314 113.411 32.2207 112.767 32.034C112.123 31.8567 111.591 31.5953 111.171 31.25L111.955 29.934C112.282 30.2047 112.693 30.4193 113.187 30.578C113.691 30.746 114.2 30.83 114.713 30.83C115.535 30.83 116.137 30.6433 116.519 30.27C116.902 29.8967 117.093 29.3273 117.093 28.562V28.17C116.795 28.4967 116.431 28.744 116.001 28.912C115.572 29.08 115.101 29.164 114.587 29.164C113.878 29.164 113.234 29.0147 112.655 28.716C112.086 28.408 111.633 27.9787 111.297 27.428C110.971 26.8773 110.807 26.2473 110.807 25.538C110.807 24.8287 110.971 24.2033 111.297 23.662C111.633 23.1113 112.086 22.6867 112.655 22.388C113.234 22.0893 113.878 21.94 114.587 21.94C115.129 21.94 115.619 22.0287 116.057 22.206C116.505 22.3833 116.879 22.654 117.177 23.018V22.024ZM114.853 27.68C115.516 27.68 116.057 27.484 116.477 27.092C116.907 26.6907 117.121 26.1727 117.121 25.538C117.121 24.9127 116.907 24.404 116.477 24.012C116.057 23.62 115.516 23.424 114.853 23.424C114.181 23.424 113.631 23.62 113.201 24.012C112.781 24.404 112.571 24.9127 112.571 25.538C112.571 26.1727 112.781 26.6907 113.201 27.092C113.631 27.484 114.181 27.68 114.853 27.68ZM125.386 21.94C126.329 21.94 127.085 22.2153 127.654 22.766C128.223 23.3167 128.508 24.1333 128.508 25.216V29.5H126.758V25.44C126.758 24.7867 126.604 24.2967 126.296 23.97C125.988 23.634 125.549 23.466 124.98 23.466C124.336 23.466 123.827 23.662 123.454 24.054C123.081 24.4367 122.894 24.992 122.894 25.72V29.5H121.144V22.024H122.81V22.99C123.099 22.6447 123.463 22.3833 123.902 22.206C124.341 22.0287 124.835 21.94 125.386 21.94ZM140.085 22.024H141.835V29.5H140.169V28.548C139.889 28.884 139.539 29.1453 139.119 29.332C138.699 29.5093 138.247 29.598 137.761 29.598C136.763 29.598 135.974 29.3227 135.395 28.772C134.826 28.212 134.541 27.386 134.541 26.294V22.024H136.291V26.056C136.291 26.728 136.441 27.232 136.739 27.568C137.047 27.8947 137.481 28.058 138.041 28.058C138.667 28.058 139.161 27.8667 139.525 27.484C139.899 27.092 140.085 26.532 140.085 25.804V22.024ZM148.271 21.94C148.999 21.94 149.647 22.0987 150.217 22.416C150.795 22.7333 151.248 23.1813 151.575 23.76C151.901 24.3387 152.065 25.006 152.065 25.762C152.065 26.518 151.901 27.19 151.575 27.778C151.248 28.3567 150.795 28.8047 150.217 29.122C149.647 29.4393 148.999 29.598 148.271 29.598C147.263 29.598 146.465 29.262 145.877 28.59V32.216H144.127V22.024H145.793V23.004C146.082 22.6493 146.437 22.3833 146.857 22.206C147.286 22.0287 147.757 21.94 148.271 21.94ZM148.075 28.1C148.719 28.1 149.246 27.8853 149.657 27.456C150.077 27.0267 150.287 26.462 150.287 25.762C150.287 25.062 150.077 24.4973 149.657 24.068C149.246 23.6387 148.719 23.424 148.075 23.424C147.655 23.424 147.277 23.522 146.941 23.718C146.605 23.9047 146.339 24.1753 146.143 24.53C145.947 24.8847 145.849 25.2953 145.849 25.762C145.849 26.2287 145.947 26.6393 146.143 26.994C146.339 27.3487 146.605 27.624 146.941 27.82C147.277 28.0067 147.655 28.1 148.075 28.1Z" fill="#112211"/>
</g>
<defs>
<clipPath id="clip0_108_21040">
<rect x="73" width="104" height="48" rx="8" fill="white"/>
</clipPath>
</defs>
</svg>
