<svg width="140" height="64" viewBox="0 0 140 64" fill="none" xmlns="http://www.w3.org/2000/svg">
<rect x="0.5" y="8.5" width="139" height="55" rx="3.5" fill="white"/>
<rect x="0.5" y="8.5" width="139" height="55" rx="3.5" stroke="#79747E"/>
<path d="M17.824 42V30.8H22.016C22.9653 30.8 23.7813 30.9547 24.464 31.264C25.1467 31.5627 25.6693 32 26.032 32.576C26.4053 33.1413 26.592 33.8293 26.592 34.64C26.592 35.4293 26.4053 36.112 26.032 36.688C25.6693 37.2533 25.1467 37.6907 24.464 38C23.7813 38.2987 22.9653 38.448 22.016 38.448H18.48L19.008 37.904V42H17.824ZM25.472 42L22.592 37.936H23.872L26.768 42H25.472ZM19.008 38L18.48 37.44H21.984C23.104 37.44 23.952 37.1947 24.528 36.704C25.1147 36.2133 25.408 35.5253 25.408 34.64C25.408 33.744 25.1147 33.0507 24.528 32.56C23.952 32.0693 23.104 31.824 21.984 31.824H18.48L19.008 31.264V38ZM32.7145 42.08C31.8398 42.08 31.0718 41.8987 30.4105 41.536C29.7492 41.1627 29.2318 40.656 28.8585 40.016C28.4852 39.3653 28.2985 38.624 28.2985 37.792C28.2985 36.96 28.4745 36.224 28.8265 35.584C29.1892 34.944 29.6798 34.4427 30.2985 34.08C30.9278 33.7067 31.6318 33.52 32.4105 33.52C33.1998 33.52 33.8985 33.7013 34.5065 34.064C35.1252 34.416 35.6105 34.9173 35.9625 35.568C36.3145 36.208 36.4905 36.9493 36.4905 37.792C36.4905 37.8453 36.4852 37.904 36.4745 37.968C36.4745 38.0213 36.4745 38.08 36.4745 38.144H29.1625V37.296H35.8665L35.4185 37.632C35.4185 37.024 35.2852 36.4853 35.0185 36.016C34.7625 35.536 34.4105 35.1627 33.9625 34.896C33.5145 34.6293 32.9972 34.496 32.4105 34.496C31.8345 34.496 31.3172 34.6293 30.8585 34.896C30.3998 35.1627 30.0425 35.536 29.7865 36.016C29.5305 36.496 29.4025 37.0453 29.4025 37.664V37.84C29.4025 38.48 29.5412 39.0453 29.8185 39.536C30.1065 40.016 30.5012 40.3947 31.0025 40.672C31.5145 40.9387 32.0958 41.072 32.7465 41.072C33.2585 41.072 33.7332 40.9813 34.1705 40.8C34.6185 40.6187 35.0025 40.3413 35.3225 39.968L35.9625 40.704C35.5892 41.152 35.1198 41.4933 34.5545 41.728C33.9998 41.9627 33.3865 42.08 32.7145 42.08ZM41.4588 42.08C40.6694 42.08 40.0614 41.8667 39.6348 41.44C39.2081 41.0133 38.9948 40.4107 38.9948 39.632V31.744H40.1308V39.568C40.1308 40.0587 40.2534 40.4373 40.4988 40.704C40.7548 40.9707 41.1174 41.104 41.5868 41.104C42.0881 41.104 42.5041 40.96 42.8348 40.672L43.2348 41.488C43.0108 41.6907 42.7388 41.84 42.4188 41.936C42.1094 42.032 41.7894 42.08 41.4588 42.08ZM37.4908 34.544V33.6H42.6908V34.544H37.4908ZM48.7748 42.08C48.0601 42.08 47.4361 41.9467 46.9028 41.68C46.3694 41.4133 45.9534 41.0133 45.6548 40.48C45.3668 39.9467 45.2228 39.28 45.2228 38.48V33.6H46.3588V38.352C46.3588 39.248 46.5774 39.9253 47.0148 40.384C47.4628 40.832 48.0868 41.056 48.8868 41.056C49.4734 41.056 49.9801 40.9387 50.4068 40.704C50.8441 40.4587 51.1748 40.1067 51.3988 39.648C51.6334 39.1893 51.7508 38.64 51.7508 38V33.6H52.8868V42H51.7987V39.696L51.9748 40.112C51.7081 40.7307 51.2921 41.216 50.7268 41.568C50.1721 41.9093 49.5214 42.08 48.7748 42.08ZM56.0528 42V33.6H57.1408V35.888L57.0288 35.488C57.2634 34.848 57.6581 34.3627 58.2128 34.032C58.7674 33.6907 59.4554 33.52 60.2768 33.52V34.624C60.2341 34.624 60.1914 34.624 60.1488 34.624C60.1061 34.6133 60.0634 34.608 60.0208 34.608C59.1354 34.608 58.4421 34.88 57.9408 35.424C57.4394 35.9573 57.1888 36.72 57.1888 37.712V42H56.0528ZM66.6376 33.52C67.3203 33.52 67.9176 33.6533 68.4296 33.92C68.9523 34.176 69.3576 34.5707 69.6456 35.104C69.9443 35.6373 70.0936 36.3093 70.0936 37.12V42H68.9576V37.232C68.9576 36.3467 68.7336 35.68 68.2856 35.232C67.8483 34.7733 67.2296 34.544 66.4296 34.544C65.8323 34.544 65.3096 34.6667 64.8616 34.912C64.4243 35.1467 64.083 35.4933 63.8376 35.952C63.603 36.4 63.4856 36.944 63.4856 37.584V42H62.3496V33.6H63.4376V35.904L63.2616 35.472C63.5283 34.864 63.955 34.3893 64.5416 34.048C65.1283 33.696 65.827 33.52 66.6376 33.52Z" fill="#1C1B1F"/>
<rect width="35" height="17" transform="translate(12)" fill="white"/>
<path d="M19.5 14V5.096H16.056V4.2H23.98V5.096H20.536V14H19.5ZM25.2337 14V6.65H26.1857V8.652L26.0877 8.302C26.293 7.742 26.6383 7.31733 27.1237 7.028C27.609 6.72933 28.211 6.58 28.9297 6.58V7.546C28.8923 7.546 28.855 7.546 28.8177 7.546C28.7803 7.53667 28.743 7.532 28.7057 7.532C27.931 7.532 27.3243 7.77 26.8857 8.246C26.447 8.71267 26.2277 9.38 26.2277 10.248V14H25.2337ZM30.7434 14V6.65H31.7374V14H30.7434ZM31.2474 5.026C31.0421 5.026 30.8694 4.956 30.7294 4.816C30.5894 4.676 30.5194 4.508 30.5194 4.312C30.5194 4.116 30.5894 3.95267 30.7294 3.822C30.8694 3.682 31.0421 3.612 31.2474 3.612C31.4528 3.612 31.6254 3.67733 31.7654 3.808C31.9054 3.93867 31.9754 4.102 31.9754 4.298C31.9754 4.50333 31.9054 4.676 31.7654 4.816C31.6348 4.956 31.4621 5.026 31.2474 5.026ZM38.2972 14.07C37.6625 14.07 37.0885 13.9253 36.5752 13.636C36.0619 13.3373 35.6512 12.9127 35.3432 12.362C35.0445 11.802 34.8952 11.1207 34.8952 10.318C34.8952 9.51533 35.0445 8.83867 35.3432 8.288C35.6419 7.728 36.0479 7.30333 36.5612 7.014C37.0745 6.72467 37.6532 6.58 38.2972 6.58C38.9972 6.58 39.6225 6.73867 40.1732 7.056C40.7332 7.364 41.1719 7.80267 41.4892 8.372C41.8065 8.932 41.9652 9.58067 41.9652 10.318C41.9652 11.0647 41.8065 11.718 41.4892 12.278C41.1719 12.838 40.7332 13.2767 40.1732 13.594C39.6225 13.9113 38.9972 14.07 38.2972 14.07ZM34.5032 16.716V6.65H35.4552V8.862L35.3572 10.332L35.4972 11.816V16.716H34.5032ZM38.2272 13.188C38.7499 13.188 39.2165 13.0713 39.6272 12.838C40.0379 12.5953 40.3645 12.2593 40.6072 11.83C40.8499 11.3913 40.9712 10.8873 40.9712 10.318C40.9712 9.74867 40.8499 9.24933 40.6072 8.82C40.3645 8.39067 40.0379 8.05467 39.6272 7.812C39.2165 7.56933 38.7499 7.448 38.2272 7.448C37.7045 7.448 37.2332 7.56933 36.8132 7.812C36.4025 8.05467 36.0759 8.39067 35.8332 8.82C35.5999 9.24933 35.4832 9.74867 35.4832 10.318C35.4832 10.8873 35.5999 11.3913 35.8332 11.83C36.0759 12.2593 36.4025 12.5953 36.8132 12.838C37.2332 13.0713 37.7045 13.188 38.2272 13.188Z" fill="#112211"/>
<path d="M109.25 33L116 39.75L122.75 33" stroke="black" stroke-width="1.5" stroke-linecap="round" stroke-linejoin="round"/>
</svg>
