<svg width="512" height="48" viewBox="0 0 512 48" fill="none" xmlns="http://www.w3.org/2000/svg">
<rect width="512" height="48" rx="4" fill="#8DD3BB"/>
<path d="M236.816 29.5V19.7H238.636V27.96H243.76V29.5H236.816ZM248.321 29.598C247.555 29.598 246.874 29.4347 246.277 29.108C245.679 28.772 245.208 28.3147 244.863 27.736C244.517 27.1573 244.345 26.4993 244.345 25.762C244.345 25.0153 244.517 24.3573 244.863 23.788C245.208 23.2093 245.679 22.7567 246.277 22.43C246.874 22.1033 247.555 21.94 248.321 21.94C249.095 21.94 249.781 22.1033 250.379 22.43C250.985 22.7567 251.457 23.2047 251.793 23.774C252.138 24.3433 252.311 25.006 252.311 25.762C252.311 26.4993 252.138 27.1573 251.793 27.736C251.457 28.3147 250.985 28.772 250.379 29.108C249.781 29.4347 249.095 29.598 248.321 29.598ZM248.321 28.1C248.75 28.1 249.133 28.0067 249.469 27.82C249.805 27.6333 250.066 27.3627 250.253 27.008C250.449 26.6533 250.547 26.238 250.547 25.762C250.547 25.2767 250.449 24.8613 250.253 24.516C250.066 24.1613 249.805 23.8907 249.469 23.704C249.133 23.5173 248.755 23.424 248.335 23.424C247.905 23.424 247.523 23.5173 247.187 23.704C246.86 23.8907 246.599 24.1613 246.403 24.516C246.207 24.8613 246.109 25.2767 246.109 25.762C246.109 26.238 246.207 26.6533 246.403 27.008C246.599 27.3627 246.86 27.6333 247.187 27.82C247.523 28.0067 247.901 28.1 248.321 28.1ZM257.372 32.314C256.681 32.314 256.005 32.2207 255.342 32.034C254.689 31.8567 254.152 31.5953 253.732 31.25L254.516 29.934C254.843 30.2047 255.253 30.4193 255.748 30.578C256.252 30.746 256.761 30.83 257.274 30.83C258.095 30.83 258.697 30.6387 259.08 30.256C259.463 29.8827 259.654 29.318 259.654 28.562V27.232L259.794 25.538L259.738 23.844V22.024H261.404V28.366C261.404 29.7193 261.059 30.7133 260.368 31.348C259.677 31.992 258.679 32.314 257.372 32.314ZM257.148 29.164C256.439 29.164 255.795 29.0147 255.216 28.716C254.647 28.408 254.194 27.9833 253.858 27.442C253.531 26.9007 253.368 26.266 253.368 25.538C253.368 24.8193 253.531 24.1893 253.858 23.648C254.194 23.1067 254.647 22.6867 255.216 22.388C255.795 22.0893 256.439 21.94 257.148 21.94C257.783 21.94 258.352 22.066 258.856 22.318C259.36 22.57 259.761 22.962 260.06 23.494C260.368 24.026 260.522 24.7073 260.522 25.538C260.522 26.3687 260.368 27.0547 260.06 27.596C259.761 28.128 259.36 28.5247 258.856 28.786C258.352 29.038 257.783 29.164 257.148 29.164ZM257.414 27.68C257.853 27.68 258.245 27.5913 258.59 27.414C258.935 27.2273 259.201 26.9753 259.388 26.658C259.584 26.3313 259.682 25.958 259.682 25.538C259.682 25.118 259.584 24.7493 259.388 24.432C259.201 24.1053 258.935 23.858 258.59 23.69C258.245 23.5127 257.853 23.424 257.414 23.424C256.975 23.424 256.579 23.5127 256.224 23.69C255.879 23.858 255.608 24.1053 255.412 24.432C255.225 24.7493 255.132 25.118 255.132 25.538C255.132 25.958 255.225 26.3313 255.412 26.658C255.608 26.9753 255.879 27.2273 256.224 27.414C256.579 27.5913 256.975 27.68 257.414 27.68ZM263.705 29.5V22.024H265.455V29.5H263.705ZM264.587 20.792C264.26 20.792 263.989 20.6893 263.775 20.484C263.569 20.2787 263.467 20.0313 263.467 19.742C263.467 19.4433 263.569 19.196 263.775 19C263.989 18.7947 264.26 18.692 264.587 18.692C264.913 18.692 265.179 18.79 265.385 18.986C265.599 19.1727 265.707 19.4107 265.707 19.7C265.707 20.008 265.604 20.2693 265.399 20.484C265.193 20.6893 264.923 20.792 264.587 20.792ZM271.994 21.94C272.591 21.94 273.123 22.0567 273.59 22.29C274.066 22.5233 274.439 22.8827 274.71 23.368C274.98 23.844 275.116 24.46 275.116 25.216V29.5H273.366V25.44C273.366 24.7773 273.207 24.2827 272.89 23.956C272.582 23.6293 272.148 23.466 271.588 23.466C271.177 23.466 270.813 23.55 270.496 23.718C270.178 23.886 269.931 24.138 269.754 24.474C269.586 24.8007 269.502 25.216 269.502 25.72V29.5H267.752V22.024H269.418V24.04L269.124 23.424C269.385 22.948 269.763 22.584 270.258 22.332C270.762 22.0707 271.34 21.94 271.994 21.94Z" fill="#112211"/>
</svg>
