<svg width="512" height="56" viewBox="0 0 512 56" fill="none" xmlns="http://www.w3.org/2000/svg">
<rect x="0.5" y="0.5" width="159" height="55" rx="3.5" stroke="#8DD3BB"/>
<path d="M92 28.0733C92 21.4055 86.6274 16 80 16C73.3726 16 68 21.4054 68 28.0733C68 34.0994 72.3882 39.0943 78.125 40V31.5633H75.0781V28.0733H78.125V25.4134C78.125 22.3875 79.9166 20.7161 82.6575 20.7161C83.9705 20.7161 85.3438 20.952 85.3438 20.952V23.9231H83.8306C82.3398 23.9231 81.875 24.8538 81.875 25.8086V28.0733H85.2031L84.6711 31.5633H81.875V40C87.6117 39.0943 92 34.0995 92 28.0733Z" fill="#1877F2"/>
<rect x="176.5" y="0.5" width="159" height="55" rx="3.5" stroke="#8DD3BB"/>
<path d="M265.806 26.0415H265V26H256V30H261.652C260.827 32.3285 258.611 34 256 34C252.687 34 250 31.3135 250 28C250 24.6865 252.687 22 256 22C257.53 22 258.921 22.577 259.981 23.5195L262.809 20.691C261.023 19.0265 258.634 18 256 18C250.477 18 246 22.4775 246 28C246 33.5225 250.477 38 256 38C261.523 38 266 33.5225 266 28C266 27.3295 265.931 26.675 265.806 26.0415Z" fill="#FFC107"/>
<path d="M247.152 23.3455L250.438 25.755C251.327 23.554 253.48 22 255.999 22C257.529 22 258.92 22.577 259.98 23.5195L262.808 20.691C261.022 19.0265 258.633 18 255.999 18C252.158 18 248.827 20.1685 247.152 23.3455Z" fill="#FF3D00"/>
<path d="M256 38C258.583 38 260.93 37.0115 262.705 35.404L259.61 32.785C258.572 33.5742 257.304 34.001 256 34C253.399 34 251.191 32.3415 250.359 30.027L247.098 32.5395C248.753 35.778 252.114 38 256 38Z" fill="#4CAF50"/>
<path d="M265.806 26.0415H265V26H256V30H261.652C261.257 31.1082 260.547 32.0766 259.608 32.7855L259.609 32.7845L262.705 35.4035C262.486 35.6025 266 33 266 28C266 27.3295 265.931 26.675 265.806 26.0415Z" fill="#1976D2"/>
<rect x="352.5" y="0.5" width="159" height="55" rx="3.5" stroke="#8DD3BB"/>
<path d="M437.517 28.5555C437.508 26.957 438.232 25.7523 439.695 24.8641C438.877 23.6922 437.639 23.0477 436.008 22.9234C434.463 22.8016 432.773 23.8234 432.155 23.8234C431.501 23.8234 430.005 22.9656 428.829 22.9656C426.401 23.0031 423.82 24.9016 423.82 28.7641C423.82 29.9055 424.029 31.0844 424.446 32.2984C425.004 33.8969 427.015 37.8133 429.112 37.75C430.209 37.7242 430.985 36.9719 432.412 36.9719C433.798 36.9719 434.515 37.75 435.738 37.75C437.855 37.7195 439.673 34.1594 440.203 32.5563C437.365 31.218 437.517 28.6375 437.517 28.5555ZM435.054 21.407C436.242 19.9961 436.134 18.7117 436.099 18.25C435.049 18.3109 433.835 18.9648 433.144 19.7688C432.382 20.6313 431.934 21.6977 432.03 22.9C433.165 22.9867 434.201 22.4031 435.054 21.407Z" fill="black"/>
</svg>
