<svg width="512" height="17" viewBox="0 0 512 17" fill="none" xmlns="http://www.w3.org/2000/svg">
<rect opacity="0.25" y="8.25" width="194" height="0.5" fill="#112211"/>
<path opacity="0.5" d="M215.88 14.084C218.82 14.084 221.018 11.97 221.018 9.1C221.018 6.23 218.82 4.116 215.88 4.116C212.912 4.116 210.728 6.244 210.728 9.1C210.728 11.956 212.912 14.084 215.88 14.084ZM215.88 13.16C213.514 13.16 211.75 11.438 211.75 9.1C211.75 6.762 213.514 5.04 215.88 5.04C218.232 5.04 219.982 6.762 219.982 9.1C219.982 11.438 218.232 13.16 215.88 13.16ZM224.082 8.078V6.636H223.13V14H224.124V10.248C224.124 8.512 225.062 7.532 226.602 7.532C226.672 7.532 226.756 7.546 226.84 7.546V6.58C225.482 6.58 224.544 7.098 224.082 8.078ZM232.413 14H233.407V3.612H232.413V14ZM239.183 14.07C241.339 14.07 242.921 12.502 242.921 10.318C242.921 8.134 241.339 6.58 239.183 6.58C237.027 6.58 235.431 8.134 235.431 10.318C235.431 12.502 237.027 14.07 239.183 14.07ZM239.183 13.188C237.615 13.188 236.439 12.04 236.439 10.318C236.439 8.596 237.615 7.448 239.183 7.448C240.751 7.448 241.913 8.596 241.913 10.318C241.913 12.04 240.751 13.188 239.183 13.188ZM250.816 6.636V8.05C250.2 7.084 249.136 6.58 247.904 6.58C245.804 6.58 244.208 8.022 244.208 10.136C244.208 12.25 245.804 13.72 247.904 13.72C249.108 13.72 250.158 13.23 250.774 12.292V13.23C250.774 15.05 249.92 15.904 248.058 15.904C246.924 15.904 245.86 15.526 245.16 14.896L244.656 15.652C245.426 16.38 246.742 16.786 248.086 16.786C250.522 16.786 251.768 15.638 251.768 13.104V6.636H250.816ZM248.002 12.838C246.378 12.838 245.216 11.732 245.216 10.136C245.216 8.54 246.378 7.448 248.002 7.448C249.626 7.448 250.802 8.54 250.802 10.136C250.802 11.732 249.626 12.838 248.002 12.838ZM255.052 5.026C255.472 5.026 255.78 4.704 255.78 4.298C255.78 3.92 255.458 3.612 255.052 3.612C254.646 3.612 254.324 3.934 254.324 4.312C254.324 4.704 254.646 5.026 255.052 5.026ZM254.548 14H255.542V6.636H254.548V14ZM262.06 6.58C260.786 6.58 259.792 7.098 259.26 7.994V6.636H258.308V14H259.302V10.136C259.302 8.456 260.296 7.476 261.878 7.476C263.278 7.476 264.09 8.274 264.09 9.828V14H265.084V9.73C265.084 7.616 263.852 6.58 262.06 6.58ZM281.345 6.636L279.007 12.894L276.655 6.636H275.801L273.435 12.894L271.125 6.636H270.173L272.945 14H273.883L276.207 7.966L278.531 14H279.469L282.255 6.636H281.345ZM284.255 5.026C284.675 5.026 284.983 4.704 284.983 4.298C284.983 3.92 284.661 3.612 284.255 3.612C283.849 3.612 283.527 3.934 283.527 4.312C283.527 4.704 283.849 5.026 284.255 5.026ZM283.751 14H284.745V6.636H283.751V14ZM291.039 12.838C290.759 13.09 290.353 13.216 289.947 13.216C289.121 13.216 288.673 12.74 288.673 11.872V7.476H290.913V6.636H288.673V5.026H287.679V6.636H286.363V7.476H287.679V11.928C287.679 13.286 288.449 14.07 289.835 14.07C290.409 14.07 290.997 13.902 291.389 13.552L291.039 12.838ZM296.951 6.58C295.705 6.58 294.739 7.07 294.193 7.924V3.612H293.199V14H294.193V10.136C294.193 8.456 295.187 7.476 296.769 7.476C298.169 7.476 298.981 8.274 298.981 9.828V14H299.975V9.73C299.975 7.616 298.743 6.58 296.951 6.58Z" fill="#112211"/>
<rect opacity="0.25" x="318" y="8.25" width="194" height="0.5" fill="#112211"/>
</svg>
