<svg width="640" height="48" viewBox="0 0 640 48" fill="none" xmlns="http://www.w3.org/2000/svg">
<rect width="640" height="48" rx="4" fill="#8DD3BB"/>
<path d="M270.852 29.64C270.105 29.64 269.41 29.5187 268.766 29.276C268.131 29.024 267.576 28.674 267.1 28.226C266.633 27.7687 266.269 27.232 266.008 26.616C265.747 26 265.616 25.328 265.616 24.6C265.616 23.872 265.747 23.2 266.008 22.584C266.269 21.968 266.638 21.436 267.114 20.988C267.59 20.5307 268.145 20.1807 268.78 19.938C269.415 19.686 270.11 19.56 270.866 19.56C271.669 19.56 272.401 19.7 273.064 19.98C273.727 20.2507 274.287 20.6567 274.744 21.198L273.568 22.304C273.213 21.9213 272.817 21.6367 272.378 21.45C271.939 21.254 271.463 21.156 270.95 21.156C270.437 21.156 269.965 21.24 269.536 21.408C269.116 21.576 268.747 21.814 268.43 22.122C268.122 22.43 267.879 22.794 267.702 23.214C267.534 23.634 267.45 24.096 267.45 24.6C267.45 25.104 267.534 25.566 267.702 25.986C267.879 26.406 268.122 26.77 268.43 27.078C268.747 27.386 269.116 27.624 269.536 27.792C269.965 27.96 270.437 28.044 270.95 28.044C271.463 28.044 271.939 27.9507 272.378 27.764C272.817 27.568 273.213 27.274 273.568 26.882L274.744 28.002C274.287 28.534 273.727 28.94 273.064 29.22C272.401 29.5 271.664 29.64 270.852 29.64ZM276.32 29.5V22.024H277.986V24.082L277.79 23.48C278.014 22.976 278.364 22.5933 278.84 22.332C279.325 22.0707 279.927 21.94 280.646 21.94V23.606C280.571 23.5873 280.501 23.578 280.436 23.578C280.371 23.5687 280.305 23.564 280.24 23.564C279.577 23.564 279.05 23.76 278.658 24.152C278.266 24.5347 278.07 25.1087 278.07 25.874V29.5H276.32ZM285.576 29.598C284.745 29.598 284.017 29.4347 283.392 29.108C282.776 28.772 282.295 28.3147 281.95 27.736C281.614 27.1573 281.446 26.4993 281.446 25.762C281.446 25.0153 281.609 24.3573 281.936 23.788C282.272 23.2093 282.729 22.7567 283.308 22.43C283.896 22.1033 284.563 21.94 285.31 21.94C286.038 21.94 286.687 22.0987 287.256 22.416C287.825 22.7333 288.273 23.1813 288.6 23.76C288.927 24.3387 289.09 25.02 289.09 25.804C289.09 25.8787 289.085 25.9627 289.076 26.056C289.076 26.1493 289.071 26.238 289.062 26.322H282.832V25.16H288.138L287.452 25.524C287.461 25.0947 287.373 24.7167 287.186 24.39C286.999 24.0633 286.743 23.8067 286.416 23.62C286.099 23.4333 285.73 23.34 285.31 23.34C284.881 23.34 284.503 23.4333 284.176 23.62C283.859 23.8067 283.607 24.068 283.42 24.404C283.243 24.7307 283.154 25.118 283.154 25.566V25.846C283.154 26.294 283.257 26.6907 283.462 27.036C283.667 27.3813 283.957 27.6473 284.33 27.834C284.703 28.0207 285.133 28.114 285.618 28.114C286.038 28.114 286.416 28.0487 286.752 27.918C287.088 27.7873 287.387 27.582 287.648 27.302L288.586 28.38C288.25 28.772 287.825 29.0753 287.312 29.29C286.808 29.4953 286.229 29.598 285.576 29.598ZM295.172 29.5V27.988L295.074 27.666V25.02C295.074 24.5067 294.92 24.11 294.612 23.83C294.304 23.5407 293.837 23.396 293.212 23.396C292.792 23.396 292.377 23.4613 291.966 23.592C291.565 23.7227 291.224 23.9047 290.944 24.138L290.258 22.864C290.659 22.556 291.135 22.3273 291.686 22.178C292.246 22.0193 292.825 21.94 293.422 21.94C294.505 21.94 295.34 22.2013 295.928 22.724C296.525 23.2373 296.824 24.0353 296.824 25.118V29.5H295.172ZM292.82 29.598C292.26 29.598 291.77 29.5047 291.35 29.318C290.93 29.122 290.603 28.856 290.37 28.52C290.146 28.1747 290.034 27.7873 290.034 27.358C290.034 26.938 290.132 26.56 290.328 26.224C290.533 25.888 290.865 25.622 291.322 25.426C291.779 25.23 292.386 25.132 293.142 25.132H295.312V26.294H293.268C292.671 26.294 292.269 26.392 292.064 26.588C291.859 26.7747 291.756 27.008 291.756 27.288C291.756 27.6053 291.882 27.8573 292.134 28.044C292.386 28.2307 292.736 28.324 293.184 28.324C293.613 28.324 293.996 28.226 294.332 28.03C294.677 27.834 294.925 27.5447 295.074 27.162L295.368 28.212C295.2 28.6507 294.897 28.9913 294.458 29.234C294.029 29.4767 293.483 29.598 292.82 29.598ZM301.884 29.598C301.063 29.598 300.428 29.388 299.98 28.968C299.532 28.5387 299.308 27.9087 299.308 27.078V20.372H301.058V27.036C301.058 27.3907 301.147 27.666 301.324 27.862C301.511 28.058 301.767 28.156 302.094 28.156C302.486 28.156 302.813 28.0533 303.074 27.848L303.564 29.094C303.359 29.262 303.107 29.388 302.808 29.472C302.509 29.556 302.201 29.598 301.884 29.598ZM298.076 23.48V22.08H303.06V23.48H298.076ZM308.271 29.598C307.441 29.598 306.713 29.4347 306.087 29.108C305.471 28.772 304.991 28.3147 304.645 27.736C304.309 27.1573 304.141 26.4993 304.141 25.762C304.141 25.0153 304.305 24.3573 304.631 23.788C304.967 23.2093 305.425 22.7567 306.003 22.43C306.591 22.1033 307.259 21.94 308.005 21.94C308.733 21.94 309.382 22.0987 309.951 22.416C310.521 22.7333 310.969 23.1813 311.295 23.76C311.622 24.3387 311.785 25.02 311.785 25.804C311.785 25.8787 311.781 25.9627 311.771 26.056C311.771 26.1493 311.767 26.238 311.757 26.322H305.527V25.16H310.833L310.147 25.524C310.157 25.0947 310.068 24.7167 309.881 24.39C309.695 24.0633 309.438 23.8067 309.111 23.62C308.794 23.4333 308.425 23.34 308.005 23.34C307.576 23.34 307.198 23.4333 306.871 23.62C306.554 23.8067 306.302 24.068 306.115 24.404C305.938 24.7307 305.849 25.118 305.849 25.566V25.846C305.849 26.294 305.952 26.6907 306.157 27.036C306.363 27.3813 306.652 27.6473 307.025 27.834C307.399 28.0207 307.828 28.114 308.313 28.114C308.733 28.114 309.111 28.0487 309.447 27.918C309.783 27.7873 310.082 27.582 310.343 27.302L311.281 28.38C310.945 28.772 310.521 29.0753 310.007 29.29C309.503 29.4953 308.925 29.598 308.271 29.598ZM321.942 29.5V27.988L321.844 27.666V25.02C321.844 24.5067 321.69 24.11 321.382 23.83C321.074 23.5407 320.607 23.396 319.982 23.396C319.562 23.396 319.146 23.4613 318.736 23.592C318.334 23.7227 317.994 23.9047 317.714 24.138L317.028 22.864C317.429 22.556 317.905 22.3273 318.456 22.178C319.016 22.0193 319.594 21.94 320.192 21.94C321.274 21.94 322.11 22.2013 322.698 22.724C323.295 23.2373 323.594 24.0353 323.594 25.118V29.5H321.942ZM319.59 29.598C319.03 29.598 318.54 29.5047 318.12 29.318C317.7 29.122 317.373 28.856 317.14 28.52C316.916 28.1747 316.804 27.7873 316.804 27.358C316.804 26.938 316.902 26.56 317.098 26.224C317.303 25.888 317.634 25.622 318.092 25.426C318.549 25.23 319.156 25.132 319.912 25.132H322.082V26.294H320.038C319.44 26.294 319.039 26.392 318.834 26.588C318.628 26.7747 318.526 27.008 318.526 27.288C318.526 27.6053 318.652 27.8573 318.904 28.044C319.156 28.2307 319.506 28.324 319.954 28.324C320.383 28.324 320.766 28.226 321.102 28.03C321.447 27.834 321.694 27.5447 321.844 27.162L322.138 28.212C321.97 28.6507 321.666 28.9913 321.228 29.234C320.798 29.4767 320.252 29.598 319.59 29.598ZM329.283 29.598C328.499 29.598 327.799 29.4347 327.183 29.108C326.576 28.772 326.1 28.3147 325.755 27.736C325.41 27.1573 325.237 26.4993 325.237 25.762C325.237 25.0153 325.41 24.3573 325.755 23.788C326.1 23.2093 326.576 22.7567 327.183 22.43C327.799 22.1033 328.499 21.94 329.283 21.94C330.011 21.94 330.65 22.0893 331.201 22.388C331.761 22.6773 332.186 23.1067 332.475 23.676L331.131 24.46C330.907 24.1053 330.632 23.844 330.305 23.676C329.988 23.508 329.642 23.424 329.269 23.424C328.84 23.424 328.452 23.5173 328.107 23.704C327.762 23.8907 327.491 24.1613 327.295 24.516C327.099 24.8613 327.001 25.2767 327.001 25.762C327.001 26.2473 327.099 26.6673 327.295 27.022C327.491 27.3673 327.762 27.6333 328.107 27.82C328.452 28.0067 328.84 28.1 329.269 28.1C329.642 28.1 329.988 28.016 330.305 27.848C330.632 27.68 330.907 27.4187 331.131 27.064L332.475 27.848C332.186 28.408 331.761 28.842 331.201 29.15C330.65 29.4487 330.011 29.598 329.283 29.598ZM337.308 29.598C336.524 29.598 335.824 29.4347 335.208 29.108C334.602 28.772 334.126 28.3147 333.78 27.736C333.435 27.1573 333.262 26.4993 333.262 25.762C333.262 25.0153 333.435 24.3573 333.78 23.788C334.126 23.2093 334.602 22.7567 335.208 22.43C335.824 22.1033 336.524 21.94 337.308 21.94C338.036 21.94 338.676 22.0893 339.226 22.388C339.786 22.6773 340.211 23.1067 340.5 23.676L339.156 24.46C338.932 24.1053 338.657 23.844 338.33 23.676C338.013 23.508 337.668 23.424 337.294 23.424C336.865 23.424 336.478 23.5173 336.132 23.704C335.787 23.8907 335.516 24.1613 335.32 24.516C335.124 24.8613 335.026 25.2767 335.026 25.762C335.026 26.2473 335.124 26.6673 335.32 27.022C335.516 27.3673 335.787 27.6333 336.132 27.82C336.478 28.0067 336.865 28.1 337.294 28.1C337.668 28.1 338.013 28.016 338.33 27.848C338.657 27.68 338.932 27.4187 339.156 27.064L340.5 27.848C340.211 28.408 339.786 28.842 339.226 29.15C338.676 29.4487 338.036 29.598 337.308 29.598ZM345.264 29.598C344.499 29.598 343.817 29.4347 343.22 29.108C342.623 28.772 342.151 28.3147 341.806 27.736C341.461 27.1573 341.288 26.4993 341.288 25.762C341.288 25.0153 341.461 24.3573 341.806 23.788C342.151 23.2093 342.623 22.7567 343.22 22.43C343.817 22.1033 344.499 21.94 345.264 21.94C346.039 21.94 346.725 22.1033 347.322 22.43C347.929 22.7567 348.4 23.2047 348.736 23.774C349.081 24.3433 349.254 25.006 349.254 25.762C349.254 26.4993 349.081 27.1573 348.736 27.736C348.4 28.3147 347.929 28.772 347.322 29.108C346.725 29.4347 346.039 29.598 345.264 29.598ZM345.264 28.1C345.693 28.1 346.076 28.0067 346.412 27.82C346.748 27.6333 347.009 27.3627 347.196 27.008C347.392 26.6533 347.49 26.238 347.49 25.762C347.49 25.2767 347.392 24.8613 347.196 24.516C347.009 24.1613 346.748 23.8907 346.412 23.704C346.076 23.5173 345.698 23.424 345.278 23.424C344.849 23.424 344.466 23.5173 344.13 23.704C343.803 23.8907 343.542 24.1613 343.346 24.516C343.15 24.8613 343.052 25.2767 343.052 25.762C343.052 26.238 343.15 26.6533 343.346 27.008C343.542 27.3627 343.803 27.6333 344.13 27.82C344.466 28.0067 344.844 28.1 345.264 28.1ZM354.091 29.598C353.457 29.598 352.897 29.4813 352.411 29.248C351.926 29.0053 351.548 28.6413 351.277 28.156C351.007 27.6613 350.871 27.0407 350.871 26.294V22.024H352.621V26.056C352.621 26.728 352.771 27.232 353.069 27.568C353.377 27.8947 353.811 28.058 354.371 28.058C354.782 28.058 355.137 27.974 355.435 27.806C355.743 27.638 355.981 27.386 356.149 27.05C356.327 26.714 356.415 26.2987 356.415 25.804V22.024H358.165V29.5H356.499V27.484L356.793 28.1C356.541 28.5853 356.173 28.9587 355.687 29.22C355.202 29.472 354.67 29.598 354.091 29.598ZM364.699 21.94C365.296 21.94 365.828 22.0567 366.295 22.29C366.771 22.5233 367.144 22.8827 367.415 23.368C367.685 23.844 367.821 24.46 367.821 25.216V29.5H366.071V25.44C366.071 24.7773 365.912 24.2827 365.595 23.956C365.287 23.6293 364.853 23.466 364.293 23.466C363.882 23.466 363.518 23.55 363.201 23.718C362.883 23.886 362.636 24.138 362.459 24.474C362.291 24.8007 362.207 25.216 362.207 25.72V29.5H360.457V22.024H362.123V24.04L361.829 23.424C362.09 22.948 362.468 22.584 362.963 22.332C363.467 22.0707 364.045 21.94 364.699 21.94ZM372.855 29.598C372.033 29.598 371.399 29.388 370.951 28.968C370.503 28.5387 370.279 27.9087 370.279 27.078V20.372H372.029V27.036C372.029 27.3907 372.117 27.666 372.295 27.862C372.481 28.058 372.738 28.156 373.065 28.156C373.457 28.156 373.783 28.0533 374.045 27.848L374.535 29.094C374.329 29.262 374.077 29.388 373.779 29.472C373.48 29.556 373.172 29.598 372.855 29.598ZM369.047 23.48V22.08H374.031V23.48H369.047Z" fill="#112211"/>
</svg>
