<svg width="141" height="48" viewBox="0 0 141 48" fill="none" xmlns="http://www.w3.org/2000/svg">
<rect width="141" height="48" rx="4" fill="#8DD3BB"/>
<path d="M25.4686 30.9999H25.4998C25.6543 31.0008 25.8054 30.9552 25.9336 30.869C26.0618 30.7829 26.1611 30.6601 26.2186 30.5168L26.1967 30.5085L26.1967 30.5083C26.141 30.6472 26.0447 30.7661 25.9205 30.8496C25.7962 30.9331 25.6497 30.9773 25.5 30.9765H25.4998H25.4691M25.4686 30.9999L25.4696 30.9765C25.4695 30.9765 25.4693 30.9765 25.4691 30.9765M25.4686 30.9999V30.9765H25.4691M25.4686 30.9999L25.4691 30.9765M25.4691 30.9765C25.1738 30.963 24.9287 30.7657 24.8317 30.4844L24.8315 30.484C24.8295 30.4785 24.8278 30.4734 24.826 30.4675L24.8262 30.4675L24.8251 30.4651L22.9928 26.1731C22.969 26.0937 22.9662 26.0095 22.9849 25.9286C23.0036 25.8474 23.0434 25.7726 23.1001 25.7115L25.4691 30.9765ZM30.7645 17.2368C30.8636 17.3362 30.9317 17.4623 30.9607 17.5997C30.9896 17.737 30.9781 17.8799 30.9276 18.0109L30.9276 18.011L26.1968 30.5081L23.1001 25.7115L29.5164 18.829C29.5165 18.8289 29.5166 18.8288 29.5167 18.8287C29.5393 18.8061 29.5572 18.7792 29.5694 18.7497C29.5817 18.72 29.588 18.6883 29.588 18.6562C29.588 18.6241 29.5817 18.5923 29.5694 18.5626C29.5571 18.533 29.5391 18.506 29.5164 18.4833C29.4937 18.4606 29.4668 18.4426 29.4371 18.4304C29.4075 18.4181 29.3757 18.4117 29.3436 18.4117C29.3115 18.4117 29.2797 18.4181 29.25 18.4304C29.2205 18.4426 29.1937 18.4605 29.1711 18.483C29.171 18.4831 29.1709 18.4832 29.1708 18.4833L22.2851 24.8993C22.2241 24.956 22.1492 24.9958 22.068 25.0146C21.9872 25.0332 21.9029 25.0305 21.8235 25.0066L17.534 23.1749L17.5341 23.1748L17.5319 23.1741L17.5195 23.1702C17.5194 23.1702 17.5193 23.1701 17.5193 23.1701C17.3775 23.1226 17.2538 23.0325 17.1651 22.9122C17.0763 22.7917 17.0269 22.6468 17.0236 22.4973C17.0203 22.3477 17.0632 22.2007 17.1466 22.0765C17.2287 21.954 17.3462 21.8594 17.4833 21.8053V21.8062L17.4916 21.8031L29.9925 17.0715L29.9925 17.0715C30.1235 17.0217 30.266 17.0108 30.4029 17.0402C30.5399 17.0695 30.6654 17.1377 30.7645 17.2368ZM30.7645 17.2368C30.7645 17.2368 30.7645 17.2368 30.7645 17.2368L30.7811 17.2202L30.7645 17.2368Z" fill="black" stroke="#112211" stroke-width="0.046875"/>
<path d="M40.326 29.612C39.5887 29.612 38.8747 29.5 38.184 29.276C37.5027 29.0427 36.966 28.744 36.574 28.38L37.092 27.288C37.4653 27.624 37.9413 27.8993 38.52 28.114C39.108 28.3193 39.71 28.422 40.326 28.422C41.138 28.422 41.7447 28.2867 42.146 28.016C42.5473 27.736 42.748 27.3673 42.748 26.91C42.748 26.574 42.636 26.3033 42.412 26.098C42.1973 25.8833 41.9267 25.72 41.6 25.608C41.2827 25.496 40.83 25.37 40.242 25.23C39.5047 25.0527 38.9073 24.8753 38.45 24.698C38.002 24.5207 37.6147 24.25 37.288 23.886C36.9707 23.5127 36.812 23.0133 36.812 22.388C36.812 21.8653 36.9473 21.394 37.218 20.974C37.498 20.554 37.918 20.218 38.478 19.966C39.038 19.714 39.7333 19.588 40.564 19.588C41.1427 19.588 41.712 19.6627 42.272 19.812C42.832 19.9613 43.3127 20.176 43.714 20.456L43.252 21.576C42.8413 21.3147 42.4027 21.1187 41.936 20.988C41.4693 20.848 41.012 20.778 40.564 20.778C39.7707 20.778 39.1733 20.9227 38.772 21.212C38.38 21.5013 38.184 21.8747 38.184 22.332C38.184 22.668 38.296 22.9433 38.52 23.158C38.744 23.3633 39.0193 23.5267 39.346 23.648C39.682 23.76 40.1347 23.8813 40.704 24.012C41.4413 24.1893 42.034 24.3667 42.482 24.544C42.93 24.7213 43.3127 24.992 43.63 25.356C43.9567 25.72 44.12 26.21 44.12 26.826C44.12 27.3393 43.98 27.8107 43.7 28.24C43.42 28.66 42.9953 28.996 42.426 29.248C41.8567 29.4907 41.1567 29.612 40.326 29.612ZM49.9313 22.01C50.874 22.01 51.6206 22.2853 52.1713 22.836C52.7313 23.3773 53.0113 24.1753 53.0113 25.23V29.5H51.6673V25.384C51.6673 24.6653 51.4946 24.124 51.1493 23.76C50.804 23.396 50.3093 23.214 49.6653 23.214C48.9373 23.214 48.3633 23.4287 47.9433 23.858C47.5233 24.278 47.3133 24.8847 47.3133 25.678V29.5H45.9693V19.112H47.3133V23.13C47.5933 22.7753 47.9573 22.5 48.4053 22.304C48.8626 22.108 49.3713 22.01 49.9313 22.01ZM58.7176 29.584C57.9803 29.584 57.3176 29.4207 56.7296 29.094C56.1416 28.7673 55.6796 28.3193 55.3436 27.75C55.017 27.1713 54.8536 26.518 54.8536 25.79C54.8536 25.062 55.017 24.4133 55.3436 23.844C55.6796 23.2653 56.1416 22.8173 56.7296 22.5C57.3176 22.1733 57.9803 22.01 58.7176 22.01C59.455 22.01 60.113 22.1733 60.6916 22.5C61.2796 22.8173 61.737 23.2653 62.0636 23.844C62.3996 24.4133 62.5676 25.062 62.5676 25.79C62.5676 26.518 62.3996 27.1713 62.0636 27.75C61.737 28.3193 61.2796 28.7673 60.6916 29.094C60.113 29.4207 59.455 29.584 58.7176 29.584ZM58.7176 28.408C59.1936 28.408 59.6183 28.3007 59.9916 28.086C60.3743 27.862 60.673 27.554 60.8876 27.162C61.1023 26.7607 61.2096 26.3033 61.2096 25.79C61.2096 25.2767 61.1023 24.824 60.8876 24.432C60.673 24.0307 60.3743 23.7227 59.9916 23.508C59.6183 23.2933 59.1936 23.186 58.7176 23.186C58.2416 23.186 57.8123 23.2933 57.4296 23.508C57.0563 23.7227 56.7576 24.0307 56.5336 24.432C56.319 24.824 56.2116 25.2767 56.2116 25.79C56.2116 26.3033 56.319 26.7607 56.5336 27.162C56.7576 27.554 57.0563 27.862 57.4296 28.086C57.8123 28.3007 58.2416 28.408 58.7176 28.408ZM75.4493 22.08L72.6773 29.5H71.3893L69.2473 23.872L67.0773 29.5H65.7893L63.0313 22.08H64.3053L66.4613 27.988L68.7013 22.08H69.8353L72.0333 28.016L74.2453 22.08H75.4493ZM89.1968 19.7V29.5H87.7968V25.132H82.1688V29.5H80.7688V19.7H82.1688V23.914H87.7968V19.7H89.1968ZM95.1122 29.584C94.3748 29.584 93.7122 29.4207 93.1242 29.094C92.5362 28.7673 92.0742 28.3193 91.7382 27.75C91.4115 27.1713 91.2482 26.518 91.2482 25.79C91.2482 25.062 91.4115 24.4133 91.7382 23.844C92.0742 23.2653 92.5362 22.8173 93.1242 22.5C93.7122 22.1733 94.3748 22.01 95.1122 22.01C95.8495 22.01 96.5075 22.1733 97.0862 22.5C97.6742 22.8173 98.1315 23.2653 98.4582 23.844C98.7942 24.4133 98.9622 25.062 98.9622 25.79C98.9622 26.518 98.7942 27.1713 98.4582 27.75C98.1315 28.3193 97.6742 28.7673 97.0862 29.094C96.5075 29.4207 95.8495 29.584 95.1122 29.584ZM95.1122 28.408C95.5882 28.408 96.0128 28.3007 96.3862 28.086C96.7688 27.862 97.0675 27.554 97.2822 27.162C97.4968 26.7607 97.6042 26.3033 97.6042 25.79C97.6042 25.2767 97.4968 24.824 97.2822 24.432C97.0675 24.0307 96.7688 23.7227 96.3862 23.508C96.0128 23.2933 95.5882 23.186 95.1122 23.186C94.6362 23.186 94.2068 23.2933 93.8242 23.508C93.4508 23.7227 93.1522 24.0307 92.9282 24.432C92.7135 24.824 92.6062 25.2767 92.6062 25.79C92.6062 26.3033 92.7135 26.7607 92.9282 27.162C93.1522 27.554 93.4508 27.862 93.8242 28.086C94.2068 28.3007 94.6362 28.408 95.1122 28.408ZM104.993 29.066C104.797 29.234 104.554 29.3647 104.265 29.458C103.976 29.542 103.677 29.584 103.369 29.584C102.622 29.584 102.044 29.3833 101.633 28.982C101.222 28.5807 101.017 28.0067 101.017 27.26V23.186H99.7569V22.08H101.017V20.456H102.361V22.08H104.489V23.186H102.361V27.204C102.361 27.6053 102.459 27.9133 102.655 28.128C102.86 28.3427 103.15 28.45 103.523 28.45C103.934 28.45 104.284 28.3333 104.573 28.1L104.993 29.066ZM113.078 25.832C113.078 25.9347 113.068 26.07 113.05 26.238H107.03C107.114 26.8913 107.398 27.4187 107.884 27.82C108.378 28.212 108.99 28.408 109.718 28.408C110.604 28.408 111.318 28.1093 111.86 27.512L112.602 28.38C112.266 28.772 111.846 29.0707 111.342 29.276C110.847 29.4813 110.292 29.584 109.676 29.584C108.892 29.584 108.196 29.4253 107.59 29.108C106.983 28.7813 106.512 28.3287 106.176 27.75C105.849 27.1713 105.686 26.518 105.686 25.79C105.686 25.0713 105.844 24.4227 106.162 23.844C106.488 23.2653 106.932 22.8173 107.492 22.5C108.061 22.1733 108.7 22.01 109.41 22.01C110.119 22.01 110.749 22.1733 111.3 22.5C111.86 22.8173 112.294 23.2653 112.602 23.844C112.919 24.4227 113.078 25.0853 113.078 25.832ZM109.41 23.144C108.766 23.144 108.224 23.34 107.786 23.732C107.356 24.124 107.104 24.6373 107.03 25.272H111.79C111.715 24.6467 111.458 24.138 111.02 23.746C110.59 23.3447 110.054 23.144 109.41 23.144ZM114.944 19.112H116.288V29.5H114.944V19.112ZM120.982 29.584C120.375 29.584 119.792 29.5047 119.232 29.346C118.672 29.178 118.233 28.968 117.916 28.716L118.476 27.652C118.803 27.8853 119.199 28.072 119.666 28.212C120.133 28.352 120.604 28.422 121.08 28.422C122.256 28.422 122.844 28.086 122.844 27.414C122.844 27.19 122.765 27.0127 122.606 26.882C122.447 26.7513 122.247 26.658 122.004 26.602C121.771 26.5367 121.435 26.4667 120.996 26.392C120.399 26.2987 119.909 26.1913 119.526 26.07C119.153 25.9487 118.831 25.7433 118.56 25.454C118.289 25.1647 118.154 24.7587 118.154 24.236C118.154 23.564 118.434 23.0273 118.994 22.626C119.554 22.2153 120.305 22.01 121.248 22.01C121.743 22.01 122.237 22.0707 122.732 22.192C123.227 22.3133 123.633 22.4767 123.95 22.682L123.376 23.746C122.769 23.354 122.055 23.158 121.234 23.158C120.665 23.158 120.231 23.2513 119.932 23.438C119.633 23.6247 119.484 23.872 119.484 24.18C119.484 24.4227 119.568 24.614 119.736 24.754C119.904 24.894 120.109 24.9967 120.352 25.062C120.604 25.1273 120.954 25.202 121.402 25.286C121.999 25.3887 122.48 25.5007 122.844 25.622C123.217 25.734 123.535 25.93 123.796 26.21C124.057 26.49 124.188 26.882 124.188 27.386C124.188 28.058 123.899 28.5947 123.32 28.996C122.751 29.388 121.971 29.584 120.982 29.584Z" fill="#112211"/>
</svg>
