<svg width="80" height="40" viewBox="0 0 80 40" fill="none" xmlns="http://www.w3.org/2000/svg">
<rect x="0.5" y="0.5" width="79" height="39" rx="3.5" stroke="#8DD3BB"/>
<path d="M20.326 25.612C19.5887 25.612 18.8747 25.5 18.184 25.276C17.5027 25.0427 16.966 24.744 16.574 24.38L17.092 23.288C17.4653 23.624 17.9413 23.8993 18.52 24.114C19.108 24.3193 19.71 24.422 20.326 24.422C21.138 24.422 21.7447 24.2867 22.146 24.016C22.5473 23.736 22.748 23.3673 22.748 22.91C22.748 22.574 22.636 22.3033 22.412 22.098C22.1973 21.8833 21.9267 21.72 21.6 21.608C21.2827 21.496 20.83 21.37 20.242 21.23C19.5047 21.0527 18.9073 20.8753 18.45 20.698C18.002 20.5207 17.6147 20.25 17.288 19.886C16.9707 19.5127 16.812 19.0133 16.812 18.388C16.812 17.8653 16.9473 17.394 17.218 16.974C17.498 16.554 17.918 16.218 18.478 15.966C19.038 15.714 19.7333 15.588 20.564 15.588C21.1427 15.588 21.712 15.6627 22.272 15.812C22.832 15.9613 23.3127 16.176 23.714 16.456L23.252 17.576C22.8413 17.3147 22.4027 17.1187 21.936 16.988C21.4693 16.848 21.012 16.778 20.564 16.778C19.7707 16.778 19.1733 16.9227 18.772 17.212C18.38 17.5013 18.184 17.8747 18.184 18.332C18.184 18.668 18.296 18.9433 18.52 19.158C18.744 19.3633 19.0193 19.5267 19.346 19.648C19.682 19.76 20.1347 19.8813 20.704 20.012C21.4413 20.1893 22.034 20.3667 22.482 20.544C22.93 20.7213 23.3127 20.992 23.63 21.356C23.9567 21.72 24.12 22.21 24.12 22.826C24.12 23.3393 23.98 23.8107 23.7 24.24C23.42 24.66 22.9953 24.996 22.426 25.248C21.8567 25.4907 21.1567 25.612 20.326 25.612ZM32.6753 21.832C32.6753 21.9347 32.666 22.07 32.6473 22.238H26.6273C26.7113 22.8913 26.996 23.4187 27.4813 23.82C27.976 24.212 28.5873 24.408 29.3153 24.408C30.202 24.408 30.916 24.1093 31.4573 23.512L32.1993 24.38C31.8633 24.772 31.4433 25.0707 30.9393 25.276C30.4446 25.4813 29.8893 25.584 29.2733 25.584C28.4893 25.584 27.794 25.4253 27.1873 25.108C26.5806 24.7813 26.1093 24.3287 25.7733 23.75C25.4466 23.1713 25.2833 22.518 25.2833 21.79C25.2833 21.0713 25.442 20.4227 25.7593 19.844C26.086 19.2653 26.5293 18.8173 27.0893 18.5C27.6586 18.1733 28.298 18.01 29.0073 18.01C29.7166 18.01 30.3466 18.1733 30.8973 18.5C31.4573 18.8173 31.8913 19.2653 32.1993 19.844C32.5166 20.4227 32.6753 21.0853 32.6753 21.832ZM29.0073 19.144C28.3633 19.144 27.822 19.34 27.3833 19.732C26.954 20.124 26.702 20.6373 26.6273 21.272H31.3873C31.3126 20.6467 31.056 20.138 30.6173 19.746C30.188 19.3447 29.6513 19.144 29.0073 19.144ZM41.2476 21.832C41.2476 21.9347 41.2382 22.07 41.2196 22.238H35.1996C35.2836 22.8913 35.5682 23.4187 36.0536 23.82C36.5482 24.212 37.1596 24.408 37.8876 24.408C38.7742 24.408 39.4882 24.1093 40.0296 23.512L40.7716 24.38C40.4356 24.772 40.0156 25.0707 39.5116 25.276C39.0169 25.4813 38.4616 25.584 37.8456 25.584C37.0616 25.584 36.3662 25.4253 35.7596 25.108C35.1529 24.7813 34.6816 24.3287 34.3456 23.75C34.0189 23.1713 33.8556 22.518 33.8556 21.79C33.8556 21.0713 34.0142 20.4227 34.3316 19.844C34.6582 19.2653 35.1016 18.8173 35.6616 18.5C36.2309 18.1733 36.8702 18.01 37.5796 18.01C38.2889 18.01 38.9189 18.1733 39.4696 18.5C40.0296 18.8173 40.4636 19.2653 40.7716 19.844C41.0889 20.4227 41.2476 21.0853 41.2476 21.832ZM37.5796 19.144C36.9356 19.144 36.3942 19.34 35.9556 19.732C35.5262 20.124 35.2742 20.6373 35.1996 21.272H39.9596C39.8849 20.6467 39.6282 20.138 39.1896 19.746C38.7602 19.3447 38.2236 19.144 37.5796 19.144ZM53.3136 23.05H48.1056L47.0276 25.5H45.5856L50.0236 15.7H51.4096L55.8616 25.5H54.3916L53.3136 23.05ZM52.8236 21.93L50.7096 17.128L48.5956 21.93H52.8236ZM57.1275 15.112H58.4715V25.5H57.1275V15.112ZM61.0377 15.112H62.3817V25.5H61.0377V15.112Z" fill="#112211"/>
</svg>
