<svg width="149" height="40" viewBox="0 0 149 40" fill="none" xmlns="http://www.w3.org/2000/svg">
<rect x="0.5" y="0.5" width="148" height="39" rx="3.5" stroke="#8DD3BB"/>
<path d="M20.326 25.612C19.5887 25.612 18.8747 25.5 18.184 25.276C17.5027 25.0427 16.966 24.744 16.574 24.38L17.092 23.288C17.4653 23.624 17.9413 23.8993 18.52 24.114C19.108 24.3193 19.71 24.422 20.326 24.422C21.138 24.422 21.7447 24.2867 22.146 24.016C22.5473 23.736 22.748 23.3673 22.748 22.91C22.748 22.574 22.636 22.3033 22.412 22.098C22.1973 21.8833 21.9267 21.72 21.6 21.608C21.2827 21.496 20.83 21.37 20.242 21.23C19.5047 21.0527 18.9073 20.8753 18.45 20.698C18.002 20.5207 17.6147 20.25 17.288 19.886C16.9707 19.5127 16.812 19.0133 16.812 18.388C16.812 17.8653 16.9473 17.394 17.218 16.974C17.498 16.554 17.918 16.218 18.478 15.966C19.038 15.714 19.7333 15.588 20.564 15.588C21.1427 15.588 21.712 15.6627 22.272 15.812C22.832 15.9613 23.3127 16.176 23.714 16.456L23.252 17.576C22.8413 17.3147 22.4027 17.1187 21.936 16.988C21.4693 16.848 21.012 16.778 20.564 16.778C19.7707 16.778 19.1733 16.9227 18.772 17.212C18.38 17.5013 18.184 17.8747 18.184 18.332C18.184 18.668 18.296 18.9433 18.52 19.158C18.744 19.3633 19.0193 19.5267 19.346 19.648C19.682 19.76 20.1347 19.8813 20.704 20.012C21.4413 20.1893 22.034 20.3667 22.482 20.544C22.93 20.7213 23.3127 20.992 23.63 21.356C23.9567 21.72 24.12 22.21 24.12 22.826C24.12 23.3393 23.98 23.8107 23.7 24.24C23.42 24.66 22.9953 24.996 22.426 25.248C21.8567 25.4907 21.1567 25.612 20.326 25.612ZM32.6753 21.832C32.6753 21.9347 32.666 22.07 32.6473 22.238H26.6273C26.7113 22.8913 26.996 23.4187 27.4813 23.82C27.976 24.212 28.5873 24.408 29.3153 24.408C30.202 24.408 30.916 24.1093 31.4573 23.512L32.1993 24.38C31.8633 24.772 31.4433 25.0707 30.9393 25.276C30.4446 25.4813 29.8893 25.584 29.2733 25.584C28.4893 25.584 27.794 25.4253 27.1873 25.108C26.5806 24.7813 26.1093 24.3287 25.7733 23.75C25.4466 23.1713 25.2833 22.518 25.2833 21.79C25.2833 21.0713 25.442 20.4227 25.7593 19.844C26.086 19.2653 26.5293 18.8173 27.0893 18.5C27.6586 18.1733 28.298 18.01 29.0073 18.01C29.7166 18.01 30.3466 18.1733 30.8973 18.5C31.4573 18.8173 31.8913 19.2653 32.1993 19.844C32.5166 20.4227 32.6753 21.0853 32.6753 21.832ZM29.0073 19.144C28.3633 19.144 27.822 19.34 27.3833 19.732C26.954 20.124 26.702 20.6373 26.6273 21.272H31.3873C31.3126 20.6467 31.056 20.138 30.6173 19.746C30.188 19.3447 29.6513 19.144 29.0073 19.144ZM41.2476 21.832C41.2476 21.9347 41.2382 22.07 41.2196 22.238H35.1996C35.2836 22.8913 35.5682 23.4187 36.0536 23.82C36.5482 24.212 37.1596 24.408 37.8876 24.408C38.7742 24.408 39.4882 24.1093 40.0296 23.512L40.7716 24.38C40.4356 24.772 40.0156 25.0707 39.5116 25.276C39.0169 25.4813 38.4616 25.584 37.8456 25.584C37.0616 25.584 36.3662 25.4253 35.7596 25.108C35.1529 24.7813 34.6816 24.3287 34.3456 23.75C34.0189 23.1713 33.8556 22.518 33.8556 21.79C33.8556 21.0713 34.0142 20.4227 34.3316 19.844C34.6582 19.2653 35.1016 18.8173 35.6616 18.5C36.2309 18.1733 36.8702 18.01 37.5796 18.01C38.2889 18.01 38.9189 18.1733 39.4696 18.5C40.0296 18.8173 40.4636 19.2653 40.7716 19.844C41.0889 20.4227 41.2476 21.0853 41.2476 21.832ZM37.5796 19.144C36.9356 19.144 36.3942 19.34 35.9556 19.732C35.5262 20.124 35.2742 20.6373 35.1996 21.272H39.9596C39.8849 20.6467 39.6282 20.138 39.1896 19.746C38.7602 19.3447 38.2236 19.144 37.5796 19.144ZM56.1556 18.01C57.0889 18.01 57.8263 18.2807 58.3676 18.822C58.9183 19.3633 59.1936 20.166 59.1936 21.23V25.5H57.8496V21.384C57.8496 20.6653 57.6816 20.124 57.3456 19.76C57.0189 19.396 56.5476 19.214 55.9316 19.214C55.2503 19.214 54.7089 19.4287 54.3076 19.858C53.9063 20.278 53.7056 20.8847 53.7056 21.678V25.5H52.3616V21.384C52.3616 20.6653 52.1936 20.124 51.8576 19.76C51.5309 19.396 51.0596 19.214 50.4436 19.214C49.7623 19.214 49.2209 19.4287 48.8196 19.858C48.4183 20.278 48.2176 20.8847 48.2176 21.678V25.5H46.8736V18.08H48.1616V19.186C48.4323 18.8033 48.7869 18.514 49.2256 18.318C49.6643 18.1127 50.1636 18.01 50.7236 18.01C51.3023 18.01 51.8156 18.1267 52.2636 18.36C52.7116 18.5933 53.0569 18.934 53.2996 19.382C53.5796 18.9527 53.9669 18.6167 54.4616 18.374C54.9656 18.1313 55.5303 18.01 56.1556 18.01ZM64.8856 25.584C64.1483 25.584 63.4856 25.4207 62.8976 25.094C62.3096 24.7673 61.8476 24.3193 61.5116 23.75C61.1849 23.1713 61.0216 22.518 61.0216 21.79C61.0216 21.062 61.1849 20.4133 61.5116 19.844C61.8476 19.2653 62.3096 18.8173 62.8976 18.5C63.4856 18.1733 64.1483 18.01 64.8856 18.01C65.6229 18.01 66.2809 18.1733 66.8596 18.5C67.4476 18.8173 67.9049 19.2653 68.2316 19.844C68.5676 20.4133 68.7356 21.062 68.7356 21.79C68.7356 22.518 68.5676 23.1713 68.2316 23.75C67.9049 24.3193 67.4476 24.7673 66.8596 25.094C66.2809 25.4207 65.6229 25.584 64.8856 25.584ZM64.8856 24.408C65.3616 24.408 65.7863 24.3007 66.1596 24.086C66.5423 23.862 66.8409 23.554 67.0556 23.162C67.2703 22.7607 67.3776 22.3033 67.3776 21.79C67.3776 21.2767 67.2703 20.824 67.0556 20.432C66.8409 20.0307 66.5423 19.7227 66.1596 19.508C65.7863 19.2933 65.3616 19.186 64.8856 19.186C64.4096 19.186 63.9803 19.2933 63.5976 19.508C63.2243 19.7227 62.9256 20.0307 62.7016 20.432C62.4869 20.824 62.3796 21.2767 62.3796 21.79C62.3796 22.3033 62.4869 22.7607 62.7016 23.162C62.9256 23.554 63.2243 23.862 63.5976 24.086C63.9803 24.3007 64.4096 24.408 64.8856 24.408ZM71.8823 19.326C72.1156 18.8967 72.461 18.57 72.9183 18.346C73.3756 18.122 73.931 18.01 74.5843 18.01V19.312C74.5096 19.3027 74.407 19.298 74.2763 19.298C73.5483 19.298 72.9743 19.5173 72.5543 19.956C72.1436 20.3853 71.9383 21.0013 71.9383 21.804V25.5H70.5943V18.08H71.8823V19.326ZM82.8784 21.832C82.8784 21.9347 82.8691 22.07 82.8504 22.238H76.8304C76.9144 22.8913 77.1991 23.4187 77.6844 23.82C78.1791 24.212 78.7904 24.408 79.5184 24.408C80.4051 24.408 81.1191 24.1093 81.6604 23.512L82.4024 24.38C82.0664 24.772 81.6464 25.0707 81.1424 25.276C80.6478 25.4813 80.0924 25.584 79.4764 25.584C78.6924 25.584 77.9971 25.4253 77.3904 25.108C76.7838 24.7813 76.3124 24.3287 75.9764 23.75C75.6498 23.1713 75.4864 22.518 75.4864 21.79C75.4864 21.0713 75.6451 20.4227 75.9624 19.844C76.2891 19.2653 76.7324 18.8173 77.2924 18.5C77.8618 18.1733 78.5011 18.01 79.2104 18.01C79.9198 18.01 80.5498 18.1733 81.1004 18.5C81.6604 18.8173 82.0944 19.2653 82.4024 19.844C82.7198 20.4227 82.8784 21.0853 82.8784 21.832ZM79.2104 19.144C78.5664 19.144 78.0251 19.34 77.5864 19.732C77.1571 20.124 76.9051 20.6373 76.8304 21.272H81.5904C81.5158 20.6467 81.2591 20.138 80.8204 19.746C80.3911 19.3447 79.8544 19.144 79.2104 19.144ZM92.4385 18.01C93.1571 18.01 93.8011 18.1687 94.3705 18.486C94.9398 18.8033 95.3831 19.2467 95.7005 19.816C96.0271 20.3853 96.1905 21.0433 96.1905 21.79C96.1905 22.5367 96.0271 23.1993 95.7005 23.778C95.3831 24.3473 94.9398 24.7907 94.3705 25.108C93.8011 25.4253 93.1571 25.584 92.4385 25.584C91.9065 25.584 91.4165 25.4813 90.9685 25.276C90.5298 25.0707 90.1565 24.772 89.8485 24.38V28.216H88.5045V18.08H89.7925V19.256C90.0911 18.8453 90.4691 18.5373 90.9265 18.332C91.3838 18.1173 91.8878 18.01 92.4385 18.01ZM92.3265 24.408C92.8025 24.408 93.2271 24.3007 93.6005 24.086C93.9831 23.862 94.2818 23.554 94.4965 23.162C94.7205 22.7607 94.8325 22.3033 94.8325 21.79C94.8325 21.2767 94.7205 20.824 94.4965 20.432C94.2818 20.0307 93.9831 19.7227 93.6005 19.508C93.2271 19.2933 92.8025 19.186 92.3265 19.186C91.8598 19.186 91.4351 19.298 91.0525 19.522C90.6791 19.7367 90.3805 20.04 90.1565 20.432C89.9418 20.824 89.8345 21.2767 89.8345 21.79C89.8345 22.3033 89.9418 22.7607 90.1565 23.162C90.3711 23.554 90.6698 23.862 91.0525 24.086C91.4351 24.3007 91.8598 24.408 92.3265 24.408ZM98.0474 15.112H99.3914V25.5H98.0474V15.112ZM104.66 18.01C105.686 18.01 106.47 18.262 107.012 18.766C107.562 19.27 107.838 20.0213 107.838 21.02V25.5H106.564V24.52C106.34 24.8653 106.018 25.1313 105.598 25.318C105.187 25.4953 104.697 25.584 104.128 25.584C103.297 25.584 102.63 25.3833 102.126 24.982C101.631 24.5807 101.384 24.0533 101.384 23.4C101.384 22.7467 101.622 22.224 102.098 21.832C102.574 21.4307 103.33 21.23 104.366 21.23H106.494V20.964C106.494 20.3853 106.326 19.942 105.99 19.634C105.654 19.326 105.159 19.172 104.506 19.172C104.067 19.172 103.638 19.2467 103.218 19.396C102.798 19.536 102.443 19.7273 102.154 19.97L101.594 18.962C101.976 18.654 102.434 18.4207 102.966 18.262C103.498 18.094 104.062 18.01 104.66 18.01ZM104.352 24.548C104.865 24.548 105.308 24.436 105.682 24.212C106.055 23.9787 106.326 23.652 106.494 23.232V22.196H104.422C103.283 22.196 102.714 22.5787 102.714 23.344C102.714 23.7173 102.858 24.0113 103.148 24.226C103.437 24.4407 103.838 24.548 104.352 24.548ZM113.6 25.584C112.844 25.584 112.167 25.4207 111.57 25.094C110.982 24.7673 110.52 24.3193 110.184 23.75C109.848 23.1713 109.68 22.518 109.68 21.79C109.68 21.062 109.848 20.4133 110.184 19.844C110.52 19.2653 110.982 18.8173 111.57 18.5C112.167 18.1733 112.844 18.01 113.6 18.01C114.272 18.01 114.869 18.1453 115.392 18.416C115.924 18.6867 116.334 19.0787 116.624 19.592L115.602 20.25C115.368 19.8953 115.079 19.6293 114.734 19.452C114.388 19.2747 114.006 19.186 113.586 19.186C113.1 19.186 112.662 19.2933 112.27 19.508C111.887 19.7227 111.584 20.0307 111.36 20.432C111.145 20.824 111.038 21.2767 111.038 21.79C111.038 22.3127 111.145 22.7747 111.36 23.176C111.584 23.568 111.887 23.8713 112.27 24.086C112.662 24.3007 113.1 24.408 113.586 24.408C114.006 24.408 114.388 24.3193 114.734 24.142C115.079 23.9647 115.368 23.6987 115.602 23.344L116.624 23.988C116.334 24.5013 115.924 24.898 115.392 25.178C114.869 25.4487 114.272 25.584 113.6 25.584ZM124.96 21.832C124.96 21.9347 124.951 22.07 124.932 22.238H118.912C118.996 22.8913 119.281 23.4187 119.766 23.82C120.261 24.212 120.872 24.408 121.6 24.408C122.487 24.408 123.201 24.1093 123.742 23.512L124.484 24.38C124.148 24.772 123.728 25.0707 123.224 25.276C122.73 25.4813 122.174 25.584 121.558 25.584C120.774 25.584 120.079 25.4253 119.472 25.108C118.866 24.7813 118.394 24.3287 118.058 23.75C117.732 23.1713 117.568 22.518 117.568 21.79C117.568 21.0713 117.727 20.4227 118.044 19.844C118.371 19.2653 118.814 18.8173 119.374 18.5C119.944 18.1733 120.583 18.01 121.292 18.01C122.002 18.01 122.632 18.1733 123.182 18.5C123.742 18.8173 124.176 19.2653 124.484 19.844C124.802 20.4227 124.96 21.0853 124.96 21.832ZM121.292 19.144C120.648 19.144 120.107 19.34 119.668 19.732C119.239 20.124 118.987 20.6373 118.912 21.272H123.672C123.598 20.6467 123.341 20.138 122.902 19.746C122.473 19.3447 121.936 19.144 121.292 19.144ZM128.955 25.584C128.348 25.584 127.765 25.5047 127.205 25.346C126.645 25.178 126.206 24.968 125.889 24.716L126.449 23.652C126.775 23.8853 127.172 24.072 127.639 24.212C128.105 24.352 128.577 24.422 129.053 24.422C130.229 24.422 130.817 24.086 130.817 23.414C130.817 23.19 130.737 23.0127 130.579 22.882C130.42 22.7513 130.219 22.658 129.977 22.602C129.743 22.5367 129.407 22.4667 128.969 22.392C128.371 22.2987 127.881 22.1913 127.499 22.07C127.125 21.9487 126.803 21.7433 126.533 21.454C126.262 21.1647 126.127 20.7587 126.127 20.236C126.127 19.564 126.407 19.0273 126.967 18.626C127.527 18.2153 128.278 18.01 129.221 18.01C129.715 18.01 130.21 18.0707 130.705 18.192C131.199 18.3133 131.605 18.4767 131.923 18.682L131.349 19.746C130.742 19.354 130.028 19.158 129.207 19.158C128.637 19.158 128.203 19.2513 127.905 19.438C127.606 19.6247 127.457 19.872 127.457 20.18C127.457 20.4227 127.541 20.614 127.709 20.754C127.877 20.894 128.082 20.9967 128.325 21.062C128.577 21.1273 128.927 21.202 129.375 21.286C129.972 21.3887 130.453 21.5007 130.817 21.622C131.19 21.734 131.507 21.93 131.769 22.21C132.03 22.49 132.161 22.882 132.161 23.386C132.161 24.058 131.871 24.5947 131.293 24.996C130.723 25.388 129.944 25.584 128.955 25.584Z" fill="#112211"/>
</svg>
