<svg width="248" height="48" viewBox="0 0 248 48" fill="none" xmlns="http://www.w3.org/2000/svg">
<rect width="248" height="48" rx="4" fill="#8DD3BB"/>
<path d="M86.064 24.418C86.6333 24.5767 87.0813 24.866 87.408 25.286C87.7347 25.6967 87.898 26.2193 87.898 26.854C87.898 27.7033 87.576 28.3567 86.932 28.814C86.2973 29.2713 85.3687 29.5 84.146 29.5H79.47V19.7H83.866C84.986 19.7 85.8493 19.924 86.456 20.372C87.072 20.82 87.38 21.4407 87.38 22.234C87.38 22.7473 87.2587 23.1907 87.016 23.564C86.7827 23.9373 86.4653 24.222 86.064 24.418ZM80.87 20.834V23.97H83.74C84.4587 23.97 85.0093 23.8393 85.392 23.578C85.784 23.3073 85.98 22.9153 85.98 22.402C85.98 21.8887 85.784 21.5013 85.392 21.24C85.0093 20.9693 84.4587 20.834 83.74 20.834H80.87ZM84.09 28.366C84.8833 28.366 85.4807 28.2353 85.882 27.974C86.2833 27.7127 86.484 27.302 86.484 26.742C86.484 25.65 85.686 25.104 84.09 25.104H80.87V28.366H84.09ZM93.0477 29.584C92.3104 29.584 91.6477 29.4207 91.0597 29.094C90.4717 28.7673 90.0097 28.3193 89.6737 27.75C89.347 27.1713 89.1837 26.518 89.1837 25.79C89.1837 25.062 89.347 24.4133 89.6737 23.844C90.0097 23.2653 90.4717 22.8173 91.0597 22.5C91.6477 22.1733 92.3104 22.01 93.0477 22.01C93.785 22.01 94.443 22.1733 95.0217 22.5C95.6097 22.8173 96.067 23.2653 96.3937 23.844C96.7297 24.4133 96.8977 25.062 96.8977 25.79C96.8977 26.518 96.7297 27.1713 96.3937 27.75C96.067 28.3193 95.6097 28.7673 95.0217 29.094C94.443 29.4207 93.785 29.584 93.0477 29.584ZM93.0477 28.408C93.5237 28.408 93.9484 28.3007 94.3217 28.086C94.7044 27.862 95.003 27.554 95.2177 27.162C95.4324 26.7607 95.5397 26.3033 95.5397 25.79C95.5397 25.2767 95.4324 24.824 95.2177 24.432C95.003 24.0307 94.7044 23.7227 94.3217 23.508C93.9484 23.2933 93.5237 23.186 93.0477 23.186C92.5717 23.186 92.1424 23.2933 91.7597 23.508C91.3864 23.7227 91.0877 24.0307 90.8637 24.432C90.649 24.824 90.5417 25.2767 90.5417 25.79C90.5417 26.3033 90.649 26.7607 90.8637 27.162C91.0877 27.554 91.3864 27.862 91.7597 28.086C92.1424 28.3007 92.5717 28.408 93.0477 28.408ZM101.934 29.584C101.197 29.584 100.534 29.4207 99.9464 29.094C99.3584 28.7673 98.8964 28.3193 98.5604 27.75C98.2338 27.1713 98.0704 26.518 98.0704 25.79C98.0704 25.062 98.2338 24.4133 98.5604 23.844C98.8964 23.2653 99.3584 22.8173 99.9464 22.5C100.534 22.1733 101.197 22.01 101.934 22.01C102.672 22.01 103.33 22.1733 103.908 22.5C104.496 22.8173 104.954 23.2653 105.28 23.844C105.616 24.4133 105.784 25.062 105.784 25.79C105.784 26.518 105.616 27.1713 105.28 27.75C104.954 28.3193 104.496 28.7673 103.908 29.094C103.33 29.4207 102.672 29.584 101.934 29.584ZM101.934 28.408C102.41 28.408 102.835 28.3007 103.208 28.086C103.591 27.862 103.89 27.554 104.104 27.162C104.319 26.7607 104.426 26.3033 104.426 25.79C104.426 25.2767 104.319 24.824 104.104 24.432C103.89 24.0307 103.591 23.7227 103.208 23.508C102.835 23.2933 102.41 23.186 101.934 23.186C101.458 23.186 101.029 23.2933 100.646 23.508C100.273 23.7227 99.9744 24.0307 99.7504 24.432C99.5358 24.824 99.4284 25.2767 99.4284 25.79C99.4284 26.3033 99.5358 26.7607 99.7504 27.162C99.9744 27.554 100.273 27.862 100.646 28.086C101.029 28.3007 101.458 28.408 101.934 28.408ZM110.527 26.042L108.987 27.47V29.5H107.643V19.112H108.987V25.776L113.033 22.08H114.657L111.535 25.146L114.965 29.5H113.313L110.527 26.042ZM122.732 22.01C123.759 22.01 124.543 22.262 125.084 22.766C125.635 23.27 125.91 24.0213 125.91 25.02V29.5H124.636V28.52C124.412 28.8653 124.09 29.1313 123.67 29.318C123.259 29.4953 122.769 29.584 122.2 29.584C121.369 29.584 120.702 29.3833 120.198 28.982C119.703 28.5807 119.456 28.0533 119.456 27.4C119.456 26.7467 119.694 26.224 120.17 25.832C120.646 25.4307 121.402 25.23 122.438 25.23H124.566V24.964C124.566 24.3853 124.398 23.942 124.062 23.634C123.726 23.326 123.231 23.172 122.578 23.172C122.139 23.172 121.71 23.2467 121.29 23.396C120.87 23.536 120.515 23.7273 120.226 23.97L119.666 22.962C120.049 22.654 120.506 22.4207 121.038 22.262C121.57 22.094 122.135 22.01 122.732 22.01ZM122.424 28.548C122.937 28.548 123.381 28.436 123.754 28.212C124.127 27.9787 124.398 27.652 124.566 27.232V26.196H122.494C121.355 26.196 120.786 26.5787 120.786 27.344C120.786 27.7173 120.931 28.0113 121.22 28.226C121.509 28.4407 121.911 28.548 122.424 28.548ZM140.781 19.7V29.5H139.381V25.132H133.753V29.5H132.353V19.7H133.753V23.914H139.381V19.7H140.781ZM146.696 29.584C145.959 29.584 145.296 29.4207 144.708 29.094C144.12 28.7673 143.658 28.3193 143.322 27.75C142.995 27.1713 142.832 26.518 142.832 25.79C142.832 25.062 142.995 24.4133 143.322 23.844C143.658 23.2653 144.12 22.8173 144.708 22.5C145.296 22.1733 145.959 22.01 146.696 22.01C147.433 22.01 148.091 22.1733 148.67 22.5C149.258 22.8173 149.715 23.2653 150.042 23.844C150.378 24.4133 150.546 25.062 150.546 25.79C150.546 26.518 150.378 27.1713 150.042 27.75C149.715 28.3193 149.258 28.7673 148.67 29.094C148.091 29.4207 147.433 29.584 146.696 29.584ZM146.696 28.408C147.172 28.408 147.597 28.3007 147.97 28.086C148.353 27.862 148.651 27.554 148.866 27.162C149.081 26.7607 149.188 26.3033 149.188 25.79C149.188 25.2767 149.081 24.824 148.866 24.432C148.651 24.0307 148.353 23.7227 147.97 23.508C147.597 23.2933 147.172 23.186 146.696 23.186C146.22 23.186 145.791 23.2933 145.408 23.508C145.035 23.7227 144.736 24.0307 144.512 24.432C144.297 24.824 144.19 25.2767 144.19 25.79C144.19 26.3033 144.297 26.7607 144.512 27.162C144.736 27.554 145.035 27.862 145.408 28.086C145.791 28.3007 146.22 28.408 146.696 28.408ZM156.577 29.066C156.381 29.234 156.138 29.3647 155.849 29.458C155.56 29.542 155.261 29.584 154.953 29.584C154.206 29.584 153.628 29.3833 153.217 28.982C152.806 28.5807 152.601 28.0067 152.601 27.26V23.186H151.341V22.08H152.601V20.456H153.945V22.08H156.073V23.186H153.945V27.204C153.945 27.6053 154.043 27.9133 154.239 28.128C154.444 28.3427 154.734 28.45 155.107 28.45C155.518 28.45 155.868 28.3333 156.157 28.1L156.577 29.066ZM164.662 25.832C164.662 25.9347 164.652 26.07 164.634 26.238H158.614C158.698 26.8913 158.982 27.4187 159.468 27.82C159.962 28.212 160.574 28.408 161.302 28.408C162.188 28.408 162.902 28.1093 163.444 27.512L164.186 28.38C163.85 28.772 163.43 29.0707 162.926 29.276C162.431 29.4813 161.876 29.584 161.26 29.584C160.476 29.584 159.78 29.4253 159.174 29.108C158.567 28.7813 158.096 28.3287 157.76 27.75C157.433 27.1713 157.27 26.518 157.27 25.79C157.27 25.0713 157.428 24.4227 157.746 23.844C158.072 23.2653 158.516 22.8173 159.076 22.5C159.645 22.1733 160.284 22.01 160.994 22.01C161.703 22.01 162.333 22.1733 162.884 22.5C163.444 22.8173 163.878 23.2653 164.186 23.844C164.503 24.4227 164.662 25.0853 164.662 25.832ZM160.994 23.144C160.35 23.144 159.808 23.34 159.37 23.732C158.94 24.124 158.688 24.6373 158.614 25.272H163.374C163.299 24.6467 163.042 24.138 162.604 23.746C162.174 23.3447 161.638 23.144 160.994 23.144ZM166.528 19.112H167.872V29.5H166.528V19.112Z" fill="#112211"/>
</svg>
