<svg width="142" height="48" viewBox="0 0 142 48" fill="none" xmlns="http://www.w3.org/2000/svg">
<rect width="142" height="48" rx="4" fill="#8DD3BB"/>
<mask id="path-2-inside-1_64_4674" fill="white">
<path d="M29.5 21.5H26V18C26 17.6022 25.842 17.2206 25.5607 16.9393C25.2794 16.658 24.8978 16.5 24.5 16.5H18.5C18.1022 16.5 17.7206 16.658 17.4393 16.9393C17.158 17.2206 17 17.6022 17 18V31C17 31.1326 17.0527 31.2598 17.1464 31.3536C17.2402 31.4473 17.3674 31.5 17.5 31.5H20.75C20.8163 31.5 20.8799 31.4737 20.9268 31.4268C20.9737 31.3799 21 31.3163 21 31.25V29.0141C21 28.745 21.2069 28.5141 21.4759 28.5006C21.5435 28.4974 21.6111 28.5079 21.6745 28.5315C21.738 28.5551 21.7959 28.5914 21.8449 28.6381C21.8939 28.6848 21.9329 28.7409 21.9596 28.8031C21.9862 28.8653 22 28.9323 22 29V31.25C22 31.3163 22.0263 31.3799 22.0732 31.4268C22.1201 31.4737 22.1837 31.5 22.25 31.5H30.5C30.6326 31.5 30.7598 31.4473 30.8536 31.3536C30.9473 31.2598 31 31.1326 31 31V23C31 22.6022 30.842 22.2206 30.5607 21.9393C30.2794 21.658 29.8978 21.5 29.5 21.5ZM19.065 29.4959C18.9614 29.5095 18.8563 29.4903 18.7642 29.441C18.6721 29.3917 18.5978 29.3148 18.5516 29.2211C18.5055 29.1274 18.4898 29.0216 18.5069 28.9186C18.5239 28.8156 18.5728 28.7205 18.6466 28.6466C18.7205 28.5728 18.8156 28.5239 18.9186 28.5069C19.0216 28.4898 19.1274 28.5055 19.2211 28.5516C19.3148 28.5978 19.3917 28.6721 19.441 28.7642C19.4903 28.8563 19.5095 28.9614 19.4959 29.065C19.4816 29.1743 19.4316 29.2758 19.3537 29.3537C19.2758 29.4316 19.1743 29.4816 19.065 29.4959ZM19.065 26.9959C18.9614 27.0095 18.8563 26.9903 18.7642 26.941C18.6721 26.8917 18.5978 26.8148 18.5516 26.7211C18.5055 26.6274 18.4898 26.5216 18.5069 26.4186C18.5239 26.3156 18.5728 26.2205 18.6466 26.1466C18.7205 26.0728 18.8156 26.0239 18.9186 26.0069C19.0216 25.9898 19.1274 26.0055 19.2211 26.0516C19.3148 26.0978 19.3917 26.1721 19.441 26.2642C19.4903 26.3563 19.5095 26.4614 19.4959 26.565C19.4816 26.6743 19.4316 26.7758 19.3537 26.8537C19.2758 26.9316 19.1743 26.9816 19.065 26.9959ZM19.065 24.4959C18.9614 24.5095 18.8563 24.4903 18.7642 24.441C18.6721 24.3917 18.5978 24.3148 18.5516 24.2211C18.5055 24.1274 18.4898 24.0216 18.5069 23.9186C18.5239 23.8156 18.5728 23.7205 18.6466 23.6466C18.7205 23.5728 18.8156 23.5239 18.9186 23.5069C19.0216 23.4898 19.1274 23.5055 19.2211 23.5516C19.3148 23.5978 19.3917 23.6721 19.441 23.7642C19.4903 23.8563 19.5095 23.9614 19.4959 24.065C19.4816 24.1743 19.4316 24.2758 19.3537 24.3537C19.2758 24.4316 19.1743 24.4816 19.065 24.4959ZM19.065 21.9959C18.9614 22.0095 18.8563 21.9903 18.7642 21.941C18.6721 21.8917 18.5978 21.8148 18.5516 21.7211C18.5055 21.6274 18.4898 21.5216 18.5069 21.4186C18.5239 21.3156 18.5728 21.2205 18.6466 21.1466C18.7205 21.0728 18.8156 21.0239 18.9186 21.0069C19.0216 20.9898 19.1274 21.0055 19.2211 21.0516C19.3148 21.0978 19.3917 21.1721 19.441 21.2642C19.4903 21.3563 19.5095 21.4614 19.4959 21.565C19.4816 21.6743 19.4316 21.7758 19.3537 21.8537C19.2758 21.9316 19.1743 21.9816 19.065 21.9959ZM19.065 19.4959C18.9614 19.5095 18.8563 19.4903 18.7642 19.441C18.6721 19.3917 18.5978 19.3148 18.5516 19.2211C18.5055 19.1274 18.4898 19.0216 18.5069 18.9186C18.5239 18.8156 18.5728 18.7205 18.6466 18.6466C18.7205 18.5728 18.8156 18.5239 18.9186 18.5069C19.0216 18.4898 19.1274 18.5055 19.2211 18.5516C19.3148 18.5978 19.3917 18.6721 19.441 18.7642C19.4903 18.8563 19.5095 18.9614 19.4959 19.065C19.4816 19.1743 19.4316 19.2758 19.3537 19.3537C19.2758 19.4316 19.1743 19.4816 19.065 19.4959ZM21.565 26.9959C21.4614 27.0095 21.3563 26.9903 21.2642 26.941C21.1721 26.8917 21.0978 26.8148 21.0516 26.7211C21.0055 26.6274 20.9898 26.5216 21.0069 26.4186C21.0239 26.3156 21.0728 26.2205 21.1466 26.1466C21.2205 26.0728 21.3156 26.0239 21.4186 26.0069C21.5216 25.9898 21.6274 26.0055 21.7211 26.0516C21.8148 26.0978 21.8917 26.1721 21.941 26.2642C21.9903 26.3563 22.0095 26.4614 21.9959 26.565C21.9816 26.6743 21.9316 26.7758 21.8537 26.8537C21.7758 26.9316 21.6743 26.9816 21.565 26.9959ZM21.565 24.4959C21.4614 24.5095 21.3563 24.4903 21.2642 24.441C21.1721 24.3917 21.0978 24.3148 21.0516 24.2211C21.0055 24.1274 20.9898 24.0216 21.0069 23.9186C21.0239 23.8156 21.0728 23.7205 21.1466 23.6466C21.2205 23.5728 21.3156 23.5239 21.4186 23.5069C21.5216 23.4898 21.6274 23.5055 21.7211 23.5516C21.8148 23.5978 21.8917 23.6721 21.941 23.7642C21.9903 23.8563 22.0095 23.9614 21.9959 24.065C21.9816 24.1743 21.9316 24.2758 21.8537 24.3537C21.7758 24.4316 21.6743 24.4816 21.565 24.4959ZM21.565 21.9959C21.4614 22.0095 21.3563 21.9903 21.2642 21.941C21.1721 21.8917 21.0978 21.8148 21.0516 21.7211C21.0055 21.6274 20.9898 21.5216 21.0069 21.4186C21.0239 21.3156 21.0728 21.2205 21.1466 21.1466C21.2205 21.0728 21.3156 21.0239 21.4186 21.0069C21.5216 20.9898 21.6274 21.0055 21.7211 21.0516C21.8148 21.0978 21.8917 21.1721 21.941 21.2642C21.9903 21.3563 22.0095 21.4614 21.9959 21.565C21.9816 21.6743 21.9316 21.7758 21.8537 21.8537C21.7758 21.9316 21.6743 21.9816 21.565 21.9959ZM21.565 19.4959C21.4614 19.5095 21.3563 19.4903 21.2642 19.441C21.1721 19.3917 21.0978 19.3148 21.0516 19.2211C21.0055 19.1274 20.9898 19.0216 21.0069 18.9186C21.0239 18.8156 21.0728 18.7205 21.1466 18.6466C21.2205 18.5728 21.3156 18.5239 21.4186 18.5069C21.5216 18.4898 21.6274 18.5055 21.7211 18.5516C21.8148 18.5978 21.8917 18.6721 21.941 18.7642C21.9903 18.8563 22.0095 18.9614 21.9959 19.065C21.9816 19.1743 21.9316 19.2758 21.8537 19.3537C21.7758 19.4316 21.6743 19.4816 21.565 19.4959ZM24.065 29.4959C23.9614 29.5095 23.8563 29.4903 23.7642 29.441C23.6721 29.3917 23.5978 29.3148 23.5516 29.2211C23.5055 29.1274 23.4898 29.0216 23.5069 28.9186C23.5239 28.8156 23.5728 28.7205 23.6466 28.6466C23.7205 28.5728 23.8156 28.5239 23.9186 28.5069C24.0216 28.4898 24.1274 28.5055 24.2211 28.5516C24.3148 28.5978 24.3917 28.6721 24.441 28.7642C24.4903 28.8563 24.5095 28.9614 24.4959 29.065C24.4816 29.1743 24.4316 29.2758 24.3537 29.3537C24.2758 29.4316 24.1743 29.4816 24.065 29.4959ZM24.065 26.9959C23.9614 27.0095 23.8563 26.9903 23.7642 26.941C23.6721 26.8917 23.5978 26.8148 23.5516 26.7211C23.5055 26.6274 23.4898 26.5216 23.5069 26.4186C23.5239 26.3156 23.5728 26.2205 23.6466 26.1466C23.7205 26.0728 23.8156 26.0239 23.9186 26.0069C24.0216 25.9898 24.1274 26.0055 24.2211 26.0516C24.3148 26.0978 24.3917 26.1721 24.441 26.2642C24.4903 26.3563 24.5095 26.4614 24.4959 26.565C24.4816 26.6743 24.4316 26.7758 24.3537 26.8537C24.2758 26.9316 24.1743 26.9816 24.065 26.9959ZM24.065 24.4959C23.9614 24.5095 23.8563 24.4903 23.7642 24.441C23.6721 24.3917 23.5978 24.3148 23.5516 24.2211C23.5055 24.1274 23.4898 24.0216 23.5069 23.9186C23.5239 23.8156 23.5728 23.7205 23.6466 23.6466C23.7205 23.5728 23.8156 23.5239 23.9186 23.5069C24.0216 23.4898 24.1274 23.5055 24.2211 23.5516C24.3148 23.5978 24.3917 23.6721 24.441 23.7642C24.4903 23.8563 24.5095 23.9614 24.4959 24.065C24.4816 24.1743 24.4316 24.2758 24.3537 24.3537C24.2758 24.4316 24.1743 24.4816 24.065 24.4959ZM24.065 21.9959C23.9614 22.0095 23.8563 21.9903 23.7642 21.941C23.6721 21.8917 23.5978 21.8148 23.5516 21.7211C23.5055 21.6274 23.4898 21.5216 23.5069 21.4186C23.5239 21.3156 23.5728 21.2205 23.6466 21.1466C23.7205 21.0728 23.8156 21.0239 23.9186 21.0069C24.0216 20.9898 24.1274 21.0055 24.2211 21.0516C24.3148 21.0978 24.3917 21.1721 24.441 21.2642C24.4903 21.3563 24.5095 21.4614 24.4959 21.565C24.4816 21.6743 24.4316 21.7758 24.3537 21.8537C24.2758 21.9316 24.1743 21.9816 24.065 21.9959ZM24.065 19.4959C23.9614 19.5095 23.8563 19.4903 23.7642 19.441C23.6721 19.3917 23.5978 19.3148 23.5516 19.2211C23.5055 19.1274 23.4898 19.0216 23.5069 18.9186C23.5239 18.8156 23.5728 18.7205 23.6466 18.6466C23.7205 18.5728 23.8156 18.5239 23.9186 18.5069C24.0216 18.4898 24.1274 18.5055 24.2211 18.5516C24.3148 18.5978 24.3917 18.6721 24.441 18.7642C24.4903 18.8563 24.5095 18.9614 24.4959 19.065C24.4816 19.1743 24.4316 19.2758 24.3537 19.3537C24.2758 19.4316 24.1743 19.4816 24.065 19.4959ZM29.875 30.5H26V22.5H29.5C29.6326 22.5 29.7598 22.5527 29.8536 22.6464C29.9473 22.7402 30 22.8674 30 23V30.375C30 30.4082 29.9868 30.4399 29.9634 30.4634C29.9399 30.4868 29.9082 30.5 29.875 30.5Z"/>
</mask>
<path d="M29.5 21.5H26V18C26 17.6022 25.842 17.2206 25.5607 16.9393C25.2794 16.658 24.8978 16.5 24.5 16.5H18.5C18.1022 16.5 17.7206 16.658 17.4393 16.9393C17.158 17.2206 17 17.6022 17 18V31C17 31.1326 17.0527 31.2598 17.1464 31.3536C17.2402 31.4473 17.3674 31.5 17.5 31.5H20.75C20.8163 31.5 20.8799 31.4737 20.9268 31.4268C20.9737 31.3799 21 31.3163 21 31.25V29.0141C21 28.745 21.2069 28.5141 21.4759 28.5006C21.5435 28.4974 21.6111 28.5079 21.6745 28.5315C21.738 28.5551 21.7959 28.5914 21.8449 28.6381C21.8939 28.6848 21.9329 28.7409 21.9596 28.8031C21.9862 28.8653 22 28.9323 22 29V31.25C22 31.3163 22.0263 31.3799 22.0732 31.4268C22.1201 31.4737 22.1837 31.5 22.25 31.5H30.5C30.6326 31.5 30.7598 31.4473 30.8536 31.3536C30.9473 31.2598 31 31.1326 31 31V23C31 22.6022 30.842 22.2206 30.5607 21.9393C30.2794 21.658 29.8978 21.5 29.5 21.5ZM19.065 29.4959C18.9614 29.5095 18.8563 29.4903 18.7642 29.441C18.6721 29.3917 18.5978 29.3148 18.5516 29.2211C18.5055 29.1274 18.4898 29.0216 18.5069 28.9186C18.5239 28.8156 18.5728 28.7205 18.6466 28.6466C18.7205 28.5728 18.8156 28.5239 18.9186 28.5069C19.0216 28.4898 19.1274 28.5055 19.2211 28.5516C19.3148 28.5978 19.3917 28.6721 19.441 28.7642C19.4903 28.8563 19.5095 28.9614 19.4959 29.065C19.4816 29.1743 19.4316 29.2758 19.3537 29.3537C19.2758 29.4316 19.1743 29.4816 19.065 29.4959ZM19.065 26.9959C18.9614 27.0095 18.8563 26.9903 18.7642 26.941C18.6721 26.8917 18.5978 26.8148 18.5516 26.7211C18.5055 26.6274 18.4898 26.5216 18.5069 26.4186C18.5239 26.3156 18.5728 26.2205 18.6466 26.1466C18.7205 26.0728 18.8156 26.0239 18.9186 26.0069C19.0216 25.9898 19.1274 26.0055 19.2211 26.0516C19.3148 26.0978 19.3917 26.1721 19.441 26.2642C19.4903 26.3563 19.5095 26.4614 19.4959 26.565C19.4816 26.6743 19.4316 26.7758 19.3537 26.8537C19.2758 26.9316 19.1743 26.9816 19.065 26.9959ZM19.065 24.4959C18.9614 24.5095 18.8563 24.4903 18.7642 24.441C18.6721 24.3917 18.5978 24.3148 18.5516 24.2211C18.5055 24.1274 18.4898 24.0216 18.5069 23.9186C18.5239 23.8156 18.5728 23.7205 18.6466 23.6466C18.7205 23.5728 18.8156 23.5239 18.9186 23.5069C19.0216 23.4898 19.1274 23.5055 19.2211 23.5516C19.3148 23.5978 19.3917 23.6721 19.441 23.7642C19.4903 23.8563 19.5095 23.9614 19.4959 24.065C19.4816 24.1743 19.4316 24.2758 19.3537 24.3537C19.2758 24.4316 19.1743 24.4816 19.065 24.4959ZM19.065 21.9959C18.9614 22.0095 18.8563 21.9903 18.7642 21.941C18.6721 21.8917 18.5978 21.8148 18.5516 21.7211C18.5055 21.6274 18.4898 21.5216 18.5069 21.4186C18.5239 21.3156 18.5728 21.2205 18.6466 21.1466C18.7205 21.0728 18.8156 21.0239 18.9186 21.0069C19.0216 20.9898 19.1274 21.0055 19.2211 21.0516C19.3148 21.0978 19.3917 21.1721 19.441 21.2642C19.4903 21.3563 19.5095 21.4614 19.4959 21.565C19.4816 21.6743 19.4316 21.7758 19.3537 21.8537C19.2758 21.9316 19.1743 21.9816 19.065 21.9959ZM19.065 19.4959C18.9614 19.5095 18.8563 19.4903 18.7642 19.441C18.6721 19.3917 18.5978 19.3148 18.5516 19.2211C18.5055 19.1274 18.4898 19.0216 18.5069 18.9186C18.5239 18.8156 18.5728 18.7205 18.6466 18.6466C18.7205 18.5728 18.8156 18.5239 18.9186 18.5069C19.0216 18.4898 19.1274 18.5055 19.2211 18.5516C19.3148 18.5978 19.3917 18.6721 19.441 18.7642C19.4903 18.8563 19.5095 18.9614 19.4959 19.065C19.4816 19.1743 19.4316 19.2758 19.3537 19.3537C19.2758 19.4316 19.1743 19.4816 19.065 19.4959ZM21.565 26.9959C21.4614 27.0095 21.3563 26.9903 21.2642 26.941C21.1721 26.8917 21.0978 26.8148 21.0516 26.7211C21.0055 26.6274 20.9898 26.5216 21.0069 26.4186C21.0239 26.3156 21.0728 26.2205 21.1466 26.1466C21.2205 26.0728 21.3156 26.0239 21.4186 26.0069C21.5216 25.9898 21.6274 26.0055 21.7211 26.0516C21.8148 26.0978 21.8917 26.1721 21.941 26.2642C21.9903 26.3563 22.0095 26.4614 21.9959 26.565C21.9816 26.6743 21.9316 26.7758 21.8537 26.8537C21.7758 26.9316 21.6743 26.9816 21.565 26.9959ZM21.565 24.4959C21.4614 24.5095 21.3563 24.4903 21.2642 24.441C21.1721 24.3917 21.0978 24.3148 21.0516 24.2211C21.0055 24.1274 20.9898 24.0216 21.0069 23.9186C21.0239 23.8156 21.0728 23.7205 21.1466 23.6466C21.2205 23.5728 21.3156 23.5239 21.4186 23.5069C21.5216 23.4898 21.6274 23.5055 21.7211 23.5516C21.8148 23.5978 21.8917 23.6721 21.941 23.7642C21.9903 23.8563 22.0095 23.9614 21.9959 24.065C21.9816 24.1743 21.9316 24.2758 21.8537 24.3537C21.7758 24.4316 21.6743 24.4816 21.565 24.4959ZM21.565 21.9959C21.4614 22.0095 21.3563 21.9903 21.2642 21.941C21.1721 21.8917 21.0978 21.8148 21.0516 21.7211C21.0055 21.6274 20.9898 21.5216 21.0069 21.4186C21.0239 21.3156 21.0728 21.2205 21.1466 21.1466C21.2205 21.0728 21.3156 21.0239 21.4186 21.0069C21.5216 20.9898 21.6274 21.0055 21.7211 21.0516C21.8148 21.0978 21.8917 21.1721 21.941 21.2642C21.9903 21.3563 22.0095 21.4614 21.9959 21.565C21.9816 21.6743 21.9316 21.7758 21.8537 21.8537C21.7758 21.9316 21.6743 21.9816 21.565 21.9959ZM21.565 19.4959C21.4614 19.5095 21.3563 19.4903 21.2642 19.441C21.1721 19.3917 21.0978 19.3148 21.0516 19.2211C21.0055 19.1274 20.9898 19.0216 21.0069 18.9186C21.0239 18.8156 21.0728 18.7205 21.1466 18.6466C21.2205 18.5728 21.3156 18.5239 21.4186 18.5069C21.5216 18.4898 21.6274 18.5055 21.7211 18.5516C21.8148 18.5978 21.8917 18.6721 21.941 18.7642C21.9903 18.8563 22.0095 18.9614 21.9959 19.065C21.9816 19.1743 21.9316 19.2758 21.8537 19.3537C21.7758 19.4316 21.6743 19.4816 21.565 19.4959ZM24.065 29.4959C23.9614 29.5095 23.8563 29.4903 23.7642 29.441C23.6721 29.3917 23.5978 29.3148 23.5516 29.2211C23.5055 29.1274 23.4898 29.0216 23.5069 28.9186C23.5239 28.8156 23.5728 28.7205 23.6466 28.6466C23.7205 28.5728 23.8156 28.5239 23.9186 28.5069C24.0216 28.4898 24.1274 28.5055 24.2211 28.5516C24.3148 28.5978 24.3917 28.6721 24.441 28.7642C24.4903 28.8563 24.5095 28.9614 24.4959 29.065C24.4816 29.1743 24.4316 29.2758 24.3537 29.3537C24.2758 29.4316 24.1743 29.4816 24.065 29.4959ZM24.065 26.9959C23.9614 27.0095 23.8563 26.9903 23.7642 26.941C23.6721 26.8917 23.5978 26.8148 23.5516 26.7211C23.5055 26.6274 23.4898 26.5216 23.5069 26.4186C23.5239 26.3156 23.5728 26.2205 23.6466 26.1466C23.7205 26.0728 23.8156 26.0239 23.9186 26.0069C24.0216 25.9898 24.1274 26.0055 24.2211 26.0516C24.3148 26.0978 24.3917 26.1721 24.441 26.2642C24.4903 26.3563 24.5095 26.4614 24.4959 26.565C24.4816 26.6743 24.4316 26.7758 24.3537 26.8537C24.2758 26.9316 24.1743 26.9816 24.065 26.9959ZM24.065 24.4959C23.9614 24.5095 23.8563 24.4903 23.7642 24.441C23.6721 24.3917 23.5978 24.3148 23.5516 24.2211C23.5055 24.1274 23.4898 24.0216 23.5069 23.9186C23.5239 23.8156 23.5728 23.7205 23.6466 23.6466C23.7205 23.5728 23.8156 23.5239 23.9186 23.5069C24.0216 23.4898 24.1274 23.5055 24.2211 23.5516C24.3148 23.5978 24.3917 23.6721 24.441 23.7642C24.4903 23.8563 24.5095 23.9614 24.4959 24.065C24.4816 24.1743 24.4316 24.2758 24.3537 24.3537C24.2758 24.4316 24.1743 24.4816 24.065 24.4959ZM24.065 21.9959C23.9614 22.0095 23.8563 21.9903 23.7642 21.941C23.6721 21.8917 23.5978 21.8148 23.5516 21.7211C23.5055 21.6274 23.4898 21.5216 23.5069 21.4186C23.5239 21.3156 23.5728 21.2205 23.6466 21.1466C23.7205 21.0728 23.8156 21.0239 23.9186 21.0069C24.0216 20.9898 24.1274 21.0055 24.2211 21.0516C24.3148 21.0978 24.3917 21.1721 24.441 21.2642C24.4903 21.3563 24.5095 21.4614 24.4959 21.565C24.4816 21.6743 24.4316 21.7758 24.3537 21.8537C24.2758 21.9316 24.1743 21.9816 24.065 21.9959ZM24.065 19.4959C23.9614 19.5095 23.8563 19.4903 23.7642 19.441C23.6721 19.3917 23.5978 19.3148 23.5516 19.2211C23.5055 19.1274 23.4898 19.0216 23.5069 18.9186C23.5239 18.8156 23.5728 18.7205 23.6466 18.6466C23.7205 18.5728 23.8156 18.5239 23.9186 18.5069C24.0216 18.4898 24.1274 18.5055 24.2211 18.5516C24.3148 18.5978 24.3917 18.6721 24.441 18.7642C24.4903 18.8563 24.5095 18.9614 24.4959 19.065C24.4816 19.1743 24.4316 19.2758 24.3537 19.3537C24.2758 19.4316 24.1743 19.4816 24.065 19.4959ZM29.875 30.5H26V22.5H29.5C29.6326 22.5 29.7598 22.5527 29.8536 22.6464C29.9473 22.7402 30 22.8674 30 23V30.375C30 30.4082 29.9868 30.4399 29.9634 30.4634C29.9399 30.4868 29.9082 30.5 29.875 30.5Z" fill="black" stroke="#112211" stroke-width="0.09375" mask="url(#path-2-inside-1_64_4674)"/>
<path d="M28.5 28.5C28.4011 28.5 28.3044 28.5293 28.2222 28.5843C28.14 28.6392 28.0759 28.7173 28.0381 28.8087C28.0002 28.9 27.9903 29.0006 28.0096 29.0975C28.0289 29.1945 28.0765 29.2836 28.1464 29.3536C28.2164 29.4235 28.3055 29.4711 28.4025 29.4904C28.4994 29.5097 28.6 29.4998 28.6913 29.4619C28.7827 29.4241 28.8608 29.36 28.9157 29.2778C28.9707 29.1956 29 29.0989 29 29C29 28.8674 28.9473 28.7402 28.8536 28.6464C28.7598 28.5527 28.6326 28.5 28.5 28.5ZM28.5 26C28.4011 26 28.3044 26.0293 28.2222 26.0843C28.14 26.1392 28.0759 26.2173 28.0381 26.3087C28.0002 26.4 27.9903 26.5006 28.0096 26.5975C28.0289 26.6945 28.0765 26.7836 28.1464 26.8536C28.2164 26.9235 28.3055 26.9711 28.4025 26.9904C28.4994 27.0097 28.6 26.9998 28.6913 26.9619C28.7827 26.9241 28.8608 26.86 28.9157 26.7778C28.9707 26.6956 29 26.5989 29 26.5C29 26.3674 28.9473 26.2402 28.8536 26.1464C28.7598 26.0527 28.6326 26 28.5 26ZM28.5 23.5C28.4011 23.5 28.3044 23.5293 28.2222 23.5843C28.14 23.6392 28.0759 23.7173 28.0381 23.8087C28.0002 23.9 27.9903 24.0006 28.0096 24.0975C28.0289 24.1945 28.0765 24.2836 28.1464 24.3536C28.2164 24.4235 28.3055 24.4711 28.4025 24.4904C28.4994 24.5097 28.6 24.4998 28.6913 24.4619C28.7827 24.4241 28.8608 24.36 28.9157 24.2778C28.9707 24.1956 29 24.0989 29 24C29 23.8674 28.9473 23.7402 28.8536 23.6464C28.7598 23.5527 28.6326 23.5 28.5 23.5ZM26.5 28.5C26.4011 28.5 26.3044 28.5293 26.2222 28.5843C26.14 28.6392 26.0759 28.7173 26.0381 28.8087C26.0002 28.9 25.9903 29.0006 26.0096 29.0975C26.0289 29.1945 26.0765 29.2836 26.1464 29.3536C26.2164 29.4235 26.3055 29.4711 26.4025 29.4904C26.4994 29.5097 26.6 29.4998 26.6913 29.4619C26.7827 29.4241 26.8608 29.36 26.9157 29.2778C26.9707 29.1956 27 29.0989 27 29C27 28.8674 26.9473 28.7402 26.8536 28.6464C26.7598 28.5527 26.6326 28.5 26.5 28.5ZM26.5 26C26.4011 26 26.3044 26.0293 26.2222 26.0843C26.14 26.1392 26.0759 26.2173 26.0381 26.3087C26.0002 26.4 25.9903 26.5006 26.0096 26.5975C26.0289 26.6945 26.0765 26.7836 26.1464 26.8536C26.2164 26.9235 26.3055 26.9711 26.4025 26.9904C26.4994 27.0097 26.6 26.9998 26.6913 26.9619C26.7827 26.9241 26.8608 26.86 26.9157 26.7778C26.9707 26.6956 27 26.5989 27 26.5C27 26.3674 26.9473 26.2402 26.8536 26.1464C26.7598 26.0527 26.6326 26 26.5 26ZM26.5 23.5C26.4011 23.5 26.3044 23.5293 26.2222 23.5843C26.14 23.6392 26.0759 23.7173 26.0381 23.8087C26.0002 23.9 25.9903 24.0006 26.0096 24.0975C26.0289 24.1945 26.0765 24.2836 26.1464 24.3536C26.2164 24.4235 26.3055 24.4711 26.4025 24.4904C26.4994 24.5097 26.6 24.4998 26.6913 24.4619C26.7827 24.4241 26.8608 24.36 26.9157 24.2778C26.9707 24.1956 27 24.0989 27 24C27 23.8674 26.9473 23.7402 26.8536 23.6464C26.7598 23.5527 26.6326 23.5 26.5 23.5Z" fill="black"/>
<path d="M40.326 29.612C39.5887 29.612 38.8747 29.5 38.184 29.276C37.5027 29.0427 36.966 28.744 36.574 28.38L37.092 27.288C37.4653 27.624 37.9413 27.8993 38.52 28.114C39.108 28.3193 39.71 28.422 40.326 28.422C41.138 28.422 41.7447 28.2867 42.146 28.016C42.5473 27.736 42.748 27.3673 42.748 26.91C42.748 26.574 42.636 26.3033 42.412 26.098C42.1973 25.8833 41.9267 25.72 41.6 25.608C41.2827 25.496 40.83 25.37 40.242 25.23C39.5047 25.0527 38.9073 24.8753 38.45 24.698C38.002 24.5207 37.6147 24.25 37.288 23.886C36.9707 23.5127 36.812 23.0133 36.812 22.388C36.812 21.8653 36.9473 21.394 37.218 20.974C37.498 20.554 37.918 20.218 38.478 19.966C39.038 19.714 39.7333 19.588 40.564 19.588C41.1427 19.588 41.712 19.6627 42.272 19.812C42.832 19.9613 43.3127 20.176 43.714 20.456L43.252 21.576C42.8413 21.3147 42.4027 21.1187 41.936 20.988C41.4693 20.848 41.012 20.778 40.564 20.778C39.7707 20.778 39.1733 20.9227 38.772 21.212C38.38 21.5013 38.184 21.8747 38.184 22.332C38.184 22.668 38.296 22.9433 38.52 23.158C38.744 23.3633 39.0193 23.5267 39.346 23.648C39.682 23.76 40.1347 23.8813 40.704 24.012C41.4413 24.1893 42.034 24.3667 42.482 24.544C42.93 24.7213 43.3127 24.992 43.63 25.356C43.9567 25.72 44.12 26.21 44.12 26.826C44.12 27.3393 43.98 27.8107 43.7 28.24C43.42 28.66 42.9953 28.996 42.426 29.248C41.8567 29.4907 41.1567 29.612 40.326 29.612ZM49.9313 22.01C50.874 22.01 51.6206 22.2853 52.1713 22.836C52.7313 23.3773 53.0113 24.1753 53.0113 25.23V29.5H51.6673V25.384C51.6673 24.6653 51.4946 24.124 51.1493 23.76C50.804 23.396 50.3093 23.214 49.6653 23.214C48.9373 23.214 48.3633 23.4287 47.9433 23.858C47.5233 24.278 47.3133 24.8847 47.3133 25.678V29.5H45.9693V19.112H47.3133V23.13C47.5933 22.7753 47.9573 22.5 48.4053 22.304C48.8626 22.108 49.3713 22.01 49.9313 22.01ZM58.7176 29.584C57.9803 29.584 57.3176 29.4207 56.7296 29.094C56.1416 28.7673 55.6796 28.3193 55.3436 27.75C55.017 27.1713 54.8536 26.518 54.8536 25.79C54.8536 25.062 55.017 24.4133 55.3436 23.844C55.6796 23.2653 56.1416 22.8173 56.7296 22.5C57.3176 22.1733 57.9803 22.01 58.7176 22.01C59.455 22.01 60.113 22.1733 60.6916 22.5C61.2796 22.8173 61.737 23.2653 62.0636 23.844C62.3996 24.4133 62.5676 25.062 62.5676 25.79C62.5676 26.518 62.3996 27.1713 62.0636 27.75C61.737 28.3193 61.2796 28.7673 60.6916 29.094C60.113 29.4207 59.455 29.584 58.7176 29.584ZM58.7176 28.408C59.1936 28.408 59.6183 28.3007 59.9916 28.086C60.3743 27.862 60.673 27.554 60.8876 27.162C61.1023 26.7607 61.2096 26.3033 61.2096 25.79C61.2096 25.2767 61.1023 24.824 60.8876 24.432C60.673 24.0307 60.3743 23.7227 59.9916 23.508C59.6183 23.2933 59.1936 23.186 58.7176 23.186C58.2416 23.186 57.8123 23.2933 57.4296 23.508C57.0563 23.7227 56.7576 24.0307 56.5336 24.432C56.319 24.824 56.2116 25.2767 56.2116 25.79C56.2116 26.3033 56.319 26.7607 56.5336 27.162C56.7576 27.554 57.0563 27.862 57.4296 28.086C57.8123 28.3007 58.2416 28.408 58.7176 28.408ZM75.4493 22.08L72.6773 29.5H71.3893L69.2473 23.872L67.0773 29.5H65.7893L63.0313 22.08H64.3053L66.4613 27.988L68.7013 22.08H69.8353L72.0333 28.016L74.2453 22.08H75.4493ZM84.5908 19.7C85.8602 19.7 86.8588 20.0033 87.5868 20.61C88.3148 21.2167 88.6788 22.052 88.6788 23.116C88.6788 24.18 88.3148 25.0153 87.5868 25.622C86.8588 26.2287 85.8602 26.532 84.5908 26.532H82.1688V29.5H80.7688V19.7H84.5908ZM84.5488 25.314C85.4355 25.314 86.1122 25.1273 86.5788 24.754C87.0455 24.3713 87.2788 23.8253 87.2788 23.116C87.2788 22.4067 87.0455 21.8653 86.5788 21.492C86.1122 21.1093 85.4355 20.918 84.5488 20.918H82.1688V25.314H84.5488ZM90.6763 19.112H92.0203V29.5H90.6763V19.112ZM97.2885 22.01C98.3152 22.01 99.0992 22.262 99.6405 22.766C100.191 23.27 100.467 24.0213 100.467 25.02V29.5H99.1925V28.52C98.9685 28.8653 98.6465 29.1313 98.2265 29.318C97.8158 29.4953 97.3258 29.584 96.7565 29.584C95.9258 29.584 95.2585 29.3833 94.7545 28.982C94.2598 28.5807 94.0125 28.0533 94.0125 27.4C94.0125 26.7467 94.2505 26.224 94.7265 25.832C95.2025 25.4307 95.9585 25.23 96.9945 25.23H99.1225V24.964C99.1225 24.3853 98.9545 23.942 98.6185 23.634C98.2825 23.326 97.7878 23.172 97.1345 23.172C96.6958 23.172 96.2665 23.2467 95.8465 23.396C95.4265 23.536 95.0718 23.7273 94.7825 23.97L94.2225 22.962C94.6052 22.654 95.0625 22.4207 95.5945 22.262C96.1265 22.094 96.6912 22.01 97.2885 22.01ZM96.9805 28.548C97.4938 28.548 97.9372 28.436 98.3105 28.212C98.6838 27.9787 98.9545 27.652 99.1225 27.232V26.196H97.0505C95.9118 26.196 95.3425 26.5787 95.3425 27.344C95.3425 27.7173 95.4872 28.0113 95.7765 28.226C96.0658 28.4407 96.4672 28.548 96.9805 28.548ZM106.229 29.584C105.473 29.584 104.796 29.4207 104.199 29.094C103.611 28.7673 103.149 28.3193 102.813 27.75C102.477 27.1713 102.309 26.518 102.309 25.79C102.309 25.062 102.477 24.4133 102.813 23.844C103.149 23.2653 103.611 22.8173 104.199 22.5C104.796 22.1733 105.473 22.01 106.229 22.01C106.901 22.01 107.498 22.1453 108.021 22.416C108.553 22.6867 108.963 23.0787 109.253 23.592L108.231 24.25C107.997 23.8953 107.708 23.6293 107.363 23.452C107.017 23.2747 106.635 23.186 106.215 23.186C105.729 23.186 105.291 23.2933 104.899 23.508C104.516 23.7227 104.213 24.0307 103.989 24.432C103.774 24.824 103.667 25.2767 103.667 25.79C103.667 26.3127 103.774 26.7747 103.989 27.176C104.213 27.568 104.516 27.8713 104.899 28.086C105.291 28.3007 105.729 28.408 106.215 28.408C106.635 28.408 107.017 28.3193 107.363 28.142C107.708 27.9647 107.997 27.6987 108.231 27.344L109.253 27.988C108.963 28.5013 108.553 28.898 108.021 29.178C107.498 29.4487 106.901 29.584 106.229 29.584ZM117.589 25.832C117.589 25.9347 117.58 26.07 117.561 26.238H111.541C111.625 26.8913 111.91 27.4187 112.395 27.82C112.89 28.212 113.501 28.408 114.229 28.408C115.116 28.408 115.83 28.1093 116.371 27.512L117.113 28.38C116.777 28.772 116.357 29.0707 115.853 29.276C115.359 29.4813 114.803 29.584 114.187 29.584C113.403 29.584 112.708 29.4253 112.101 29.108C111.495 28.7813 111.023 28.3287 110.687 27.75C110.361 27.1713 110.197 26.518 110.197 25.79C110.197 25.0713 110.356 24.4227 110.673 23.844C111 23.2653 111.443 22.8173 112.003 22.5C112.573 22.1733 113.212 22.01 113.921 22.01C114.631 22.01 115.261 22.1733 115.811 22.5C116.371 22.8173 116.805 23.2653 117.113 23.844C117.431 24.4227 117.589 25.0853 117.589 25.832ZM113.921 23.144C113.277 23.144 112.736 23.34 112.297 23.732C111.868 24.124 111.616 24.6373 111.541 25.272H116.301C116.227 24.6467 115.97 24.138 115.531 23.746C115.102 23.3447 114.565 23.144 113.921 23.144ZM121.584 29.584C120.977 29.584 120.394 29.5047 119.834 29.346C119.274 29.178 118.835 28.968 118.518 28.716L119.078 27.652C119.404 27.8853 119.801 28.072 120.268 28.212C120.734 28.352 121.206 28.422 121.682 28.422C122.858 28.422 123.446 28.086 123.446 27.414C123.446 27.19 123.366 27.0127 123.208 26.882C123.049 26.7513 122.848 26.658 122.606 26.602C122.372 26.5367 122.036 26.4667 121.598 26.392C121 26.2987 120.51 26.1913 120.128 26.07C119.754 25.9487 119.432 25.7433 119.162 25.454C118.891 25.1647 118.756 24.7587 118.756 24.236C118.756 23.564 119.036 23.0273 119.596 22.626C120.156 22.2153 120.907 22.01 121.85 22.01C122.344 22.01 122.839 22.0707 123.334 22.192C123.828 22.3133 124.234 22.4767 124.552 22.682L123.978 23.746C123.371 23.354 122.657 23.158 121.836 23.158C121.266 23.158 120.832 23.2513 120.534 23.438C120.235 23.6247 120.086 23.872 120.086 24.18C120.086 24.4227 120.17 24.614 120.338 24.754C120.506 24.894 120.711 24.9967 120.954 25.062C121.206 25.1273 121.556 25.202 122.004 25.286C122.601 25.3887 123.082 25.5007 123.446 25.622C123.819 25.734 124.136 25.93 124.398 26.21C124.659 26.49 124.79 26.882 124.79 27.386C124.79 28.058 124.5 28.5947 123.922 28.996C123.352 29.388 122.573 29.584 121.584 29.584Z" fill="#112211"/>
</svg>
