<svg width="103" height="25" viewBox="0 0 103 25" fill="none" xmlns="http://www.w3.org/2000/svg">
<path d="M11.9995 21.5C11.6985 21.4996 11.4045 21.4086 11.1558 21.2389C7.47189 18.7381 5.87673 17.0234 4.99689 15.9514C3.12189 13.6663 2.22423 11.3202 2.24954 8.77953C2.27908 5.86813 4.61486 3.5 7.45642 3.5C9.52267 3.5 10.9538 4.66391 11.7872 5.63328C11.8136 5.66368 11.8462 5.68805 11.8829 5.70476C11.9195 5.72146 11.9593 5.73011 11.9995 5.73011C12.0398 5.73011 12.0796 5.72146 12.1162 5.70476C12.1529 5.68805 12.1855 5.66368 12.2119 5.63328C13.0453 4.66297 14.4764 3.5 16.5427 3.5C19.3842 3.5 21.72 5.86812 21.7495 8.78C21.7749 11.3211 20.8763 13.6672 19.0022 15.9519C18.1224 17.0239 16.5272 18.7386 12.8433 21.2394C12.5946 21.4089 12.3006 21.4998 11.9995 21.5Z" fill="#112211"/>
<path d="M36.47 8.2V9.726H31.136V12.708H35.868V14.248H31.136V18H29.316V8.2H36.47ZM40.6856 10.44C41.787 10.44 42.627 10.706 43.2056 11.238C43.7936 11.7607 44.0876 12.554 44.0876 13.618V18H42.4356V17.09C42.221 17.4167 41.913 17.6687 41.5116 17.846C41.1196 18.014 40.6436 18.098 40.0836 18.098C39.5236 18.098 39.0336 18.0047 38.6136 17.818C38.1936 17.622 37.867 17.356 37.6336 17.02C37.4096 16.6747 37.2976 16.2873 37.2976 15.858C37.2976 15.186 37.545 14.6493 38.0396 14.248C38.5436 13.8373 39.3323 13.632 40.4056 13.632H42.3376V13.52C42.3376 12.9973 42.179 12.596 41.8616 12.316C41.5536 12.036 41.0916 11.896 40.4756 11.896C40.0556 11.896 39.6403 11.9613 39.2296 12.092C38.8283 12.2227 38.4876 12.4047 38.2076 12.638L37.5216 11.364C37.9136 11.0653 38.385 10.8367 38.9356 10.678C39.4863 10.5193 40.0696 10.44 40.6856 10.44ZM40.4476 16.824C40.8863 16.824 41.2736 16.726 41.6096 16.53C41.955 16.3247 42.1976 16.0353 42.3376 15.662V14.794H40.5316C39.5236 14.794 39.0196 15.1253 39.0196 15.788C39.0196 16.1053 39.1456 16.3573 39.3976 16.544C39.6496 16.7307 39.9996 16.824 40.4476 16.824ZM49.1228 16.068L51.5168 10.524H53.1968L49.9908 18H48.1848L44.9788 10.524H46.7988L49.1228 16.068ZM57.4455 18.098C56.6895 18.098 56.0082 17.9347 55.4015 17.608C54.7948 17.2813 54.3188 16.8287 53.9735 16.25C53.6375 15.662 53.4695 14.9993 53.4695 14.262C53.4695 13.5247 53.6375 12.8667 53.9735 12.288C54.3188 11.7093 54.7948 11.2567 55.4015 10.93C56.0082 10.6033 56.6895 10.44 57.4455 10.44C58.2108 10.44 58.8968 10.6033 59.5035 10.93C60.1102 11.2567 60.5815 11.7093 60.9175 12.288C61.2628 12.8667 61.4355 13.5247 61.4355 14.262C61.4355 14.9993 61.2628 15.662 60.9175 16.25C60.5815 16.8287 60.1102 17.2813 59.5035 17.608C58.8968 17.9347 58.2108 18.098 57.4455 18.098ZM57.4455 16.6C58.0895 16.6 58.6215 16.3853 59.0415 15.956C59.4615 15.5267 59.6715 14.962 59.6715 14.262C59.6715 13.562 59.4615 12.9973 59.0415 12.568C58.6215 12.1387 58.0895 11.924 57.4455 11.924C56.8015 11.924 56.2695 12.1387 55.8495 12.568C55.4388 12.9973 55.2335 13.562 55.2335 14.262C55.2335 14.962 55.4388 15.5267 55.8495 15.956C56.2695 16.3853 56.8015 16.6 57.4455 16.6ZM68.5969 10.524H70.3469V18H68.6809V17.048C68.4009 17.384 68.0509 17.6453 67.6309 17.832C67.2109 18.0093 66.7583 18.098 66.2729 18.098C65.2743 18.098 64.4856 17.8227 63.9069 17.272C63.3376 16.712 63.0529 15.886 63.0529 14.794V10.524H64.8029V14.556C64.8029 15.228 64.9523 15.732 65.2509 16.068C65.5589 16.3947 65.9929 16.558 66.5529 16.558C67.1783 16.558 67.6729 16.3667 68.0369 15.984C68.4103 15.592 68.5969 15.032 68.5969 14.304V10.524ZM74.3042 11.616C74.8082 10.832 75.6949 10.44 76.9642 10.44V12.106C76.8149 12.078 76.6796 12.064 76.5582 12.064C75.8769 12.064 75.3449 12.2647 74.9622 12.666C74.5796 13.058 74.3882 13.6273 74.3882 14.374V18H72.6382V10.524H74.3042V11.616ZM80.1988 18H78.4488V10.524H80.1988V18ZM79.3308 9.292C79.0134 9.292 78.7474 9.194 78.5328 8.998C78.3181 8.79267 78.2108 8.54067 78.2108 8.242C78.2108 7.94333 78.3181 7.696 78.5328 7.5C78.7474 7.29467 79.0134 7.192 79.3308 7.192C79.6481 7.192 79.9141 7.29 80.1288 7.486C80.3434 7.67267 80.4508 7.91067 80.4508 8.2C80.4508 8.508 80.3434 8.76933 80.1288 8.984C79.9234 9.18933 79.6574 9.292 79.3308 9.292ZM86.9897 17.594C86.7843 17.762 86.5323 17.888 86.2337 17.972C85.9443 18.056 85.6363 18.098 85.3097 18.098C84.4883 18.098 83.8537 17.8833 83.4057 17.454C82.9577 17.0247 82.7337 16.3993 82.7337 15.578V11.98H81.5017V10.58H82.7337V8.872H84.4837V10.58H86.4857V11.98H84.4837V15.536C84.4837 15.9 84.5723 16.18 84.7497 16.376C84.927 16.5627 85.1837 16.656 85.5197 16.656C85.9117 16.656 86.2383 16.5533 86.4997 16.348L86.9897 17.594ZM95.2112 14.304C95.2112 14.4253 95.2018 14.598 95.1832 14.822H89.3172C89.4198 15.3727 89.6858 15.8113 90.1152 16.138C90.5538 16.4553 91.0952 16.614 91.7392 16.614C92.5605 16.614 93.2372 16.3433 93.7692 15.802L94.7072 16.88C94.3712 17.2813 93.9465 17.5847 93.4332 17.79C92.9198 17.9953 92.3412 18.098 91.6972 18.098C90.8758 18.098 90.1525 17.9347 89.5272 17.608C88.9018 17.2813 88.4165 16.8287 88.0712 16.25C87.7352 15.662 87.5672 14.9993 87.5672 14.262C87.5672 13.534 87.7305 12.8807 88.0572 12.302C88.3932 11.714 88.8552 11.2567 89.4432 10.93C90.0312 10.6033 90.6938 10.44 91.4312 10.44C92.1592 10.44 92.8078 10.6033 93.3772 10.93C93.9558 11.2473 94.4038 11.7 94.7212 12.288C95.0478 12.8667 95.2112 13.5387 95.2112 14.304ZM91.4312 11.84C90.8712 11.84 90.3952 12.008 90.0032 12.344C89.6205 12.6707 89.3872 13.1093 89.3032 13.66H93.5452C93.4705 13.1187 93.2418 12.68 92.8592 12.344C92.4765 12.008 92.0005 11.84 91.4312 11.84ZM99.2021 18.098C98.5955 18.098 98.0028 18.0187 97.4241 17.86C96.8455 17.7013 96.3835 17.5007 96.0381 17.258L96.7101 15.928C97.0461 16.152 97.4475 16.334 97.9141 16.474C98.3901 16.6047 98.8568 16.67 99.3141 16.67C100.359 16.67 100.882 16.3947 100.882 15.844C100.882 15.5827 100.747 15.4007 100.476 15.298C100.215 15.1953 99.7901 15.0973 99.2021 15.004C98.5861 14.9107 98.0821 14.8033 97.6901 14.682C97.3075 14.5607 96.9715 14.3507 96.6821 14.052C96.4021 13.744 96.2621 13.3193 96.2621 12.778C96.2621 12.0687 96.5561 11.504 97.1441 11.084C97.7415 10.6547 98.5441 10.44 99.5521 10.44C100.065 10.44 100.579 10.5007 101.092 10.622C101.605 10.734 102.025 10.888 102.352 11.084L101.68 12.414C101.045 12.0407 100.331 11.854 99.5381 11.854C99.0248 11.854 98.6328 11.9333 98.3621 12.092C98.1008 12.2413 97.9701 12.442 97.9701 12.694C97.9701 12.974 98.1101 13.1747 98.3901 13.296C98.6795 13.408 99.1228 13.5153 99.7201 13.618C100.317 13.7113 100.807 13.8187 101.19 13.94C101.573 14.0613 101.899 14.2667 102.17 14.556C102.45 14.8453 102.59 15.256 102.59 15.788C102.59 16.488 102.287 17.048 101.68 17.468C101.073 17.888 100.247 18.098 99.2021 18.098Z" fill="#112211"/>
</svg>
