<svg width="107" height="25" viewBox="0 0 107 25" fill="none" xmlns="http://www.w3.org/2000/svg">
<path d="M8.74733 22.25H7.49952C7.37414 22.25 7.25077 22.2185 7.14069 22.1585C7.03062 22.0984 6.93735 22.0118 6.86941 21.9064C6.80147 21.801 6.76104 21.6803 6.7518 21.5552C6.74257 21.4302 6.76483 21.3048 6.81655 21.1906L9.83811 14.5227L5.30108 14.4219L3.64639 16.4267C3.33092 16.8233 3.07921 17 2.43702 17H1.59702C1.46402 17.0043 1.33195 16.9764 1.212 16.9188C1.09205 16.8612 0.987757 16.7755 0.907956 16.6691C0.796393 16.5186 0.686706 16.2636 0.793581 15.8998L1.72264 12.5717C1.72967 12.5469 1.73811 12.522 1.74749 12.4977C1.74795 12.4953 1.74795 12.4929 1.74749 12.4906C1.73781 12.4663 1.72951 12.4414 1.72264 12.4161L0.792643 9.06687C0.691862 8.71016 0.802018 8.46078 0.912643 8.31406C0.986929 8.21549 1.08331 8.13573 1.19403 8.08118C1.30475 8.02664 1.42672 7.99883 1.55014 8H2.43702C2.91655 8 3.38202 8.21516 3.65577 8.5625L5.27624 10.5336L9.83811 10.4661L6.81749 3.80984C6.7657 3.69568 6.74335 3.57036 6.75249 3.44533C6.76163 3.3203 6.80196 3.19956 6.8698 3.09414C6.93764 2.98872 7.03082 2.90198 7.14083 2.84186C7.25083 2.78175 7.37416 2.75016 7.49952 2.75H8.76092C8.9369 2.75354 9.10983 2.79667 9.26685 2.8762C9.42388 2.95572 9.56097 3.0696 9.66796 3.20937L15.5297 10.3344L18.2376 10.2631C18.4359 10.2523 18.9853 10.2486 19.1123 10.2486C21.7026 10.25 23.2495 11.0909 23.2495 12.5C23.2495 12.9434 23.0723 13.7656 21.8869 14.2887C21.187 14.5981 20.2533 14.7547 19.1114 14.7547C18.9858 14.7547 18.4378 14.7509 18.2367 14.7402L15.5292 14.668L9.65296 21.793C9.54588 21.9321 9.40891 22.0454 9.25216 22.1246C9.0954 22.2037 8.92288 22.2465 8.74733 22.25Z" fill="#112211"/>
<path d="M36.47 8.2V9.726H31.136V12.708H35.868V14.248H31.136V18H29.316V8.2H36.47ZM39.8121 18H38.0621V10.524H39.8121V18ZM38.9441 9.292C38.6267 9.292 38.3607 9.194 38.1461 8.998C37.9314 8.79267 37.8241 8.54067 37.8241 8.242C37.8241 7.94333 37.9314 7.696 38.1461 7.5C38.3607 7.29467 38.6267 7.192 38.9441 7.192C39.2614 7.192 39.5274 7.29 39.7421 7.486C39.9567 7.67267 40.0641 7.91067 40.0641 8.2C40.0641 8.508 39.9567 8.76933 39.7421 8.984C39.5367 9.18933 39.2707 9.292 38.9441 9.292ZM46.3509 10.44C47.2936 10.44 48.0496 10.7153 48.6189 11.266C49.1883 11.8167 49.4729 12.6333 49.4729 13.716V18H47.7229V13.94C47.7229 13.2867 47.5689 12.7967 47.2609 12.47C46.9529 12.134 46.5143 11.966 45.9449 11.966C45.3009 11.966 44.7923 12.162 44.4189 12.554C44.0456 12.9367 43.8589 13.492 43.8589 14.22V18H42.1089V10.524H43.7749V11.49C44.0643 11.1447 44.4283 10.8833 44.8669 10.706C45.3056 10.5287 45.8003 10.44 46.3509 10.44ZM57.2786 7.612H59.0286V18H57.3486V17.034C57.0593 17.3887 56.6999 17.6547 56.2706 17.832C55.8506 18.0093 55.3839 18.098 54.8706 18.098C54.1519 18.098 53.5033 17.9393 52.9246 17.622C52.3553 17.3047 51.9073 16.8567 51.5806 16.278C51.2539 15.69 51.0906 15.018 51.0906 14.262C51.0906 13.506 51.2539 12.8387 51.5806 12.26C51.9073 11.6813 52.3553 11.2333 52.9246 10.916C53.5033 10.5987 54.1519 10.44 54.8706 10.44C55.3653 10.44 55.8179 10.524 56.2286 10.692C56.6393 10.86 56.9893 11.112 57.2786 11.448V7.612ZM55.0806 16.6C55.5006 16.6 55.8786 16.5067 56.2146 16.32C56.5506 16.124 56.8166 15.8487 57.0126 15.494C57.2086 15.1393 57.3066 14.7287 57.3066 14.262C57.3066 13.7953 57.2086 13.3847 57.0126 13.03C56.8166 12.6753 56.5506 12.4047 56.2146 12.218C55.8786 12.022 55.5006 11.924 55.0806 11.924C54.6606 11.924 54.2826 12.022 53.9466 12.218C53.6106 12.4047 53.3446 12.6753 53.1486 13.03C52.9526 13.3847 52.8546 13.7953 52.8546 14.262C52.8546 14.7287 52.9526 15.1393 53.1486 15.494C53.3446 15.8487 53.6106 16.124 53.9466 16.32C54.2826 16.5067 54.6606 16.6 55.0806 16.6ZM72.5091 8.2V9.726H67.1751V12.708H71.9071V14.248H67.1751V18H65.3551V8.2H72.5091ZM75.8511 18H74.1011V7.612H75.8511V18ZM79.898 18H78.148V10.524H79.898V18ZM79.03 9.292C78.7127 9.292 78.4467 9.194 78.232 8.998C78.0173 8.79267 77.91 8.54067 77.91 8.242C77.91 7.94333 78.0173 7.696 78.232 7.5C78.4467 7.29467 78.7127 7.192 79.03 7.192C79.3473 7.192 79.6133 7.29 79.828 7.486C80.0427 7.67267 80.15 7.91067 80.15 8.2C80.15 8.508 80.0427 8.76933 79.828 8.984C79.6227 9.18933 79.3567 9.292 79.03 9.292ZM87.9489 10.524H89.6149V16.866C89.6149 19.498 88.2709 20.814 85.5829 20.814C84.8642 20.814 84.1829 20.7207 83.5389 20.534C82.8949 20.3567 82.3629 20.0953 81.9429 19.75L82.7269 18.434C83.0535 18.7047 83.4642 18.9193 83.9589 19.078C84.4629 19.246 84.9715 19.33 85.4849 19.33C86.3062 19.33 86.9082 19.1433 87.2909 18.77C87.6735 18.3967 87.8649 17.8273 87.8649 17.062V16.67C87.5662 16.9967 87.2022 17.244 86.7729 17.412C86.3435 17.58 85.8722 17.664 85.3589 17.664C84.6495 17.664 84.0055 17.5147 83.4269 17.216C82.8575 16.908 82.4049 16.4787 82.0689 15.928C81.7422 15.3773 81.5789 14.7473 81.5789 14.038C81.5789 13.3287 81.7422 12.7033 82.0689 12.162C82.4049 11.6113 82.8575 11.1867 83.4269 10.888C84.0055 10.5893 84.6495 10.44 85.3589 10.44C85.9002 10.44 86.3902 10.5287 86.8289 10.706C87.2769 10.8833 87.6502 11.154 87.9489 11.518V10.524ZM85.6249 16.18C86.2875 16.18 86.8289 15.984 87.2489 15.592C87.6782 15.1907 87.8929 14.6727 87.8929 14.038C87.8929 13.4127 87.6782 12.904 87.2489 12.512C86.8289 12.12 86.2875 11.924 85.6249 11.924C84.9529 11.924 84.4022 12.12 83.9729 12.512C83.5529 12.904 83.3429 13.4127 83.3429 14.038C83.3429 14.6727 83.5529 15.1907 83.9729 15.592C84.4022 15.984 84.9529 16.18 85.6249 16.18ZM96.1576 10.44C97.1002 10.44 97.8562 10.7153 98.4256 11.266C98.9949 11.8167 99.2796 12.6333 99.2796 13.716V18H97.5296V13.94C97.5296 13.2867 97.3756 12.7967 97.0676 12.47C96.7596 12.134 96.3209 11.966 95.7516 11.966C95.1076 11.966 94.5989 12.162 94.2256 12.554C93.8522 12.9367 93.6656 13.492 93.6656 14.22V18H91.9156V7.612H93.6656V11.392C93.9549 11.084 94.3096 10.8507 94.7296 10.692C95.1589 10.524 95.6349 10.44 96.1576 10.44ZM105.994 17.594C105.788 17.762 105.536 17.888 105.238 17.972C104.948 18.056 104.64 18.098 104.314 18.098C103.492 18.098 102.858 17.8833 102.41 17.454C101.962 17.0247 101.738 16.3993 101.738 15.578V11.98H100.506V10.58H101.738V8.872H103.488V10.58H105.49V11.98H103.488V15.536C103.488 15.9 103.576 16.18 103.754 16.376C103.931 16.5627 104.188 16.656 104.524 16.656C104.916 16.656 105.242 16.5533 105.504 16.348L105.994 17.594Z" fill="#112211"/>
</svg>
