<svg width="103" height="25" viewBox="0 0 103 25" fill="none" xmlns="http://www.w3.org/2000/svg">
<path d="M20.25 11.3141C19.7772 11.1065 19.2664 10.9996 18.75 11H5.25C4.73368 10.9995 4.22288 11.1063 3.75 11.3136C3.08166 11.6059 2.51294 12.0865 2.11336 12.6968C1.71377 13.3071 1.50064 14.0205 1.5 14.75V20C1.5 20.1989 1.57902 20.3897 1.71967 20.5303C1.86032 20.671 2.05109 20.75 2.25 20.75C2.44891 20.75 2.63968 20.671 2.78033 20.5303C2.92098 20.3897 3 20.1989 3 20V19.625C3.00122 19.5259 3.04112 19.4312 3.11118 19.3612C3.18124 19.2911 3.27592 19.2512 3.375 19.25H20.625C20.7241 19.2512 20.8188 19.2911 20.8888 19.3612C20.9589 19.4312 20.9988 19.5259 21 19.625V20C21 20.1989 21.079 20.3897 21.2197 20.5303C21.3603 20.671 21.5511 20.75 21.75 20.75C21.9489 20.75 22.1397 20.671 22.2803 20.5303C22.421 20.3897 22.5 20.1989 22.5 20V14.75C22.4993 14.0206 22.2861 13.3073 21.8865 12.6971C21.4869 12.0869 20.9183 11.6063 20.25 11.3141ZM17.625 4.25H6.375C5.67881 4.25 5.01113 4.52656 4.51884 5.01884C4.02656 5.51113 3.75 6.17881 3.75 6.875V10.25C3.75002 10.2791 3.75679 10.3077 3.76979 10.3337C3.78278 10.3597 3.80163 10.3823 3.82486 10.3998C3.84809 10.4172 3.87505 10.429 3.90363 10.4343C3.93221 10.4395 3.96162 10.4381 3.98953 10.43C4.39896 10.3102 4.82341 10.2496 5.25 10.25H5.44828C5.49456 10.2503 5.53932 10.2335 5.57393 10.2027C5.60855 10.172 5.63058 10.1296 5.63578 10.0836C5.67669 9.71712 5.85115 9.37856 6.12586 9.13256C6.40056 8.88656 6.75625 8.75037 7.125 8.75H9.75C10.119 8.75003 10.475 8.88606 10.75 9.13209C11.025 9.37812 11.1997 9.71688 11.2406 10.0836C11.2458 10.1296 11.2679 10.172 11.3025 10.2027C11.3371 10.2335 11.3818 10.2503 11.4281 10.25H12.5747C12.621 10.2503 12.6657 10.2335 12.7003 10.2027C12.735 10.172 12.757 10.1296 12.7622 10.0836C12.8031 9.71736 12.9773 9.37899 13.2517 9.13303C13.5261 8.88706 13.8815 8.75072 14.25 8.75H16.875C17.244 8.75003 17.6 8.88606 17.875 9.13209C18.15 9.37812 18.3247 9.71688 18.3656 10.0836C18.3708 10.1296 18.3929 10.172 18.4275 10.2027C18.4621 10.2335 18.5068 10.2503 18.5531 10.25H18.75C19.1766 10.2498 19.6011 10.3106 20.0105 10.4305C20.0384 10.4385 20.0679 10.44 20.0965 10.4347C20.1251 10.4295 20.1521 10.4176 20.1753 10.4001C20.1986 10.3826 20.2174 10.3599 20.2304 10.3339C20.2433 10.3078 20.2501 10.2791 20.25 10.25V6.875C20.25 6.17881 19.9734 5.51113 19.4812 5.01884C18.9889 4.52656 18.3212 4.25 17.625 4.25Z" fill="#112211"/>
<path d="M36.47 8.2V9.726H31.136V12.708H35.868V14.248H31.136V18H29.316V8.2H36.47ZM39.8121 18H38.0621V10.524H39.8121V18ZM38.9441 9.292C38.6267 9.292 38.3607 9.194 38.1461 8.998C37.9314 8.79267 37.8241 8.54067 37.8241 8.242C37.8241 7.94333 37.9314 7.696 38.1461 7.5C38.3607 7.29467 38.6267 7.192 38.9441 7.192C39.2614 7.192 39.5274 7.29 39.7421 7.486C39.9567 7.67267 40.0641 7.91067 40.0641 8.2C40.0641 8.508 39.9567 8.76933 39.7421 8.984C39.5367 9.18933 39.2707 9.292 38.9441 9.292ZM46.3509 10.44C47.2936 10.44 48.0496 10.7153 48.6189 11.266C49.1883 11.8167 49.4729 12.6333 49.4729 13.716V18H47.7229V13.94C47.7229 13.2867 47.5689 12.7967 47.2609 12.47C46.9529 12.134 46.5143 11.966 45.9449 11.966C45.3009 11.966 44.7923 12.162 44.4189 12.554C44.0456 12.9367 43.8589 13.492 43.8589 14.22V18H42.1089V10.524H43.7749V11.49C44.0643 11.1447 44.4283 10.8833 44.8669 10.706C45.3056 10.5287 45.8003 10.44 46.3509 10.44ZM57.2786 7.612H59.0286V18H57.3486V17.034C57.0593 17.3887 56.6999 17.6547 56.2706 17.832C55.8506 18.0093 55.3839 18.098 54.8706 18.098C54.1519 18.098 53.5033 17.9393 52.9246 17.622C52.3553 17.3047 51.9073 16.8567 51.5806 16.278C51.2539 15.69 51.0906 15.018 51.0906 14.262C51.0906 13.506 51.2539 12.8387 51.5806 12.26C51.9073 11.6813 52.3553 11.2333 52.9246 10.916C53.5033 10.5987 54.1519 10.44 54.8706 10.44C55.3653 10.44 55.8179 10.524 56.2286 10.692C56.6393 10.86 56.9893 11.112 57.2786 11.448V7.612ZM55.0806 16.6C55.5006 16.6 55.8786 16.5067 56.2146 16.32C56.5506 16.124 56.8166 15.8487 57.0126 15.494C57.2086 15.1393 57.3066 14.7287 57.3066 14.262C57.3066 13.7953 57.2086 13.3847 57.0126 13.03C56.8166 12.6753 56.5506 12.4047 56.2146 12.218C55.8786 12.022 55.5006 11.924 55.0806 11.924C54.6606 11.924 54.2826 12.022 53.9466 12.218C53.6106 12.4047 53.3446 12.6753 53.1486 13.03C52.9526 13.3847 52.8546 13.7953 52.8546 14.262C52.8546 14.7287 52.9526 15.1393 53.1486 15.494C53.3446 15.8487 53.6106 16.124 53.9466 16.32C54.2826 16.5067 54.6606 16.6 55.0806 16.6ZM68.3931 18.14C67.6371 18.14 66.9044 18.0327 66.1951 17.818C65.4951 17.6033 64.9397 17.3187 64.5291 16.964L65.1591 15.55C65.5604 15.8673 66.0504 16.1287 66.6291 16.334C67.2171 16.53 67.8051 16.628 68.3931 16.628C69.1211 16.628 69.6624 16.5113 70.0171 16.278C70.3811 16.0447 70.5631 15.7367 70.5631 15.354C70.5631 15.074 70.4604 14.8453 70.2551 14.668C70.0591 14.4813 69.8071 14.3367 69.4991 14.234C69.1911 14.1313 68.7711 14.0147 68.2391 13.884C67.4924 13.7067 66.8857 13.5293 66.4191 13.352C65.9617 13.1747 65.5651 12.8993 65.2291 12.526C64.9024 12.1433 64.7391 11.63 64.7391 10.986C64.7391 10.4447 64.8837 9.95467 65.1731 9.516C65.4717 9.068 65.9151 8.71333 66.5031 8.452C67.1004 8.19067 67.8284 8.06 68.6871 8.06C69.2844 8.06 69.8724 8.13467 70.4511 8.284C71.0297 8.43333 71.5291 8.648 71.9491 8.928L71.3751 10.342C70.9457 10.09 70.4977 9.89867 70.0311 9.768C69.5644 9.63733 69.1117 9.572 68.6731 9.572C67.9544 9.572 67.4177 9.69333 67.0631 9.936C66.7177 10.1787 66.5451 10.5007 66.5451 10.902C66.5451 11.182 66.6431 11.4107 66.8391 11.588C67.0444 11.7653 67.3011 11.9053 67.6091 12.008C67.9171 12.1107 68.3371 12.2273 68.8691 12.358C69.5971 12.526 70.1944 12.7033 70.6611 12.89C71.1277 13.0673 71.5244 13.3427 71.8511 13.716C72.1871 14.0893 72.3551 14.5933 72.3551 15.228C72.3551 15.7693 72.2057 16.2593 71.9071 16.698C71.6177 17.1367 71.1744 17.4867 70.5771 17.748C69.9797 18.0093 69.2517 18.14 68.3931 18.14ZM78.4858 17.594C78.2804 17.762 78.0284 17.888 77.7298 17.972C77.4404 18.056 77.1324 18.098 76.8058 18.098C75.9844 18.098 75.3498 17.8833 74.9017 17.454C74.4538 17.0247 74.2298 16.3993 74.2298 15.578V11.98H72.9978V10.58H74.2298V8.872H75.9798V10.58H77.9818V11.98H75.9798V15.536C75.9798 15.9 76.0684 16.18 76.2458 16.376C76.4231 16.5627 76.6798 16.656 77.0158 16.656C77.4078 16.656 77.7344 16.5533 77.9958 16.348L78.4858 17.594ZM82.7813 10.44C83.8827 10.44 84.7227 10.706 85.3013 11.238C85.8893 11.7607 86.1833 12.554 86.1833 13.618V18H84.5313V17.09C84.3167 17.4167 84.0087 17.6687 83.6073 17.846C83.2153 18.014 82.7393 18.098 82.1793 18.098C81.6193 18.098 81.1293 18.0047 80.7093 17.818C80.2893 17.622 79.9627 17.356 79.7293 17.02C79.5053 16.6747 79.3933 16.2873 79.3933 15.858C79.3933 15.186 79.6407 14.6493 80.1353 14.248C80.6393 13.8373 81.428 13.632 82.5013 13.632H84.4333V13.52C84.4333 12.9973 84.2747 12.596 83.9573 12.316C83.6493 12.036 83.1873 11.896 82.5713 11.896C82.1513 11.896 81.736 11.9613 81.3253 12.092C80.924 12.2227 80.5833 12.4047 80.3033 12.638L79.6173 11.364C80.0093 11.0653 80.4807 10.8367 81.0313 10.678C81.582 10.5193 82.1653 10.44 82.7813 10.44ZM82.5433 16.824C82.982 16.824 83.3693 16.726 83.7053 16.53C84.0507 16.3247 84.2933 16.0353 84.4333 15.662V14.794H82.6273C81.6193 14.794 81.1153 15.1253 81.1153 15.788C81.1153 16.1053 81.2413 16.3573 81.4933 16.544C81.7453 16.7307 82.0953 16.824 82.5433 16.824ZM93.6125 10.524H95.2925L91.7925 18.602C91.4659 19.414 91.0692 19.9833 90.6025 20.31C90.1359 20.646 89.5712 20.814 88.9085 20.814C88.5352 20.814 88.1665 20.7533 87.8025 20.632C87.4385 20.5107 87.1399 20.3427 86.9065 20.128L87.6065 18.84C87.7745 18.9987 87.9705 19.1247 88.1945 19.218C88.4279 19.3113 88.6612 19.358 88.8945 19.358C89.2025 19.358 89.4545 19.2787 89.6505 19.12C89.8559 18.9613 90.0425 18.6953 90.2105 18.322L90.3365 18.028L87.0745 10.524H88.8945L91.2465 16.054L93.6125 10.524ZM98.6006 18.098C97.9939 18.098 97.4012 18.0187 96.8226 17.86C96.2439 17.7013 95.7819 17.5007 95.4366 17.258L96.1086 15.928C96.4446 16.152 96.8459 16.334 97.3126 16.474C97.7886 16.6047 98.2552 16.67 98.7126 16.67C99.7579 16.67 100.281 16.3947 100.281 15.844C100.281 15.5827 100.145 15.4007 99.8746 15.298C99.6132 15.1953 99.1886 15.0973 98.6006 15.004C97.9846 14.9107 97.4806 14.8033 97.0886 14.682C96.7059 14.5607 96.3699 14.3507 96.0806 14.052C95.8006 13.744 95.6606 13.3193 95.6606 12.778C95.6606 12.0687 95.9546 11.504 96.5426 11.084C97.1399 10.6547 97.9426 10.44 98.9506 10.44C99.4639 10.44 99.9772 10.5007 100.491 10.622C101.004 10.734 101.424 10.888 101.751 11.084L101.079 12.414C100.444 12.0407 99.7299 11.854 98.9366 11.854C98.4232 11.854 98.0312 11.9333 97.7606 12.092C97.4992 12.2413 97.3686 12.442 97.3686 12.694C97.3686 12.974 97.5086 13.1747 97.7886 13.296C98.0779 13.408 98.5212 13.5153 99.1186 13.618C99.7159 13.7113 100.206 13.8187 100.589 13.94C100.971 14.0613 101.298 14.2667 101.569 14.556C101.849 14.8453 101.989 15.256 101.989 15.788C101.989 16.488 101.685 17.048 101.079 17.468C100.472 17.888 99.6459 18.098 98.6006 18.098Z" fill="#112211"/>
</svg>
