<svg width="504" height="48" viewBox="0 0 504 48" fill="none" xmlns="http://www.w3.org/2000/svg">
<rect width="504" height="48" rx="4" fill="white"/>
<path d="M218.564 24.418C219.133 24.5767 219.581 24.866 219.908 25.286C220.235 25.6967 220.398 26.2193 220.398 26.854C220.398 27.7033 220.076 28.3567 219.432 28.814C218.797 29.2713 217.869 29.5 216.646 29.5H211.97V19.7H216.366C217.486 19.7 218.349 19.924 218.956 20.372C219.572 20.82 219.88 21.4407 219.88 22.234C219.88 22.7473 219.759 23.1907 219.516 23.564C219.283 23.9373 218.965 24.222 218.564 24.418ZM213.37 20.834V23.97H216.24C216.959 23.97 217.509 23.8393 217.892 23.578C218.284 23.3073 218.48 22.9153 218.48 22.402C218.48 21.8887 218.284 21.5013 217.892 21.24C217.509 20.9693 216.959 20.834 216.24 20.834H213.37ZM216.59 28.366C217.383 28.366 217.981 28.2353 218.382 27.974C218.783 27.7127 218.984 27.302 218.984 26.742C218.984 25.65 218.186 25.104 216.59 25.104H213.37V28.366H216.59ZM225.548 29.584C224.81 29.584 224.148 29.4207 223.56 29.094C222.972 28.7673 222.51 28.3193 222.174 27.75C221.847 27.1713 221.684 26.518 221.684 25.79C221.684 25.062 221.847 24.4133 222.174 23.844C222.51 23.2653 222.972 22.8173 223.56 22.5C224.148 22.1733 224.81 22.01 225.548 22.01C226.285 22.01 226.943 22.1733 227.522 22.5C228.11 22.8173 228.567 23.2653 228.894 23.844C229.23 24.4133 229.398 25.062 229.398 25.79C229.398 26.518 229.23 27.1713 228.894 27.75C228.567 28.3193 228.11 28.7673 227.522 29.094C226.943 29.4207 226.285 29.584 225.548 29.584ZM225.548 28.408C226.024 28.408 226.448 28.3007 226.822 28.086C227.204 27.862 227.503 27.554 227.718 27.162C227.932 26.7607 228.04 26.3033 228.04 25.79C228.04 25.2767 227.932 24.824 227.718 24.432C227.503 24.0307 227.204 23.7227 226.822 23.508C226.448 23.2933 226.024 23.186 225.548 23.186C225.072 23.186 224.642 23.2933 224.26 23.508C223.886 23.7227 223.588 24.0307 223.364 24.432C223.149 24.824 223.042 25.2767 223.042 25.79C223.042 26.3033 223.149 26.7607 223.364 27.162C223.588 27.554 223.886 27.862 224.26 28.086C224.642 28.3007 225.072 28.408 225.548 28.408ZM234.434 29.584C233.697 29.584 233.034 29.4207 232.446 29.094C231.858 28.7673 231.396 28.3193 231.06 27.75C230.734 27.1713 230.57 26.518 230.57 25.79C230.57 25.062 230.734 24.4133 231.06 23.844C231.396 23.2653 231.858 22.8173 232.446 22.5C233.034 22.1733 233.697 22.01 234.434 22.01C235.172 22.01 235.83 22.1733 236.408 22.5C236.996 22.8173 237.454 23.2653 237.78 23.844C238.116 24.4133 238.284 25.062 238.284 25.79C238.284 26.518 238.116 27.1713 237.78 27.75C237.454 28.3193 236.996 28.7673 236.408 29.094C235.83 29.4207 235.172 29.584 234.434 29.584ZM234.434 28.408C234.91 28.408 235.335 28.3007 235.708 28.086C236.091 27.862 236.39 27.554 236.604 27.162C236.819 26.7607 236.926 26.3033 236.926 25.79C236.926 25.2767 236.819 24.824 236.604 24.432C236.39 24.0307 236.091 23.7227 235.708 23.508C235.335 23.2933 234.91 23.186 234.434 23.186C233.958 23.186 233.529 23.2933 233.146 23.508C232.773 23.7227 232.474 24.0307 232.25 24.432C232.036 24.824 231.928 25.2767 231.928 25.79C231.928 26.3033 232.036 26.7607 232.25 27.162C232.474 27.554 232.773 27.862 233.146 28.086C233.529 28.3007 233.958 28.408 234.434 28.408ZM243.027 26.042L241.487 27.47V29.5H240.143V19.112H241.487V25.776L245.533 22.08H247.157L244.035 25.146L247.465 29.5H245.813L243.027 26.042ZM254.126 20.918V24.334H259.04V25.538H254.126V29.5H252.726V19.7H259.642V20.918H254.126ZM261.417 19.112H262.761V29.5H261.417V19.112ZM265.327 22.08H266.671V29.5H265.327V22.08ZM265.999 20.652C265.737 20.652 265.518 20.568 265.341 20.4C265.173 20.232 265.089 20.0267 265.089 19.784C265.089 19.5413 265.173 19.336 265.341 19.168C265.518 18.9907 265.737 18.902 265.999 18.902C266.26 18.902 266.475 18.986 266.643 19.154C266.82 19.3127 266.909 19.5133 266.909 19.756C266.909 20.008 266.82 20.2227 266.643 20.4C266.475 20.568 266.26 20.652 265.999 20.652ZM276.335 22.08V28.492C276.335 29.7893 276.013 30.746 275.369 31.362C274.725 31.9873 273.764 32.3 272.485 32.3C271.785 32.3 271.118 32.202 270.483 32.006C269.848 31.8193 269.335 31.5487 268.943 31.194L269.587 30.158C269.932 30.4567 270.357 30.69 270.861 30.858C271.374 31.0353 271.902 31.124 272.443 31.124C273.311 31.124 273.95 30.9187 274.361 30.508C274.781 30.0973 274.991 29.472 274.991 28.632V28.044C274.674 28.4267 274.282 28.716 273.815 28.912C273.358 29.0987 272.858 29.192 272.317 29.192C271.608 29.192 270.964 29.0427 270.385 28.744C269.816 28.436 269.368 28.0113 269.041 27.47C268.714 26.9193 268.551 26.294 268.551 25.594C268.551 24.894 268.714 24.2733 269.041 23.732C269.368 23.1813 269.816 22.7567 270.385 22.458C270.964 22.1593 271.608 22.01 272.317 22.01C272.877 22.01 273.395 22.1127 273.871 22.318C274.356 22.5233 274.753 22.8267 275.061 23.228V22.08H276.335ZM272.471 28.016C272.956 28.016 273.39 27.9133 273.773 27.708C274.165 27.5027 274.468 27.218 274.683 26.854C274.907 26.4807 275.019 26.0607 275.019 25.594C275.019 24.8753 274.781 24.2967 274.305 23.858C273.829 23.41 273.218 23.186 272.471 23.186C271.715 23.186 271.099 23.41 270.623 23.858C270.147 24.2967 269.909 24.8753 269.909 25.594C269.909 26.0607 270.016 26.4807 270.231 26.854C270.455 27.218 270.758 27.5027 271.141 27.708C271.533 27.9133 271.976 28.016 272.471 28.016ZM282.865 22.01C283.808 22.01 284.554 22.2853 285.105 22.836C285.665 23.3773 285.945 24.1753 285.945 25.23V29.5H284.601V25.384C284.601 24.6653 284.428 24.124 284.083 23.76C283.738 23.396 283.243 23.214 282.599 23.214C281.871 23.214 281.297 23.4287 280.877 23.858C280.457 24.278 280.247 24.8847 280.247 25.678V29.5H278.903V19.112H280.247V23.13C280.527 22.7753 280.891 22.5 281.339 22.304C281.796 22.108 282.305 22.01 282.865 22.01ZM292.604 29.066C292.408 29.234 292.166 29.3647 291.876 29.458C291.587 29.542 291.288 29.584 290.98 29.584C290.234 29.584 289.655 29.3833 289.244 28.982C288.834 28.5807 288.628 28.0067 288.628 27.26V23.186H287.368V22.08H288.628V20.456H289.972V22.08H292.1V23.186H289.972V27.204C289.972 27.6053 290.07 27.9133 290.266 28.128C290.472 28.3427 290.761 28.45 291.134 28.45C291.545 28.45 291.895 28.3333 292.184 28.1L292.604 29.066Z" fill="#112211"/>
</svg>
