<svg width="40" height="32" viewBox="0 0 40 32" fill="none" xmlns="http://www.w3.org/2000/svg">
<rect x="0.5" y="0.5" width="39" height="31" rx="3.5" stroke="#8DD3BB"/>
<path d="M18.884 18.436H17.288V20.5H16.124V18.436H11.456V17.596L15.752 12.1H17.048L12.932 17.404H16.16V15.58H17.288V17.404H18.884V18.436ZM20.6297 20.572C20.4057 20.572 20.2137 20.496 20.0537 20.344C19.8937 20.184 19.8137 19.984 19.8137 19.744C19.8137 19.512 19.8937 19.32 20.0537 19.168C20.2137 19.008 20.4057 18.928 20.6297 18.928C20.8537 18.928 21.0417 19.004 21.1937 19.156C21.3457 19.308 21.4217 19.504 21.4217 19.744C21.4217 19.984 21.3417 20.184 21.1817 20.344C21.0297 20.496 20.8457 20.572 20.6297 20.572ZM28.5777 19.456V20.5H22.5417V19.684L25.9617 16.384C26.3777 15.984 26.6577 15.64 26.8017 15.352C26.9457 15.056 27.0177 14.76 27.0177 14.464C27.0177 14.024 26.8617 13.684 26.5497 13.444C26.2457 13.196 25.8057 13.072 25.2297 13.072C24.3017 13.072 23.5857 13.376 23.0817 13.984L22.2657 13.276C22.5937 12.876 23.0217 12.564 23.5497 12.34C24.0857 12.116 24.6817 12.004 25.3377 12.004C26.2177 12.004 26.9177 12.216 27.4377 12.64C27.9577 13.056 28.2177 13.624 28.2177 14.344C28.2177 14.792 28.1217 15.216 27.9297 15.616C27.7377 16.016 27.3737 16.472 26.8377 16.984L24.2697 19.456H28.5777Z" fill="#112211"/>
</svg>
