<svg width="742" height="20" viewBox="0 0 742 20" fill="none" xmlns="http://www.w3.org/2000/svg">
<line opacity="0.25" y1="9.5" x2="337" y2="9.5" stroke="#112211"/>
<path d="M367.736 16.128C366.883 16.128 366.088 15.984 365.352 15.696C364.627 15.408 363.997 15.008 363.464 14.496C362.931 13.9733 362.515 13.3653 362.216 12.672C361.917 11.9787 361.768 11.2213 361.768 10.4C361.768 9.57867 361.917 8.82133 362.216 8.128C362.515 7.43467 362.931 6.832 363.464 6.32C363.997 5.79733 364.627 5.392 365.352 5.104C366.077 4.816 366.872 4.672 367.736 4.672C368.589 4.672 369.373 4.816 370.088 5.104C370.813 5.38133 371.443 5.78133 371.976 6.304C372.52 6.816 372.936 7.41867 373.224 8.112C373.523 8.80533 373.672 9.568 373.672 10.4C373.672 11.232 373.523 11.9947 373.224 12.688C372.936 13.3813 372.52 13.9893 371.976 14.512C371.443 15.024 370.813 15.424 370.088 15.712C369.373 15.9893 368.589 16.128 367.736 16.128ZM367.736 14.704C368.355 14.704 368.925 14.5973 369.448 14.384C369.981 14.1707 370.44 13.872 370.824 13.488C371.219 13.0933 371.523 12.6347 371.736 12.112C371.96 11.5893 372.072 11.0187 372.072 10.4C372.072 9.78133 371.96 9.21067 371.736 8.688C371.523 8.16533 371.219 7.712 370.824 7.328C370.44 6.93333 369.981 6.62933 369.448 6.416C368.925 6.20267 368.355 6.096 367.736 6.096C367.107 6.096 366.525 6.20267 365.992 6.416C365.469 6.62933 365.011 6.93333 364.616 7.328C364.221 7.712 363.912 8.16533 363.688 8.688C363.475 9.21067 363.368 9.78133 363.368 10.4C363.368 11.0187 363.475 11.5893 363.688 12.112C363.912 12.6347 364.221 13.0933 364.616 13.488C365.011 13.872 365.469 14.1707 365.992 14.384C366.525 14.5973 367.107 14.704 367.736 14.704ZM375.894 16V7.52H377.366V9.824L377.222 9.248C377.456 8.66133 377.851 8.21333 378.406 7.904C378.96 7.59467 379.643 7.44 380.454 7.44V8.928C380.39 8.91733 380.326 8.912 380.262 8.912C380.208 8.912 380.155 8.912 380.102 8.912C379.28 8.912 378.63 9.15733 378.15 9.648C377.67 10.1387 377.43 10.848 377.43 11.776V16H375.894Z" fill="#112211"/>
<line opacity="0.25" x1="405" y1="9.5" x2="742" y2="9.5" stroke="#112211"/>
</svg>
