<svg width="237" height="56" viewBox="0 0 237 56" fill="none" xmlns="http://www.w3.org/2000/svg">
<rect x="0.833008" y="0.5" width="235.667" height="55" rx="3.5" stroke="#8DD3BB"/>
<path d="M124.183 28.5555C124.174 26.957 124.898 25.7523 126.361 24.8641C125.543 23.6922 124.305 23.0477 122.674 22.9234C121.129 22.8016 119.439 23.8234 118.821 23.8234C118.167 23.8234 116.671 22.9656 115.495 22.9656C113.067 23.0031 110.486 24.9016 110.486 28.7641C110.486 29.9055 110.695 31.0844 111.112 32.2984C111.67 33.8969 113.681 37.8133 115.779 37.75C116.875 37.7242 117.651 36.9719 119.079 36.9719C120.464 36.9719 121.181 37.75 122.404 37.75C124.521 37.7195 126.339 34.1594 126.869 32.5563C124.031 31.218 124.183 28.6375 124.183 28.5555ZM121.72 21.407C122.908 19.9961 122.8 18.7117 122.765 18.25C121.715 18.3109 120.501 18.9648 119.81 19.7688C119.048 20.6313 118.6 21.6977 118.696 22.9C119.831 22.9867 120.867 22.4031 121.72 21.407Z" fill="black"/>
</svg>
