<svg width="238" height="56" viewBox="0 0 238 56" fill="none" xmlns="http://www.w3.org/2000/svg">
<rect x="1.16699" y="0.5" width="235.667" height="55" rx="3.5" stroke="#8DD3BB"/>
<path d="M128.806 26.0415H128V26H119V30H124.652C123.827 32.3285 121.611 34 119 34C115.687 34 113 31.3135 113 28C113 24.6865 115.687 22 119 22C120.53 22 121.921 22.577 122.981 23.5195L125.809 20.691C124.023 19.0265 121.634 18 119 18C113.477 18 109 22.4775 109 28C109 33.5225 113.477 38 119 38C124.523 38 129 33.5225 129 28C129 27.3295 128.931 26.675 128.806 26.0415Z" fill="#FFC107"/>
<path d="M110.152 23.3455L113.438 25.755C114.327 23.554 116.48 22 118.999 22C120.529 22 121.92 22.577 122.98 23.5195L125.808 20.691C124.022 19.0265 121.633 18 118.999 18C115.158 18 111.827 20.1685 110.152 23.3455Z" fill="#FF3D00"/>
<path d="M119 38C121.583 38 123.93 37.0115 125.705 35.404L122.61 32.785C121.572 33.5742 120.304 34.001 119 34C116.399 34 114.191 32.3415 113.359 30.027L110.098 32.5395C111.753 35.778 115.114 38 119 38Z" fill="#4CAF50"/>
<path d="M128.806 26.0415H128V26H119V30H124.652C124.257 31.1082 123.547 32.0766 122.608 32.7855L122.609 32.7845L125.705 35.4035C125.486 35.6025 129 33 129 28C129 27.3295 128.931 26.675 128.806 26.0415Z" fill="#1976D2"/>
</svg>
