<svg width="237" height="56" viewBox="0 0 237 56" fill="none" xmlns="http://www.w3.org/2000/svg">
<rect x="0.5" y="0.5" width="235.667" height="55" rx="3.5" stroke="#8DD3BB"/>
<path d="M130.333 28.0733C130.333 21.4055 124.96 16 118.333 16C111.706 16 106.333 21.4054 106.333 28.0733C106.333 34.0994 110.721 39.0943 116.458 40V31.5633H113.411V28.0733H116.458V25.4134C116.458 22.3875 118.25 20.7161 120.991 20.7161C122.304 20.7161 123.677 20.952 123.677 20.952V23.9231H122.164C120.673 23.9231 120.208 24.8538 120.208 25.8086V28.0733H123.536L123.004 31.5633H120.208V40C125.945 39.0943 130.333 34.0995 130.333 28.0733Z" fill="#1877F2"/>
</svg>
