<svg width="742" height="56" viewBox="0 0 742 56" fill="none" xmlns="http://www.w3.org/2000/svg">
<rect x="0.5" y="0.5" width="741" height="55" rx="3.5" stroke="#8DD3BB"/>
<path d="M287.875 19.75H272.125C271.429 19.7507 270.762 20.0275 270.27 20.5197C269.778 21.0118 269.501 21.679 269.5 22.375V33.625C269.501 34.321 269.778 34.9882 270.27 35.4803C270.762 35.9725 271.429 36.2493 272.125 36.25H287.875C288.571 36.2493 289.238 35.9725 289.73 35.4803C290.222 34.9882 290.499 34.321 290.5 33.625V22.375C290.499 21.679 290.222 21.0118 289.73 20.5197C289.238 20.0275 288.571 19.7507 287.875 19.75ZM287.21 24.092L280.46 29.342C280.329 29.4444 280.167 29.4999 280 29.4999C279.833 29.4999 279.671 29.4444 279.54 29.342L272.79 24.092C272.71 24.0321 272.644 23.9571 272.594 23.8712C272.544 23.7854 272.511 23.6904 272.498 23.5919C272.485 23.4934 272.492 23.3933 272.518 23.2973C272.544 23.2014 272.589 23.1116 272.65 23.0332C272.711 22.9547 272.787 22.8892 272.873 22.8403C272.96 22.7915 273.055 22.7603 273.154 22.7487C273.252 22.737 273.352 22.7451 273.448 22.7725C273.544 22.7998 273.633 22.8459 273.71 22.908L280 27.7998L286.29 22.908C286.447 22.7892 286.645 22.7371 286.84 22.763C287.035 22.7888 287.213 22.8905 287.334 23.0461C287.455 23.2017 287.51 23.3987 287.486 23.5944C287.463 23.7901 287.364 23.9689 287.21 24.092Z" fill="#112211"/>
<path d="M314.688 34.128C313.835 34.128 313.045 33.9893 312.32 33.712C311.605 33.424 310.981 33.024 310.448 32.512C309.925 31.9893 309.515 31.3813 309.216 30.688C308.917 29.9947 308.768 29.232 308.768 28.4C308.768 27.568 308.917 26.8053 309.216 26.112C309.515 25.4187 309.931 24.816 310.464 24.304C310.997 23.7813 311.621 23.3813 312.336 23.104C313.061 22.816 313.851 22.672 314.704 22.672C315.568 22.672 316.363 22.8213 317.088 23.12C317.824 23.408 318.448 23.84 318.96 24.416L317.92 25.424C317.493 24.976 317.013 24.6453 316.48 24.432C315.947 24.208 315.376 24.096 314.768 24.096C314.139 24.096 313.552 24.2027 313.008 24.416C312.475 24.6293 312.011 24.928 311.616 25.312C311.221 25.696 310.912 26.1547 310.688 26.688C310.475 27.2107 310.368 27.7813 310.368 28.4C310.368 29.0187 310.475 29.5947 310.688 30.128C310.912 30.6507 311.221 31.104 311.616 31.488C312.011 31.872 312.475 32.1707 313.008 32.384C313.552 32.5973 314.139 32.704 314.768 32.704C315.376 32.704 315.947 32.5973 316.48 32.384C317.013 32.16 317.493 31.8187 317.92 31.36L318.96 32.368C318.448 32.944 317.824 33.3813 317.088 33.68C316.363 33.9787 315.563 34.128 314.688 34.128ZM324.291 34.096C323.438 34.096 322.68 33.9093 322.019 33.536C321.358 33.1627 320.835 32.6507 320.451 32C320.067 31.3387 319.875 30.592 319.875 29.76C319.875 28.9173 320.067 28.1707 320.451 27.52C320.835 26.8693 321.358 26.3627 322.019 26C322.68 25.6267 323.438 25.44 324.291 25.44C325.134 25.44 325.886 25.6267 326.547 26C327.219 26.3627 327.742 26.8693 328.115 27.52C328.499 28.16 328.691 28.9067 328.691 29.76C328.691 30.6027 328.499 31.3493 328.115 32C327.742 32.6507 327.219 33.1627 326.547 33.536C325.886 33.9093 325.134 34.096 324.291 34.096ZM324.291 32.752C324.835 32.752 325.32 32.6293 325.747 32.384C326.184 32.1387 326.526 31.792 326.771 31.344C327.016 30.8853 327.139 30.3573 327.139 29.76C327.139 29.152 327.016 28.6293 326.771 28.192C326.526 27.744 326.184 27.3973 325.747 27.152C325.32 26.9067 324.835 26.784 324.291 26.784C323.747 26.784 323.262 26.9067 322.835 27.152C322.408 27.3973 322.067 27.744 321.811 28.192C321.555 28.6293 321.427 29.152 321.427 29.76C321.427 30.3573 321.555 30.8853 321.811 31.344C322.067 31.792 322.408 32.1387 322.835 32.384C323.262 32.6293 323.747 32.752 324.291 32.752ZM335.343 25.44C336.037 25.44 336.645 25.5733 337.167 25.84C337.701 26.1067 338.117 26.512 338.415 27.056C338.714 27.6 338.863 28.288 338.863 29.12V34H337.327V29.296C337.327 28.4747 337.125 27.856 336.719 27.44C336.325 27.024 335.765 26.816 335.039 26.816C334.495 26.816 334.021 26.9227 333.615 27.136C333.21 27.3493 332.895 27.664 332.671 28.08C332.458 28.496 332.351 29.0133 332.351 29.632V34H330.815V25.52H332.287V27.808L332.047 27.2C332.325 26.6453 332.751 26.2133 333.327 25.904C333.903 25.5947 334.575 25.44 335.343 25.44ZM344.618 34.096C343.765 34.096 343.103 33.8667 342.634 33.408C342.165 32.9493 341.93 32.2933 341.93 31.44V23.664H343.466V31.376C343.466 31.8347 343.578 32.1867 343.802 32.432C344.037 32.6773 344.367 32.8 344.794 32.8C345.274 32.8 345.674 32.6667 345.994 32.4L346.474 33.504C346.239 33.7067 345.957 33.856 345.626 33.952C345.306 34.048 344.97 34.096 344.618 34.096ZM340.49 26.784V25.52H345.898V26.784H340.49ZM348.331 34V25.52H349.867V34H348.331ZM349.099 23.888C348.8 23.888 348.55 23.792 348.347 23.6C348.155 23.408 348.059 23.1733 348.059 22.896C348.059 22.608 348.155 22.368 348.347 22.176C348.55 21.984 348.8 21.888 349.099 21.888C349.398 21.888 349.643 21.984 349.835 22.176C350.038 22.3573 350.139 22.5867 350.139 22.864C350.139 23.152 350.043 23.3973 349.851 23.6C349.659 23.792 349.408 23.888 349.099 23.888ZM357.328 25.44C358.021 25.44 358.629 25.5733 359.152 25.84C359.685 26.1067 360.101 26.512 360.4 27.056C360.698 27.6 360.848 28.288 360.848 29.12V34H359.312V29.296C359.312 28.4747 359.109 27.856 358.704 27.44C358.309 27.024 357.749 26.816 357.024 26.816C356.48 26.816 356.005 26.9227 355.6 27.136C355.194 27.3493 354.88 27.664 354.656 28.08C354.442 28.496 354.336 29.0133 354.336 29.632V34H352.8V25.52H354.272V27.808L354.032 27.2C354.309 26.6453 354.736 26.2133 355.312 25.904C355.888 25.5947 356.56 25.44 357.328 25.44ZM367.258 34.096C366.533 34.096 365.893 33.9627 365.338 33.696C364.794 33.4293 364.368 33.024 364.058 32.48C363.76 31.9253 363.61 31.232 363.61 30.4V25.52H365.146V30.224C365.146 31.056 365.344 31.68 365.738 32.096C366.144 32.512 366.709 32.72 367.434 32.72C367.968 32.72 368.432 32.6133 368.826 32.4C369.221 32.176 369.525 31.856 369.738 31.44C369.952 31.0133 370.058 30.5013 370.058 29.904V25.52H371.594V34H370.138V31.712L370.378 32.32C370.101 32.8853 369.685 33.3227 369.13 33.632C368.576 33.9413 367.952 34.096 367.258 34.096ZM378.295 34.096C377.388 34.096 376.588 33.9093 375.895 33.536C375.212 33.1627 374.679 32.6507 374.295 32C373.921 31.3493 373.735 30.6027 373.735 29.76C373.735 28.9173 373.916 28.1707 374.279 27.52C374.652 26.8693 375.159 26.3627 375.799 26C376.449 25.6267 377.18 25.44 377.991 25.44C378.812 25.44 379.537 25.6213 380.167 25.984C380.796 26.3467 381.287 26.8587 381.639 27.52C382.001 28.1707 382.183 28.9333 382.183 29.808C382.183 29.872 382.177 29.9467 382.167 30.032C382.167 30.1173 382.161 30.1973 382.151 30.272H374.935V29.168H381.351L380.727 29.552C380.737 29.008 380.625 28.5227 380.391 28.096C380.156 27.6693 379.831 27.3387 379.415 27.104C379.009 26.8587 378.535 26.736 377.991 26.736C377.457 26.736 376.983 26.8587 376.567 27.104C376.151 27.3387 375.825 27.6747 375.591 28.112C375.356 28.5387 375.239 29.0293 375.239 29.584V29.84C375.239 30.4053 375.367 30.912 375.623 31.36C375.889 31.7973 376.257 32.1387 376.727 32.384C377.196 32.6293 377.735 32.752 378.343 32.752C378.844 32.752 379.297 32.6667 379.703 32.496C380.119 32.3253 380.481 32.0693 380.791 31.728L381.639 32.72C381.255 33.168 380.775 33.5093 380.199 33.744C379.633 33.9787 378.999 34.096 378.295 34.096ZM390.404 34L387.252 25.52H388.708L391.508 33.2H390.82L393.732 25.52H395.028L397.876 33.2H397.204L400.068 25.52H401.444L398.276 34H396.804L394.132 26.992H394.58L391.876 34H390.404ZM403.003 34V25.52H404.539V34H403.003ZM403.771 23.888C403.472 23.888 403.222 23.792 403.019 23.6C402.827 23.408 402.731 23.1733 402.731 22.896C402.731 22.608 402.827 22.368 403.019 22.176C403.222 21.984 403.472 21.888 403.771 21.888C404.07 21.888 404.315 21.984 404.507 22.176C404.71 22.3573 404.811 22.5867 404.811 22.864C404.811 23.152 404.715 23.3973 404.523 23.6C404.331 23.792 404.08 23.888 403.771 23.888ZM410.384 34.096C409.53 34.096 408.869 33.8667 408.4 33.408C407.93 32.9493 407.696 32.2933 407.696 31.44V23.664H409.232V31.376C409.232 31.8347 409.344 32.1867 409.568 32.432C409.802 32.6773 410.133 32.8 410.56 32.8C411.04 32.8 411.44 32.6667 411.76 32.4L412.24 33.504C412.005 33.7067 411.722 33.856 411.392 33.952C411.072 34.048 410.736 34.096 410.384 34.096ZM406.256 26.784V25.52H411.664V26.784H406.256ZM418.625 25.44C419.318 25.44 419.926 25.5733 420.449 25.84C420.982 26.1067 421.398 26.512 421.697 27.056C421.995 27.6 422.145 28.288 422.145 29.12V34H420.609V29.296C420.609 28.4747 420.406 27.856 420.001 27.44C419.606 27.024 419.046 26.816 418.321 26.816C417.777 26.816 417.302 26.9227 416.897 27.136C416.491 27.3493 416.177 27.664 415.953 28.08C415.739 28.496 415.633 29.0133 415.633 29.632V34H414.097V22.128H415.633V27.808L415.329 27.2C415.606 26.6453 416.033 26.2133 416.609 25.904C417.185 25.5947 417.857 25.44 418.625 25.44ZM433.06 34.096C432.153 34.096 431.353 33.9093 430.66 33.536C429.977 33.1627 429.444 32.6507 429.06 32C428.687 31.3493 428.5 30.6027 428.5 29.76C428.5 28.9173 428.681 28.1707 429.044 27.52C429.417 26.8693 429.924 26.3627 430.564 26C431.215 25.6267 431.945 25.44 432.756 25.44C433.577 25.44 434.303 25.6213 434.932 25.984C435.561 26.3467 436.052 26.8587 436.404 27.52C436.767 28.1707 436.948 28.9333 436.948 29.808C436.948 29.872 436.943 29.9467 436.932 30.032C436.932 30.1173 436.927 30.1973 436.916 30.272H429.7V29.168H436.116L435.492 29.552C435.503 29.008 435.391 28.5227 435.156 28.096C434.921 27.6693 434.596 27.3387 434.18 27.104C433.775 26.8587 433.3 26.736 432.756 26.736C432.223 26.736 431.748 26.8587 431.332 27.104C430.916 27.3387 430.591 27.6747 430.356 28.112C430.121 28.5387 430.004 29.0293 430.004 29.584V29.84C430.004 30.4053 430.132 30.912 430.388 31.36C430.655 31.7973 431.023 32.1387 431.492 32.384C431.961 32.6293 432.5 32.752 433.108 32.752C433.609 32.752 434.063 32.6667 434.468 32.496C434.884 32.3253 435.247 32.0693 435.556 31.728L436.404 32.72C436.02 33.168 435.54 33.5093 434.964 33.744C434.399 33.9787 433.764 34.096 433.06 34.096ZM449.689 25.44C450.372 25.44 450.974 25.5733 451.497 25.84C452.02 26.1067 452.425 26.512 452.713 27.056C453.012 27.6 453.161 28.288 453.161 29.12V34H451.625V29.296C451.625 28.4747 451.433 27.856 451.049 27.44C450.665 27.024 450.126 26.816 449.433 26.816C448.921 26.816 448.473 26.9227 448.089 27.136C447.705 27.3493 447.406 27.664 447.193 28.08C446.99 28.496 446.889 29.0133 446.889 29.632V34H445.353V29.296C445.353 28.4747 445.161 27.856 444.777 27.44C444.404 27.024 443.865 26.816 443.161 26.816C442.66 26.816 442.217 26.9227 441.833 27.136C441.449 27.3493 441.15 27.664 440.937 28.08C440.724 28.496 440.617 29.0133 440.617 29.632V34H439.081V25.52H440.553V27.776L440.313 27.2C440.58 26.6453 440.99 26.2133 441.545 25.904C442.1 25.5947 442.745 25.44 443.481 25.44C444.292 25.44 444.99 25.6427 445.577 26.048C446.164 26.4427 446.548 27.0453 446.729 27.856L446.105 27.6C446.361 26.9493 446.809 26.4267 447.449 26.032C448.089 25.6373 448.836 25.44 449.689 25.44ZM461.251 34V32.208L461.171 31.872V28.816C461.171 28.1653 460.979 27.664 460.595 27.312C460.222 26.9493 459.657 26.768 458.899 26.768C458.398 26.768 457.907 26.8533 457.427 27.024C456.947 27.184 456.542 27.4027 456.211 27.68L455.571 26.528C456.009 26.176 456.531 25.9093 457.139 25.728C457.758 25.536 458.403 25.44 459.075 25.44C460.238 25.44 461.134 25.7227 461.763 26.288C462.393 26.8533 462.707 27.7173 462.707 28.88V34H461.251ZM458.467 34.096C457.838 34.096 457.283 33.9893 456.803 33.776C456.334 33.5627 455.971 33.2693 455.715 32.896C455.459 32.512 455.331 32.08 455.331 31.6C455.331 31.1413 455.438 30.7253 455.651 30.352C455.875 29.9787 456.233 29.68 456.723 29.456C457.225 29.232 457.897 29.12 458.739 29.12H461.427V30.224H458.803C458.035 30.224 457.518 30.352 457.251 30.608C456.985 30.864 456.851 31.1733 456.851 31.536C456.851 31.952 457.017 32.288 457.347 32.544C457.678 32.7893 458.137 32.912 458.723 32.912C459.299 32.912 459.801 32.784 460.227 32.528C460.665 32.272 460.979 31.8987 461.171 31.408L461.475 32.464C461.273 32.9653 460.915 33.3653 460.403 33.664C459.891 33.952 459.246 34.096 458.467 34.096ZM465.55 34V25.52H467.086V34H465.55ZM466.318 23.888C466.019 23.888 465.768 23.792 465.566 23.6C465.374 23.408 465.278 23.1733 465.278 22.896C465.278 22.608 465.374 22.368 465.566 22.176C465.768 21.984 466.019 21.888 466.318 21.888C466.616 21.888 466.862 21.984 467.054 22.176C467.256 22.3573 467.358 22.5867 467.358 22.864C467.358 23.152 467.262 23.3973 467.07 23.6C466.878 23.792 466.627 23.888 466.318 23.888ZM470.019 34V22.128H471.555V34H470.019Z" fill="#112211"/>
</svg>
