<svg width="758" height="189" viewBox="0 0 758 189" fill="none" xmlns="http://www.w3.org/2000/svg">
<rect x="1" y="1" width="756" height="186.834" rx="14" stroke="#8DD3BB" stroke-width="2" stroke-linecap="round" stroke-dasharray="8 8"/>
<path d="M403 81.917C403 68.667 392.25 57.917 379 57.917C365.75 57.917 355 68.667 355 81.917C355 95.167 365.75 105.917 379 105.917C392.25 105.917 403 95.167 403 81.917Z" stroke="#8DD3BB" stroke-width="2" stroke-miterlimit="10"/>
<path d="M379 71.917V91.917M389 81.917H369" stroke="#8DD3BB" stroke-width="2" stroke-linecap="round" stroke-linejoin="round"/>
<path opacity="0.75" d="M338.536 135.917H339.796L335.98 127.517H334.792L330.988 135.917H332.224L333.148 133.817H337.612L338.536 135.917ZM333.568 132.857L335.38 128.741L337.192 132.857H333.568ZM345.67 127.013V130.517C345.142 129.833 344.35 129.497 343.45 129.497C341.59 129.497 340.234 130.793 340.234 132.737C340.234 134.681 341.59 135.989 343.45 135.989C344.386 135.989 345.202 135.629 345.718 134.909V135.917H346.822V127.013H345.67ZM343.546 134.981C342.322 134.981 341.398 134.093 341.398 132.737C341.398 131.381 342.322 130.505 343.546 130.505C344.758 130.505 345.682 131.381 345.682 132.737C345.682 134.093 344.758 134.981 343.546 134.981ZM353.85 127.013V130.517C353.322 129.833 352.53 129.497 351.63 129.497C349.77 129.497 348.414 130.793 348.414 132.737C348.414 134.681 349.77 135.989 351.63 135.989C352.566 135.989 353.382 135.629 353.898 134.909V135.917H355.002V127.013H353.85ZM351.726 134.981C350.502 134.981 349.578 134.093 349.578 132.737C349.578 131.381 350.502 130.505 351.726 130.505C352.938 130.505 353.862 131.381 353.862 132.737C353.862 134.093 352.938 134.981 351.726 134.981ZM362.721 129.497C361.701 129.497 360.753 129.785 360.093 130.313L360.573 131.177C361.065 130.757 361.833 130.493 362.589 130.493C363.729 130.493 364.293 131.057 364.293 132.029V132.257H362.469C360.573 132.257 359.913 133.097 359.913 134.117C359.913 135.221 360.825 135.989 362.265 135.989C363.261 135.989 363.969 135.653 364.353 135.077V135.917H365.445V132.077C365.445 130.337 364.461 129.497 362.721 129.497ZM362.457 135.101C361.581 135.101 361.053 134.705 361.053 134.069C361.053 133.529 361.377 133.085 362.517 133.085H364.293V133.973C364.005 134.705 363.321 135.101 362.457 135.101ZM374.195 129.497C373.187 129.497 372.371 129.869 371.903 130.517V129.557H370.799V135.917H371.951V132.641C371.951 131.261 372.743 130.529 373.967 130.529C375.059 130.529 375.683 131.141 375.683 132.389V135.917H376.835V132.257C376.835 130.385 375.743 129.497 374.195 129.497ZM384.75 132.773C384.75 130.817 383.442 129.497 381.606 129.497C379.77 129.497 378.414 130.853 378.414 132.737C378.414 134.633 379.782 135.989 381.834 135.989C382.89 135.989 383.766 135.629 384.342 134.957L383.706 134.213C383.238 134.729 382.614 134.981 381.87 134.981C380.61 134.981 379.71 134.237 379.566 133.121H384.726C384.738 133.013 384.75 132.869 384.75 132.773ZM381.606 130.469C382.722 130.469 383.526 131.225 383.646 132.293H379.566C379.686 131.213 380.502 130.469 381.606 130.469ZM394.825 129.557L392.929 134.645L391.045 129.557H390.073L388.153 134.621L386.305 129.557H385.213L387.577 135.917H388.681L390.541 131.093L392.377 135.917H393.481L395.857 129.557H394.825ZM403.02 135.989C404.16 135.989 405.108 135.509 405.612 134.621L404.736 134.069C404.328 134.693 403.704 134.981 403.008 134.981C401.76 134.981 400.824 134.117 400.824 132.737C400.824 131.381 401.76 130.505 403.008 130.505C403.704 130.505 404.328 130.793 404.736 131.417L405.612 130.853C405.108 129.965 404.16 129.497 403.02 129.497C401.064 129.497 399.66 130.841 399.66 132.737C399.66 134.633 401.064 135.989 403.02 135.989ZM409.42 129.497C408.4 129.497 407.452 129.785 406.792 130.313L407.272 131.177C407.764 130.757 408.532 130.493 409.288 130.493C410.428 130.493 410.992 131.057 410.992 132.029V132.257H409.168C407.272 132.257 406.612 133.097 406.612 134.117C406.612 135.221 407.524 135.989 408.964 135.989C409.96 135.989 410.668 135.653 411.052 135.077V135.917H412.144V132.077C412.144 130.337 411.16 129.497 409.42 129.497ZM409.156 135.101C408.28 135.101 407.752 134.705 407.752 134.069C407.752 133.529 408.076 133.085 409.216 133.085H410.992V133.973C410.704 134.705 410.02 135.101 409.156 135.101ZM415.38 130.625V129.557H414.276V135.917H415.428V132.749C415.428 131.357 416.196 130.601 417.432 130.601C417.516 130.601 417.6 130.601 417.696 130.613V129.497C416.58 129.497 415.788 129.881 415.38 130.625ZM423.905 127.013V130.517C423.377 129.833 422.585 129.497 421.685 129.497C419.825 129.497 418.469 130.793 418.469 132.737C418.469 134.681 419.825 135.989 421.685 135.989C422.621 135.989 423.437 135.629 423.953 134.909V135.917H425.057V127.013H423.905ZM421.781 134.981C420.557 134.981 419.633 134.093 419.633 132.737C419.633 131.381 420.557 130.505 421.781 130.505C422.993 130.505 423.917 131.381 423.917 132.737C423.917 134.093 422.993 134.981 421.781 134.981Z" fill="#112211"/>
</svg>
