<svg width="150" height="48" viewBox="0 0 150 48" fill="none" xmlns="http://www.w3.org/2000/svg">
<rect width="150" height="48" rx="4" fill="#8DD3BB"/>
<path d="M39.816 29.5V19.7H44.408C45.584 19.7 46.48 19.9333 47.096 20.4C47.712 20.8573 48.02 21.4733 48.02 22.248C48.02 22.7707 47.8987 23.2187 47.656 23.592C47.4133 23.956 47.0867 24.2407 46.676 24.446C46.2747 24.642 45.836 24.74 45.36 24.74L45.612 24.236C46.1627 24.236 46.6573 24.3387 47.096 24.544C47.5347 24.74 47.88 25.0293 48.132 25.412C48.3933 25.7947 48.524 26.2707 48.524 26.84C48.524 27.68 48.202 28.3333 47.558 28.8C46.914 29.2667 45.9573 29.5 44.688 29.5H39.816ZM41.636 28.072H44.576C45.2573 28.072 45.78 27.96 46.144 27.736C46.508 27.512 46.69 27.1527 46.69 26.658C46.69 26.1727 46.508 25.818 46.144 25.594C45.78 25.3607 45.2573 25.244 44.576 25.244H41.496V23.83H44.212C44.8467 23.83 45.332 23.718 45.668 23.494C46.0133 23.27 46.186 22.934 46.186 22.486C46.186 22.0287 46.0133 21.688 45.668 21.464C45.332 21.24 44.8467 21.128 44.212 21.128H41.636V28.072ZM53.6584 29.598C52.8931 29.598 52.2117 29.4347 51.6144 29.108C51.0171 28.772 50.5457 28.3147 50.2004 27.736C49.8551 27.1573 49.6824 26.4993 49.6824 25.762C49.6824 25.0153 49.8551 24.3573 50.2004 23.788C50.5457 23.2093 51.0171 22.7567 51.6144 22.43C52.2117 22.1033 52.8931 21.94 53.6584 21.94C54.4331 21.94 55.1191 22.1033 55.7164 22.43C56.3231 22.7567 56.7944 23.2047 57.1304 23.774C57.4757 24.3433 57.6484 25.006 57.6484 25.762C57.6484 26.4993 57.4757 27.1573 57.1304 27.736C56.7944 28.3147 56.3231 28.772 55.7164 29.108C55.1191 29.4347 54.4331 29.598 53.6584 29.598ZM53.6584 28.1C54.0877 28.1 54.4704 28.0067 54.8064 27.82C55.1424 27.6333 55.4037 27.3627 55.5904 27.008C55.7864 26.6533 55.8844 26.238 55.8844 25.762C55.8844 25.2767 55.7864 24.8613 55.5904 24.516C55.4037 24.1613 55.1424 23.8907 54.8064 23.704C54.4704 23.5173 54.0924 23.424 53.6724 23.424C53.2431 23.424 52.8604 23.5173 52.5244 23.704C52.1977 23.8907 51.9364 24.1613 51.7404 24.516C51.5444 24.8613 51.4464 25.2767 51.4464 25.762C51.4464 26.238 51.5444 26.6533 51.7404 27.008C51.9364 27.3627 52.1977 27.6333 52.5244 27.82C52.8604 28.0067 53.2384 28.1 53.6584 28.1ZM62.6818 29.598C61.9165 29.598 61.2352 29.4347 60.6378 29.108C60.0405 28.772 59.5692 28.3147 59.2238 27.736C58.8785 27.1573 58.7058 26.4993 58.7058 25.762C58.7058 25.0153 58.8785 24.3573 59.2238 23.788C59.5692 23.2093 60.0405 22.7567 60.6378 22.43C61.2352 22.1033 61.9165 21.94 62.6818 21.94C63.4565 21.94 64.1425 22.1033 64.7398 22.43C65.3465 22.7567 65.8178 23.2047 66.1538 23.774C66.4992 24.3433 66.6718 25.006 66.6718 25.762C66.6718 26.4993 66.4992 27.1573 66.1538 27.736C65.8178 28.3147 65.3465 28.772 64.7398 29.108C64.1425 29.4347 63.4565 29.598 62.6818 29.598ZM62.6818 28.1C63.1112 28.1 63.4938 28.0067 63.8298 27.82C64.1658 27.6333 64.4272 27.3627 64.6138 27.008C64.8098 26.6533 64.9078 26.238 64.9078 25.762C64.9078 25.2767 64.8098 24.8613 64.6138 24.516C64.4272 24.1613 64.1658 23.8907 63.8298 23.704C63.4938 23.5173 63.1158 23.424 62.6958 23.424C62.2665 23.424 61.8838 23.5173 61.5478 23.704C61.2212 23.8907 60.9598 24.1613 60.7638 24.516C60.5678 24.8613 60.4698 25.2767 60.4698 25.762C60.4698 26.238 60.5678 26.6533 60.7638 27.008C60.9598 27.3627 61.2212 27.6333 61.5478 27.82C61.8838 28.0067 62.2618 28.1 62.6818 28.1ZM69.7733 27.834L69.8153 25.636L73.7213 22.024H75.8213L72.5033 25.356L71.5793 26.126L69.7733 27.834ZM68.3453 29.5V19.112H70.0953V29.5H68.3453ZM73.9873 29.5L71.2573 26.126L72.3633 24.726L76.1153 29.5H73.9873ZM85.3568 21.94C85.9541 21.94 86.4861 22.0567 86.9528 22.29C87.4288 22.5233 87.8021 22.8827 88.0728 23.368C88.3435 23.844 88.4788 24.46 88.4788 25.216V29.5H86.7288V25.44C86.7288 24.7773 86.5701 24.2827 86.2528 23.956C85.9448 23.6293 85.5108 23.466 84.9508 23.466C84.5401 23.466 84.1761 23.55 83.8588 23.718C83.5415 23.886 83.2941 24.138 83.1168 24.474C82.9488 24.8007 82.8648 25.216 82.8648 25.72V29.5H81.1148V22.024H82.7808V24.04L82.4868 23.424C82.7481 22.948 83.1261 22.584 83.6208 22.332C84.1248 22.0707 84.7035 21.94 85.3568 21.94ZM94.0725 29.598C93.3071 29.598 92.6258 29.4347 92.0285 29.108C91.4311 28.772 90.9598 28.3147 90.6145 27.736C90.2691 27.1573 90.0965 26.4993 90.0965 25.762C90.0965 25.0153 90.2691 24.3573 90.6145 23.788C90.9598 23.2093 91.4311 22.7567 92.0285 22.43C92.6258 22.1033 93.3071 21.94 94.0725 21.94C94.8471 21.94 95.5331 22.1033 96.1305 22.43C96.7371 22.7567 97.2085 23.2047 97.5445 23.774C97.8898 24.3433 98.0625 25.006 98.0625 25.762C98.0625 26.4993 97.8898 27.1573 97.5445 27.736C97.2085 28.3147 96.7371 28.772 96.1305 29.108C95.5331 29.4347 94.8471 29.598 94.0725 29.598ZM94.0725 28.1C94.5018 28.1 94.8845 28.0067 95.2205 27.82C95.5565 27.6333 95.8178 27.3627 96.0045 27.008C96.2005 26.6533 96.2985 26.238 96.2985 25.762C96.2985 25.2767 96.2005 24.8613 96.0045 24.516C95.8178 24.1613 95.5565 23.8907 95.2205 23.704C94.8845 23.5173 94.5065 23.424 94.0865 23.424C93.6571 23.424 93.2745 23.5173 92.9385 23.704C92.6118 23.8907 92.3505 24.1613 92.1545 24.516C91.9585 24.8613 91.8605 25.2767 91.8605 25.762C91.8605 26.238 91.9585 26.6533 92.1545 27.008C92.3505 27.3627 92.6118 27.6333 92.9385 27.82C93.2745 28.0067 93.6525 28.1 94.0725 28.1ZM101.183 29.5L98.4388 22.024H100.091L102.443 28.618H101.659L104.123 22.024H105.593L107.987 28.618H107.217L109.639 22.024H111.193L108.435 29.5H106.755L104.571 23.662H105.089L102.863 29.5H101.183Z" fill="#112211"/>
</svg>
