<svg width="48" height="48" viewBox="0 0 48 48" fill="none" xmlns="http://www.w3.org/2000/svg">
<rect x="0.5" y="0.5" width="47" height="47" rx="3.5" stroke="#8DD3BB"/>
<path d="M27.1866 27.915L27.2024 27.9239L27.215 27.9107C27.4455 27.6697 27.7225 27.4778 28.0292 27.3468C28.336 27.2158 28.6661 27.1483 28.9996 27.1484C29.5168 27.1484 30.0211 27.3103 30.4417 27.6114C30.8622 27.9126 31.1779 28.3378 31.3445 28.8275C31.511 29.3172 31.5201 29.8468 31.3704 30.3419C31.2206 30.837 30.9197 31.2728 30.5097 31.5881C30.0997 31.9034 29.6012 32.0825 29.0843 32.1001C28.5673 32.1178 28.0578 31.9731 27.6273 31.6865C27.1968 31.3998 26.8668 30.9855 26.6837 30.5018C26.5005 30.0181 26.4735 29.4891 26.6062 28.9892L26.6109 28.9717L26.5951 28.9628L20.8138 25.71L20.798 25.7011L20.7854 25.7142C20.4433 26.0709 20.0023 26.3171 19.5192 26.4211C19.036 26.5251 18.5328 26.4822 18.0742 26.2978C17.6157 26.1135 17.2228 25.7961 16.9461 25.3866C16.6694 24.9771 16.5215 24.4942 16.5215 24C16.5215 23.5058 16.6694 23.0229 16.9461 22.6134C17.2228 22.2039 17.6157 21.8865 18.0742 21.7022C18.5328 21.5178 19.036 21.4749 19.5192 21.5789C20.0023 21.6829 20.4433 21.9291 20.7854 22.2858L20.798 22.2989L20.8138 22.29L26.5951 19.0372L26.6109 19.0283L26.6062 19.0108C26.4516 18.4303 26.5139 17.8134 26.7815 17.2756C27.0491 16.7378 27.5036 16.316 28.0599 16.0892C28.6161 15.8625 29.236 15.8463 29.8033 16.0438C30.3706 16.2412 30.8465 16.6387 31.1418 17.1619C31.437 17.685 31.5314 18.2978 31.4073 18.8856C31.2831 19.4733 30.9489 19.9956 30.4673 20.3546C29.9857 20.7136 29.3897 20.8848 28.791 20.8359C28.1923 20.787 27.6319 20.5216 27.2149 20.0892L27.2023 20.0762L27.1866 20.085L21.4053 23.3378L21.3895 23.3467L21.3941 23.3642C21.5051 23.7808 21.5051 24.2192 21.3941 24.6358L21.3895 24.6533L21.4053 24.6622L27.1866 27.915Z" fill="black" stroke="#112211" stroke-width="0.046875"/>
</svg>
