<svg width="360" height="80" viewBox="0 0 360 80" fill="none" xmlns="http://www.w3.org/2000/svg">
<rect width="360" height="80" rx="12" fill="white"/>
<path d="M32.7473 49.75H31.4995C31.3741 49.75 31.2508 49.7185 31.1407 49.6585C31.0306 49.5984 30.9373 49.5118 30.8694 49.4064C30.8015 49.301 30.761 49.1803 30.7518 49.0552C30.7426 48.9302 30.7648 48.8048 30.8165 48.6906L33.8381 42.0227L29.3011 41.9219L27.6464 43.9267C27.3309 44.3233 27.0792 44.5 26.437 44.5H25.597C25.464 44.5043 25.332 44.4764 25.212 44.4188C25.0921 44.3612 24.9878 44.2755 24.908 44.1691C24.7964 44.0186 24.6867 43.7636 24.7936 43.3998L25.7226 40.0717C25.7297 40.0469 25.7381 40.022 25.7475 39.9977C25.748 39.9953 25.748 39.9929 25.7475 39.9906C25.7378 39.9663 25.7295 39.9414 25.7226 39.9161L24.7926 36.5669C24.6919 36.2102 24.802 35.9608 24.9126 35.8141C24.9869 35.7155 25.0833 35.6357 25.194 35.5812C25.3047 35.5266 25.4267 35.4988 25.5501 35.5H26.437C26.9165 35.5 27.382 35.7152 27.6558 36.0625L29.2762 38.0336L33.8381 37.9661L30.8175 31.3098C30.7657 31.1957 30.7433 31.0704 30.7525 30.9453C30.7616 30.8203 30.802 30.6996 30.8698 30.5941C30.9376 30.4887 31.0308 30.402 31.1408 30.3419C31.2508 30.2817 31.3742 30.2502 31.4995 30.25H32.7609C32.9369 30.2535 33.1098 30.2967 33.2669 30.3762C33.4239 30.4557 33.561 30.5696 33.668 30.7094L39.5297 37.8344L42.2376 37.7631C42.4359 37.7523 42.9853 37.7486 43.1123 37.7486C45.7026 37.75 47.2495 38.5909 47.2495 40C47.2495 40.4434 47.0723 41.2656 45.8869 41.7887C45.187 42.0981 44.2533 42.2547 43.1114 42.2547C42.9858 42.2547 42.4378 42.2509 42.2367 42.2402L39.5292 42.168L33.653 49.293C33.5459 49.4321 33.4089 49.5454 33.2522 49.6246C33.0954 49.7037 32.9229 49.7465 32.7473 49.75Z" fill="#112211"/>
<line x1="72.5" y1="16" x2="72.5" y2="64" stroke="#D7E2EE"/>
<path d="M111.582 42.5589C110.595 41.6819 109.321 41.1974 108.001 41.1974C106.68 41.1974 105.406 41.6819 104.419 42.5589M114.444 39.6972C112.696 38.0631 110.393 37.154 108 37.154C105.607 37.154 103.304 38.0631 101.557 39.6972" stroke="#112211" stroke-width="2" stroke-linecap="round" stroke-linejoin="round"/>
<path d="M116.986 36.5363C114.513 34.3298 111.314 33.1104 108 33.1104C104.685 33.1104 101.486 34.3298 99.0127 36.5363" stroke="#112211" stroke-width="2" stroke-linecap="round" stroke-linejoin="round"/>
<path d="M108 47.5C107.703 47.5 107.413 47.412 107.167 47.2472C106.92 47.0824 106.728 46.8481 106.614 46.574C106.501 46.2999 106.471 45.9983 106.529 45.7074C106.587 45.4164 106.73 45.1491 106.939 44.9393C107.149 44.7296 107.416 44.5867 107.707 44.5288C107.998 44.4709 108.3 44.5006 108.574 44.6142C108.848 44.7277 109.082 44.92 109.247 45.1666C109.412 45.4133 109.5 45.7033 109.5 46C109.5 46.3978 109.342 46.7794 109.061 47.0607C108.779 47.342 108.398 47.5 108 47.5Z" fill="#112211"/>
<line x1="144.5" y1="16" x2="144.5" y2="64" stroke="#D7E2EE"/>
<path d="M180 41.5C180.414 41.5 180.75 41.1642 180.75 40.75C180.75 40.3358 180.414 40 180 40C179.586 40 179.25 40.3358 179.25 40.75C179.25 41.1642 179.586 41.5 180 41.5Z" fill="#112211"/>
<path d="M181.125 31.8203V31.375C181.125 31.0766 181.006 30.7905 180.795 30.5795C180.585 30.3685 180.298 30.25 180 30.25C179.702 30.25 179.415 30.3685 179.205 30.5795C178.994 30.7905 178.875 31.0766 178.875 31.375V31.8203C177.454 31.9987 176.097 32.5151 174.917 33.3264L174.422 32.8281C174.211 32.6168 173.924 32.498 173.625 32.498C173.326 32.498 173.039 32.6168 172.828 32.8281C172.617 33.0395 172.498 33.3261 172.498 33.625C172.498 33.9239 172.617 34.2105 172.828 34.4219L173.231 34.825C171.791 36.4627 170.998 38.5693 171 40.75C171 45.7127 175.037 49.75 180 49.75C184.963 49.75 189 45.7127 189 40.75C189 36.1684 185.558 32.3753 181.125 31.8203ZM180 43C179.469 42.9998 178.956 42.8121 178.55 42.4701C178.144 42.128 177.873 41.6535 177.783 41.1305C177.693 40.6075 177.791 40.0696 178.06 39.6118C178.328 39.1541 178.75 38.8059 179.25 38.6289V35.125C179.25 34.9261 179.329 34.7353 179.47 34.5947C179.61 34.454 179.801 34.375 180 34.375C180.199 34.375 180.39 34.454 180.53 34.5947C180.671 34.7353 180.75 34.9261 180.75 35.125V38.6289C181.25 38.8059 181.672 39.1541 181.94 39.6118C182.209 40.0696 182.307 40.6075 182.217 41.1305C182.127 41.6535 181.856 42.128 181.45 42.4701C181.044 42.8121 180.531 42.9998 180 43Z" fill="#112211"/>
<line x1="216.5" y1="16" x2="216.5" y2="64" stroke="#D7E2EE"/>
<g clip-path="url(#clip0_69_5686)">
<path d="M257.25 34H257.254H257.25ZM262.479 32.5H258.21L258.629 30.8284L260.425 30.2167C260.807 30.0869 261.034 29.6809 260.924 29.2928C260.896 29.1952 260.848 29.1043 260.784 29.0256C260.72 28.9469 260.64 28.882 260.55 28.835C260.46 28.788 260.362 28.7597 260.26 28.7519C260.159 28.7442 260.057 28.7571 259.961 28.7898L257.758 29.5398C257.639 29.5803 257.533 29.6499 257.448 29.7421C257.363 29.8344 257.303 29.9465 257.272 30.0681L256.664 32.5H250.521C250.117 32.5 249.771 32.8103 249.751 33.2139C249.746 33.3153 249.762 33.4167 249.797 33.5118C249.833 33.6069 249.887 33.6939 249.957 33.7674C250.027 33.8409 250.111 33.8994 250.205 33.9394C250.298 33.9794 250.398 34 250.5 34H250.629L250.676 34.4059C250.687 34.5007 250.732 34.5882 250.804 34.6516C250.875 34.7151 250.967 34.7501 251.062 34.75C252.891 34.75 254.515 35.2609 255.756 36.2275C256.445 36.7591 257.005 37.4413 257.391 38.222C257.607 38.6612 257.766 39.126 257.865 39.6053C257.885 39.6987 257.94 39.7808 258.019 39.8341C258.657 40.2667 259.127 40.9046 259.352 41.6416C259.577 42.3786 259.543 43.1705 259.256 43.8855C259.222 43.9682 259.22 44.0602 259.249 44.1447C259.415 44.6206 259.5 45.121 259.5 45.625C259.5 46.6722 259.144 47.6702 258.497 48.4352C258.13 48.8718 257.669 49.2191 257.148 49.4509C257.058 49.4907 256.987 49.5642 256.95 49.6558C256.756 50.1629 256.481 50.6355 256.136 51.0555C256.122 51.0725 256.113 51.0933 256.11 51.1154C256.107 51.1374 256.11 51.1599 256.119 51.1801C256.129 51.2003 256.144 51.2175 256.162 51.2295C256.181 51.2416 256.203 51.248 256.225 51.2481H258.532C259.097 51.2458 259.64 51.0322 260.055 50.6492C260.47 50.2663 260.727 49.7418 260.775 49.1791L262.378 34H262.5C262.602 34.0001 262.702 33.9796 262.796 33.9397C262.889 33.8997 262.973 33.8412 263.043 33.7677C263.114 33.6942 263.168 33.6072 263.204 33.512C263.239 33.4168 263.255 33.3154 263.25 33.2139C263.23 32.8103 262.882 32.5 262.479 32.5Z" fill="#112211"/>
<path d="M245.095 43C245.243 42.9993 245.389 43.0279 245.526 43.0843C245.663 43.1406 245.787 43.2235 245.892 43.3281L246.619 44.0552C246.636 44.0726 246.657 44.0864 246.68 44.0959C246.702 44.1053 246.727 44.1101 246.751 44.1101C246.776 44.1101 246.8 44.1053 246.823 44.0959C246.846 44.0864 246.867 44.0726 246.884 44.0552L247.61 43.3281C247.714 43.2235 247.838 43.1406 247.975 43.0843C248.112 43.0279 248.259 42.9993 248.407 43H257.621C257.67 43.0005 257.719 42.9913 257.765 42.9729C257.811 42.9545 257.852 42.9273 257.888 42.8928C257.923 42.8583 257.951 42.8173 257.97 42.772C257.989 42.7267 258 42.678 258 42.6287V42.625C257.999 42.1929 257.85 41.7742 257.577 41.4395C257.304 41.1048 256.923 40.8745 256.5 40.7875C256.462 39.3958 255.891 38.2309 254.835 37.4125C253.86 36.6513 252.555 36.25 251.063 36.25H247.688C244.49 36.25 242.324 38.0673 242.25 40.7875C241.827 40.8745 241.446 41.1048 241.173 41.4395C240.9 41.7742 240.751 42.1929 240.75 42.625C240.75 42.7245 240.79 42.8198 240.86 42.8902C240.93 42.9605 241.026 43 241.125 43H245.095ZM248.716 44.5C248.667 44.5 248.618 44.5096 248.572 44.5284C248.527 44.5473 248.485 44.5749 248.451 44.6097L247.413 45.648C247.237 45.8237 246.999 45.9225 246.75 45.9225C246.501 45.9225 246.263 45.8237 246.087 45.648L245.049 44.6097C245.015 44.5749 244.973 44.5473 244.928 44.5284C244.882 44.5096 244.833 44.5 244.784 44.5H241.531C241.355 44.4992 241.184 44.5608 241.049 44.6737C240.914 44.7867 240.823 44.9438 240.792 45.1173C240.764 45.2851 240.75 45.4549 240.75 45.625C240.75 47.0589 241.74 48.227 242.965 48.25C243.079 48.9587 243.355 49.5991 243.77 50.1002C244.383 50.8413 245.275 51.25 246.281 51.25H252.469C253.475 51.25 254.367 50.8413 254.98 50.0992C255.395 49.5981 255.671 48.9578 255.785 48.2491C257.01 48.227 258 47.0589 258 45.6241C258 45.454 257.986 45.2842 257.958 45.1164C257.927 44.9431 257.836 44.7861 257.701 44.6734C257.566 44.5606 257.395 44.4992 257.219 44.5H248.716Z" fill="#112211"/>
</g>
<line x1="288.5" y1="16" x2="288.5" y2="64" stroke="#D7E2EE"/>
<path d="M319.59 33.41C318.81 32.63 318.81 31.36 319.59 30.58C320.37 29.8 321.64 29.8 322.42 30.58C323.2 31.36 323.2 32.63 322.42 33.41C321.63 34.2 320.37 34.2 319.59 33.41ZM318 44V36C318 35.45 317.55 35 317 35C316.45 35 316 35.45 316 36V44C316 46.76 318.24 49 321 49H326C326.55 49 327 48.55 327 48C327 47.45 326.55 47 326 47H321C319.34 47 318 45.66 318 44ZM331.28 47.35L327.51 43.58C327.14 43.21 326.63 43 326.1 43H323.5V39.32C324.59 40.21 326.16 41.02 327.7 41.34C328.37 41.48 329 40.98 329 40.3C329 39.77 328.61 39.34 328.08 39.25C326.66 39.01 325.2 38.24 324.33 37.28L322.93 35.73C322.74 35.52 322.5 35.35 322.24 35.23C321.95 35.09 321.62 35 321.28 35H321.25C320.01 35 319 36.01 319 37.25V43C319 44.66 320.34 46 322 46H327.07L329.85 48.78C330.24 49.17 330.89 49.17 331.28 48.78C331.68 48.39 331.68 47.75 331.28 47.35Z" fill="#112211"/>
<defs>
<clipPath id="clip0_69_5686">
<rect width="24" height="24" fill="white" transform="translate(240 28)"/>
</clipPath>
</defs>
</svg>
