<svg width="180" height="48" viewBox="0 0 180 48" fill="none" xmlns="http://www.w3.org/2000/svg">
<rect width="180" height="48" rx="4" fill="#8DD3BB"/>
<path d="M30.7879 22.5813L30.7879 22.5813C30.3533 22.2591 29.8188 22.0222 29.2542 21.8944C29.1567 21.8725 29.0674 21.8233 28.9969 21.7525C28.9263 21.6817 28.8773 21.5923 28.8556 21.4948M30.7879 22.5813L19.7578 20.1612C19.7578 20.1613 19.7577 20.1613 19.7577 20.1613M30.7879 22.5813C31.566 23.1578 31.9766 23.9531 31.9766 24.8809C31.9766 25.8375 31.5955 26.6399 30.8747 27.2009C30.2377 27.6961 29.3503 27.97 28.375 27.97H24.5234V23.2572L25.6306 24.3638C25.6794 24.4125 25.7373 24.4511 25.801 24.4774C25.8648 24.5037 25.9331 24.5171 26.002 24.517C26.071 24.5168 26.1392 24.503 26.2028 24.4763C26.2664 24.4497 26.3241 24.4108 26.3726 24.3618C26.5776 24.1548 26.565 23.8179 26.3603 23.6128L26.3603 23.6128L24.37 21.6234L24.3534 21.64L24.37 21.6234C24.2719 21.5253 24.1388 21.4702 24 21.4702C23.8612 21.4702 23.7281 21.5253 23.63 21.6234L23.63 21.6234L21.6397 23.6134C21.4411 23.812 21.4221 24.1365 21.6124 24.3455C21.66 24.3979 21.7178 24.4402 21.7822 24.4696C21.8466 24.4991 21.9164 24.5152 21.9872 24.5169C22.0581 24.5186 22.1285 24.5059 22.1943 24.4796C22.2601 24.4533 22.3199 24.4139 22.37 24.3638L23.4766 23.2572V27.97H20.25C19.1216 27.97 18.0703 27.5982 17.29 26.9244C16.4732 26.2176 16.0234 25.2403 16.0234 24.1684C16.0234 23.108 16.4412 22.1797 17.2317 21.481C17.8045 20.9763 18.5553 20.6195 19.3878 20.4514C19.4678 20.4353 19.5429 20.4006 19.6072 20.3502C19.6714 20.2998 19.723 20.2351 19.7577 20.1613M30.7879 22.5813L19.7577 20.1613M28.8556 21.4948L28.8784 21.4897L28.8556 21.4948C28.8556 21.4948 28.8556 21.4948 28.8556 21.4948ZM28.8556 21.4948C28.6128 20.4132 28.0904 19.4863 27.3229 18.7842L27.3229 18.7842C26.4308 17.9667 25.2509 17.5169 24 17.5169C22.9003 17.5169 21.8852 17.8615 21.0655 18.5133M21.0655 18.5133C21.0655 18.5133 21.0655 18.5133 21.0655 18.5133L21.051 18.495L21.0655 18.5133ZM21.0655 18.5133C20.5098 18.9559 20.0625 19.5196 19.7577 20.1613M23.5234 28.0169H24.4766V30.0066C24.4766 30.133 24.4264 30.2542 24.337 30.3435C24.2476 30.4329 24.1264 30.4831 24 30.4831C23.8736 30.4831 23.7524 30.4329 23.663 30.3435C23.5736 30.2542 23.5234 30.133 23.5234 30.0066V28.0169Z" fill="black" stroke="#112211" stroke-width="0.046875"/>
<path d="M41.53 29.612C40.2233 29.612 39.206 29.2387 38.478 28.492C37.75 27.7453 37.386 26.672 37.386 25.272V19.7H38.786V25.216C38.786 27.316 39.7053 28.366 41.544 28.366C42.44 28.366 43.126 28.1093 43.602 27.596C44.078 27.0733 44.316 26.28 44.316 25.216V19.7H45.674V25.272C45.674 26.6813 45.31 27.7593 44.582 28.506C43.854 29.2433 42.8367 29.612 41.53 29.612ZM52.2822 22.01C53.0009 22.01 53.6449 22.1687 54.2142 22.486C54.7836 22.8033 55.2269 23.2467 55.5442 23.816C55.8709 24.3853 56.0342 25.0433 56.0342 25.79C56.0342 26.5367 55.8709 27.1993 55.5442 27.778C55.2269 28.3473 54.7836 28.7907 54.2142 29.108C53.6449 29.4253 53.0009 29.584 52.2822 29.584C51.7502 29.584 51.2602 29.4813 50.8122 29.276C50.3736 29.0707 50.0002 28.772 49.6922 28.38V32.216H48.3482V22.08H49.6362V23.256C49.9349 22.8453 50.3129 22.5373 50.7702 22.332C51.2276 22.1173 51.7316 22.01 52.2822 22.01ZM52.1702 28.408C52.6462 28.408 53.0709 28.3007 53.4442 28.086C53.8269 27.862 54.1256 27.554 54.3402 27.162C54.5642 26.7607 54.6762 26.3033 54.6762 25.79C54.6762 25.2767 54.5642 24.824 54.3402 24.432C54.1256 24.0307 53.8269 23.7227 53.4442 23.508C53.0709 23.2933 52.6462 23.186 52.1702 23.186C51.7036 23.186 51.2789 23.298 50.8962 23.522C50.5229 23.7367 50.2242 24.04 50.0002 24.432C49.7856 24.824 49.6782 25.2767 49.6782 25.79C49.6782 26.3033 49.7856 26.7607 50.0002 27.162C50.2149 27.554 50.5136 27.862 50.8962 28.086C51.2789 28.3007 51.7036 28.408 52.1702 28.408ZM57.8912 19.112H59.2352V29.5H57.8912V19.112ZM64.9793 29.584C64.242 29.584 63.5793 29.4207 62.9913 29.094C62.4033 28.7673 61.9413 28.3193 61.6053 27.75C61.2787 27.1713 61.1153 26.518 61.1153 25.79C61.1153 25.062 61.2787 24.4133 61.6053 23.844C61.9413 23.2653 62.4033 22.8173 62.9913 22.5C63.5793 22.1733 64.242 22.01 64.9793 22.01C65.7167 22.01 66.3747 22.1733 66.9533 22.5C67.5413 22.8173 67.9987 23.2653 68.3253 23.844C68.6613 24.4133 68.8293 25.062 68.8293 25.79C68.8293 26.518 68.6613 27.1713 68.3253 27.75C67.9987 28.3193 67.5413 28.7673 66.9533 29.094C66.3747 29.4207 65.7167 29.584 64.9793 29.584ZM64.9793 28.408C65.4553 28.408 65.88 28.3007 66.2533 28.086C66.636 27.862 66.9347 27.554 67.1493 27.162C67.364 26.7607 67.4713 26.3033 67.4713 25.79C67.4713 25.2767 67.364 24.824 67.1493 24.432C66.9347 24.0307 66.636 23.7227 66.2533 23.508C65.88 23.2933 65.4553 23.186 64.9793 23.186C64.5033 23.186 64.074 23.2933 63.6913 23.508C63.318 23.7227 63.0193 24.0307 62.7953 24.432C62.5807 24.824 62.4733 25.2767 62.4733 25.79C62.4733 26.3033 62.5807 26.7607 62.7953 27.162C63.0193 27.554 63.318 27.862 63.6913 28.086C64.074 28.3007 64.5033 28.408 64.9793 28.408ZM73.3217 22.01C74.3484 22.01 75.1324 22.262 75.6737 22.766C76.2244 23.27 76.4997 24.0213 76.4997 25.02V29.5H75.2257V28.52C75.0017 28.8653 74.6797 29.1313 74.2597 29.318C73.849 29.4953 73.359 29.584 72.7897 29.584C71.959 29.584 71.2917 29.3833 70.7877 28.982C70.293 28.5807 70.0457 28.0533 70.0457 27.4C70.0457 26.7467 70.2837 26.224 70.7597 25.832C71.2357 25.4307 71.9917 25.23 73.0277 25.23H75.1557V24.964C75.1557 24.3853 74.9877 23.942 74.6517 23.634C74.3157 23.326 73.821 23.172 73.1677 23.172C72.729 23.172 72.2997 23.2467 71.8797 23.396C71.4597 23.536 71.105 23.7273 70.8157 23.97L70.2557 22.962C70.6384 22.654 71.0957 22.4207 71.6277 22.262C72.1597 22.094 72.7244 22.01 73.3217 22.01ZM73.0137 28.548C73.527 28.548 73.9704 28.436 74.3437 28.212C74.717 27.9787 74.9877 27.652 75.1557 27.232V26.196H73.0837C71.945 26.196 71.3757 26.5787 71.3757 27.344C71.3757 27.7173 71.5204 28.0113 71.8097 28.226C72.099 28.4407 72.5004 28.548 73.0137 28.548ZM86.0279 19.112V29.5H84.7399V28.324C84.4412 28.7347 84.0632 29.0473 83.6059 29.262C83.1486 29.4767 82.6446 29.584 82.0939 29.584C81.3752 29.584 80.7312 29.4253 80.1619 29.108C79.5926 28.7907 79.1446 28.3473 78.8179 27.778C78.5006 27.1993 78.3419 26.5367 78.3419 25.79C78.3419 25.0433 78.5006 24.3853 78.8179 23.816C79.1446 23.2467 79.5926 22.8033 80.1619 22.486C80.7312 22.1687 81.3752 22.01 82.0939 22.01C82.6259 22.01 83.1159 22.1127 83.5639 22.318C84.0119 22.514 84.3852 22.808 84.6839 23.2V19.112H86.0279ZM82.2059 28.408C82.6726 28.408 83.0972 28.3007 83.4799 28.086C83.8626 27.862 84.1612 27.554 84.3759 27.162C84.5906 26.7607 84.6979 26.3033 84.6979 25.79C84.6979 25.2767 84.5906 24.824 84.3759 24.432C84.1612 24.0307 83.8626 23.7227 83.4799 23.508C83.0972 23.2933 82.6726 23.186 82.2059 23.186C81.7299 23.186 81.3006 23.2933 80.9179 23.508C80.5446 23.7227 80.2459 24.0307 80.0219 24.432C79.8072 24.824 79.6999 25.2767 79.6999 25.79C79.6999 26.3033 79.8072 26.7607 80.0219 27.162C80.2459 27.554 80.5446 27.862 80.9179 28.086C81.3006 28.3007 81.7299 28.408 82.2059 28.408ZM96.2926 22.01C97.2353 22.01 97.982 22.2853 98.5326 22.836C99.0926 23.3773 99.3726 24.1753 99.3726 25.23V29.5H98.0286V25.384C98.0286 24.6653 97.856 24.124 97.5106 23.76C97.1653 23.396 96.6706 23.214 96.0266 23.214C95.2986 23.214 94.7246 23.4287 94.3046 23.858C93.8846 24.278 93.6746 24.8847 93.6746 25.678V29.5H92.3306V22.08H93.6186V23.2C93.8893 22.8173 94.2533 22.5233 94.7106 22.318C95.1773 22.1127 95.7046 22.01 96.2926 22.01ZM108.607 25.832C108.607 25.9347 108.598 26.07 108.579 26.238H102.559C102.643 26.8913 102.928 27.4187 103.413 27.82C103.908 28.212 104.519 28.408 105.247 28.408C106.134 28.408 106.848 28.1093 107.389 27.512L108.131 28.38C107.795 28.772 107.375 29.0707 106.871 29.276C106.376 29.4813 105.821 29.584 105.205 29.584C104.421 29.584 103.726 29.4253 103.119 29.108C102.512 28.7813 102.041 28.3287 101.705 27.75C101.378 27.1713 101.215 26.518 101.215 25.79C101.215 25.0713 101.374 24.4227 101.691 23.844C102.018 23.2653 102.461 22.8173 103.021 22.5C103.59 22.1733 104.23 22.01 104.939 22.01C105.648 22.01 106.278 22.1733 106.829 22.5C107.389 22.8173 107.823 23.2653 108.131 23.844C108.448 24.4227 108.607 25.0853 108.607 25.832ZM104.939 23.144C104.295 23.144 103.754 23.34 103.315 23.732C102.886 24.124 102.634 24.6373 102.559 25.272H107.319C107.244 24.6467 106.988 24.138 106.549 23.746C106.12 23.3447 105.583 23.144 104.939 23.144ZM121.565 22.08L118.793 29.5H117.505L115.363 23.872L113.193 29.5H111.905L109.147 22.08H110.421L112.577 27.988L114.817 22.08H115.951L118.149 28.016L120.361 22.08H121.565ZM129.922 29.584C129.166 29.584 128.489 29.4207 127.892 29.094C127.304 28.7673 126.842 28.3193 126.506 27.75C126.17 27.1713 126.002 26.518 126.002 25.79C126.002 25.062 126.17 24.4133 126.506 23.844C126.842 23.2653 127.304 22.8173 127.892 22.5C128.489 22.1733 129.166 22.01 129.922 22.01C130.594 22.01 131.191 22.1453 131.714 22.416C132.246 22.6867 132.657 23.0787 132.946 23.592L131.924 24.25C131.691 23.8953 131.401 23.6293 131.056 23.452C130.711 23.2747 130.328 23.186 129.908 23.186C129.423 23.186 128.984 23.2933 128.592 23.508C128.209 23.7227 127.906 24.0307 127.682 24.432C127.467 24.824 127.36 25.2767 127.36 25.79C127.36 26.3127 127.467 26.7747 127.682 27.176C127.906 27.568 128.209 27.8713 128.592 28.086C128.984 28.3007 129.423 28.408 129.908 28.408C130.328 28.408 130.711 28.3193 131.056 28.142C131.401 27.9647 131.691 27.6987 131.924 27.344L132.946 27.988C132.657 28.5013 132.246 28.898 131.714 29.178C131.191 29.4487 130.594 29.584 129.922 29.584ZM137.755 29.584C137.017 29.584 136.355 29.4207 135.767 29.094C135.179 28.7673 134.717 28.3193 134.381 27.75C134.054 27.1713 133.891 26.518 133.891 25.79C133.891 25.062 134.054 24.4133 134.381 23.844C134.717 23.2653 135.179 22.8173 135.767 22.5C136.355 22.1733 137.017 22.01 137.755 22.01C138.492 22.01 139.15 22.1733 139.729 22.5C140.317 22.8173 140.774 23.2653 141.101 23.844C141.437 24.4133 141.605 25.062 141.605 25.79C141.605 26.518 141.437 27.1713 141.101 27.75C140.774 28.3193 140.317 28.7673 139.729 29.094C139.15 29.4207 138.492 29.584 137.755 29.584ZM137.755 28.408C138.231 28.408 138.655 28.3007 139.029 28.086C139.411 27.862 139.71 27.554 139.925 27.162C140.139 26.7607 140.247 26.3033 140.247 25.79C140.247 25.2767 140.139 24.824 139.925 24.432C139.71 24.0307 139.411 23.7227 139.029 23.508C138.655 23.2933 138.231 23.186 137.755 23.186C137.279 23.186 136.849 23.2933 136.467 23.508C136.093 23.7227 135.795 24.0307 135.571 24.432C135.356 24.824 135.249 25.2767 135.249 25.79C135.249 26.3033 135.356 26.7607 135.571 27.162C135.795 27.554 136.093 27.862 136.467 28.086C136.849 28.3007 137.279 28.408 137.755 28.408ZM149.824 22.08L146.576 29.5H145.204L141.956 22.08H143.356L145.904 28.03L148.508 22.08H149.824ZM157.58 25.832C157.58 25.9347 157.57 26.07 157.552 26.238H151.532C151.616 26.8913 151.9 27.4187 152.386 27.82C152.88 28.212 153.492 28.408 154.22 28.408C155.106 28.408 155.82 28.1093 156.362 27.512L157.104 28.38C156.768 28.772 156.348 29.0707 155.844 29.276C155.349 29.4813 154.794 29.584 154.178 29.584C153.394 29.584 152.698 29.4253 152.092 29.108C151.485 28.7813 151.014 28.3287 150.678 27.75C150.351 27.1713 150.188 26.518 150.188 25.79C150.188 25.0713 150.346 24.4227 150.664 23.844C150.99 23.2653 151.434 22.8173 151.994 22.5C152.563 22.1733 153.202 22.01 153.912 22.01C154.621 22.01 155.251 22.1733 155.802 22.5C156.362 22.8173 156.796 23.2653 157.104 23.844C157.421 24.4227 157.58 25.0853 157.58 25.832ZM153.912 23.144C153.268 23.144 152.726 23.34 152.288 23.732C151.858 24.124 151.606 24.6373 151.532 25.272H156.292C156.217 24.6467 155.96 24.138 155.522 23.746C155.092 23.3447 154.556 23.144 153.912 23.144ZM160.734 23.326C160.967 22.8967 161.313 22.57 161.77 22.346C162.227 22.122 162.783 22.01 163.436 22.01V23.312C163.361 23.3027 163.259 23.298 163.128 23.298C162.4 23.298 161.826 23.5173 161.406 23.956C160.995 24.3853 160.79 25.0013 160.79 25.804V29.5H159.446V22.08H160.734V23.326Z" fill="#112211"/>
</svg>
