<svg width="140" height="48" viewBox="0 0 140 48" fill="none" xmlns="http://www.w3.org/2000/svg">
<rect x="0.5" y="0.5" width="139" height="47" rx="3.5" stroke="#8DD3BB"/>
<path d="M46.3559 17.6799L46.3558 17.6798C46.3123 17.632 46.2595 17.5935 46.2007 17.5666C46.1419 17.5398 46.0782 17.5251 46.0135 17.5236C45.9489 17.522 45.8846 17.5336 45.8245 17.5576C45.7645 17.5816 45.7099 17.6175 45.6641 17.6632L45.6641 17.6632L45.2776 18.0478C45.2351 18.0903 45.2112 18.1479 45.2112 18.208C45.2112 18.268 45.2351 18.3256 45.2775 18.3681C45.2775 18.3681 45.2775 18.3681 45.2776 18.3681L45.6319 18.7219L45.632 18.7219C45.653 18.7431 45.678 18.7598 45.7056 18.7713C45.7331 18.7827 45.7627 18.7886 45.7925 18.7886C45.8224 18.7886 45.8519 18.7827 45.8795 18.7713C45.907 18.7598 45.9321 18.7431 45.9531 18.7219L45.9532 18.7218L46.33 18.3469L46.3301 18.3468M46.3559 17.6799L46.3732 17.6641C46.555 17.8631 46.5372 18.1731 46.3466 18.3634L46.3301 18.3468M46.3559 17.6799C46.5287 17.869 46.5124 18.1647 46.3301 18.3468M46.3559 17.6799L46.3301 18.3468M38.8547 24.4603L38.8547 24.4604C38.8233 24.4916 38.8006 24.5304 38.7885 24.5729L38.7882 24.574L38.7882 24.574L38.5274 25.3508C38.5225 25.3677 38.5221 25.3857 38.5265 25.4028C38.5308 25.42 38.5398 25.4357 38.5524 25.4483C38.5649 25.4609 38.5807 25.4698 38.5979 25.4742C38.615 25.4785 38.6329 25.4782 38.6499 25.4733L39.426 25.2125L39.4271 25.2121L39.4271 25.2121C39.4697 25.2001 39.5085 25.1773 39.5397 25.146L39.5397 25.146L45.1709 19.5042C45.1709 19.5041 45.1709 19.5041 45.1709 19.5041C45.2186 19.4558 45.2454 19.3907 45.2454 19.3228C45.2454 19.2549 45.2187 19.1898 45.1709 19.1415L38.8547 24.4603ZM38.8547 24.4603L44.496 18.8291C44.5443 18.7809 44.6098 18.7539 44.678 18.7539C44.7463 18.7539 44.8117 18.7809 44.8601 18.8291L45.1709 19.1415L38.8547 24.4603Z" fill="black" stroke="#4C4850" stroke-width="0.046875"/>
<path d="M44.0731 22.0519L40.2641 25.8684C40.1168 26.016 39.9359 26.1255 39.7369 26.1875L38.9275 26.4584C38.7354 26.5127 38.5323 26.5147 38.3392 26.4644C38.1461 26.414 37.9698 26.313 37.8287 26.1719C37.6876 26.0308 37.5866 25.8546 37.5363 25.6614C37.4859 25.4683 37.4879 25.2652 37.5422 25.0731L37.8131 24.2638C37.8749 24.0648 37.9842 23.8838 38.1316 23.7366L41.9481 19.9269C41.9831 19.8919 42.0069 19.8474 42.0166 19.7989C42.0263 19.7504 42.0214 19.7001 42.0025 19.6544C41.9836 19.6088 41.9515 19.5697 41.9104 19.5422C41.8693 19.5147 41.821 19.5 41.7716 19.5H35.25C34.7859 19.5 34.3408 19.6844 34.0126 20.0126C33.6844 20.3408 33.5 20.7859 33.5 21.25V28.75C33.5 29.2141 33.6844 29.6592 34.0126 29.9874C34.3408 30.3156 34.7859 30.5 35.25 30.5H42.75C43.2141 30.5 43.6592 30.3156 43.9874 29.9874C44.3156 29.6592 44.5 29.2141 44.5 28.75V22.2284C44.5 22.179 44.4853 22.1307 44.4578 22.0896C44.4303 22.0485 44.3912 22.0164 44.3456 21.9975C44.2999 21.9786 44.2496 21.9737 44.2011 21.9834C44.1526 21.9931 44.1081 22.0169 44.0731 22.0519Z" fill="black"/>
<path d="M57.852 29.612C56.872 29.612 55.9853 29.3973 55.192 28.968C54.408 28.5293 53.792 27.932 53.344 27.176C52.896 26.4107 52.672 25.552 52.672 24.6C52.672 23.648 52.896 22.794 53.344 22.038C53.792 21.2727 54.4127 20.6753 55.206 20.246C55.9993 19.8073 56.886 19.588 57.866 19.588C58.6313 19.588 59.3313 19.7187 59.966 19.98C60.6007 20.232 61.142 20.61 61.59 21.114L60.68 21.996C59.9427 21.2213 59.0233 20.834 57.922 20.834C57.194 20.834 56.536 20.9973 55.948 21.324C55.36 21.6507 54.898 22.1033 54.562 22.682C54.2353 23.2513 54.072 23.8907 54.072 24.6C54.072 25.3093 54.2353 25.9533 54.562 26.532C54.898 27.1013 55.36 27.5493 55.948 27.876C56.536 28.2027 57.194 28.366 57.922 28.366C59.014 28.366 59.9333 27.974 60.68 27.19L61.59 28.072C61.142 28.576 60.596 28.9587 59.952 29.22C59.3173 29.4813 58.6173 29.612 57.852 29.612ZM67.3532 22.01C68.2959 22.01 69.0425 22.2853 69.5932 22.836C70.1532 23.3773 70.4332 24.1753 70.4332 25.23V29.5H69.0892V25.384C69.0892 24.6653 68.9165 24.124 68.5712 23.76C68.2259 23.396 67.7312 23.214 67.0872 23.214C66.3592 23.214 65.7852 23.4287 65.3652 23.858C64.9452 24.278 64.7352 24.8847 64.7352 25.678V29.5H63.3912V19.112H64.7352V23.13C65.0152 22.7753 65.3792 22.5 65.8272 22.304C66.2845 22.108 66.7932 22.01 67.3532 22.01ZM75.6225 22.01C76.6492 22.01 77.4332 22.262 77.9745 22.766C78.5252 23.27 78.8005 24.0213 78.8005 25.02V29.5H77.5265V28.52C77.3025 28.8653 76.9805 29.1313 76.5605 29.318C76.1498 29.4953 75.6598 29.584 75.0905 29.584C74.2598 29.584 73.5925 29.3833 73.0885 28.982C72.5938 28.5807 72.3465 28.0533 72.3465 27.4C72.3465 26.7467 72.5845 26.224 73.0605 25.832C73.5365 25.4307 74.2925 25.23 75.3285 25.23H77.4565V24.964C77.4565 24.3853 77.2885 23.942 76.9525 23.634C76.6165 23.326 76.1218 23.172 75.4685 23.172C75.0298 23.172 74.6005 23.2467 74.1805 23.396C73.7605 23.536 73.4058 23.7273 73.1165 23.97L72.5565 22.962C72.9392 22.654 73.3965 22.4207 73.9285 22.262C74.4605 22.094 75.0252 22.01 75.6225 22.01ZM75.3145 28.548C75.8278 28.548 76.2712 28.436 76.6445 28.212C77.0178 27.9787 77.2885 27.652 77.4565 27.232V26.196H75.3845C74.2458 26.196 73.6765 26.5787 73.6765 27.344C73.6765 27.7173 73.8212 28.0113 74.1105 28.226C74.3998 28.4407 74.8012 28.548 75.3145 28.548ZM85.2497 22.01C86.1923 22.01 86.939 22.2853 87.4897 22.836C88.0497 23.3773 88.3297 24.1753 88.3297 25.23V29.5H86.9857V25.384C86.9857 24.6653 86.813 24.124 86.4677 23.76C86.1223 23.396 85.6277 23.214 84.9837 23.214C84.2557 23.214 83.6817 23.4287 83.2617 23.858C82.8417 24.278 82.6317 24.8847 82.6317 25.678V29.5H81.2877V22.08H82.5757V23.2C82.8463 22.8173 83.2103 22.5233 83.6677 22.318C84.1343 22.1127 84.6617 22.01 85.2497 22.01ZM97.956 22.08V28.492C97.956 29.7893 97.634 30.746 96.99 31.362C96.346 31.9873 95.3847 32.3 94.106 32.3C93.406 32.3 92.7387 32.202 92.104 32.006C91.4693 31.8193 90.956 31.5487 90.564 31.194L91.208 30.158C91.5533 30.4567 91.978 30.69 92.482 30.858C92.9953 31.0353 93.5227 31.124 94.064 31.124C94.932 31.124 95.5713 30.9187 95.982 30.508C96.402 30.0973 96.612 29.472 96.612 28.632V28.044C96.2947 28.4267 95.9027 28.716 95.436 28.912C94.9787 29.0987 94.4793 29.192 93.938 29.192C93.2287 29.192 92.5847 29.0427 92.006 28.744C91.4367 28.436 90.9887 28.0113 90.662 27.47C90.3353 26.9193 90.172 26.294 90.172 25.594C90.172 24.894 90.3353 24.2733 90.662 23.732C90.9887 23.1813 91.4367 22.7567 92.006 22.458C92.5847 22.1593 93.2287 22.01 93.938 22.01C94.498 22.01 95.016 22.1127 95.492 22.318C95.9773 22.5233 96.374 22.8267 96.682 23.228V22.08H97.956ZM94.092 28.016C94.5773 28.016 95.0113 27.9133 95.394 27.708C95.786 27.5027 96.0893 27.218 96.304 26.854C96.528 26.4807 96.64 26.0607 96.64 25.594C96.64 24.8753 96.402 24.2967 95.926 23.858C95.45 23.41 94.8387 23.186 94.092 23.186C93.336 23.186 92.72 23.41 92.244 23.858C91.768 24.2967 91.53 24.8753 91.53 25.594C91.53 26.0607 91.6373 26.4807 91.852 26.854C92.076 27.218 92.3793 27.5027 92.762 27.708C93.154 27.9133 93.5973 28.016 94.092 28.016ZM107.23 25.832C107.23 25.9347 107.221 26.07 107.202 26.238H101.182C101.266 26.8913 101.551 27.4187 102.036 27.82C102.531 28.212 103.142 28.408 103.87 28.408C104.757 28.408 105.471 28.1093 106.012 27.512L106.754 28.38C106.418 28.772 105.998 29.0707 105.494 29.276C104.999 29.4813 104.444 29.584 103.828 29.584C103.044 29.584 102.349 29.4253 101.742 29.108C101.135 28.7813 100.664 28.3287 100.328 27.75C100.001 27.1713 99.838 26.518 99.838 25.79C99.838 25.0713 99.9967 24.4227 100.314 23.844C100.641 23.2653 101.084 22.8173 101.644 22.5C102.213 22.1733 102.853 22.01 103.562 22.01C104.271 22.01 104.901 22.1733 105.452 22.5C106.012 22.8173 106.446 23.2653 106.754 23.844C107.071 24.4227 107.23 25.0853 107.23 25.832ZM103.562 23.144C102.918 23.144 102.377 23.34 101.938 23.732C101.509 24.124 101.257 24.6373 101.182 25.272H105.942C105.867 24.6467 105.611 24.138 105.172 23.746C104.743 23.3447 104.206 23.144 103.562 23.144Z" fill="#112211"/>
</svg>
