<svg width="144" height="48" viewBox="0 0 144 48" fill="none" xmlns="http://www.w3.org/2000/svg">
<rect width="144" height="48" rx="4" fill="#8DD3BB"/>
<path d="M25.4686 30.9999H25.4998C25.6543 31.0008 25.8054 30.9552 25.9336 30.8691C26.0618 30.7829 26.1611 30.6602 26.2186 30.5168L26.1967 30.5085L26.1967 30.5083C26.141 30.6472 26.0447 30.7661 25.9205 30.8496C25.7962 30.9331 25.6497 30.9774 25.5 30.9765H25.4998H25.4691M25.4686 30.9999L25.4696 30.9765C25.4695 30.9765 25.4693 30.9765 25.4691 30.9765M25.4686 30.9999V30.9765H25.4691M25.4686 30.9999L25.4691 30.9765M25.4691 30.9765C25.1738 30.963 24.9287 30.7657 24.8317 30.4845L24.8315 30.484C24.8295 30.4786 24.8278 30.4734 24.826 30.4676L24.8262 30.4675L24.8251 30.4651L22.9928 26.1732C22.969 26.0938 22.9662 26.0095 22.9849 25.9287C23.0036 25.8475 23.0434 25.7726 23.1001 25.7115L25.4691 30.9765ZM30.7645 17.2368C30.8636 17.3363 30.9317 17.4623 30.9607 17.5997C30.9896 17.7371 30.9781 17.8799 30.9276 18.0109L30.9276 18.011L26.1968 30.5081L23.1001 25.7115L29.5164 18.829C29.5165 18.8289 29.5166 18.8288 29.5167 18.8287C29.5393 18.8061 29.5572 18.7792 29.5694 18.7497C29.5817 18.7201 29.588 18.6883 29.588 18.6562C29.588 18.6241 29.5817 18.5923 29.5694 18.5627C29.5571 18.533 29.5391 18.5061 29.5164 18.4834C29.4937 18.4607 29.4668 18.4427 29.4371 18.4304C29.4075 18.4181 29.3757 18.4118 29.3436 18.4118C29.3115 18.4118 29.2797 18.4181 29.25 18.4304C29.2205 18.4426 29.1937 18.4605 29.1711 18.4831C29.171 18.4832 29.1709 18.4833 29.1708 18.4834L22.2851 24.8993C22.2241 24.9561 22.1492 24.9958 22.068 25.0146C21.9872 25.0332 21.9029 25.0305 21.8235 25.0066L17.534 23.1749L17.5341 23.1748L17.5319 23.1742L17.5195 23.1702C17.5194 23.1702 17.5193 23.1702 17.5193 23.1702C17.3775 23.1227 17.2538 23.0326 17.1651 22.9122C17.0763 22.7917 17.0269 22.6469 17.0236 22.4973C17.0203 22.3477 17.0632 22.2008 17.1466 22.0765C17.2287 21.954 17.3462 21.8595 17.4833 21.8054V21.8062L17.4916 21.8031L29.9925 17.0715L29.9925 17.0715C30.1235 17.0217 30.266 17.0109 30.4029 17.0402C30.5399 17.0695 30.6654 17.1378 30.7645 17.2368ZM30.7645 17.2368C30.7645 17.2368 30.7645 17.2368 30.7645 17.2368L30.7811 17.2203L30.7645 17.2368Z" fill="black" stroke="#112211" stroke-width="0.046875"/>
<path d="M40.326 29.612C39.5887 29.612 38.8747 29.5 38.184 29.276C37.5027 29.0427 36.966 28.744 36.574 28.38L37.092 27.288C37.4653 27.624 37.9413 27.8993 38.52 28.114C39.108 28.3193 39.71 28.422 40.326 28.422C41.138 28.422 41.7447 28.2867 42.146 28.016C42.5473 27.736 42.748 27.3673 42.748 26.91C42.748 26.574 42.636 26.3033 42.412 26.098C42.1973 25.8833 41.9267 25.72 41.6 25.608C41.2827 25.496 40.83 25.37 40.242 25.23C39.5047 25.0527 38.9073 24.8753 38.45 24.698C38.002 24.5207 37.6147 24.25 37.288 23.886C36.9707 23.5127 36.812 23.0133 36.812 22.388C36.812 21.8653 36.9473 21.394 37.218 20.974C37.498 20.554 37.918 20.218 38.478 19.966C39.038 19.714 39.7333 19.588 40.564 19.588C41.1427 19.588 41.712 19.6627 42.272 19.812C42.832 19.9613 43.3127 20.176 43.714 20.456L43.252 21.576C42.8413 21.3147 42.4027 21.1187 41.936 20.988C41.4693 20.848 41.012 20.778 40.564 20.778C39.7707 20.778 39.1733 20.9227 38.772 21.212C38.38 21.5013 38.184 21.8747 38.184 22.332C38.184 22.668 38.296 22.9433 38.52 23.158C38.744 23.3633 39.0193 23.5267 39.346 23.648C39.682 23.76 40.1347 23.8813 40.704 24.012C41.4413 24.1893 42.034 24.3667 42.482 24.544C42.93 24.7213 43.3127 24.992 43.63 25.356C43.9567 25.72 44.12 26.21 44.12 26.826C44.12 27.3393 43.98 27.8107 43.7 28.24C43.42 28.66 42.9953 28.996 42.426 29.248C41.8567 29.4907 41.1567 29.612 40.326 29.612ZM49.9313 22.01C50.874 22.01 51.6206 22.2853 52.1713 22.836C52.7313 23.3773 53.0113 24.1753 53.0113 25.23V29.5H51.6673V25.384C51.6673 24.6653 51.4946 24.124 51.1493 23.76C50.804 23.396 50.3093 23.214 49.6653 23.214C48.9373 23.214 48.3633 23.4287 47.9433 23.858C47.5233 24.278 47.3133 24.8847 47.3133 25.678V29.5H45.9693V19.112H47.3133V23.13C47.5933 22.7753 47.9573 22.5 48.4053 22.304C48.8626 22.108 49.3713 22.01 49.9313 22.01ZM58.7176 29.584C57.9803 29.584 57.3176 29.4207 56.7296 29.094C56.1416 28.7673 55.6796 28.3193 55.3436 27.75C55.017 27.1713 54.8536 26.518 54.8536 25.79C54.8536 25.062 55.017 24.4133 55.3436 23.844C55.6796 23.2653 56.1416 22.8173 56.7296 22.5C57.3176 22.1733 57.9803 22.01 58.7176 22.01C59.455 22.01 60.113 22.1733 60.6916 22.5C61.2796 22.8173 61.737 23.2653 62.0636 23.844C62.3996 24.4133 62.5676 25.062 62.5676 25.79C62.5676 26.518 62.3996 27.1713 62.0636 27.75C61.737 28.3193 61.2796 28.7673 60.6916 29.094C60.113 29.4207 59.455 29.584 58.7176 29.584ZM58.7176 28.408C59.1936 28.408 59.6183 28.3007 59.9916 28.086C60.3743 27.862 60.673 27.554 60.8876 27.162C61.1023 26.7607 61.2096 26.3033 61.2096 25.79C61.2096 25.2767 61.1023 24.824 60.8876 24.432C60.673 24.0307 60.3743 23.7227 59.9916 23.508C59.6183 23.2933 59.1936 23.186 58.7176 23.186C58.2416 23.186 57.8123 23.2933 57.4296 23.508C57.0563 23.7227 56.7576 24.0307 56.5336 24.432C56.319 24.824 56.2116 25.2767 56.2116 25.79C56.2116 26.3033 56.319 26.7607 56.5336 27.162C56.7576 27.554 57.0563 27.862 57.4296 28.086C57.8123 28.3007 58.2416 28.408 58.7176 28.408ZM75.4493 22.08L72.6773 29.5H71.3893L69.2473 23.872L67.0773 29.5H65.7893L63.0313 22.08H64.3053L66.4613 27.988L68.7013 22.08H69.8353L72.0333 28.016L74.2453 22.08H75.4493ZM82.1688 20.918V24.334H87.0828V25.538H82.1688V29.5H80.7688V19.7H87.6848V20.918H82.1688ZM89.3228 22.08H90.6668V29.5H89.3228V22.08ZM89.9948 20.652C89.7335 20.652 89.5142 20.568 89.3368 20.4C89.1688 20.232 89.0848 20.0267 89.0848 19.784C89.0848 19.5413 89.1688 19.336 89.3368 19.168C89.5142 18.9907 89.7335 18.902 89.9948 18.902C90.2562 18.902 90.4708 18.986 90.6388 19.154C90.8162 19.3127 90.9048 19.5133 90.9048 19.756C90.9048 20.008 90.8162 20.2227 90.6388 20.4C90.4708 20.568 90.2562 20.652 89.9948 20.652ZM93.233 19.112H94.577V29.5H93.233V19.112ZM104.241 22.08V28.492C104.241 29.7893 103.919 30.746 103.275 31.362C102.631 31.9873 101.67 32.3 100.391 32.3C99.6911 32.3 99.0238 32.202 98.3891 32.006C97.7545 31.8193 97.2411 31.5487 96.8491 31.194L97.4931 30.158C97.8385 30.4567 98.2631 30.69 98.7671 30.858C99.2805 31.0353 99.8078 31.124 100.349 31.124C101.217 31.124 101.856 30.9187 102.267 30.508C102.687 30.0973 102.897 29.472 102.897 28.632V28.044C102.58 28.4267 102.188 28.716 101.721 28.912C101.264 29.0987 100.764 29.192 100.223 29.192C99.5138 29.192 98.8698 29.0427 98.2911 28.744C97.7218 28.436 97.2738 28.0113 96.9471 27.47C96.6205 26.9193 96.4571 26.294 96.4571 25.594C96.4571 24.894 96.6205 24.2733 96.9471 23.732C97.2738 23.1813 97.7218 22.7567 98.2911 22.458C98.8698 22.1593 99.5138 22.01 100.223 22.01C100.783 22.01 101.301 22.1127 101.777 22.318C102.262 22.5233 102.659 22.8267 102.967 23.228V22.08H104.241ZM100.377 28.016C100.862 28.016 101.296 27.9133 101.679 27.708C102.071 27.5027 102.374 27.218 102.589 26.854C102.813 26.4807 102.925 26.0607 102.925 25.594C102.925 24.8753 102.687 24.2967 102.211 23.858C101.735 23.41 101.124 23.186 100.377 23.186C99.6211 23.186 99.0051 23.41 98.5291 23.858C98.0531 24.2967 97.8151 24.8753 97.8151 25.594C97.8151 26.0607 97.9225 26.4807 98.1371 26.854C98.3611 27.218 98.6645 27.5027 99.0471 27.708C99.4391 27.9133 99.8825 28.016 100.377 28.016ZM110.771 22.01C111.714 22.01 112.46 22.2853 113.011 22.836C113.571 23.3773 113.851 24.1753 113.851 25.23V29.5H112.507V25.384C112.507 24.6653 112.334 24.124 111.989 23.76C111.644 23.396 111.149 23.214 110.505 23.214C109.777 23.214 109.203 23.4287 108.783 23.858C108.363 24.278 108.153 24.8847 108.153 25.678V29.5H106.809V19.112H108.153V23.13C108.433 22.7753 108.797 22.5 109.245 22.304C109.702 22.108 110.211 22.01 110.771 22.01ZM120.51 29.066C120.314 29.234 120.072 29.3647 119.782 29.458C119.493 29.542 119.194 29.584 118.886 29.584C118.14 29.584 117.561 29.3833 117.15 28.982C116.74 28.5807 116.534 28.0067 116.534 27.26V23.186H115.274V22.08H116.534V20.456H117.878V22.08H120.006V23.186H117.878V27.204C117.878 27.6053 117.976 27.9133 118.172 28.128C118.378 28.3427 118.667 28.45 119.04 28.45C119.451 28.45 119.801 28.3333 120.09 28.1L120.51 29.066ZM124.263 29.584C123.657 29.584 123.073 29.5047 122.513 29.346C121.953 29.178 121.515 28.968 121.197 28.716L121.757 27.652C122.084 27.8853 122.481 28.072 122.947 28.212C123.414 28.352 123.885 28.422 124.361 28.422C125.537 28.422 126.125 28.086 126.125 27.414C126.125 27.19 126.046 27.0127 125.887 26.882C125.729 26.7513 125.528 26.658 125.285 26.602C125.052 26.5367 124.716 26.4667 124.277 26.392C123.68 26.2987 123.19 26.1913 122.807 26.07C122.434 25.9487 122.112 25.7433 121.841 25.454C121.571 25.1647 121.435 24.7587 121.435 24.236C121.435 23.564 121.715 23.0273 122.275 22.626C122.835 22.2153 123.587 22.01 124.529 22.01C125.024 22.01 125.519 22.0707 126.013 22.192C126.508 22.3133 126.914 22.4767 127.231 22.682L126.657 23.746C126.051 23.354 125.337 23.158 124.515 23.158C123.946 23.158 123.512 23.2513 123.213 23.438C122.915 23.6247 122.765 23.872 122.765 24.18C122.765 24.4227 122.849 24.614 123.017 24.754C123.185 24.894 123.391 24.9967 123.633 25.062C123.885 25.1273 124.235 25.202 124.683 25.286C125.281 25.3887 125.761 25.5007 126.125 25.622C126.499 25.734 126.816 25.93 127.077 26.21C127.339 26.49 127.469 26.882 127.469 27.386C127.469 28.058 127.18 28.5947 126.601 28.996C126.032 29.388 125.253 29.584 124.263 29.584Z" fill="#112211"/>
</svg>
