<svg width="142" height="48" viewBox="0 0 142 48" fill="none" xmlns="http://www.w3.org/2000/svg">
<path d="M8 19.5V28.5V19.5ZM12.5 24H3.5H12.5Z" fill="#112211"/>
<path d="M8 19.5V28.5M12.5 24H3.5" stroke="#112211" stroke-width="1.5" stroke-linecap="round" stroke-linejoin="round"/>
<path d="M19.986 29.5L24.424 19.7H25.81L30.262 29.5H28.792L24.83 20.484H25.39L21.428 29.5H19.986ZM21.876 27.05L22.254 25.93H27.77L28.176 27.05H21.876ZM34.5255 29.584C33.8069 29.584 33.1629 29.4253 32.5935 29.108C32.0335 28.7907 31.5902 28.3473 31.2635 27.778C30.9369 27.2087 30.7735 26.546 30.7735 25.79C30.7735 25.034 30.9369 24.376 31.2635 23.816C31.5902 23.2467 32.0335 22.8033 32.5935 22.486C33.1629 22.1687 33.8069 22.01 34.5255 22.01C35.1509 22.01 35.7155 22.15 36.2195 22.43C36.7235 22.71 37.1249 23.13 37.4235 23.69C37.7315 24.25 37.8855 24.95 37.8855 25.79C37.8855 26.63 37.7362 27.33 37.4375 27.89C37.1482 28.45 36.7515 28.8747 36.2475 29.164C35.7435 29.444 35.1695 29.584 34.5255 29.584ZM34.6375 28.408C35.1042 28.408 35.5242 28.3007 35.8975 28.086C36.2802 27.8713 36.5789 27.568 36.7935 27.176C37.0175 26.7747 37.1295 26.3127 37.1295 25.79C37.1295 25.258 37.0175 24.8007 36.7935 24.418C36.5789 24.026 36.2802 23.7227 35.8975 23.508C35.5242 23.2933 35.1042 23.186 34.6375 23.186C34.1615 23.186 33.7369 23.2933 33.3635 23.508C32.9902 23.7227 32.6915 24.026 32.4675 24.418C32.2435 24.8007 32.1315 25.258 32.1315 25.79C32.1315 26.3127 32.2435 26.7747 32.4675 27.176C32.6915 27.568 32.9902 27.8713 33.3635 28.086C33.7369 28.3007 34.1615 28.408 34.6375 28.408ZM37.1715 29.5V27.498L37.2555 25.776L37.1155 24.054V19.112H38.4595V29.5H37.1715ZM44.0685 29.584C43.3498 29.584 42.7058 29.4253 42.1365 29.108C41.5765 28.7907 41.1332 28.3473 40.8065 27.778C40.4798 27.2087 40.3165 26.546 40.3165 25.79C40.3165 25.034 40.4798 24.376 40.8065 23.816C41.1332 23.2467 41.5765 22.8033 42.1365 22.486C42.7058 22.1687 43.3498 22.01 44.0685 22.01C44.6938 22.01 45.2585 22.15 45.7625 22.43C46.2665 22.71 46.6678 23.13 46.9665 23.69C47.2745 24.25 47.4285 24.95 47.4285 25.79C47.4285 26.63 47.2792 27.33 46.9805 27.89C46.6912 28.45 46.2945 28.8747 45.7905 29.164C45.2865 29.444 44.7125 29.584 44.0685 29.584ZM44.1805 28.408C44.6472 28.408 45.0672 28.3007 45.4405 28.086C45.8232 27.8713 46.1218 27.568 46.3365 27.176C46.5605 26.7747 46.6725 26.3127 46.6725 25.79C46.6725 25.258 46.5605 24.8007 46.3365 24.418C46.1218 24.026 45.8232 23.7227 45.4405 23.508C45.0672 23.2933 44.6472 23.186 44.1805 23.186C43.7045 23.186 43.2798 23.2933 42.9065 23.508C42.5332 23.7227 42.2345 24.026 42.0105 24.418C41.7865 24.8007 41.6745 25.258 41.6745 25.79C41.6745 26.3127 41.7865 26.7747 42.0105 27.176C42.2345 27.568 42.5332 27.8713 42.9065 28.086C43.2798 28.3007 43.7045 28.408 44.1805 28.408ZM46.7145 29.5V27.498L46.7985 25.776L46.6585 24.054V19.112H48.0025V29.5H46.7145ZM54.5013 29.5V19.7H58.3233C59.1819 19.7 59.9146 19.8353 60.5213 20.106C61.1279 20.3767 61.5946 20.7687 61.9213 21.282C62.2479 21.7953 62.4113 22.4067 62.4113 23.116C62.4113 23.8253 62.2479 24.4367 61.9213 24.95C61.5946 25.454 61.1279 25.846 60.5213 26.126C59.9146 26.3967 59.1819 26.532 58.3233 26.532H55.2713L55.9013 25.874V29.5H54.5013ZM55.9013 26.014L55.2713 25.314H58.2813C59.1773 25.314 59.8539 25.1227 60.3113 24.74C60.7779 24.3573 61.0113 23.816 61.0113 23.116C61.0113 22.416 60.7779 21.8747 60.3113 21.492C59.8539 21.1093 59.1773 20.918 58.2813 20.918H55.2713L55.9013 20.218V26.014ZM64.1353 29.5V22.08H65.4233V24.096L65.2973 23.592C65.5027 23.0787 65.848 22.6867 66.3333 22.416C66.8187 22.1453 67.416 22.01 68.1253 22.01V23.312C68.0693 23.3027 68.0133 23.298 67.9573 23.298C67.9107 23.298 67.864 23.298 67.8173 23.298C67.0987 23.298 66.5293 23.5127 66.1093 23.942C65.6893 24.3713 65.4793 24.992 65.4793 25.804V29.5H64.1353ZM72.8915 29.584C72.1448 29.584 71.4821 29.4207 70.9035 29.094C70.3248 28.7673 69.8675 28.3193 69.5315 27.75C69.1955 27.1713 69.0275 26.518 69.0275 25.79C69.0275 25.0527 69.1955 24.3993 69.5315 23.83C69.8675 23.2607 70.3248 22.8173 70.9035 22.5C71.4821 22.1733 72.1448 22.01 72.8915 22.01C73.6288 22.01 74.2868 22.1733 74.8655 22.5C75.4535 22.8173 75.9108 23.2607 76.2375 23.83C76.5735 24.39 76.7415 25.0433 76.7415 25.79C76.7415 26.5273 76.5735 27.1807 76.2375 27.75C75.9108 28.3193 75.4535 28.7673 74.8655 29.094C74.2868 29.4207 73.6288 29.584 72.8915 29.584ZM72.8915 28.408C73.3675 28.408 73.7921 28.3007 74.1655 28.086C74.5481 27.8713 74.8468 27.568 75.0615 27.176C75.2761 26.7747 75.3835 26.3127 75.3835 25.79C75.3835 25.258 75.2761 24.8007 75.0615 24.418C74.8468 24.026 74.5481 23.7227 74.1655 23.508C73.7921 23.2933 73.3675 23.186 72.8915 23.186C72.4155 23.186 71.9908 23.2933 71.6175 23.508C71.2441 23.7227 70.9455 24.026 70.7215 24.418C70.4975 24.8007 70.3855 25.258 70.3855 25.79C70.3855 26.3127 70.4975 26.7747 70.7215 27.176C70.9455 27.568 71.2441 27.8713 71.6175 28.086C71.9908 28.3007 72.4155 28.408 72.8915 28.408ZM87.8822 22.01C88.4795 22.01 89.0068 22.1267 89.4642 22.36C89.9215 22.5933 90.2762 22.948 90.5282 23.424C90.7895 23.9 90.9202 24.502 90.9202 25.23V29.5H89.5762V25.384C89.5762 24.6653 89.4082 24.124 89.0722 23.76C88.7362 23.396 88.2648 23.214 87.6582 23.214C87.2102 23.214 86.8182 23.3073 86.4822 23.494C86.1462 23.6807 85.8848 23.956 85.6982 24.32C85.5208 24.684 85.4322 25.1367 85.4322 25.678V29.5H84.0882V25.384C84.0882 24.6653 83.9202 24.124 83.5842 23.76C83.2575 23.396 82.7862 23.214 82.1702 23.214C81.7315 23.214 81.3442 23.3073 81.0082 23.494C80.6722 23.6807 80.4108 23.956 80.2242 24.32C80.0375 24.684 79.9442 25.1367 79.9442 25.678V29.5H78.6002V22.08H79.8882V24.054L79.6782 23.55C79.9115 23.0647 80.2708 22.6867 80.7562 22.416C81.2415 22.1453 81.8062 22.01 82.4502 22.01C83.1595 22.01 83.7708 22.1873 84.2842 22.542C84.7975 22.8873 85.1335 23.4147 85.2922 24.124L84.7462 23.9C84.9702 23.3307 85.3622 22.8733 85.9222 22.528C86.4822 22.1827 87.1355 22.01 87.8822 22.01ZM96.5711 29.584C95.8245 29.584 95.1618 29.4207 94.5831 29.094C94.0045 28.7673 93.5471 28.3193 93.2111 27.75C92.8751 27.1713 92.7071 26.518 92.7071 25.79C92.7071 25.0527 92.8751 24.3993 93.2111 23.83C93.5471 23.2607 94.0045 22.8173 94.5831 22.5C95.1618 22.1733 95.8245 22.01 96.5711 22.01C97.3085 22.01 97.9665 22.1733 98.5451 22.5C99.1331 22.8173 99.5905 23.2607 99.9171 23.83C100.253 24.39 100.421 25.0433 100.421 25.79C100.421 26.5273 100.253 27.1807 99.9171 27.75C99.5905 28.3193 99.1331 28.7673 98.5451 29.094C97.9665 29.4207 97.3085 29.584 96.5711 29.584ZM96.5711 28.408C97.0471 28.408 97.4718 28.3007 97.8451 28.086C98.2278 27.8713 98.5265 27.568 98.7411 27.176C98.9558 26.7747 99.0631 26.3127 99.0631 25.79C99.0631 25.258 98.9558 24.8007 98.7411 24.418C98.5265 24.026 98.2278 23.7227 97.8451 23.508C97.4718 23.2933 97.0471 23.186 96.5711 23.186C96.0951 23.186 95.6705 23.2933 95.2971 23.508C94.9238 23.7227 94.6251 24.026 94.4011 24.418C94.1771 24.8007 94.0651 25.258 94.0651 25.79C94.0651 26.3127 94.1771 26.7747 94.4011 27.176C94.6251 27.568 94.9238 27.8713 95.2971 28.086C95.6705 28.3007 96.0951 28.408 96.5711 28.408ZM110.618 29.612C109.871 29.612 109.18 29.4907 108.546 29.248C107.92 28.996 107.374 28.646 106.908 28.198C106.45 27.7407 106.091 27.2087 105.83 26.602C105.568 25.9953 105.438 25.328 105.438 24.6C105.438 23.872 105.568 23.2047 105.83 22.598C106.091 21.9913 106.455 21.464 106.922 21.016C107.388 20.5587 107.934 20.2087 108.56 19.966C109.194 19.714 109.885 19.588 110.632 19.588C111.388 19.588 112.083 19.7187 112.718 19.98C113.362 20.232 113.908 20.61 114.356 21.114L113.446 21.996C113.072 21.604 112.652 21.3147 112.186 21.128C111.719 20.932 111.22 20.834 110.688 20.834C110.137 20.834 109.624 20.9273 109.148 21.114C108.681 21.3007 108.275 21.562 107.93 21.898C107.584 22.234 107.314 22.6353 107.118 23.102C106.931 23.5593 106.838 24.0587 106.838 24.6C106.838 25.1413 106.931 25.6453 107.118 26.112C107.314 26.5693 107.584 26.966 107.93 27.302C108.275 27.638 108.681 27.8993 109.148 28.086C109.624 28.2727 110.137 28.366 110.688 28.366C111.22 28.366 111.719 28.2727 112.186 28.086C112.652 27.89 113.072 27.5913 113.446 27.19L114.356 28.072C113.908 28.576 113.362 28.9587 112.718 29.22C112.083 29.4813 111.383 29.612 110.618 29.612ZM119.02 29.584C118.274 29.584 117.611 29.4207 117.032 29.094C116.454 28.7673 115.996 28.3193 115.66 27.75C115.324 27.1713 115.156 26.518 115.156 25.79C115.156 25.0527 115.324 24.3993 115.66 23.83C115.996 23.2607 116.454 22.8173 117.032 22.5C117.611 22.1733 118.274 22.01 119.02 22.01C119.758 22.01 120.416 22.1733 120.994 22.5C121.582 22.8173 122.04 23.2607 122.366 23.83C122.702 24.39 122.87 25.0433 122.87 25.79C122.87 26.5273 122.702 27.1807 122.366 27.75C122.04 28.3193 121.582 28.7673 120.994 29.094C120.416 29.4207 119.758 29.584 119.02 29.584ZM119.02 28.408C119.496 28.408 119.921 28.3007 120.294 28.086C120.677 27.8713 120.976 27.568 121.19 27.176C121.405 26.7747 121.512 26.3127 121.512 25.79C121.512 25.258 121.405 24.8007 121.19 24.418C120.976 24.026 120.677 23.7227 120.294 23.508C119.921 23.2933 119.496 23.186 119.02 23.186C118.544 23.186 118.12 23.2933 117.746 23.508C117.373 23.7227 117.074 24.026 116.85 24.418C116.626 24.8007 116.514 25.258 116.514 25.79C116.514 26.3127 116.626 26.7747 116.85 27.176C117.074 27.568 117.373 27.8713 117.746 28.086C118.12 28.3007 118.544 28.408 119.02 28.408ZM127.795 29.584C127.076 29.584 126.432 29.4253 125.863 29.108C125.303 28.7907 124.86 28.3473 124.533 27.778C124.206 27.2087 124.043 26.546 124.043 25.79C124.043 25.034 124.206 24.376 124.533 23.816C124.86 23.2467 125.303 22.8033 125.863 22.486C126.432 22.1687 127.076 22.01 127.795 22.01C128.42 22.01 128.985 22.15 129.489 22.43C129.993 22.71 130.394 23.13 130.693 23.69C131.001 24.25 131.155 24.95 131.155 25.79C131.155 26.63 131.006 27.33 130.707 27.89C130.418 28.45 130.021 28.8747 129.517 29.164C129.013 29.444 128.439 29.584 127.795 29.584ZM127.907 28.408C128.374 28.408 128.794 28.3007 129.167 28.086C129.55 27.8713 129.848 27.568 130.063 27.176C130.287 26.7747 130.399 26.3127 130.399 25.79C130.399 25.258 130.287 24.8007 130.063 24.418C129.848 24.026 129.55 23.7227 129.167 23.508C128.794 23.2933 128.374 23.186 127.907 23.186C127.431 23.186 127.006 23.2933 126.633 23.508C126.26 23.7227 125.961 24.026 125.737 24.418C125.513 24.8007 125.401 25.258 125.401 25.79C125.401 26.3127 125.513 26.7747 125.737 27.176C125.961 27.568 126.26 27.8713 126.633 28.086C127.006 28.3007 127.431 28.408 127.907 28.408ZM130.441 29.5V27.498L130.525 25.776L130.385 24.054V19.112H131.729V29.5H130.441ZM137.576 29.584C136.783 29.584 136.083 29.4207 135.476 29.094C134.879 28.7673 134.412 28.3193 134.076 27.75C133.749 27.1807 133.586 26.5273 133.586 25.79C133.586 25.0527 133.745 24.3993 134.062 23.83C134.389 23.2607 134.832 22.8173 135.392 22.5C135.961 22.1733 136.601 22.01 137.31 22.01C138.029 22.01 138.663 22.1687 139.214 22.486C139.765 22.8033 140.194 23.2513 140.502 23.83C140.819 24.3993 140.978 25.0667 140.978 25.832C140.978 25.888 140.973 25.9533 140.964 26.028C140.964 26.1027 140.959 26.1727 140.95 26.238H134.636V25.272H140.25L139.704 25.608C139.713 25.132 139.615 24.7073 139.41 24.334C139.205 23.9607 138.92 23.6713 138.556 23.466C138.201 23.2513 137.786 23.144 137.31 23.144C136.843 23.144 136.428 23.2513 136.064 23.466C135.7 23.6713 135.415 23.9653 135.21 24.348C135.005 24.7213 134.902 25.1507 134.902 25.636V25.86C134.902 26.3547 135.014 26.798 135.238 27.19C135.471 27.5727 135.793 27.8713 136.204 28.086C136.615 28.3007 137.086 28.408 137.618 28.408C138.057 28.408 138.453 28.3333 138.808 28.184C139.172 28.0347 139.489 27.8107 139.76 27.512L140.502 28.38C140.166 28.772 139.746 29.0707 139.242 29.276C138.747 29.4813 138.192 29.584 137.576 29.584Z" fill="#112211"/>
</svg>
