<svg width="324" height="64" viewBox="0 0 324 64" fill="none" xmlns="http://www.w3.org/2000/svg">
<rect x="0.5" y="8.5" width="323" height="55" rx="3.5" fill="white"/>
<rect x="0.5" y="8.5" width="323" height="55" rx="3.5" stroke="#79747E"/>
<path d="M21.296 42.096C20.432 42.096 19.664 41.872 18.992 41.424C18.32 40.9653 17.792 40.3147 17.408 39.472C17.024 38.6187 16.832 37.5947 16.832 36.4C16.832 35.2053 17.024 34.1867 17.408 33.344C17.792 32.4907 18.32 31.84 18.992 31.392C19.664 30.9333 20.432 30.704 21.296 30.704C22.16 30.704 22.928 30.9333 23.6 31.392C24.272 31.84 24.8 32.4907 25.184 33.344C25.5787 34.1867 25.776 35.2053 25.776 36.4C25.776 37.5947 25.5787 38.6187 25.184 39.472C24.8 40.3147 24.272 40.9653 23.6 41.424C22.928 41.872 22.16 42.096 21.296 42.096ZM21.296 41.04C21.9573 41.04 22.5333 40.864 23.024 40.512C23.5147 40.1493 23.8987 39.6267 24.176 38.944C24.4533 38.2507 24.592 37.4027 24.592 36.4C24.592 35.3973 24.4533 34.5547 24.176 33.872C23.8987 33.1787 23.5147 32.656 23.024 32.304C22.5333 31.9413 21.9573 31.76 21.296 31.76C20.656 31.76 20.0853 31.9413 19.584 32.304C19.0827 32.656 18.6933 33.1787 18.416 33.872C18.1387 34.5547 18 35.3973 18 36.4C18 37.4027 18.1387 38.2507 18.416 38.944C18.6933 39.6267 19.0827 40.1493 19.584 40.512C20.0853 40.864 20.656 41.04 21.296 41.04ZM29.2688 42L34.1008 31.312L34.4528 31.824H27.5247L28.1168 31.264V33.92H26.9808V30.8H35.2048V31.616L30.5168 42H29.2688ZM41.9021 42V30.8H42.8781L50.6061 40.528H50.0941V30.8H51.2621V42H50.2861L42.5741 32.272H43.0861V42H41.9021ZM58.1018 42.08C57.2911 42.08 56.5604 41.8987 55.9098 41.536C55.2698 41.1627 54.7631 40.656 54.3898 40.016C54.0164 39.3653 53.8298 38.624 53.8298 37.792C53.8298 36.9493 54.0164 36.208 54.3898 35.568C54.7631 34.928 55.2698 34.4267 55.9098 34.064C56.5498 33.7013 57.2804 33.52 58.1018 33.52C58.9338 33.52 59.6698 33.7013 60.3098 34.064C60.9604 34.4267 61.4671 34.928 61.8298 35.568C62.2031 36.208 62.3898 36.9493 62.3898 37.792C62.3898 38.624 62.2031 39.3653 61.8298 40.016C61.4671 40.656 60.9604 41.1627 60.3098 41.536C59.6591 41.8987 58.9231 42.08 58.1018 42.08ZM58.1018 41.072C58.7098 41.072 59.2484 40.9387 59.7178 40.672C60.1871 40.3947 60.5551 40.0107 60.8218 39.52C61.0991 39.0187 61.2378 38.4427 61.2378 37.792C61.2378 37.1307 61.0991 36.5547 60.8218 36.064C60.5551 35.5733 60.1871 35.1947 59.7178 34.928C59.2484 34.6507 58.7151 34.512 58.1178 34.512C57.5204 34.512 56.9871 34.6507 56.5178 34.928C56.0484 35.1947 55.6751 35.5733 55.3978 36.064C55.1204 36.5547 54.9818 37.1307 54.9818 37.792C54.9818 38.4427 55.1204 39.0187 55.3978 39.52C55.6751 40.0107 56.0484 40.3947 56.5178 40.672C56.9871 40.9387 57.5151 41.072 58.1018 41.072ZM66.6346 42L62.9066 33.6H64.0906L67.5146 41.392H66.9546L70.4266 33.6H71.5466L67.8026 42H66.6346ZM76.374 42V41.184L81.03 36.624C81.4567 36.208 81.7767 35.8453 81.99 35.536C82.2033 35.216 82.3473 34.9173 82.422 34.64C82.4967 34.3627 82.534 34.1013 82.534 33.856C82.534 33.2053 82.31 32.6933 81.862 32.32C81.4247 31.9467 80.774 31.76 79.91 31.76C79.2487 31.76 78.662 31.8613 78.15 32.064C77.6487 32.2667 77.2167 32.5813 76.854 33.008L76.038 32.304C76.4753 31.792 77.0353 31.3973 77.718 31.12C78.4007 30.8427 79.1633 30.704 80.006 30.704C80.7633 30.704 81.4193 30.8267 81.974 31.072C82.5287 31.3067 82.9553 31.6533 83.254 32.112C83.5633 32.5707 83.718 33.1093 83.718 33.728C83.718 34.0907 83.6647 34.448 83.558 34.8C83.462 35.152 83.2807 35.5253 83.014 35.92C82.758 36.304 82.3793 36.7413 81.878 37.232L77.606 41.424L77.286 40.976H84.23V42H76.374ZM85.4678 42V41.184L90.1238 36.624C90.5504 36.208 90.8704 35.8453 91.0838 35.536C91.2971 35.216 91.4411 34.9173 91.5158 34.64C91.5904 34.3627 91.6278 34.1013 91.6278 33.856C91.6278 33.2053 91.4038 32.6933 90.9558 32.32C90.5184 31.9467 89.8678 31.76 89.0038 31.76C88.3424 31.76 87.7558 31.8613 87.2438 32.064C86.7424 32.2667 86.3104 32.5813 85.9478 33.008L85.1318 32.304C85.5691 31.792 86.1291 31.3973 86.8118 31.12C87.4944 30.8427 88.2571 30.704 89.0998 30.704C89.8571 30.704 90.5131 30.8267 91.0678 31.072C91.6224 31.3067 92.0491 31.6533 92.3478 32.112C92.6571 32.5707 92.8118 33.1093 92.8118 33.728C92.8118 34.0907 92.7584 34.448 92.6518 34.8C92.5558 35.152 92.3744 35.5253 92.1078 35.92C91.8518 36.304 91.4731 36.7413 90.9718 37.232L86.6998 41.424L86.3798 40.976H93.3238V42H85.4678ZM99.085 38.16V37.168H103.277V38.16H99.085ZM111.206 42V31.28L111.718 31.824H108.566V30.8H112.358V42H111.206ZM118.379 42.096C117.568 42.096 116.8 41.968 116.075 41.712C115.36 41.4453 114.784 41.0933 114.347 40.656L114.907 39.744C115.27 40.1173 115.755 40.4267 116.363 40.672C116.982 40.9173 117.654 41.04 118.379 41.04C119.307 41.04 120.016 40.8373 120.507 40.432C121.008 40.0267 121.259 39.4827 121.259 38.8C121.259 38.1173 121.014 37.5733 120.523 37.168C120.043 36.7627 119.28 36.56 118.235 36.56H117.435V35.712L120.891 31.376L121.051 31.824H114.811V30.8H122.011V31.616L118.555 35.952L117.995 35.584H118.427C119.771 35.584 120.774 35.8827 121.435 36.48C122.107 37.0773 122.443 37.8453 122.443 38.784C122.443 39.4133 122.294 39.9787 121.995 40.48C121.696 40.9813 121.243 41.376 120.635 41.664C120.038 41.952 119.286 42.096 118.379 42.096ZM129.246 42V30.8H130.222L137.95 40.528H137.438V30.8H138.606V42H137.63L129.918 32.272H130.43V42H129.246ZM145.446 42.08C144.635 42.08 143.904 41.8987 143.254 41.536C142.614 41.1627 142.107 40.656 141.734 40.016C141.36 39.3653 141.174 38.624 141.174 37.792C141.174 36.9493 141.36 36.208 141.734 35.568C142.107 34.928 142.614 34.4267 143.254 34.064C143.894 33.7013 144.624 33.52 145.446 33.52C146.278 33.52 147.014 33.7013 147.654 34.064C148.304 34.4267 148.811 34.928 149.174 35.568C149.547 36.208 149.734 36.9493 149.734 37.792C149.734 38.624 149.547 39.3653 149.174 40.016C148.811 40.656 148.304 41.1627 147.654 41.536C147.003 41.8987 146.267 42.08 145.446 42.08ZM145.446 41.072C146.054 41.072 146.592 40.9387 147.062 40.672C147.531 40.3947 147.899 40.0107 148.166 39.52C148.443 39.0187 148.582 38.4427 148.582 37.792C148.582 37.1307 148.443 36.5547 148.166 36.064C147.899 35.5733 147.531 35.1947 147.062 34.928C146.592 34.6507 146.059 34.512 145.462 34.512C144.864 34.512 144.331 34.6507 143.862 34.928C143.392 35.1947 143.019 35.5733 142.742 36.064C142.464 36.5547 142.326 37.1307 142.326 37.792C142.326 38.4427 142.464 39.0187 142.742 39.52C143.019 40.0107 143.392 40.3947 143.862 40.672C144.331 40.9387 144.859 41.072 145.446 41.072ZM153.978 42L150.25 33.6H151.434L154.858 41.392H154.298L157.77 33.6H158.89L155.146 42H153.978ZM163.718 42V41.184L168.374 36.624C168.8 36.208 169.12 35.8453 169.334 35.536C169.547 35.216 169.691 34.9173 169.766 34.64C169.84 34.3627 169.878 34.1013 169.878 33.856C169.878 33.2053 169.654 32.6933 169.206 32.32C168.768 31.9467 168.118 31.76 167.254 31.76C166.592 31.76 166.006 31.8613 165.494 32.064C164.992 32.2667 164.56 32.5813 164.198 33.008L163.382 32.304C163.819 31.792 164.379 31.3973 165.062 31.12C165.744 30.8427 166.507 30.704 167.35 30.704C168.107 30.704 168.763 30.8267 169.318 31.072C169.872 31.3067 170.299 31.6533 170.598 32.112C170.907 32.5707 171.062 33.1093 171.062 33.728C171.062 34.0907 171.008 34.448 170.902 34.8C170.806 35.152 170.624 35.5253 170.358 35.92C170.102 36.304 169.723 36.7413 169.222 37.232L164.95 41.424L164.63 40.976H171.574V42H163.718ZM172.812 42V41.184L177.468 36.624C177.894 36.208 178.214 35.8453 178.428 35.536C178.641 35.216 178.785 34.9173 178.86 34.64C178.934 34.3627 178.972 34.1013 178.972 33.856C178.972 33.2053 178.748 32.6933 178.3 32.32C177.862 31.9467 177.212 31.76 176.348 31.76C175.686 31.76 175.1 31.8613 174.588 32.064C174.086 32.2667 173.654 32.5813 173.292 33.008L172.476 32.304C172.913 31.792 173.473 31.3973 174.156 31.12C174.838 30.8427 175.601 30.704 176.444 30.704C177.201 30.704 177.857 30.8267 178.412 31.072C178.966 31.3067 179.393 31.6533 179.692 32.112C180.001 32.5707 180.156 33.1093 180.156 33.728C180.156 34.0907 180.102 34.448 179.996 34.8C179.9 35.152 179.718 35.5253 179.452 35.92C179.196 36.304 178.817 36.7413 178.316 37.232L174.044 41.424L173.724 40.976H180.668V42H172.812Z" fill="#1C1B1F"/>
<rect width="115" height="17" transform="translate(12)" fill="white"/>
<path d="M17.596 14V4.2H21.586C22.6313 4.2 23.546 4.41 24.33 4.83C25.1233 5.24067 25.7393 5.81467 26.178 6.552C26.6167 7.28933 26.836 8.13867 26.836 9.1C26.836 10.0613 26.6167 10.9107 26.178 11.648C25.7393 12.3853 25.1233 12.964 24.33 13.384C23.546 13.7947 22.6313 14 21.586 14H17.596ZM18.632 13.104H21.53C22.398 13.104 23.1493 12.936 23.784 12.6C24.428 12.2547 24.9273 11.7833 25.282 11.186C25.6367 10.5793 25.814 9.884 25.814 9.1C25.814 8.30667 25.6367 7.61133 25.282 7.014C24.9273 6.41667 24.428 5.95 23.784 5.614C23.1493 5.26867 22.398 5.096 21.53 5.096H18.632V13.104ZM32.0744 14.07C31.3091 14.07 30.6371 13.9113 30.0584 13.594C29.4797 13.2673 29.0271 12.824 28.7004 12.264C28.3737 11.6947 28.2104 11.046 28.2104 10.318C28.2104 9.59 28.3644 8.946 28.6724 8.386C28.9897 7.826 29.4191 7.38733 29.9604 7.07C30.5111 6.74333 31.1271 6.58 31.8084 6.58C32.4991 6.58 33.1104 6.73867 33.6424 7.056C34.1837 7.364 34.6084 7.80267 34.9164 8.372C35.2244 8.932 35.3784 9.58067 35.3784 10.318C35.3784 10.3647 35.3737 10.416 35.3644 10.472C35.3644 10.5187 35.3644 10.57 35.3644 10.626H28.9664V9.884H34.8324L34.4404 10.178C34.4404 9.646 34.3237 9.17467 34.0904 8.764C33.8664 8.344 33.5584 8.01733 33.1664 7.784C32.7744 7.55067 32.3217 7.434 31.8084 7.434C31.3044 7.434 30.8517 7.55067 30.4504 7.784C30.0491 8.01733 29.7364 8.344 29.5124 8.764C29.2884 9.184 29.1764 9.66467 29.1764 10.206V10.36C29.1764 10.92 29.2977 11.4147 29.5404 11.844C29.7924 12.264 30.1377 12.5953 30.5764 12.838C31.0244 13.0713 31.5331 13.188 32.1024 13.188C32.5504 13.188 32.9657 13.1087 33.3484 12.95C33.7404 12.7913 34.0764 12.5487 34.3564 12.222L34.9164 12.866C34.5897 13.258 34.1791 13.5567 33.6844 13.762C33.1991 13.9673 32.6624 14.07 32.0744 14.07ZM41.1956 14.07C40.561 14.07 39.987 13.9253 39.4736 13.636C38.9603 13.3373 38.5496 12.9127 38.2416 12.362C37.943 11.802 37.7936 11.1207 37.7936 10.318C37.7936 9.51533 37.943 8.83867 38.2416 8.288C38.5403 7.728 38.9463 7.30333 39.4596 7.014C39.973 6.72467 40.5516 6.58 41.1956 6.58C41.8956 6.58 42.521 6.73867 43.0716 7.056C43.6316 7.364 44.0703 7.80267 44.3876 8.372C44.705 8.932 44.8636 9.58067 44.8636 10.318C44.8636 11.0647 44.705 11.718 44.3876 12.278C44.0703 12.838 43.6316 13.2767 43.0716 13.594C42.521 13.9113 41.8956 14.07 41.1956 14.07ZM37.4016 16.716V6.65H38.3536V8.862L38.2556 10.332L38.3956 11.816V16.716H37.4016ZM41.1256 13.188C41.6483 13.188 42.115 13.0713 42.5256 12.838C42.9363 12.5953 43.263 12.2593 43.5056 11.83C43.7483 11.3913 43.8696 10.8873 43.8696 10.318C43.8696 9.74867 43.7483 9.24933 43.5056 8.82C43.263 8.39067 42.9363 8.05467 42.5256 7.812C42.115 7.56933 41.6483 7.448 41.1256 7.448C40.603 7.448 40.1316 7.56933 39.7116 7.812C39.301 8.05467 38.9743 8.39067 38.7316 8.82C38.4983 9.24933 38.3816 9.74867 38.3816 10.318C38.3816 10.8873 38.4983 11.3913 38.7316 11.83C38.9743 12.2593 39.301 12.5953 39.7116 12.838C40.1316 13.0713 40.603 13.188 41.1256 13.188ZM51.4549 14V12.376L51.4129 12.11V9.394C51.4129 8.76867 51.2356 8.288 50.8809 7.952C50.5356 7.616 50.0176 7.448 49.3269 7.448C48.8509 7.448 48.3982 7.52733 47.9689 7.686C47.5396 7.84467 47.1756 8.05467 46.8769 8.316L46.4289 7.574C46.8022 7.25667 47.2502 7.014 47.7729 6.846C48.2956 6.66867 48.8462 6.58 49.4249 6.58C50.3769 6.58 51.1096 6.818 51.6229 7.294C52.1456 7.76067 52.4069 8.47467 52.4069 9.436V14H51.4549ZM48.9209 14.07C48.3702 14.07 47.8896 13.9813 47.4789 13.804C47.0776 13.6173 46.7696 13.3653 46.5549 13.048C46.3402 12.7213 46.2329 12.348 46.2329 11.928C46.2329 11.5453 46.3216 11.2 46.4989 10.892C46.6856 10.5747 46.9842 10.3227 47.3949 10.136C47.8149 9.94 48.3749 9.842 49.0749 9.842H51.6089V10.584H49.1029C48.3936 10.584 47.8989 10.71 47.6189 10.962C47.3482 11.214 47.2129 11.5267 47.2129 11.9C47.2129 12.32 47.3762 12.656 47.7029 12.908C48.0296 13.16 48.4869 13.286 49.0749 13.286C49.6349 13.286 50.1156 13.16 50.5169 12.908C50.9276 12.6467 51.2262 12.2733 51.4129 11.788L51.6369 12.474C51.4502 12.9593 51.1236 13.3467 50.6569 13.636C50.1996 13.9253 49.6209 14.07 48.9209 14.07ZM55.1067 14V6.65H56.0587V8.652L55.9607 8.302C56.166 7.742 56.5114 7.31733 56.9967 7.028C57.482 6.72933 58.084 6.58 58.8027 6.58V7.546C58.7654 7.546 58.728 7.546 58.6907 7.546C58.6534 7.53667 58.616 7.532 58.5787 7.532C57.804 7.532 57.1974 7.77 56.7587 8.246C56.32 8.71267 56.1007 9.38 56.1007 10.248V14H55.1067ZM63.2549 14.07C62.5643 14.07 62.0323 13.8833 61.6589 13.51C61.2856 13.1367 61.0989 12.6093 61.0989 11.928V5.026H62.0929V11.872C62.0929 12.3013 62.2003 12.6327 62.4149 12.866C62.6389 13.0993 62.9563 13.216 63.3669 13.216C63.8056 13.216 64.1696 13.09 64.4589 12.838L64.8089 13.552C64.6129 13.7293 64.3749 13.86 64.0949 13.944C63.8243 14.028 63.5443 14.07 63.2549 14.07ZM59.7829 7.476V6.65H64.3329V7.476H59.7829ZM65.9357 10.64V9.772H69.6037V10.64H65.9357ZM75.7015 14V4.2H79.3695C80.2001 4.2 80.9141 4.33533 81.5115 4.606C82.1088 4.86733 82.5661 5.25 82.8835 5.754C83.2101 6.24867 83.3735 6.85067 83.3735 7.56C83.3735 8.25067 83.2101 8.848 82.8835 9.352C82.5661 9.84667 82.1088 10.2293 81.5115 10.5C80.9141 10.7613 80.2001 10.892 79.3695 10.892H76.2755L76.7375 10.416V14H75.7015ZM82.3935 14L79.8735 10.444H80.9935L83.5275 14H82.3935ZM76.7375 10.5L76.2755 10.01H79.3415C80.3215 10.01 81.0635 9.79533 81.5675 9.366C82.0808 8.93667 82.3375 8.33467 82.3375 7.56C82.3375 6.776 82.0808 6.16933 81.5675 5.74C81.0635 5.31067 80.3215 5.096 79.3415 5.096H76.2755L76.7375 4.606V10.5ZM88.7307 14.07C87.9653 14.07 87.2933 13.9113 86.7147 13.594C86.136 13.2673 85.6833 12.824 85.3567 12.264C85.03 11.6947 84.8667 11.046 84.8667 10.318C84.8667 9.59 85.0207 8.946 85.3287 8.386C85.646 7.826 86.0753 7.38733 86.6167 7.07C87.1673 6.74333 87.7833 6.58 88.4647 6.58C89.1553 6.58 89.7667 6.73867 90.2987 7.056C90.84 7.364 91.2647 7.80267 91.5727 8.372C91.8807 8.932 92.0347 9.58067 92.0347 10.318C92.0347 10.3647 92.03 10.416 92.0207 10.472C92.0207 10.5187 92.0207 10.57 92.0207 10.626H85.6227V9.884H91.4887L91.0967 10.178C91.0967 9.646 90.98 9.17467 90.7467 8.764C90.5227 8.344 90.2147 8.01733 89.8227 7.784C89.4307 7.55067 88.978 7.434 88.4647 7.434C87.9607 7.434 87.508 7.55067 87.1067 7.784C86.7053 8.01733 86.3927 8.344 86.1687 8.764C85.9447 9.184 85.8327 9.66467 85.8327 10.206V10.36C85.8327 10.92 85.954 11.4147 86.1967 11.844C86.4487 12.264 86.794 12.5953 87.2327 12.838C87.6807 13.0713 88.1893 13.188 88.7587 13.188C89.2067 13.188 89.622 13.1087 90.0047 12.95C90.3967 12.7913 90.7327 12.5487 91.0127 12.222L91.5727 12.866C91.246 13.258 90.8353 13.5567 90.3407 13.762C89.8553 13.9673 89.3187 14.07 88.7307 14.07ZM96.3819 14.07C95.6912 14.07 95.1592 13.8833 94.7859 13.51C94.4125 13.1367 94.2259 12.6093 94.2259 11.928V5.026H95.2199V11.872C95.2199 12.3013 95.3272 12.6327 95.5419 12.866C95.7659 13.0993 96.0832 13.216 96.4939 13.216C96.9325 13.216 97.2965 13.09 97.5859 12.838L97.9359 13.552C97.7399 13.7293 97.5019 13.86 97.2219 13.944C96.9512 14.028 96.6712 14.07 96.3819 14.07ZM92.9099 7.476V6.65H97.4599V7.476H92.9099ZM102.783 14.07C102.158 14.07 101.612 13.9533 101.145 13.72C100.679 13.4867 100.315 13.1367 100.053 12.67C99.8014 12.2033 99.6754 11.62 99.6754 10.92V6.65H100.669V10.808C100.669 11.592 100.861 12.1847 101.243 12.586C101.635 12.978 102.181 13.174 102.881 13.174C103.395 13.174 103.838 13.0713 104.211 12.866C104.594 12.6513 104.883 12.3433 105.079 11.942C105.285 11.5407 105.387 11.06 105.387 10.5V6.65H106.381V14H105.429V11.984L105.583 12.348C105.35 12.8893 104.986 13.314 104.491 13.622C104.006 13.9207 103.437 14.07 102.783 14.07ZM109.152 14V6.65H110.104V8.652L110.006 8.302C110.211 7.742 110.556 7.31733 111.042 7.028C111.527 6.72933 112.129 6.58 112.848 6.58V7.546C112.81 7.546 112.773 7.546 112.736 7.546C112.698 7.53667 112.661 7.532 112.624 7.532C111.849 7.532 111.242 7.77 110.804 8.246C110.365 8.71267 110.146 9.38 110.146 10.248V14H109.152ZM118.413 6.58C119.011 6.58 119.533 6.69667 119.981 6.93C120.439 7.154 120.793 7.49933 121.045 7.966C121.307 8.43267 121.437 9.02067 121.437 9.73V14H120.443V9.828C120.443 9.05333 120.247 8.47 119.855 8.078C119.473 7.67667 118.931 7.476 118.231 7.476C117.709 7.476 117.251 7.58333 116.859 7.798C116.477 8.00333 116.178 8.30667 115.963 8.708C115.758 9.1 115.655 9.576 115.655 10.136V14H114.661V6.65H115.613V8.666L115.459 8.288C115.693 7.756 116.066 7.34067 116.579 7.042C117.093 6.734 117.704 6.58 118.413 6.58Z" fill="#1C1B1F"/>
</svg>
