<svg width="324" height="64" viewBox="0 0 324 64" fill="none" xmlns="http://www.w3.org/2000/svg">
<rect x="0.5" y="8.5" width="323" height="55" rx="3.5" fill="white"/>
<rect x="0.5" y="8.5" width="323" height="55" rx="3.5" stroke="#79747E"/>
<path d="M17.824 42V30.8H19.008V40.976H25.28V42H17.824ZM32.2699 42V40.144L32.2219 39.84V36.736C32.2219 36.0213 32.0192 35.472 31.6139 35.088C31.2192 34.704 30.6272 34.512 29.8379 34.512C29.2939 34.512 28.7765 34.6027 28.2859 34.784C27.7952 34.9653 27.3792 35.2053 27.0379 35.504L26.5259 34.656C26.9525 34.2933 27.4645 34.016 28.0619 33.824C28.6592 33.6213 29.2885 33.52 29.9499 33.52C31.0379 33.52 31.8752 33.792 32.4619 34.336C33.0592 34.8693 33.3579 35.6853 33.3579 36.784V42H32.2699ZM29.3739 42.08C28.7445 42.08 28.1952 41.9787 27.7259 41.776C27.2672 41.5627 26.9152 41.2747 26.6699 40.912C26.4245 40.5387 26.3019 40.112 26.3019 39.632C26.3019 39.1947 26.4032 38.8 26.6059 38.448C26.8192 38.0853 27.1605 37.7973 27.6299 37.584C28.1099 37.36 28.7499 37.248 29.5499 37.248H32.4459V38.096H29.5819C28.7712 38.096 28.2059 38.24 27.8859 38.528C27.5765 38.816 27.4219 39.1733 27.4219 39.6C27.4219 40.08 27.6085 40.464 27.9819 40.752C28.3552 41.04 28.8779 41.184 29.5499 41.184C30.1899 41.184 30.7392 41.04 31.1979 40.752C31.6672 40.4533 32.0085 40.0267 32.2219 39.472L32.4779 40.256C32.2645 40.8107 31.8912 41.2533 31.3579 41.584C30.8352 41.9147 30.1739 42.08 29.3739 42.08ZM40.7314 33.52C41.414 33.52 42.0114 33.6533 42.5234 33.92C43.046 34.176 43.4514 34.5707 43.7394 35.104C44.038 35.6373 44.1874 36.3093 44.1874 37.12V42H43.0514V37.232C43.0514 36.3467 42.8274 35.68 42.3794 35.232C41.942 34.7733 41.3234 34.544 40.5234 34.544C39.926 34.544 39.4034 34.6667 38.9554 34.912C38.518 35.1467 38.1767 35.4933 37.9314 35.952C37.6967 36.4 37.5794 36.944 37.5794 37.584V42H36.4434V30.128H37.5794V35.904L37.3554 35.472C37.622 34.864 38.0487 34.3893 38.6354 34.048C39.222 33.696 39.9207 33.52 40.7314 33.52ZM50.6799 42.08C49.8692 42.08 49.1385 41.8987 48.4879 41.536C47.8479 41.1627 47.3412 40.656 46.9679 40.016C46.5945 39.3653 46.4079 38.624 46.4079 37.792C46.4079 36.9493 46.5945 36.208 46.9679 35.568C47.3412 34.928 47.8479 34.4267 48.4879 34.064C49.1279 33.7013 49.8585 33.52 50.6799 33.52C51.5119 33.52 52.2479 33.7013 52.8879 34.064C53.5385 34.4267 54.0452 34.928 54.4079 35.568C54.7812 36.208 54.9679 36.9493 54.9679 37.792C54.9679 38.624 54.7812 39.3653 54.4079 40.016C54.0452 40.656 53.5385 41.1627 52.8879 41.536C52.2372 41.8987 51.5012 42.08 50.6799 42.08ZM50.6799 41.072C51.2879 41.072 51.8265 40.9387 52.2959 40.672C52.7652 40.3947 53.1332 40.0107 53.3999 39.52C53.6772 39.0187 53.8159 38.4427 53.8159 37.792C53.8159 37.1307 53.6772 36.5547 53.3999 36.064C53.1332 35.5733 52.7652 35.1947 52.2959 34.928C51.8265 34.6507 51.2932 34.512 50.6959 34.512C50.0985 34.512 49.5652 34.6507 49.0959 34.928C48.6265 35.1947 48.2532 35.5733 47.9759 36.064C47.6985 36.5547 47.5599 37.1307 47.5599 37.792C47.5599 38.4427 47.6985 39.0187 47.9759 39.52C48.2532 40.0107 48.6265 40.3947 49.0959 40.672C49.5652 40.9387 50.0932 41.072 50.6799 41.072ZM57.2871 42V33.6H58.3751V35.888L58.2631 35.488C58.4978 34.848 58.8925 34.3627 59.4471 34.032C60.0018 33.6907 60.6898 33.52 61.5111 33.52V34.624C61.4685 34.624 61.4258 34.624 61.3831 34.624C61.3405 34.6133 61.2978 34.608 61.2551 34.608C60.3698 34.608 59.6765 34.88 59.1751 35.424C58.6738 35.9573 58.4231 36.72 58.4231 37.712V42H57.2871ZM67.0739 42.08C66.1992 42.08 65.4312 41.8987 64.7699 41.536C64.1085 41.1627 63.5912 40.656 63.2179 40.016C62.8445 39.3653 62.6579 38.624 62.6579 37.792C62.6579 36.96 62.8339 36.224 63.1859 35.584C63.5485 34.944 64.0392 34.4427 64.6579 34.08C65.2872 33.7067 65.9912 33.52 66.7699 33.52C67.5592 33.52 68.2579 33.7013 68.8659 34.064C69.4845 34.416 69.9699 34.9173 70.3219 35.568C70.6739 36.208 70.8499 36.9493 70.8499 37.792C70.8499 37.8453 70.8445 37.904 70.8339 37.968C70.8339 38.0213 70.8339 38.08 70.8339 38.144H63.5219V37.296H70.2259L69.7779 37.632C69.7779 37.024 69.6445 36.4853 69.3779 36.016C69.1219 35.536 68.7699 35.1627 68.3219 34.896C67.8739 34.6293 67.3565 34.496 66.7699 34.496C66.1939 34.496 65.6765 34.6293 65.2179 34.896C64.7592 35.1627 64.4019 35.536 64.1459 36.016C63.8899 36.496 63.7619 37.0453 63.7619 37.664V37.84C63.7619 38.48 63.9005 39.0453 64.1779 39.536C64.4659 40.016 64.8605 40.3947 65.3619 40.672C65.8739 40.9387 66.4552 41.072 67.1059 41.072C67.6179 41.072 68.0925 40.9813 68.5299 40.8C68.9779 40.6187 69.3619 40.3413 69.6819 39.968L70.3219 40.704C69.9485 41.152 69.4792 41.4933 68.9139 41.728C68.3592 41.9627 67.7459 42.08 67.0739 42.08ZM76.7256 38.16V37.168H80.9176V38.16H76.7256ZM88.9105 39.216L88.8625 37.776L95.6465 30.8H97.0065L92.0625 35.984L91.3905 36.704L88.9105 39.216ZM87.8865 42V30.8H89.0705V42H87.8865ZM95.9345 42L91.1025 36.432L91.9025 35.568L97.3425 42H95.9345ZM104.067 42V40.144L104.019 39.84V36.736C104.019 36.0213 103.816 35.472 103.411 35.088C103.016 34.704 102.424 34.512 101.635 34.512C101.091 34.512 100.573 34.6027 100.083 34.784C99.5921 34.9653 99.1761 35.2053 98.8348 35.504L98.3228 34.656C98.7494 34.2933 99.2614 34.016 99.8588 33.824C100.456 33.6213 101.085 33.52 101.747 33.52C102.835 33.52 103.672 33.792 104.259 34.336C104.856 34.8693 105.155 35.6853 105.155 36.784V42H104.067ZM101.171 42.08C100.541 42.08 99.9921 41.9787 99.5228 41.776C99.0641 41.5627 98.7121 41.2747 98.4668 40.912C98.2214 40.5387 98.0988 40.112 98.0988 39.632C98.0988 39.1947 98.2001 38.8 98.4028 38.448C98.6161 38.0853 98.9574 37.7973 99.4268 37.584C99.9068 37.36 100.547 37.248 101.347 37.248H104.243V38.096H101.379C100.568 38.096 100.003 38.24 99.6828 38.528C99.3734 38.816 99.2188 39.1733 99.2188 39.6C99.2188 40.08 99.4054 40.464 99.7788 40.752C100.152 41.04 100.675 41.184 101.347 41.184C101.987 41.184 102.536 41.04 102.995 40.752C103.464 40.4533 103.805 40.0267 104.019 39.472L104.275 40.256C104.061 40.8107 103.688 41.2533 103.155 41.584C102.632 41.9147 101.971 42.08 101.171 42.08ZM108.24 42V33.6H109.328V35.888L109.216 35.488C109.451 34.848 109.846 34.3627 110.4 34.032C110.955 33.6907 111.643 33.52 112.464 33.52V34.624C112.422 34.624 112.379 34.624 112.336 34.624C112.294 34.6133 112.251 34.608 112.208 34.608C111.323 34.608 110.63 34.88 110.128 35.424C109.627 35.9573 109.376 36.72 109.376 37.712V42H108.24ZM119.176 42V40.144L119.128 39.84V36.736C119.128 36.0213 118.925 35.472 118.52 35.088C118.125 34.704 117.533 34.512 116.744 34.512C116.2 34.512 115.683 34.6027 115.192 34.784C114.701 34.9653 114.285 35.2053 113.944 35.504L113.432 34.656C113.859 34.2933 114.371 34.016 114.968 33.824C115.565 33.6213 116.195 33.52 116.856 33.52C117.944 33.52 118.781 33.792 119.368 34.336C119.965 34.8693 120.264 35.6853 120.264 36.784V42H119.176ZM116.28 42.08C115.651 42.08 115.101 41.9787 114.632 41.776C114.173 41.5627 113.821 41.2747 113.576 40.912C113.331 40.5387 113.208 40.112 113.208 39.632C113.208 39.1947 113.309 38.8 113.512 38.448C113.725 38.0853 114.067 37.7973 114.536 37.584C115.016 37.36 115.656 37.248 116.456 37.248H119.352V38.096H116.488C115.677 38.096 115.112 38.24 114.792 38.528C114.483 38.816 114.328 39.1733 114.328 39.6C114.328 40.08 114.515 40.464 114.888 40.752C115.261 41.04 115.784 41.184 116.456 41.184C117.096 41.184 117.645 41.04 118.104 40.752C118.573 40.4533 118.915 40.0267 119.128 39.472L119.384 40.256C119.171 40.8107 118.797 41.2533 118.264 41.584C117.741 41.9147 117.08 42.08 116.28 42.08ZM126.838 42.08C126.006 42.08 125.259 41.8987 124.598 41.536C123.947 41.1627 123.435 40.656 123.062 40.016C122.688 39.3653 122.502 38.624 122.502 37.792C122.502 36.9493 122.688 36.208 123.062 35.568C123.435 34.928 123.947 34.4267 124.598 34.064C125.259 33.7013 126.006 33.52 126.838 33.52C127.552 33.52 128.198 33.6587 128.774 33.936C129.35 34.2133 129.803 34.6293 130.134 35.184L129.286 35.76C128.998 35.3333 128.64 35.0187 128.214 34.816C127.787 34.6133 127.323 34.512 126.822 34.512C126.224 34.512 125.686 34.6507 125.206 34.928C124.726 35.1947 124.347 35.5733 124.07 36.064C123.792 36.5547 123.654 37.1307 123.654 37.792C123.654 38.4533 123.792 39.0293 124.07 39.52C124.347 40.0107 124.726 40.3947 125.206 40.672C125.686 40.9387 126.224 41.072 126.822 41.072C127.323 41.072 127.787 40.9707 128.214 40.768C128.64 40.5653 128.998 40.256 129.286 39.84L130.134 40.416C129.803 40.96 129.35 41.376 128.774 41.664C128.198 41.9413 127.552 42.08 126.838 42.08ZM136.528 33.52C137.211 33.52 137.808 33.6533 138.32 33.92C138.843 34.176 139.248 34.5707 139.536 35.104C139.835 35.6373 139.984 36.3093 139.984 37.12V42H138.848V37.232C138.848 36.3467 138.624 35.68 138.176 35.232C137.739 34.7733 137.12 34.544 136.32 34.544C135.723 34.544 135.2 34.6667 134.752 34.912C134.315 35.1467 133.974 35.4933 133.728 35.952C133.494 36.4 133.376 36.944 133.376 37.584V42H132.24V30.128H133.376V35.904L133.152 35.472C133.419 34.864 133.846 34.3893 134.432 34.048C135.019 33.696 135.718 33.52 136.528 33.52ZM143.053 42V33.6H144.189V42H143.053ZM143.629 31.744C143.394 31.744 143.197 31.664 143.037 31.504C142.877 31.344 142.797 31.152 142.797 30.928C142.797 30.704 142.877 30.5173 143.037 30.368C143.197 30.208 143.394 30.128 143.629 30.128C143.863 30.128 144.061 30.2027 144.221 30.352C144.381 30.5013 144.461 30.688 144.461 30.912C144.461 31.1467 144.381 31.344 144.221 31.504C144.071 31.664 143.874 31.744 143.629 31.744Z" fill="#1C1B1F"/>
<rect width="75" height="17" transform="translate(12)" fill="white"/>
<path d="M18.52 8.946H23.7V9.842H18.52V8.946ZM18.632 14H17.596V4.2H24.316V5.096H18.632V14ZM26.1087 14V6.65H27.0607V8.652L26.9627 8.302C27.168 7.742 27.5133 7.31733 27.9987 7.028C28.484 6.72933 29.086 6.58 29.8047 6.58V7.546C29.7673 7.546 29.73 7.546 29.6927 7.546C29.6553 7.53667 29.618 7.532 29.5807 7.532C28.806 7.532 28.1993 7.77 27.7607 8.246C27.322 8.71267 27.1027 9.38 27.1027 10.248V14H26.1087ZM34.5461 14.07C33.8367 14.07 33.1974 13.9113 32.6281 13.594C32.0681 13.2673 31.6247 12.824 31.2981 12.264C30.9714 11.6947 30.8081 11.046 30.8081 10.318C30.8081 9.58067 30.9714 8.932 31.2981 8.372C31.6247 7.812 32.0681 7.37333 32.6281 7.056C33.1881 6.73867 33.8274 6.58 34.5461 6.58C35.2741 6.58 35.9181 6.73867 36.4781 7.056C37.0474 7.37333 37.4907 7.812 37.8081 8.372C38.1347 8.932 38.2981 9.58067 38.2981 10.318C38.2981 11.046 38.1347 11.6947 37.8081 12.264C37.4907 12.824 37.0474 13.2673 36.4781 13.594C35.9087 13.9113 35.2647 14.07 34.5461 14.07ZM34.5461 13.188C35.0781 13.188 35.5494 13.0713 35.9601 12.838C36.3707 12.5953 36.6927 12.2593 36.9261 11.83C37.1687 11.3913 37.2901 10.8873 37.2901 10.318C37.2901 9.73933 37.1687 9.23533 36.9261 8.806C36.6927 8.37667 36.3707 8.04533 35.9601 7.812C35.5494 7.56933 35.0827 7.448 34.5601 7.448C34.0374 7.448 33.5707 7.56933 33.1601 7.812C32.7494 8.04533 32.4227 8.37667 32.1801 8.806C31.9374 9.23533 31.8161 9.73933 31.8161 10.318C31.8161 10.8873 31.9374 11.3913 32.1801 11.83C32.4227 12.2593 32.7494 12.5953 33.1601 12.838C33.5707 13.0713 34.0327 13.188 34.5461 13.188ZM49.5114 6.58C50.1087 6.58 50.6267 6.69667 51.0654 6.93C51.5134 7.154 51.8587 7.49933 52.1014 7.966C52.3534 8.43267 52.4794 9.02067 52.4794 9.73V14H51.4854V9.828C51.4854 9.05333 51.2987 8.47 50.9254 8.078C50.5614 7.67667 50.0434 7.476 49.3714 7.476C48.8674 7.476 48.4287 7.58333 48.0554 7.798C47.6914 8.00333 47.4067 8.30667 47.2014 8.708C47.0054 9.1 46.9074 9.576 46.9074 10.136V14H45.9134V9.828C45.9134 9.05333 45.7267 8.47 45.3534 8.078C44.9801 7.67667 44.4574 7.476 43.7854 7.476C43.2907 7.476 42.8567 7.58333 42.4834 7.798C42.1101 8.00333 41.8207 8.30667 41.6154 8.708C41.4194 9.1 41.3214 9.576 41.3214 10.136V14H40.3274V6.65H41.2794V8.638L41.1254 8.288C41.3494 7.756 41.7087 7.34067 42.2034 7.042C42.7074 6.734 43.3001 6.58 43.9814 6.58C44.7001 6.58 45.3114 6.762 45.8154 7.126C46.3194 7.48067 46.6461 8.01733 46.7954 8.736L46.4034 8.582C46.6181 7.98467 46.9961 7.504 47.5374 7.14C48.0881 6.76667 48.7461 6.58 49.5114 6.58ZM58.2931 10.64V9.772H61.9611V10.64H58.2931ZM69.9629 14V5.096H66.5189V4.2H74.4429V5.096H70.9989V14H69.9629ZM78.1183 14.07C77.409 14.07 76.7697 13.9113 76.2003 13.594C75.6403 13.2673 75.197 12.824 74.8703 12.264C74.5437 11.6947 74.3803 11.046 74.3803 10.318C74.3803 9.58067 74.5437 8.932 74.8703 8.372C75.197 7.812 75.6403 7.37333 76.2003 7.056C76.7603 6.73867 77.3997 6.58 78.1183 6.58C78.8463 6.58 79.4903 6.73867 80.0503 7.056C80.6197 7.37333 81.063 7.812 81.3803 8.372C81.707 8.932 81.8703 9.58067 81.8703 10.318C81.8703 11.046 81.707 11.6947 81.3803 12.264C81.063 12.824 80.6197 13.2673 80.0503 13.594C79.481 13.9113 78.837 14.07 78.1183 14.07ZM78.1183 13.188C78.6503 13.188 79.1217 13.0713 79.5323 12.838C79.943 12.5953 80.265 12.2593 80.4983 11.83C80.741 11.3913 80.8623 10.8873 80.8623 10.318C80.8623 9.73933 80.741 9.23533 80.4983 8.806C80.265 8.37667 79.943 8.04533 79.5323 7.812C79.1217 7.56933 78.655 7.448 78.1323 7.448C77.6097 7.448 77.143 7.56933 76.7323 7.812C76.3217 8.04533 75.995 8.37667 75.7523 8.806C75.5097 9.23533 75.3883 9.73933 75.3883 10.318C75.3883 10.8873 75.5097 11.3913 75.7523 11.83C75.995 12.2593 76.3217 12.5953 76.7323 12.838C77.143 13.0713 77.605 13.188 78.1183 13.188Z" fill="#112211"/>
<path d="M302.25 26.25L307.5 31.5L302.25 36.75M306.697 31.5H292.5M297.75 45.75L292.5 40.5L297.75 35.25M293.344 40.5H307.5" stroke="black" stroke-width="1.5" stroke-linecap="round" stroke-linejoin="round"/>
</svg>
