<svg width="76" height="24" viewBox="0 0 76 24" fill="none" xmlns="http://www.w3.org/2000/svg">
<path d="M20.25 10.8141C19.7772 10.6065 19.2664 10.4996 18.75 10.5H5.25C4.73368 10.4995 4.22288 10.6063 3.75 10.8136C3.08166 11.1059 2.51294 11.5865 2.11336 12.1968C1.71377 12.8071 1.50064 13.5205 1.5 14.25V19.5C1.5 19.6989 1.57902 19.8897 1.71967 20.0303C1.86032 20.171 2.05109 20.25 2.25 20.25C2.44891 20.25 2.63968 20.171 2.78033 20.0303C2.92098 19.8897 3 19.6989 3 19.5V19.125C3.00122 19.0259 3.04112 18.9312 3.11118 18.8612C3.18124 18.7911 3.27592 18.7512 3.375 18.75H20.625C20.7241 18.7512 20.8188 18.7911 20.8888 18.8612C20.9589 18.9312 20.9988 19.0259 21 19.125V19.5C21 19.6989 21.079 19.8897 21.2197 20.0303C21.3603 20.171 21.5511 20.25 21.75 20.25C21.9489 20.25 22.1397 20.171 22.2803 20.0303C22.421 19.8897 22.5 19.6989 22.5 19.5V14.25C22.4993 13.5206 22.2861 12.8073 21.8865 12.1971C21.4869 11.5869 20.9183 11.1063 20.25 10.8141ZM17.625 3.75H6.375C5.67881 3.75 5.01113 4.02656 4.51884 4.51884C4.02656 5.01113 3.75 5.67881 3.75 6.375V9.75C3.75002 9.77906 3.75679 9.80771 3.76979 9.8337C3.78278 9.85969 3.80163 9.8823 3.82486 9.89976C3.84809 9.91721 3.87505 9.92903 3.90363 9.93428C3.93221 9.93953 3.96162 9.93806 3.98953 9.93C4.39896 9.81025 4.82341 9.74964 5.25 9.75H5.44828C5.49456 9.75029 5.53932 9.73346 5.57393 9.70274C5.60855 9.67202 5.63058 9.62958 5.63578 9.58359C5.67669 9.21712 5.85115 8.87856 6.12586 8.63256C6.40056 8.38656 6.75625 8.25037 7.125 8.25H9.75C10.119 8.25003 10.475 8.38606 10.75 8.63209C11.025 8.87812 11.1997 9.21688 11.2406 9.58359C11.2458 9.62958 11.2679 9.67202 11.3025 9.70274C11.3371 9.73346 11.3818 9.75029 11.4281 9.75H12.5747C12.621 9.75029 12.6657 9.73346 12.7003 9.70274C12.735 9.67202 12.757 9.62958 12.7622 9.58359C12.8031 9.21736 12.9773 8.87899 13.2517 8.63303C13.5261 8.38706 13.8815 8.25072 14.25 8.25H16.875C17.244 8.25003 17.6 8.38606 17.875 8.63209C18.15 8.87812 18.3247 9.21688 18.3656 9.58359C18.3708 9.62958 18.3929 9.67202 18.4275 9.70274C18.4621 9.73346 18.5068 9.75029 18.5531 9.75H18.75C19.1766 9.74979 19.6011 9.81057 20.0105 9.93047C20.0384 9.93854 20.0679 9.94 20.0965 9.93473C20.1251 9.92945 20.1521 9.91759 20.1753 9.90009C20.1986 9.88258 20.2174 9.8599 20.2304 9.83385C20.2433 9.8078 20.2501 9.7791 20.25 9.75V6.375C20.25 5.67881 19.9734 5.01113 19.4812 4.51884C18.9889 4.02656 18.3212 3.75 17.625 3.75Z" fill="#112211"/>
<path d="M36.976 18.16C36.112 18.16 35.2747 18.0373 34.464 17.792C33.664 17.5467 33.0293 17.2213 32.56 16.816L33.28 15.2C33.7387 15.5627 34.2987 15.8613 34.96 16.096C35.632 16.32 36.304 16.432 36.976 16.432C37.808 16.432 38.4267 16.2987 38.832 16.032C39.248 15.7653 39.456 15.4133 39.456 14.976C39.456 14.656 39.3387 14.3947 39.104 14.192C38.88 13.9787 38.592 13.8133 38.24 13.696C37.888 13.5787 37.408 13.4453 36.8 13.296C35.9467 13.0933 35.2533 12.8907 34.72 12.688C34.1973 12.4853 33.744 12.1707 33.36 11.744C32.9867 11.3067 32.8 10.72 32.8 9.984C32.8 9.36533 32.9653 8.80533 33.296 8.304C33.6373 7.792 34.144 7.38667 34.816 7.088C35.4987 6.78933 36.3307 6.64 37.312 6.64C37.9947 6.64 38.6667 6.72533 39.328 6.896C39.9893 7.06667 40.56 7.312 41.04 7.632L40.384 9.248C39.8933 8.96 39.3813 8.74133 38.848 8.592C38.3147 8.44267 37.7973 8.368 37.296 8.368C36.4747 8.368 35.8613 8.50667 35.456 8.784C35.0613 9.06133 34.864 9.42933 34.864 9.888C34.864 10.208 34.976 10.4693 35.2 10.672C35.4347 10.8747 35.728 11.0347 36.08 11.152C36.432 11.2693 36.912 11.4027 37.52 11.552C38.352 11.744 39.0347 11.9467 39.568 12.16C40.1013 12.3627 40.5547 12.6773 40.928 13.104C41.312 13.5307 41.504 14.1067 41.504 14.832C41.504 15.4507 41.3333 16.0107 40.992 16.512C40.6613 17.0133 40.1547 17.4133 39.472 17.712C38.7893 18.0107 37.9573 18.16 36.976 18.16ZM48.5105 17.536C48.2758 17.728 47.9878 17.872 47.6465 17.968C47.3158 18.064 46.9638 18.112 46.5905 18.112C45.6518 18.112 44.9265 17.8667 44.4145 17.376C43.9025 16.8853 43.6465 16.1707 43.6465 15.232V11.12H42.2385V9.52H43.6465V7.568H45.6465V9.52H47.9345V11.12H45.6465V15.184C45.6465 15.6 45.7478 15.92 45.9505 16.144C46.1532 16.3573 46.4465 16.464 46.8305 16.464C47.2785 16.464 47.6518 16.3467 47.9505 16.112L48.5105 17.536ZM53.4198 9.36C54.6784 9.36 55.6384 9.664 56.2998 10.272C56.9718 10.8693 57.3078 11.776 57.3078 12.992V18H55.4198V16.96C55.1744 17.3333 54.8224 17.6213 54.3638 17.824C53.9158 18.016 53.3718 18.112 52.7318 18.112C52.0918 18.112 51.5318 18.0053 51.0518 17.792C50.5718 17.568 50.1984 17.264 49.9318 16.88C49.6758 16.4853 49.5478 16.0427 49.5478 15.552C49.5478 14.784 49.8304 14.1707 50.3958 13.712C50.9718 13.2427 51.8731 13.008 53.0998 13.008H55.3078V12.88C55.3078 12.2827 55.1264 11.824 54.7638 11.504C54.4118 11.184 53.8838 11.024 53.1798 11.024C52.6998 11.024 52.2251 11.0987 51.7558 11.248C51.2971 11.3973 50.9078 11.6053 50.5878 11.872L49.8038 10.416C50.2518 10.0747 50.7904 9.81333 51.4198 9.632C52.0491 9.45067 52.7158 9.36 53.4198 9.36ZM53.1478 16.656C53.6491 16.656 54.0918 16.544 54.4758 16.32C54.8704 16.0853 55.1478 15.7547 55.3078 15.328V14.336H53.2438C52.0918 14.336 51.5158 14.7147 51.5158 15.472C51.5158 15.8347 51.6598 16.1227 51.9478 16.336C52.2358 16.5493 52.6358 16.656 53.1478 16.656ZM65.7983 9.456H67.7183L63.7183 18.688C63.3449 19.616 62.8916 20.2667 62.3583 20.64C61.8249 21.024 61.1796 21.216 60.4223 21.216C59.9956 21.216 59.5743 21.1467 59.1583 21.008C58.7423 20.8693 58.4009 20.6773 58.1342 20.432L58.9342 18.96C59.1263 19.1413 59.3503 19.2853 59.6063 19.392C59.8729 19.4987 60.1396 19.552 60.4062 19.552C60.7583 19.552 61.0463 19.4613 61.2703 19.28C61.5049 19.0987 61.7183 18.7947 61.9103 18.368L62.0543 18.032L58.3262 9.456H60.4062L63.0943 15.776L65.7983 9.456ZM71.4989 18.112C70.8055 18.112 70.1282 18.0213 69.4669 17.84C68.8055 17.6587 68.2775 17.4293 67.8829 17.152L68.6509 15.632C69.0349 15.888 69.4935 16.096 70.0269 16.256C70.5709 16.4053 71.1042 16.48 71.6269 16.48C72.8215 16.48 73.4189 16.1653 73.4189 15.536C73.4189 15.2373 73.2642 15.0293 72.9549 14.912C72.6562 14.7947 72.1709 14.6827 71.4989 14.576C70.7949 14.4693 70.2189 14.3467 69.7709 14.208C69.3335 14.0693 68.9495 13.8293 68.6189 13.488C68.2989 13.136 68.1389 12.6507 68.1389 12.032C68.1389 11.2213 68.4749 10.576 69.1469 10.096C69.8295 9.60533 70.7469 9.36 71.8989 9.36C72.4855 9.36 73.0722 9.42933 73.6589 9.568C74.2455 9.696 74.7255 9.872 75.0989 10.096L74.3309 11.616C73.6055 11.1893 72.7895 10.976 71.8829 10.976C71.2962 10.976 70.8482 11.0667 70.5389 11.248C70.2402 11.4187 70.0909 11.648 70.0909 11.936C70.0909 12.256 70.2509 12.4853 70.5709 12.624C70.9015 12.752 71.4082 12.8747 72.0909 12.992C72.7735 13.0987 73.3335 13.2213 73.7709 13.36C74.2082 13.4987 74.5815 13.7333 74.8909 14.064C75.2109 14.3947 75.3709 14.864 75.3709 15.472C75.3709 16.272 75.0242 16.912 74.3309 17.392C73.6375 17.872 72.6935 18.112 71.4989 18.112Z" fill="#112211"/>
</svg>
