<svg width="1264" height="304" viewBox="0 0 1264 304" fill="none" xmlns="http://www.w3.org/2000/svg">
<g filter="url(#filter0_d_69_4966)">
<rect x="16" y="12" width="1232" height="272" rx="16" fill="white" shape-rendering="crispEdges"/>
<path d="M56.28 59.7L59.86 49H62.34L57.7 63H54.94L51.48 52.64L47.96 63H45.18L40.54 49H43.24L46.72 59.64L50.34 49H52.74L56.28 59.7ZM70.5711 52.2C71.9178 52.2 72.9978 52.5933 73.8111 53.38C74.6244 54.1667 75.0311 55.3333 75.0311 56.88V63H72.5311V57.2C72.5311 56.2667 72.3111 55.5667 71.8711 55.1C71.4311 54.62 70.8044 54.38 69.9911 54.38C69.0711 54.38 68.3444 54.66 67.8111 55.22C67.2778 55.7667 67.0111 56.56 67.0111 57.6V63H64.5111V48.16H67.0111V53.56C67.4244 53.12 67.9311 52.7867 68.5311 52.56C69.1444 52.32 69.8244 52.2 70.5711 52.2ZM88.262 57.72C88.262 57.8933 88.2487 58.14 88.222 58.46H79.842C79.9887 59.2467 80.3687 59.8733 80.982 60.34C81.6087 60.7933 82.382 61.02 83.302 61.02C84.4754 61.02 85.442 60.6333 86.202 59.86L87.542 61.4C87.062 61.9733 86.4554 62.4067 85.722 62.7C84.9887 62.9933 84.162 63.14 83.242 63.14C82.0687 63.14 81.0354 62.9067 80.142 62.44C79.2487 61.9733 78.5554 61.3267 78.062 60.5C77.582 59.66 77.342 58.7133 77.342 57.66C77.342 56.62 77.5754 55.6867 78.042 54.86C78.522 54.02 79.182 53.3667 80.022 52.9C80.862 52.4333 81.8087 52.2 82.862 52.2C83.902 52.2 84.8287 52.4333 85.642 52.9C86.4687 53.3533 87.1087 54 87.562 54.84C88.0287 55.6667 88.262 56.6267 88.262 57.72ZM82.862 54.2C82.062 54.2 81.382 54.44 80.822 54.92C80.2754 55.3867 79.942 56.0133 79.822 56.8H85.882C85.7754 56.0267 85.4487 55.4 84.902 54.92C84.3554 54.44 83.6754 54.2 82.862 54.2ZM93.0434 53.88C93.7634 52.76 95.0301 52.2 96.8434 52.2V54.58C96.6301 54.54 96.4368 54.52 96.2634 54.52C95.2901 54.52 94.5301 54.8067 93.9834 55.38C93.4368 55.94 93.1634 56.7533 93.1634 57.82V63H90.6634V52.32H93.0434V53.88ZM108.907 57.72C108.907 57.8933 108.893 58.14 108.867 58.46H100.487C100.633 59.2467 101.013 59.8733 101.627 60.34C102.253 60.7933 103.027 61.02 103.947 61.02C105.12 61.02 106.087 60.6333 106.847 59.86L108.187 61.4C107.707 61.9733 107.1 62.4067 106.367 62.7C105.633 62.9933 104.807 63.14 103.887 63.14C102.713 63.14 101.68 62.9067 100.787 62.44C99.8932 61.9733 99.1999 61.3267 98.7066 60.5C98.2266 59.66 97.9866 58.7133 97.9866 57.66C97.9866 56.62 98.2199 55.6867 98.6866 54.86C99.1666 54.02 99.8266 53.3667 100.667 52.9C101.507 52.4333 102.453 52.2 103.507 52.2C104.547 52.2 105.473 52.4333 106.287 52.9C107.113 53.3533 107.753 54 108.207 54.84C108.673 55.6667 108.907 56.6267 108.907 57.72ZM103.507 54.2C102.707 54.2 102.027 54.44 101.467 54.92C100.92 55.3867 100.587 56.0133 100.467 56.8H106.527C106.42 56.0267 106.093 55.4 105.547 54.92C105 54.44 104.32 54.2 103.507 54.2ZM120.915 52.2C122.489 52.2 123.689 52.58 124.515 53.34C125.355 54.0867 125.775 55.22 125.775 56.74V63H123.415V61.7C123.109 62.1667 122.669 62.5267 122.095 62.78C121.535 63.02 120.855 63.14 120.055 63.14C119.255 63.14 118.555 63.0067 117.955 62.74C117.355 62.46 116.889 62.08 116.555 61.6C116.235 61.1067 116.075 60.5533 116.075 59.94C116.075 58.98 116.429 58.2133 117.135 57.64C117.855 57.0533 118.982 56.76 120.515 56.76H123.275V56.6C123.275 55.8533 123.049 55.28 122.595 54.88C122.155 54.48 121.495 54.28 120.615 54.28C120.015 54.28 119.422 54.3733 118.835 54.56C118.262 54.7467 117.775 55.0067 117.375 55.34L116.395 53.52C116.955 53.0933 117.629 52.7667 118.415 52.54C119.202 52.3133 120.035 52.2 120.915 52.2ZM120.575 61.32C121.202 61.32 121.755 61.18 122.235 60.9C122.729 60.6067 123.075 60.1933 123.275 59.66V58.42H120.695C119.255 58.42 118.535 58.8933 118.535 59.84C118.535 60.2933 118.715 60.6533 119.075 60.92C119.435 61.1867 119.935 61.32 120.575 61.32ZM131.364 53.88C132.084 52.76 133.35 52.2 135.164 52.2V54.58C134.95 54.54 134.757 54.52 134.584 54.52C133.61 54.52 132.85 54.8067 132.304 55.38C131.757 55.94 131.484 56.7533 131.484 57.82V63H128.984V52.32H131.364V53.88ZM147.227 57.72C147.227 57.8933 147.214 58.14 147.187 58.46H138.807C138.954 59.2467 139.334 59.8733 139.947 60.34C140.574 60.7933 141.347 61.02 142.267 61.02C143.44 61.02 144.407 60.6333 145.167 59.86L146.507 61.4C146.027 61.9733 145.42 62.4067 144.687 62.7C143.954 62.9933 143.127 63.14 142.207 63.14C141.034 63.14 140 62.9067 139.107 62.44C138.214 61.9733 137.52 61.3267 137.027 60.5C136.547 59.66 136.307 58.7133 136.307 57.66C136.307 56.62 136.54 55.6867 137.007 54.86C137.487 54.02 138.147 53.3667 138.987 52.9C139.827 52.4333 140.774 52.2 141.827 52.2C142.867 52.2 143.794 52.4333 144.607 52.9C145.434 53.3533 146.074 54 146.527 54.84C146.994 55.6667 147.227 56.6267 147.227 57.72ZM141.827 54.2C141.027 54.2 140.347 54.44 139.787 54.92C139.24 55.3867 138.907 56.0133 138.787 56.8H144.847C144.74 56.0267 144.414 55.4 143.867 54.92C143.32 54.44 142.64 54.2 141.827 54.2ZM162.756 52.32H165.156L160.156 63.86C159.689 65.02 159.122 65.8333 158.456 66.3C157.789 66.78 156.982 67.02 156.036 67.02C155.502 67.02 154.976 66.9333 154.456 66.76C153.936 66.5867 153.509 66.3467 153.176 66.04L154.176 64.2C154.416 64.4267 154.696 64.6067 155.016 64.74C155.349 64.8733 155.682 64.94 156.016 64.94C156.456 64.94 156.816 64.8267 157.096 64.6C157.389 64.3733 157.656 63.9933 157.896 63.46L158.076 63.04L153.416 52.32H156.016L159.376 60.22L162.756 52.32ZM171.225 63.14C170.145 63.14 169.172 62.9067 168.305 62.44C167.438 61.9733 166.758 61.3267 166.265 60.5C165.785 59.66 165.545 58.7133 165.545 57.66C165.545 56.6067 165.785 55.6667 166.265 54.84C166.758 54.0133 167.438 53.3667 168.305 52.9C169.172 52.4333 170.145 52.2 171.225 52.2C172.318 52.2 173.298 52.4333 174.165 52.9C175.032 53.3667 175.705 54.0133 176.185 54.84C176.678 55.6667 176.925 56.6067 176.925 57.66C176.925 58.7133 176.678 59.66 176.185 60.5C175.705 61.3267 175.032 61.9733 174.165 62.44C173.298 62.9067 172.318 63.14 171.225 63.14ZM171.225 61C172.145 61 172.905 60.6933 173.505 60.08C174.105 59.4667 174.405 58.66 174.405 57.66C174.405 56.66 174.105 55.8533 173.505 55.24C172.905 54.6267 172.145 54.32 171.225 54.32C170.305 54.32 169.545 54.6267 168.945 55.24C168.358 55.8533 168.065 56.66 168.065 57.66C168.065 58.66 168.358 59.4667 168.945 60.08C169.545 60.6933 170.305 61 171.225 61ZM187.156 52.32H189.656V63H187.276V61.64C186.876 62.12 186.376 62.4933 185.776 62.76C185.176 63.0133 184.529 63.14 183.836 63.14C182.409 63.14 181.282 62.7467 180.456 61.96C179.642 61.16 179.236 59.98 179.236 58.42V52.32H181.736V58.08C181.736 59.04 181.949 59.76 182.376 60.24C182.816 60.7067 183.436 60.94 184.236 60.94C185.129 60.94 185.836 60.6667 186.356 60.12C186.889 59.56 187.156 58.76 187.156 57.72V52.32ZM202.796 50.04C201.743 50.04 201.216 50.6133 201.216 51.76V52.4H204.156V54.4H201.296V63H198.796V54.4H197.036V52.4H198.796V51.72C198.796 50.5733 199.13 49.6733 199.796 49.02C200.463 48.3533 201.403 48.02 202.616 48.02C203.576 48.02 204.33 48.2133 204.876 48.6L204.176 50.48C203.75 50.1867 203.29 50.04 202.796 50.04ZM208.396 63H205.896V48.16H208.396V63ZM219.299 52.32H221.699L216.699 63.86C216.232 65.02 215.665 65.8333 214.999 66.3C214.332 66.78 213.525 67.02 212.579 67.02C212.045 67.02 211.519 66.9333 210.999 66.76C210.479 66.5867 210.052 66.3467 209.719 66.04L210.719 64.2C210.959 64.4267 211.239 64.6067 211.559 64.74C211.892 64.8733 212.225 64.94 212.559 64.94C212.999 64.94 213.359 64.8267 213.639 64.6C213.932 64.3733 214.199 63.9933 214.439 63.46L214.619 63.04L209.959 52.32H212.559L215.919 60.22L219.299 52.32ZM225.761 63H223.261V52.32H225.761V63ZM224.521 50.56C224.068 50.56 223.688 50.42 223.381 50.14C223.074 49.8467 222.921 49.4867 222.921 49.06C222.921 48.6333 223.074 48.28 223.381 48C223.688 47.7067 224.068 47.56 224.521 47.56C224.974 47.56 225.354 47.7 225.661 47.98C225.968 48.2467 226.121 48.5867 226.121 49C226.121 49.44 225.968 49.8133 225.661 50.12C225.368 50.4133 224.988 50.56 224.521 50.56ZM235.102 52.2C236.449 52.2 237.529 52.5933 238.342 53.38C239.156 54.1667 239.562 55.3333 239.562 56.88V63H237.062V57.2C237.062 56.2667 236.842 55.5667 236.402 55.1C235.962 54.62 235.336 54.38 234.522 54.38C233.602 54.38 232.876 54.66 232.342 55.22C231.809 55.7667 231.542 56.56 231.542 57.6V63H229.042V52.32H231.422V53.7C231.836 53.2067 232.356 52.8333 232.982 52.58C233.609 52.3267 234.316 52.2 235.102 52.2ZM250.973 52.32H253.353V61.38C253.353 65.14 251.433 67.02 247.593 67.02C246.567 67.02 245.593 66.8867 244.673 66.62C243.753 66.3667 242.993 65.9933 242.393 65.5L243.513 63.62C243.98 64.0067 244.567 64.3133 245.273 64.54C245.993 64.78 246.72 64.9 247.453 64.9C248.627 64.9 249.487 64.6333 250.033 64.1C250.58 63.5667 250.853 62.7533 250.853 61.66V61.1C250.427 61.5667 249.907 61.92 249.293 62.16C248.68 62.4 248.007 62.52 247.273 62.52C246.26 62.52 245.34 62.3067 244.513 61.88C243.7 61.44 243.053 60.8267 242.573 60.04C242.107 59.2533 241.873 58.3533 241.873 57.34C241.873 56.3267 242.107 55.4333 242.573 54.66C243.053 53.8733 243.7 53.2667 244.513 52.84C245.34 52.4133 246.26 52.2 247.273 52.2C248.047 52.2 248.747 52.3267 249.373 52.58C250.013 52.8333 250.547 53.22 250.973 53.74V52.32ZM247.653 60.4C248.6 60.4 249.373 60.12 249.973 59.56C250.587 58.9867 250.893 58.2467 250.893 57.34C250.893 56.4467 250.587 55.72 249.973 55.16C249.373 54.6 248.6 54.32 247.653 54.32C246.693 54.32 245.907 54.6 245.293 55.16C244.693 55.72 244.393 56.4467 244.393 57.34C244.393 58.2467 244.693 58.9867 245.293 59.56C245.907 60.12 246.693 60.4 247.653 60.4ZM259.831 58.36C259.831 57.64 259.991 57.0467 260.311 56.58C260.644 56.1 261.124 55.58 261.751 55.02C262.231 54.5933 262.584 54.2267 262.811 53.92C263.051 53.6 263.171 53.24 263.171 52.84C263.171 52.28 262.944 51.8267 262.491 51.48C262.037 51.1333 261.431 50.96 260.671 50.96C259.231 50.96 258.144 51.4733 257.411 52.5L255.471 51.24C256.044 50.4533 256.784 49.8533 257.691 49.44C258.597 49.0133 259.664 48.8 260.891 48.8C262.384 48.8 263.571 49.1267 264.451 49.78C265.344 50.42 265.791 51.3067 265.791 52.44C265.791 52.9867 265.697 53.4667 265.511 53.88C265.337 54.2933 265.124 54.6467 264.871 54.94C264.617 55.22 264.284 55.5467 263.871 55.92C263.364 56.3733 262.984 56.7733 262.731 57.12C262.491 57.4667 262.371 57.88 262.371 58.36H259.831ZM261.111 63.14C260.644 63.14 260.257 62.9933 259.951 62.7C259.657 62.3933 259.511 62.02 259.511 61.58C259.511 61.14 259.657 60.7733 259.951 60.48C260.257 60.1867 260.644 60.04 261.111 60.04C261.564 60.04 261.937 60.1867 262.231 60.48C262.537 60.7733 262.691 61.14 262.691 61.58C262.691 62.02 262.537 62.3933 262.231 62.7C261.937 62.9933 261.564 63.14 261.111 63.14Z" fill="#112211"/>
<rect x="40.5" y="100.5" width="323" height="55" rx="3.5" fill="white"/>
<rect x="40.5" y="100.5" width="323" height="55" rx="3.5" stroke="#79747E"/>
<path d="M57.824 134H65.28V132.976H59.008V122.8H57.824V134ZM69.9811 125.52C68.6531 125.52 67.4051 125.936 66.5571 126.656L67.0691 127.504C67.7571 126.896 68.7811 126.512 69.8691 126.512C71.4371 126.512 72.2531 127.296 72.2531 128.736V129.248H69.5811C67.1651 129.248 66.3331 130.336 66.3331 131.632C66.3331 133.088 67.5011 134.08 69.4051 134.08C70.7971 134.08 71.7891 133.552 72.3011 132.688V134H73.3891V128.784C73.3891 126.608 72.1571 125.52 69.9811 125.52ZM69.5811 133.184C68.2371 133.184 67.4531 132.576 67.4531 131.6C67.4531 130.736 67.9811 130.096 69.6131 130.096H72.2531V131.472C71.8051 132.576 70.8611 133.184 69.5811 133.184ZM80.7626 125.52C79.3386 125.52 78.2346 126.08 77.6106 127.056V122.128H76.4746V134H77.6106V129.584C77.6106 127.664 78.7466 126.544 80.5546 126.544C82.1546 126.544 83.0826 127.456 83.0826 129.232V134H84.2186V129.12C84.2186 126.704 82.8106 125.52 80.7626 125.52ZM90.774 134.08C93.238 134.08 95.046 132.288 95.046 129.792C95.046 127.296 93.238 125.52 90.774 125.52C88.31 125.52 86.486 127.296 86.486 129.792C86.486 132.288 88.31 134.08 90.774 134.08ZM90.774 133.072C88.982 133.072 87.638 131.76 87.638 129.792C87.638 127.824 88.982 126.512 90.774 126.512C92.566 126.512 93.894 127.824 93.894 129.792C93.894 131.76 92.566 133.072 90.774 133.072ZM98.4533 127.232V125.584H97.3653V134H98.5013V129.712C98.5013 127.728 99.5733 126.608 101.333 126.608C101.413 126.608 101.509 126.624 101.605 126.624V125.52C100.053 125.52 98.9813 126.112 98.4533 127.232ZM110.928 129.792C110.928 127.264 109.216 125.52 106.848 125.52C104.48 125.52 102.736 127.296 102.736 129.792C102.736 132.288 104.528 134.08 107.152 134.08C108.48 134.08 109.648 133.6 110.4 132.704L109.76 131.968C109.12 132.704 108.208 133.072 107.184 133.072C105.344 133.072 104 131.904 103.872 130.144H110.912C110.912 130.016 110.928 129.888 110.928 129.792ZM106.848 126.496C108.496 126.496 109.696 127.648 109.84 129.296H103.872C104.016 127.648 105.216 126.496 106.848 126.496ZM116.804 130.16H120.996V129.168H116.804V130.16ZM136.013 134H137.421L132.237 127.872L137.085 122.8H135.725L129.149 129.568V122.8H127.965V134H129.149V131.056L131.437 128.736L136.013 134ZM141.825 125.52C140.497 125.52 139.249 125.936 138.401 126.656L138.913 127.504C139.601 126.896 140.625 126.512 141.713 126.512C143.281 126.512 144.097 127.296 144.097 128.736V129.248H141.425C139.009 129.248 138.177 130.336 138.177 131.632C138.177 133.088 139.345 134.08 141.249 134.08C142.641 134.08 143.633 133.552 144.145 132.688V134H145.233V128.784C145.233 126.608 144.001 125.52 141.825 125.52ZM141.425 133.184C140.081 133.184 139.297 132.576 139.297 131.6C139.297 130.736 139.825 130.096 141.457 130.096H144.097V131.472C143.649 132.576 142.705 133.184 141.425 133.184ZM149.406 127.232V125.584H148.318V134H149.454V129.712C149.454 127.728 150.526 126.608 152.286 126.608C152.366 126.608 152.462 126.624 152.558 126.624V125.52C151.006 125.52 149.934 126.112 149.406 127.232ZM157.544 125.52C156.216 125.52 154.968 125.936 154.12 126.656L154.632 127.504C155.32 126.896 156.344 126.512 157.432 126.512C159 126.512 159.816 127.296 159.816 128.736V129.248H157.144C154.728 129.248 153.896 130.336 153.896 131.632C153.896 133.088 155.064 134.08 156.968 134.08C158.36 134.08 159.352 133.552 159.864 132.688V134H160.952V128.784C160.952 126.608 159.72 125.52 157.544 125.52ZM157.144 133.184C155.8 133.184 155.016 132.576 155.016 131.6C155.016 130.736 155.544 130.096 157.176 130.096H159.816V131.472C159.368 132.576 158.424 133.184 157.144 133.184ZM167.556 134.08C168.98 134.08 170.18 133.504 170.852 132.416L170.004 131.84C169.428 132.688 168.532 133.072 167.556 133.072C165.716 133.072 164.372 131.776 164.372 129.792C164.372 127.824 165.716 126.512 167.556 126.512C168.532 126.512 169.428 126.912 170.004 127.76L170.852 127.184C170.18 126.08 168.98 125.52 167.556 125.52C165.044 125.52 163.22 127.28 163.22 129.792C163.22 132.304 165.044 134.08 167.556 134.08ZM177.247 125.52C175.823 125.52 174.719 126.08 174.095 127.056V122.128H172.959V134H174.095V129.584C174.095 127.664 175.231 126.544 177.039 126.544C178.639 126.544 179.567 127.456 179.567 129.232V134H180.703V129.12C180.703 126.704 179.295 125.52 177.247 125.52ZM184.363 123.744C184.843 123.744 185.195 123.376 185.195 122.912C185.195 122.48 184.827 122.128 184.363 122.128C183.899 122.128 183.531 122.496 183.531 122.928C183.531 123.376 183.899 123.744 184.363 123.744ZM183.787 134H184.923V125.584H183.787V134Z" fill="#1C1B1F"/>
<rect width="75" height="17" transform="translate(52 92)" fill="white"/>
<path d="M64.316 97.096V96.2H57.596V106H58.632V101.842H63.7V100.946H58.632V97.096H64.316ZM67.0607 100.078V98.636H66.1087V106H67.1027V102.248C67.1027 100.512 68.0407 99.532 69.5807 99.532C69.6507 99.532 69.7347 99.546 69.8187 99.546V98.58C68.4607 98.58 67.5227 99.098 67.0607 100.078ZM74.5601 106.07C76.7161 106.07 78.2981 104.502 78.2981 102.318C78.2981 100.134 76.7161 98.58 74.5601 98.58C72.4041 98.58 70.8081 100.134 70.8081 102.318C70.8081 104.502 72.4041 106.07 74.5601 106.07ZM74.5601 105.188C72.9921 105.188 71.8161 104.04 71.8161 102.318C71.8161 100.596 72.9921 99.448 74.5601 99.448C76.1281 99.448 77.2901 100.596 77.2901 102.318C77.2901 104.04 76.1281 105.188 74.5601 105.188ZM89.5114 98.58C88.1814 98.58 87.1314 99.182 86.5994 100.134C86.1514 99.098 85.1994 98.58 83.9814 98.58C82.7494 98.58 81.7974 99.098 81.2794 99.98V98.636H80.3274V106H81.3214V102.136C81.3214 100.456 82.2874 99.476 83.7854 99.476C85.1294 99.476 85.9134 100.274 85.9134 101.828V106H86.9074V102.136C86.9074 100.456 87.8594 99.476 89.3714 99.476C90.7014 99.476 91.4854 100.274 91.4854 101.828V106H92.4794V101.73C92.4794 99.616 91.3034 98.58 89.5114 98.58ZM98.2931 102.64H101.961V101.772H98.2931V102.64ZM109.963 106H110.999V97.096H114.443V96.2H106.519V97.096H109.963V106ZM118.132 106.07C120.288 106.07 121.87 104.502 121.87 102.318C121.87 100.134 120.288 98.58 118.132 98.58C115.976 98.58 114.38 100.134 114.38 102.318C114.38 104.502 115.976 106.07 118.132 106.07ZM118.132 105.188C116.564 105.188 115.388 104.04 115.388 102.318C115.388 100.596 116.564 99.448 118.132 99.448C119.7 99.448 120.862 100.596 120.862 102.318C120.862 104.04 119.7 105.188 118.132 105.188Z" fill="#112211"/>
<path d="M342.25 118.25L347.5 123.5L342.25 128.75M346.697 123.5H332.5M337.75 137.75L332.5 132.5L337.75 127.25M333.344 132.5H347.5" stroke="black" stroke-width="1.5" stroke-linecap="round" stroke-linejoin="round"/>
<rect x="388.5" y="100.5" width="139" height="55" rx="3.5" fill="white"/>
<rect x="388.5" y="100.5" width="139" height="55" rx="3.5" stroke="#79747E"/>
<path d="M414.768 134L412.032 130.16C413.664 129.632 414.592 128.4 414.592 126.64C414.592 124.24 412.864 122.8 410.016 122.8H405.824V134H407.008V130.448H410.016C410.336 130.448 410.624 130.432 410.912 130.4L413.472 134H414.768ZM409.984 129.44H407.008V123.824H409.984C412.224 123.824 413.408 124.848 413.408 126.64C413.408 128.4 412.224 129.44 409.984 129.44ZM424.491 129.792C424.491 127.264 422.779 125.52 420.411 125.52C418.043 125.52 416.299 127.296 416.299 129.792C416.299 132.288 418.091 134.08 420.715 134.08C422.043 134.08 423.211 133.6 423.963 132.704L423.323 131.968C422.683 132.704 421.771 133.072 420.747 133.072C418.907 133.072 417.562 131.904 417.435 130.144H424.475C424.475 130.016 424.491 129.888 424.491 129.792ZM420.411 126.496C422.059 126.496 423.259 127.648 423.403 129.296H417.435C417.579 127.648 418.779 126.496 420.411 126.496ZM430.835 132.672C430.515 132.96 430.051 133.104 429.587 133.104C428.643 133.104 428.131 132.56 428.131 131.568V126.544H430.691V125.584H428.131V123.744H426.995V125.584H425.491V126.544H426.995V131.632C426.995 133.184 427.875 134.08 429.459 134.08C430.115 134.08 430.787 133.888 431.235 133.488L430.835 132.672ZM439.751 125.584V130C439.751 131.92 438.647 133.056 436.887 133.056C435.287 133.056 434.359 132.144 434.359 130.352V125.584H433.223V130.464C433.223 132.88 434.631 134.08 436.775 134.08C438.119 134.08 439.207 133.488 439.799 132.464V134H440.887V125.584H439.751ZM445.156 127.232V125.584H444.068V134H445.204V129.712C445.204 127.728 446.276 126.608 448.036 126.608C448.116 126.608 448.212 126.624 448.308 126.624V125.52C446.756 125.52 445.684 126.112 445.156 127.232ZM454.653 125.52C453.197 125.52 452.061 126.112 451.453 127.136V125.584H450.365V134H451.501V129.584C451.501 127.664 452.637 126.544 454.445 126.544C456.045 126.544 456.973 127.456 456.973 129.232V134H458.109V129.12C458.109 126.704 456.701 125.52 454.653 125.52Z" fill="#1C1B1F"/>
<rect width="35" height="17" transform="translate(400 92)" fill="white"/>
<path d="M407.5 106H408.536V97.096H411.98V96.2H404.056V97.096H407.5V106ZM414.186 100.078V98.636H413.234V106H414.228V102.248C414.228 100.512 415.166 99.532 416.706 99.532C416.776 99.532 416.86 99.546 416.944 99.546V98.58C415.586 98.58 414.648 99.098 414.186 100.078ZM419.247 97.026C419.667 97.026 419.975 96.704 419.975 96.298C419.975 95.92 419.653 95.612 419.247 95.612C418.841 95.612 418.519 95.934 418.519 96.312C418.519 96.704 418.841 97.026 419.247 97.026ZM418.743 106H419.737V98.636H418.743V106ZM426.297 98.58C425.079 98.58 424.057 99.112 423.455 100.092V98.636H422.503V108.716H423.497V104.614C424.113 105.566 425.121 106.07 426.297 106.07C428.397 106.07 429.965 104.558 429.965 102.318C429.965 100.092 428.397 98.58 426.297 98.58ZM426.227 105.188C424.659 105.188 423.483 104.04 423.483 102.318C423.483 100.61 424.659 99.448 426.227 99.448C427.781 99.448 428.971 100.61 428.971 102.318C428.971 104.04 427.781 105.188 426.227 105.188Z" fill="#112211"/>
<path d="M497.25 125L504 131.75L510.75 125" stroke="black" stroke-width="1.5" stroke-linecap="round" stroke-linejoin="round"/>
<rect x="552.5" y="100.5" width="323" height="55" rx="3.5" fill="white"/>
<rect x="552.5" y="100.5" width="323" height="55" rx="3.5" stroke="#79747E"/>
<path d="M573.296 134.096C575.888 134.096 577.776 131.968 577.776 128.4C577.776 124.832 575.888 122.704 573.296 122.704C570.704 122.704 568.832 124.832 568.832 128.4C568.832 131.968 570.704 134.096 573.296 134.096ZM573.296 133.04C571.344 133.04 570 131.392 570 128.4C570 125.408 571.344 123.76 573.296 123.76C575.248 123.76 576.592 125.408 576.592 128.4C576.592 131.392 575.248 133.04 573.296 133.04ZM578.981 122.8V125.92H580.117V123.824H585.877L581.269 134H582.517L587.205 123.616V122.8H578.981ZM602.094 122.8V131.888L594.878 122.8H593.902V134H595.086V124.912L602.286 134H603.262V122.8H602.094ZM610.118 134.08C612.582 134.08 614.39 132.288 614.39 129.792C614.39 127.296 612.582 125.52 610.118 125.52C607.654 125.52 605.83 127.296 605.83 129.792C605.83 132.288 607.654 134.08 610.118 134.08ZM610.118 133.072C608.326 133.072 606.982 131.76 606.982 129.792C606.982 127.824 608.326 126.512 610.118 126.512C611.91 126.512 613.238 127.824 613.238 129.792C613.238 131.76 611.91 133.072 610.118 133.072ZM622.427 125.584L619.243 132.752L616.091 125.584H614.907L618.635 134H619.803L623.547 125.584H622.427ZM630.07 132.976L633.878 129.232C635.382 127.76 635.718 126.8 635.718 125.728C635.718 123.856 634.278 122.704 632.006 122.704C630.294 122.704 628.902 123.28 628.038 124.304L628.854 125.008C629.59 124.16 630.598 123.76 631.91 123.76C633.622 123.76 634.534 124.56 634.534 125.856C634.534 126.624 634.294 127.376 633.03 128.624L628.374 133.184V134H636.23V132.976H630.07ZM639.164 132.976L642.972 129.232C644.476 127.76 644.812 126.8 644.812 125.728C644.812 123.856 643.372 122.704 641.1 122.704C639.388 122.704 637.996 123.28 637.132 124.304L637.948 125.008C638.684 124.16 639.692 123.76 641.004 123.76C642.716 123.76 643.628 124.56 643.628 125.856C643.628 126.624 643.388 127.376 642.124 128.624L637.468 133.184V134H645.324V132.976H639.164ZM651.085 130.16H655.277V129.168H651.085V130.16ZM660.566 122.8V123.824H663.206V134H664.358V122.8H660.566ZM670.843 127.6L674.011 123.616V122.8H666.811V123.824H672.539L669.435 127.712V128.56H670.235C672.315 128.56 673.259 129.44 673.259 130.784C673.259 132.176 672.235 133.04 670.379 133.04C668.923 133.04 667.627 132.496 666.907 131.744L666.347 132.656C667.211 133.536 668.763 134.096 670.379 134.096C673.083 134.096 674.443 132.656 674.443 130.784C674.443 128.992 673.243 127.728 670.843 127.6ZM689.438 122.8V131.888L682.222 122.8H681.246V134H682.43V124.912L689.63 134H690.606V122.8H689.438ZM697.462 134.08C699.926 134.08 701.734 132.288 701.734 129.792C701.734 127.296 699.926 125.52 697.462 125.52C694.998 125.52 693.174 127.296 693.174 129.792C693.174 132.288 694.998 134.08 697.462 134.08ZM697.462 133.072C695.67 133.072 694.326 131.76 694.326 129.792C694.326 127.824 695.67 126.512 697.462 126.512C699.254 126.512 700.582 127.824 700.582 129.792C700.582 131.76 699.254 133.072 697.462 133.072ZM709.77 125.584L706.586 132.752L703.434 125.584H702.25L705.978 134H707.146L710.89 125.584H709.77ZM717.414 132.976L721.222 129.232C722.726 127.76 723.062 126.8 723.062 125.728C723.062 123.856 721.622 122.704 719.35 122.704C717.638 122.704 716.246 123.28 715.382 124.304L716.198 125.008C716.934 124.16 717.942 123.76 719.254 123.76C720.966 123.76 721.878 124.56 721.878 125.856C721.878 126.624 721.638 127.376 720.374 128.624L715.718 133.184V134H723.574V132.976H717.414ZM726.508 132.976L730.316 129.232C731.82 127.76 732.156 126.8 732.156 125.728C732.156 123.856 730.716 122.704 728.444 122.704C726.732 122.704 725.34 123.28 724.476 124.304L725.292 125.008C726.028 124.16 727.036 123.76 728.348 123.76C730.06 123.76 730.972 124.56 730.972 125.856C730.972 126.624 730.732 127.376 729.468 128.624L724.812 133.184V134H732.668V132.976H726.508Z" fill="#1C1B1F"/>
<rect width="115" height="17" transform="translate(564 92)" fill="white"/>
<path d="M569.596 106H573.586C576.722 106 578.836 103.984 578.836 101.1C578.836 98.216 576.722 96.2 573.586 96.2H569.596V106ZM570.632 105.104V97.096H573.53C576.134 97.096 577.814 98.748 577.814 101.1C577.814 103.452 576.134 105.104 573.53 105.104H570.632ZM587.378 102.318C587.378 100.106 585.88 98.58 583.808 98.58C581.736 98.58 580.21 100.134 580.21 102.318C580.21 104.502 581.778 106.07 584.074 106.07C585.236 106.07 586.258 105.65 586.916 104.866L586.356 104.222C585.796 104.866 584.998 105.188 584.102 105.188C582.492 105.188 581.316 104.166 581.204 102.626H587.364C587.364 102.514 587.378 102.402 587.378 102.318ZM583.808 99.434C585.25 99.434 586.3 100.442 586.426 101.884H581.204C581.33 100.442 582.38 99.434 583.808 99.434ZM593.196 98.58C591.978 98.58 590.956 99.112 590.354 100.092V98.636H589.402V108.716H590.396V104.614C591.012 105.566 592.02 106.07 593.196 106.07C595.296 106.07 596.864 104.558 596.864 102.318C596.864 100.092 595.296 98.58 593.196 98.58ZM593.126 105.188C591.558 105.188 590.382 104.04 590.382 102.318C590.382 100.61 591.558 99.448 593.126 99.448C594.68 99.448 595.87 100.61 595.87 102.318C595.87 104.04 594.68 105.188 593.126 105.188ZM601.425 98.58C600.263 98.58 599.171 98.944 598.429 99.574L598.877 100.316C599.479 99.784 600.375 99.448 601.327 99.448C602.699 99.448 603.413 100.134 603.413 101.394V101.842H601.075C598.961 101.842 598.233 102.794 598.233 103.928C598.233 105.202 599.255 106.07 600.921 106.07C602.139 106.07 603.007 105.608 603.455 104.852V106H604.407V101.436C604.407 99.532 603.329 98.58 601.425 98.58ZM601.075 105.286C599.899 105.286 599.213 104.754 599.213 103.9C599.213 103.144 599.675 102.584 601.103 102.584H603.413V103.788C603.021 104.754 602.195 105.286 601.075 105.286ZM608.059 100.078V98.636H607.107V106H608.101V102.248C608.101 100.512 609.039 99.532 610.579 99.532C610.649 99.532 610.733 99.546 610.817 99.546V98.58C609.459 98.58 608.521 99.098 608.059 100.078ZM616.459 104.838C616.179 105.09 615.773 105.216 615.367 105.216C614.541 105.216 614.093 104.74 614.093 103.872V99.476H616.333V98.636H614.093V97.026H613.099V98.636H611.783V99.476H613.099V103.928C613.099 105.286 613.869 106.07 615.255 106.07C615.829 106.07 616.417 105.902 616.809 105.552L616.459 104.838ZM617.936 102.64H621.604V101.772H617.936V102.64ZM635.527 106L633.133 102.64C634.561 102.178 635.373 101.1 635.373 99.56C635.373 97.46 633.861 96.2 631.369 96.2H627.701V106H628.737V102.892H631.369C631.649 102.892 631.901 102.878 632.153 102.85L634.393 106H635.527ZM631.341 102.01H628.737V97.096H631.341C633.301 97.096 634.337 97.992 634.337 99.56C634.337 101.1 633.301 102.01 631.341 102.01ZM644.035 102.318C644.035 100.106 642.537 98.58 640.465 98.58C638.393 98.58 636.867 100.134 636.867 102.318C636.867 104.502 638.435 106.07 640.731 106.07C641.893 106.07 642.915 105.65 643.573 104.866L643.013 104.222C642.453 104.866 641.655 105.188 640.759 105.188C639.149 105.188 637.973 104.166 637.861 102.626H644.021C644.021 102.514 644.035 102.402 644.035 102.318ZM640.465 99.434C641.907 99.434 642.957 100.442 643.083 101.884H637.861C637.987 100.442 639.037 99.434 640.465 99.434ZM649.586 104.838C649.306 105.09 648.9 105.216 648.494 105.216C647.668 105.216 647.22 104.74 647.22 103.872V99.476H649.46V98.636H647.22V97.026H646.226V98.636H644.91V99.476H646.226V103.928C646.226 105.286 646.996 106.07 648.382 106.07C648.956 106.07 649.544 105.902 649.936 105.552L649.586 104.838ZM657.387 98.636V102.5C657.387 104.18 656.421 105.174 654.881 105.174C653.481 105.174 652.669 104.376 652.669 102.808V98.636H651.675V102.906C651.675 105.02 652.907 106.07 654.783 106.07C655.959 106.07 656.911 105.552 657.429 104.656V106H658.381V98.636H657.387ZM662.117 100.078V98.636H661.165V106H662.159V102.248C662.159 100.512 663.097 99.532 664.637 99.532C664.707 99.532 664.791 99.546 664.875 99.546V98.58C663.517 98.58 662.579 99.098 662.117 100.078ZM670.427 98.58C669.153 98.58 668.159 99.098 667.627 99.994V98.636H666.675V106H667.669V102.136C667.669 100.456 668.663 99.476 670.245 99.476C671.645 99.476 672.457 100.274 672.457 101.828V106H673.451V101.73C673.451 99.616 672.219 98.58 670.427 98.58Z" fill="#1C1B1F"/>
<rect x="900.5" y="100.5" width="323" height="55" rx="3.5" fill="white"/>
<rect x="900.5" y="100.5" width="323" height="55" rx="3.5" stroke="#79747E"/>
<path d="M916.144 122.8V123.824H918.784V134H919.936V122.8H916.144ZM931.985 122.8H927.793V134H928.977V130.464H931.985C934.833 130.464 936.561 129.024 936.561 126.64C936.561 124.24 934.833 122.8 931.985 122.8ZM931.953 129.424H928.977V123.824H931.953C934.193 123.824 935.377 124.848 935.377 126.64C935.377 128.4 934.193 129.424 931.953 129.424ZM941.747 125.52C940.419 125.52 939.171 125.936 938.323 126.656L938.835 127.504C939.523 126.896 940.547 126.512 941.635 126.512C943.203 126.512 944.019 127.296 944.019 128.736V129.248H941.347C938.931 129.248 938.099 130.336 938.099 131.632C938.099 133.088 939.267 134.08 941.171 134.08C942.563 134.08 943.555 133.552 944.067 132.688V134H945.155V128.784C945.155 126.608 943.923 125.52 941.747 125.52ZM941.347 133.184C940.003 133.184 939.219 132.576 939.219 131.6C939.219 130.736 939.747 130.096 941.379 130.096H944.019V131.472C943.571 132.576 942.627 133.184 941.347 133.184ZM950.496 134.08C952.688 134.08 953.968 133.136 953.968 131.68C953.968 128.448 948.512 130.16 948.512 127.888C948.512 127.088 949.184 126.496 950.704 126.496C951.568 126.496 952.448 126.704 953.184 127.216L953.68 126.304C952.976 125.824 951.792 125.52 950.704 125.52C948.56 125.52 947.376 126.544 947.376 127.92C947.376 131.248 952.832 129.52 952.832 131.712C952.832 132.544 952.176 133.088 950.576 133.088C949.392 133.088 948.256 132.672 947.584 132.144L947.072 133.04C947.76 133.632 949.104 134.08 950.496 134.08ZM958.324 134.08C960.516 134.08 961.796 133.136 961.796 131.68C961.796 128.448 956.34 130.16 956.34 127.888C956.34 127.088 957.012 126.496 958.532 126.496C959.396 126.496 960.276 126.704 961.012 127.216L961.508 126.304C960.804 125.824 959.62 125.52 958.532 125.52C956.388 125.52 955.204 126.544 955.204 127.92C955.204 131.248 960.66 129.52 960.66 131.712C960.66 132.544 960.004 133.088 958.404 133.088C957.22 133.088 956.084 132.672 955.412 132.144L954.9 133.04C955.588 133.632 956.932 134.08 958.324 134.08ZM971.241 129.792C971.241 127.264 969.529 125.52 967.161 125.52C964.793 125.52 963.049 127.296 963.049 129.792C963.049 132.288 964.841 134.08 967.465 134.08C968.793 134.08 969.961 133.6 970.713 132.704L970.073 131.968C969.433 132.704 968.521 133.072 967.497 133.072C965.657 133.072 964.312 131.904 964.185 130.144H971.225C971.225 130.016 971.241 129.888 971.241 129.792ZM967.161 126.496C968.809 126.496 970.009 127.648 970.153 129.296H964.185C964.329 127.648 965.529 126.496 967.161 126.496ZM977.841 125.52C976.385 125.52 975.249 126.112 974.641 127.136V125.584H973.553V134H974.689V129.584C974.689 127.664 975.825 126.544 977.633 126.544C979.233 126.544 980.161 127.456 980.161 129.232V134H981.297V129.12C981.297 126.704 979.889 125.52 977.841 125.52ZM991.116 125.584V127.2C990.412 126.096 989.196 125.52 987.788 125.52C985.388 125.52 983.564 127.168 983.564 129.584C983.564 132 985.388 133.68 987.788 133.68C989.164 133.68 990.364 133.12 991.068 132.048V133.12C991.068 135.2 990.092 136.176 987.964 136.176C986.668 136.176 985.452 135.744 984.652 135.024L984.076 135.888C984.956 136.72 986.46 137.184 987.996 137.184C990.78 137.184 992.204 135.872 992.204 132.976V125.584H991.116ZM987.9 132.672C986.044 132.672 984.716 131.408 984.716 129.584C984.716 127.76 986.044 126.512 987.9 126.512C989.756 126.512 991.1 127.76 991.1 129.584C991.1 131.408 989.756 132.672 987.9 132.672ZM1002.72 129.792C1002.72 127.264 1001.01 125.52 998.645 125.52C996.277 125.52 994.533 127.296 994.533 129.792C994.533 132.288 996.325 134.08 998.949 134.08C1000.28 134.08 1001.44 133.6 1002.2 132.704L1001.56 131.968C1000.92 132.704 1000 133.072 998.981 133.072C997.141 133.072 995.797 131.904 995.669 130.144H1002.71C1002.71 130.016 1002.72 129.888 1002.72 129.792ZM998.645 126.496C1000.29 126.496 1001.49 127.648 1001.64 129.296H995.669C995.813 127.648 997.013 126.496 998.645 126.496ZM1006.13 127.232V125.584H1005.04V134H1006.17V129.712C1006.17 127.728 1007.25 126.608 1009.01 126.608C1009.09 126.608 1009.18 126.624 1009.28 126.624V125.52C1007.73 125.52 1006.65 126.112 1006.13 127.232ZM1011.43 132.336C1010.95 132.336 1010.58 132.704 1010.58 133.2C1010.58 133.616 1010.82 133.92 1011.16 134.016L1010.61 136.336H1011.38L1012.05 134.128C1012.21 133.68 1012.28 133.472 1012.28 133.2C1012.28 132.72 1011.93 132.336 1011.43 132.336ZM1020.3 132.976V128.816H1026.1V127.808H1020.3V123.824H1026.8V122.8H1019.12V134H1027.04V132.976H1020.3ZM1032.95 134.08C1034.37 134.08 1035.57 133.504 1036.24 132.416L1035.4 131.84C1034.82 132.688 1033.92 133.072 1032.95 133.072C1031.11 133.072 1029.76 131.776 1029.76 129.792C1029.76 127.824 1031.11 126.512 1032.95 126.512C1033.92 126.512 1034.82 126.912 1035.4 127.76L1036.24 127.184C1035.57 126.08 1034.37 125.52 1032.95 125.52C1030.44 125.52 1028.61 127.28 1028.61 129.792C1028.61 132.304 1030.44 134.08 1032.95 134.08ZM1041.77 134.08C1044.24 134.08 1046.05 132.288 1046.05 129.792C1046.05 127.296 1044.24 125.52 1041.77 125.52C1039.31 125.52 1037.49 127.296 1037.49 129.792C1037.49 132.288 1039.31 134.08 1041.77 134.08ZM1041.77 133.072C1039.98 133.072 1038.64 131.76 1038.64 129.792C1038.64 127.824 1039.98 126.512 1041.77 126.512C1043.57 126.512 1044.89 127.824 1044.89 129.792C1044.89 131.76 1043.57 133.072 1041.77 133.072ZM1052.65 125.52C1051.2 125.52 1050.06 126.112 1049.45 127.136V125.584H1048.37V134H1049.5V129.584C1049.5 127.664 1050.64 126.544 1052.45 126.544C1054.05 126.544 1054.97 127.456 1054.97 129.232V134H1056.11V129.12C1056.11 126.704 1054.7 125.52 1052.65 125.52ZM1062.66 134.08C1065.13 134.08 1066.94 132.288 1066.94 129.792C1066.94 127.296 1065.13 125.52 1062.66 125.52C1060.2 125.52 1058.38 127.296 1058.38 129.792C1058.38 132.288 1060.2 134.08 1062.66 134.08ZM1062.66 133.072C1060.87 133.072 1059.53 131.76 1059.53 129.792C1059.53 127.824 1060.87 126.512 1062.66 126.512C1064.46 126.512 1065.78 127.824 1065.78 129.792C1065.78 131.76 1064.46 133.072 1062.66 133.072ZM1079.75 125.52C1078.23 125.52 1077.03 126.208 1076.42 127.296C1075.91 126.112 1074.82 125.52 1073.43 125.52C1072.02 125.52 1070.94 126.112 1070.34 127.12V125.584H1069.26V134H1070.39V129.584C1070.39 127.664 1071.5 126.544 1073.21 126.544C1074.74 126.544 1075.64 127.456 1075.64 129.232V134H1076.78V129.584C1076.78 127.664 1077.86 126.544 1079.59 126.544C1081.11 126.544 1082.01 127.456 1082.01 129.232V134H1083.14V129.12C1083.14 126.704 1081.8 125.52 1079.75 125.52ZM1092.02 125.584L1088.85 132.736L1085.68 125.584H1084.5L1088.26 133.984L1087.89 134.8C1087.41 135.856 1086.9 136.208 1086.15 136.208C1085.54 136.208 1085.03 135.984 1084.61 135.568L1084.08 136.416C1084.6 136.928 1085.35 137.184 1086.13 137.184C1087.33 137.184 1088.23 136.656 1088.93 135.008L1093.14 125.584H1092.02Z" fill="#1C1B1F"/>
<rect width="130" height="17" transform="translate(912 92)" fill="white"/>
<path d="M921.264 96.2H917.596V106H918.632V102.906H921.264C923.756 102.906 925.268 101.646 925.268 99.56C925.268 97.46 923.756 96.2 921.264 96.2ZM921.236 101.996H918.632V97.096H921.236C923.196 97.096 924.232 97.992 924.232 99.56C924.232 101.1 923.196 101.996 921.236 101.996ZM929.806 98.58C928.644 98.58 927.552 98.944 926.81 99.574L927.258 100.316C927.86 99.784 928.756 99.448 929.708 99.448C931.08 99.448 931.794 100.134 931.794 101.394V101.842H929.456C927.342 101.842 926.614 102.794 926.614 103.928C926.614 105.202 927.636 106.07 929.302 106.07C930.52 106.07 931.388 105.608 931.836 104.852V106H932.788V101.436C932.788 99.532 931.71 98.58 929.806 98.58ZM929.456 105.286C928.28 105.286 927.594 104.754 927.594 103.9C927.594 103.144 928.056 102.584 929.484 102.584H931.794V103.788C931.402 104.754 930.576 105.286 929.456 105.286ZM937.462 106.07C939.38 106.07 940.5 105.244 940.5 103.97C940.5 101.142 935.726 102.64 935.726 100.652C935.726 99.952 936.314 99.434 937.644 99.434C938.4 99.434 939.17 99.616 939.814 100.064L940.248 99.266C939.632 98.846 938.596 98.58 937.644 98.58C935.768 98.58 934.732 99.476 934.732 100.68C934.732 103.592 939.506 102.08 939.506 103.998C939.506 104.726 938.932 105.202 937.532 105.202C936.496 105.202 935.502 104.838 934.914 104.376L934.466 105.16C935.068 105.678 936.244 106.07 937.462 106.07ZM944.311 106.07C946.229 106.07 947.349 105.244 947.349 103.97C947.349 101.142 942.575 102.64 942.575 100.652C942.575 99.952 943.163 99.434 944.493 99.434C945.249 99.434 946.019 99.616 946.663 100.064L947.097 99.266C946.481 98.846 945.445 98.58 944.493 98.58C942.617 98.58 941.581 99.476 941.581 100.68C941.581 103.592 946.355 102.08 946.355 103.998C946.355 104.726 945.781 105.202 944.381 105.202C943.345 105.202 942.351 104.838 941.763 104.376L941.315 105.16C941.917 105.678 943.093 106.07 944.311 106.07ZM955.613 102.318C955.613 100.106 954.115 98.58 952.043 98.58C949.971 98.58 948.445 100.134 948.445 102.318C948.445 104.502 950.013 106.07 952.309 106.07C953.471 106.07 954.493 105.65 955.151 104.866L954.591 104.222C954.031 104.866 953.233 105.188 952.337 105.188C950.727 105.188 949.551 104.166 949.439 102.626H955.599C955.599 102.514 955.613 102.402 955.613 102.318ZM952.043 99.434C953.485 99.434 954.535 100.442 954.661 101.884H949.439C949.565 100.442 950.615 99.434 952.043 99.434ZM961.388 98.58C960.114 98.58 959.12 99.098 958.588 99.994V98.636H957.636V106H958.63V102.136C958.63 100.456 959.624 99.476 961.206 99.476C962.606 99.476 963.418 100.274 963.418 101.828V106H964.412V101.73C964.412 99.616 963.18 98.58 961.388 98.58ZM973.004 98.636V100.05C972.388 99.084 971.324 98.58 970.092 98.58C967.992 98.58 966.396 100.022 966.396 102.136C966.396 104.25 967.992 105.72 970.092 105.72C971.296 105.72 972.346 105.23 972.962 104.292V105.23C972.962 107.05 972.108 107.904 970.246 107.904C969.112 107.904 968.048 107.526 967.348 106.896L966.844 107.652C967.614 108.38 968.93 108.786 970.274 108.786C972.71 108.786 973.956 107.638 973.956 105.104V98.636H973.004ZM970.19 104.838C968.566 104.838 967.404 103.732 967.404 102.136C967.404 100.54 968.566 99.448 970.19 99.448C971.814 99.448 972.99 100.54 972.99 102.136C972.99 103.732 971.814 104.838 970.19 104.838ZM983.162 102.318C983.162 100.106 981.664 98.58 979.592 98.58C977.52 98.58 975.994 100.134 975.994 102.318C975.994 104.502 977.562 106.07 979.858 106.07C981.02 106.07 982.042 105.65 982.7 104.866L982.14 104.222C981.58 104.866 980.782 105.188 979.886 105.188C978.276 105.188 977.1 104.166 976.988 102.626H983.148C983.148 102.514 983.162 102.402 983.162 102.318ZM979.592 99.434C981.034 99.434 982.084 100.442 982.21 101.884H976.988C977.114 100.442 978.164 99.434 979.592 99.434ZM986.137 100.078V98.636H985.185V106H986.179V102.248C986.179 100.512 987.117 99.532 988.657 99.532C988.727 99.532 988.811 99.546 988.895 99.546V98.58C987.537 98.58 986.599 99.098 986.137 100.078ZM993.922 102.64H997.59V101.772H993.922V102.64ZM1007.94 106.084C1009.39 106.084 1010.67 105.594 1011.54 104.642L1010.88 103.984C1010.09 104.81 1009.11 105.16 1007.99 105.16C1005.62 105.16 1003.84 103.424 1003.84 101.1C1003.84 98.776 1005.62 97.04 1007.99 97.04C1009.11 97.04 1010.09 97.39 1010.88 98.202L1011.54 97.544C1010.67 96.592 1009.39 96.116 1007.96 96.116C1005 96.116 1002.82 98.23 1002.82 101.1C1002.82 103.97 1005 106.084 1007.94 106.084ZM1013.54 106H1014.53V95.612H1013.54V106ZM1019.88 98.58C1018.71 98.58 1017.62 98.944 1016.88 99.574L1017.33 100.316C1017.93 99.784 1018.83 99.448 1019.78 99.448C1021.15 99.448 1021.86 100.134 1021.86 101.394V101.842H1019.53C1017.41 101.842 1016.68 102.794 1016.68 103.928C1016.68 105.202 1017.71 106.07 1019.37 106.07C1020.59 106.07 1021.46 105.608 1021.91 104.852V106H1022.86V101.436C1022.86 99.532 1021.78 98.58 1019.88 98.58ZM1019.53 105.286C1018.35 105.286 1017.66 104.754 1017.66 103.9C1017.66 103.144 1018.13 102.584 1019.55 102.584H1021.86V103.788C1021.47 104.754 1020.65 105.286 1019.53 105.286ZM1027.53 106.07C1029.45 106.07 1030.57 105.244 1030.57 103.97C1030.57 101.142 1025.8 102.64 1025.8 100.652C1025.8 99.952 1026.38 99.434 1027.71 99.434C1028.47 99.434 1029.24 99.616 1029.88 100.064L1030.32 99.266C1029.7 98.846 1028.67 98.58 1027.71 98.58C1025.84 98.58 1024.8 99.476 1024.8 100.68C1024.8 103.592 1029.58 102.08 1029.58 103.998C1029.58 104.726 1029 105.202 1027.6 105.202C1026.57 105.202 1025.57 104.838 1024.98 104.376L1024.54 105.16C1025.14 105.678 1026.31 106.07 1027.53 106.07ZM1034.38 106.07C1036.3 106.07 1037.42 105.244 1037.42 103.97C1037.42 101.142 1032.65 102.64 1032.65 100.652C1032.65 99.952 1033.23 99.434 1034.56 99.434C1035.32 99.434 1036.09 99.616 1036.73 100.064L1037.17 99.266C1036.55 98.846 1035.52 98.58 1034.56 98.58C1032.69 98.58 1031.65 99.476 1031.65 100.68C1031.65 103.592 1036.43 102.08 1036.43 103.998C1036.43 104.726 1035.85 105.202 1034.45 105.202C1033.42 105.202 1032.42 104.838 1031.83 104.376L1031.39 105.16C1031.99 105.678 1033.16 106.07 1034.38 106.07Z" fill="#1C1B1F"/>
<path d="M922 207.5V216.5V207.5ZM926.5 212H917.5H926.5Z" fill="#112211"/>
<path d="M922 207.5V216.5M926.5 212H917.5" stroke="#112211" stroke-width="1.5" stroke-linecap="round" stroke-linejoin="round"/>
<path d="M933.986 217.5L938.424 207.7H939.81L944.262 217.5H942.792L938.83 208.484H939.39L935.428 217.5H933.986ZM935.876 215.05L936.254 213.93H941.77L942.176 215.05H935.876ZM948.526 217.584C947.807 217.584 947.163 217.425 946.594 217.108C946.034 216.791 945.59 216.347 945.264 215.778C944.937 215.209 944.774 214.546 944.774 213.79C944.774 213.034 944.937 212.376 945.264 211.816C945.59 211.247 946.034 210.803 946.594 210.486C947.163 210.169 947.807 210.01 948.526 210.01C949.151 210.01 949.716 210.15 950.22 210.43C950.724 210.71 951.125 211.13 951.424 211.69C951.732 212.25 951.886 212.95 951.886 213.79C951.886 214.63 951.736 215.33 951.438 215.89C951.148 216.45 950.752 216.875 950.248 217.164C949.744 217.444 949.17 217.584 948.526 217.584ZM948.638 216.408C949.104 216.408 949.524 216.301 949.898 216.086C950.28 215.871 950.579 215.568 950.794 215.176C951.018 214.775 951.13 214.313 951.13 213.79C951.13 213.258 951.018 212.801 950.794 212.418C950.579 212.026 950.28 211.723 949.898 211.508C949.524 211.293 949.104 211.186 948.638 211.186C948.162 211.186 947.737 211.293 947.364 211.508C946.99 211.723 946.692 212.026 946.468 212.418C946.244 212.801 946.132 213.258 946.132 213.79C946.132 214.313 946.244 214.775 946.468 215.176C946.692 215.568 946.99 215.871 947.364 216.086C947.737 216.301 948.162 216.408 948.638 216.408ZM951.172 217.5V215.498L951.256 213.776L951.116 212.054V207.112H952.46V217.5H951.172ZM958.069 217.584C957.35 217.584 956.706 217.425 956.137 217.108C955.577 216.791 955.133 216.347 954.807 215.778C954.48 215.209 954.317 214.546 954.317 213.79C954.317 213.034 954.48 212.376 954.807 211.816C955.133 211.247 955.577 210.803 956.137 210.486C956.706 210.169 957.35 210.01 958.069 210.01C958.694 210.01 959.259 210.15 959.763 210.43C960.267 210.71 960.668 211.13 960.967 211.69C961.275 212.25 961.429 212.95 961.429 213.79C961.429 214.63 961.279 215.33 960.981 215.89C960.691 216.45 960.295 216.875 959.791 217.164C959.287 217.444 958.713 217.584 958.069 217.584ZM958.181 216.408C958.647 216.408 959.067 216.301 959.441 216.086C959.823 215.871 960.122 215.568 960.337 215.176C960.561 214.775 960.673 214.313 960.673 213.79C960.673 213.258 960.561 212.801 960.337 212.418C960.122 212.026 959.823 211.723 959.441 211.508C959.067 211.293 958.647 211.186 958.181 211.186C957.705 211.186 957.28 211.293 956.907 211.508C956.533 211.723 956.235 212.026 956.011 212.418C955.787 212.801 955.675 213.258 955.675 213.79C955.675 214.313 955.787 214.775 956.011 215.176C956.235 215.568 956.533 215.871 956.907 216.086C957.28 216.301 957.705 216.408 958.181 216.408ZM960.715 217.5V215.498L960.799 213.776L960.659 212.054V207.112H962.003V217.5H960.715ZM968.501 217.5V207.7H972.323C973.182 207.7 973.915 207.835 974.521 208.106C975.128 208.377 975.595 208.769 975.921 209.282C976.248 209.795 976.411 210.407 976.411 211.116C976.411 211.825 976.248 212.437 975.921 212.95C975.595 213.454 975.128 213.846 974.521 214.126C973.915 214.397 973.182 214.532 972.323 214.532H969.271L969.901 213.874V217.5H968.501ZM969.901 214.014L969.271 213.314H972.281C973.177 213.314 973.854 213.123 974.311 212.74C974.778 212.357 975.011 211.816 975.011 211.116C975.011 210.416 974.778 209.875 974.311 209.492C973.854 209.109 973.177 208.918 972.281 208.918H969.271L969.901 208.218V214.014ZM978.135 217.5V210.08H979.423V212.096L979.297 211.592C979.503 211.079 979.848 210.687 980.333 210.416C980.819 210.145 981.416 210.01 982.125 210.01V211.312C982.069 211.303 982.013 211.298 981.957 211.298C981.911 211.298 981.864 211.298 981.817 211.298C981.099 211.298 980.529 211.513 980.109 211.942C979.689 212.371 979.479 212.992 979.479 213.804V217.5H978.135ZM986.891 217.584C986.145 217.584 985.482 217.421 984.903 217.094C984.325 216.767 983.867 216.319 983.531 215.75C983.195 215.171 983.027 214.518 983.027 213.79C983.027 213.053 983.195 212.399 983.531 211.83C983.867 211.261 984.325 210.817 984.903 210.5C985.482 210.173 986.145 210.01 986.891 210.01C987.629 210.01 988.287 210.173 988.865 210.5C989.453 210.817 989.911 211.261 990.237 211.83C990.573 212.39 990.741 213.043 990.741 213.79C990.741 214.527 990.573 215.181 990.237 215.75C989.911 216.319 989.453 216.767 988.865 217.094C988.287 217.421 987.629 217.584 986.891 217.584ZM986.891 216.408C987.367 216.408 987.792 216.301 988.165 216.086C988.548 215.871 988.847 215.568 989.061 215.176C989.276 214.775 989.383 214.313 989.383 213.79C989.383 213.258 989.276 212.801 989.061 212.418C988.847 212.026 988.548 211.723 988.165 211.508C987.792 211.293 987.367 211.186 986.891 211.186C986.415 211.186 985.991 211.293 985.617 211.508C985.244 211.723 984.945 212.026 984.721 212.418C984.497 212.801 984.385 213.258 984.385 213.79C984.385 214.313 984.497 214.775 984.721 215.176C984.945 215.568 985.244 215.871 985.617 216.086C985.991 216.301 986.415 216.408 986.891 216.408ZM1001.88 210.01C1002.48 210.01 1003.01 210.127 1003.46 210.36C1003.92 210.593 1004.28 210.948 1004.53 211.424C1004.79 211.9 1004.92 212.502 1004.92 213.23V217.5H1003.58V213.384C1003.58 212.665 1003.41 212.124 1003.07 211.76C1002.74 211.396 1002.26 211.214 1001.66 211.214C1001.21 211.214 1000.82 211.307 1000.48 211.494C1000.15 211.681 999.885 211.956 999.698 212.32C999.521 212.684 999.432 213.137 999.432 213.678V217.5H998.088V213.384C998.088 212.665 997.92 212.124 997.584 211.76C997.258 211.396 996.786 211.214 996.17 211.214C995.732 211.214 995.344 211.307 995.008 211.494C994.672 211.681 994.411 211.956 994.224 212.32C994.038 212.684 993.944 213.137 993.944 213.678V217.5H992.6V210.08H993.888V212.054L993.678 211.55C993.912 211.065 994.271 210.687 994.756 210.416C995.242 210.145 995.806 210.01 996.45 210.01C997.16 210.01 997.771 210.187 998.284 210.542C998.798 210.887 999.134 211.415 999.292 212.124L998.746 211.9C998.97 211.331 999.362 210.873 999.922 210.528C1000.48 210.183 1001.14 210.01 1001.88 210.01ZM1010.57 217.584C1009.82 217.584 1009.16 217.421 1008.58 217.094C1008 216.767 1007.55 216.319 1007.21 215.75C1006.88 215.171 1006.71 214.518 1006.71 213.79C1006.71 213.053 1006.88 212.399 1007.21 211.83C1007.55 211.261 1008 210.817 1008.58 210.5C1009.16 210.173 1009.82 210.01 1010.57 210.01C1011.31 210.01 1011.97 210.173 1012.55 210.5C1013.13 210.817 1013.59 211.261 1013.92 211.83C1014.25 212.39 1014.42 213.043 1014.42 213.79C1014.42 214.527 1014.25 215.181 1013.92 215.75C1013.59 216.319 1013.13 216.767 1012.55 217.094C1011.97 217.421 1011.31 217.584 1010.57 217.584ZM1010.57 216.408C1011.05 216.408 1011.47 216.301 1011.85 216.086C1012.23 215.871 1012.53 215.568 1012.74 215.176C1012.96 214.775 1013.06 214.313 1013.06 213.79C1013.06 213.258 1012.96 212.801 1012.74 212.418C1012.53 212.026 1012.23 211.723 1011.85 211.508C1011.47 211.293 1011.05 211.186 1010.57 211.186C1010.1 211.186 1009.67 211.293 1009.3 211.508C1008.92 211.723 1008.63 212.026 1008.4 212.418C1008.18 212.801 1008.07 213.258 1008.07 213.79C1008.07 214.313 1008.18 214.775 1008.4 215.176C1008.63 215.568 1008.92 215.871 1009.3 216.086C1009.67 216.301 1010.1 216.408 1010.57 216.408ZM1024.62 217.612C1023.87 217.612 1023.18 217.491 1022.55 217.248C1021.92 216.996 1021.37 216.646 1020.91 216.198C1020.45 215.741 1020.09 215.209 1019.83 214.602C1019.57 213.995 1019.44 213.328 1019.44 212.6C1019.44 211.872 1019.57 211.205 1019.83 210.598C1020.09 209.991 1020.45 209.464 1020.92 209.016C1021.39 208.559 1021.93 208.209 1022.56 207.966C1023.19 207.714 1023.88 207.588 1024.63 207.588C1025.39 207.588 1026.08 207.719 1026.72 207.98C1027.36 208.232 1027.91 208.61 1028.36 209.114L1027.45 209.996C1027.07 209.604 1026.65 209.315 1026.19 209.128C1025.72 208.932 1025.22 208.834 1024.69 208.834C1024.14 208.834 1023.62 208.927 1023.15 209.114C1022.68 209.301 1022.27 209.562 1021.93 209.898C1021.58 210.234 1021.31 210.635 1021.12 211.102C1020.93 211.559 1020.84 212.059 1020.84 212.6C1020.84 213.141 1020.93 213.645 1021.12 214.112C1021.31 214.569 1021.58 214.966 1021.93 215.302C1022.27 215.638 1022.68 215.899 1023.15 216.086C1023.62 216.273 1024.14 216.366 1024.69 216.366C1025.22 216.366 1025.72 216.273 1026.19 216.086C1026.65 215.89 1027.07 215.591 1027.45 215.19L1028.36 216.072C1027.91 216.576 1027.36 216.959 1026.72 217.22C1026.08 217.481 1025.38 217.612 1024.62 217.612ZM1033.02 217.584C1032.27 217.584 1031.61 217.421 1031.03 217.094C1030.45 216.767 1030 216.319 1029.66 215.75C1029.32 215.171 1029.16 214.518 1029.16 213.79C1029.16 213.053 1029.32 212.399 1029.66 211.83C1030 211.261 1030.45 210.817 1031.03 210.5C1031.61 210.173 1032.27 210.01 1033.02 210.01C1033.76 210.01 1034.42 210.173 1034.99 210.5C1035.58 210.817 1036.04 211.261 1036.37 211.83C1036.7 212.39 1036.87 213.043 1036.87 213.79C1036.87 214.527 1036.7 215.181 1036.37 215.75C1036.04 216.319 1035.58 216.767 1034.99 217.094C1034.42 217.421 1033.76 217.584 1033.02 217.584ZM1033.02 216.408C1033.5 216.408 1033.92 216.301 1034.29 216.086C1034.68 215.871 1034.98 215.568 1035.19 215.176C1035.41 214.775 1035.51 214.313 1035.51 213.79C1035.51 213.258 1035.41 212.801 1035.19 212.418C1034.98 212.026 1034.68 211.723 1034.29 211.508C1033.92 211.293 1033.5 211.186 1033.02 211.186C1032.54 211.186 1032.12 211.293 1031.75 211.508C1031.37 211.723 1031.07 212.026 1030.85 212.418C1030.63 212.801 1030.51 213.258 1030.51 213.79C1030.51 214.313 1030.63 214.775 1030.85 215.176C1031.07 215.568 1031.37 215.871 1031.75 216.086C1032.12 216.301 1032.54 216.408 1033.02 216.408ZM1041.8 217.584C1041.08 217.584 1040.43 217.425 1039.86 217.108C1039.3 216.791 1038.86 216.347 1038.53 215.778C1038.21 215.209 1038.04 214.546 1038.04 213.79C1038.04 213.034 1038.21 212.376 1038.53 211.816C1038.86 211.247 1039.3 210.803 1039.86 210.486C1040.43 210.169 1041.08 210.01 1041.8 210.01C1042.42 210.01 1042.99 210.15 1043.49 210.43C1043.99 210.71 1044.39 211.13 1044.69 211.69C1045 212.25 1045.16 212.95 1045.16 213.79C1045.16 214.63 1045.01 215.33 1044.71 215.89C1044.42 216.45 1044.02 216.875 1043.52 217.164C1043.01 217.444 1042.44 217.584 1041.8 217.584ZM1041.91 216.408C1042.37 216.408 1042.79 216.301 1043.17 216.086C1043.55 215.871 1043.85 215.568 1044.06 215.176C1044.29 214.775 1044.4 214.313 1044.4 213.79C1044.4 213.258 1044.29 212.801 1044.06 212.418C1043.85 212.026 1043.55 211.723 1043.17 211.508C1042.79 211.293 1042.37 211.186 1041.91 211.186C1041.43 211.186 1041.01 211.293 1040.63 211.508C1040.26 211.723 1039.96 212.026 1039.74 212.418C1039.51 212.801 1039.4 213.258 1039.4 213.79C1039.4 214.313 1039.51 214.775 1039.74 215.176C1039.96 215.568 1040.26 215.871 1040.63 216.086C1041.01 216.301 1041.43 216.408 1041.91 216.408ZM1044.44 217.5V215.498L1044.53 213.776L1044.39 212.054V207.112H1045.73V217.5H1044.44ZM1051.58 217.584C1050.78 217.584 1050.08 217.421 1049.48 217.094C1048.88 216.767 1048.41 216.319 1048.08 215.75C1047.75 215.181 1047.59 214.527 1047.59 213.79C1047.59 213.053 1047.74 212.399 1048.06 211.83C1048.39 211.261 1048.83 210.817 1049.39 210.5C1049.96 210.173 1050.6 210.01 1051.31 210.01C1052.03 210.01 1052.66 210.169 1053.21 210.486C1053.76 210.803 1054.19 211.251 1054.5 211.83C1054.82 212.399 1054.98 213.067 1054.98 213.832C1054.98 213.888 1054.97 213.953 1054.96 214.028C1054.96 214.103 1054.96 214.173 1054.95 214.238H1048.64V213.272H1054.25L1053.7 213.608C1053.71 213.132 1053.62 212.707 1053.41 212.334C1053.2 211.961 1052.92 211.671 1052.56 211.466C1052.2 211.251 1051.79 211.144 1051.31 211.144C1050.84 211.144 1050.43 211.251 1050.06 211.466C1049.7 211.671 1049.42 211.965 1049.21 212.348C1049 212.721 1048.9 213.151 1048.9 213.636V213.86C1048.9 214.355 1049.01 214.798 1049.24 215.19C1049.47 215.573 1049.79 215.871 1050.2 216.086C1050.61 216.301 1051.09 216.408 1051.62 216.408C1052.06 216.408 1052.45 216.333 1052.81 216.184C1053.17 216.035 1053.49 215.811 1053.76 215.512L1054.5 216.38C1054.17 216.772 1053.75 217.071 1053.24 217.276C1052.75 217.481 1052.19 217.584 1051.58 217.584Z" fill="#112211"/>
<rect x="1080" y="188" width="144" height="48" rx="4" fill="#8DD3BB"/>
<path d="M1105.47 219H1105.5C1105.65 219.001 1105.81 218.955 1105.93 218.869C1106.06 218.783 1106.16 218.66 1106.22 218.517L1106.2 218.509L1106.2 218.508C1106.14 218.647 1106.04 218.766 1105.92 218.85C1105.8 218.933 1105.65 218.977 1105.5 218.977H1105.5H1105.47M1105.47 219L1105.47 218.977C1105.47 218.977 1105.47 218.977 1105.47 218.977M1105.47 219V218.977H1105.47M1105.47 219L1105.47 218.977M1105.47 218.977C1105.17 218.963 1104.93 218.766 1104.83 218.484L1104.83 218.484C1104.83 218.479 1104.83 218.473 1104.83 218.468L1104.83 218.468L1104.83 218.465L1102.99 214.173C1102.97 214.094 1102.97 214.009 1102.98 213.929C1103 213.847 1103.04 213.773 1103.1 213.712L1105.47 218.977ZM1110.76 205.237C1110.86 205.336 1110.93 205.462 1110.96 205.6C1110.99 205.737 1110.98 205.88 1110.93 206.011L1110.93 206.011L1106.2 218.508L1103.1 213.712L1109.52 206.829C1109.52 206.829 1109.52 206.829 1109.52 206.829C1109.54 206.806 1109.56 206.779 1109.57 206.75C1109.58 206.72 1109.59 206.688 1109.59 206.656C1109.59 206.624 1109.58 206.592 1109.57 206.563C1109.56 206.533 1109.54 206.506 1109.52 206.483C1109.49 206.461 1109.47 206.443 1109.44 206.43C1109.41 206.418 1109.38 206.412 1109.34 206.412C1109.31 206.412 1109.28 206.418 1109.25 206.43C1109.22 206.443 1109.19 206.461 1109.17 206.483C1109.17 206.483 1109.17 206.483 1109.17 206.483L1102.29 212.899C1102.22 212.956 1102.15 212.996 1102.07 213.015C1101.99 213.033 1101.9 213.031 1101.82 213.007L1097.53 211.175L1097.53 211.175L1097.53 211.174L1097.52 211.17C1097.52 211.17 1097.52 211.17 1097.52 211.17C1097.38 211.123 1097.25 211.033 1097.17 210.912C1097.08 210.792 1097.03 210.647 1097.02 210.497C1097.02 210.348 1097.06 210.201 1097.15 210.077C1097.23 209.954 1097.35 209.859 1097.48 209.805V209.806L1097.49 209.803L1109.99 205.072L1109.99 205.072C1110.12 205.022 1110.27 205.011 1110.4 205.04C1110.54 205.07 1110.67 205.138 1110.76 205.237ZM1110.76 205.237C1110.76 205.237 1110.76 205.237 1110.76 205.237L1110.78 205.22L1110.76 205.237Z" fill="black" stroke="#112211" stroke-width="0.046875"/>
<path d="M1120.33 217.612C1119.59 217.612 1118.87 217.5 1118.18 217.276C1117.5 217.043 1116.97 216.744 1116.57 216.38L1117.09 215.288C1117.47 215.624 1117.94 215.899 1118.52 216.114C1119.11 216.319 1119.71 216.422 1120.33 216.422C1121.14 216.422 1121.74 216.287 1122.15 216.016C1122.55 215.736 1122.75 215.367 1122.75 214.91C1122.75 214.574 1122.64 214.303 1122.41 214.098C1122.2 213.883 1121.93 213.72 1121.6 213.608C1121.28 213.496 1120.83 213.37 1120.24 213.23C1119.5 213.053 1118.91 212.875 1118.45 212.698C1118 212.521 1117.61 212.25 1117.29 211.886C1116.97 211.513 1116.81 211.013 1116.81 210.388C1116.81 209.865 1116.95 209.394 1117.22 208.974C1117.5 208.554 1117.92 208.218 1118.48 207.966C1119.04 207.714 1119.73 207.588 1120.56 207.588C1121.14 207.588 1121.71 207.663 1122.27 207.812C1122.83 207.961 1123.31 208.176 1123.71 208.456L1123.25 209.576C1122.84 209.315 1122.4 209.119 1121.94 208.988C1121.47 208.848 1121.01 208.778 1120.56 208.778C1119.77 208.778 1119.17 208.923 1118.77 209.212C1118.38 209.501 1118.18 209.875 1118.18 210.332C1118.18 210.668 1118.3 210.943 1118.52 211.158C1118.74 211.363 1119.02 211.527 1119.35 211.648C1119.68 211.76 1120.13 211.881 1120.7 212.012C1121.44 212.189 1122.03 212.367 1122.48 212.544C1122.93 212.721 1123.31 212.992 1123.63 213.356C1123.96 213.72 1124.12 214.21 1124.12 214.826C1124.12 215.339 1123.98 215.811 1123.7 216.24C1123.42 216.66 1123 216.996 1122.43 217.248C1121.86 217.491 1121.16 217.612 1120.33 217.612ZM1129.93 210.01C1130.87 210.01 1131.62 210.285 1132.17 210.836C1132.73 211.377 1133.01 212.175 1133.01 213.23V217.5H1131.67V213.384C1131.67 212.665 1131.49 212.124 1131.15 211.76C1130.8 211.396 1130.31 211.214 1129.67 211.214C1128.94 211.214 1128.36 211.429 1127.94 211.858C1127.52 212.278 1127.31 212.885 1127.31 213.678V217.5H1125.97V207.112H1127.31V211.13C1127.59 210.775 1127.96 210.5 1128.41 210.304C1128.86 210.108 1129.37 210.01 1129.93 210.01ZM1138.72 217.584C1137.98 217.584 1137.32 217.421 1136.73 217.094C1136.14 216.767 1135.68 216.319 1135.34 215.75C1135.02 215.171 1134.85 214.518 1134.85 213.79C1134.85 213.062 1135.02 212.413 1135.34 211.844C1135.68 211.265 1136.14 210.817 1136.73 210.5C1137.32 210.173 1137.98 210.01 1138.72 210.01C1139.45 210.01 1140.11 210.173 1140.69 210.5C1141.28 210.817 1141.74 211.265 1142.06 211.844C1142.4 212.413 1142.57 213.062 1142.57 213.79C1142.57 214.518 1142.4 215.171 1142.06 215.75C1141.74 216.319 1141.28 216.767 1140.69 217.094C1140.11 217.421 1139.45 217.584 1138.72 217.584ZM1138.72 216.408C1139.19 216.408 1139.62 216.301 1139.99 216.086C1140.37 215.862 1140.67 215.554 1140.89 215.162C1141.1 214.761 1141.21 214.303 1141.21 213.79C1141.21 213.277 1141.1 212.824 1140.89 212.432C1140.67 212.031 1140.37 211.723 1139.99 211.508C1139.62 211.293 1139.19 211.186 1138.72 211.186C1138.24 211.186 1137.81 211.293 1137.43 211.508C1137.06 211.723 1136.76 212.031 1136.53 212.432C1136.32 212.824 1136.21 213.277 1136.21 213.79C1136.21 214.303 1136.32 214.761 1136.53 215.162C1136.76 215.554 1137.06 215.862 1137.43 216.086C1137.81 216.301 1138.24 216.408 1138.72 216.408ZM1155.45 210.08L1152.68 217.5H1151.39L1149.25 211.872L1147.08 217.5H1145.79L1143.03 210.08H1144.31L1146.46 215.988L1148.7 210.08H1149.84L1152.03 216.016L1154.25 210.08H1155.45ZM1162.17 208.918V212.334H1167.08V213.538H1162.17V217.5H1160.77V207.7H1167.68V208.918H1162.17ZM1169.32 210.08H1170.67V217.5H1169.32V210.08ZM1169.99 208.652C1169.73 208.652 1169.51 208.568 1169.34 208.4C1169.17 208.232 1169.08 208.027 1169.08 207.784C1169.08 207.541 1169.17 207.336 1169.34 207.168C1169.51 206.991 1169.73 206.902 1169.99 206.902C1170.26 206.902 1170.47 206.986 1170.64 207.154C1170.82 207.313 1170.9 207.513 1170.9 207.756C1170.9 208.008 1170.82 208.223 1170.64 208.4C1170.47 208.568 1170.26 208.652 1169.99 208.652ZM1173.23 207.112H1174.58V217.5H1173.23V207.112ZM1184.24 210.08V216.492C1184.24 217.789 1183.92 218.746 1183.28 219.362C1182.63 219.987 1181.67 220.3 1180.39 220.3C1179.69 220.3 1179.02 220.202 1178.39 220.006C1177.75 219.819 1177.24 219.549 1176.85 219.194L1177.49 218.158C1177.84 218.457 1178.26 218.69 1178.77 218.858C1179.28 219.035 1179.81 219.124 1180.35 219.124C1181.22 219.124 1181.86 218.919 1182.27 218.508C1182.69 218.097 1182.9 217.472 1182.9 216.632V216.044C1182.58 216.427 1182.19 216.716 1181.72 216.912C1181.26 217.099 1180.76 217.192 1180.22 217.192C1179.51 217.192 1178.87 217.043 1178.29 216.744C1177.72 216.436 1177.27 216.011 1176.95 215.47C1176.62 214.919 1176.46 214.294 1176.46 213.594C1176.46 212.894 1176.62 212.273 1176.95 211.732C1177.27 211.181 1177.72 210.757 1178.29 210.458C1178.87 210.159 1179.51 210.01 1180.22 210.01C1180.78 210.01 1181.3 210.113 1181.78 210.318C1182.26 210.523 1182.66 210.827 1182.97 211.228V210.08H1184.24ZM1180.38 216.016C1180.86 216.016 1181.3 215.913 1181.68 215.708C1182.07 215.503 1182.37 215.218 1182.59 214.854C1182.81 214.481 1182.93 214.061 1182.93 213.594C1182.93 212.875 1182.69 212.297 1182.21 211.858C1181.74 211.41 1181.12 211.186 1180.38 211.186C1179.62 211.186 1179.01 211.41 1178.53 211.858C1178.05 212.297 1177.82 212.875 1177.82 213.594C1177.82 214.061 1177.92 214.481 1178.14 214.854C1178.36 215.218 1178.66 215.503 1179.05 215.708C1179.44 215.913 1179.88 216.016 1180.38 216.016ZM1190.77 210.01C1191.71 210.01 1192.46 210.285 1193.01 210.836C1193.57 211.377 1193.85 212.175 1193.85 213.23V217.5H1192.51V213.384C1192.51 212.665 1192.33 212.124 1191.99 211.76C1191.64 211.396 1191.15 211.214 1190.51 211.214C1189.78 211.214 1189.2 211.429 1188.78 211.858C1188.36 212.278 1188.15 212.885 1188.15 213.678V217.5H1186.81V207.112H1188.15V211.13C1188.43 210.775 1188.8 210.5 1189.25 210.304C1189.7 210.108 1190.21 210.01 1190.77 210.01ZM1200.51 217.066C1200.31 217.234 1200.07 217.365 1199.78 217.458C1199.49 217.542 1199.19 217.584 1198.89 217.584C1198.14 217.584 1197.56 217.383 1197.15 216.982C1196.74 216.581 1196.53 216.007 1196.53 215.26V211.186H1195.27V210.08H1196.53V208.456H1197.88V210.08H1200.01V211.186H1197.88V215.204C1197.88 215.605 1197.98 215.913 1198.17 216.128C1198.38 216.343 1198.67 216.45 1199.04 216.45C1199.45 216.45 1199.8 216.333 1200.09 216.1L1200.51 217.066ZM1204.26 217.584C1203.66 217.584 1203.07 217.505 1202.51 217.346C1201.95 217.178 1201.51 216.968 1201.2 216.716L1201.76 215.652C1202.08 215.885 1202.48 216.072 1202.95 216.212C1203.41 216.352 1203.89 216.422 1204.36 216.422C1205.54 216.422 1206.13 216.086 1206.13 215.414C1206.13 215.19 1206.05 215.013 1205.89 214.882C1205.73 214.751 1205.53 214.658 1205.29 214.602C1205.05 214.537 1204.72 214.467 1204.28 214.392C1203.68 214.299 1203.19 214.191 1202.81 214.07C1202.43 213.949 1202.11 213.743 1201.84 213.454C1201.57 213.165 1201.44 212.759 1201.44 212.236C1201.44 211.564 1201.72 211.027 1202.28 210.626C1202.84 210.215 1203.59 210.01 1204.53 210.01C1205.02 210.01 1205.52 210.071 1206.01 210.192C1206.51 210.313 1206.91 210.477 1207.23 210.682L1206.66 211.746C1206.05 211.354 1205.34 211.158 1204.52 211.158C1203.95 211.158 1203.51 211.251 1203.21 211.438C1202.91 211.625 1202.77 211.872 1202.77 212.18C1202.77 212.423 1202.85 212.614 1203.02 212.754C1203.19 212.894 1203.39 212.997 1203.63 213.062C1203.89 213.127 1204.24 213.202 1204.68 213.286C1205.28 213.389 1205.76 213.501 1206.13 213.622C1206.5 213.734 1206.82 213.93 1207.08 214.21C1207.34 214.49 1207.47 214.882 1207.47 215.386C1207.47 216.058 1207.18 216.595 1206.6 216.996C1206.03 217.388 1205.25 217.584 1204.26 217.584Z" fill="#112211"/>
</g>
<defs>
<filter id="filter0_d_69_4966" x="0" y="0" width="1264" height="304" filterUnits="userSpaceOnUse" color-interpolation-filters="sRGB">
<feFlood flood-opacity="0" result="BackgroundImageFix"/>
<feColorMatrix in="SourceAlpha" type="matrix" values="0 0 0 0 0 0 0 0 0 0 0 0 0 0 0 0 0 0 127 0" result="hardAlpha"/>
<feOffset dy="4"/>
<feGaussianBlur stdDeviation="8"/>
<feComposite in2="hardAlpha" operator="out"/>
<feColorMatrix type="matrix" values="0 0 0 0 0.552941 0 0 0 0 0.827451 0 0 0 0 0.733333 0 0 0 0.15 0"/>
<feBlend mode="normal" in2="BackgroundImageFix" result="effect1_dropShadow_69_4966"/>
<feBlend mode="normal" in="SourceGraphic" in2="effect1_dropShadow_69_4966" result="shape"/>
</filter>
</defs>
</svg>
