<svg width="80" height="41" viewBox="0 0 80 41" fill="none" xmlns="http://www.w3.org/2000/svg">
<rect x="0.5" y="1" width="79" height="39" rx="3.5" stroke="#8DD3BB"/>
<path d="M20.326 26.112C19.5887 26.112 18.8747 26 18.184 25.776C17.5027 25.5427 16.966 25.244 16.574 24.88L17.092 23.788C17.4653 24.124 17.9413 24.3993 18.52 24.614C19.108 24.8193 19.71 24.922 20.326 24.922C21.138 24.922 21.7447 24.7867 22.146 24.516C22.5473 24.236 22.748 23.8673 22.748 23.41C22.748 23.074 22.636 22.8033 22.412 22.598C22.1973 22.3833 21.9267 22.22 21.6 22.108C21.2827 21.996 20.83 21.87 20.242 21.73C19.5047 21.5527 18.9073 21.3753 18.45 21.198C18.002 21.0207 17.6147 20.75 17.288 20.386C16.9707 20.0127 16.812 19.5133 16.812 18.888C16.812 18.3653 16.9473 17.894 17.218 17.474C17.498 17.054 17.918 16.718 18.478 16.466C19.038 16.214 19.7333 16.088 20.564 16.088C21.1427 16.088 21.712 16.1627 22.272 16.312C22.832 16.4613 23.3127 16.676 23.714 16.956L23.252 18.076C22.8413 17.8147 22.4027 17.6187 21.936 17.488C21.4693 17.348 21.012 17.278 20.564 17.278C19.7707 17.278 19.1733 17.4227 18.772 17.712C18.38 18.0013 18.184 18.3747 18.184 18.832C18.184 19.168 18.296 19.4433 18.52 19.658C18.744 19.8633 19.0193 20.0267 19.346 20.148C19.682 20.26 20.1347 20.3813 20.704 20.512C21.4413 20.6893 22.034 20.8667 22.482 21.044C22.93 21.2213 23.3127 21.492 23.63 21.856C23.9567 22.22 24.12 22.71 24.12 23.326C24.12 23.8393 23.98 24.3107 23.7 24.74C23.42 25.16 22.9953 25.496 22.426 25.748C21.8567 25.9907 21.1567 26.112 20.326 26.112ZM32.6753 22.332C32.6753 22.4347 32.666 22.57 32.6473 22.738H26.6273C26.7113 23.3913 26.996 23.9187 27.4813 24.32C27.976 24.712 28.5873 24.908 29.3153 24.908C30.202 24.908 30.916 24.6093 31.4573 24.012L32.1993 24.88C31.8633 25.272 31.4433 25.5707 30.9393 25.776C30.4446 25.9813 29.8893 26.084 29.2733 26.084C28.4893 26.084 27.794 25.9253 27.1873 25.608C26.5806 25.2813 26.1093 24.8287 25.7733 24.25C25.4466 23.6713 25.2833 23.018 25.2833 22.29C25.2833 21.5713 25.442 20.9227 25.7593 20.344C26.086 19.7653 26.5293 19.3173 27.0893 19C27.6586 18.6733 28.298 18.51 29.0073 18.51C29.7166 18.51 30.3466 18.6733 30.8973 19C31.4573 19.3173 31.8913 19.7653 32.1993 20.344C32.5166 20.9227 32.6753 21.5853 32.6753 22.332ZM29.0073 19.644C28.3633 19.644 27.822 19.84 27.3833 20.232C26.954 20.624 26.702 21.1373 26.6273 21.772H31.3873C31.3126 21.1467 31.056 20.638 30.6173 20.246C30.188 19.8447 29.6513 19.644 29.0073 19.644ZM41.2476 22.332C41.2476 22.4347 41.2382 22.57 41.2196 22.738H35.1996C35.2836 23.3913 35.5682 23.9187 36.0536 24.32C36.5482 24.712 37.1596 24.908 37.8876 24.908C38.7742 24.908 39.4882 24.6093 40.0296 24.012L40.7716 24.88C40.4356 25.272 40.0156 25.5707 39.5116 25.776C39.0169 25.9813 38.4616 26.084 37.8456 26.084C37.0616 26.084 36.3662 25.9253 35.7596 25.608C35.1529 25.2813 34.6816 24.8287 34.3456 24.25C34.0189 23.6713 33.8556 23.018 33.8556 22.29C33.8556 21.5713 34.0142 20.9227 34.3316 20.344C34.6582 19.7653 35.1016 19.3173 35.6616 19C36.2309 18.6733 36.8702 18.51 37.5796 18.51C38.2889 18.51 38.9189 18.6733 39.4696 19C40.0296 19.3173 40.4636 19.7653 40.7716 20.344C41.0889 20.9227 41.2476 21.5853 41.2476 22.332ZM37.5796 19.644C36.9356 19.644 36.3942 19.84 35.9556 20.232C35.5262 20.624 35.2742 21.1373 35.1996 21.772H39.9596C39.8849 21.1467 39.6282 20.638 39.1896 20.246C38.7602 19.8447 38.2236 19.644 37.5796 19.644ZM53.3136 23.55H48.1056L47.0276 26H45.5856L50.0236 16.2H51.4096L55.8616 26H54.3916L53.3136 23.55ZM52.8236 22.43L50.7096 17.628L48.5956 22.43H52.8236ZM57.1275 15.612H58.4715V26H57.1275V15.612ZM61.0377 15.612H62.3817V26H61.0377V15.612Z" fill="#112211"/>
</svg>
