<svg width="48" height="49" viewBox="0 0 48 49" fill="none" xmlns="http://www.w3.org/2000/svg">
<rect x="0.5" y="1" width="47" height="47" rx="3.5" stroke="#8DD3BB"/>
<path d="M24.0004 32L24.0005 31.9766C23.7543 31.9763 23.5139 31.9019 23.3105 31.7631L23.3105 31.763C20.2423 29.6802 18.9147 28.2528 18.183 27.3613C16.6234 25.4605 15.8778 23.5107 15.8989 21.3998C15.9234 18.986 17.8599 17.0234 20.2145 17.0234C21.9268 17.0234 23.1134 17.9878 23.8057 18.793L23.8058 18.7931C23.83 18.821 23.8599 18.8433 23.8935 18.8586C23.9271 18.8739 23.9635 18.8819 24.0004 18.8819C24.0373 18.8819 24.0738 18.8739 24.1074 18.8586C24.141 18.8433 24.1709 18.821 24.1951 18.7931L24.1952 18.793C24.8874 17.9871 26.0741 17.0234 27.7864 17.0234C30.141 17.0234 32.0775 18.986 32.102 21.4002C32.123 23.5114 31.3767 25.4613 29.8179 27.3617C29.0862 28.2532 27.7586 29.6806 24.6904 31.7634L24.6904 31.7634C24.487 31.9021 24.2466 31.9764 24.0004 31.9766L24.0004 32ZM24.0004 32C24.2513 31.9998 24.4963 31.9241 24.7036 31.7828L24.1774 18.7777C24.1554 18.8031 24.1282 18.8234 24.0977 18.8373C24.0671 18.8512 24.034 18.8584 24.0004 18.8584C23.9669 18.8584 23.9337 18.8512 23.9032 18.8373C23.8727 18.8234 23.8455 18.8031 23.8235 18.7777C23.129 17.9699 21.9364 17 20.2145 17C17.8465 17 15.9 18.9734 15.8754 21.3996C15.8543 23.5168 16.6024 25.4719 18.1649 27.3762C18.8981 28.2695 20.2274 29.6984 23.2973 31.7824C23.5045 31.9239 23.7495 31.9997 24.0004 32Z" fill="black" stroke="#4C4850" stroke-width="0.046875"/>
</svg>
