<svg width="144" height="25" viewBox="0 0 144 25" fill="none" xmlns="http://www.w3.org/2000/svg">
<path d="M18.75 3.5H5.25C4.00736 3.5 3 4.50736 3 5.75V19.25C3 20.4926 4.00736 21.5 5.25 21.5H18.75C19.9926 21.5 21 20.4926 21 19.25V5.75C21 4.50736 19.9926 3.5 18.75 3.5Z" stroke="#112211" stroke-width="2" stroke-linejoin="round"/>
<path d="M31.986 18L36.424 8.2H37.81L42.262 18H40.792L36.83 8.984H37.39L33.428 18H31.986ZM33.876 15.55L34.254 14.43H39.77L40.176 15.55H33.876ZM43.5279 18V10.58H44.8719V18H43.5279ZM44.1999 9.152C43.9386 9.152 43.7192 9.068 43.5419 8.9C43.3739 8.732 43.2899 8.52667 43.2899 8.284C43.2899 8.032 43.3739 7.822 43.5419 7.654C43.7192 7.486 43.9386 7.402 44.1999 7.402C44.4612 7.402 44.6759 7.486 44.8439 7.654C45.0212 7.81267 45.1099 8.01333 45.1099 8.256C45.1099 8.508 45.0259 8.72267 44.8579 8.9C44.6899 9.068 44.4706 9.152 44.1999 9.152ZM47.4381 18V10.58H48.7261V12.596L48.6001 12.092C48.8054 11.5787 49.1507 11.1867 49.6361 10.916C50.1214 10.6453 50.7187 10.51 51.4281 10.51V11.812C51.3721 11.8027 51.3161 11.798 51.2601 11.798C51.2134 11.798 51.1667 11.798 51.1201 11.798C50.4014 11.798 49.8321 12.0127 49.4121 12.442C48.9921 12.8713 48.7821 13.492 48.7821 14.304V18H47.4381ZM52.5812 14.738V13.576H56.3472V14.738H52.5812ZM61.7873 18.084C61.0313 18.084 60.3546 17.9207 59.7573 17.594C59.1693 17.2673 58.7073 16.8193 58.3713 16.25C58.0353 15.6807 57.8673 15.0273 57.8673 14.29C57.8673 13.5527 58.0353 12.8993 58.3713 12.33C58.7073 11.7607 59.1693 11.3173 59.7573 11C60.3546 10.6733 61.0313 10.51 61.7873 10.51C62.4593 10.51 63.0566 10.6453 63.5793 10.916C64.1113 11.1773 64.522 11.5693 64.8113 12.092L63.7893 12.75C63.5466 12.386 63.248 12.12 62.8933 11.952C62.548 11.7747 62.1746 11.686 61.7733 11.686C61.288 11.686 60.854 11.7933 60.4713 12.008C60.0886 12.2227 59.7853 12.526 59.5613 12.918C59.3373 13.3007 59.2253 13.758 59.2253 14.29C59.2253 14.822 59.3373 15.284 59.5613 15.676C59.7853 16.068 60.0886 16.3713 60.4713 16.586C60.854 16.8007 61.288 16.908 61.7733 16.908C62.1746 16.908 62.548 16.824 62.8933 16.656C63.248 16.4787 63.5466 16.208 63.7893 15.844L64.8113 16.488C64.522 17.0013 64.1113 17.398 63.5793 17.678C63.0566 17.9487 62.4593 18.084 61.7873 18.084ZM69.62 18.084C68.8733 18.084 68.2106 17.9207 67.632 17.594C67.0533 17.2673 66.596 16.8193 66.26 16.25C65.924 15.6713 65.756 15.018 65.756 14.29C65.756 13.5527 65.924 12.8993 66.26 12.33C66.596 11.7607 67.0533 11.3173 67.632 11C68.2106 10.6733 68.8733 10.51 69.62 10.51C70.3573 10.51 71.0153 10.6733 71.594 11C72.182 11.3173 72.6393 11.7607 72.966 12.33C73.302 12.89 73.47 13.5433 73.47 14.29C73.47 15.0273 73.302 15.6807 72.966 16.25C72.6393 16.8193 72.182 17.2673 71.594 17.594C71.0153 17.9207 70.3573 18.084 69.62 18.084ZM69.62 16.908C70.096 16.908 70.5206 16.8007 70.894 16.586C71.2766 16.3713 71.5753 16.068 71.79 15.676C72.0046 15.2747 72.112 14.8127 72.112 14.29C72.112 13.758 72.0046 13.3007 71.79 12.918C71.5753 12.526 71.2766 12.2227 70.894 12.008C70.5206 11.7933 70.096 11.686 69.62 11.686C69.144 11.686 68.7193 11.7933 68.346 12.008C67.9726 12.2227 67.674 12.526 67.45 12.918C67.226 13.3007 67.114 13.758 67.114 14.29C67.114 14.8127 67.226 15.2747 67.45 15.676C67.674 16.068 67.9726 16.3713 68.346 16.586C68.7193 16.8007 69.144 16.908 69.62 16.908ZM79.2907 10.51C79.8974 10.51 80.4294 10.6267 80.8867 10.86C81.3534 11.0933 81.7174 11.448 81.9787 11.924C82.24 12.4 82.3707 13.002 82.3707 13.73V18H81.0267V13.884C81.0267 13.1653 80.8494 12.624 80.4947 12.26C80.1494 11.896 79.6594 11.714 79.0247 11.714C78.5487 11.714 78.1334 11.8073 77.7787 11.994C77.424 12.1807 77.1487 12.456 76.9527 12.82C76.766 13.184 76.6727 13.6367 76.6727 14.178V18H75.3287V10.58H76.6167V12.582L76.4067 12.05C76.6494 11.5647 77.0227 11.1867 77.5267 10.916C78.0307 10.6453 78.6187 10.51 79.2907 10.51ZM87.924 18.084C87.2053 18.084 86.5613 17.9253 85.992 17.608C85.432 17.2907 84.9887 16.8473 84.662 16.278C84.3353 15.7087 84.172 15.046 84.172 14.29C84.172 13.534 84.3353 12.876 84.662 12.316C84.9887 11.7467 85.432 11.3033 85.992 10.986C86.5613 10.6687 87.2053 10.51 87.924 10.51C88.5493 10.51 89.114 10.65 89.618 10.93C90.122 11.21 90.5233 11.63 90.822 12.19C91.13 12.75 91.284 13.45 91.284 14.29C91.284 15.13 91.1347 15.83 90.836 16.39C90.5467 16.95 90.15 17.3747 89.646 17.664C89.142 17.944 88.568 18.084 87.924 18.084ZM88.036 16.908C88.5027 16.908 88.9227 16.8007 89.296 16.586C89.6787 16.3713 89.9773 16.068 90.192 15.676C90.416 15.2747 90.528 14.8127 90.528 14.29C90.528 13.758 90.416 13.3007 90.192 12.918C89.9773 12.526 89.6787 12.2227 89.296 12.008C88.9227 11.7933 88.5027 11.686 88.036 11.686C87.56 11.686 87.1353 11.7933 86.762 12.008C86.3887 12.2227 86.09 12.526 85.866 12.918C85.642 13.3007 85.53 13.758 85.53 14.29C85.53 14.8127 85.642 15.2747 85.866 15.676C86.09 16.068 86.3887 16.3713 86.762 16.586C87.1353 16.8007 87.56 16.908 88.036 16.908ZM90.57 18V15.998L90.654 14.276L90.514 12.554V7.612H91.858V18H90.57ZM94.401 18V10.58H95.745V18H94.401ZM95.073 9.152C94.8116 9.152 94.5923 9.068 94.415 8.9C94.247 8.732 94.163 8.52667 94.163 8.284C94.163 8.032 94.247 7.822 94.415 7.654C94.5923 7.486 94.8116 7.402 95.073 7.402C95.3343 7.402 95.549 7.486 95.717 7.654C95.8943 7.81267 95.983 8.01333 95.983 8.256C95.983 8.508 95.899 8.72267 95.731 8.9C95.563 9.068 95.3436 9.152 95.073 9.152ZM100.859 18.084C100.112 18.084 99.5338 17.8833 99.1231 17.482C98.7124 17.0807 98.5071 16.5067 98.5071 15.76V8.956H99.8511V15.704C99.8511 16.1053 99.9491 16.4133 100.145 16.628C100.35 16.8427 100.64 16.95 101.013 16.95C101.433 16.95 101.783 16.8333 102.063 16.6L102.483 17.566C102.278 17.7433 102.03 17.874 101.741 17.958C101.461 18.042 101.167 18.084 100.859 18.084ZM97.2471 11.686V10.58H101.979V11.686H97.2471ZM104.108 18V10.58H105.452V18H104.108ZM104.78 9.152C104.519 9.152 104.299 9.068 104.122 8.9C103.954 8.732 103.87 8.52667 103.87 8.284C103.87 8.032 103.954 7.822 104.122 7.654C104.299 7.486 104.519 7.402 104.78 7.402C105.041 7.402 105.256 7.486 105.424 7.654C105.601 7.81267 105.69 8.01333 105.69 8.256C105.69 8.508 105.606 8.72267 105.438 8.9C105.27 9.068 105.051 9.152 104.78 9.152ZM111.196 18.084C110.449 18.084 109.787 17.9207 109.208 17.594C108.629 17.2673 108.172 16.8193 107.836 16.25C107.5 15.6713 107.332 15.018 107.332 14.29C107.332 13.5527 107.5 12.8993 107.836 12.33C108.172 11.7607 108.629 11.3173 109.208 11C109.787 10.6733 110.449 10.51 111.196 10.51C111.933 10.51 112.591 10.6733 113.17 11C113.758 11.3173 114.215 11.7607 114.542 12.33C114.878 12.89 115.046 13.5433 115.046 14.29C115.046 15.0273 114.878 15.6807 114.542 16.25C114.215 16.8193 113.758 17.2673 113.17 17.594C112.591 17.9207 111.933 18.084 111.196 18.084ZM111.196 16.908C111.672 16.908 112.097 16.8007 112.47 16.586C112.853 16.3713 113.151 16.068 113.366 15.676C113.581 15.2747 113.688 14.8127 113.688 14.29C113.688 13.758 113.581 13.3007 113.366 12.918C113.151 12.526 112.853 12.2227 112.47 12.008C112.097 11.7933 111.672 11.686 111.196 11.686C110.72 11.686 110.295 11.7933 109.922 12.008C109.549 12.2227 109.25 12.526 109.026 12.918C108.802 13.3007 108.69 13.758 108.69 14.29C108.69 14.8127 108.802 15.2747 109.026 15.676C109.25 16.068 109.549 16.3713 109.922 16.586C110.295 16.8007 110.72 16.908 111.196 16.908ZM120.867 10.51C121.474 10.51 122.006 10.6267 122.463 10.86C122.93 11.0933 123.294 11.448 123.555 11.924C123.816 12.4 123.947 13.002 123.947 13.73V18H122.603V13.884C122.603 13.1653 122.426 12.624 122.071 12.26C121.726 11.896 121.236 11.714 120.601 11.714C120.125 11.714 119.71 11.8073 119.355 11.994C119 12.1807 118.725 12.456 118.529 12.82C118.342 13.184 118.249 13.6367 118.249 14.178V18H116.905V10.58H118.193V12.582L117.983 12.05C118.226 11.5647 118.599 11.1867 119.103 10.916C119.607 10.6453 120.195 10.51 120.867 10.51ZM129.738 18.084C128.945 18.084 128.245 17.9207 127.638 17.594C127.041 17.2673 126.574 16.8193 126.238 16.25C125.911 15.6807 125.748 15.0273 125.748 14.29C125.748 13.5527 125.907 12.8993 126.224 12.33C126.551 11.7607 126.994 11.3173 127.554 11C128.123 10.6733 128.763 10.51 129.472 10.51C130.191 10.51 130.825 10.6687 131.376 10.986C131.927 11.3033 132.356 11.7513 132.664 12.33C132.981 12.8993 133.14 13.5667 133.14 14.332C133.14 14.388 133.135 14.4533 133.126 14.528C133.126 14.6027 133.121 14.6727 133.112 14.738H126.798V13.772H132.412L131.866 14.108C131.875 13.632 131.777 13.2073 131.572 12.834C131.367 12.4607 131.082 12.1713 130.718 11.966C130.363 11.7513 129.948 11.644 129.472 11.644C129.005 11.644 128.59 11.7513 128.226 11.966C127.862 12.1713 127.577 12.4653 127.372 12.848C127.167 13.2213 127.064 13.6507 127.064 14.136V14.36C127.064 14.8547 127.176 15.298 127.4 15.69C127.633 16.0727 127.955 16.3713 128.366 16.586C128.777 16.8007 129.248 16.908 129.78 16.908C130.219 16.908 130.615 16.8333 130.97 16.684C131.334 16.5347 131.651 16.3107 131.922 16.012L132.664 16.88C132.328 17.272 131.908 17.5707 131.404 17.776C130.909 17.9813 130.354 18.084 129.738 18.084ZM138.072 18.084C137.354 18.084 136.71 17.9253 136.14 17.608C135.58 17.2907 135.137 16.8473 134.81 16.278C134.484 15.7087 134.32 15.046 134.32 14.29C134.32 13.534 134.484 12.876 134.81 12.316C135.137 11.7467 135.58 11.3033 136.14 10.986C136.71 10.6687 137.354 10.51 138.072 10.51C138.698 10.51 139.262 10.65 139.766 10.93C140.27 11.21 140.672 11.63 140.97 12.19C141.278 12.75 141.432 13.45 141.432 14.29C141.432 15.13 141.283 15.83 140.984 16.39C140.695 16.95 140.298 17.3747 139.794 17.664C139.29 17.944 138.716 18.084 138.072 18.084ZM138.184 16.908C138.651 16.908 139.071 16.8007 139.444 16.586C139.827 16.3713 140.126 16.068 140.34 15.676C140.564 15.2747 140.676 14.8127 140.676 14.29C140.676 13.758 140.564 13.3007 140.34 12.918C140.126 12.526 139.827 12.2227 139.444 12.008C139.071 11.7933 138.651 11.686 138.184 11.686C137.708 11.686 137.284 11.7933 136.91 12.008C136.537 12.2227 136.238 12.526 136.014 12.918C135.79 13.3007 135.678 13.758 135.678 14.29C135.678 14.8127 135.79 15.2747 136.014 15.676C136.238 16.068 136.537 16.3713 136.91 16.586C137.284 16.8007 137.708 16.908 138.184 16.908ZM140.718 18V15.998L140.802 14.276L140.662 12.554V7.612H142.006V18H140.718Z" fill="#112211"/>
</svg>
