<svg width="80" height="16" viewBox="0 0 80 16" fill="none" xmlns="http://www.w3.org/2000/svg">
<path d="M12.3131 15C12.2079 15.0004 12.1052 14.9676 12.0197 14.9063L8.00064 11.9925L3.98158 14.9063C3.89571 14.9685 3.79227 15.0019 3.6862 15.0015C3.58012 15.0011 3.47692 14.967 3.39151 14.9041C3.3061 14.8412 3.24291 14.7528 3.21107 14.6516C3.17923 14.5504 3.18039 14.4417 3.21439 14.3413L4.78189 9.69844L0.719389 6.9125C0.631393 6.85223 0.564978 6.76539 0.529849 6.66468C0.49472 6.56397 0.492718 6.45466 0.524134 6.35273C0.555551 6.2508 0.618741 6.16159 0.704471 6.09813C0.790201 6.03467 0.893978 6.00028 1.00064 6H6.01251L7.52501 1.34532C7.5576 1.24482 7.62117 1.15723 7.70662 1.09511C7.79207 1.03299 7.895 0.999527 8.00064 0.999527C8.10628 0.999527 8.20921 1.03299 8.29466 1.09511C8.38011 1.15723 8.44368 1.24482 8.47626 1.34532L9.98876 6.00157H15.0006C15.1074 6.00151 15.2114 6.03566 15.2974 6.099C15.3834 6.16233 15.4469 6.25154 15.4785 6.35355C15.5101 6.45556 15.5082 6.56501 15.4731 6.66587C15.438 6.76674 15.3716 6.85371 15.2835 6.91407L11.2194 9.69844L12.786 14.34C12.8113 14.4152 12.8185 14.4953 12.8068 14.5737C12.7951 14.6522 12.7649 14.7267 12.7187 14.7912C12.6725 14.8557 12.6116 14.9082 12.5411 14.9445C12.4706 14.9809 12.3925 14.9999 12.3131 15Z" fill="#FF8682"/>
<path d="M28.3131 15C28.2079 15.0004 28.1052 14.9676 28.0197 14.9063L24.0006 11.9925L19.9816 14.9063C19.8957 14.9685 19.7923 15.0019 19.6862 15.0015C19.5801 15.0011 19.4769 14.967 19.3915 14.9041C19.3061 14.8412 19.2429 14.7528 19.2111 14.6516C19.1792 14.5504 19.1804 14.4417 19.2144 14.3413L20.7819 9.69844L16.7194 6.9125C16.6314 6.85223 16.565 6.76539 16.5298 6.66468C16.4947 6.56397 16.4927 6.45466 16.5241 6.35273C16.5556 6.2508 16.6187 6.16159 16.7045 6.09813C16.7902 6.03467 16.894 6.00028 17.0006 6H22.0125L23.525 1.34532C23.5576 1.24482 23.6212 1.15723 23.7066 1.09511C23.7921 1.03299 23.895 0.999527 24.0006 0.999527C24.1063 0.999527 24.2092 1.03299 24.2947 1.09511C24.3801 1.15723 24.4437 1.24482 24.4763 1.34532L25.9888 6.00157H31.0006C31.1074 6.00151 31.2114 6.03566 31.2974 6.099C31.3834 6.16233 31.4469 6.25154 31.4785 6.35355C31.5101 6.45556 31.5082 6.56501 31.4731 6.66587C31.438 6.76674 31.3716 6.85371 31.2835 6.91407L27.2194 9.69844L28.786 14.34C28.8113 14.4152 28.8185 14.4953 28.8068 14.5737C28.7951 14.6522 28.7649 14.7267 28.7187 14.7912C28.6725 14.8557 28.6116 14.9082 28.5411 14.9445C28.4706 14.9809 28.3925 14.9999 28.3131 15Z" fill="#FF8682"/>
<path d="M44.3131 15C44.2079 15.0004 44.1052 14.9676 44.0197 14.9063L40.0006 11.9925L35.9816 14.9063C35.8957 14.9685 35.7923 15.0019 35.6862 15.0015C35.5801 15.0011 35.4769 14.967 35.3915 14.9041C35.3061 14.8412 35.2429 14.7528 35.2111 14.6516C35.1792 14.5504 35.1804 14.4417 35.2144 14.3413L36.7819 9.69844L32.7194 6.9125C32.6314 6.85223 32.565 6.76539 32.5298 6.66468C32.4947 6.56397 32.4927 6.45466 32.5241 6.35273C32.5556 6.2508 32.6187 6.16159 32.7045 6.09813C32.7902 6.03467 32.894 6.00028 33.0006 6H38.0125L39.525 1.34532C39.5576 1.24482 39.6212 1.15723 39.7066 1.09511C39.7921 1.03299 39.895 0.999527 40.0006 0.999527C40.1063 0.999527 40.2092 1.03299 40.2947 1.09511C40.3801 1.15723 40.4437 1.24482 40.4763 1.34532L41.9888 6.00157H47.0006C47.1074 6.00151 47.2114 6.03566 47.2974 6.099C47.3834 6.16233 47.4469 6.25154 47.4785 6.35355C47.5101 6.45556 47.5082 6.56501 47.4731 6.66587C47.438 6.76674 47.3716 6.85371 47.2835 6.91407L43.2194 9.69844L44.786 14.34C44.8113 14.4152 44.8185 14.4953 44.8068 14.5737C44.7951 14.6522 44.7649 14.7267 44.7187 14.7912C44.6725 14.8557 44.6116 14.9082 44.5411 14.9445C44.4706 14.9809 44.3925 14.9999 44.3131 15Z" fill="#FF8682"/>
<path d="M60.3131 15C60.2079 15.0004 60.1052 14.9676 60.0197 14.9063L56.0006 11.9925L51.9816 14.9063C51.8957 14.9685 51.7923 15.0019 51.6862 15.0015C51.5801 15.0011 51.4769 14.967 51.3915 14.9041C51.3061 14.8412 51.2429 14.7528 51.2111 14.6516C51.1792 14.5504 51.1804 14.4417 51.2144 14.3413L52.7819 9.69844L48.7194 6.9125C48.6314 6.85223 48.565 6.76539 48.5298 6.66468C48.4947 6.56397 48.4927 6.45466 48.5241 6.35273C48.5556 6.2508 48.6187 6.16159 48.7045 6.09813C48.7902 6.03467 48.894 6.00028 49.0006 6H54.0125L55.525 1.34532C55.5576 1.24482 55.6212 1.15723 55.7066 1.09511C55.7921 1.03299 55.895 0.999527 56.0006 0.999527C56.1063 0.999527 56.2092 1.03299 56.2947 1.09511C56.3801 1.15723 56.4437 1.24482 56.4763 1.34532L57.9888 6.00157H63.0006C63.1074 6.00151 63.2114 6.03566 63.2974 6.099C63.3834 6.16233 63.4469 6.25154 63.4785 6.35355C63.5101 6.45556 63.5082 6.56501 63.4731 6.66587C63.438 6.76674 63.3716 6.85371 63.2835 6.91407L59.2194 9.69844L60.786 14.34C60.8113 14.4152 60.8185 14.4953 60.8068 14.5737C60.7951 14.6522 60.7649 14.7267 60.7187 14.7912C60.6725 14.8557 60.6116 14.9082 60.5411 14.9445C60.4706 14.9809 60.3925 14.9999 60.3131 15Z" fill="#FF8682"/>
<path d="M76.3131 15C76.2079 15.0004 76.1052 14.9676 76.0197 14.9063L72.0006 11.9925L67.9816 14.9063C67.8957 14.9685 67.7923 15.0019 67.6862 15.0015C67.5801 15.0011 67.4769 14.967 67.3915 14.9041C67.3061 14.8412 67.2429 14.7528 67.2111 14.6516C67.1792 14.5504 67.1804 14.4417 67.2144 14.3413L68.7819 9.69844L64.7194 6.9125C64.6314 6.85223 64.565 6.76539 64.5298 6.66468C64.4947 6.56397 64.4927 6.45466 64.5241 6.35273C64.5556 6.2508 64.6187 6.16159 64.7045 6.09813C64.7902 6.03467 64.894 6.00028 65.0006 6H70.0125L71.525 1.34532C71.5576 1.24482 71.6212 1.15723 71.7066 1.09511C71.7921 1.03299 71.895 0.999527 72.0006 0.999527C72.1063 0.999527 72.2092 1.03299 72.2947 1.09511C72.3801 1.15723 72.4437 1.24482 72.4763 1.34532L73.9888 6.00157H79.0006C79.1074 6.00151 79.2114 6.03566 79.2974 6.099C79.3834 6.16233 79.4469 6.25154 79.4785 6.35355C79.5101 6.45556 79.5082 6.56501 79.4731 6.66587C79.438 6.76674 79.3716 6.85371 79.2835 6.91407L75.2194 9.69844L76.786 14.34C76.8113 14.4152 76.8185 14.4953 76.8068 14.5737C76.7951 14.6522 76.7649 14.7267 76.7187 14.7912C76.6725 14.8557 76.6116 14.9082 76.5411 14.9445C76.4706 14.9809 76.3925 14.9999 76.3131 15Z" fill="#FF8682"/>
</svg>
