<svg width="180" height="32" viewBox="0 0 180 32" fill="none" xmlns="http://www.w3.org/2000/svg">
<rect x="0.5" y="0.5" width="39" height="31" rx="3.5" stroke="#8DD3BB"/>
<path d="M18.884 18.436H17.288V20.5H16.124V18.436H11.456V17.596L15.752 12.1H17.048L12.932 17.404H16.16V15.58H17.288V17.404H18.884V18.436ZM20.6297 20.572C20.4057 20.572 20.2137 20.496 20.0537 20.344C19.8937 20.184 19.8137 19.984 19.8137 19.744C19.8137 19.512 19.8937 19.32 20.0537 19.168C20.2137 19.008 20.4057 18.928 20.6297 18.928C20.8537 18.928 21.0417 19.004 21.1937 19.156C21.3457 19.308 21.4217 19.504 21.4217 19.744C21.4217 19.984 21.3417 20.184 21.1817 20.344C21.0297 20.496 20.8457 20.572 20.6297 20.572ZM28.5777 19.456V20.5H22.5417V19.684L25.9617 16.384C26.3777 15.984 26.6577 15.64 26.8017 15.352C26.9457 15.056 27.0177 14.76 27.0177 14.464C27.0177 14.024 26.8617 13.684 26.5497 13.444C26.2457 13.196 25.8057 13.072 25.2297 13.072C24.3017 13.072 23.5857 13.376 23.0817 13.984L22.2657 13.276C22.5937 12.876 23.0217 12.564 23.5497 12.34C24.0857 12.116 24.6817 12.004 25.3377 12.004C26.2177 12.004 26.9177 12.216 27.4377 12.64C27.9577 13.056 28.2177 13.624 28.2177 14.344C28.2177 14.792 28.1217 15.216 27.9297 15.616C27.7377 16.016 27.3737 16.472 26.8377 16.984L24.2697 19.456H28.5777Z" fill="#112211"/>
<path d="M51.14 12.1L48.548 18.1L45.992 12.1H43.892L47.516 20.5H49.436L53.072 12.1H51.14ZM59.4849 17.296C59.4849 15.22 58.0209 13.948 56.1249 13.948C54.1569 13.948 52.6809 15.34 52.6809 17.272C52.6809 19.192 54.1329 20.596 56.3649 20.596C57.5289 20.596 58.4289 20.236 59.0289 19.552L58.0329 18.472C57.5889 18.892 57.0969 19.096 56.4129 19.096C55.4289 19.096 54.7449 18.604 54.5649 17.8H59.4489C59.4609 17.644 59.4849 17.44 59.4849 17.296ZM56.1369 15.364C56.9769 15.364 57.5889 15.892 57.7209 16.708H54.5409C54.6729 15.88 55.2849 15.364 56.1369 15.364ZM62.5192 14.896V14.044H60.7312V20.5H62.6032V17.452C62.6032 16.216 63.2872 15.652 64.3192 15.652C64.4632 15.652 64.5832 15.664 64.7392 15.676V13.948C63.7432 13.948 62.9752 14.272 62.5192 14.896ZM70.6829 14.044L68.8589 18.424L67.0469 14.044H65.1149L67.9109 20.548L67.8869 20.608C67.6349 21.184 67.3469 21.412 66.8309 21.412C66.4589 21.412 66.0629 21.256 65.7749 21.004L65.0909 22.336C65.5109 22.708 66.2309 22.924 66.8909 22.924C68.0549 22.924 68.9429 22.456 69.5669 20.896L72.4829 14.044H70.6829ZM82.4533 18.628C81.9613 18.892 81.4693 18.988 80.9413 18.988C79.3333 18.988 78.2173 17.872 78.2173 16.3C78.2173 14.704 79.3333 13.612 80.9653 13.612C81.8173 13.612 82.5253 13.912 83.1373 14.56L84.3853 13.408C83.5693 12.46 82.3453 11.956 80.8693 11.956C78.1933 11.956 76.2493 13.768 76.2493 16.3C76.2493 18.832 78.1933 20.644 80.8333 20.644C82.0333 20.644 83.3053 20.272 84.2293 19.576V16.168H82.4533V18.628ZM88.9751 20.596C91.0271 20.596 92.5151 19.216 92.5151 17.272C92.5151 15.328 91.0271 13.948 88.9751 13.948C86.9231 13.948 85.4231 15.328 85.4231 17.272C85.4231 19.216 86.9231 20.596 88.9751 20.596ZM88.9751 19.06C88.0391 19.06 87.3191 18.388 87.3191 17.272C87.3191 16.156 88.0391 15.484 88.9751 15.484C89.9111 15.484 90.6191 16.156 90.6191 17.272C90.6191 18.388 89.9111 19.06 88.9751 19.06ZM96.8383 20.596C98.8903 20.596 100.378 19.216 100.378 17.272C100.378 15.328 98.8903 13.948 96.8383 13.948C94.7863 13.948 93.2863 15.328 93.2863 17.272C93.2863 19.216 94.7863 20.596 96.8383 20.596ZM96.8383 19.06C95.9023 19.06 95.1823 18.388 95.1823 17.272C95.1823 16.156 95.9023 15.484 96.8383 15.484C97.7743 15.484 98.4823 16.156 98.4823 17.272C98.4823 18.388 97.7743 19.06 96.8383 19.06ZM106.334 11.596V14.728C105.866 14.2 105.194 13.948 104.402 13.948C102.578 13.948 101.174 15.244 101.174 17.272C101.174 19.3 102.578 20.596 104.402 20.596C105.266 20.596 105.95 20.32 106.418 19.756V20.5H108.206V11.596H106.334ZM104.726 19.06C103.79 19.06 103.07 18.388 103.07 17.272C103.07 16.156 103.79 15.484 104.726 15.484C105.65 15.484 106.37 16.156 106.37 17.272C106.37 18.388 105.65 19.06 104.726 19.06ZM116.089 15.628L118.285 12.916V12.1H112.741V13.144H116.785L114.673 15.736V16.576H115.345C116.785 16.576 117.421 17.152 117.421 18.04C117.421 18.952 116.701 19.528 115.441 19.528C114.409 19.528 113.473 19.156 112.909 18.628L112.357 19.576C113.065 20.212 114.241 20.596 115.441 20.596C117.577 20.596 118.621 19.444 118.621 18.028C118.621 16.732 117.769 15.784 116.089 15.628ZM119.383 12.1V14.644H120.535V13.144H124.375L121.051 20.5H122.323L125.719 12.916V12.1H119.383ZM126.409 12.1V13.144H128.305V20.5H129.493V12.1H126.409ZM136.173 15.208V14.14H135.069V20.5H136.221V17.332C136.221 15.94 136.989 15.184 138.225 15.184C138.309 15.184 138.393 15.184 138.489 15.196V14.08C137.373 14.08 136.581 14.464 136.173 15.208ZM145.598 17.356C145.598 15.4 144.29 14.08 142.454 14.08C140.618 14.08 139.262 15.436 139.262 17.32C139.262 19.216 140.63 20.572 142.682 20.572C143.738 20.572 144.614 20.212 145.19 19.54L144.554 18.796C144.086 19.312 143.462 19.564 142.718 19.564C141.458 19.564 140.558 18.82 140.414 17.704H145.574C145.586 17.596 145.598 17.452 145.598 17.356ZM142.454 15.052C143.57 15.052 144.374 15.808 144.494 16.876H140.414C140.534 15.796 141.35 15.052 142.454 15.052ZM151.58 14.14L149.348 19.24L147.164 14.14H145.964L148.748 20.5H149.924L152.708 14.14H151.58ZM154.359 12.916C154.815 12.916 155.139 12.58 155.139 12.148C155.139 11.74 154.803 11.416 154.359 11.416C153.915 11.416 153.579 11.752 153.579 12.172C153.579 12.592 153.915 12.916 154.359 12.916ZM153.783 20.5H154.935V14.14H153.783V20.5ZM162.883 17.356C162.883 15.4 161.575 14.08 159.739 14.08C157.903 14.08 156.547 15.436 156.547 17.32C156.547 19.216 157.915 20.572 159.967 20.572C161.023 20.572 161.899 20.212 162.475 19.54L161.839 18.796C161.371 19.312 160.747 19.564 160.003 19.564C158.743 19.564 157.843 18.82 157.699 17.704H162.859C162.871 17.596 162.883 17.452 162.883 17.356ZM159.739 15.052C160.855 15.052 161.659 15.808 161.779 16.876H157.699C157.819 15.796 158.635 15.052 159.739 15.052ZM172.957 14.14L171.061 19.228L169.177 14.14H168.205L166.285 19.204L164.437 14.14H163.345L165.709 20.5H166.813L168.673 15.676L170.509 20.5H171.613L173.989 14.14H172.957ZM176.9 20.572C178.592 20.572 179.648 19.84 179.648 18.688C179.648 16.216 175.616 17.44 175.616 15.94C175.616 15.436 176.108 15.064 177.116 15.064C177.74 15.064 178.376 15.196 178.952 15.568L179.444 14.656C178.892 14.296 177.956 14.08 177.128 14.08C175.496 14.08 174.476 14.848 174.476 15.988C174.476 18.52 178.496 17.284 178.496 18.712C178.496 19.252 178.052 19.576 176.984 19.576C176.156 19.576 175.292 19.3 174.752 18.916L174.272 19.828C174.8 20.248 175.844 20.572 176.9 20.572Z" fill="#112211"/>
</svg>
