<svg width="343" height="24" viewBox="0 0 343 24" fill="none" xmlns="http://www.w3.org/2000/svg">
<path d="M18.75 3H5.25C4.00736 3 3 4.00736 3 5.25V18.75C3 19.9926 4.00736 21 5.25 21H18.75C19.9926 21 21 19.9926 21 18.75V5.25C21 4.00736 19.9926 3 18.75 3Z" stroke="#112211" stroke-width="2" stroke-linejoin="round"/>
<path d="M34.73 12.334H39.784V13.538H34.73V12.334ZM34.87 17.5H33.47V7.7H40.386V8.918H34.87V17.5ZM42.024 17.5V10.08H43.312V12.096L43.186 11.592C43.3913 11.0787 43.7367 10.6867 44.222 10.416C44.7073 10.1453 45.3047 10.01 46.014 10.01V11.312C45.958 11.3027 45.902 11.298 45.846 11.298C45.7993 11.298 45.7527 11.298 45.706 11.298C44.9873 11.298 44.418 11.5127 43.998 11.942C43.578 12.3713 43.368 12.992 43.368 13.804V17.5H42.024ZM50.9061 17.584C50.1128 17.584 49.4128 17.4207 48.8061 17.094C48.2088 16.7673 47.7421 16.3193 47.4061 15.75C47.0795 15.1807 46.9161 14.5273 46.9161 13.79C46.9161 13.0527 47.0748 12.3993 47.3921 11.83C47.7188 11.2607 48.1621 10.8173 48.7221 10.5C49.2915 10.1733 49.9308 10.01 50.6401 10.01C51.3588 10.01 51.9935 10.1687 52.5441 10.486C53.0948 10.8033 53.5241 11.2513 53.8321 11.83C54.1495 12.3993 54.3081 13.0667 54.3081 13.832C54.3081 13.888 54.3035 13.9533 54.2941 14.028C54.2941 14.1027 54.2895 14.1727 54.2801 14.238H47.9661V13.272H53.5801L53.0341 13.608C53.0435 13.132 52.9455 12.7073 52.7401 12.334C52.5348 11.9607 52.2501 11.6713 51.8861 11.466C51.5315 11.2513 51.1161 11.144 50.6401 11.144C50.1735 11.144 49.7581 11.2513 49.3941 11.466C49.0301 11.6713 48.7455 11.9653 48.5401 12.348C48.3348 12.7213 48.2321 13.1507 48.2321 13.636V13.86C48.2321 14.3547 48.3441 14.798 48.5681 15.19C48.8015 15.5727 49.1235 15.8713 49.5341 16.086C49.9448 16.3007 50.4161 16.408 50.9481 16.408C51.3868 16.408 51.7835 16.3333 52.1381 16.184C52.5021 16.0347 52.8195 15.8107 53.0901 15.512L53.8321 16.38C53.4961 16.772 53.0761 17.0707 52.5721 17.276C52.0775 17.4813 51.5221 17.584 50.9061 17.584ZM59.4784 17.584C58.6851 17.584 57.9851 17.4207 57.3784 17.094C56.7811 16.7673 56.3144 16.3193 55.9784 15.75C55.6517 15.1807 55.4884 14.5273 55.4884 13.79C55.4884 13.0527 55.6471 12.3993 55.9644 11.83C56.2911 11.2607 56.7344 10.8173 57.2944 10.5C57.8637 10.1733 58.5031 10.01 59.2124 10.01C59.9311 10.01 60.5657 10.1687 61.1164 10.486C61.6671 10.8033 62.0964 11.2513 62.4044 11.83C62.7217 12.3993 62.8804 13.0667 62.8804 13.832C62.8804 13.888 62.8757 13.9533 62.8664 14.028C62.8664 14.1027 62.8617 14.1727 62.8524 14.238H56.5384V13.272H62.1524L61.6064 13.608C61.6157 13.132 61.5177 12.7073 61.3124 12.334C61.1071 11.9607 60.8224 11.6713 60.4584 11.466C60.1037 11.2513 59.6884 11.144 59.2124 11.144C58.7457 11.144 58.3304 11.2513 57.9664 11.466C57.6024 11.6713 57.3177 11.9653 57.1124 12.348C56.9071 12.7213 56.8044 13.1507 56.8044 13.636V13.86C56.8044 14.3547 56.9164 14.798 57.1404 15.19C57.3737 15.5727 57.6957 15.8713 58.1064 16.086C58.5171 16.3007 58.9884 16.408 59.5204 16.408C59.9591 16.408 60.3557 16.3333 60.7104 16.184C61.0744 16.0347 61.3917 15.8107 61.6624 15.512L62.4044 16.38C62.0684 16.772 61.6484 17.0707 61.1444 17.276C60.6497 17.4813 60.0944 17.584 59.4784 17.584ZM68.5064 17.5V10.08H69.8504V17.5H68.5064ZM69.1784 8.652C68.9171 8.652 68.6978 8.568 68.5204 8.4C68.3524 8.232 68.2684 8.02667 68.2684 7.784C68.2684 7.532 68.3524 7.322 68.5204 7.154C68.6978 6.986 68.9171 6.902 69.1784 6.902C69.4398 6.902 69.6544 6.986 69.8224 7.154C69.9998 7.31267 70.0884 7.51333 70.0884 7.756C70.0884 8.008 70.0044 8.22267 69.8364 8.4C69.6684 8.568 69.4491 8.652 69.1784 8.652ZM76.3786 10.01C76.9852 10.01 77.5172 10.1267 77.9746 10.36C78.4412 10.5933 78.8052 10.948 79.0666 11.424C79.3279 11.9 79.4586 12.502 79.4586 13.23V17.5H78.1146V13.384C78.1146 12.6653 77.9372 12.124 77.5826 11.76C77.2372 11.396 76.7472 11.214 76.1126 11.214C75.6366 11.214 75.2212 11.3073 74.8666 11.494C74.5119 11.6807 74.2366 11.956 74.0406 12.32C73.8539 12.684 73.7606 13.1367 73.7606 13.678V17.5H72.4166V10.08H73.7046V12.082L73.4946 11.55C73.7372 11.0647 74.1106 10.6867 74.6146 10.416C75.1186 10.1453 75.7066 10.01 76.3786 10.01ZM84.4939 17.584C83.7472 17.584 83.1685 17.3833 82.7579 16.982C82.3472 16.5807 82.1419 16.0067 82.1419 15.26V8.456H83.4859V15.204C83.4859 15.6053 83.5839 15.9133 83.7799 16.128C83.9852 16.3427 84.2745 16.45 84.6479 16.45C85.0679 16.45 85.4179 16.3333 85.6979 16.1L86.1179 17.066C85.9125 17.2433 85.6652 17.374 85.3759 17.458C85.0959 17.542 84.8019 17.584 84.4939 17.584ZM80.8819 11.186V10.08H85.6139V11.186H80.8819ZM90.8007 17.584C90.0073 17.584 89.3073 17.4207 88.7007 17.094C88.1033 16.7673 87.6367 16.3193 87.3007 15.75C86.974 15.1807 86.8107 14.5273 86.8107 13.79C86.8107 13.0527 86.9693 12.3993 87.2867 11.83C87.6133 11.2607 88.0567 10.8173 88.6167 10.5C89.186 10.1733 89.8253 10.01 90.5347 10.01C91.2533 10.01 91.888 10.1687 92.4387 10.486C92.9893 10.8033 93.4187 11.2513 93.7267 11.83C94.044 12.3993 94.2027 13.0667 94.2027 13.832C94.2027 13.888 94.198 13.9533 94.1887 14.028C94.1887 14.1027 94.184 14.1727 94.1747 14.238H87.8607V13.272H93.4747L92.9287 13.608C92.938 13.132 92.84 12.7073 92.6347 12.334C92.4293 11.9607 92.1447 11.6713 91.7807 11.466C91.426 11.2513 91.0107 11.144 90.5347 11.144C90.068 11.144 89.6527 11.2513 89.2887 11.466C88.9247 11.6713 88.64 11.9653 88.4347 12.348C88.2293 12.7213 88.1267 13.1507 88.1267 13.636V13.86C88.1267 14.3547 88.2387 14.798 88.4627 15.19C88.696 15.5727 89.018 15.8713 89.4287 16.086C89.8393 16.3007 90.3107 16.408 90.8427 16.408C91.2813 16.408 91.678 16.3333 92.0327 16.184C92.3967 16.0347 92.714 15.8107 92.9847 15.512L93.7267 16.38C93.3907 16.772 92.9707 17.0707 92.4667 17.276C91.972 17.4813 91.4167 17.584 90.8007 17.584ZM96.0689 17.5V10.08H97.3569V12.096L97.2309 11.592C97.4363 11.0787 97.7816 10.6867 98.2669 10.416C98.7523 10.1453 99.3496 10.01 100.059 10.01V11.312C100.003 11.3027 99.9469 11.298 99.8909 11.298C99.8443 11.298 99.7976 11.298 99.7509 11.298C99.0323 11.298 98.4629 11.5127 98.0429 11.942C97.6229 12.3713 97.4129 12.992 97.4129 13.804V17.5H96.0689ZM105.677 10.01C106.284 10.01 106.816 10.1267 107.273 10.36C107.74 10.5933 108.104 10.948 108.365 11.424C108.627 11.9 108.757 12.502 108.757 13.23V17.5H107.413V13.384C107.413 12.6653 107.236 12.124 106.881 11.76C106.536 11.396 106.046 11.214 105.411 11.214C104.935 11.214 104.52 11.3073 104.165 11.494C103.811 11.6807 103.535 11.956 103.339 12.32C103.153 12.684 103.059 13.1367 103.059 13.678V17.5H101.715V10.08H103.003V12.082L102.793 11.55C103.036 11.0647 103.409 10.6867 103.913 10.416C104.417 10.1453 105.005 10.01 105.677 10.01ZM114.549 17.584C113.755 17.584 113.055 17.4207 112.449 17.094C111.851 16.7673 111.385 16.3193 111.049 15.75C110.722 15.1807 110.559 14.5273 110.559 13.79C110.559 13.0527 110.717 12.3993 111.035 11.83C111.361 11.2607 111.805 10.8173 112.365 10.5C112.934 10.1733 113.573 10.01 114.283 10.01C115.001 10.01 115.636 10.1687 116.187 10.486C116.737 10.8033 117.167 11.2513 117.475 11.83C117.792 12.3993 117.951 13.0667 117.951 13.832C117.951 13.888 117.946 13.9533 117.937 14.028C117.937 14.1027 117.932 14.1727 117.923 14.238H111.609V13.272H117.223L116.677 13.608C116.686 13.132 116.588 12.7073 116.383 12.334C116.177 11.9607 115.893 11.6713 115.529 11.466C115.174 11.2513 114.759 11.144 114.283 11.144C113.816 11.144 113.401 11.2513 113.037 11.466C112.673 11.6713 112.388 11.9653 112.183 12.348C111.977 12.7213 111.875 13.1507 111.875 13.636V13.86C111.875 14.3547 111.987 14.798 112.211 15.19C112.444 15.5727 112.766 15.8713 113.177 16.086C113.587 16.3007 114.059 16.408 114.591 16.408C115.029 16.408 115.426 16.3333 115.781 16.184C116.145 16.0347 116.462 15.8107 116.733 15.512L117.475 16.38C117.139 16.772 116.719 17.0707 116.215 17.276C115.72 17.4813 115.165 17.584 114.549 17.584ZM122.365 17.584C121.618 17.584 121.04 17.3833 120.629 16.982C120.218 16.5807 120.013 16.0067 120.013 15.26V8.456H121.357V15.204C121.357 15.6053 121.455 15.9133 121.651 16.128C121.856 16.3427 122.146 16.45 122.519 16.45C122.939 16.45 123.289 16.3333 123.569 16.1L123.989 17.066C123.784 17.2433 123.536 17.374 123.247 17.458C122.967 17.542 122.673 17.584 122.365 17.584ZM118.753 11.186V10.08H123.485V11.186H118.753Z" fill="#112211"/>
</svg>
