<svg width="343" height="24" viewBox="0 0 343 24" fill="none" xmlns="http://www.w3.org/2000/svg">
<path d="M18.75 3H5.25C4.00736 3 3 4.00736 3 5.25V18.75C3 19.9926 4.00736 21 5.25 21H18.75C19.9926 21 21 19.9926 21 18.75V5.25C21 4.00736 19.9926 3 18.75 3Z" stroke="#112211" stroke-width="2" stroke-linejoin="round"/>
<path d="M34.73 12.334H39.784V13.538H34.73V12.334ZM34.87 17.5H33.47V7.7H40.386V8.918H34.87V17.5ZM42.024 17.5V10.08H43.312V12.096L43.186 11.592C43.3913 11.0787 43.7367 10.6867 44.222 10.416C44.7073 10.1453 45.3047 10.01 46.014 10.01V11.312C45.958 11.3027 45.902 11.298 45.846 11.298C45.7993 11.298 45.7527 11.298 45.706 11.298C44.9873 11.298 44.418 11.5127 43.998 11.942C43.578 12.3713 43.368 12.992 43.368 13.804V17.5H42.024ZM50.9061 17.584C50.1128 17.584 49.4128 17.4207 48.8061 17.094C48.2088 16.7673 47.7421 16.3193 47.4061 15.75C47.0795 15.1807 46.9161 14.5273 46.9161 13.79C46.9161 13.0527 47.0748 12.3993 47.3921 11.83C47.7188 11.2607 48.1621 10.8173 48.7221 10.5C49.2915 10.1733 49.9308 10.01 50.6401 10.01C51.3588 10.01 51.9935 10.1687 52.5441 10.486C53.0948 10.8033 53.5241 11.2513 53.8321 11.83C54.1495 12.3993 54.3081 13.0667 54.3081 13.832C54.3081 13.888 54.3035 13.9533 54.2941 14.028C54.2941 14.1027 54.2895 14.1727 54.2801 14.238H47.9661V13.272H53.5801L53.0341 13.608C53.0435 13.132 52.9455 12.7073 52.7401 12.334C52.5348 11.9607 52.2501 11.6713 51.8861 11.466C51.5315 11.2513 51.1161 11.144 50.6401 11.144C50.1735 11.144 49.7581 11.2513 49.3941 11.466C49.0301 11.6713 48.7455 11.9653 48.5401 12.348C48.3348 12.7213 48.2321 13.1507 48.2321 13.636V13.86C48.2321 14.3547 48.3441 14.798 48.5681 15.19C48.8015 15.5727 49.1235 15.8713 49.5341 16.086C49.9448 16.3007 50.4161 16.408 50.9481 16.408C51.3868 16.408 51.7835 16.3333 52.1381 16.184C52.5021 16.0347 52.8195 15.8107 53.0901 15.512L53.8321 16.38C53.4961 16.772 53.0761 17.0707 52.5721 17.276C52.0775 17.4813 51.5221 17.584 50.9061 17.584ZM59.4784 17.584C58.6851 17.584 57.9851 17.4207 57.3784 17.094C56.7811 16.7673 56.3144 16.3193 55.9784 15.75C55.6517 15.1807 55.4884 14.5273 55.4884 13.79C55.4884 13.0527 55.6471 12.3993 55.9644 11.83C56.2911 11.2607 56.7344 10.8173 57.2944 10.5C57.8637 10.1733 58.5031 10.01 59.2124 10.01C59.9311 10.01 60.5657 10.1687 61.1164 10.486C61.6671 10.8033 62.0964 11.2513 62.4044 11.83C62.7217 12.3993 62.8804 13.0667 62.8804 13.832C62.8804 13.888 62.8757 13.9533 62.8664 14.028C62.8664 14.1027 62.8617 14.1727 62.8524 14.238H56.5384V13.272H62.1524L61.6064 13.608C61.6157 13.132 61.5177 12.7073 61.3124 12.334C61.1071 11.9607 60.8224 11.6713 60.4584 11.466C60.1037 11.2513 59.6884 11.144 59.2124 11.144C58.7457 11.144 58.3304 11.2513 57.9664 11.466C57.6024 11.6713 57.3177 11.9653 57.1124 12.348C56.9071 12.7213 56.8044 13.1507 56.8044 13.636V13.86C56.8044 14.3547 56.9164 14.798 57.1404 15.19C57.3737 15.5727 57.6957 15.8713 58.1064 16.086C58.5171 16.3007 58.9884 16.408 59.5204 16.408C59.9591 16.408 60.3557 16.3333 60.7104 16.184C61.0744 16.0347 61.3917 15.8107 61.6624 15.512L62.4044 16.38C62.0684 16.772 61.6484 17.0707 61.1444 17.276C60.6497 17.4813 60.0944 17.584 59.4784 17.584ZM72.4404 17.584C71.8244 17.584 71.2598 17.444 70.7464 17.164C70.2424 16.8747 69.8364 16.45 69.5284 15.89C69.2298 15.33 69.0804 14.63 69.0804 13.79C69.0804 12.95 69.2251 12.25 69.5144 11.69C69.8131 11.13 70.2144 10.71 70.7184 10.43C71.2318 10.15 71.8058 10.01 72.4404 10.01C73.1684 10.01 73.8124 10.1687 74.3724 10.486C74.9324 10.8033 75.3758 11.2467 75.7024 11.816C76.0291 12.376 76.1924 13.034 76.1924 13.79C76.1924 14.546 76.0291 15.2087 75.7024 15.778C75.3758 16.3473 74.9324 16.7907 74.3724 17.108C73.8124 17.4253 73.1684 17.584 72.4404 17.584ZM68.5064 20.216V10.08H69.7944V12.082L69.7104 13.804L69.8504 15.526V20.216H68.5064ZM72.3284 16.408C72.8044 16.408 73.2291 16.3007 73.6024 16.086C73.9851 15.8713 74.2838 15.568 74.4984 15.176C74.7224 14.7747 74.8344 14.3127 74.8344 13.79C74.8344 13.258 74.7224 12.8007 74.4984 12.418C74.2838 12.026 73.9851 11.7227 73.6024 11.508C73.2291 11.2933 72.8044 11.186 72.3284 11.186C71.8618 11.186 71.4371 11.2933 71.0544 11.508C70.6811 11.7227 70.3824 12.026 70.1584 12.418C69.9438 12.8007 69.8364 13.258 69.8364 13.79C69.8364 14.3127 69.9438 14.7747 70.1584 15.176C70.3824 15.568 70.6811 15.8713 71.0544 16.086C71.4371 16.3007 71.8618 16.408 72.3284 16.408ZM82.587 17.5V15.932L82.517 15.638V12.964C82.517 12.3947 82.349 11.956 82.013 11.648C81.6864 11.3307 81.1917 11.172 80.529 11.172C80.0904 11.172 79.661 11.2467 79.241 11.396C78.821 11.536 78.4664 11.7273 78.177 11.97L77.617 10.962C77.9997 10.654 78.457 10.4207 78.989 10.262C79.5304 10.094 80.095 10.01 80.683 10.01C81.7004 10.01 82.4844 10.2573 83.035 10.752C83.5857 11.2467 83.861 12.0027 83.861 13.02V17.5H82.587ZM80.151 17.584C79.6004 17.584 79.115 17.4907 78.695 17.304C78.2844 17.1173 77.967 16.8607 77.743 16.534C77.519 16.198 77.407 15.82 77.407 15.4C77.407 14.9987 77.5004 14.6347 77.687 14.308C77.883 13.9813 78.1957 13.72 78.625 13.524C79.0637 13.328 79.6517 13.23 80.389 13.23H82.741V14.196H80.445C79.773 14.196 79.3204 14.308 79.087 14.532C78.8537 14.756 78.737 15.0267 78.737 15.344C78.737 15.708 78.8817 16.002 79.171 16.226C79.4604 16.4407 79.8617 16.548 80.375 16.548C80.879 16.548 81.3177 16.436 81.691 16.212C82.0737 15.988 82.349 15.6613 82.517 15.232L82.783 16.156C82.6057 16.5947 82.293 16.9447 81.845 17.206C81.397 17.458 80.8324 17.584 80.151 17.584ZM86.3482 17.5V10.08H87.6362V12.096L87.5102 11.592C87.7156 11.0787 88.0609 10.6867 88.5462 10.416C89.0316 10.1453 89.6289 10.01 90.3382 10.01V11.312C90.2822 11.3027 90.2262 11.298 90.1702 11.298C90.1236 11.298 90.0769 11.298 90.0302 11.298C89.3116 11.298 88.7422 11.5127 88.3222 11.942C87.9022 12.3713 87.6922 12.992 87.6922 13.804V17.5H86.3482ZM93.0867 15.708L93.1147 13.986L97.3847 10.08H99.0087L95.7327 13.3L95.0047 13.916L93.0867 15.708ZM91.9947 17.5V7.112H93.3387V17.5H91.9947ZM97.6647 17.5L94.7527 13.888L95.6207 12.81L99.3167 17.5H97.6647ZM100.622 17.5V10.08H101.966V17.5H100.622ZM101.294 8.652C101.032 8.652 100.813 8.568 100.636 8.4C100.468 8.232 100.384 8.02667 100.384 7.784C100.384 7.532 100.468 7.322 100.636 7.154C100.813 6.986 101.032 6.902 101.294 6.902C101.555 6.902 101.77 6.986 101.938 7.154C102.115 7.31267 102.204 7.51333 102.204 7.756C102.204 8.008 102.12 8.22267 101.952 8.4C101.784 8.568 101.564 8.652 101.294 8.652ZM108.494 10.01C109.1 10.01 109.632 10.1267 110.09 10.36C110.556 10.5933 110.92 10.948 111.182 11.424C111.443 11.9 111.574 12.502 111.574 13.23V17.5H110.23V13.384C110.23 12.6653 110.052 12.124 109.698 11.76C109.352 11.396 108.862 11.214 108.228 11.214C107.752 11.214 107.336 11.3073 106.982 11.494C106.627 11.6807 106.352 11.956 106.156 12.32C105.969 12.684 105.876 13.1367 105.876 13.678V17.5H104.532V10.08H105.82V12.082L105.61 11.55C105.852 11.0647 106.226 10.6867 106.73 10.416C107.234 10.1453 107.822 10.01 108.494 10.01ZM117.309 20.3C116.628 20.3 115.965 20.202 115.321 20.006C114.686 19.8193 114.168 19.5487 113.767 19.194L114.411 18.158C114.756 18.4567 115.181 18.69 115.685 18.858C116.189 19.0353 116.716 19.124 117.267 19.124C118.144 19.124 118.788 18.9187 119.199 18.508C119.61 18.0973 119.815 17.472 119.815 16.632V15.064L119.955 13.594L119.885 12.11V10.08H121.159V16.492C121.159 17.7987 120.832 18.76 120.179 19.376C119.526 19.992 118.569 20.3 117.309 20.3ZM117.141 17.192C116.422 17.192 115.778 17.0427 115.209 16.744C114.649 16.436 114.201 16.0113 113.865 15.47C113.538 14.9287 113.375 14.3033 113.375 13.594C113.375 12.8753 113.538 12.25 113.865 11.718C114.201 11.1767 114.649 10.7567 115.209 10.458C115.778 10.1593 116.422 10.01 117.141 10.01C117.776 10.01 118.354 10.1407 118.877 10.402C119.4 10.654 119.815 11.046 120.123 11.578C120.44 12.11 120.599 12.782 120.599 13.594C120.599 14.3967 120.44 15.064 120.123 15.596C119.815 16.128 119.4 16.5293 118.877 16.8C118.354 17.0613 117.776 17.192 117.141 17.192ZM117.295 16.016C117.79 16.016 118.228 15.9133 118.611 15.708C118.994 15.5027 119.292 15.218 119.507 14.854C119.731 14.49 119.843 14.07 119.843 13.594C119.843 13.118 119.731 12.698 119.507 12.334C119.292 11.97 118.994 11.69 118.611 11.494C118.228 11.2887 117.79 11.186 117.295 11.186C116.8 11.186 116.357 11.2887 115.965 11.494C115.582 11.69 115.279 11.97 115.055 12.334C114.84 12.698 114.733 13.118 114.733 13.594C114.733 14.07 114.84 14.49 115.055 14.854C115.279 15.218 115.582 15.5027 115.965 15.708C116.357 15.9133 116.8 16.016 117.295 16.016Z" fill="#112211"/>
</svg>
