<svg width="343" height="24" viewBox="0 0 343 24" fill="none" xmlns="http://www.w3.org/2000/svg">
<path d="M18.75 3H5.25C4.00736 3 3 4.00736 3 5.25V18.75C3 19.9926 4.00736 21 5.25 21H18.75C19.9926 21 21 19.9926 21 18.75V5.25C21 4.00736 19.9926 3 18.75 3Z" stroke="#112211" stroke-width="2" stroke-linejoin="round"/>
<path d="M34.73 12.334H39.784V13.538H34.73V12.334ZM34.87 17.5H33.47V7.7H40.386V8.918H34.87V17.5ZM42.024 17.5V10.08H43.312V12.096L43.186 11.592C43.3913 11.0787 43.7367 10.6867 44.222 10.416C44.7073 10.1453 45.3047 10.01 46.014 10.01V11.312C45.958 11.3027 45.902 11.298 45.846 11.298C45.7993 11.298 45.7527 11.298 45.706 11.298C44.9873 11.298 44.418 11.5127 43.998 11.942C43.578 12.3713 43.368 12.992 43.368 13.804V17.5H42.024ZM50.9061 17.584C50.1128 17.584 49.4128 17.4207 48.8061 17.094C48.2088 16.7673 47.7421 16.3193 47.4061 15.75C47.0795 15.1807 46.9161 14.5273 46.9161 13.79C46.9161 13.0527 47.0748 12.3993 47.3921 11.83C47.7188 11.2607 48.1621 10.8173 48.7221 10.5C49.2915 10.1733 49.9308 10.01 50.6401 10.01C51.3588 10.01 51.9935 10.1687 52.5441 10.486C53.0948 10.8033 53.5241 11.2513 53.8321 11.83C54.1495 12.3993 54.3081 13.0667 54.3081 13.832C54.3081 13.888 54.3035 13.9533 54.2941 14.028C54.2941 14.1027 54.2895 14.1727 54.2801 14.238H47.9661V13.272H53.5801L53.0341 13.608C53.0435 13.132 52.9455 12.7073 52.7401 12.334C52.5348 11.9607 52.2501 11.6713 51.8861 11.466C51.5315 11.2513 51.1161 11.144 50.6401 11.144C50.1735 11.144 49.7581 11.2513 49.3941 11.466C49.0301 11.6713 48.7455 11.9653 48.5401 12.348C48.3348 12.7213 48.2321 13.1507 48.2321 13.636V13.86C48.2321 14.3547 48.3441 14.798 48.5681 15.19C48.8015 15.5727 49.1235 15.8713 49.5341 16.086C49.9448 16.3007 50.4161 16.408 50.9481 16.408C51.3868 16.408 51.7835 16.3333 52.1381 16.184C52.5021 16.0347 52.8195 15.8107 53.0901 15.512L53.8321 16.38C53.4961 16.772 53.0761 17.0707 52.5721 17.276C52.0775 17.4813 51.5221 17.584 50.9061 17.584ZM59.4784 17.584C58.6851 17.584 57.9851 17.4207 57.3784 17.094C56.7811 16.7673 56.3144 16.3193 55.9784 15.75C55.6517 15.1807 55.4884 14.5273 55.4884 13.79C55.4884 13.0527 55.6471 12.3993 55.9644 11.83C56.2911 11.2607 56.7344 10.8173 57.2944 10.5C57.8637 10.1733 58.5031 10.01 59.2124 10.01C59.9311 10.01 60.5657 10.1687 61.1164 10.486C61.6671 10.8033 62.0964 11.2513 62.4044 11.83C62.7217 12.3993 62.8804 13.0667 62.8804 13.832C62.8804 13.888 62.8757 13.9533 62.8664 14.028C62.8664 14.1027 62.8617 14.1727 62.8524 14.238H56.5384V13.272H62.1524L61.6064 13.608C61.6157 13.132 61.5177 12.7073 61.3124 12.334C61.1071 11.9607 60.8224 11.6713 60.4584 11.466C60.1037 11.2513 59.6884 11.144 59.2124 11.144C58.7457 11.144 58.3304 11.2513 57.9664 11.466C57.6024 11.6713 57.3177 11.9653 57.1124 12.348C56.9071 12.7213 56.8044 13.1507 56.8044 13.636V13.86C56.8044 14.3547 56.9164 14.798 57.1404 15.19C57.3737 15.5727 57.6957 15.8713 58.1064 16.086C58.5171 16.3007 58.9884 16.408 59.5204 16.408C59.9591 16.408 60.3557 16.3333 60.7104 16.184C61.0744 16.0347 61.3917 15.8107 61.6624 15.512L62.4044 16.38C62.0684 16.772 61.6484 17.0707 61.1444 17.276C60.6497 17.4813 60.0944 17.584 59.4784 17.584ZM72.4404 17.584C71.8058 17.584 71.2318 17.444 70.7184 17.164C70.2144 16.8747 69.8131 16.45 69.5144 15.89C69.2251 15.33 69.0804 14.63 69.0804 13.79C69.0804 12.95 69.2298 12.25 69.5284 11.69C69.8364 11.13 70.2424 10.71 70.7464 10.43C71.2598 10.15 71.8244 10.01 72.4404 10.01C73.1684 10.01 73.8124 10.1687 74.3724 10.486C74.9324 10.8033 75.3758 11.2467 75.7024 11.816C76.0291 12.376 76.1924 13.034 76.1924 13.79C76.1924 14.546 76.0291 15.2087 75.7024 15.778C75.3758 16.3473 74.9324 16.7907 74.3724 17.108C73.8124 17.4253 73.1684 17.584 72.4404 17.584ZM68.5064 17.5V7.112H69.8504V12.054L69.7104 13.776L69.7944 15.498V17.5H68.5064ZM72.3284 16.408C72.8044 16.408 73.2291 16.3007 73.6024 16.086C73.9851 15.8713 74.2838 15.568 74.4984 15.176C74.7224 14.7747 74.8344 14.3127 74.8344 13.79C74.8344 13.258 74.7224 12.8007 74.4984 12.418C74.2838 12.026 73.9851 11.7227 73.6024 11.508C73.2291 11.2933 72.8044 11.186 72.3284 11.186C71.8618 11.186 71.4371 11.2933 71.0544 11.508C70.6811 11.7227 70.3824 12.026 70.1584 12.418C69.9438 12.8007 69.8364 13.258 69.8364 13.79C69.8364 14.3127 69.9438 14.7747 70.1584 15.176C70.3824 15.568 70.6811 15.8713 71.0544 16.086C71.4371 16.3007 71.8618 16.408 72.3284 16.408ZM78.0494 17.5V10.08H79.3374V12.096L79.2114 11.592C79.4167 11.0787 79.7621 10.6867 80.2474 10.416C80.7327 10.1453 81.3301 10.01 82.0394 10.01V11.312C81.9834 11.3027 81.9274 11.298 81.8714 11.298C81.8247 11.298 81.7781 11.298 81.7314 11.298C81.0127 11.298 80.4434 11.5127 80.0234 11.942C79.6034 12.3713 79.3934 12.992 79.3934 13.804V17.5H78.0494ZM86.9315 17.584C86.1382 17.584 85.4382 17.4207 84.8315 17.094C84.2342 16.7673 83.7675 16.3193 83.4315 15.75C83.1048 15.1807 82.9415 14.5273 82.9415 13.79C82.9415 13.0527 83.1002 12.3993 83.4175 11.83C83.7442 11.2607 84.1875 10.8173 84.7475 10.5C85.3168 10.1733 85.9562 10.01 86.6655 10.01C87.3842 10.01 88.0188 10.1687 88.5695 10.486C89.1202 10.8033 89.5495 11.2513 89.8575 11.83C90.1748 12.3993 90.3335 13.0667 90.3335 13.832C90.3335 13.888 90.3288 13.9533 90.3195 14.028C90.3195 14.1027 90.3148 14.1727 90.3055 14.238H83.9915V13.272H89.6055L89.0595 13.608C89.0688 13.132 88.9708 12.7073 88.7655 12.334C88.5602 11.9607 88.2755 11.6713 87.9115 11.466C87.5568 11.2513 87.1415 11.144 86.6655 11.144C86.1988 11.144 85.7835 11.2513 85.4195 11.466C85.0555 11.6713 84.7708 11.9653 84.5655 12.348C84.3602 12.7213 84.2575 13.1507 84.2575 13.636V13.86C84.2575 14.3547 84.3695 14.798 84.5935 15.19C84.8268 15.5727 85.1488 15.8713 85.5595 16.086C85.9702 16.3007 86.4415 16.408 86.9735 16.408C87.4122 16.408 87.8088 16.3333 88.1635 16.184C88.5275 16.0347 88.8448 15.8107 89.1155 15.512L89.8575 16.38C89.5215 16.772 89.1015 17.0707 88.5975 17.276C88.1028 17.4813 87.5475 17.584 86.9315 17.584ZM96.6007 17.5V15.932L96.5307 15.638V12.964C96.5307 12.3947 96.3627 11.956 96.0267 11.648C95.7 11.3307 95.2054 11.172 94.5427 11.172C94.104 11.172 93.6747 11.2467 93.2547 11.396C92.8347 11.536 92.48 11.7273 92.1907 11.97L91.6307 10.962C92.0134 10.654 92.4707 10.4207 93.0027 10.262C93.544 10.094 94.1087 10.01 94.6967 10.01C95.714 10.01 96.498 10.2573 97.0487 10.752C97.5994 11.2467 97.8747 12.0027 97.8747 13.02V17.5H96.6007ZM94.1647 17.584C93.614 17.584 93.1287 17.4907 92.7087 17.304C92.298 17.1173 91.9807 16.8607 91.7567 16.534C91.5327 16.198 91.4207 15.82 91.4207 15.4C91.4207 14.9987 91.514 14.6347 91.7007 14.308C91.8967 13.9813 92.2094 13.72 92.6387 13.524C93.0774 13.328 93.6654 13.23 94.4027 13.23H96.7547V14.196H94.4587C93.7867 14.196 93.334 14.308 93.1007 14.532C92.8674 14.756 92.7507 15.0267 92.7507 15.344C92.7507 15.708 92.8954 16.002 93.1847 16.226C93.474 16.4407 93.8754 16.548 94.3887 16.548C94.8927 16.548 95.3314 16.436 95.7047 16.212C96.0874 15.988 96.3627 15.6613 96.5307 15.232L96.7967 16.156C96.6194 16.5947 96.3067 16.9447 95.8587 17.206C95.4107 17.458 94.846 17.584 94.1647 17.584ZM101.454 15.708L101.482 13.986L105.752 10.08H107.376L104.1 13.3L103.372 13.916L101.454 15.708ZM100.362 17.5V7.112H101.706V17.5H100.362ZM106.032 17.5L103.12 13.888L103.988 12.81L107.684 17.5H106.032ZM109.185 17.5V9.422C109.185 8.694 109.395 8.11533 109.815 7.686C110.244 7.24733 110.851 7.028 111.635 7.028C111.924 7.028 112.2 7.06533 112.461 7.14C112.732 7.20533 112.96 7.31267 113.147 7.462L112.741 8.484C112.601 8.372 112.442 8.288 112.265 8.232C112.088 8.16667 111.901 8.134 111.705 8.134C111.313 8.134 111.014 8.246 110.809 8.47C110.604 8.68467 110.501 9.00667 110.501 9.436V10.43L110.529 11.046V17.5H109.185ZM107.925 11.186V10.08H112.657V11.186H107.925ZM118.394 17.5V15.932L118.324 15.638V12.964C118.324 12.3947 118.156 11.956 117.82 11.648C117.493 11.3307 116.998 11.172 116.336 11.172C115.897 11.172 115.468 11.2467 115.048 11.396C114.628 11.536 114.273 11.7273 113.984 11.97L113.424 10.962C113.806 10.654 114.264 10.4207 114.796 10.262C115.337 10.094 115.902 10.01 116.49 10.01C117.507 10.01 118.291 10.2573 118.842 10.752C119.392 11.2467 119.668 12.0027 119.668 13.02V17.5H118.394ZM115.958 17.584C115.407 17.584 114.922 17.4907 114.502 17.304C114.091 17.1173 113.774 16.8607 113.55 16.534C113.326 16.198 113.214 15.82 113.214 15.4C113.214 14.9987 113.307 14.6347 113.494 14.308C113.69 13.9813 114.002 13.72 114.432 13.524C114.87 13.328 115.458 13.23 116.196 13.23H118.548V14.196H116.252C115.58 14.196 115.127 14.308 114.894 14.532C114.66 14.756 114.544 15.0267 114.544 15.344C114.544 15.708 114.688 16.002 114.978 16.226C115.267 16.4407 115.668 16.548 116.182 16.548C116.686 16.548 117.124 16.436 117.498 16.212C117.88 15.988 118.156 15.6613 118.324 15.232L118.59 16.156C118.412 16.5947 118.1 16.9447 117.652 17.206C117.204 17.458 116.639 17.584 115.958 17.584ZM124.283 17.584C123.667 17.584 123.079 17.5 122.519 17.332C121.968 17.164 121.534 16.9587 121.217 16.716L121.777 15.652C122.094 15.8667 122.486 16.0487 122.953 16.198C123.42 16.3473 123.896 16.422 124.381 16.422C125.006 16.422 125.454 16.3333 125.725 16.156C126.005 15.9787 126.145 15.7313 126.145 15.414C126.145 15.1807 126.061 14.9987 125.893 14.868C125.725 14.7373 125.501 14.6393 125.221 14.574C124.95 14.5087 124.647 14.4527 124.311 14.406C123.975 14.35 123.639 14.2847 123.303 14.21C122.967 14.126 122.659 14.014 122.379 13.874C122.099 13.7247 121.875 13.524 121.707 13.272C121.539 13.0107 121.455 12.6653 121.455 12.236C121.455 11.788 121.581 11.396 121.833 11.06C122.085 10.724 122.44 10.4673 122.897 10.29C123.364 10.1033 123.914 10.01 124.549 10.01C125.034 10.01 125.524 10.0707 126.019 10.192C126.523 10.304 126.934 10.4673 127.251 10.682L126.677 11.746C126.341 11.522 125.991 11.368 125.627 11.284C125.263 11.2 124.899 11.158 124.535 11.158C123.947 11.158 123.508 11.256 123.219 11.452C122.93 11.6387 122.785 11.8813 122.785 12.18C122.785 12.432 122.869 12.628 123.037 12.768C123.214 12.8987 123.438 13.0013 123.709 13.076C123.989 13.1507 124.297 13.216 124.633 13.272C124.969 13.3187 125.305 13.384 125.641 13.468C125.977 13.5427 126.28 13.65 126.551 13.79C126.831 13.93 127.055 14.126 127.223 14.378C127.4 14.63 127.489 14.966 127.489 15.386C127.489 15.834 127.358 16.2213 127.097 16.548C126.836 16.8747 126.467 17.1313 125.991 17.318C125.515 17.4953 124.946 17.584 124.283 17.584ZM131.717 17.584C130.97 17.584 130.391 17.3833 129.981 16.982C129.57 16.5807 129.365 16.0067 129.365 15.26V8.456H130.709V15.204C130.709 15.6053 130.807 15.9133 131.003 16.128C131.208 16.3427 131.497 16.45 131.871 16.45C132.291 16.45 132.641 16.3333 132.921 16.1L133.341 17.066C133.135 17.2433 132.888 17.374 132.599 17.458C132.319 17.542 132.025 17.584 131.717 17.584ZM128.105 11.186V10.08H132.837V11.186H128.105Z" fill="#112211"/>
</svg>
