<svg width="343" height="24" viewBox="0 0 343 24" fill="none" xmlns="http://www.w3.org/2000/svg">
<path d="M18.75 3H5.25C4.00736 3 3 4.00736 3 5.25V18.75C3 19.9926 4.00736 21 5.25 21H18.75C19.9926 21 21 19.9926 21 18.75V5.25C21 4.00736 19.9926 3 18.75 3Z" stroke="#112211" stroke-width="2" stroke-linejoin="round"/>
<path d="M34.73 12.334H39.784V13.538H34.73V12.334ZM34.87 17.5H33.47V7.7H40.386V8.918H34.87V17.5ZM42.024 17.5V10.08H43.312V12.096L43.186 11.592C43.3913 11.0787 43.7367 10.6867 44.222 10.416C44.7073 10.1453 45.3047 10.01 46.014 10.01V11.312C45.958 11.3027 45.902 11.298 45.846 11.298C45.7993 11.298 45.7527 11.298 45.706 11.298C44.9873 11.298 44.418 11.5127 43.998 11.942C43.578 12.3713 43.368 12.992 43.368 13.804V17.5H42.024ZM50.9061 17.584C50.1128 17.584 49.4128 17.4207 48.8061 17.094C48.2088 16.7673 47.7421 16.3193 47.4061 15.75C47.0795 15.1807 46.9161 14.5273 46.9161 13.79C46.9161 13.0527 47.0748 12.3993 47.3921 11.83C47.7188 11.2607 48.1621 10.8173 48.7221 10.5C49.2915 10.1733 49.9308 10.01 50.6401 10.01C51.3588 10.01 51.9935 10.1687 52.5441 10.486C53.0948 10.8033 53.5241 11.2513 53.8321 11.83C54.1495 12.3993 54.3081 13.0667 54.3081 13.832C54.3081 13.888 54.3035 13.9533 54.2941 14.028C54.2941 14.1027 54.2895 14.1727 54.2801 14.238H47.9661V13.272H53.5801L53.0341 13.608C53.0435 13.132 52.9455 12.7073 52.7401 12.334C52.5348 11.9607 52.2501 11.6713 51.8861 11.466C51.5315 11.2513 51.1161 11.144 50.6401 11.144C50.1735 11.144 49.7581 11.2513 49.3941 11.466C49.0301 11.6713 48.7455 11.9653 48.5401 12.348C48.3348 12.7213 48.2321 13.1507 48.2321 13.636V13.86C48.2321 14.3547 48.3441 14.798 48.5681 15.19C48.8015 15.5727 49.1235 15.8713 49.5341 16.086C49.9448 16.3007 50.4161 16.408 50.9481 16.408C51.3868 16.408 51.7835 16.3333 52.1381 16.184C52.5021 16.0347 52.8195 15.8107 53.0901 15.512L53.8321 16.38C53.4961 16.772 53.0761 17.0707 52.5721 17.276C52.0775 17.4813 51.5221 17.584 50.9061 17.584ZM59.4784 17.584C58.6851 17.584 57.9851 17.4207 57.3784 17.094C56.7811 16.7673 56.3144 16.3193 55.9784 15.75C55.6517 15.1807 55.4884 14.5273 55.4884 13.79C55.4884 13.0527 55.6471 12.3993 55.9644 11.83C56.2911 11.2607 56.7344 10.8173 57.2944 10.5C57.8637 10.1733 58.5031 10.01 59.2124 10.01C59.9311 10.01 60.5657 10.1687 61.1164 10.486C61.6671 10.8033 62.0964 11.2513 62.4044 11.83C62.7217 12.3993 62.8804 13.0667 62.8804 13.832C62.8804 13.888 62.8757 13.9533 62.8664 14.028C62.8664 14.1027 62.8617 14.1727 62.8524 14.238H56.5384V13.272H62.1524L61.6064 13.608C61.6157 13.132 61.5177 12.7073 61.3124 12.334C61.1071 11.9607 60.8224 11.6713 60.4584 11.466C60.1037 11.2513 59.6884 11.144 59.2124 11.144C58.7457 11.144 58.3304 11.2513 57.9664 11.466C57.6024 11.6713 57.3177 11.9653 57.1124 12.348C56.9071 12.7213 56.8044 13.1507 56.8044 13.636V13.86C56.8044 14.3547 56.9164 14.798 57.1404 15.19C57.3737 15.5727 57.6957 15.8713 58.1064 16.086C58.5171 16.3007 58.9884 16.408 59.5204 16.408C59.9591 16.408 60.3557 16.3333 60.7104 16.184C61.0744 16.0347 61.3917 15.8107 61.6624 15.512L62.4044 16.38C62.0684 16.772 61.6484 17.0707 61.1444 17.276C60.6497 17.4813 60.0944 17.584 59.4784 17.584ZM71.7404 17.584C70.9844 17.584 70.3078 17.4207 69.7104 17.094C69.1224 16.7673 68.6604 16.3193 68.3244 15.75C67.9884 15.1807 67.8204 14.5273 67.8204 13.79C67.8204 13.0527 67.9884 12.3993 68.3244 11.83C68.6604 11.2607 69.1224 10.8173 69.7104 10.5C70.3078 10.1733 70.9844 10.01 71.7404 10.01C72.4124 10.01 73.0098 10.1453 73.5324 10.416C74.0644 10.6773 74.4751 11.0693 74.7644 11.592L73.7424 12.25C73.4998 11.886 73.2011 11.62 72.8464 11.452C72.5011 11.2747 72.1278 11.186 71.7264 11.186C71.2411 11.186 70.8071 11.2933 70.4244 11.508C70.0418 11.7227 69.7384 12.026 69.5144 12.418C69.2904 12.8007 69.1784 13.258 69.1784 13.79C69.1784 14.322 69.2904 14.784 69.5144 15.176C69.7384 15.568 70.0418 15.8713 70.4244 16.086C70.8071 16.3007 71.2411 16.408 71.7264 16.408C72.1278 16.408 72.5011 16.324 72.8464 16.156C73.2011 15.9787 73.4998 15.708 73.7424 15.344L74.7644 15.988C74.4751 16.5013 74.0644 16.898 73.5324 17.178C73.0098 17.4487 72.4124 17.584 71.7404 17.584ZM81.1105 17.5V15.932L81.0405 15.638V12.964C81.0405 12.3947 80.8725 11.956 80.5365 11.648C80.2098 11.3307 79.7151 11.172 79.0525 11.172C78.6138 11.172 78.1845 11.2467 77.7645 11.396C77.3445 11.536 76.9898 11.7273 76.7005 11.97L76.1405 10.962C76.5231 10.654 76.9805 10.4207 77.5125 10.262C78.0538 10.094 78.6185 10.01 79.2065 10.01C80.2238 10.01 81.0078 10.2573 81.5585 10.752C82.1091 11.2467 82.3845 12.0027 82.3845 13.02V17.5H81.1105ZM78.6745 17.584C78.1238 17.584 77.6385 17.4907 77.2185 17.304C76.8078 17.1173 76.4905 16.8607 76.2665 16.534C76.0425 16.198 75.9305 15.82 75.9305 15.4C75.9305 14.9987 76.0238 14.6347 76.2105 14.308C76.4065 13.9813 76.7191 13.72 77.1485 13.524C77.5871 13.328 78.1751 13.23 78.9125 13.23H81.2645V14.196H78.9685C78.2965 14.196 77.8438 14.308 77.6105 14.532C77.3771 14.756 77.2605 15.0267 77.2605 15.344C77.2605 15.708 77.4051 16.002 77.6945 16.226C77.9838 16.4407 78.3851 16.548 78.8985 16.548C79.4025 16.548 79.8411 16.436 80.2145 16.212C80.5971 15.988 80.8725 15.6613 81.0405 15.232L81.3065 16.156C81.1291 16.5947 80.8165 16.9447 80.3685 17.206C79.9205 17.458 79.3558 17.584 78.6745 17.584ZM88.8337 10.01C89.4403 10.01 89.9723 10.1267 90.4297 10.36C90.8963 10.5933 91.2603 10.948 91.5217 11.424C91.783 11.9 91.9137 12.502 91.9137 13.23V17.5H90.5697V13.384C90.5697 12.6653 90.3923 12.124 90.0377 11.76C89.6923 11.396 89.2023 11.214 88.5677 11.214C88.0917 11.214 87.6763 11.3073 87.3217 11.494C86.967 11.6807 86.6917 11.956 86.4957 12.32C86.309 12.684 86.2157 13.1367 86.2157 13.678V17.5H84.8717V10.08H86.1597V12.082L85.9497 11.55C86.1923 11.0647 86.5657 10.6867 87.0697 10.416C87.5737 10.1453 88.1617 10.01 88.8337 10.01ZM97.635 17.584C96.879 17.584 96.2023 17.4207 95.605 17.094C95.017 16.7673 94.555 16.3193 94.219 15.75C93.883 15.1807 93.715 14.5273 93.715 13.79C93.715 13.0527 93.883 12.3993 94.219 11.83C94.555 11.2607 95.017 10.8173 95.605 10.5C96.2023 10.1733 96.879 10.01 97.635 10.01C98.307 10.01 98.9043 10.1453 99.427 10.416C99.959 10.6773 100.37 11.0693 100.659 11.592L99.637 12.25C99.3943 11.886 99.0956 11.62 98.741 11.452C98.3956 11.2747 98.0223 11.186 97.621 11.186C97.1356 11.186 96.7016 11.2933 96.319 11.508C95.9363 11.7227 95.633 12.026 95.409 12.418C95.185 12.8007 95.073 13.258 95.073 13.79C95.073 14.322 95.185 14.784 95.409 15.176C95.633 15.568 95.9363 15.8713 96.319 16.086C96.7016 16.3007 97.1356 16.408 97.621 16.408C98.0223 16.408 98.3956 16.324 98.741 16.156C99.0956 15.9787 99.3943 15.708 99.637 15.344L100.659 15.988C100.37 16.5013 99.959 16.898 99.427 17.178C98.9043 17.4487 98.307 17.584 97.635 17.584ZM105.594 17.584C104.8 17.584 104.1 17.4207 103.494 17.094C102.896 16.7673 102.43 16.3193 102.094 15.75C101.767 15.1807 101.604 14.5273 101.604 13.79C101.604 13.0527 101.762 12.3993 102.08 11.83C102.406 11.2607 102.85 10.8173 103.41 10.5C103.979 10.1733 104.618 10.01 105.328 10.01C106.046 10.01 106.681 10.1687 107.232 10.486C107.782 10.8033 108.212 11.2513 108.52 11.83C108.837 12.3993 108.996 13.0667 108.996 13.832C108.996 13.888 108.991 13.9533 108.982 14.028C108.982 14.1027 108.977 14.1727 108.968 14.238H102.654V13.272H108.268L107.722 13.608C107.731 13.132 107.633 12.7073 107.428 12.334C107.222 11.9607 106.938 11.6713 106.574 11.466C106.219 11.2513 105.804 11.144 105.328 11.144C104.861 11.144 104.446 11.2513 104.082 11.466C103.718 11.6713 103.433 11.9653 103.228 12.348C103.022 12.7213 102.92 13.1507 102.92 13.636V13.86C102.92 14.3547 103.032 14.798 103.256 15.19C103.489 15.5727 103.811 15.8713 104.222 16.086C104.632 16.3007 105.104 16.408 105.636 16.408C106.074 16.408 106.471 16.3333 106.826 16.184C107.19 16.0347 107.507 15.8107 107.778 15.512L108.52 16.38C108.184 16.772 107.764 17.0707 107.26 17.276C106.765 17.4813 106.21 17.584 105.594 17.584ZM110.862 17.5V7.112H112.206V17.5H110.862ZM114.772 17.5V7.112H116.116V17.5H114.772ZM123.288 17.5V15.932L123.218 15.638V12.964C123.218 12.3947 123.05 11.956 122.714 11.648C122.388 11.3307 121.893 11.172 121.23 11.172C120.792 11.172 120.362 11.2467 119.942 11.396C119.522 11.536 119.168 11.7273 118.878 11.97L118.318 10.962C118.701 10.654 119.158 10.4207 119.69 10.262C120.232 10.094 120.796 10.01 121.384 10.01C122.402 10.01 123.186 10.2573 123.736 10.752C124.287 11.2467 124.562 12.0027 124.562 13.02V17.5H123.288ZM120.852 17.584C120.302 17.584 119.816 17.4907 119.396 17.304C118.986 17.1173 118.668 16.8607 118.444 16.534C118.22 16.198 118.108 15.82 118.108 15.4C118.108 14.9987 118.202 14.6347 118.388 14.308C118.584 13.9813 118.897 13.72 119.326 13.524C119.765 13.328 120.353 13.23 121.09 13.23H123.442V14.196H121.146C120.474 14.196 120.022 14.308 119.788 14.532C119.555 14.756 119.438 15.0267 119.438 15.344C119.438 15.708 119.583 16.002 119.872 16.226C120.162 16.4407 120.563 16.548 121.076 16.548C121.58 16.548 122.019 16.436 122.392 16.212C122.775 15.988 123.05 15.6613 123.218 15.232L123.484 16.156C123.307 16.5947 122.994 16.9447 122.546 17.206C122.098 17.458 121.534 17.584 120.852 17.584ZM129.597 17.584C128.851 17.584 128.272 17.3833 127.861 16.982C127.451 16.5807 127.245 16.0067 127.245 15.26V8.456H128.589V15.204C128.589 15.6053 128.687 15.9133 128.883 16.128C129.089 16.3427 129.378 16.45 129.751 16.45C130.171 16.45 130.521 16.3333 130.801 16.1L131.221 17.066C131.016 17.2433 130.769 17.374 130.479 17.458C130.199 17.542 129.905 17.584 129.597 17.584ZM125.985 11.186V10.08H130.717V11.186H125.985ZM132.846 17.5V10.08H134.19V17.5H132.846ZM133.518 8.652C133.257 8.652 133.038 8.568 132.86 8.4C132.692 8.232 132.608 8.02667 132.608 7.784C132.608 7.532 132.692 7.322 132.86 7.154C133.038 6.986 133.257 6.902 133.518 6.902C133.78 6.902 133.994 6.986 134.162 7.154C134.34 7.31267 134.428 7.51333 134.428 7.756C134.428 8.008 134.344 8.22267 134.176 8.4C134.008 8.568 133.789 8.652 133.518 8.652ZM139.934 17.584C139.188 17.584 138.525 17.4207 137.946 17.094C137.368 16.7673 136.91 16.3193 136.574 15.75C136.238 15.1713 136.07 14.518 136.07 13.79C136.07 13.0527 136.238 12.3993 136.574 11.83C136.91 11.2607 137.368 10.8173 137.946 10.5C138.525 10.1733 139.188 10.01 139.934 10.01C140.672 10.01 141.33 10.1733 141.908 10.5C142.496 10.8173 142.954 11.2607 143.28 11.83C143.616 12.39 143.784 13.0433 143.784 13.79C143.784 14.5273 143.616 15.1807 143.28 15.75C142.954 16.3193 142.496 16.7673 141.908 17.094C141.33 17.4207 140.672 17.584 139.934 17.584ZM139.934 16.408C140.41 16.408 140.835 16.3007 141.208 16.086C141.591 15.8713 141.89 15.568 142.104 15.176C142.319 14.7747 142.426 14.3127 142.426 13.79C142.426 13.258 142.319 12.8007 142.104 12.418C141.89 12.026 141.591 11.7227 141.208 11.508C140.835 11.2933 140.41 11.186 139.934 11.186C139.458 11.186 139.034 11.2933 138.66 11.508C138.287 11.7227 137.988 12.026 137.764 12.418C137.54 12.8007 137.428 13.258 137.428 13.79C137.428 14.3127 137.54 14.7747 137.764 15.176C137.988 15.568 138.287 15.8713 138.66 16.086C139.034 16.3007 139.458 16.408 139.934 16.408ZM149.605 10.01C150.212 10.01 150.744 10.1267 151.201 10.36C151.668 10.5933 152.032 10.948 152.293 11.424C152.554 11.9 152.685 12.502 152.685 13.23V17.5H151.341V13.384C151.341 12.6653 151.164 12.124 150.809 11.76C150.464 11.396 149.974 11.214 149.339 11.214C148.863 11.214 148.448 11.3073 148.093 11.494C147.738 11.6807 147.463 11.956 147.267 12.32C147.08 12.684 146.987 13.1367 146.987 13.678V17.5H145.643V10.08H146.931V12.082L146.721 11.55C146.964 11.0647 147.337 10.6867 147.841 10.416C148.345 10.1453 148.933 10.01 149.605 10.01Z" fill="#112211"/>
</svg>
