<svg width="343" height="24" viewBox="0 0 343 24" fill="none" xmlns="http://www.w3.org/2000/svg">
<path d="M18.75 3H5.25C4.00736 3 3 4.00736 3 5.25V18.75C3 19.9926 4.00736 21 5.25 21H18.75C19.9926 21 21 19.9926 21 18.75V5.25C21 4.00736 19.9926 3 18.75 3Z" stroke="#112211" stroke-width="2" stroke-linejoin="round"/>
<path d="M34.73 12.334H39.784V13.538H34.73V12.334ZM34.87 17.5H33.47V7.7H40.386V8.918H34.87V17.5ZM42.024 17.5V10.08H43.312V12.096L43.186 11.592C43.3913 11.0787 43.7367 10.6867 44.222 10.416C44.7073 10.1453 45.3047 10.01 46.014 10.01V11.312C45.958 11.3027 45.902 11.298 45.846 11.298C45.7993 11.298 45.7527 11.298 45.706 11.298C44.9873 11.298 44.418 11.5127 43.998 11.942C43.578 12.3713 43.368 12.992 43.368 13.804V17.5H42.024ZM50.9061 17.584C50.1128 17.584 49.4128 17.4207 48.8061 17.094C48.2088 16.7673 47.7421 16.3193 47.4061 15.75C47.0795 15.1807 46.9161 14.5273 46.9161 13.79C46.9161 13.0527 47.0748 12.3993 47.3921 11.83C47.7188 11.2607 48.1621 10.8173 48.7221 10.5C49.2915 10.1733 49.9308 10.01 50.6401 10.01C51.3588 10.01 51.9935 10.1687 52.5441 10.486C53.0948 10.8033 53.5241 11.2513 53.8321 11.83C54.1495 12.3993 54.3081 13.0667 54.3081 13.832C54.3081 13.888 54.3035 13.9533 54.2941 14.028C54.2941 14.1027 54.2895 14.1727 54.2801 14.238H47.9661V13.272H53.5801L53.0341 13.608C53.0435 13.132 52.9455 12.7073 52.7401 12.334C52.5348 11.9607 52.2501 11.6713 51.8861 11.466C51.5315 11.2513 51.1161 11.144 50.6401 11.144C50.1735 11.144 49.7581 11.2513 49.3941 11.466C49.0301 11.6713 48.7455 11.9653 48.5401 12.348C48.3348 12.7213 48.2321 13.1507 48.2321 13.636V13.86C48.2321 14.3547 48.3441 14.798 48.5681 15.19C48.8015 15.5727 49.1235 15.8713 49.5341 16.086C49.9448 16.3007 50.4161 16.408 50.9481 16.408C51.3868 16.408 51.7835 16.3333 52.1381 16.184C52.5021 16.0347 52.8195 15.8107 53.0901 15.512L53.8321 16.38C53.4961 16.772 53.0761 17.0707 52.5721 17.276C52.0775 17.4813 51.5221 17.584 50.9061 17.584ZM59.4784 17.584C58.6851 17.584 57.9851 17.4207 57.3784 17.094C56.7811 16.7673 56.3144 16.3193 55.9784 15.75C55.6517 15.1807 55.4884 14.5273 55.4884 13.79C55.4884 13.0527 55.6471 12.3993 55.9644 11.83C56.2911 11.2607 56.7344 10.8173 57.2944 10.5C57.8637 10.1733 58.5031 10.01 59.2124 10.01C59.9311 10.01 60.5657 10.1687 61.1164 10.486C61.6671 10.8033 62.0964 11.2513 62.4044 11.83C62.7217 12.3993 62.8804 13.0667 62.8804 13.832C62.8804 13.888 62.8757 13.9533 62.8664 14.028C62.8664 14.1027 62.8617 14.1727 62.8524 14.238H56.5384V13.272H62.1524L61.6064 13.608C61.6157 13.132 61.5177 12.7073 61.3124 12.334C61.1071 11.9607 60.8224 11.6713 60.4584 11.466C60.1037 11.2513 59.6884 11.144 59.2124 11.144C58.7457 11.144 58.3304 11.2513 57.9664 11.466C57.6024 11.6713 57.3177 11.9653 57.1124 12.348C56.9071 12.7213 56.8044 13.1507 56.8044 13.636V13.86C56.8044 14.3547 56.9164 14.798 57.1404 15.19C57.3737 15.5727 57.6957 15.8713 58.1064 16.086C58.5171 16.3007 58.9884 16.408 59.5204 16.408C59.9591 16.408 60.3557 16.3333 60.7104 16.184C61.0744 16.0347 61.3917 15.8107 61.6624 15.512L62.4044 16.38C62.0684 16.772 61.6484 17.0707 61.1444 17.276C60.6497 17.4813 60.0944 17.584 59.4784 17.584ZM73.1124 17.5V15.932L73.0424 15.638V12.964C73.0424 12.3947 72.8744 11.956 72.5384 11.648C72.2118 11.3307 71.7171 11.172 71.0544 11.172C70.6158 11.172 70.1864 11.2467 69.7664 11.396C69.3464 11.536 68.9918 11.7273 68.7024 11.97L68.1424 10.962C68.5251 10.654 68.9824 10.4207 69.5144 10.262C70.0558 10.094 70.6204 10.01 71.2084 10.01C72.2258 10.01 73.0098 10.2573 73.5604 10.752C74.1111 11.2467 74.3864 12.0027 74.3864 13.02V17.5H73.1124ZM70.6764 17.584C70.1258 17.584 69.6404 17.4907 69.2204 17.304C68.8098 17.1173 68.4924 16.8607 68.2684 16.534C68.0444 16.198 67.9324 15.82 67.9324 15.4C67.9324 14.9987 68.0258 14.6347 68.2124 14.308C68.4084 13.9813 68.7211 13.72 69.1504 13.524C69.5891 13.328 70.1771 13.23 70.9144 13.23H73.2664V14.196H70.9704C70.2984 14.196 69.8458 14.308 69.6124 14.532C69.3791 14.756 69.2624 15.0267 69.2624 15.344C69.2624 15.708 69.4071 16.002 69.6964 16.226C69.9858 16.4407 70.3871 16.548 70.9004 16.548C71.4044 16.548 71.8431 16.436 72.2164 16.212C72.5991 15.988 72.8744 15.6613 73.0424 15.232L73.3084 16.156C73.1311 16.5947 72.8184 16.9447 72.3704 17.206C71.9224 17.458 71.3578 17.584 70.6764 17.584ZM76.8736 17.5V10.08H78.2176V17.5H76.8736ZM77.5456 8.652C77.2843 8.652 77.0649 8.568 76.8876 8.4C76.7196 8.232 76.6356 8.02667 76.6356 7.784C76.6356 7.532 76.7196 7.322 76.8876 7.154C77.0649 6.986 77.2843 6.902 77.5456 6.902C77.8069 6.902 78.0216 6.986 78.1896 7.154C78.3669 7.31267 78.4556 7.51333 78.4556 7.756C78.4556 8.008 78.3716 8.22267 78.2036 8.4C78.0356 8.568 77.8163 8.652 77.5456 8.652ZM80.7838 17.5V10.08H82.0718V12.096L81.9458 11.592C82.1511 11.0787 82.4964 10.6867 82.9818 10.416C83.4671 10.1453 84.0644 10.01 84.7738 10.01V11.312C84.7178 11.3027 84.6618 11.298 84.6058 11.298C84.5591 11.298 84.5124 11.298 84.4658 11.298C83.7471 11.298 83.1778 11.5127 82.7578 11.942C82.3378 12.3713 82.1278 12.992 82.1278 13.804V17.5H80.7838ZM90.3643 17.584C89.7483 17.584 89.1836 17.444 88.6703 17.164C88.1663 16.8747 87.7603 16.45 87.4523 15.89C87.1536 15.33 87.0042 14.63 87.0042 13.79C87.0042 12.95 87.1489 12.25 87.4383 11.69C87.7369 11.13 88.1383 10.71 88.6423 10.43C89.1556 10.15 89.7296 10.01 90.3643 10.01C91.0923 10.01 91.7363 10.1687 92.2963 10.486C92.8563 10.8033 93.2996 11.2467 93.6263 11.816C93.9529 12.376 94.1163 13.034 94.1163 13.79C94.1163 14.546 93.9529 15.2087 93.6263 15.778C93.2996 16.3473 92.8563 16.7907 92.2963 17.108C91.7363 17.4253 91.0923 17.584 90.3643 17.584ZM86.4303 20.216V10.08H87.7183V12.082L87.6343 13.804L87.7743 15.526V20.216H86.4303ZM90.2523 16.408C90.7283 16.408 91.1529 16.3007 91.5263 16.086C91.9089 15.8713 92.2076 15.568 92.4223 15.176C92.6463 14.7747 92.7583 14.3127 92.7583 13.79C92.7583 13.258 92.6463 12.8007 92.4223 12.418C92.2076 12.026 91.9089 11.7227 91.5263 11.508C91.1529 11.2933 90.7283 11.186 90.2523 11.186C89.7856 11.186 89.3609 11.2933 88.9783 11.508C88.6049 11.7227 88.3063 12.026 88.0823 12.418C87.8676 12.8007 87.7603 13.258 87.7603 13.79C87.7603 14.3127 87.8676 14.7747 88.0823 15.176C88.3063 15.568 88.6049 15.8713 88.9783 16.086C89.3609 16.3007 89.7856 16.408 90.2523 16.408ZM99.1512 17.584C98.4046 17.584 97.7419 17.4207 97.1632 17.094C96.5846 16.7673 96.1272 16.3193 95.7912 15.75C95.4552 15.1713 95.2872 14.518 95.2872 13.79C95.2872 13.0527 95.4552 12.3993 95.7912 11.83C96.1272 11.2607 96.5846 10.8173 97.1632 10.5C97.7419 10.1733 98.4046 10.01 99.1512 10.01C99.8886 10.01 100.547 10.1733 101.125 10.5C101.713 10.8173 102.171 11.2607 102.497 11.83C102.833 12.39 103.001 13.0433 103.001 13.79C103.001 14.5273 102.833 15.1807 102.497 15.75C102.171 16.3193 101.713 16.7673 101.125 17.094C100.547 17.4207 99.8886 17.584 99.1512 17.584ZM99.1512 16.408C99.6272 16.408 100.052 16.3007 100.425 16.086C100.808 15.8713 101.107 15.568 101.321 15.176C101.536 14.7747 101.643 14.3127 101.643 13.79C101.643 13.258 101.536 12.8007 101.321 12.418C101.107 12.026 100.808 11.7227 100.425 11.508C100.052 11.2933 99.6272 11.186 99.1512 11.186C98.6752 11.186 98.2506 11.2933 97.8772 11.508C97.5039 11.7227 97.2052 12.026 96.9812 12.418C96.7572 12.8007 96.6452 13.258 96.6452 13.79C96.6452 14.3127 96.7572 14.7747 96.9812 15.176C97.2052 15.568 97.5039 15.8713 97.8772 16.086C98.2506 16.3007 98.6752 16.408 99.1512 16.408ZM104.86 17.5V10.08H106.148V12.096L106.022 11.592C106.227 11.0787 106.573 10.6867 107.058 10.416C107.543 10.1453 108.141 10.01 108.85 10.01V11.312C108.794 11.3027 108.738 11.298 108.682 11.298C108.635 11.298 108.589 11.298 108.542 11.298C107.823 11.298 107.254 11.5127 106.834 11.942C106.414 12.3713 106.204 12.992 106.204 13.804V17.5H104.86ZM113.355 17.584C112.609 17.584 112.03 17.3833 111.619 16.982C111.209 16.5807 111.003 16.0067 111.003 15.26V8.456H112.347V15.204C112.347 15.6053 112.445 15.9133 112.641 16.128C112.847 16.3427 113.136 16.45 113.509 16.45C113.929 16.45 114.279 16.3333 114.559 16.1L114.979 17.066C114.774 17.2433 114.527 17.374 114.237 17.458C113.957 17.542 113.663 17.584 113.355 17.584ZM109.743 11.186V10.08H114.475V11.186H109.743ZM122.492 17.584C121.876 17.584 121.288 17.5 120.728 17.332C120.177 17.164 119.743 16.9587 119.426 16.716L119.986 15.652C120.303 15.8667 120.695 16.0487 121.162 16.198C121.629 16.3473 122.105 16.422 122.59 16.422C123.215 16.422 123.663 16.3333 123.934 16.156C124.214 15.9787 124.354 15.7313 124.354 15.414C124.354 15.1807 124.27 14.9987 124.102 14.868C123.934 14.7373 123.71 14.6393 123.43 14.574C123.159 14.5087 122.856 14.4527 122.52 14.406C122.184 14.35 121.848 14.2847 121.512 14.21C121.176 14.126 120.868 14.014 120.588 13.874C120.308 13.7247 120.084 13.524 119.916 13.272C119.748 13.0107 119.664 12.6653 119.664 12.236C119.664 11.788 119.79 11.396 120.042 11.06C120.294 10.724 120.649 10.4673 121.106 10.29C121.573 10.1033 122.123 10.01 122.758 10.01C123.243 10.01 123.733 10.0707 124.228 10.192C124.732 10.304 125.143 10.4673 125.46 10.682L124.886 11.746C124.55 11.522 124.2 11.368 123.836 11.284C123.472 11.2 123.108 11.158 122.744 11.158C122.156 11.158 121.717 11.256 121.428 11.452C121.139 11.6387 120.994 11.8813 120.994 12.18C120.994 12.432 121.078 12.628 121.246 12.768C121.423 12.8987 121.647 13.0013 121.918 13.076C122.198 13.1507 122.506 13.216 122.842 13.272C123.178 13.3187 123.514 13.384 123.85 13.468C124.186 13.5427 124.489 13.65 124.76 13.79C125.04 13.93 125.264 14.126 125.432 14.378C125.609 14.63 125.698 14.966 125.698 15.386C125.698 15.834 125.567 16.2213 125.306 16.548C125.045 16.8747 124.676 17.1313 124.2 17.318C123.724 17.4953 123.155 17.584 122.492 17.584ZM131.34 10.01C131.946 10.01 132.478 10.1267 132.936 10.36C133.402 10.5933 133.766 10.948 134.028 11.424C134.289 11.9 134.42 12.502 134.42 13.23V17.5H133.076V13.384C133.076 12.6653 132.898 12.124 132.544 11.76C132.198 11.396 131.708 11.214 131.074 11.214C130.598 11.214 130.182 11.3073 129.828 11.494C129.473 11.6807 129.198 11.956 129.002 12.32C128.815 12.684 128.722 13.1367 128.722 13.678V17.5H127.378V7.112H128.722V12.082L128.456 11.55C128.698 11.0647 129.072 10.6867 129.576 10.416C130.08 10.1453 130.668 10.01 131.34 10.01ZM140.029 17.584C139.394 17.584 138.834 17.4673 138.349 17.234C137.873 17.0007 137.499 16.646 137.229 16.17C136.967 15.6847 136.837 15.078 136.837 14.35V10.08H138.181V14.196C138.181 14.924 138.353 15.47 138.699 15.834C139.053 16.198 139.548 16.38 140.183 16.38C140.649 16.38 141.055 16.2867 141.401 16.1C141.746 15.904 142.012 15.624 142.199 15.26C142.385 14.8867 142.479 14.4387 142.479 13.916V10.08H143.823V17.5H142.549V15.498L142.759 16.03C142.516 16.5247 142.152 16.9073 141.667 17.178C141.181 17.4487 140.635 17.584 140.029 17.584ZM148.929 17.584C148.183 17.584 147.604 17.3833 147.193 16.982C146.783 16.5807 146.577 16.0067 146.577 15.26V8.456H147.921V15.204C147.921 15.6053 148.019 15.9133 148.215 16.128C148.421 16.3427 148.71 16.45 149.083 16.45C149.503 16.45 149.853 16.3333 150.133 16.1L150.553 17.066C150.348 17.2433 150.101 17.374 149.811 17.458C149.531 17.542 149.237 17.584 148.929 17.584ZM145.317 11.186V10.08H150.049V11.186H145.317ZM154.549 17.584C153.802 17.584 153.223 17.3833 152.813 16.982C152.402 16.5807 152.197 16.0067 152.197 15.26V8.456H153.541V15.204C153.541 15.6053 153.639 15.9133 153.835 16.128C154.04 16.3427 154.329 16.45 154.703 16.45C155.123 16.45 155.473 16.3333 155.753 16.1L156.173 17.066C155.967 17.2433 155.72 17.374 155.431 17.458C155.151 17.542 154.857 17.584 154.549 17.584ZM150.937 11.186V10.08H155.669V11.186H150.937ZM157.797 17.5V7.112H159.141V17.5H157.797ZM165.012 17.584C164.218 17.584 163.518 17.4207 162.912 17.094C162.314 16.7673 161.848 16.3193 161.512 15.75C161.185 15.1807 161.022 14.5273 161.022 13.79C161.022 13.0527 161.18 12.3993 161.498 11.83C161.824 11.2607 162.268 10.8173 162.828 10.5C163.397 10.1733 164.036 10.01 164.746 10.01C165.464 10.01 166.099 10.1687 166.65 10.486C167.2 10.8033 167.63 11.2513 167.938 11.83C168.255 12.3993 168.414 13.0667 168.414 13.832C168.414 13.888 168.409 13.9533 168.4 14.028C168.4 14.1027 168.395 14.1727 168.386 14.238H162.072V13.272H167.686L167.14 13.608C167.149 13.132 167.051 12.7073 166.846 12.334C166.64 11.9607 166.356 11.6713 165.992 11.466C165.637 11.2513 165.222 11.144 164.746 11.144C164.279 11.144 163.864 11.2513 163.5 11.466C163.136 11.6713 162.851 11.9653 162.646 12.348C162.44 12.7213 162.338 13.1507 162.338 13.636V13.86C162.338 14.3547 162.45 14.798 162.674 15.19C162.907 15.5727 163.229 15.8713 163.64 16.086C164.05 16.3007 164.522 16.408 165.054 16.408C165.492 16.408 165.889 16.3333 166.244 16.184C166.608 16.0347 166.925 15.8107 167.196 15.512L167.938 16.38C167.602 16.772 167.182 17.0707 166.678 17.276C166.183 17.4813 165.628 17.584 165.012 17.584Z" fill="#112211"/>
</svg>
