<svg width="83" height="25" viewBox="0 0 83 25" fill="none" xmlns="http://www.w3.org/2000/svg">
<path d="M18.75 3.5H5.25C4.00736 3.5 3 4.50736 3 5.75V19.25C3 20.4926 4.00736 21.5 5.25 21.5H18.75C19.9926 21.5 21 20.4926 21 19.25V5.75C21 4.50736 19.9926 3.5 18.75 3.5Z" stroke="#112211" stroke-width="2" stroke-linejoin="round"/>
<path d="M34.73 12.834H39.784V14.038H34.73V12.834ZM34.87 18H33.47V8.2H40.386V9.418H34.87V18ZM42.1607 18V10.58H43.5047V18H42.1607ZM42.8327 9.152C42.5714 9.152 42.3521 9.068 42.1747 8.9C42.0067 8.732 41.9227 8.52667 41.9227 8.284C41.9227 8.032 42.0067 7.822 42.1747 7.654C42.3521 7.486 42.5714 7.402 42.8327 7.402C43.0941 7.402 43.3087 7.486 43.4767 7.654C43.6541 7.81267 43.7427 8.01333 43.7427 8.256C43.7427 8.508 43.6587 8.72267 43.4907 8.9C43.3227 9.068 43.1034 9.152 42.8327 9.152ZM48.6189 18.084C47.8722 18.084 47.2935 17.8833 46.8829 17.482C46.4722 17.0807 46.2669 16.5067 46.2669 15.76V8.956H47.6109V15.704C47.6109 16.1053 47.7089 16.4133 47.9049 16.628C48.1102 16.8427 48.3995 16.95 48.7729 16.95C49.1929 16.95 49.5429 16.8333 49.8229 16.6L50.2429 17.566C50.0375 17.7433 49.7902 17.874 49.5009 17.958C49.2209 18.042 48.9269 18.084 48.6189 18.084ZM45.0069 11.686V10.58H49.7389V11.686H45.0069ZM55.8298 10.51C56.4364 10.51 56.9684 10.6267 57.4258 10.86C57.8924 11.0933 58.2564 11.448 58.5178 11.924C58.7791 12.4 58.9098 13.002 58.9098 13.73V18H57.5658V13.884C57.5658 13.1653 57.3884 12.624 57.0338 12.26C56.6884 11.896 56.1984 11.714 55.5638 11.714C55.0878 11.714 54.6724 11.8073 54.3178 11.994C53.9631 12.1807 53.6878 12.456 53.4918 12.82C53.3051 13.184 53.2118 13.6367 53.2118 14.178V18H51.8678V10.58H53.1558V12.582L52.9458 12.05C53.1884 11.5647 53.5618 11.1867 54.0658 10.916C54.5698 10.6453 55.1578 10.51 55.8298 10.51ZM64.701 18.084C63.9077 18.084 63.2077 17.9207 62.601 17.594C62.0037 17.2673 61.537 16.8193 61.201 16.25C60.8744 15.6807 60.711 15.0273 60.711 14.29C60.711 13.5527 60.8697 12.8993 61.187 12.33C61.5137 11.7607 61.957 11.3173 62.517 11C63.0864 10.6733 63.7257 10.51 64.435 10.51C65.1537 10.51 65.7884 10.6687 66.339 10.986C66.8897 11.3033 67.319 11.7513 67.627 12.33C67.9444 12.8993 68.103 13.5667 68.103 14.332C68.103 14.388 68.0984 14.4533 68.089 14.528C68.089 14.6027 68.0844 14.6727 68.075 14.738H61.761V13.772H67.375L66.829 14.108C66.8384 13.632 66.7404 13.2073 66.535 12.834C66.3297 12.4607 66.045 12.1713 65.681 11.966C65.3264 11.7513 64.911 11.644 64.435 11.644C63.9684 11.644 63.553 11.7513 63.189 11.966C62.825 12.1713 62.5404 12.4653 62.335 12.848C62.1297 13.2213 62.027 13.6507 62.027 14.136V14.36C62.027 14.8547 62.139 15.298 62.363 15.69C62.5964 16.0727 62.9184 16.3713 63.329 16.586C63.7397 16.8007 64.211 16.908 64.743 16.908C65.1817 16.908 65.5784 16.8333 65.933 16.684C66.297 16.5347 66.6144 16.3107 66.885 16.012L67.627 16.88C67.291 17.272 66.871 17.5707 66.367 17.776C65.8724 17.9813 65.317 18.084 64.701 18.084ZM72.0973 18.084C71.4813 18.084 70.8933 18 70.3333 17.832C69.7826 17.664 69.3486 17.4587 69.0313 17.216L69.5913 16.152C69.9086 16.3667 70.3006 16.5487 70.7673 16.698C71.234 16.8473 71.71 16.922 72.1953 16.922C72.8206 16.922 73.2686 16.8333 73.5393 16.656C73.8193 16.4787 73.9593 16.2313 73.9593 15.914C73.9593 15.6807 73.8753 15.4987 73.7073 15.368C73.5393 15.2373 73.3153 15.1393 73.0353 15.074C72.7646 15.0087 72.4613 14.9527 72.1253 14.906C71.7893 14.85 71.4533 14.7847 71.1173 14.71C70.7813 14.626 70.4733 14.514 70.1933 14.374C69.9133 14.2247 69.6893 14.024 69.5213 13.772C69.3533 13.5107 69.2693 13.1653 69.2693 12.736C69.2693 12.288 69.3953 11.896 69.6473 11.56C69.8993 11.224 70.254 10.9673 70.7113 10.79C71.178 10.6033 71.7286 10.51 72.3633 10.51C72.8486 10.51 73.3386 10.5707 73.8333 10.692C74.3373 10.804 74.748 10.9673 75.0653 11.182L74.4913 12.246C74.1553 12.022 73.8053 11.868 73.4413 11.784C73.0773 11.7 72.7133 11.658 72.3493 11.658C71.7613 11.658 71.3226 11.756 71.0333 11.952C70.744 12.1387 70.5993 12.3813 70.5993 12.68C70.5993 12.932 70.6833 13.128 70.8513 13.268C71.0286 13.3987 71.2526 13.5013 71.5233 13.576C71.8033 13.6507 72.1113 13.716 72.4473 13.772C72.7833 13.8187 73.1193 13.884 73.4553 13.968C73.7913 14.0427 74.0946 14.15 74.3653 14.29C74.6453 14.43 74.8693 14.626 75.0373 14.878C75.2146 15.13 75.3033 15.466 75.3033 15.886C75.3033 16.334 75.1726 16.7213 74.9113 17.048C74.65 17.3747 74.2813 17.6313 73.8053 17.818C73.3293 17.9953 72.76 18.084 72.0973 18.084ZM79.111 18.084C78.495 18.084 77.907 18 77.347 17.832C76.7963 17.664 76.3623 17.4587 76.045 17.216L76.605 16.152C76.9223 16.3667 77.3143 16.5487 77.781 16.698C78.2477 16.8473 78.7237 16.922 79.209 16.922C79.8343 16.922 80.2823 16.8333 80.553 16.656C80.833 16.4787 80.973 16.2313 80.973 15.914C80.973 15.6807 80.889 15.4987 80.721 15.368C80.553 15.2373 80.329 15.1393 80.049 15.074C79.7783 15.0087 79.475 14.9527 79.139 14.906C78.803 14.85 78.467 14.7847 78.131 14.71C77.795 14.626 77.487 14.514 77.207 14.374C76.927 14.2247 76.703 14.024 76.535 13.772C76.367 13.5107 76.283 13.1653 76.283 12.736C76.283 12.288 76.409 11.896 76.661 11.56C76.913 11.224 77.2677 10.9673 77.725 10.79C78.1917 10.6033 78.7423 10.51 79.377 10.51C79.8623 10.51 80.3523 10.5707 80.847 10.692C81.351 10.804 81.7617 10.9673 82.079 11.182L81.505 12.246C81.169 12.022 80.819 11.868 80.455 11.784C80.091 11.7 79.727 11.658 79.363 11.658C78.775 11.658 78.3363 11.756 78.047 11.952C77.7577 12.1387 77.613 12.3813 77.613 12.68C77.613 12.932 77.697 13.128 77.865 13.268C78.0423 13.3987 78.2663 13.5013 78.537 13.576C78.817 13.6507 79.125 13.716 79.461 13.772C79.797 13.8187 80.133 13.884 80.469 13.968C80.805 14.0427 81.1083 14.15 81.379 14.29C81.659 14.43 81.883 14.626 82.051 14.878C82.2283 15.13 82.317 15.466 82.317 15.886C82.317 16.334 82.1863 16.7213 81.925 17.048C81.6637 17.3747 81.295 17.6313 80.819 17.818C80.343 17.9953 79.7737 18.084 79.111 18.084Z" fill="#112211"/>
</svg>
