<svg width="142" height="25" viewBox="0 0 142 25" fill="none" xmlns="http://www.w3.org/2000/svg">
<path d="M18.75 3.5H5.25C4.00736 3.5 3 4.50736 3 5.75V19.25C3 20.4926 4.00736 21.5 5.25 21.5H18.75C19.9926 21.5 21 20.4926 21 19.25V5.75C21 4.50736 19.9926 3.5 18.75 3.5Z" stroke="#112211" stroke-width="2" stroke-linejoin="round"/>
<path d="M34.534 16.782L37.53 13.898C38.86 12.624 39.14 11.77 39.14 10.818C39.14 9.138 37.824 8.088 35.78 8.088C34.254 8.088 32.952 8.634 32.196 9.572L33.148 10.398C33.75 9.67 34.604 9.334 35.654 9.334C37.026 9.334 37.74 9.95 37.74 10.958C37.74 11.574 37.544 12.19 36.508 13.198L32.518 17.048V18H39.56V16.782H34.534ZM48.9773 14.388H47.1153V12.26H45.7993V14.388H42.0333L46.8353 8.2H45.3233L40.3113 14.612V15.592H45.7573V18H47.1153V15.592H48.9773V14.388ZM54.3805 10.51C53.2465 10.51 52.3225 10.916 51.7625 11.63V7.612H50.4185V18H51.7625V14.178C51.7625 12.568 52.6865 11.714 54.1145 11.714C55.3885 11.714 56.1165 12.428 56.1165 13.884V18H57.4605V13.73C57.4605 11.546 56.1865 10.51 54.3805 10.51ZM61.2358 11.826V10.58H59.9478V18H61.2918V14.304C61.2918 12.68 62.1878 11.798 63.6298 11.798C63.7278 11.798 63.8258 11.798 63.9378 11.812V10.51C62.6358 10.51 61.7118 10.958 61.2358 11.826ZM72.1658 8.634C72.5578 8.634 72.9218 8.774 73.2018 8.984L73.6078 7.962C73.2298 7.668 72.6698 7.528 72.0958 7.528C70.5138 7.528 69.6458 8.48 69.6458 9.922V10.58H68.3858V11.686H69.6458V18H70.9898V11.686H73.1178V10.58H70.9618V9.936C70.9618 9.082 71.3678 8.634 72.1658 8.634ZM76.7944 11.826V10.58H75.5064V18H76.8504V14.304C76.8504 12.68 77.7464 11.798 79.1884 11.798C79.2864 11.798 79.3844 11.798 79.4964 11.812V10.51C78.1944 10.51 77.2704 10.958 76.7944 11.826ZM84.2625 18.084C86.4885 18.084 88.1125 16.502 88.1125 14.29C88.1125 12.078 86.4885 10.51 84.2625 10.51C82.0365 10.51 80.3985 12.078 80.3985 14.29C80.3985 16.502 82.0365 18.084 84.2625 18.084ZM84.2625 16.908C82.8345 16.908 81.7565 15.872 81.7565 14.29C81.7565 12.708 82.8345 11.686 84.2625 11.686C85.6905 11.686 86.7545 12.708 86.7545 14.29C86.7545 15.872 85.6905 16.908 84.2625 16.908ZM93.9333 10.51C92.7573 10.51 91.8053 10.944 91.2593 11.7V10.58H89.9713V18H91.3153V14.178C91.3153 12.568 92.2393 11.714 93.6673 11.714C94.9413 11.714 95.6693 12.428 95.6693 13.884V18H97.0133V13.73C97.0133 11.546 95.7393 10.51 93.9333 10.51ZM103.253 16.6C102.973 16.824 102.595 16.95 102.203 16.95C101.461 16.95 101.041 16.502 101.041 15.704V11.686H103.169V10.58H101.041V8.956H99.6966V10.58H98.4366V11.686H99.6966V15.76C99.6966 17.258 100.551 18.084 102.049 18.084C102.651 18.084 103.267 17.916 103.673 17.566L103.253 16.6ZM114.713 7.612V11.7C114.097 10.902 113.173 10.51 112.123 10.51C109.953 10.51 108.371 12.022 108.371 14.29C108.371 16.558 109.953 18.084 112.123 18.084C113.215 18.084 114.167 17.664 114.769 16.824V18H116.057V7.612H114.713ZM112.235 16.908C110.807 16.908 109.729 15.872 109.729 14.29C109.729 12.708 110.807 11.686 112.235 11.686C113.649 11.686 114.727 12.708 114.727 14.29C114.727 15.872 113.649 16.908 112.235 16.908ZM125.306 14.332C125.306 12.05 123.78 10.51 121.638 10.51C119.496 10.51 117.914 12.092 117.914 14.29C117.914 16.502 119.51 18.084 121.904 18.084C123.136 18.084 124.158 17.664 124.83 16.88L124.088 16.012C123.542 16.614 122.814 16.908 121.946 16.908C120.476 16.908 119.426 16.04 119.258 14.738H125.278C125.292 14.612 125.306 14.444 125.306 14.332ZM121.638 11.644C122.94 11.644 123.878 12.526 124.018 13.772H119.258C119.398 12.512 120.35 11.644 121.638 11.644ZM129.3 18.084C131.274 18.084 132.506 17.23 132.506 15.886C132.506 13.002 127.802 14.43 127.802 12.68C127.802 12.092 128.376 11.658 129.552 11.658C130.28 11.658 131.022 11.812 131.694 12.246L132.268 11.182C131.624 10.762 130.532 10.51 129.566 10.51C127.662 10.51 126.472 11.406 126.472 12.736C126.472 15.69 131.162 14.248 131.162 15.914C131.162 16.544 130.644 16.922 129.398 16.922C128.432 16.922 127.424 16.6 126.794 16.152L126.234 17.216C126.85 17.706 128.068 18.084 129.3 18.084ZM139.856 18H141.508L138.078 13.646L141.2 10.58H139.576L135.53 14.276V7.612H134.186V18H135.53V15.97L137.07 14.542L139.856 18Z" fill="#112211"/>
</svg>
