<svg width="64" height="25" viewBox="0 0 64 25" fill="none" xmlns="http://www.w3.org/2000/svg">
<path d="M18.75 3.5H5.25C4.00736 3.5 3 4.50736 3 5.75V19.25C3 20.4926 4.00736 21.5 5.25 21.5H18.75C19.9926 21.5 21 20.4926 21 19.25V5.75C21 4.50736 19.9926 3.5 18.75 3.5Z" stroke="#112211" stroke-width="2" stroke-linejoin="round"/>
<path d="M33.47 18V8.2H37.292C38.1507 8.2 38.8833 8.33533 39.49 8.606C40.0967 8.87667 40.5633 9.26867 40.89 9.782C41.2167 10.2953 41.38 10.9067 41.38 11.616C41.38 12.3253 41.2167 12.9367 40.89 13.45C40.5633 13.954 40.0967 14.346 39.49 14.626C38.8833 14.8967 38.1507 15.032 37.292 15.032H34.24L34.87 14.374V18H33.47ZM34.87 14.514L34.24 13.814H37.25C38.146 13.814 38.8227 13.6227 39.28 13.24C39.7467 12.8573 39.98 12.316 39.98 11.616C39.98 10.916 39.7467 10.3747 39.28 9.992C38.8227 9.60933 38.146 9.418 37.25 9.418H34.24L34.87 8.718V14.514ZM46.3915 18.084C45.6448 18.084 44.9821 17.9207 44.4035 17.594C43.8248 17.2673 43.3675 16.8193 43.0315 16.25C42.6955 15.6713 42.5275 15.018 42.5275 14.29C42.5275 13.5527 42.6955 12.8993 43.0315 12.33C43.3675 11.7607 43.8248 11.3173 44.4035 11C44.9821 10.6733 45.6448 10.51 46.3915 10.51C47.1288 10.51 47.7868 10.6733 48.3655 11C48.9535 11.3173 49.4108 11.7607 49.7375 12.33C50.0735 12.89 50.2415 13.5433 50.2415 14.29C50.2415 15.0273 50.0735 15.6807 49.7375 16.25C49.4108 16.8193 48.9535 17.2673 48.3655 17.594C47.7868 17.9207 47.1288 18.084 46.3915 18.084ZM46.3915 16.908C46.8675 16.908 47.2921 16.8007 47.6655 16.586C48.0481 16.3713 48.3468 16.068 48.5615 15.676C48.7761 15.2747 48.8835 14.8127 48.8835 14.29C48.8835 13.758 48.7761 13.3007 48.5615 12.918C48.3468 12.526 48.0481 12.2227 47.6655 12.008C47.2921 11.7933 46.8675 11.686 46.3915 11.686C45.9155 11.686 45.4908 11.7933 45.1175 12.008C44.7441 12.2227 44.4455 12.526 44.2215 12.918C43.9975 13.3007 43.8855 13.758 43.8855 14.29C43.8855 14.8127 43.9975 15.2747 44.2215 15.676C44.4455 16.068 44.7441 16.3713 45.1175 16.586C45.4908 16.8007 45.9155 16.908 46.3915 16.908ZM55.2782 18.084C54.5315 18.084 53.8688 17.9207 53.2902 17.594C52.7115 17.2673 52.2542 16.8193 51.9182 16.25C51.5822 15.6713 51.4142 15.018 51.4142 14.29C51.4142 13.5527 51.5822 12.8993 51.9182 12.33C52.2542 11.7607 52.7115 11.3173 53.2902 11C53.8688 10.6733 54.5315 10.51 55.2782 10.51C56.0155 10.51 56.6735 10.6733 57.2522 11C57.8402 11.3173 58.2975 11.7607 58.6242 12.33C58.9602 12.89 59.1282 13.5433 59.1282 14.29C59.1282 15.0273 58.9602 15.6807 58.6242 16.25C58.2975 16.8193 57.8402 17.2673 57.2522 17.594C56.6735 17.9207 56.0155 18.084 55.2782 18.084ZM55.2782 16.908C55.7542 16.908 56.1788 16.8007 56.5522 16.586C56.9348 16.3713 57.2335 16.068 57.4482 15.676C57.6628 15.2747 57.7702 14.8127 57.7702 14.29C57.7702 13.758 57.6628 13.3007 57.4482 12.918C57.2335 12.526 56.9348 12.2227 56.5522 12.008C56.1788 11.7933 55.7542 11.686 55.2782 11.686C54.8022 11.686 54.3775 11.7933 54.0042 12.008C53.6308 12.2227 53.3322 12.526 53.1082 12.918C52.8842 13.3007 52.7722 13.758 52.7722 14.29C52.7722 14.8127 52.8842 15.2747 53.1082 15.676C53.3322 16.068 53.6308 16.3713 54.0042 16.586C54.3775 16.8007 54.8022 16.908 55.2782 16.908ZM60.9869 18V7.612H62.3309V18H60.9869Z" fill="#112211"/>
</svg>
