<svg width="428" height="49" viewBox="0 0 428 49" fill="none" xmlns="http://www.w3.org/2000/svg">
<rect y="0.5" width="428" height="48" rx="4" fill="#8DD3BB"/>
<path d="M178.714 30L174.43 20.2H176.404L180.226 29.062H179.092L182.956 20.2H184.776L180.506 30H178.714ZM185.711 30V22.524H187.461V30H185.711ZM186.593 21.292C186.266 21.292 185.995 21.1893 185.781 20.984C185.575 20.7787 185.473 20.5313 185.473 20.242C185.473 19.9433 185.575 19.696 185.781 19.5C185.995 19.2947 186.266 19.192 186.593 19.192C186.919 19.192 187.185 19.29 187.391 19.486C187.605 19.6727 187.713 19.9107 187.713 20.2C187.713 20.508 187.61 20.7693 187.405 20.984C187.199 21.1893 186.929 21.292 186.593 21.292ZM193.271 30.098C192.441 30.098 191.713 29.9347 191.087 29.608C190.471 29.272 189.991 28.8147 189.645 28.236C189.309 27.6573 189.141 26.9993 189.141 26.262C189.141 25.5153 189.305 24.8573 189.631 24.288C189.967 23.7093 190.425 23.2567 191.003 22.93C191.591 22.6033 192.259 22.44 193.005 22.44C193.733 22.44 194.382 22.5987 194.951 22.916C195.521 23.2333 195.969 23.6813 196.295 24.26C196.622 24.8387 196.785 25.52 196.785 26.304C196.785 26.3787 196.781 26.4627 196.771 26.556C196.771 26.6493 196.767 26.738 196.757 26.822H190.527V25.66H195.833L195.147 26.024C195.157 25.5947 195.068 25.2167 194.881 24.89C194.695 24.5633 194.438 24.3067 194.111 24.12C193.794 23.9333 193.425 23.84 193.005 23.84C192.576 23.84 192.198 23.9333 191.871 24.12C191.554 24.3067 191.302 24.568 191.115 24.904C190.938 25.2307 190.849 25.618 190.849 26.066V26.346C190.849 26.794 190.952 27.1907 191.157 27.536C191.363 27.8813 191.652 28.1473 192.025 28.334C192.399 28.5207 192.828 28.614 193.313 28.614C193.733 28.614 194.111 28.5487 194.447 28.418C194.783 28.2873 195.082 28.082 195.343 27.802L196.281 28.88C195.945 29.272 195.521 29.5753 195.007 29.79C194.503 29.9953 193.925 30.098 193.271 30.098ZM199.982 30L197.238 22.524H198.89L201.242 29.118H200.458L202.922 22.524H204.392L206.786 29.118H206.016L208.438 22.524H209.992L207.234 30H205.554L203.37 24.162H203.888L201.662 30H199.982ZM215.232 30V20.2H219.264C220.132 20.2 220.874 20.34 221.49 20.62C222.115 20.9 222.596 21.3013 222.932 21.824C223.268 22.3467 223.436 22.9673 223.436 23.686C223.436 24.4047 223.268 25.0253 222.932 25.548C222.596 26.0707 222.115 26.472 221.49 26.752C220.874 27.032 220.132 27.172 219.264 27.172H216.24L217.052 26.318V30H215.232ZM217.052 26.514L216.24 25.632H219.18C219.983 25.632 220.585 25.464 220.986 25.128C221.397 24.7827 221.602 24.302 221.602 23.686C221.602 23.0607 221.397 22.58 220.986 22.244C220.585 21.908 219.983 21.74 219.18 21.74H216.24L217.052 20.844V26.514ZM225.222 30V19.612H226.972V30H225.222ZM233.875 30V28.488L233.777 28.166V25.52C233.777 25.0067 233.623 24.61 233.315 24.33C233.007 24.0407 232.54 23.896 231.915 23.896C231.495 23.896 231.08 23.9613 230.669 24.092C230.268 24.2227 229.927 24.4047 229.647 24.638L228.961 23.364C229.362 23.056 229.838 22.8273 230.389 22.678C230.949 22.5193 231.528 22.44 232.125 22.44C233.208 22.44 234.043 22.7013 234.631 23.224C235.228 23.7373 235.527 24.5353 235.527 25.618V30H233.875ZM231.523 30.098C230.963 30.098 230.473 30.0047 230.053 29.818C229.633 29.622 229.306 29.356 229.073 29.02C228.849 28.6747 228.737 28.2873 228.737 27.858C228.737 27.438 228.835 27.06 229.031 26.724C229.236 26.388 229.568 26.122 230.025 25.926C230.482 25.73 231.089 25.632 231.845 25.632H234.015V26.794H231.971C231.374 26.794 230.972 26.892 230.767 27.088C230.562 27.2747 230.459 27.508 230.459 27.788C230.459 28.1053 230.585 28.3573 230.837 28.544C231.089 28.7307 231.439 28.824 231.887 28.824C232.316 28.824 232.699 28.726 233.035 28.53C233.38 28.334 233.628 28.0447 233.777 27.662L234.071 28.712C233.903 29.1507 233.6 29.4913 233.161 29.734C232.732 29.9767 232.186 30.098 231.523 30.098ZM241.217 30.098C240.433 30.098 239.733 29.9347 239.117 29.608C238.51 29.272 238.034 28.8147 237.689 28.236C237.343 27.6573 237.171 26.9993 237.171 26.262C237.171 25.5153 237.343 24.8573 237.689 24.288C238.034 23.7093 238.51 23.2567 239.117 22.93C239.733 22.6033 240.433 22.44 241.217 22.44C241.945 22.44 242.584 22.5893 243.135 22.888C243.695 23.1773 244.119 23.6067 244.409 24.176L243.065 24.96C242.841 24.6053 242.565 24.344 242.239 24.176C241.921 24.008 241.576 23.924 241.203 23.924C240.773 23.924 240.386 24.0173 240.041 24.204C239.695 24.3907 239.425 24.6613 239.229 25.016C239.033 25.3613 238.935 25.7767 238.935 26.262C238.935 26.7473 239.033 27.1673 239.229 27.522C239.425 27.8673 239.695 28.1333 240.041 28.32C240.386 28.5067 240.773 28.6 241.203 28.6C241.576 28.6 241.921 28.516 242.239 28.348C242.565 28.18 242.841 27.9187 243.065 27.564L244.409 28.348C244.119 28.908 243.695 29.342 243.135 29.65C242.584 29.9487 241.945 30.098 241.217 30.098ZM249.326 30.098C248.495 30.098 247.767 29.9347 247.142 29.608C246.526 29.272 246.045 28.8147 245.7 28.236C245.364 27.6573 245.196 26.9993 245.196 26.262C245.196 25.5153 245.359 24.8573 245.686 24.288C246.022 23.7093 246.479 23.2567 247.058 22.93C247.646 22.6033 248.313 22.44 249.06 22.44C249.788 22.44 250.437 22.5987 251.006 22.916C251.575 23.2333 252.023 23.6813 252.35 24.26C252.677 24.8387 252.84 25.52 252.84 26.304C252.84 26.3787 252.835 26.4627 252.826 26.556C252.826 26.6493 252.821 26.738 252.812 26.822H246.582V25.66H251.888L251.202 26.024C251.211 25.5947 251.123 25.2167 250.936 24.89C250.749 24.5633 250.493 24.3067 250.166 24.12C249.849 23.9333 249.48 23.84 249.06 23.84C248.631 23.84 248.253 23.9333 247.926 24.12C247.609 24.3067 247.357 24.568 247.17 24.904C246.993 25.2307 246.904 25.618 246.904 26.066V26.346C246.904 26.794 247.007 27.1907 247.212 27.536C247.417 27.8813 247.707 28.1473 248.08 28.334C248.453 28.5207 248.883 28.614 249.368 28.614C249.788 28.614 250.166 28.5487 250.502 28.418C250.838 28.2873 251.137 28.082 251.398 27.802L252.336 28.88C252 29.272 251.575 29.5753 251.062 29.79C250.558 29.9953 249.979 30.098 249.326 30.098Z" fill="#112211"/>
</svg>
